<?xml version="1.0" encoding="UTF-8"?>
<svg version="1.1" xmlns="http://www.w3.org/2000/svg" width="30" height="30">
<path d="M0 0 C1.546875 -0.00773437 1.546875 -0.00773437 3.125 -0.015625 C5.94597278 0.24500835 7.60145718 0.79703656 10 2.25 C9.773125 3.1575 9.54625 4.065 9.3125 5 C8.93097859 8.96782269 9.684036 9.22143169 12 12.25 C13.0229061 16.78001273 13.39281621 19.1151976 11.875 23.5 C9.72552192 26.65256786 8.35958562 28.39150583 5 30.25 C0.8664446 30.9896161 -3.08032239 31.20787594 -6.91015625 29.296875 C-10.14315496 26.7867335 -12.16549653 24.23707214 -13 20.25 C-12.98445075 16.36268846 -12.77385141 13.26195953 -10.375 10.125 C-8.64110994 8.19692599 -8.64110994 8.19692599 -9.3125 5 C-9.539375 4.0925 -9.76625 3.185 -10 2.25 C-6.6042877 0.19298197 -3.9382341 -0.01969117 0 0 Z " fill="#436984" transform="translate(15,-0.25)"/>
<path d="M0 0 C0.99 0.33 1.98 0.66 3 1 C3.12117187 1.69867188 3.24234375 2.39734375 3.3671875 3.1171875 C3.53476563 4.02726563 3.70234375 4.93734375 3.875 5.875 C4.03742187 6.77992187 4.19984375 7.68484375 4.3671875 8.6171875 C4.83044703 11.16505988 4.83044703 11.16505988 7 13 C11.07306732 13.48382786 11.07306732 13.48382786 14.6484375 11.8046875 C16.41558896 9.44508063 16.49783435 7.73335108 16.6875 4.8125 C16.75324219 3.91144531 16.81898437 3.01039062 16.88671875 2.08203125 C16.92410156 1.39496094 16.96148438 0.70789062 17 0 C18.91796875 0.3359375 18.91796875 0.3359375 21 1 C23.2820325 5.56406501 23.30858315 9.11462291 22 14 C20.13482219 16.90863392 18.14371834 19.42814083 15 21 C10.94619711 21.51037087 6.8225342 21.89274541 3.078125 20.05859375 C-0.13426316 17.52207934 -2.16467413 14.99100138 -3 11 C-2.9084824 6.76523084 -2.39684301 3.59526452 0 0 Z " fill="#BBC535" transform="translate(5,9)"/>
<path d="M0 0 C1.04027344 -0.01417969 2.08054687 -0.02835937 3.15234375 -0.04296875 C6.01296613 0.18357718 7.63920151 0.71016381 10.0625 2.1875 C9.7325 4.4975 9.4025 6.8075 9.0625 9.1875 C4.4425 9.1875 -0.1775 9.1875 -4.9375 9.1875 C-4.9375 10.5075 -4.9375 11.8275 -4.9375 13.1875 C-5.9275 12.8575 -6.9175 12.5275 -7.9375 12.1875 C-8.5120952 8.45263121 -8.9375 4.97456732 -8.9375 1.1875 C-5.74593552 0.12364517 -3.35252524 0.02072018 0 0 Z " fill="#A7B3C3" transform="translate(14.9375,-0.1875)"/>
<path d="M0 0 C0.99 0.33 1.98 0.66 3 1 C3.12117187 1.69867188 3.24234375 2.39734375 3.3671875 3.1171875 C3.53476563 4.02726563 3.70234375 4.93734375 3.875 5.875 C4.03742187 6.77992187 4.19984375 7.68484375 4.3671875 8.6171875 C4.83044703 11.16505988 4.83044703 11.16505988 7 13 C9.57061311 13.64767793 9.57061311 13.64767793 12 14 C12 14.66 12 15.32 12 16 C11.01 16.33 10.02 16.66 9 17 C8.34 17.99 7.68 18.98 7 20 C7 19.34 7 18.68 7 18 C5.72125 17.773125 4.4425 17.54625 3.125 17.3125 C-0.76991097 16.31292108 -0.76991097 16.31292108 -2.5625 13.875 C-3.34260412 8.74860149 -2.93780888 4.40671332 0 0 Z " fill="#B9C336" transform="translate(5,9)"/>
<path d="M0 0 C1.9375 0.375 1.9375 0.375 4 1 C5.4783226 3.95664519 5.06032783 6.74229737 5 10 C4.401875 10.20625 3.80375 10.4125 3.1875 10.625 C0.18981233 12.50926082 -0.61361776 14.81132084 -2 18 C-2.66 18 -3.32 18 -4 18 C-4.1875 15.6875 -4.1875 15.6875 -4 13 C-3.5153125 12.5565625 -3.030625 12.113125 -2.53125 11.65625 C-0.46489787 9.42121606 -0.50723568 7.81142948 -0.3125 4.8125 C-0.21388672 3.46091797 -0.21388672 3.46091797 -0.11328125 2.08203125 C-0.05720703 1.05142578 -0.05720703 1.05142578 0 0 Z " fill="#ADBB3F" transform="translate(22,9)"/>
<path d="M0 0 C0.89847656 0.00257813 1.79695312 0.00515625 2.72265625 0.0078125 C3.61855469 0.00523437 4.51445312 0.00265625 5.4375 0 C7.78515625 0.1328125 7.78515625 0.1328125 9.78515625 1.1328125 C9.78515625 4.4328125 9.78515625 7.7328125 9.78515625 11.1328125 C9.45515625 11.1328125 9.12515625 11.1328125 8.78515625 11.1328125 C8.78515625 9.1528125 8.78515625 7.1728125 8.78515625 5.1328125 C5.15515625 5.1328125 1.52515625 5.1328125 -2.21484375 5.1328125 C-2.54484375 3.8128125 -2.87484375 2.4928125 -3.21484375 1.1328125 C-2.21484375 0.1328125 -2.21484375 0.1328125 0 0 Z " fill="#BC634C" transform="translate(12.21484375,7.8671875)"/>
<path d="M0 0 C5.75 2.75 5.75 2.75 8 5 C10.57061311 5.64767793 10.57061311 5.64767793 13 6 C13 6.66 13 7.32 13 8 C12.01 8.33 11.02 8.66 10 9 C9.01 10.485 9.01 10.485 8 12 C8 11.34 8 10.68 8 10 C5.69 9.34 3.38 8.68 1 8 C1.33 7.01 1.66 6.02 2 5 C2.66 5.33 3.32 5.66 4 6 C4 5.34 4 4.68 4 4 C2.68 3.67 1.36 3.34 0 3 C0 2.01 0 1.02 0 0 Z " fill="#EAE613" transform="translate(4,17)"/>
<path d="M0 0 C1.07765625 0.01804688 2.1553125 0.03609375 3.265625 0.0546875 C4.49539062 0.08949219 4.49539062 0.08949219 5.75 0.125 C2.00712373 2.25681214 -0.03984129 2.08185425 -4.25 1.125 C-4.58 2.115 -4.91 3.105 -5.25 4.125 C-5.91 4.125 -6.57 4.125 -7.25 4.125 C-6.92 5.445 -6.59 6.765 -6.25 8.125 C-7.24 8.125 -8.23 8.125 -9.25 8.125 C-9.58 6.145 -9.91 4.165 -10.25 2.125 C-6.7733662 -0.01836161 -4.03770805 -0.08777626 0 0 Z " fill="#5A83BE" transform="translate(15.25,-0.125)"/>
<path d="M0 0 C-0.33 2.31 -0.66 4.62 -1 7 C-2.65 6.67 -4.3 6.34 -6 6 C-7 3 -7 3 -6 0 C-3.50907189 -1.24546405 -2.58919267 -0.7767578 0 0 Z " fill="#7294C1" transform="translate(25,2)"/>
<path d="M0 0 C1.093125 0.37125 2.18625 0.7425 3.3125 1.125 C4.529375 1.41375 5.74625 1.7025 7 2 C7.99 1.34 8.98 0.68 10 0 C10 0.66 10 1.32 10 2 C10.66 2 11.32 2 12 2 C12 2.66 12 3.32 12 4 C12.99 4.33 13.98 4.66 15 5 C6.22421525 5.76681614 6.22421525 5.76681614 3.22265625 3.88671875 C1.875 2.5 1.875 2.5 0 0 Z " fill="#9BAF4B" transform="translate(5,25)"/>
<path d="M0 0 C3.96 0 7.92 0 12 0 C9 4 9 4 6 4.5 C3 4 3 4 0 0 Z " fill="#7393B5" transform="translate(9,19)"/>
<path d="M0 0 C1.32 0.33 2.64 0.66 4 1 C4 4.3 4 7.6 4 11 C3.67 11 3.34 11 3 11 C3 9.02 3 7.04 3 5 C1.35 5 -0.3 5 -2 5 C-2 4.34 -2 3.68 -2 3 C-1.34 3 -0.68 3 0 3 C0 2.01 0 1.02 0 0 Z " fill="#A17B6E" transform="translate(18,8)"/>
<path d="M0 0 C3.3 0 6.6 0 10 0 C9.01 0.495 9.01 0.495 8 1 C8 1.99 8 2.98 8 4 C5.69 4 3.38 4 1 4 C0.67 2.68 0.34 1.36 0 0 Z " fill="#9FB5D3" transform="translate(11,1)"/>
<path d="M0 0 C-0.8125 3.4375 -0.8125 3.4375 -2 7 C-2.99 7.33 -3.98 7.66 -5 8 C-5.36625971 3.48279689 -5.36625971 3.48279689 -3.625 1.1875 C-2 0 -2 0 0 0 Z " fill="#F3EC0D" transform="translate(23,19)"/>
<path d="M0 0 C1.0326802 2.78823655 1.04509293 3.8677274 0.0625 6.75 C-0.288125 7.4925 -0.63875 8.235 -1 9 C-2.32 8.34 -3.64 7.68 -5 7 C-4.34 5.68 -3.68 4.36 -3 3 C-2.34 3 -1.68 3 -1 3 C-0.67 2.01 -0.34 1.02 0 0 Z " fill="#7F9B5E" transform="translate(27,16)"/>
<path d="M0 0 C3.4375 0.8125 3.4375 0.8125 7 2 C7.33 2.99 7.66 3.98 8 5 C4.75791433 4.64950425 3.38472296 4.43778819 1.1875 1.9375 C0.795625 1.298125 0.40375 0.65875 0 0 Z " fill="#86A059" transform="translate(5,25)"/>
<path d="M0 0 C0.433125 0.639375 0.86625 1.27875 1.3125 1.9375 C2.91239177 4.26746003 2.91239177 4.26746003 6 5 C6 5.66 6 6.32 6 7 C5.34 7 4.68 7 4 7 C3.34 7.66 2.68 8.32 2 9 C0.50178941 5.62902617 0 3.79557881 0 0 Z " fill="#769564" transform="translate(2,16)"/>
<path d="M0 0 C0.66 0.33 1.32 0.66 2 1 C2.1875 3.375 2.1875 3.375 2 6 C1.01 6.66 0.02 7.32 -1 8 C-1.04241723 5.66705225 -1.04092937 3.33297433 -1 1 C-0.67 0.67 -0.34 0.34 0 0 Z " fill="#E7E414" transform="translate(25,13)"/>
<path d="M0 0 C0.99 0.33 1.98 0.66 3 1 C3 2.32 3 3.64 3 5 C1.68 5 0.36 5 -1 5 C-0.67 3.35 -0.34 1.7 0 0 Z " fill="#7C908F" transform="translate(14,13)"/>
</svg>
