<?xml version="1.0" encoding="UTF-8"?>
<!DOCTYPE svg PUBLIC "-//W3C//DTD SVG 1.1//EN" "http://www.w3.org/Graphics/SVG/1.1/DTD/svg11.dtd">
<svg xmlns="http://www.w3.org/2000/svg" version="1.1" width="274px" height="330px" style="shape-rendering:geometricPrecision; text-rendering:geometricPrecision; image-rendering:optimizeQuality; fill-rule:evenodd; clip-rule:evenodd" xmlns:xlink="http://www.w3.org/1999/xlink">
<g><path style="opacity:1" fill="#ad1e22" d="M 271.5,1.5 C 271.5,61.8333 271.5,122.167 271.5,182.5C 270.701,185.43 270.368,188.43 270.5,191.5C 270.672,192.492 270.338,193.158 269.5,193.5C 266.112,199.343 263.779,205.676 262.5,212.5C 259.628,214.337 258.294,217.003 258.5,220.5C 257.542,220.953 256.708,221.619 256,222.5C 254.882,224.765 254.049,227.099 253.5,229.5C 249.425,233.976 246.092,238.976 243.5,244.5C 240.285,246.799 237.952,249.799 236.5,253.5C 234.071,254.265 232.738,255.931 232.5,258.5C 232.5,259.167 232.167,259.5 231.5,259.5C 229.81,259.856 228.81,260.856 228.5,262.5C 228.5,263.833 227.833,264.5 226.5,264.5C 223.833,266.5 221.5,268.833 219.5,271.5C 219.5,272.833 218.833,273.5 217.5,273.5C 211.845,277.489 206.845,282.156 202.5,287.5C 200.251,288.08 198.585,289.413 197.5,291.5C 194.712,292.226 192.712,293.893 191.5,296.5C 190.29,296.932 189.29,297.599 188.5,298.5C 184.293,300.435 180.627,303.102 177.5,306.5C 177.5,307.167 177.167,307.5 176.5,307.5C 173.151,308.169 170.484,309.836 168.5,312.5C 168.158,313.338 167.492,313.672 166.5,313.5C 164.596,313.738 163.262,314.738 162.5,316.5C 159.834,316.933 157.168,317.433 154.5,318C 154.833,318.333 155.167,318.667 155.5,319C 154.619,319.708 153.953,320.542 153.5,321.5C 150.246,321.794 147.579,323.127 145.5,325.5C 139.513,328.164 133.513,328.164 127.5,325.5C 126.524,324.185 125.524,322.852 124.5,321.5C 121.075,320.71 117.742,319.71 114.5,318.5C 109.632,316.618 105.299,313.952 101.5,310.5C 99.844,307.262 97.1773,305.262 93.5,304.5C 90.6737,304.002 88.3403,302.669 86.5,300.5C 86.5,299.167 85.8333,298.5 84.5,298.5C 82.8212,298.715 81.8212,298.048 81.5,296.5C 80.0892,294.086 78.0892,292.419 75.5,291.5C 74.4206,289.457 72.754,288.124 70.5,287.5C 69.7377,285.738 68.4044,284.738 66.5,284.5C 65.8333,281.833 64.1667,280.167 61.5,279.5C 60.4023,275.068 57.7357,272.402 53.5,271.5C 51.5,268.833 49.1667,266.5 46.5,264.5C 46.1708,260.837 44.1708,258.837 40.5,258.5C 40.2283,255.268 38.5616,253.268 35.5,252.5C 33.984,249.467 31.984,246.8 29.5,244.5C 27.7376,243.738 26.7376,242.404 26.5,240.5C 26.0887,237.338 25.2553,234.338 24,231.5C 23.6667,232.167 23.3333,232.833 23,233.5C 22.2917,232.619 21.4584,231.953 20.5,231.5C 20.539,228.911 19.539,226.911 17.5,225.5C 16.0937,225.027 15.427,224.027 15.5,222.5C 14.5792,218.701 12.9125,215.368 10.5,212.5C 10.5,212.167 10.5,211.833 10.5,211.5C 10.0113,210.005 9.34464,208.671 8.5,207.5C 8.60255,204.781 8.26922,202.115 7.5,199.5C 6.78902,197.455 5.45568,196.122 3.5,195.5C 3.5,194.833 3.5,194.167 3.5,193.5C 3.4246,188.048 2.59127,182.714 1,177.5C 0.182355,118.811 0.349021,60.1448 1.5,1.5C 91.4031,1.48152 181.403,1.48152 271.5,1.5 Z"/></g>
<g><path style="opacity:1" fill="#a9222a" d="M 1.5,-0.5 C 91.5,-0.5 181.5,-0.5 271.5,-0.5C 271.5,0.166667 271.5,0.833333 271.5,1.5C 181.403,1.48152 91.4031,1.48152 1.5,1.5C 1.5,0.833333 1.5,0.166667 1.5,-0.5 Z"/></g>
<g><path style="opacity:1" fill="#aa201a" d="M 11.5,11.5 C 53.1653,10.8333 94.9987,10.5 137,10.5C 179.172,10.5001 221.005,11.1667 262.5,12.5C 262.167,12.5 261.833,12.5 261.5,12.5C 178.335,11.5007 95.0017,11.1673 11.5,11.5 Z"/></g>
<g><path style="opacity:1" fill="#ea9c4a" d="M 13.5,12.5 C 14.5,12.5 15.5,12.5 16.5,12.5C 97.0052,12.8341 177.339,13.8341 257.5,15.5C 176.167,15.5 94.8333,15.5 13.5,15.5C 13.5,14.5 13.5,13.5 13.5,12.5 Z"/></g>
<g><path style="opacity:1" fill="#fef1ca" d="M 13.5,15.5 C 94.8333,15.5 176.167,15.5 257.5,15.5C 257.833,15.5 258.167,15.5 258.5,15.5C 258.832,67.336 258.499,119.003 257.5,170.5C 257.832,119.331 257.499,68.3306 256.5,17.5C 176.335,16.5007 96.0017,16.1674 15.5,16.5C 15.5,17.5 15.5,18.5 15.5,19.5C 15.5,73.8333 15.5,128.167 15.5,182.5C 14.8826,182.389 14.3826,182.056 14,181.5C 13.5,126.168 13.3333,70.8343 13.5,15.5 Z"/></g>
<g><path style="opacity:1" fill="#fefeed" d="M 256.5,17.5 C 175.954,16.8407 95.6204,17.5073 15.5,19.5C 15.5,18.5 15.5,17.5 15.5,16.5C 96.0017,16.1674 176.335,16.5007 256.5,17.5 Z"/></g>
<g><path style="opacity:1" fill="#fdfcfb" d="M 256.5,17.5 C 257.499,68.3306 257.832,119.331 257.5,170.5C 257.5,174.833 257.5,179.167 257.5,183.5C 257.5,184.5 257.5,185.5 257.5,186.5C 257.167,186.5 256.833,186.5 256.5,186.5C 255.022,188.645 253.688,190.979 252.5,193.5C 251.516,196.428 251.183,199.428 251.5,202.5C 251.5,203.167 251.5,203.833 251.5,204.5C 249.412,206.336 248.079,208.669 247.5,211.5C 247.5,211.833 247.5,212.167 247.5,212.5C 246.504,212.414 245.671,212.748 245,213.5C 244.664,217.039 242.831,219.206 239.5,220C 239.957,220.414 240.291,220.914 240.5,221.5C 238.095,223.642 236.762,226.309 236.5,229.5C 235.5,229.5 234.5,229.5 233.5,229.5C 233.5,231.5 233.5,233.5 233.5,235.5C 230.842,237.438 228.176,239.438 225.5,241.5C 224.423,243.729 223.756,246.063 223.5,248.5C 222.127,248.343 220.793,248.51 219.5,249C 215.1,254.045 210.433,258.879 205.5,263.5C 204.754,264.736 204.421,266.07 204.5,267.5C 203.448,267.351 202.448,267.517 201.5,268C 197.814,272.648 193.147,276.148 187.5,278.5C 185.528,280.829 183.528,283.162 181.5,285.5C 174.527,289.66 167.861,294.326 161.5,299.5C 159.271,300.577 156.937,301.244 154.5,301.5C 153.797,303.873 152.464,305.873 150.5,307.5C 149.833,307.5 149.167,307.5 148.5,307.5C 143.741,308.144 139.241,309.477 135,311.5C 132.239,310.582 129.406,309.916 126.5,309.5C 126.5,308.167 126.5,306.833 126.5,305.5C 113.795,300.979 102.462,294.146 92.5,285C 91.2068,284.51 89.8734,284.343 88.5,284.5C 87.4154,282.413 85.7488,281.08 83.5,280.5C 82.0892,278.086 80.0892,276.419 77.5,275.5C 76.5,275.167 75.8333,274.5 75.5,273.5C 74.0024,270.483 71.6691,268.483 68.5,267.5C 66.9764,263.798 64.8097,260.464 62,257.5C 60.4157,256.139 58.5824,255.472 56.5,255.5C 54.4422,249.665 50.7755,245.331 45.5,242.5C 44.63,239.622 43.2967,236.955 41.5,234.5C 40.4231,233.295 39.0898,232.628 37.5,232.5C 38.1863,227.88 36.6863,224.213 33,221.5C 31.6667,218.833 30.3333,216.167 29,213.5C 28.3292,212.748 27.4959,212.414 26.5,212.5C 24.0784,209.584 22.4117,206.251 21.5,202.5C 20.4035,195.421 18.4035,188.755 15.5,182.5C 15.5,128.167 15.5,73.8333 15.5,19.5C 95.6204,17.5073 175.954,16.8407 256.5,17.5 Z"/></g>
<g><path style="opacity:1" fill="#e9a052" d="M 13.5,15.5 C 13.3333,70.8343 13.5,126.168 14,181.5C 14.3826,182.056 14.8826,182.389 15.5,182.5C 15.7818,186.574 16.4485,190.574 17.5,194.5C 16.1429,193.41 15.1429,192.076 14.5,190.5C 14.628,188.345 14.128,186.345 13,184.5C 12.1681,127.999 12.3348,71.6652 13.5,15.5 Z"/></g>
<g><path style="opacity:1" fill="#a6474d" d="M 25.5,28.5 C 48.1667,28.5 70.8333,28.5 93.5,28.5C 93.5,29.5 93.5,30.5 93.5,31.5C 93.1667,31.5 92.8333,31.5 92.5,31.5C 70.8587,29.5108 48.8587,28.8441 26.5,29.5C 26.5,79.1667 26.5,128.833 26.5,178.5C 25.5011,128.669 25.1678,78.6694 25.5,28.5 Z"/></g>
<g><path style="opacity:1" fill="#a13c42" d="M 104.5,29.5 C 104.5,29.1667 104.5,28.8333 104.5,28.5C 126.5,28.5 148.5,28.5 170.5,28.5C 170.5,36.1667 170.5,43.8333 170.5,51.5C 155.5,51.5 140.5,51.5 125.5,51.5C 139.99,50.504 154.657,50.1707 169.5,50.5C 169.5,43.5 169.5,36.5 169.5,29.5C 147.833,29.5 126.167,29.5 104.5,29.5 Z"/></g>
<g><path style="opacity:1" fill="#e9c2c3" d="M 231.5,28.5 C 234.313,28.0246 236.313,29.0246 237.5,31.5C 236.391,31.4431 235.391,31.1098 234.5,30.5C 233.5,29.8333 232.5,29.1667 231.5,28.5 Z"/></g>
<g><path style="opacity:1" fill="#e67636" d="M 11.5,11.5 C 95.0017,11.1673 178.335,11.5007 261.5,12.5C 179.833,12.5 98.1667,12.5 16.5,12.5C 15.5,12.5 14.5,12.5 13.5,12.5C 12.7784,12.9175 12.2784,13.5842 12,14.5C 11.5,69.1657 11.3333,123.832 11.5,178.5C 10.501,123.336 10.1677,68.0025 10.5,12.5C 11.1667,12.5 11.5,12.1667 11.5,11.5 Z"/></g>
<g><path style="opacity:1" fill="#f28d35" d="M 13.5,12.5 C 13.5,13.5 13.5,14.5 13.5,15.5C 12.3348,71.6652 12.1681,127.999 13,184.5C 14.128,186.345 14.628,188.345 14.5,190.5C 12.0339,186.982 11.0339,182.982 11.5,178.5C 11.3333,123.832 11.5,69.1657 12,14.5C 12.2784,13.5842 12.7784,12.9175 13.5,12.5 Z"/></g>
<g><path style="opacity:1" fill="#ac1d22" d="M 92.5,266.5 C 92.1344,267.695 91.301,268.361 90,268.5C 87.5413,267.022 85.0413,265.688 82.5,264.5C 81.5,263.833 80.5,263.167 79.5,262.5C 79.5,262.167 79.5,261.833 79.5,261.5C 78.1667,257.5 75.5,254.833 71.5,253.5C 71.1667,253.5 70.8333,253.5 70.5,253.5C 70.5,209.5 70.5,165.5 70.5,121.5C 62.9809,121.175 55.6476,121.508 48.5,122.5C 47.5017,155.662 47.1684,188.996 47.5,222.5C 46.5,222.5 45.5,222.5 44.5,222.5C 43.2112,221.363 42.2112,220.03 41.5,218.5C 41.573,216.973 40.9063,215.973 39.5,215.5C 39.3404,213.847 38.6737,212.514 37.5,211.5C 36.3024,208.574 35.3024,205.574 34.5,202.5C 31.8026,195.263 29.4692,187.93 27.5,180.5C 27.5,130.5 27.5,80.5 27.5,30.5C 48.8333,30.5 70.1667,30.5 91.5,30.5C 91.1674,109.335 91.5007,188.002 92.5,266.5 Z"/></g>
<g><path style="opacity:1" fill="#ac1d22" d="M 104.5,29.5 C 126.167,29.5 147.833,29.5 169.5,29.5C 169.5,36.5 169.5,43.5 169.5,50.5C 154.657,50.1707 139.99,50.504 125.5,51.5C 125.5,67.1667 125.5,82.8333 125.5,98.5C 140.5,98.5 155.5,98.5 170.5,98.5C 170.5,99.5 170.5,100.5 170.5,101.5C 169.51,107.645 169.177,113.978 169.5,120.5C 154.462,119.85 139.795,120.517 125.5,122.5C 124.501,178.664 124.168,234.998 124.5,291.5C 122.833,291.5 121.167,291.5 119.5,291.5C 119.167,291.5 118.833,291.5 118.5,291.5C 117.29,291.068 116.29,290.401 115.5,289.5C 114.167,286.647 111.834,284.981 108.5,284.5C 107.5,284.167 106.833,283.5 106.5,282.5C 106.509,280.692 106.009,279.025 105,277.5C 104.5,194.834 104.333,112.167 104.5,29.5 Z"/></g>
<g><path style="opacity:1" fill="#ac1d23" d="M 234.5,30.5 C 235.391,31.1098 236.391,31.4431 237.5,31.5C 238.167,32.8333 239.167,33.8333 240.5,34.5C 240.5,34.8333 240.5,35.1667 240.5,35.5C 241.327,39.212 242.827,42.5453 245,45.5C 245.667,50.5 245.667,55.5 245,60.5C 244.899,63.6996 244.232,66.6996 243,69.5C 242.333,68.1667 241.667,68.1667 241,69.5C 240.943,67.0898 239.776,65.7565 237.5,65.5C 234.862,61.0176 231.195,57.6843 226.5,55.5C 223.031,54.8217 219.531,53.8217 216,52.5C 214,53.1667 214,53.8333 216,54.5C 218.225,55.096 220.392,55.7626 222.5,56.5C 224.394,57.0476 226.06,58.0476 227.5,59.5C 227.043,60.2975 226.376,60.6309 225.5,60.5C 219.697,57.7071 213.697,57.0404 207.5,58.5C 205.629,58.8588 204.129,59.8588 203,61.5C 202.5,73.8288 202.333,86.1622 202.5,98.5C 216.99,99.496 231.657,99.8293 246.5,99.5C 246.5,126.5 246.5,153.5 246.5,180.5C 246.5,181.5 246.5,182.5 246.5,183.5C 244.723,186.505 243.723,189.838 243.5,193.5C 242.833,193.5 242.5,193.833 242.5,194.5C 239.259,196.983 237.592,200.316 237.5,204.5C 236.833,206.833 236.167,209.167 235.5,211.5C 234.326,212.514 233.66,213.847 233.5,215.5C 232.5,215.833 231.833,216.5 231.5,217.5C 229.718,218.72 227.718,219.386 225.5,219.5C 225.832,187.662 225.498,155.996 224.5,124.5C 224.5,123.833 224.5,123.167 224.5,122.5C 210.491,120.812 196.158,119.812 181.5,119.5C 180.333,90.1723 180.167,60.839 181,31.5C 181.5,31 182,30.5 182.5,30C 199.851,29.2541 217.184,29.4208 234.5,30.5 Z"/></g>
<g><path style="opacity:0.333" fill="#b0363d" d="M -0.5,-0.5 C 0.166667,-0.5 0.833333,-0.5 1.5,-0.5C 1.5,0.166667 1.5,0.833333 1.5,1.5C 0.349021,60.1448 0.182355,118.811 1,177.5C 2.59127,182.714 3.4246,188.048 3.5,193.5C 1.95633,189.582 0.622995,185.582 -0.5,181.5C -0.5,120.833 -0.5,60.1667 -0.5,-0.5 Z"/></g>
<g><path style="opacity:1" fill="#ab2218" d="M 10.5,12.5 C 10.1677,68.0025 10.501,123.336 11.5,178.5C 11.0339,182.982 12.0339,186.982 14.5,190.5C 15.1667,193.833 15.8333,197.167 16.5,200.5C 15.0254,198.59 13.0254,197.424 10.5,197C 11.448,196.517 12.448,196.351 13.5,196.5C 12.4696,192.225 11.3029,187.892 10,183.5C 9.16813,126.332 9.3348,69.3319 10.5,12.5 Z"/></g>
<g><path style="opacity:1" fill="#dfa9ad" d="M 237.5,31.5 C 239.5,31.5 240.5,32.5 240.5,34.5C 239.167,33.8333 238.167,32.8333 237.5,31.5 Z"/></g>
<g><path style="opacity:1" fill="#9e2930" d="M 92.5,31.5 C 92.8333,31.5 93.1667,31.5 93.5,31.5C 93.5,111.5 93.5,191.5 93.5,271.5C 92.5,271.5 91.5,271.5 90.5,271.5C 87.7928,269.157 85.1261,266.823 82.5,264.5C 85.0413,265.688 87.5413,267.022 90,268.5C 91.301,268.361 92.1344,267.695 92.5,266.5C 92.5,188.167 92.5,109.833 92.5,31.5 Z"/></g>
<g><path style="opacity:1" fill="#eca8a9" d="M 230.5,41.5 C 228.952,41.8212 228.285,42.8212 228.5,44.5C 227.069,43.2196 226.402,41.5529 226.5,39.5C 228.38,39.2291 229.713,39.8958 230.5,41.5 Z"/></g>
<g><path style="opacity:1" fill="#f7d9d7" d="M 230.5,41.5 C 232.812,43.1455 234.812,45.1455 236.5,47.5C 233.167,48.5441 230.501,47.5441 228.5,44.5C 228.285,42.8212 228.952,41.8212 230.5,41.5 Z"/></g>
<g><path style="opacity:1" fill="#a43b3f" d="M 231.5,28.5 C 232.5,29.1667 233.5,29.8333 234.5,30.5C 217.184,29.4208 199.851,29.2541 182.5,30C 182,30.5 181.5,31 181,31.5C 180.167,60.839 180.333,90.1723 181.5,119.5C 196.158,119.812 210.491,120.812 224.5,122.5C 209.5,122.5 194.5,122.5 179.5,122.5C 179.5,91.1667 179.5,59.8333 179.5,28.5C 196.833,28.5 214.167,28.5 231.5,28.5 Z"/></g>
<g><path style="opacity:1" fill="#f5d8da" d="M 240.5,35.5 C 240.5,35.1667 240.5,34.8333 240.5,34.5C 242.679,34.84 244.512,35.84 246,37.5C 248.502,45.5246 249.002,53.5246 247.5,61.5C 248.492,53.0029 246.992,45.0029 243,37.5C 242.292,36.6195 241.458,35.9528 240.5,35.5 Z"/></g>
<g><path style="opacity:1" fill="#d75f5f" d="M 226.5,55.5 C 224.901,55.2322 223.568,55.5655 222.5,56.5C 220.392,55.7626 218.225,55.096 216,54.5C 214,53.8333 214,53.1667 216,52.5C 219.531,53.8217 223.031,54.8217 226.5,55.5 Z"/></g>
<g><path style="opacity:1" fill="#e6b8b7" d="M 222.5,56.5 C 223.568,55.5655 224.901,55.2322 226.5,55.5C 231.195,57.6843 234.862,61.0176 237.5,65.5C 237.5,65.8333 237.5,66.1667 237.5,66.5C 233.237,64.9319 229.237,62.9319 225.5,60.5C 226.376,60.6309 227.043,60.2975 227.5,59.5C 226.06,58.0476 224.394,57.0476 222.5,56.5 Z"/></g>
<g><path style="opacity:1" fill="#ad5e65" d="M 104.5,28.5 C 104.5,28.8333 104.5,29.1667 104.5,29.5C 103.501,112.998 103.167,196.665 103.5,280.5C 102.833,238.668 102.5,196.668 102.5,154.5C 102.5,112.161 103.167,70.1613 104.5,28.5 Z"/></g>
<g><path style="opacity:1" fill="#eab6b9" d="M 125.5,51.5 C 140.5,51.5 155.5,51.5 170.5,51.5C 156.01,52.496 141.343,52.8293 126.5,52.5C 126.5,67.5 126.5,82.5 126.5,97.5C 141.343,97.1707 156.01,97.504 170.5,98.5C 155.5,98.5 140.5,98.5 125.5,98.5C 125.5,82.8333 125.5,67.1667 125.5,51.5 Z"/></g>
<g><path style="opacity:1" fill="#ac3e3e" d="M 240.5,35.5 C 241.458,35.9528 242.292,36.6195 243,37.5C 246.992,45.0029 248.492,53.0029 247.5,61.5C 246.37,66.2244 245.036,70.8911 243.5,75.5C 242.624,75.6309 241.957,75.2975 241.5,74.5C 240.663,71.493 239.33,68.8263 237.5,66.5C 237.5,66.1667 237.5,65.8333 237.5,65.5C 239.776,65.7565 240.943,67.0898 241,69.5C 241.667,68.1667 242.333,68.1667 243,69.5C 244.232,66.6996 244.899,63.6996 245,60.5C 245.667,55.5 245.667,50.5 245,45.5C 242.827,42.5453 241.327,39.212 240.5,35.5 Z"/></g>
<g><path style="opacity:1" fill="#deb5b5" d="M 237.5,66.5 C 239.33,68.8263 240.663,71.493 241.5,74.5C 241.957,75.2975 242.624,75.6309 243.5,75.5C 242.632,77.6246 241.632,77.7913 240.5,76C 238.496,73.1512 237.496,69.9846 237.5,66.5 Z"/></g>
<g><path style="opacity:1" fill="#f0c5c7" d="M 207.5,58.5 C 206.542,59.9616 205.376,61.2949 204,62.5C 203.5,74.1619 203.333,85.8286 203.5,97.5C 218.01,97.1707 232.343,97.5041 246.5,98.5C 231.833,98.5 217.167,98.5 202.5,98.5C 202.333,86.1622 202.5,73.8288 203,61.5C 204.129,59.8588 205.629,58.8588 207.5,58.5 Z"/></g>
<g><path style="opacity:1" fill="#b45357" d="M 202.5,98.5 C 217.167,98.5 231.833,98.5 246.5,98.5C 247.833,125.833 247.833,153.167 246.5,180.5C 246.5,153.5 246.5,126.5 246.5,99.5C 231.657,99.8293 216.99,99.496 202.5,98.5 Z"/></g>
<g><path style="opacity:1" fill="#ee8f3d" d="M 16.5,12.5 C 98.1667,12.5 179.833,12.5 261.5,12.5C 261.833,12.5 262.167,12.5 262.5,12.5C 262.667,69.1676 262.5,125.834 262,182.5C 260.223,188.264 258.389,193.931 256.5,199.5C 256.5,197.5 256.5,195.5 256.5,193.5C 256.993,191.194 257.326,188.861 257.5,186.5C 257.5,185.5 257.5,184.5 257.5,183.5C 258.268,182.737 258.768,181.737 259,180.5C 259.832,125.332 259.665,70.3318 258.5,15.5C 258.167,15.5 257.833,15.5 257.5,15.5C 177.339,13.8341 97.0052,12.8341 16.5,12.5 Z"/></g>
<g><path style="opacity:1" fill="#a31d25" d="M 92.5,31.5 C 92.5,109.833 92.5,188.167 92.5,266.5C 91.5007,188.002 91.1674,109.335 91.5,30.5C 70.1667,30.5 48.8333,30.5 27.5,30.5C 27.5,80.5 27.5,130.5 27.5,180.5C 27.1667,180.5 26.8333,180.5 26.5,180.5C 26.5,179.833 26.5,179.167 26.5,178.5C 26.5,128.833 26.5,79.1667 26.5,29.5C 48.8587,28.8441 70.8587,29.5108 92.5,31.5 Z"/></g>
<g><path style="opacity:1" fill="#f9cbca" d="M 69.5,52.5 C 69.8333,52.5 70.1667,52.5 70.5,52.5C 70.5,67.8333 70.5,83.1667 70.5,98.5C 63.5,98.5 56.5,98.5 49.5,98.5C 49.5,98.1667 49.5,97.8333 49.5,97.5C 56.1667,97.5 62.8333,97.5 69.5,97.5C 69.5,82.5 69.5,67.5 69.5,52.5 Z"/></g>
<g><path style="opacity:1" fill="#e8b6ba" d="M 70.5,52.5 C 70.1667,52.5 69.8333,52.5 69.5,52.5C 62.8333,52.5 56.1667,52.5 49.5,52.5C 49.5,67.5 49.5,82.5 49.5,97.5C 49.5,97.8333 49.5,98.1667 49.5,98.5C 48.5037,83.0089 48.1704,67.3422 48.5,51.5C 56.0191,51.175 63.3524,51.5084 70.5,52.5 Z"/></g>
<g><path style="opacity:1" fill="#fefdfd" d="M 69.5,52.5 C 69.5,67.5 69.5,82.5 69.5,97.5C 62.8333,97.5 56.1667,97.5 49.5,97.5C 49.5,82.5 49.5,67.5 49.5,52.5C 56.1667,52.5 62.8333,52.5 69.5,52.5 Z"/></g>
<g><path style="opacity:1" fill="#d4a0a4" d="M 93.5,28.5 C 94.4993,109.332 94.8326,190.332 94.5,271.5C 93.3351,274.022 92.0018,274.022 90.5,271.5C 91.5,271.5 92.5,271.5 93.5,271.5C 93.5,191.5 93.5,111.5 93.5,31.5C 93.5,30.5 93.5,29.5 93.5,28.5 Z"/></g>
<g><path style="opacity:1" fill="#ab4347" d="M 170.5,101.5 C 170.5,108.5 170.5,115.5 170.5,122.5C 155.5,122.5 140.5,122.5 125.5,122.5C 139.795,120.517 154.462,119.85 169.5,120.5C 169.177,113.978 169.51,107.645 170.5,101.5 Z"/></g>
<g><path style="opacity:1" fill="#fcebed" d="M 25.5,28.5 C 48.6607,27.5025 71.994,27.1691 95.5,27.5C 95.8326,109.002 95.4993,190.335 94.5,271.5C 94.8326,190.332 94.4993,109.332 93.5,28.5C 70.8333,28.5 48.1667,28.5 25.5,28.5 Z"/></g>
<g><path style="opacity:1" fill="#f4cfd1" d="M 179.5,122.5 C 194.5,122.5 209.5,122.5 224.5,122.5C 224.5,123.167 224.5,123.833 224.5,124.5C 224.5,156.5 224.5,188.5 224.5,220.5C 224.337,222.857 224.503,225.19 225,227.5C 225.383,226.944 225.883,226.611 226.5,226.5C 226.672,227.492 226.338,228.158 225.5,228.5C 224.391,228.443 223.391,228.11 222.5,227.5C 222.5,192.833 222.5,158.167 222.5,123.5C 207.99,123.829 193.657,123.496 179.5,122.5 Z"/></g>
<g><path style="opacity:1" fill="#f6d9da" d="M 170.5,98.5 C 171.824,102.107 172.491,106.107 172.5,110.5C 172.485,114.748 172.152,118.915 171.5,123C 156.837,123.5 142.17,123.667 127.5,123.5C 127.175,180.523 127.508,237.523 128.5,294.5C 127.904,297.246 126.237,298.08 123.5,297C 120.921,295.924 119.254,294.091 118.5,291.5C 118.833,291.5 119.167,291.5 119.5,291.5C 120.99,293.28 122.99,293.946 125.5,293.5C 125.5,236.5 125.5,179.5 125.5,122.5C 140.5,122.5 155.5,122.5 170.5,122.5C 170.5,115.5 170.5,108.5 170.5,101.5C 170.5,100.5 170.5,99.5 170.5,98.5 Z"/></g>
<g><path style="opacity:1" fill="#a22c33" d="M 224.5,124.5 C 225.498,155.996 225.832,187.662 225.5,219.5C 227.718,219.386 229.718,218.72 231.5,217.5C 230.473,219.184 229.473,220.851 228.5,222.5C 227.542,222.953 226.708,223.619 226,224.5C 225.79,222.942 225.29,221.609 224.5,220.5C 224.5,188.5 224.5,156.5 224.5,124.5 Z"/></g>
<g><path style="opacity:1" fill="#a54248" d="M 48.5,122.5 C 48.8317,157.337 48.4984,192.004 47.5,226.5C 46.5116,225.205 45.5116,223.872 44.5,222.5C 45.5,222.5 46.5,222.5 47.5,222.5C 47.1684,188.996 47.5017,155.662 48.5,122.5 Z"/></g>
<g><path style="opacity:1" fill="#a9464a" d="M 125.5,122.5 C 125.5,179.5 125.5,236.5 125.5,293.5C 122.99,293.946 120.99,293.28 119.5,291.5C 121.167,291.5 122.833,291.5 124.5,291.5C 124.168,234.998 124.501,178.664 125.5,122.5 Z"/></g>
<g><path style="opacity:1" fill="#e9b4b9" d="M 70.5,253.5 C 69.5013,210.337 69.168,167.003 69.5,123.5C 63.021,122.509 56.3543,122.176 49.5,122.5C 50.1601,158.182 49.4934,193.516 47.5,228.5C 47.5,227.833 47.5,227.167 47.5,226.5C 48.4984,192.004 48.8317,157.337 48.5,122.5C 55.6476,121.508 62.9809,121.175 70.5,121.5C 70.5,165.5 70.5,209.5 70.5,253.5 Z"/></g>
<g><path style="opacity:1" fill="#feeef0" d="M 69.5,123.5 C 63.1667,123.5 56.8333,123.5 50.5,123.5C 50.8332,159.173 50.4999,194.84 49.5,230.5C 48.4777,230.145 47.811,229.478 47.5,228.5C 49.4934,193.516 50.1601,158.182 49.5,122.5C 56.3543,122.176 63.021,122.509 69.5,123.5 Z"/></g>
<g><path style="opacity:1" fill="#be5359" d="M 271.5,-0.5 C 272.167,-0.5 272.833,-0.5 273.5,-0.5C 273.5,60.1667 273.5,120.833 273.5,181.5C 272.833,181.5 272.5,181.833 272.5,182.5C 272.167,182.5 271.833,182.5 271.5,182.5C 271.5,122.167 271.5,61.8333 271.5,1.5C 271.5,0.833333 271.5,0.166667 271.5,-0.5 Z"/></g>
<g><path style="opacity:1" fill="#fee3ad" d="M 258.5,15.5 C 259.665,70.3318 259.832,125.332 259,180.5C 258.768,181.737 258.268,182.737 257.5,183.5C 257.5,179.167 257.5,174.833 257.5,170.5C 258.499,119.003 258.832,67.336 258.5,15.5 Z"/></g>
<g><path style="opacity:1" fill="#e9c27d" d="M 153.5,160.5 C 152.518,159.859 151.518,159.193 150.5,158.5C 149.52,161.086 149.187,163.753 149.5,166.5C 149.187,163.753 149.52,161.086 150.5,158.5C 151.518,159.193 152.518,159.859 153.5,160.5 Z"/></g>
<g><path style="opacity:1" fill="#e69a41" d="M 153.5,160.5 C 153.5,161.833 154.167,162.5 155.5,162.5C 157.238,164.921 158.571,167.588 159.5,170.5C 156.926,169.339 154.76,167.672 153,165.5C 152.5,165.833 152,166.167 151.5,166.5C 152.374,168.747 152.708,171.08 152.5,173.5C 151.131,171.309 150.131,168.975 149.5,166.5C 149.187,163.753 149.52,161.086 150.5,158.5C 151.518,159.193 152.518,159.859 153.5,160.5 Z"/></g>
<g><path style="opacity:1" fill="#ef9033" d="M 159.5,170.5 C 160.167,171.833 161.167,172.833 162.5,173.5C 162.247,175.827 162.914,177.827 164.5,179.5C 161.163,182.554 158.997,181.888 158,177.5C 156.51,178.728 155.01,178.728 153.5,177.5C 153.167,176.167 152.833,174.833 152.5,173.5C 152.708,171.08 152.374,168.747 151.5,166.5C 152,166.167 152.5,165.833 153,165.5C 154.76,167.672 156.926,169.339 159.5,170.5 Z"/></g>
<g><path style="opacity:1" fill="#fae2b3" d="M 155.5,162.5 C 154.167,162.5 153.5,161.833 153.5,160.5C 152.952,157.916 151.285,156.916 148.5,157.5C 148.19,160.713 148.523,163.713 149.5,166.5C 150.131,168.975 151.131,171.309 152.5,173.5C 152.833,174.833 153.167,176.167 153.5,177.5C 153.831,179.322 154.498,180.989 155.5,182.5C 154.504,182.586 153.671,182.252 153,181.5C 152.79,179.942 152.29,178.609 151.5,177.5C 147.976,170.921 146.809,163.921 148,156.5C 152.858,155.206 155.358,157.206 155.5,162.5 Z"/></g>
<g><path style="opacity:1" fill="#fef2ce" d="M 155.5,162.5 C 156.496,162.414 157.329,162.748 158,163.5C 160.959,169.737 165.125,175.07 170.5,179.5C 172.02,181.662 173.02,183.995 173.5,186.5C 172.5,185.833 171.5,185.167 170.5,184.5C 168.555,180.264 165.888,176.597 162.5,173.5C 161.167,172.833 160.167,171.833 159.5,170.5C 158.571,167.588 157.238,164.921 155.5,162.5 Z"/></g>
<g><path style="opacity:1" fill="#9d282f" d="M 104.5,29.5 C 104.333,112.167 104.5,194.834 105,277.5C 106.009,279.025 106.509,280.692 106.5,282.5C 104.973,282.573 103.973,281.906 103.5,280.5C 103.167,196.665 103.501,112.998 104.5,29.5 Z"/></g>
<g><path style="opacity:1" fill="#ee953b" d="M 162.5,173.5 C 165.888,176.597 168.555,180.264 170.5,184.5C 172.094,187.764 174.427,190.431 177.5,192.5C 179.482,195.81 181.815,198.81 184.5,201.5C 185.5,203.167 186.833,204.5 188.5,205.5C 192.403,211.742 197.07,217.409 202.5,222.5C 199.925,221.272 197.592,219.605 195.5,217.5C 194.047,219.185 192.714,220.851 191.5,222.5C 188.081,220.355 185.081,217.688 182.5,214.5C 178.845,209.514 174.845,204.847 170.5,200.5C 169.167,199.167 167.833,197.833 166.5,196.5C 164.208,191.92 161.208,187.92 157.5,184.5C 156.833,183.833 156.167,183.167 155.5,182.5C 154.498,180.989 153.831,179.322 153.5,177.5C 155.01,178.728 156.51,178.728 158,177.5C 158.997,181.888 161.163,182.554 164.5,179.5C 162.914,177.827 162.247,175.827 162.5,173.5 Z"/></g>
<g><path style="opacity:1" fill="#fef2cd" d="M 15.5,182.5 C 18.4035,188.755 20.4035,195.421 21.5,202.5C 19.2295,200.388 17.8961,197.721 17.5,194.5C 16.4485,190.574 15.7818,186.574 15.5,182.5 Z"/></g>
<g><path style="opacity:1" fill="#ce777c" d="M 271.5,182.5 C 271.833,182.5 272.167,182.5 272.5,182.5C 272.142,185.689 271.475,188.689 270.5,191.5C 270.368,188.43 270.701,185.43 271.5,182.5 Z"/></g>
<g><path style="opacity:1" fill="#e2a8a7" d="M 246.5,183.5 C 246.277,187.162 245.277,190.495 243.5,193.5C 243.723,189.838 244.723,186.505 246.5,183.5 Z"/></g>
<g><path style="opacity:1" fill="#f3cc90" d="M 170.5,184.5 C 171.5,185.167 172.5,185.833 173.5,186.5C 175.464,188.127 176.797,190.127 177.5,192.5C 174.427,190.431 172.094,187.764 170.5,184.5 Z"/></g>
<g><path style="opacity:1" fill="#fbe3b4" d="M 157.5,184.5 C 161.208,187.92 164.208,191.92 166.5,196.5C 161.884,193.572 158.884,189.572 157.5,184.5 Z"/></g>
<g><path style="opacity:1" fill="#f2bb79" d="M 256.5,186.5 C 256.833,186.5 257.167,186.5 257.5,186.5C 257.326,188.861 256.993,191.194 256.5,193.5C 256.167,193.5 255.833,193.5 255.5,193.5C 255.674,191.139 256.007,188.806 256.5,186.5 Z"/></g>
<g><path style="opacity:1" fill="#fff8df" d="M 256.5,186.5 C 256.007,188.806 255.674,191.139 255.5,193.5C 254.538,196.739 253.205,199.739 251.5,202.5C 251.183,199.428 251.516,196.428 252.5,193.5C 253.688,190.979 255.022,188.645 256.5,186.5 Z"/></g>
<g><path style="opacity:1" fill="#f7dca9" d="M 177.5,192.5 C 178.496,192.414 179.329,192.748 180,193.5C 182.157,195.817 183.657,198.484 184.5,201.5C 181.815,198.81 179.482,195.81 177.5,192.5 Z"/></g>
<g><path style="opacity:1" fill="#b94a4b" d="M 3.5,195.5 C 5.45568,196.122 6.78902,197.455 7.5,199.5C 8.26922,202.115 8.60255,204.781 8.5,207.5C 6.46247,203.739 4.7958,199.739 3.5,195.5 Z"/></g>
<g><path style="opacity:1" fill="#a43a3d" d="M 26.5,180.5 C 26.8333,180.5 27.1667,180.5 27.5,180.5C 29.4692,187.93 31.8026,195.263 34.5,202.5C 34.1667,202.5 33.8333,202.5 33.5,202.5C 29.9917,195.638 27.6583,188.304 26.5,180.5 Z"/></g>
<g><path style="opacity:1" fill="#fdf9e4" d="M 151.5,177.5 C 152.29,178.609 152.79,179.942 153,181.5C 153.671,182.252 154.504,182.586 155.5,182.5C 156.167,183.167 156.833,183.833 157.5,184.5C 158.884,189.572 161.884,193.572 166.5,196.5C 167.833,197.833 169.167,199.167 170.5,200.5C 170.703,202.044 171.37,203.378 172.5,204.5C 172,204.833 171.5,205.167 171,205.5C 169.594,204.586 168.094,203.92 166.5,203.5C 163.956,202.292 162.622,200.292 162.5,197.5C 161.5,197.5 160.5,197.5 159.5,197.5C 159.5,197.167 159.5,196.833 159.5,196.5C 158.833,193.167 156.833,191.167 153.5,190.5C 153.306,188.088 151.973,187.088 149.5,187.5C 149.335,190.518 149.502,193.518 150,196.5C 150.383,197.056 150.883,197.389 151.5,197.5C 152.58,199.996 153.914,202.33 155.5,204.5C 156.08,206.749 157.413,208.415 159.5,209.5C 160.539,211.531 162.205,212.864 164.5,213.5C 166.319,214.936 166.652,216.603 165.5,218.5C 164.378,217.37 163.044,216.703 161.5,216.5C 159.847,216.34 158.514,215.674 157.5,214.5C 155.69,210.689 152.69,209.023 148.5,209.5C 149.048,207.468 150.381,206.468 152.5,206.5C 152.31,203.123 150.81,200.456 148,198.5C 147.006,193.882 146.506,189.215 146.5,184.5C 148.144,184.714 149.644,184.38 151,183.5C 151.495,181.527 151.662,179.527 151.5,177.5 Z"/></g>
<g><path style="opacity:1" fill="#ef9034" d="M 153.5,191.5 C 155.5,193.167 157.5,194.833 159.5,196.5C 159.5,196.833 159.5,197.167 159.5,197.5C 159.888,199.685 160.888,201.518 162.5,203C 161.615,205.157 159.948,205.99 157.5,205.5C 155.9,201.133 153.9,196.966 151.5,193C 151.836,191.97 152.503,191.47 153.5,191.5 Z"/></g>
<g><path style="opacity:1" fill="#f8daa2" d="M 153.5,191.5 C 153.5,191.167 153.5,190.833 153.5,190.5C 156.833,191.167 158.833,193.167 159.5,196.5C 157.5,194.833 155.5,193.167 153.5,191.5 Z"/></g>
<g><path style="opacity:1" fill="#e29f46" d="M 153.5,190.5 C 153.5,190.833 153.5,191.167 153.5,191.5C 152.503,191.47 151.836,191.97 151.5,193C 153.9,196.966 155.9,201.133 157.5,205.5C 156.833,205.167 156.167,204.833 155.5,204.5C 153.914,202.33 152.58,199.996 151.5,197.5C 150.386,194.823 150.386,192.156 151.5,189.5C 152.183,189.863 152.85,190.196 153.5,190.5 Z"/></g>
<g><path style="opacity:1" fill="#e2b971" d="M 153.5,190.5 C 152.85,190.196 152.183,189.863 151.5,189.5C 150.386,192.156 150.386,194.823 151.5,197.5C 150.883,197.389 150.383,197.056 150,196.5C 149.502,193.518 149.335,190.518 149.5,187.5C 151.973,187.088 153.306,188.088 153.5,190.5 Z"/></g>
<g><path style="opacity:1" fill="#ca6264" d="M 269.5,193.5 C 268.123,200.309 265.79,206.642 262.5,212.5C 263.779,205.676 266.112,199.343 269.5,193.5 Z"/></g>
<g><path style="opacity:0.004" fill="#e1777f" d="M 8.5,207.5 C 9.34464,208.671 10.0113,210.005 10.5,211.5C 8.82351,210.817 8.15684,209.483 8.5,207.5 Z"/></g>
<g><path style="opacity:1" fill="#ba5051" d="M 262.5,212.5 C 261.73,215.496 260.396,218.163 258.5,220.5C 258.294,217.003 259.628,214.337 262.5,212.5 Z"/></g>
<g><path style="opacity:0.337" fill="#c45a5b" d="M 10.5,212.5 C 12.9125,215.368 14.5792,218.701 15.5,222.5C 13.0784,219.584 11.4117,216.251 10.5,212.5 Z"/></g>
<g><path style="opacity:0.333" fill="#d46f6e" d="M 258.5,220.5 C 257.59,223.992 255.924,226.992 253.5,229.5C 254.049,227.099 254.882,224.765 256,222.5C 256.708,221.619 257.542,220.953 258.5,220.5 Z"/></g>
<g><path style="opacity:0.71" fill="#c05858" d="M 17.5,225.5 C 19.539,226.911 20.539,228.911 20.5,231.5C 18.6535,229.97 17.6535,227.97 17.5,225.5 Z"/></g>
<g><path style="opacity:1" fill="#ba4542" d="M 20.5,231.5 C 21.4584,231.953 22.2917,232.619 23,233.5C 23.3333,232.833 23.6667,232.167 24,231.5C 25.2553,234.338 26.0887,237.338 26.5,240.5C 24.1152,237.777 22.1152,234.777 20.5,231.5 Z"/></g>
<g><path style="opacity:0.267" fill="#d27074" d="M 253.5,229.5 C 252.955,231.593 252.122,233.593 251,235.5C 248.636,238.69 246.136,241.69 243.5,244.5C 246.092,238.976 249.425,233.976 253.5,229.5 Z"/></g>
<g><path style="opacity:0.573" fill="#cf6e71" d="M 29.5,244.5 C 31.984,246.8 33.984,249.467 35.5,252.5C 32.3528,250.687 30.3528,248.02 29.5,244.5 Z"/></g>
<g><path style="opacity:1" fill="#c7605e" d="M 243.5,244.5 C 242.306,248.363 239.973,251.363 236.5,253.5C 237.952,249.799 240.285,246.799 243.5,244.5 Z"/></g>
<g><path style="opacity:1" fill="#c35f62" d="M 236.5,253.5 C 235.876,255.754 234.543,257.421 232.5,258.5C 232.738,255.931 234.071,254.265 236.5,253.5 Z"/></g>
<g><path style="opacity:0.557" fill="#c65e65" d="M 35.5,252.5 C 38.5616,253.268 40.2283,255.268 40.5,258.5C 38.1097,257.109 36.4431,255.109 35.5,252.5 Z"/></g>
<g><path style="opacity:1" fill="#bd4c46" d="M 40.5,258.5 C 44.1708,258.837 46.1708,260.837 46.5,264.5C 43.6306,263.393 41.6306,261.393 40.5,258.5 Z"/></g>
<g><path style="opacity:0.49" fill="#d26e6f" d="M 231.5,259.5 C 231.5,261.5 230.5,262.5 228.5,262.5C 228.81,260.856 229.81,259.856 231.5,259.5 Z"/></g>
<g><path style="opacity:1" fill="#ed9041" d="M 14.5,190.5 C 15.1429,192.076 16.1429,193.41 17.5,194.5C 17.8961,197.721 19.2295,200.388 21.5,202.5C 22.4117,206.251 24.0784,209.584 26.5,212.5C 28.594,220.021 32.2607,226.687 37.5,232.5C 39.2164,236.603 41.8831,239.936 45.5,242.5C 48.0696,247.738 51.7363,252.072 56.5,255.5C 59.5,260.5 63.5,264.5 68.5,267.5C 70.2393,270.243 72.5726,272.243 75.5,273.5C 75.8333,274.5 76.5,275.167 77.5,275.5C 78.9108,277.914 80.9108,279.581 83.5,280.5C 84.5846,282.587 86.2512,283.92 88.5,284.5C 95.1163,290.809 102.45,296.143 110.5,300.5C 110.973,301.906 111.973,302.573 113.5,302.5C 117.666,305.084 122,307.417 126.5,309.5C 131.245,313.457 136.578,314.29 142.5,312C 144.526,310.406 146.526,308.906 148.5,307.5C 149.167,307.5 149.833,307.5 150.5,307.5C 170.18,296.494 188.18,283.16 204.5,267.5C 211.167,261.5 217.5,255.167 223.5,248.5C 227.064,244.386 230.397,240.052 233.5,235.5C 234.982,233.109 236.649,230.776 238.5,228.5C 239.906,228.027 240.573,227.027 240.5,225.5C 243.088,221.326 245.421,216.993 247.5,212.5C 247.5,212.167 247.5,211.833 247.5,211.5C 249.942,209.879 251.275,207.546 251.5,204.5C 251.5,203.833 251.5,203.167 251.5,202.5C 253.205,199.739 254.538,196.739 255.5,193.5C 255.833,193.5 256.167,193.5 256.5,193.5C 256.5,195.5 256.5,197.5 256.5,199.5C 248.922,217.979 238.755,234.979 226,250.5C 204.831,273.344 180.997,292.844 154.5,309C 148.616,312.109 142.616,314.942 136.5,317.5C 93.7878,297.225 58.6211,267.892 31,229.5C 25.609,220.051 20.7757,210.385 16.5,200.5C 15.8333,197.167 15.1667,193.833 14.5,190.5 Z"/></g>
<g><path style="opacity:1" fill="#f1c36c" d="M 197.5,258.5 C 195.806,260.861 193.806,262.861 191.5,264.5C 189.518,264.995 187.518,265.495 185.5,266C 185.011,268.209 184.011,270.042 182.5,271.5C 182.5,270.5 182.5,269.5 182.5,268.5C 180.167,268.5 177.833,268.5 175.5,268.5C 176.718,267.839 178.051,267.172 179.5,266.5C 177.709,265.83 176.042,265.163 174.5,264.5C 179.214,264.827 183.88,264.493 188.5,263.5C 191.281,261.307 194.281,259.64 197.5,258.5 Z"/></g>
<g><path style="opacity:1" fill="#fef5d6" d="M 223.5,248.5 C 217.5,255.167 211.167,261.5 204.5,267.5C 204.421,266.07 204.754,264.736 205.5,263.5C 210.433,258.879 215.1,254.045 219.5,249C 220.793,248.51 222.127,248.343 223.5,248.5 Z"/></g>
<g><path style="opacity:1" fill="#edae4f" d="M 159.5,251.5 C 166.557,253.27 173.723,254.603 181,255.5C 183.665,256.082 186.165,257.082 188.5,258.5C 188.291,259.086 187.957,259.586 187.5,260C 181.651,260.818 175.985,260.652 170.5,259.5C 187.557,259.21 187.557,257.877 170.5,255.5C 166.693,254.307 163.026,252.974 159.5,251.5 Z"/></g>
<g><path style="opacity:1" fill="#edc4c7" d="M 70.5,253.5 C 70.8333,253.5 71.1667,253.5 71.5,253.5C 73.7368,256.683 76.4034,259.349 79.5,261.5C 79.5,261.833 79.5,262.167 79.5,262.5C 78.0783,262.291 76.745,261.791 75.5,261C 73.2436,258.878 71.577,256.378 70.5,253.5 Z"/></g>
<g><path style="opacity:1" fill="#fef2d3" d="M 56.5,255.5 C 58.5824,255.472 60.4157,256.139 62,257.5C 64.8097,260.464 66.9764,263.798 68.5,267.5C 63.5,264.5 59.5,260.5 56.5,255.5 Z"/></g>
<g><path style="opacity:1" fill="#fadf9b" d="M 170.5,255.5 C 187.557,257.877 187.557,259.21 170.5,259.5C 167.073,257.823 164.073,258.156 161.5,260.5C 159.618,259.779 159.285,258.779 160.5,257.5C 164.846,257.666 169.179,257.499 173.5,257C 172.263,256.768 171.263,256.268 170.5,255.5 Z"/></g>
<g><path style="opacity:1" fill="#a12f34" d="M 71.5,253.5 C 75.5,254.833 78.1667,257.5 79.5,261.5C 76.4034,259.349 73.7368,256.683 71.5,253.5 Z"/></g>
<g><path style="opacity:1" fill="#fdebb8" d="M 157.5,251.5 C 158.167,251.5 158.833,251.5 159.5,251.5C 163.026,252.974 166.693,254.307 170.5,255.5C 171.263,256.268 172.263,256.768 173.5,257C 169.179,257.499 164.846,257.666 160.5,257.5C 160.611,256.883 160.944,256.383 161.5,256C 160.011,254.532 158.677,253.032 157.5,251.5 Z"/></g>
<g><path style="opacity:1" fill="#fef3d1" d="M 45.5,242.5 C 50.7755,245.331 54.4422,249.665 56.5,255.5C 51.7363,252.072 48.0696,247.738 45.5,242.5 Z"/></g>
<g><path style="opacity:1" fill="#f9c56a" d="M 175.5,246.5 C 179.826,246.831 183.826,248.164 187.5,250.5C 186.167,250.833 184.833,251.167 183.5,251.5C 178.063,250.35 172.729,249.35 167.5,248.5C 170.518,248.665 173.518,248.498 176.5,248C 175.944,247.617 175.611,247.117 175.5,246.5 Z"/></g>
<g><path style="opacity:1" fill="#e29d43" d="M 159.5,244.5 C 160.694,245.272 161.694,246.272 162.5,247.5C 157.831,246.99 156.831,248.323 159.5,251.5C 158.833,251.5 158.167,251.5 157.5,251.5C 155.295,249.637 153.961,247.303 153.5,244.5C 155.5,244.5 157.5,244.5 159.5,244.5 Z"/></g>
<g><path style="opacity:1" fill="#fae19a" d="M 162.5,242.5 C 165.921,244.376 169.588,245.376 173.5,245.5C 173.842,246.338 174.508,246.672 175.5,246.5C 175.611,247.117 175.944,247.617 176.5,248C 173.518,248.498 170.518,248.665 167.5,248.5C 165.958,247.699 164.292,247.366 162.5,247.5C 161.694,246.272 160.694,245.272 159.5,244.5C 161.179,244.715 162.179,244.048 162.5,242.5 Z"/></g>
<g><path style="opacity:1" fill="#f7e5b6" d="M 155.5,238.5 C 157.363,240.705 159.697,242.039 162.5,242.5C 162.179,244.048 161.179,244.715 159.5,244.5C 157.5,244.5 155.5,244.5 153.5,244.5C 153.961,247.303 155.295,249.637 157.5,251.5C 153.333,250.063 151.333,247.063 151.5,242.5C 155.491,243.128 156.824,241.795 155.5,238.5 Z"/></g>
<g><path style="opacity:1" fill="#f3c986" d="M 208.5,230.5 C 212.767,230.203 216.934,230.536 221,231.5C 221.667,232.833 221.667,234.167 221,235.5C 218.628,237.703 216.461,240.037 214.5,242.5C 213.512,243.795 212.512,245.128 211.5,246.5C 208.681,249.075 205.681,251.408 202.5,253.5C 208.112,247.716 213.612,241.716 219,235.5C 219.49,234.207 219.657,232.873 219.5,231.5C 215.629,231.815 211.962,231.482 208.5,230.5 Z"/></g>
<g><path style="opacity:1" fill="#fef0ce" d="M 233.5,235.5 C 230.397,240.052 227.064,244.386 223.5,248.5C 223.756,246.063 224.423,243.729 225.5,241.5C 228.176,239.438 230.842,237.438 233.5,235.5 Z"/></g>
<g><path style="opacity:1" fill="#fdf9e8" d="M 148.5,209.5 C 148.259,211.898 148.926,213.898 150.5,215.5C 150.5,216.167 150.5,216.833 150.5,217.5C 152.087,220.268 153.92,222.935 156,225.5C 156.671,226.252 157.504,226.586 158.5,226.5C 158.5,227.5 158.5,228.5 158.5,229.5C 157.5,229.5 156.5,229.5 155.5,229.5C 153.685,228.37 151.685,227.704 149.5,227.5C 149.5,229.5 149.5,231.5 149.5,233.5C 150.675,233.281 151.675,233.614 152.5,234.5C 153.035,236.261 154.035,237.594 155.5,238.5C 156.824,241.795 155.491,243.128 151.5,242.5C 151.333,247.063 153.333,250.063 157.5,251.5C 158.677,253.032 160.011,254.532 161.5,256C 160.944,256.383 160.611,256.883 160.5,257.5C 159.285,258.779 159.618,259.779 161.5,260.5C 162.833,261.167 163.833,262.167 164.5,263.5C 164.5,263.833 164.5,264.167 164.5,264.5C 159.105,263.878 157.438,261.045 159.5,256C 155.691,253.264 152.191,250.097 149,246.5C 148.243,243.013 149.409,240.346 152.5,238.5C 150.806,235.406 148.14,233.74 144.5,233.5C 145.325,232.614 146.325,232.281 147.5,232.5C 146.75,228.259 148.083,224.926 151.5,222.5C 147.662,218.747 146.662,214.413 148.5,209.5 Z"/></g>
<g><path style="opacity:1" fill="#e8b466" d="M 155.5,229.5 C 156.167,230.167 156.833,230.833 157.5,231.5C 156.167,231.5 154.833,231.5 153.5,231.5C 154.424,235.05 156.424,237.884 159.5,240C 164.567,241.042 169.234,242.875 173.5,245.5C 169.588,245.376 165.921,244.376 162.5,242.5C 159.697,242.039 157.363,240.705 155.5,238.5C 154.035,237.594 153.035,236.261 152.5,234.5C 151.675,233.614 150.675,233.281 149.5,233.5C 149.5,231.5 149.5,229.5 149.5,227.5C 151.685,227.704 153.685,228.37 155.5,229.5 Z"/></g>
<g><path style="opacity:1" fill="#fef2c6" d="M 158.5,226.5 C 159.5,226.5 160.5,226.5 161.5,226.5C 162.833,227.167 163.833,228.167 164.5,229.5C 167.74,231.951 171.407,233.618 175.5,234.5C 176.23,235.712 177.23,236.712 178.5,237.5C 175.911,238.205 173.244,238.205 170.5,237.5C 166.619,234.751 162.285,232.751 157.5,231.5C 156.833,230.833 156.167,230.167 155.5,229.5C 156.5,229.5 157.5,229.5 158.5,229.5C 158.5,228.5 158.5,227.5 158.5,226.5 Z"/></g>
<g><path style="opacity:1" fill="#fef6d4" d="M 37.5,232.5 C 39.0898,232.628 40.4231,233.295 41.5,234.5C 43.2967,236.955 44.63,239.622 45.5,242.5C 41.8831,239.936 39.2164,236.603 37.5,232.5 Z"/></g>
<g><path style="opacity:1" fill="#edbd6f" d="M 164.5,229.5 C 168.836,229.837 172.503,231.504 175.5,234.5C 171.407,233.618 167.74,231.951 164.5,229.5 Z"/></g>
<g><path style="opacity:1" fill="#f3c781" d="M 240.5,225.5 C 240.573,227.027 239.906,228.027 238.5,228.5C 238.427,226.973 239.094,225.973 240.5,225.5 Z"/></g>
<g><path style="opacity:1" fill="#fff5d3" d="M 247.5,212.5 C 245.421,216.993 243.088,221.326 240.5,225.5C 239.094,225.973 238.427,226.973 238.5,228.5C 236.649,230.776 234.982,233.109 233.5,235.5C 233.5,233.5 233.5,231.5 233.5,229.5C 234.5,229.5 235.5,229.5 236.5,229.5C 236.762,226.309 238.095,223.642 240.5,221.5C 240.291,220.914 239.957,220.414 239.5,220C 242.831,219.206 244.664,217.039 245,213.5C 245.671,212.748 246.504,212.414 247.5,212.5 Z"/></g>
<g><path style="opacity:1" fill="#99525b" d="M 224.5,220.5 C 225.29,221.609 225.79,222.942 226,224.5C 226.708,223.619 227.542,222.953 228.5,222.5C 228.267,224.062 227.6,225.395 226.5,226.5C 225.883,226.611 225.383,226.944 225,227.5C 224.503,225.19 224.337,222.857 224.5,220.5 Z"/></g>
<g><path style="opacity:1" fill="#eabbbc" d="M 233.5,215.5 C 233.736,218.226 232.903,220.559 231,222.5C 230.23,223.598 229.397,223.598 228.5,222.5C 229.473,220.851 230.473,219.184 231.5,217.5C 231.833,216.5 232.5,215.833 233.5,215.5 Z"/></g>
<g><path style="opacity:1" fill="#f8dea9" d="M 150.5,217.5 C 153.881,219.88 156.547,222.88 158.5,226.5C 157.504,226.586 156.671,226.252 156,225.5C 153.92,222.935 152.087,220.268 150.5,217.5 Z"/></g>
<g><path style="opacity:1" fill="#ef9235" d="M 173.5,211.5 C 176.167,213.167 178.833,214.833 181.5,216.5C 183.487,220.651 186.654,223.651 191,225.5C 191.483,224.552 191.649,223.552 191.5,222.5C 192.714,220.851 194.047,219.185 195.5,217.5C 197.592,219.605 199.925,221.272 202.5,222.5C 204.789,224.811 206.789,227.478 208.5,230.5C 211.962,231.482 215.629,231.815 219.5,231.5C 219.657,232.873 219.49,234.207 219,235.5C 213.612,241.716 208.112,247.716 202.5,253.5C 200.451,254.882 198.785,256.548 197.5,258.5C 194.281,259.64 191.281,261.307 188.5,263.5C 183.88,264.493 179.214,264.827 174.5,264.5C 171.14,264.384 167.807,264.051 164.5,263.5C 163.833,262.167 162.833,261.167 161.5,260.5C 164.073,258.156 167.073,257.823 170.5,259.5C 175.985,260.652 181.651,260.818 187.5,260C 187.957,259.586 188.291,259.086 188.5,258.5C 186.165,257.082 183.665,256.082 181,255.5C 173.723,254.603 166.557,253.27 159.5,251.5C 156.831,248.323 157.831,246.99 162.5,247.5C 164.292,247.366 165.958,247.699 167.5,248.5C 172.729,249.35 178.063,250.35 183.5,251.5C 184.833,251.167 186.167,250.833 187.5,250.5C 183.826,248.164 179.826,246.831 175.5,246.5C 174.508,246.672 173.842,246.338 173.5,245.5C 169.234,242.875 164.567,241.042 159.5,240C 156.424,237.884 154.424,235.05 153.5,231.5C 154.833,231.5 156.167,231.5 157.5,231.5C 157.856,232.87 158.69,233.87 160,234.5C 163.313,236.381 166.813,237.714 170.5,238.5C 175.353,239.264 180.02,240.598 184.5,242.5C 186.526,244.502 188.859,244.836 191.5,243.5C 189.681,242.68 188.014,241.68 186.5,240.5C 184.642,239.405 182.975,238.071 181.5,236.5C 179.589,235.523 177.589,234.857 175.5,234.5C 172.503,231.504 168.836,229.837 164.5,229.5C 163.833,228.167 162.833,227.167 161.5,226.5C 158.538,223.036 155.371,219.703 152,216.5C 151.517,215.552 151.351,214.552 151.5,213.5C 152.5,213.5 153.5,213.5 154.5,213.5C 155.391,214.11 156.391,214.443 157.5,214.5C 158.514,215.674 159.847,216.34 161.5,216.5C 165.416,220.8 170.082,224.133 175.5,226.5C 175.953,227.458 176.619,228.292 177.5,229C 179.811,229.236 181.811,230.069 183.5,231.5C 185.199,233.441 187.366,234.774 190,235.5C 191.257,235.15 191.591,234.483 191,233.5C 189.385,232.614 187.885,231.614 186.5,230.5C 183.919,227.312 180.919,224.645 177.5,222.5C 172.963,219.737 168.63,216.737 164.5,213.5C 164.167,212.833 163.833,212.167 163.5,211.5C 164.808,205.049 167.142,204.883 170.5,211C 171.448,211.483 172.448,211.649 173.5,211.5 Z"/></g>
<g><path style="opacity:1" fill="#fabf58" d="M 186.5,240.5 C 188.014,241.68 189.681,242.68 191.5,243.5C 188.859,244.836 186.526,244.502 184.5,242.5C 185.833,242.5 186.5,241.833 186.5,240.5 Z"/></g>
<g><path style="opacity:1" fill="#f8d285" d="M 175.5,234.5 C 177.589,234.857 179.589,235.523 181.5,236.5C 182.975,238.071 184.642,239.405 186.5,240.5C 186.5,241.833 185.833,242.5 184.5,242.5C 180.02,240.598 175.353,239.264 170.5,238.5C 170.5,238.167 170.5,237.833 170.5,237.5C 173.244,238.205 175.911,238.205 178.5,237.5C 177.23,236.712 176.23,235.712 175.5,234.5 Z"/></g>
<g><path style="opacity:1" fill="#fbba52" d="M 186.5,230.5 C 187.885,231.614 189.385,232.614 191,233.5C 191.591,234.483 191.257,235.15 190,235.5C 187.366,234.774 185.199,233.441 183.5,231.5C 184.791,231.737 185.791,231.404 186.5,230.5 Z"/></g>
<g><path style="opacity:1" fill="#eba44e" d="M 157.5,231.5 C 162.285,232.751 166.619,234.751 170.5,237.5C 170.5,237.833 170.5,238.167 170.5,238.5C 166.813,237.714 163.313,236.381 160,234.5C 158.69,233.87 157.856,232.87 157.5,231.5 Z"/></g>
<g><path style="opacity:1" fill="#f5c974" d="M 177.5,222.5 C 180.919,224.645 183.919,227.312 186.5,230.5C 185.791,231.404 184.791,231.737 183.5,231.5C 181.811,230.069 179.811,229.236 177.5,229C 176.619,228.292 175.953,227.458 175.5,226.5C 177.094,226.92 178.594,227.586 180,228.5C 180.5,228.167 181,227.833 181.5,227.5C 180.143,225.814 178.81,224.148 177.5,222.5 Z"/></g>
<g><path style="opacity:1" fill="#f9e1a1" d="M 164.5,213.5 C 168.63,216.737 172.963,219.737 177.5,222.5C 178.81,224.148 180.143,225.814 181.5,227.5C 181,227.833 180.5,228.167 180,228.5C 178.594,227.586 177.094,226.92 175.5,226.5C 170.082,224.133 165.416,220.8 161.5,216.5C 163.044,216.703 164.378,217.37 165.5,218.5C 166.652,216.603 166.319,214.936 164.5,213.5 Z"/></g>
<g><path style="opacity:1" fill="#fef8e1" d="M 26.5,212.5 C 27.4959,212.414 28.3292,212.748 29,213.5C 30.3333,216.167 31.6667,218.833 33,221.5C 36.6863,224.213 38.1863,227.88 37.5,232.5C 32.2607,226.687 28.594,220.021 26.5,212.5 Z"/></g>
<g><path style="opacity:1" fill="#fbd378" d="M 182.5,214.5 C 185.081,217.688 188.081,220.355 191.5,222.5C 191.649,223.552 191.483,224.552 191,225.5C 186.654,223.651 183.487,220.651 181.5,216.5C 182.338,216.158 182.672,215.492 182.5,214.5 Z"/></g>
<g><path style="opacity:1" fill="#e3a24f" d="M 154.5,213.5 C 153.5,213.5 152.5,213.5 151.5,213.5C 151.351,214.552 151.517,215.552 152,216.5C 155.371,219.703 158.538,223.036 161.5,226.5C 160.5,226.5 159.5,226.5 158.5,226.5C 156.547,222.88 153.881,219.88 150.5,217.5C 150.5,216.833 150.5,216.167 150.5,215.5C 150.5,214.167 150.5,212.833 150.5,211.5C 152.38,211.229 153.713,211.896 154.5,213.5 Z"/></g>
<g><path style="opacity:1" fill="#d99191" d="M 39.5,215.5 C 40.9063,215.973 41.573,216.973 41.5,218.5C 40.0937,218.027 39.427,217.027 39.5,215.5 Z"/></g>
<g><path style="opacity:1" fill="#fdf1d2" d="M 188.5,205.5 C 192.836,210.388 197.836,214.722 203.5,218.5C 205.032,222.276 207.365,225.442 210.5,228C 214.689,228.812 218.689,228.645 222.5,227.5C 223.391,228.11 224.391,228.443 225.5,228.5C 224.097,234.907 220.431,239.574 214.5,242.5C 216.461,240.037 218.628,237.703 221,235.5C 221.667,234.167 221.667,232.833 221,231.5C 216.934,230.536 212.767,230.203 208.5,230.5C 206.789,227.478 204.789,224.811 202.5,222.5C 197.07,217.409 192.403,211.742 188.5,205.5 Z"/></g>
<g><path style="opacity:1" fill="#fde3b1" d="M 251.5,204.5 C 251.275,207.546 249.942,209.879 247.5,211.5C 248.079,208.669 249.412,206.336 251.5,204.5 Z"/></g>
<g><path style="opacity:1" fill="#f7d196" d="M 159.5,209.5 C 161.062,209.733 162.395,210.4 163.5,211.5C 163.833,212.167 164.167,212.833 164.5,213.5C 162.205,212.864 160.539,211.531 159.5,209.5 Z"/></g>
<g><path style="opacity:1" fill="#efd39a" d="M 148.5,209.5 C 152.69,209.023 155.69,210.689 157.5,214.5C 156.391,214.443 155.391,214.11 154.5,213.5C 153.713,211.896 152.38,211.229 150.5,211.5C 150.5,212.833 150.5,214.167 150.5,215.5C 148.926,213.898 148.259,211.898 148.5,209.5 Z"/></g>
<g><path style="opacity:1" fill="#eeced0" d="M 33.5,202.5 C 33.8333,202.5 34.1667,202.5 34.5,202.5C 35.3024,205.574 36.3024,208.574 37.5,211.5C 36.5041,211.586 35.6708,211.252 35,210.5C 34.1785,207.883 33.6785,205.216 33.5,202.5 Z"/></g>
<g><path style="opacity:1" fill="#e7b4b7" d="M 240.5,202.5 C 239.558,206.065 237.891,209.065 235.5,211.5C 236.167,209.167 236.833,206.833 237.5,204.5C 238.222,203.449 239.222,202.782 240.5,202.5 Z"/></g>
<g><path style="opacity:1" fill="#fdecbb" d="M 170.5,200.5 C 174.845,204.847 178.845,209.514 182.5,214.5C 182.672,215.492 182.338,216.158 181.5,216.5C 178.833,214.833 176.167,213.167 173.5,211.5C 171.876,208.21 169.543,205.543 166.5,203.5C 168.094,203.92 169.594,204.586 171,205.5C 171.5,205.167 172,204.833 172.5,204.5C 171.37,203.378 170.703,202.044 170.5,200.5 Z"/></g>
<g><path style="opacity:1" fill="#f6c98d" d="M 155.5,204.5 C 156.167,204.833 156.833,205.167 157.5,205.5C 158.6,206.605 159.267,207.938 159.5,209.5C 157.413,208.415 156.08,206.749 155.5,204.5 Z"/></g>
<g><path style="opacity:1" fill="#eb9c44" d="M 159.5,197.5 C 160.5,197.5 161.5,197.5 162.5,197.5C 162.622,200.292 163.956,202.292 166.5,203.5C 169.543,205.543 171.876,208.21 173.5,211.5C 172.448,211.649 171.448,211.483 170.5,211C 167.142,204.883 164.808,205.049 163.5,211.5C 162.395,210.4 161.062,209.733 159.5,209.5C 159.267,207.938 158.6,206.605 157.5,205.5C 159.948,205.99 161.615,205.157 162.5,203C 160.888,201.518 159.888,199.685 159.5,197.5 Z"/></g>
<g><path style="opacity:1" fill="#a7383a" d="M 242.5,194.5 C 241.833,196.833 241.167,199.167 240.5,201.5C 240.5,201.833 240.5,202.167 240.5,202.5C 239.222,202.782 238.222,203.449 237.5,204.5C 237.592,200.316 239.259,196.983 242.5,194.5 Z"/></g>
<g><path style="opacity:1" fill="#eec3c4" d="M 243.5,193.5 C 243.655,196.716 242.655,199.383 240.5,201.5C 241.167,199.167 241.833,196.833 242.5,194.5C 242.5,193.833 242.833,193.5 243.5,193.5 Z"/></g>
<g><path style="opacity:0.11" fill="#d87a7f" d="M 226.5,264.5 C 225.167,267.833 222.833,270.167 219.5,271.5C 221.5,268.833 223.833,266.5 226.5,264.5 Z"/></g>
<g><path style="opacity:0.224" fill="#d06f62" d="M 46.5,264.5 C 49.1667,266.5 51.5,268.833 53.5,271.5C 50.1667,270.167 47.8333,267.833 46.5,264.5 Z"/></g>
<g><path style="opacity:1" fill="#feecbf" d="M 68.5,267.5 C 71.6691,268.483 74.0024,270.483 75.5,273.5C 72.5726,272.243 70.2393,270.243 68.5,267.5 Z"/></g>
<g><path style="opacity:1" fill="#c1504a" d="M 53.5,271.5 C 57.7357,272.402 60.4023,275.068 61.5,279.5C 60.7611,279.631 60.0944,279.464 59.5,279C 57.2628,276.606 55.2628,274.106 53.5,271.5 Z"/></g>
<g><path style="opacity:1" fill="#eccb8b" d="M 164.5,264.5 C 164.5,264.167 164.5,263.833 164.5,263.5C 167.807,264.051 171.14,264.384 174.5,264.5C 176.042,265.163 177.709,265.83 179.5,266.5C 178.051,267.172 176.718,267.839 175.5,268.5C 175.5,269.5 175.5,270.5 175.5,271.5C 177.833,271.5 180.167,271.5 182.5,271.5C 184.011,270.042 185.011,268.209 185.5,266C 187.518,265.495 189.518,264.995 191.5,264.5C 190.599,266.727 188.933,267.727 186.5,267.5C 185.768,271.787 183.101,273.787 178.5,273.5C 172.343,273.083 170.676,270.416 173.5,265.5C 170.43,265.632 167.43,265.299 164.5,264.5 Z"/></g>
<g><path style="opacity:1" fill="#fef8e1" d="M 211.5,246.5 C 210.758,248.426 209.758,250.259 208.5,252C 208.833,252.333 209.167,252.667 209.5,253C 205.979,254.741 202.646,256.741 199.5,259C 195.286,264.715 190.286,269.548 184.5,273.5C 178.975,276.143 173.808,275.81 169,272.5C 168.781,271.062 168.281,269.729 167.5,268.5C 166.575,269.641 165.741,269.641 165,268.5C 164.51,267.207 164.343,265.873 164.5,264.5C 167.43,265.299 170.43,265.632 173.5,265.5C 170.676,270.416 172.343,273.083 178.5,273.5C 183.101,273.787 185.768,271.787 186.5,267.5C 188.933,267.727 190.599,266.727 191.5,264.5C 193.806,262.861 195.806,260.861 197.5,258.5C 198.785,256.548 200.451,254.882 202.5,253.5C 205.681,251.408 208.681,249.075 211.5,246.5 Z"/></g>
<g><path style="opacity:1" fill="#db9a2a" d="M 175.5,268.5 C 177.833,268.5 180.167,268.5 182.5,268.5C 182.5,269.5 182.5,270.5 182.5,271.5C 180.167,271.5 177.833,271.5 175.5,271.5C 175.5,270.5 175.5,269.5 175.5,268.5 Z"/></g>
<g><path style="opacity:1" fill="#fee7b5" d="M 77.5,275.5 C 80.0892,276.419 82.0892,278.086 83.5,280.5C 80.9108,279.581 78.9108,277.914 77.5,275.5 Z"/></g>
<g><path style="opacity:1" fill="#fef3d1" d="M 204.5,267.5 C 188.18,283.16 170.18,296.494 150.5,307.5C 152.464,305.873 153.797,303.873 154.5,301.5C 156.937,301.244 159.271,300.577 161.5,299.5C 167.861,294.326 174.527,289.66 181.5,285.5C 183.528,283.162 185.528,280.829 187.5,278.5C 193.147,276.148 197.814,272.648 201.5,268C 202.448,267.517 203.448,267.351 204.5,267.5 Z"/></g>
<g><path style="opacity:0.89" fill="#cd6c70" d="M 61.5,279.5 C 64.1667,280.167 65.8333,281.833 66.5,284.5C 64.5,283.167 62.8333,281.5 61.5,279.5 Z"/></g>
<g><path style="opacity:1" fill="#fad9a1" d="M 83.5,280.5 C 85.7488,281.08 87.4154,282.413 88.5,284.5C 86.2512,283.92 84.5846,282.587 83.5,280.5 Z"/></g>
<g><path style="opacity:0.776" fill="#cf6c6a" d="M 217.5,273.5 C 213.155,278.844 208.155,283.511 202.5,287.5C 206.845,282.156 211.845,277.489 217.5,273.5 Z"/></g>
<g><path style="opacity:0.114" fill="#e17f7d" d="M 66.5,284.5 C 68.4044,284.738 69.7377,285.738 70.5,287.5C 68.5956,287.262 67.2623,286.262 66.5,284.5 Z"/></g>
<g><path style="opacity:1" fill="#ac4b4e" d="M 108.5,284.5 C 111.834,284.981 114.167,286.647 115.5,289.5C 112.75,288.369 110.417,286.703 108.5,284.5 Z"/></g>
<g><path style="opacity:0.776" fill="#d57877" d="M 70.5,287.5 C 72.754,288.124 74.4206,289.457 75.5,291.5C 73.2054,290.864 71.5387,289.531 70.5,287.5 Z"/></g>
<g><path style="opacity:0.11" fill="#dc7f7e" d="M 202.5,287.5 C 201.415,289.587 199.749,290.92 197.5,291.5C 198.585,289.413 200.251,288.08 202.5,287.5 Z"/></g>
<g><path style="opacity:1" fill="#ce7069" d="M 75.5,291.5 C 78.0892,292.419 80.0892,294.086 81.5,296.5C 78.9108,295.581 76.9108,293.914 75.5,291.5 Z"/></g>
<g><path style="opacity:0.557" fill="#d07473" d="M 197.5,291.5 C 196.089,293.914 194.089,295.581 191.5,296.5C 192.712,293.893 194.712,292.226 197.5,291.5 Z"/></g>
<g><path style="opacity:0.043" fill="#e27e74" d="M 191.5,296.5 C 191.179,298.048 190.179,298.715 188.5,298.5C 189.29,297.599 190.29,296.932 191.5,296.5 Z"/></g>
<g><path style="opacity:0.227" fill="#cf736d" d="M 84.5,298.5 C 85.8333,298.5 86.5,299.167 86.5,300.5C 85.1667,300.5 84.5,299.833 84.5,298.5 Z"/></g>
<g><path style="opacity:1" fill="#fef3d2" d="M 88.5,284.5 C 89.8734,284.343 91.2068,284.51 92.5,285C 102.462,294.146 113.795,300.979 126.5,305.5C 126.5,306.833 126.5,308.167 126.5,309.5C 122,307.417 117.666,305.084 113.5,302.5C 113.027,301.094 112.027,300.427 110.5,300.5C 102.45,296.143 95.1163,290.809 88.5,284.5 Z"/></g>
<g><path style="opacity:0.267" fill="#cf6c6c" d="M 188.5,298.5 C 188.063,300.074 187.063,301.241 185.5,302C 182.941,303.777 180.274,305.277 177.5,306.5C 180.627,303.102 184.293,300.435 188.5,298.5 Z"/></g>
<g><path style="opacity:1" fill="#f8d18d" d="M 110.5,300.5 C 112.027,300.427 113.027,301.094 113.5,302.5C 111.973,302.573 110.973,301.906 110.5,300.5 Z"/></g>
<g><path style="opacity:1" fill="#b94847" d="M 93.5,304.5 C 97.1773,305.262 99.844,307.262 101.5,310.5C 98.2623,309.262 95.5956,307.262 93.5,304.5 Z"/></g>
<g><path style="opacity:0.608" fill="#d4716f" d="M 176.5,307.5 C 174.371,309.95 171.704,311.617 168.5,312.5C 170.484,309.836 173.151,308.169 176.5,307.5 Z"/></g>
<g><path style="opacity:1" fill="#fef1cb" d="M 148.5,307.5 C 146.526,308.906 144.526,310.406 142.5,312C 136.578,314.29 131.245,313.457 126.5,309.5C 129.406,309.916 132.239,310.582 135,311.5C 139.241,309.477 143.741,308.144 148.5,307.5 Z"/></g>
<g><path style="opacity:0.114" fill="#d16a6a" d="M 166.5,313.5 C 165.738,315.262 164.404,316.262 162.5,316.5C 163.262,314.738 164.596,313.738 166.5,313.5 Z"/></g>
<g><path style="opacity:1" fill="#c04f4f" d="M 162.5,316.5 C 159.76,318.56 156.76,320.226 153.5,321.5C 153.953,320.542 154.619,319.708 155.5,319C 155.167,318.667 154.833,318.333 154.5,318C 157.168,317.433 159.834,316.933 162.5,316.5 Z"/></g>
<g><path style="opacity:1" fill="#c15052" d="M 114.5,318.5 C 117.742,319.71 121.075,320.71 124.5,321.5C 125.524,322.852 126.524,324.185 127.5,325.5C 122.724,323.946 118.39,321.613 114.5,318.5 Z"/></g>
<g><path style="opacity:0.337" fill="#ce626a" d="M 153.5,321.5 C 151.109,323.362 148.442,324.696 145.5,325.5C 147.579,323.127 150.246,321.794 153.5,321.5 Z"/></g>
<g><path style="opacity:1" fill="#c7585d" d="M 127.5,325.5 C 133.513,328.164 139.513,328.164 145.5,325.5C 143.636,327.014 141.636,328.347 139.5,329.5C 137.5,329.5 135.5,329.5 133.5,329.5C 131.364,328.347 129.364,327.014 127.5,325.5 Z"/></g>
</svg>
