<?xml version="1.0" encoding="UTF-8"?>
<svg version="1.1" xmlns="http://www.w3.org/2000/svg" width="30" height="30">
<path d="M0 0 C8.58 0 17.16 0 26 0 C26.80357143 19.28571429 26.80357143 19.28571429 23.25 24 C21.703125 25.625 21.703125 25.625 20 27 C19.34257812 27.556875 18.68515625 28.11375 18.0078125 28.6875 C16 30 16 30 12.625 30 C7.34050131 28.54220726 4.29010564 26.0125648 1.33984375 21.41015625 C-0.39198865 17.0023146 -0.33179273 13.30110593 -0.1875 8.625 C-0.125625 5.77875 -0.06375 2.9325 0 0 Z " fill="#E6B5A3" transform="translate(2,0)"/>
<path d="M0 0 C0.33 0 0.66 0 1 0 C1.33 5.28 1.66 10.56 2 16 C2.33 13.69 2.66 11.38 3 9 C3.66 9 4.32 9 5 9 C5.33 12.96 5.66 16.92 6 21 C6.33 14.07 6.66 7.14 7 0 C7.33 0 7.66 0 8 0 C8 7.92 8 15.84 8 24 C8.66 24 9.32 24 10 24 C10 19.05 10 14.1 10 9 C11.32 9 12.64 9 14 9 C14 8.34 14 7.68 14 7 C12.68 7 11.36 7 10 7 C10 5.68 10 4.36 10 3 C11.32 3 12.64 3 14 3 C14.33 2.01 14.66 1.02 15 0 C15 2.97 15 5.94 15 9 C16.32 9 17.64 9 19 9 C19.33 11.31 19.66 13.62 20 16 C20.33 13.03 20.66 10.06 21 7 C19.68 7 18.36 7 17 7 C17 5.68 17 4.36 17 3 C17.99 3 18.98 3 20 3 C20 2.01 20 1.02 20 0 C20.66 0 21.32 0 22 0 C22.10861833 2.70942393 22.18758577 5.414439 22.25 8.125 C22.30027344 9.26582031 22.30027344 9.26582031 22.3515625 10.4296875 C22.44405084 15.79401122 21.54476493 18.73459604 18 23 C15.22536158 25.26352082 13.69571732 25.95462713 10.125 26.1875 C5.16706862 24.30348608 2.27218287 21.84732346 0 17 C-0.84108075 11.36946905 -0.40474044 5.65351725 0 0 Z " fill="#F0D9D1" transform="translate(4,2)"/>
<path d="M0 0 C8.58 0 17.16 0 26 0 C26.80357143 19.28571429 26.80357143 19.28571429 23.25 24 C21.703125 25.625 21.703125 25.625 20 27 C19.34257812 27.556875 18.68515625 28.11375 18.0078125 28.6875 C16 30 16 30 12.625 30 C7.34050131 28.54220726 4.29010564 26.0125648 1.33984375 21.41015625 C-0.39198865 17.0023146 -0.33179273 13.30110593 -0.1875 8.625 C-0.125625 5.77875 -0.06375 2.9325 0 0 Z M2 1 C0.67201475 13.21928978 0.67201475 13.21928978 5.125 24.0625 C7.44085197 26.09877225 9.17680249 27.07216428 12.0625 28.25 C16.05778325 27.90997589 17.95499195 26.57134013 21 24 C24.66535323 19.44842287 24.35727741 15.24608256 24.1875 9.6875 C24.125625 6.820625 24.06375 3.95375 24 1 C16.74 1 9.48 1 2 1 Z " fill="#B83430" transform="translate(2,0)"/>
<path d="M0 0 C0.33 0 0.66 0 1 0 C1 2.97 1 5.94 1 9 C2.32 9 3.64 9 5 9 C5.33 11.31 5.66 13.62 6 16 C6.33 13.03 6.66 10.06 7 7 C5.68 7 4.36 7 3 7 C3 5.68 3 4.36 3 3 C3.99 3 4.98 3 6 3 C6 2.01 6 1.02 6 0 C6.66 0 7.32 0 8 0 C8.10812003 2.75105422 8.18734945 5.49785087 8.25 8.25 C8.30027344 9.41595703 8.30027344 9.41595703 8.3515625 10.60546875 C8.45112665 16.42997175 8.45112665 16.42997175 5.984375 19.546875 C5.32953125 20.02640625 4.6746875 20.5059375 4 21 C1.525 17.04 1.525 17.04 -1 13 C-1.33 15.64 -1.66 18.28 -2 21 C-2.33 21 -2.66 21 -3 21 C-3 17.37 -3 13.74 -3 10 C-2.01 10 -1.02 10 0 10 C0 9.01 0 8.02 0 7 C-1.32 7 -2.64 7 -4 7 C-4 5.68 -4 4.36 -4 3 C-2.68 3 -1.36 3 0 3 C0 2.01 0 1.02 0 0 Z " fill="#FCF8F4" transform="translate(18,2)"/>
<path d="M0 0 C1.32 0.33 2.64 0.66 4 1 C3.34 1 2.68 1 2 1 C2 2.65 2 4.3 2 6 C2.99 6 3.98 6 5 6 C5.33 5.01 5.66 4.02 6 3 C6 8.94 6 14.88 6 21 C5.34 20.67 4.68 20.34 4 20 C4 16.04 4 12.08 4 8 C3.34 8 2.68 8 2 8 C2 10.97 2 13.94 2 17 C0 15 0 15 -0.1953125 11.5234375 C-0.18201493 10.14049032 -0.15816232 8.75761346 -0.125 7.375 C-0.11597656 6.66859375 -0.10695313 5.9621875 -0.09765625 5.234375 C-0.07407603 3.48943902 -0.03820461 1.74467705 0 0 Z " fill="#AF1E24" transform="translate(5,3)"/>
<path d="M0 0 C1.98 0 3.96 0 6 0 C6 0.66 6 1.32 6 2 C4.68 2 3.36 2 2 2 C2 3.32 2 4.64 2 6 C3.32 6 4.64 6 6 6 C6 6.66 6 7.32 6 8 C4.68 8 3.36 8 2 8 C2 12.95 2 17.9 2 23 C1.34 23 0.68 23 0 23 C0 15.41 0 7.82 0 0 Z " fill="#AF2025" transform="translate(12,3)"/>
<path d="M0 0 C1.98 0 3.96 0 6 0 C5.67 0.99 5.34 1.98 5 3 C4.01 2.67 3.02 2.34 2 2 C2 3.32 2 4.64 2 6 C3.32 6 4.64 6 6 6 C6.05399736 7.45792884 6.09279177 8.91642712 6.125 10.375 C6.14820313 11.18710938 6.17140625 11.99921875 6.1953125 12.8359375 C6 15 6 15 4 17 C4 14.03 4 11.06 4 8 C2.68 8 1.36 8 0 8 C0 5.36 0 2.72 0 0 Z " fill="#AF1F25" transform="translate(19,3)"/>
<path d="M0 0 C0.33 0 0.66 0 1 0 C1.33 5.28 1.66 10.56 2 16 C2.33 13.69 2.66 11.38 3 9 C3.66 9 4.32 9 5 9 C5 13.29 5 17.58 5 22 C0.26266708 18.27727697 0.26266708 18.27727697 -0.41259766 14.99365234 C-0.49122262 12.70744144 -0.43694547 10.47155295 -0.3125 8.1875 C-0.28994141 7.39923828 -0.26738281 6.61097656 -0.24414062 5.79882812 C-0.18554161 3.86506071 -0.09586827 1.93227833 0 0 Z " fill="#F7EAE5" transform="translate(4,2)"/>
<path d="M0 0 C0.66 0 1.32 0 2 0 C2.02690104 2.79173055 2.04679053 5.58320348 2.0625 8.375 C2.07087891 9.1690625 2.07925781 9.963125 2.08789062 10.78125 C2.11328125 16.7734375 2.11328125 16.7734375 1 19 C0.34 18.67 -0.32 18.34 -1 18 C-0.67 17.34 -0.34 16.68 0 16 C0.22467831 14.46331135 0.40796805 12.92031946 0.5625 11.375 C0.64628906 10.55773438 0.73007812 9.74046875 0.81640625 8.8984375 C0.87699219 8.27195312 0.93757813 7.64546875 1 7 C-0.32 7 -1.64 7 -3 7 C-3 5.68 -3 4.36 -3 3 C-2.01 3 -1.02 3 0 3 C0 2.01 0 1.02 0 0 Z " fill="#F2DEDC" transform="translate(24,2)"/>
<path d="M0 0 C4.875 4.625 4.875 4.625 6 8 C3.50907189 9.24546405 2.58919267 8.7767578 0 8 C0 5.36 0 2.72 0 0 Z " fill="#F0AD60" transform="translate(17,16)"/>
<path d="M0 0 C0.33 0 0.66 0 1 0 C1 2.97 1 5.94 1 9 C0.67 8.34 0.34 7.68 0 7 C-1.32 7 -2.64 7 -4 7 C-4 5.68 -4 4.36 -4 3 C-2.68 3 -1.36 3 0 3 C0 2.01 0 1.02 0 0 Z " fill="#F7ECEC" transform="translate(18,2)"/>
<path d="M0 0 C-0.33 1.98 -0.66 3.96 -1 6 C-1.99 6 -2.98 6 -4 6 C-4 4.35 -4 2.7 -4 1 C-2 0 -2 0 0 0 Z " fill="#D07A7E" transform="translate(11,3)"/>
</svg>
