<?xml version="1.0" encoding="UTF-8"?>
<svg version="1.1" xmlns="http://www.w3.org/2000/svg" width="148" height="148">
<path d="M0 0 C48.84 0 97.68 0 148 0 C148 48.84 148 97.68 148 148 C99.16 148 50.32 148 0 148 C0 99.16 0 50.32 0 0 Z " fill="#FBF7F5" transform="translate(0,0)"/>
<path d="M0 0 C16.5 0 33 0 50 0 C50 48.84 50 97.68 50 148 C29.87 148 9.74 148 -11 148 C-7.71547 144.71547 -4.91996691 142.38606681 -1 140 C-0.34 140 0.32 140 1 140 C1 139.34 1 138.68 1 138 C4.46153846 135 4.46153846 135 7 135 C7 133.68 7 132.36 7 131 C6.31292969 131.08378906 5.62585938 131.16757813 4.91796875 131.25390625 C3.56638672 131.40666016 3.56638672 131.40666016 2.1875 131.5625 C1.29417969 131.66691406 0.40085937 131.77132812 -0.51953125 131.87890625 C-3 132 -3 132 -6 131 C-6 130.01 -6 129.02 -6 128 C-7.32 127.67 -8.64 127.34 -10 127 C-10 126.34 -10 125.68 -10 125 C-5.05 124.505 -5.05 124.505 0 124 C-1.35544922 123.76216797 -1.35544922 123.76216797 -2.73828125 123.51953125 C-3.91777344 123.28621094 -5.09726563 123.05289063 -6.3125 122.8125 C-7.48425781 122.59207031 -8.65601562 122.37164062 -9.86328125 122.14453125 C-13 121 -13 121 -14.91796875 118.38671875 C-15.27503906 117.59910156 -15.63210937 116.81148438 -16 116 C-14.515 115.505 -14.515 115.505 -13 115 C-14.98 111.535 -14.98 111.535 -17 108 C-14.69 108.66 -12.38 109.32 -10 110 C-10 110.66 -10 111.32 -10 112 C-6.846632 112.70074844 -4.27275026 113 -1 113 C-1.98742187 112.46890625 -2.97484375 111.9378125 -3.9921875 111.390625 C-5.28677743 110.67766243 -6.58103087 109.96408864 -7.875 109.25 C-8.52597656 108.90195313 -9.17695312 108.55390625 -9.84765625 108.1953125 C-12.5363575 106.69850974 -14.68423097 105.43520499 -16.5078125 102.921875 C-17 101 -17 101 -16 98 C-14.66144944 98.78281305 -13.32926356 99.57651877 -12 100.375 C-11.2575 100.81585938 -10.515 101.25671875 -9.75 101.7109375 C-9.1725 102.13632813 -8.595 102.56171875 -8 103 C-8 103.66 -8 104.32 -8 105 C-6.02 105.66 -4.04 106.32 -2 107 C-2 107.66 -2 108.32 -2 109 C-0.35 109.33 1.3 109.66 3 110 C2.175 109.38125 1.35 108.7625 0.5 108.125 C-0.325 107.42375 -1.15 106.7225 -2 106 C-2 105.34 -2 104.68 -2 104 C-2.57621094 103.89171875 -3.15242188 103.7834375 -3.74609375 103.671875 C-8.69926412 102.19536668 -12.82018727 98.47476592 -16 94.5 C-17.19178364 91.52054089 -17.22189816 89.18054024 -17 86 C-12.445213 89.80014774 -8.04720741 93.65665546 -4 98 C-4 98.66 -4 99.32 -4 100 C-3.1646875 100.37125 -3.1646875 100.37125 -2.3125 100.75 C0.39971127 102.21606015 2.63587365 104.02989471 5 106 C5 105.34 5 104.68 5 104 C4.34 104 3.68 104 3 104 C1.62984736 102.42330631 0.32708298 100.78756162 -0.9375 99.125 C-3.22906462 96.11812455 -4.83581038 94.10945975 -8 92 C-8 91.01 -8 90.02 -8 89 C-8.66 89 -9.32 89 -10 89 C-14.72483403 82.99682891 -16.75581643 77.56969064 -17 70 C-16.67 70.66 -16.34 71.32 -16 72 C-15.34 72 -14.68 72 -14 72 C-13.4121875 73.3303125 -13.4121875 73.3303125 -12.8125 74.6875 C-10.88537205 78.20949246 -8.86495733 80.19870838 -6 83 C-4.73350992 84.54916401 -3.48526994 86.11332897 -2.25 87.6875 C1.32630728 92.22744226 5.10696006 96.52154598 9.01953125 100.7734375 C11 103 11 103 12.26171875 105.2265625 C14.5299023 107.90827454 14.5299023 107.90827454 22 108 C22 89.52 22 71.04 22 52 C14.41 52 6.82 52 -1 52 C-1.02290278 44.75508786 -1.04283177 37.51030031 -1.05493164 30.26538086 C-1.05997356 27.79857967 -1.06680691 25.33178148 -1.07543945 22.86499023 C-1.08751125 19.32795471 -1.09322956 15.79095855 -1.09765625 12.25390625 C-1.10281754 11.14350479 -1.10797882 10.03310333 -1.11329651 8.88905334 C-1.11337204 7.86807053 -1.11344757 6.84708771 -1.11352539 5.79516602 C-1.115746 4.89137711 -1.11796661 3.9875882 -1.12025452 3.05641174 C-1 1 -1 1 0 0 Z " fill="#FCF7F3" transform="translate(98,0)"/>
<path d="M0 0 C12.21 0 24.42 0 37 0 C37 43.23 37 86.46 37 131 C31.71010758 128.35505379 27.47648143 125.88844855 24 121 C22.76187231 115.6250247 22.94708218 110.37628909 23.12109375 104.90625 C23.13790382 103.34830419 23.15070367 101.79031043 23.15968323 100.2322998 C23.19386252 96.15395102 23.28209461 92.07853973 23.38201904 88.00134277 C23.47449639 83.83202856 23.51527752 79.66223418 23.56054688 75.4921875 C23.65674177 67.32678473 23.8101062 59.16375889 24 51 C20.37 51 16.74 51 13 51 C13 69.48 13 87.96 13 107 C12.34 107 11.68 107 11 107 C7.04492679 100.30274269 4.03038652 93.78329414 1.76171875 86.3359375 C1.21648696 84.06547035 1.21648696 84.06547035 0 83 C-0.09507821 80.41360962 -0.12556376 77.8540144 -0.11352539 75.26733398 C-0.11367142 74.4576416 -0.11381744 73.64794922 -0.1139679 72.8137207 C-0.11326854 70.12448492 -0.1054751 67.43531751 -0.09765625 64.74609375 C-0.09579215 62.88664284 -0.09436821 61.02719144 -0.09336853 59.16773987 C-0.08954271 54.26370904 -0.07971188 49.35970764 -0.06866455 44.45568848 C-0.05665753 38.57700458 -0.0520485 32.69831087 -0.04621124 26.81961823 C-0.03650016 17.87972499 -0.01734405 8.93989637 0 0 Z " fill="#AE252B" transform="translate(14,1)"/>
<path d="M0 0 C2.64 0 5.28 0 8 0 C8.01213028 1.55522118 8.01213028 1.55522118 8.02450562 3.14186096 C8.10208306 12.92602439 8.18985154 22.71005074 8.28752708 32.49403477 C8.3374141 37.52374592 8.38374478 42.55343684 8.421875 47.58325195 C8.45882376 52.43979834 8.50520967 57.2961723 8.55806351 62.15257072 C8.57655654 64.00282699 8.59168318 65.85312015 8.60334396 67.70343208 C8.62029375 70.30059486 8.64934939 72.89736712 8.68115234 75.49438477 C8.68331253 76.25467987 8.68547272 77.01497498 8.68769836 77.79830933 C8.99668639 97.62747976 22.7916945 115.35998091 36.375 128.63671875 C42.84756121 134.46395019 49.8005839 139.76915923 56.9296875 144.765625 C57.94289062 145.50296875 58.95609375 146.2403125 60 147 C60 147.33 60 147.66 60 148 C40.2 148 20.4 148 0 148 C0 99.16 0 50.32 0 0 Z " fill="#B0272A" transform="translate(0,0)"/>
<path d="M0 0 C11.88 0 23.76 0 36 0 C36 3.63 36 7.26 36 11 C28.08 11 20.16 11 12 11 C12 19.58 12 28.16 12 37 C19.92 37 27.84 37 36 37 C36 40.96 36 44.92 36 49 C28.08 49 20.16 49 12 49 C12 79.36 12 109.72 12 141 C6.84682691 139.96936538 3.26177551 139.25235168 0 135 C-1.03277044 130.68843896 -0.88394845 126.45376547 -0.79467773 122.03979492 C-0.79569992 120.72233276 -0.79672211 119.40487061 -0.79777527 118.04748535 C-0.79978146 114.44185319 -0.75866909 110.8378555 -0.70975757 107.23260283 C-0.66595769 103.4623889 -0.66188334 99.69213625 -0.65357971 95.92170715 C-0.63183442 88.78519535 -0.57440803 81.64943539 -0.50413328 74.51325446 C-0.42585433 66.3876438 -0.38739459 58.26199697 -0.35226524 50.13610303 C-0.27912321 33.42355933 -0.15076798 16.71205108 0 0 Z " fill="#AB1C22" transform="translate(56,2)"/>
<path d="M0 0 C4.66125 -0.103125 9.3225 -0.20625 14.125 -0.3125 C15.58437988 -0.35802002 17.04375977 -0.40354004 18.54736328 -0.45043945 C29.23007211 -0.56518788 29.23007211 -0.56518788 32.84375 2.3828125 C37.39508745 7.90708078 37.59408026 13.03098152 37 20 C36 23.125 36 23.125 35 25 C34.34 25 33.68 25 33 25 C32.74605469 24.43410156 32.49210937 23.86820313 32.23046875 23.28515625 C31.88628906 22.55167969 31.54210937 21.81820313 31.1875 21.0625 C30.85105469 20.33160156 30.51460937 19.60070312 30.16796875 18.84765625 C29.06399866 16.66970511 29.06399866 16.66970511 26 16 C25.01 16.33 24.02 16.66 23 17 C20.03 17 17.06 17 14 17 C13.67 23.93 13.34 30.86 13 38 C20.92 38 28.84 38 37 38 C37.16235316 44.09984032 37.30115158 50.1919411 37.38452148 56.29223633 C37.41933222 58.3589034 37.46679988 60.42540334 37.52807617 62.49145508 C38.03377402 80.00389917 34.74041903 91.99796843 26 107 C25.34 107 24.68 107 24 107 C24 88.19 24 69.38 24 50 C16.08 50 8.16 50 0 50 C0 33.5 0 17 0 0 Z " fill="#AE242A" transform="translate(97,1)"/>
<path d="M0 0 C0.33 0 0.66 0 1 0 C1 48.84 1 97.68 1 148 C-15.17 148 -31.34 148 -48 148 C-45.525 146.02 -45.525 146.02 -43 144 C-41.93644078 143.06629753 -40.88286246 142.1209912 -39.84375 141.16015625 C-39.29589844 140.65419922 -38.74804688 140.14824219 -38.18359375 139.62695312 C-37.62800781 139.11068359 -37.07242188 138.59441406 -36.5 138.0625 C-35.94441406 137.55009766 -35.38882813 137.03769531 -34.81640625 136.50976562 C-31.46896287 133.41042687 -28.22072781 130.23168266 -25 127 C-24.43796875 126.49597656 -23.8759375 125.99195312 -23.296875 125.47265625 C-14.5304681 117.48105804 -8.21044337 105.98710587 -4 95 C-3.75396121 94.36374726 -3.50792242 93.72749453 -3.25442791 93.0719614 C-1.2743691 87.61450221 -0.55687572 82.86586527 -0.56762695 77.08374023 C-0.5574353 76.24361893 -0.54724365 75.40349762 -0.53674316 74.53791809 C-0.50684319 71.79474012 -0.49738277 69.05191261 -0.48828125 66.30859375 C-0.47141747 64.39330404 -0.45326496 62.47802529 -0.43388367 60.5627594 C-0.38656206 55.5471031 -0.35663757 50.53149123 -0.33044434 45.51568604 C-0.30054845 40.38732127 -0.25404929 35.2591093 -0.20898438 30.13085938 C-0.1231544 20.08731981 -0.05571916 10.04374862 0 0 Z " fill="#FBF6F6" transform="translate(147,0)"/>
<path d="M0 0 C1.83548048 2.75322071 2.33772549 4.04336616 3.0625 7.125 C6.33368975 18.39243137 12.6742275 29.23421927 20.37109375 38.01953125 C21.94776529 39.93649161 22.99028595 41.74209672 24 44 C24.66 44 25.32 44 26 44 C27.35386936 45.65002828 28.68678142 47.3174387 30 49 C30.66 49.33 31.32 49.66 32 50 C32 50.66 32 51.32 32 52 C32.53109375 52.22558594 33.0621875 52.45117188 33.609375 52.68359375 C36.80049188 54.44079373 39.48073214 56.72054739 42.25 59.0625 C43.08144531 59.75182617 43.08144531 59.75182617 43.9296875 60.45507812 C45.30824225 61.61123057 46.65701407 62.80271538 48 64 C48 64.33 48 64.66 48 65 C32.16 65 16.32 65 0 65 C0 43.55 0 22.1 0 0 Z " fill="#FEFCFC" transform="translate(0,83)"/>
<path d="M0 0 C2.31 0 4.62 0 7 0 C7.13985658 10.93650961 7.24605164 21.87280177 7.31087303 32.81002808 C7.34200562 37.89027805 7.38414237 42.96991017 7.45263672 48.04980469 C7.51848133 52.96470084 7.55384139 57.87900788 7.56926346 62.79431152 C7.58023431 64.65679176 7.60165317 66.51924473 7.63438034 68.38146973 C7.99470776 89.76144182 1.00617544 106.69469764 -13 123 C-13.66257813 123.78503906 -14.32515625 124.57007812 -15.0078125 125.37890625 C-22.07981966 133.57411455 -31.24689281 143.1234464 -41 148 C-43.04055005 148.07065617 -45.08334257 148.08421976 -47.125 148.0625 C-48.22070312 148.05347656 -49.31640625 148.04445312 -50.4453125 148.03515625 C-51.28835937 148.02355469 -52.13140625 148.01195312 -53 148 C-49.90081787 144.80690326 -46.81446409 142.32184771 -43 140 C-42.34 140 -41.68 140 -41 140 C-41 139.34 -41 138.68 -41 138 C-39.34765625 136.5546875 -39.34765625 136.5546875 -37.0625 134.875 C-20.14699767 122.04895977 -5.13081642 105.48672365 -1 84 C-0.27608908 77.4825258 -0.39366293 70.90405483 -0.390625 64.35546875 C-0.37561383 62.4907337 -0.35888062 60.6260118 -0.34051514 58.76130676 C-0.29715876 53.89691496 -0.27691354 49.03270239 -0.26177979 44.16815186 C-0.24209332 39.18686461 -0.20013696 34.20576775 -0.16015625 29.22460938 C-0.08519842 19.48313211 -0.03469952 9.74169815 0 0 Z " fill="#AE1F20" transform="translate(140,0)"/>
<path d="M0 0 C0.33 0.66 0.66 1.32 1 2 C1.66 2 2.32 2 3 2 C3.391875 2.886875 3.78375 3.77375 4.1875 4.6875 C6.11462795 8.20949246 8.13504267 10.19870838 11 13 C12.26649008 14.54916401 13.51473006 16.11332897 14.75 17.6875 C18.31446746 22.20878104 22.07214071 26.49357337 25.96875 30.73046875 C27.6588398 32.61881908 29.17649327 34.53329545 30.6875 36.5625 C33.43377927 39.4572268 35.0767877 39.81752501 39 40 C35 46.57142857 35 46.57142857 31 48 C31 48.66 31 49.32 31 50 C30.34 50 29.68 50 29 50 C28.773125 50.5775 28.54625 51.155 28.3125 51.75 C26.59371257 54.69649274 24.84729387 56.11356976 22 58 C18.73828125 58.42578125 18.73828125 58.42578125 15.3125 58.3125 C13.60513672 58.27576172 13.60513672 58.27576172 11.86328125 58.23828125 C9 58 9 58 7 57 C7 56.34 7 55.68 7 55 C11.95 54.505 11.95 54.505 17 54 C15.64455078 53.76216797 15.64455078 53.76216797 14.26171875 53.51953125 C13.08222656 53.28621094 11.90273437 53.05289063 10.6875 52.8125 C9.51574219 52.59207031 8.34398438 52.37164062 7.13671875 52.14453125 C4 51 4 51 2.08203125 48.38671875 C1.72496094 47.59910156 1.36789063 46.81148437 1 46 C2.485 45.505 2.485 45.505 4 45 C2.68 42.69 1.36 40.38 0 38 C2.31 38.66 4.62 39.32 7 40 C7 40.66 7 41.32 7 42 C10.153368 42.70074844 12.72724974 43 16 43 C15.01257813 42.46890625 14.02515625 41.9378125 13.0078125 41.390625 C11.71322257 40.67766243 10.41896913 39.96408864 9.125 39.25 C8.14853516 38.72792969 8.14853516 38.72792969 7.15234375 38.1953125 C4.4636425 36.69850974 2.31576903 35.43520499 0.4921875 32.921875 C0 31 0 31 1 28 C2.33855056 28.78281305 3.67073644 29.57651877 5 30.375 C5.7425 30.81585938 6.485 31.25671875 7.25 31.7109375 C7.8275 32.13632813 8.405 32.56171875 9 33 C9 33.66 9 34.32 9 35 C10.98 35.66 12.96 36.32 15 37 C15 37.66 15 38.32 15 39 C16.65 39.33 18.3 39.66 20 40 C19.175 39.38125 18.35 38.7625 17.5 38.125 C16.675 37.42375 15.85 36.7225 15 36 C15 35.34 15 34.68 15 34 C14.42378906 33.89171875 13.84757812 33.7834375 13.25390625 33.671875 C8.30073588 32.19536668 4.17981273 28.47476592 1 24.5 C-0.19178364 21.52054089 -0.22189816 19.18054024 0 16 C4.554787 19.80014774 8.95279259 23.65665546 13 28 C13 28.66 13 29.32 13 30 C13.556875 30.2475 14.11375 30.495 14.6875 30.75 C17.39971127 32.21606015 19.63587365 34.02989471 22 36 C22 35.34 22 34.68 22 34 C21.34 34 20.68 34 20 34 C18.62984736 32.42330631 17.32708298 30.78756162 16.0625 29.125 C13.77093538 26.11812455 12.16418962 24.10945975 9 22 C9 21.01 9 20.02 9 19 C8.34 19 7.68 19 7 19 C2.27516597 12.99682891 0.24418357 7.56969064 0 0 Z " fill="#EF9A40" transform="translate(81,70)"/>
<path d="M0 0 C0.66 0 1.32 0 2 0 C2.00808685 1.03681412 2.01617371 2.07362823 2.02450562 3.14186096 C2.10208306 12.92602439 2.18985154 22.71005074 2.28752708 32.49403477 C2.3374141 37.52374592 2.38374478 42.55343684 2.421875 47.58325195 C2.45882376 52.43979834 2.50520967 57.2961723 2.55806351 62.15257072 C2.57655654 64.00282699 2.59168318 65.85312015 2.60334396 67.70343208 C2.62029375 70.30059486 2.64934939 72.89736712 2.68115234 75.49438477 C2.68331253 76.25467987 2.68547272 77.01497498 2.68769836 77.79830933 C2.99693371 97.64335152 16.80090684 115.33041908 30.3671875 128.63671875 C34.10509142 131.99195891 38.03838774 135.07273498 42.03955078 138.10717773 C45.64706607 140.85491038 48.86339099 143.72188983 52 147 C46.7919226 145.42640936 43.15886756 142.11445187 39.0625 138.6875 C38.37220703 138.11837891 37.68191406 137.54925781 36.97070312 136.96289062 C35.61116702 135.84046792 34.25456696 134.71447816 32.90112305 133.5847168 C31.69919595 132.58282791 30.49286197 131.58618171 29.28051758 130.59692383 C19.58447836 122.66242977 12.67892774 112.36943066 6.75 101.4375 C6.25608765 100.53632446 6.25608765 100.53632446 5.75219727 99.61694336 C1.71288901 91.9708518 -0.46319353 84.8434166 -0.34057617 76.17553711 C-0.34101425 75.34516937 -0.34145233 74.51480164 -0.34190369 73.65927124 C-0.33983429 70.94837908 -0.31659192 68.2381262 -0.29296875 65.52734375 C-0.2873662 63.63448932 -0.28309922 61.7416305 -0.28010559 59.84877014 C-0.26870873 54.89213835 -0.23928644 49.93577468 -0.20599365 44.97924805 C-0.17518102 39.91133245 -0.16157643 34.8433731 -0.14648438 29.77539062 C-0.11441139 19.8501433 -0.06327809 9.92509404 0 0 Z " fill="#EE9F52" transform="translate(6,0)"/>
<path d="M0 0 C3.63 0 7.26 0 11 0 C11 7.92 11 15.84 11 24 C7.37 24 3.74 24 0 24 C0 16.08 0 8.16 0 0 Z " fill="#FEFDFD" transform="translate(27,14)"/>
<path d="M0 0 C0.66 0 1.32 0 2 0 C2.11643002 10.84071731 2.20498532 21.68128311 2.25906086 32.52250099 C2.28502934 37.55787038 2.32019124 42.59280845 2.37719727 47.62792969 C2.43197586 52.49741155 2.46151611 57.36648153 2.47438622 62.23624802 C2.48354455 64.08360645 2.50142605 65.93094524 2.52865028 67.77812576 C2.7202521 81.33140188 1.41505407 92.21018193 -6 104 C-7.31074099 100.06777704 -6.30421778 98.84525597 -4.625 95.125 C-1.64413111 88.48049336 -0.8490957 82.97802154 -0.79467773 75.72143555 C-0.78477814 74.90140549 -0.77487854 74.08137543 -0.76467896 73.23649597 C-0.73319047 70.53659921 -0.70835673 67.83668487 -0.68359375 65.13671875 C-0.66301329 63.26055962 -0.64201653 61.38440501 -0.62062073 59.508255 C-0.56551285 54.5780301 -0.51605393 49.64776413 -0.46777344 44.71746826 C-0.41747589 39.68335327 -0.36183296 34.64929766 -0.30664062 29.61523438 C-0.19919711 19.74354036 -0.09772164 9.8717947 0 0 Z " fill="#EE9F53" transform="translate(140,0)"/>
<path d="M0 0 C0 9.12712668 -11.01149897 17.73051359 -17 24 C-17.63164063 24.67289063 -18.26328125 25.34578125 -18.9140625 26.0390625 C-22.87129465 30.14633189 -27.2090185 33.63736482 -31.7109375 37.1328125 C-33.59752238 38.67169914 -35.15452186 40.1780669 -36.75 42 C-39 44 -39 44 -42.3125 44.3125 C-43.199375 44.209375 -44.08625 44.10625 -45 44 C-41.97704729 40.74451247 -38.79537691 38.31022942 -35 36 C-34.34 36 -33.68 36 -33 36 C-33 35.34 -33 34.68 -33 34 C-31.34765625 32.5546875 -31.34765625 32.5546875 -29.0625 30.875 C-18.40380738 22.79313417 -9.9095342 14.057724 -2.3828125 3.00390625 C-1 1 -1 1 0 0 Z " fill="#E18443" transform="translate(132,104)"/>
<path d="M0 0 C1.82481804 2.73722706 3.11581137 5.33890873 4.5 8.3125 C12.43514643 24.22121971 24.03551318 36.55217324 38.14160156 47.2097168 C41.72139617 49.91932214 44.89406229 52.75446958 48 56 C42.7919226 54.42640936 39.15886756 51.11445187 35.0625 47.6875 C34.37220703 47.11837891 33.68191406 46.54925781 32.97070312 45.96289062 C31.61116702 44.84046792 30.25456696 43.71447816 28.90112305 42.5847168 C27.69919595 41.58282791 26.49286197 40.58618171 25.28051758 39.59692383 C13.90700471 30.28971413 5.59689559 17.50740152 0 4 C0 2.68 0 1.36 0 0 Z " fill="#E88D3E" transform="translate(10,91)"/>
<path d="M0 0 C2.74277578 3.19990508 4.6302836 6.00499382 6 10 C6.66 10 7.32 10 8 10 C8.33 10.99 8.66 11.98 9 13 C10.62102968 14.71108689 12.29503463 16.37253306 14 18 C15.7041054 19.62836738 17.38025441 21.28769752 19 23 C19 23.66 19 24.32 19 25 C19.66 25 20.32 25 21 25 C21 25.66 21 26.32 21 27 C14.92786452 24.30127312 10.95217906 19.93321291 6.71484375 14.97265625 C4.58448934 12.52202077 2.33022931 10.2596163 0 8 C-0.66 8.99 -1.32 9.98 -2 11 C-2.33 9.35 -2.66 7.7 -3 6 C-2.34 5.67 -1.68 5.34 -1 5 C-0.34444881 2.47266765 -0.34444881 2.47266765 0 0 Z " fill="#FAEED0" transform="translate(82,79)"/>
<path d="M0 0 C7.92 0 15.84 0 24 0 C24.17570454 7.52751568 24.34283539 15.05512726 24.49477577 22.58315849 C24.56566892 26.078534 24.64035295 29.57374359 24.72363281 33.06884766 C24.81915787 37.08477753 24.89831525 41.10088358 24.9765625 45.1171875 C25.00875885 46.37554413 25.0409552 47.63390076 25.0741272 48.9303894 C25.10438492 50.67196823 25.10438492 50.67196823 25.13525391 52.44873047 C25.15746002 53.47465302 25.17966614 54.50057556 25.20254517 55.55758667 C25 58 25 58 23 60 C20.69 59.34 18.38 58.68 16 58 C16 57.67 16 57.34 16 57 C18.31 57 20.62 57 23 57 C23 38.52 23 20.04 23 1 C15.41 1 7.82 1 0 1 C0 0.67 0 0.34 0 0 Z " fill="#F5E0DB" transform="translate(97,51)"/>
<path d="M0 0 C1.89213369 2.38573379 3.02391783 4.07175348 4 7 C6.4833678 8.46507096 8.92239216 9.78788475 11.5 11.0625 C18.875 14.75 18.875 14.75 20 17 C15.6822542 16.49202991 11.96697886 15.80317221 8 14 C8 13.34 8 12.68 8 12 C5.03 11.505 5.03 11.505 2 11 C1.67 11.66 1.34 12.32 1 13 C0.375 11.1875 0.375 11.1875 0 9 C0.66 8.01 1.32 7.02 2 6 C1.34 6 0.68 6 0 6 C0 4.02 0 2.04 0 0 Z " fill="#FBF0CF" transform="translate(80,98)"/>
<path d="M0 0 C0.66 0.33 1.32 0.66 2 1 C2 1.99 2 2.98 2 4 C2.556875 4.2475 3.11375 4.495 3.6875 4.75 C6 6 6 6 8.5625 8.0625 C10.92026019 10.16384349 10.92026019 10.16384349 14 11 C18.66666667 15.33333333 18.66666667 15.33333333 20 18 C18.02 17.34 16.04 16.68 14 16 C14 15.34 14 14.68 14 14 C12.02 13.34 10.04 12.68 8 12 C8 11.34 8 10.68 8 10 C7.2575 9.7525 6.515 9.505 5.75 9.25 C2.79875938 7.90852699 1.15185026 6.39094474 -1 4 C-0.34 4 0.32 4 1 4 C0.67 2.68 0.34 1.36 0 0 Z " fill="#FDF2D1" transform="translate(82,93)"/>
<path d="M0 0 C0.66 0.33 1.32 0.66 2 1 C-1.75 5.875 -1.75 5.875 -4 7 C-5.54613014 6.91348369 -7.08909387 6.75997364 -8.625 6.5625 C-9.85089844 6.40974609 -9.85089844 6.40974609 -11.1015625 6.25390625 C-12.04128906 6.12822266 -12.04128906 6.12822266 -13 6 C-13 5.01 -13 4.02 -13 3 C-12.22914062 2.95101562 -11.45828125 2.90203125 -10.6640625 2.8515625 C-9.66117187 2.77679688 -8.65828125 2.70203125 -7.625 2.625 C-6.62726563 2.55539063 -5.62953125 2.48578125 -4.6015625 2.4140625 C-1.84491121 2.23636036 -1.84491121 2.23636036 0 0 Z " fill="#F0D396" transform="translate(105,125)"/>
<path d="M0 0 C0.33 0 0.66 0 1 0 C1.73144117 9.54937082 -0.68939639 17.03409459 -6 25 C-7.29418349 21.11744954 -6.37795441 20.08983389 -4.6875 16.4375 C-2.30506219 11.00421821 -0.86795748 5.85547437 0 0 Z " fill="#E79044" transform="translate(140,79)"/>
<path d="M0 0 C1.93884889 0.28256092 3.87605961 0.5763793 5.8125 0.875 C6.89144531 1.03742188 7.97039062 1.19984375 9.08203125 1.3671875 C12 2 12 2 15 4 C10.05 4.33 5.1 4.66 0 5 C0 3.35 0 1.7 0 0 Z " fill="#F8D98F" transform="translate(86,121)"/>
<path d="M0 0 C0 6.72862544 -6.72687363 13.09847269 -11 18 C-11.99 17.67 -12.98 17.34 -14 17 C-13.56429687 16.59910156 -13.12859375 16.19820312 -12.6796875 15.78515625 C-8.50646352 11.80162427 -5.2520304 7.69170571 -2.1640625 2.8203125 C-1 1 -1 1 0 0 Z " fill="#EC994B" transform="translate(132,104)"/>
<path d="M0 0 C1.05445312 0.27328125 2.10890625 0.5465625 3.1953125 0.828125 C5.875 1.75 5.875 1.75 7.875 3.75 C1.30184522 4.11517527 -3.91985526 2.88619737 -10.125 0.75 C-6.43746304 -1.70835797 -4.16753957 -1.12636205 0 0 Z " fill="#F7D58C" transform="translate(92.125,116.25)"/>
<path d="M0 0 C1.66666667 1.66666667 3.33333333 3.33333333 5 5 C5.763125 5.721875 6.52625 6.44375 7.3125 7.1875 C9 9 9 9 9 11 C9.66 11 10.32 11 11 11 C11 11.66 11 12.32 11 13 C5.5959808 10.59821369 1.56274919 7.41024829 -1 2 C-0.67 1.34 -0.34 0.68 0 0 Z " fill="#FAE1A2" transform="translate(92,93)"/>
<path d="M0 0 C0.66 0.33 1.32 0.66 2 1 C0.0894422 2.96463019 -1.82795314 4.92166401 -3.75 6.875 C-4.55824219 7.70837891 -4.55824219 7.70837891 -5.3828125 8.55859375 C-10.37208686 13.60871292 -10.37208686 13.60871292 -14 15 C-12.40153531 10.75091664 -9.1869608 8.17774261 -5.875 5.25 C-5.31167969 4.74339844 -4.74835938 4.23679687 -4.16796875 3.71484375 C-2.78348469 2.47115468 -1.39238512 1.23483695 0 0 Z " fill="#E88C3C" transform="translate(118,122)"/>
<path d="M0 0 C4.61513112 1.31860889 8.09897612 3.21355437 12 6 C8.69564916 7.12377697 6.9493138 6.89554742 3.75 5.5625 C3.04359375 5.27503906 2.3371875 4.98757812 1.609375 4.69140625 C1.07828125 4.46324219 0.5471875 4.23507813 0 4 C0 2.68 0 1.36 0 0 Z " fill="#F9DDA2" transform="translate(88,108)"/>
<path d="M0 0 C4.43970742 1.39533662 6.90515679 3.56128532 10 7 C10.33 7.66 10.66 8.32 11 9 C9.02 8.34 7.04 7.68 5 7 C5 6.34 5 5.68 5 5 C3.02 4.34 1.04 3.68 -1 3 C-0.67 2.01 -0.34 1.02 0 0 Z " fill="#F9D992" transform="translate(91,102)"/>
<path d="M0 0 C0.33 0 0.66 0 1 0 C1.04898437 0.56847656 1.09796875 1.13695313 1.1484375 1.72265625 C1.52388493 5.60012195 2.01663509 9.05637447 3.125 12.8125 C4.00176815 16.00644113 3.92936117 16.9828486 3 20 C0.18447274 13.21256822 -0.3689719 7.31110994 0 0 Z " fill="#E47F34" transform="translate(6,74)"/>
<path d="M0 0 C2.475 0.495 2.475 0.495 5 1 C5.66 2.98 6.32 4.96 7 7 C4.13302508 5.71480435 2.02392288 4.42870746 0 2 C0 1.34 0 0.68 0 0 Z " fill="#FDF7DF" transform="translate(85,88)"/>
<path d="M0 0 C4.3890815 0.51035831 7.33708062 1.52214277 11 4 C10.67 4.66 10.34 5.32 10 6 C6.66666667 4.33333333 3.33333333 2.66666667 0 1 C0 0.67 0 0.34 0 0 Z " fill="#D78C8E" transform="translate(116,14)"/>
<path d="M0 0 C2.64 0.33 5.28 0.66 8 1 C5.33333333 2.33333333 2.66666667 3.66666667 0 5 C0 3.35 0 1.7 0 0 Z " fill="#F8E1B3" transform="translate(86,121)"/>
</svg>
