<?xml version="1.0" encoding="UTF-8"?>
<!DOCTYPE svg PUBLIC "-//W3C//DTD SVG 1.1//EN" "http://www.w3.org/Graphics/SVG/1.1/DTD/svg11.dtd">
<svg xmlns="http://www.w3.org/2000/svg" version="1.1" width="1200px" height="1188px" style="shape-rendering:geometricPrecision; text-rendering:geometricPrecision; image-rendering:optimizeQuality; fill-rule:evenodd; clip-rule:evenodd" xmlns:xlink="http://www.w3.org/1999/xlink">
<g><path style="opacity:0.962" fill="#fcfcfc" d="M 491.5,-0.5 C 497.167,-0.5 502.833,-0.5 508.5,-0.5C 512.45,0.594262 516.45,1.9276 520.5,3.5C 534.072,-0.633832 547.406,0.199502 560.5,6C 573.675,12.947 587.508,18.1136 602,21.5C 613.274,16.3392 623.441,17.8392 632.5,26C 631.507,28.4528 631.34,30.9528 632,33.5C 637.332,35.9969 642.332,38.9969 647,42.5C 647.333,45.5 647.667,48.5 648,51.5C 653.985,54.9686 657.818,59.9686 659.5,66.5C 673.196,72.6962 683.03,82.6962 689,96.5C 689.729,100.377 689.562,104.211 688.5,108C 691.957,112.406 694.79,117.239 697,122.5C 698.643,128.011 698.809,133.511 697.5,139C 697.998,140.158 698.831,140.991 700,141.5C 706.487,129.861 713.487,118.527 721,107.5C 725.887,101.614 732.054,97.7802 739.5,96C 752.337,76.0605 770.004,62.0605 792.5,54C 824.256,43.2246 856.922,37.558 890.5,37C 950.499,37.245 1010.5,37.745 1070.5,38.5C 1103.53,38.7266 1136.53,38.0599 1169.5,36.5C 1180.43,35.7002 1190.43,38.3669 1199.5,44.5C 1199.5,46.5 1199.5,48.5 1199.5,50.5C 1194.97,66.7189 1185.3,78.8855 1170.5,87C 1161.38,90.8138 1152.38,94.8138 1143.5,99C 1128.55,113.946 1113.55,128.946 1098.5,144C 1088.5,150 1078.5,156 1068.5,162C 1053.07,181.059 1033.74,194.726 1010.5,203C 1000.5,206.444 990.335,209.277 980,211.5C 962.236,228.949 940.736,237.449 915.5,237C 912.163,239.671 908.496,241.837 904.5,243.5C 902.303,247.238 899.636,250.571 896.5,253.5C 893.464,263.37 887.13,270.204 877.5,274C 858.349,280.807 838.682,282.974 818.5,280.5C 811.536,284.992 803.869,287.159 795.5,287C 790.559,290.425 785.059,292.258 779,292.5C 772.812,291.682 766.646,290.682 760.5,289.5C 752.976,291.705 745.309,293.205 737.5,294C 735.391,298.383 732.891,302.549 730,306.5C 728.502,313.326 726.502,319.993 724,326.5C 721.804,329.125 718.97,330.125 715.5,329.5C 715.072,339.357 712.072,348.357 706.5,356.5C 712.681,359.285 719.014,361.785 725.5,364C 730.009,368.838 735.342,372.505 741.5,375C 766.457,384.646 790.791,395.646 814.5,408C 858.57,418.535 900.904,433.868 941.5,454C 995.797,480.8 1047.8,511.134 1097.5,545C 1068.14,548.018 1038.8,551.184 1009.5,554.5C 1012.91,577.459 1015.74,600.459 1018,623.5C 1008.56,616.709 998.727,610.875 988.5,606C 1023.4,689.708 1030.9,775.875 1011,864.5C 980.57,983.546 912.404,1073.71 806.5,1135C 744.637,1168.57 678.637,1186.07 608.5,1187.5C 605.167,1187.5 601.833,1187.5 598.5,1187.5C 470.227,1183.11 364.393,1132.44 281,1035.5C 206.673,942.48 176.006,836.48 189,717.5C 193.605,679.247 203.438,642.413 218.5,607C 218.333,606.5 218.167,606 218,605.5C 208.8,612.389 199.466,618.389 190,623.5C 192.662,600.199 195.496,576.866 198.5,553.5C 168.373,551.545 138.373,548.712 108.5,545C 146.668,520.077 185.668,496.411 225.5,474C 279.286,444.106 335.953,421.439 395.5,406C 433.476,384.562 473.81,369.229 516.5,360C 519.317,357.362 521.65,354.362 523.5,351C 520.672,348.752 517.672,346.752 514.5,345C 510.87,341.238 508.703,336.738 508,331.5C 507.667,326.167 507.333,320.833 507,315.5C 506.282,316.451 505.449,316.617 504.5,316C 499.867,311.602 497.7,306.102 498,299.5C 496.004,299.004 494.337,298.004 493,296.5C 492.597,291.133 491.93,285.799 491,280.5C 479.672,287.24 467.839,288.24 455.5,283.5C 447.708,287.146 439.541,289.48 431,290.5C 425.97,290.881 421.803,289.214 418.5,285.5C 412.654,286.463 406.987,285.63 401.5,283C 384.361,281.653 367.361,279.32 350.5,276C 342.985,274.163 335.985,271.163 329.5,267C 325.843,264.007 323.177,260.34 321.5,256C 316.446,253.611 311.946,250.445 308,246.5C 306.441,244.783 305.608,242.783 305.5,240.5C 283.792,237.741 263.125,231.574 243.5,222C 241.167,220.333 238.833,218.667 236.5,217C 209.696,213.594 185.696,203.594 164.5,187C 158.828,181.661 153.495,175.995 148.5,170C 136.674,163.921 125.007,157.588 113.5,151C 109.5,146.667 105.5,142.333 101.5,138C 92.1667,133 82.8333,128 73.5,123C 69.534,118.033 65.2007,113.366 60.5,109C 50.7816,104.091 40.7816,99.7578 30.5,96C 16.0314,88.0408 5.69806,76.5408 -0.5,61.5C -0.5,57.1667 -0.5,52.8333 -0.5,48.5C 4.53734,46.073 9.87068,44.573 15.5,44C 27.1051,42.2997 38.7718,41.2997 50.5,41C 85.6682,40.5048 120.835,40.6714 156,41.5C 198.503,40.6562 241.003,39.6562 283.5,38.5C 318.038,38.3247 352.371,40.8247 386.5,46C 424.59,50.3164 453.257,68.8164 472.5,101.5C 482.703,104.181 491.203,109.515 498,117.5C 502.798,126.969 509.131,135.303 517,142.5C 517.573,138.152 518.24,133.819 519,129.5C 519.972,127.695 521.139,126.028 522.5,124.5C 517.83,119.824 515.33,114.158 515,107.5C 511.727,101.288 508.727,94.9544 506,88.5C 496.084,82.7926 486.251,76.9593 476.5,71C 471.906,67.2371 469.239,62.4038 468.5,56.5C 466.669,57.9294 464.669,58.4294 462.5,58C 449.611,45.7746 448.111,32.2746 458,17.5C 467.179,7.6624 478.346,1.6624 491.5,-0.5 Z"/></g>
<g><path style="opacity:1" fill="#171715" d="M 485.5,13.5 C 493.174,13.3336 500.841,13.5003 508.5,14C 512.368,15.0114 516.034,16.5114 519.5,18.5C 529.239,13.6898 539.239,13.1898 549.5,17C 563.543,23.4577 577.877,29.1244 592.5,34C 600.704,34.9817 608.704,34.4817 616.5,32.5C 615.748,36.2628 614.081,39.5961 611.5,42.5C 617.501,44.2687 623.501,46.102 629.5,48C 632.707,48.5717 634.374,50.405 634.5,53.5C 630.172,53.0366 626.172,53.8699 622.5,56C 629.119,58.6612 635.786,61.3279 642.5,64C 644.037,65.1096 644.703,66.6096 644.5,68.5C 639.539,67.6866 635.206,68.8533 631.5,72C 639.75,74.8608 648.083,77.5275 656.5,80C 664.667,84.1667 670.833,90.3333 675,98.5C 675.667,100.167 675.667,101.833 675,103.5C 671.871,104.13 668.704,104.796 665.5,105.5C 670.824,109.991 675.657,114.991 680,120.5C 682.785,124.238 684.618,128.404 685.5,133C 684.489,137.237 682.489,137.571 679.5,134C 677.421,133.192 675.421,133.359 673.5,134.5C 677.387,138.042 681.22,141.709 685,145.5C 687.955,149.244 690.789,153.078 693.5,157C 702.246,157.439 709.746,154.606 716,148.5C 719.452,128.707 730.619,115.207 749.5,108C 756.712,96.1243 765.379,85.4577 775.5,76C 780.269,72.8973 785.269,70.2306 790.5,68C 803.33,63.5409 816.33,59.5409 829.5,56C 852.719,53.0871 876.053,51.7538 899.5,52C 991.507,51.816 1083.51,51.316 1175.5,50.5C 1183.73,48.951 1185.9,51.6177 1182,58.5C 1170.29,71.7792 1155.79,80.6125 1138.5,85C 1132.53,91.9692 1126.2,98.6359 1119.5,105C 1115.61,108.111 1111.28,110.444 1106.5,112C 1095.09,130.067 1079.43,143.067 1059.5,151C 1044.86,169.157 1026.53,182.157 1004.5,190C 993.32,193.616 981.986,196.616 970.5,199C 963.743,208.409 954.743,214.742 943.5,218C 932.754,221.219 921.754,222.885 910.5,223C 905.38,227.645 899.547,231.145 893,233.5C 891.399,238.767 888.065,242.433 883,244.5C 882.443,256.394 876.277,261.894 864.5,261C 862.726,263.44 860.392,265.106 857.5,266C 852.134,266.736 846.8,266.569 841.5,265.5C 832.556,269.813 823.889,269.48 815.5,264.5C 810.98,269.692 805.313,272.692 798.5,273.5C 796.625,273.37 794.792,273.037 793,272.5C 785.768,278.111 777.601,279.945 768.5,278C 765.048,276.209 761.882,274.042 759,271.5C 750.317,281.646 740.65,282.979 730,275.5C 728.441,276.029 726.941,276.696 725.5,277.5C 724.887,282.786 723.887,287.953 722.5,293C 719.735,292.28 717.401,290.613 715.5,288C 714.241,287.018 712.908,286.685 711.5,287C 715.793,291.738 717.627,297.238 717,303.5C 715.467,309.265 713.634,314.932 711.5,320.5C 710.635,321.583 709.635,321.749 708.5,321C 707,319.5 705.5,318 704,316.5C 703.277,326.995 700.777,336.995 696.5,346.5C 695.277,347.614 693.944,347.781 692.5,347C 691.736,344.931 691.236,342.764 691,340.5C 690.586,340.043 690.086,339.709 689.5,339.5C 687.494,343.513 684.994,347.18 682,350.5C 682.088,355.848 684.255,360.348 688.5,364C 698.957,370.065 709.957,374.732 721.5,378C 727.469,382.967 733.135,388.301 738.5,394C 754.341,399.921 769.674,406.921 784.5,415C 800.397,415.71 816.063,418.376 831.5,423C 876.19,436.51 919.19,454.177 960.5,476C 996.159,495.156 1030.83,515.823 1064.5,538C 1041.51,540.333 1018.51,542.499 995.5,544.5C 997.914,563.469 999.747,582.469 1001,601.5C 982.58,588.127 963.746,576.127 944.5,565.5C 1005.88,671.981 1017.05,783.647 978,900.5C 944.213,992.938 885.046,1064.1 800.5,1114C 703.912,1167.21 602.245,1179.88 495.5,1152C 377.837,1115.99 292.67,1042.49 240,931.5C 187.293,805 194.626,682.333 262,563.5C 242.698,575.97 223.531,588.637 204.5,601.5C 204.167,600.833 203.833,600.167 203.5,599.5C 206.872,580.969 209.206,562.302 210.5,543.5C 187.729,542.659 165.063,540.826 142.5,538C 202.63,497.261 266.63,463.261 334.5,436C 358.275,426.963 382.609,419.963 407.5,415C 411.558,414.233 415.558,414.4 419.5,415.5C 437.219,406.206 455.552,398.372 474.5,392C 480.665,387.75 486.998,383.75 493.5,380C 504.257,378.395 514.59,375.395 524.5,371C 531.243,364.846 536.243,357.513 539.5,349C 536.835,345.483 534.835,341.65 533.5,337.5C 532.147,339.183 530.48,340.516 528.5,341.5C 527.108,340.395 525.941,339.061 525,337.5C 522.872,327.283 522.039,316.95 522.5,306.5C 519.052,308.406 516.219,307.739 514,304.5C 513.175,297.898 513.675,291.398 515.5,285C 515.167,284.167 514.833,283.333 514.5,282.5C 512.255,284.623 509.588,285.623 506.5,285.5C 506.795,278.617 508.129,271.95 510.5,265.5C 504.824,265.666 499.157,265.499 493.5,265C 492.892,264.13 492.059,263.63 491,263.5C 485.334,269.081 478.501,272.081 470.5,272.5C 464.314,272.166 459.814,269.166 457,263.5C 452.007,271.164 445.007,275.831 436,277.5C 434.112,277.204 432.278,276.704 430.5,276C 429.215,273.577 427.382,271.744 425,270.5C 416.502,273.53 408.336,272.864 400.5,268.5C 392.041,271.74 384.041,270.907 376.5,266C 371.5,265.667 366.5,265.333 361.5,265C 359.833,264 358.167,263 356.5,262C 348.61,262.262 342.11,259.429 337,253.5C 336.178,251.212 335.511,248.878 335,246.5C 328.82,244.646 323.487,241.313 319,236.5C 318.426,233.681 317.093,231.348 315,229.5C 309.617,228.261 304.45,226.428 299.5,224C 283.059,222.913 267.392,218.913 252.5,212C 248.656,209.578 244.99,206.911 241.5,204C 213.474,200.984 188.807,190.318 167.5,172C 163.833,167.667 160.167,163.333 156.5,159C 137.471,152.288 121.471,141.288 108.5,126C 96.8547,122.097 86.3547,116.264 77,108.5C 73.7809,104.948 70.9476,101.115 68.5,97C 47.6927,92.8513 30.526,82.6846 17,66.5C 13.9584,63.1033 13.2917,59.4367 15,55.5C 16.0617,56.0968 17.2284,56.4302 18.5,56.5C 112.833,55.4904 207.167,54.6571 301.5,54C 332.309,55.3464 362.976,58.013 393.5,62C 416.081,66.3721 435.248,76.8721 451,93.5C 455.041,100.417 459.208,107.25 463.5,114C 474.158,115.577 482.991,120.411 490,128.5C 496.014,138.85 503.18,148.35 511.5,157C 515.362,159.93 519.695,161.764 524.5,162.5C 535.608,159.898 543.608,153.398 548.5,143C 547.892,142.13 547.059,141.63 546,141.5C 541.26,143.095 536.76,142.595 532.5,140C 531.424,138.274 531.257,136.441 532,134.5C 539.742,129.927 544.575,123.261 546.5,114.5C 540.766,114.418 535.099,113.752 529.5,112.5C 529.069,111.707 528.735,110.873 528.5,110C 532.26,106.31 534.26,101.81 534.5,96.5C 530.296,98.1357 525.963,98.969 521.5,99C 521.24,90.8154 518.24,83.8154 512.5,78C 501.673,74.6738 492.173,69.1738 484,61.5C 481.741,56.4386 480.908,51.1052 481.5,45.5C 485.326,45.7967 488.326,47.6301 490.5,51C 496.22,54.4169 501.72,54.2503 507,50.5C 507.817,47.0357 507.483,43.7024 506,40.5C 499.684,35.4625 492.517,33.6292 484.5,35C 478.007,36.7193 471.84,39.2193 466,42.5C 464.46,40.0454 464.126,37.3787 465,34.5C 469.355,24.9795 476.188,17.9795 485.5,13.5 Z"/></g>
<g><path style="opacity:1" fill="#fbd131" d="M 519.5,298.5 C 518.532,296.393 518.198,294.059 518.5,291.5C 519.246,285.426 520.913,279.592 523.5,274C 519.825,270.651 516.325,271.151 513,275.5C 514.773,265.035 519.939,256.535 528.5,250C 534.728,246.941 541.061,244.108 547.5,241.5C 545.303,239.482 542.636,238.315 539.5,238C 537.676,228.133 540.009,219.3 546.5,211.5C 545.829,210.054 544.662,209.388 543,209.5C 539.695,210.39 536.528,211.223 533.5,212C 535.95,207.216 539.45,203.383 544,200.5C 544.49,199.207 544.657,197.873 544.5,196.5C 538.748,196.963 534.248,199.629 531,204.5C 527.063,210.319 524.729,216.653 524,223.5C 524.804,224.804 525.971,225.471 527.5,225.5C 530.129,223.652 532.796,222.152 535.5,221C 533.095,227.58 531.595,234.413 531,241.5C 524.242,245.262 518.409,250.095 513.5,256C 507.473,259.035 501.14,260.035 494.5,259C 492.44,257.304 490.107,256.137 487.5,255.5C 484.073,258.139 480.74,260.973 477.5,264C 468.11,267.47 461.444,264.637 457.5,255.5C 455.647,254.24 453.814,254.24 452,255.5C 449.348,267.07 442.181,272.07 430.5,270.5C 429.585,269.672 428.919,268.672 428.5,267.5C 433.799,264.206 437.133,259.54 438.5,253.5C 437.127,253.343 435.793,253.51 434.5,254C 427.913,261.971 419.58,266.304 409.5,267C 408.09,266.632 407.09,265.799 406.5,264.5C 409.151,262.35 411.651,260.017 414,257.5C 414.986,255.075 414.319,253.409 412,252.5C 408.27,254.224 405.103,256.724 402.5,260C 397.104,264.072 391.104,265.406 384.5,264C 383.328,263.581 382.328,262.915 381.5,262C 385.816,258.528 389.149,254.362 391.5,249.5C 390.904,246.754 389.237,245.92 386.5,247C 381.616,257.109 373.616,261.442 362.5,260C 361.549,259.282 361.383,258.449 362,257.5C 366.171,254.094 368.338,249.927 368.5,245C 367.056,244.219 365.723,244.386 364.5,245.5C 362.358,249.475 359.358,252.642 355.5,255C 347.649,257.138 341.815,254.638 338,247.5C 337.982,245.203 338.149,242.869 338.5,240.5C 332.048,240.903 326.715,238.736 322.5,234C 337.098,234.549 351.431,232.549 365.5,228C 373.838,224.497 382.172,220.997 390.5,217.5C 395.838,218.072 401.171,218.739 406.5,219.5C 410.946,227.294 417.613,231.294 426.5,231.5C 428.101,238.61 432.435,243.444 439.5,246C 451.451,248.471 462.284,245.971 472,238.5C 474.954,240.393 478.121,241.893 481.5,243C 487.5,243.667 493.5,243.667 499.5,243C 504.409,242.212 508.409,239.879 511.5,236C 513.834,235.661 516.168,235.828 518.5,236.5C 520.577,236.308 522.577,235.808 524.5,235C 525.337,233.989 525.67,232.822 525.5,231.5C 520.692,231.781 516.026,231.114 511.5,229.5C 507.596,232.888 503.263,235.721 498.5,238C 492.747,238.851 487.08,238.517 481.5,237C 478.462,235.151 475.462,233.318 472.5,231.5C 466.878,235.265 460.878,238.432 454.5,241C 445.2,243.017 437.866,240.184 432.5,232.5C 439.445,230.963 446.112,228.629 452.5,225.5C 454.27,224.18 454.603,222.68 453.5,221C 451.5,220.333 449.5,220.333 447.5,221C 437.635,226.504 427.635,226.837 417.5,222C 415.415,220.959 413.748,219.459 412.5,217.5C 419.962,216.068 427.128,213.735 434,210.5C 434.617,209.551 434.451,208.718 433.5,208C 429.719,206.184 426.053,206.517 422.5,209C 414.965,209.574 407.465,210.408 400,211.5C 394.411,211.915 389.577,210.248 385.5,206.5C 399.078,204.417 412.412,201.251 425.5,197C 428.699,195.321 429.033,193.321 426.5,191C 417.559,193.153 408.559,195.486 399.5,198C 389.203,199.433 378.869,199.767 368.5,199C 362.847,197.177 357.847,194.344 353.5,190.5C 374.426,189.269 394.426,184.269 413.5,175.5C 418.562,177.932 423.895,179.432 429.5,180C 435.523,191.523 445.19,197.19 458.5,197C 463.96,207.73 472.626,212.063 484.5,210C 490.035,209.21 495.369,207.71 500.5,205.5C 502.898,206.389 504.898,207.889 506.5,210C 511.263,213.649 515.596,213.315 519.5,209C 518.833,208.333 518.167,207.667 517.5,207C 514.833,206.667 512.167,206.333 509.5,206C 507.301,202.807 504.801,199.974 502,197.5C 496.756,200.374 491.256,202.541 485.5,204C 476.803,205.919 469.803,203.419 464.5,196.5C 469.799,194.175 475.132,191.841 480.5,189.5C 483.262,185.077 481.929,183.577 476.5,185C 470.536,188.657 464.202,191.157 457.5,192.5C 451.047,191.626 445.047,189.46 439.5,186C 437.393,184.736 436.393,182.903 436.5,180.5C 446.302,180.425 455.469,178.091 464,173.5C 464.684,172.216 464.517,171.049 463.5,170C 461.833,169.333 460.167,169.333 458.5,170C 448.209,174.125 437.542,175.792 426.5,175C 419.78,173.31 414.446,169.643 410.5,164C 422.769,163.69 434.769,161.69 446.5,158C 447.38,156.644 447.714,155.144 447.5,153.5C 437.499,155.905 427.333,157.238 417,157.5C 408.868,158.12 401.368,156.287 394.5,152C 402.967,150.534 411.3,148.534 419.5,146C 423.447,144.206 426.781,141.706 429.5,138.5C 428.5,138.167 427.5,137.833 426.5,137.5C 419.282,140.272 411.949,142.772 404.5,145C 397.392,145.924 390.392,145.591 383.5,144C 381.606,142.899 380.939,141.566 381.5,140C 389.847,137.442 397.847,134.108 405.5,130C 413.92,124.46 412.92,122.46 402.5,124C 391.521,131.105 379.521,134.772 366.5,135C 364.392,134.64 362.392,133.973 360.5,133C 359.289,132.107 359.289,131.274 360.5,130.5C 370.421,125.961 379.587,120.294 388,113.5C 388.617,112.551 388.451,111.718 387.5,111C 386.167,110.333 384.833,110.333 383.5,111C 371.963,120.18 358.796,125.347 344,126.5C 337.969,126.317 332.969,123.984 329,119.5C 328.312,118.668 328.479,118.002 329.5,117.5C 342.253,113.207 354.086,107.207 365,99.5C 365.49,98.2068 365.657,96.8734 365.5,95.5C 364.127,95.3433 362.793,95.51 361.5,96C 343.804,108.678 324.137,114.678 302.5,114C 299.5,113 296.5,112 293.5,111C 292.289,110.107 292.289,109.274 293.5,108.5C 306.055,105.056 318.055,100.223 329.5,94C 330.517,92.9505 330.684,91.7839 330,90.5C 328.274,89.4238 326.441,89.2571 324.5,90C 308.151,99.8973 290.484,104.897 271.5,105C 262.613,103.778 255.447,99.6112 250,92.5C 248.89,90.6031 248.724,88.7698 249.5,87C 255.383,85.1566 261.383,83.8232 267.5,83C 268.38,81.6439 268.714,80.1439 268.5,78.5C 253.117,81.3536 237.784,84.5203 222.5,88C 207.554,90.0266 192.554,90.6933 177.5,90C 158.243,87.2302 144.576,77.0636 136.5,59.5C 216.26,54.6571 295.927,55.8238 375.5,63C 405.492,64.9139 430.326,77.0805 450,99.5C 453.836,105.008 457.003,110.841 459.5,117C 470.357,119.265 479.691,124.432 487.5,132.5C 493.02,142.207 499.52,151.207 507,159.5C 522.082,170.067 535.749,168.4 548,154.5C 550.84,150.32 553.007,145.82 554.5,141C 560.196,139.07 565.363,136.236 570,132.5C 570.449,135.094 569.449,137.094 567,138.5C 566.018,139.759 565.685,141.092 566,142.5C 579.736,144.383 590.236,139.383 597.5,127.5C 598.881,128 599.547,129 599.5,130.5C 598.698,133.449 598.364,136.449 598.5,139.5C 604.707,139.141 609.207,136.141 612,130.5C 613.14,127.581 613.973,124.581 614.5,121.5C 614.172,116.943 612.339,115.943 609,118.5C 608.916,122.435 607.916,126.102 606,129.5C 604.519,126.044 602.852,122.711 601,119.5C 599.067,116.615 596.567,115.948 593.5,117.5C 592.577,127.086 587.577,133.419 578.5,136.5C 577.804,132.53 577.637,128.53 578,124.5C 577.266,122.264 575.766,120.931 573.5,120.5C 569.368,124.46 565.034,128.293 560.5,132C 554.232,135.387 547.565,136.72 540.5,136C 548.87,129.097 552.703,120.264 552,109.5C 551.653,107.82 550.653,106.82 549,106.5C 545.698,108.139 542.198,108.806 538.5,108.5C 539.813,104.443 540.813,100.277 541.5,96C 541.466,92.5074 539.966,90.0074 537,88.5C 534,89.8333 531,91.1667 528,92.5C 527.5,92.1667 527,91.8333 526.5,91.5C 525.753,83.0847 522.086,76.2514 515.5,71C 509.046,68.273 502.712,65.273 496.5,62C 493.355,60.0218 490.688,57.5218 488.5,54.5C 489,54.1667 489.5,53.8333 490,53.5C 493.75,55.431 497.583,57.0976 501.5,58.5C 509.443,57.3092 513.11,52.6426 512.5,44.5C 510.932,37.8809 506.932,33.3809 500.5,31C 490.951,27.6744 481.618,28.1744 472.5,32.5C 471.337,30.4503 471.504,28.4503 473,26.5C 485.112,14.398 498.945,12.2314 514.5,20C 516.34,22.8263 517.006,25.9929 516.5,29.5C 518.144,29.7135 519.644,29.3802 521,28.5C 521.045,25.666 521.879,23.166 523.5,21C 529.749,19.4638 536.083,19.1304 542.5,20C 558.524,27.1805 574.857,33.5138 591.5,39C 594.5,39.3333 597.5,39.6667 600.5,40C 598.431,41.5234 596.097,42.3568 593.5,42.5C 593.227,44.451 593.893,45.951 595.5,47C 600.5,47.3333 605.5,47.6667 610.5,48C 613.272,48.5257 615.938,49.3591 618.5,50.5C 614.018,53.497 611.018,57.497 609.5,62.5C 615.711,62.0161 621.711,62.8494 627.5,65C 627.833,65.3333 628.167,65.6667 628.5,66C 624.328,69.1799 623.662,72.8465 626.5,77C 635.879,79.3812 645.212,82.0479 654.5,85C 659.937,88.268 664.603,92.4347 668.5,97.5C 664.977,98.1418 661.644,99.3084 658.5,101C 655.9,103.459 655.9,105.959 658.5,108.5C 666.849,112.484 673.182,118.484 677.5,126.5C 673.541,127.327 669.541,127.827 665.5,128C 662.137,129.901 661.637,132.401 664,135.5C 672.876,139.875 680.043,146.208 685.5,154.5C 680.233,156.104 674.9,157.604 669.5,159C 668.167,160.667 668.167,162.333 669.5,164C 676.376,167.87 682.376,172.87 687.5,179C 683.459,179.173 679.459,179.673 675.5,180.5C 676.098,181.795 676.598,183.128 677,184.5C 685.749,192.083 693.249,200.749 699.5,210.5C 695.266,210.818 690.933,210.818 686.5,210.5C 688.025,214.556 689.859,218.556 692,222.5C 693.267,227.435 694.1,232.435 694.5,237.5C 690.837,236.888 687.17,236.721 683.5,237C 682.663,238.011 682.33,239.178 682.5,240.5C 700.471,240.644 711.971,249.31 717,266.5C 718.798,271.689 719.631,277.022 719.5,282.5C 714.951,281.237 710.284,280.57 705.5,280.5C 705.34,282.199 705.506,283.866 706,285.5C 712.985,293.627 714.318,302.627 710,312.5C 700.402,304.899 692.069,306.232 685,316.5C 681.531,311.509 676.697,308.676 670.5,308C 664.184,306.574 659.017,308.407 655,313.5C 653.237,316.702 651.237,319.702 649,322.5C 646.323,320.326 643.323,318.66 640,317.5C 639.127,317.735 638.293,318.069 637.5,318.5C 636.833,320.167 636.167,321.833 635.5,323.5C 634.808,322.975 634.308,322.308 634,321.5C 633.333,314.167 633.333,306.833 634,299.5C 635.798,295.578 637.298,291.578 638.5,287.5C 635.956,287.104 633.789,287.771 632,289.5C 626.343,300.625 625.01,312.291 628,324.5C 629.463,329.112 632.13,332.779 636,335.5C 636.772,335.355 637.439,335.022 638,334.5C 638.863,331.041 640.03,327.707 641.5,324.5C 643.981,327.32 646.981,329.32 650.5,330.5C 652.353,329.811 653.519,328.478 654,326.5C 657.133,336.202 657.133,345.868 654,355.5C 646.743,360.879 639.577,366.379 632.5,372C 630.084,373.063 627.584,373.896 625,374.5C 622.46,372.141 619.627,370.141 616.5,368.5C 612.833,371.833 609.167,375.167 605.5,378.5C 602.5,374.833 599.167,371.5 595.5,368.5C 592.319,370.592 589.319,372.925 586.5,375.5C 583.399,373.902 580.732,371.735 578.5,369C 573.246,366.751 567.913,364.751 562.5,363C 559.925,360.786 558.592,357.953 558.5,354.5C 560.174,346.46 561.841,338.46 563.5,330.5C 565.924,330.808 568.257,330.474 570.5,329.5C 572.274,326.285 573.774,322.952 575,319.5C 580.263,324.413 583.263,330.413 584,337.5C 585.813,341.067 588.313,341.901 591.5,340C 600.654,334.231 604.654,325.898 603.5,315C 603.65,307.802 602.15,300.968 599,294.5C 597.213,292.042 594.879,290.376 592,289.5C 590.5,289.667 589.667,290.5 589.5,292C 597.56,302.973 599.727,315.14 596,328.5C 594.595,330.651 592.761,332.318 590.5,333.5C 589.914,333.291 589.414,332.957 589,332.5C 587.853,325.039 584.687,318.539 579.5,313C 576.46,310.969 573.293,310.469 570,311.5C 569.182,315.284 568.182,318.95 567,322.5C 563.154,315.152 557.321,310.152 549.5,307.5C 544.234,308.626 540.234,311.459 537.5,316C 535.613,316.163 534.113,315.329 533,313.5C 530.872,308.025 529.705,302.358 529.5,296.5C 525.915,296.152 522.582,296.819 519.5,298.5 Z"/></g>
<g><path style="opacity:1" fill="#191813" d="M 525.5,34.5 C 530.519,34.7522 535.519,35.2522 540.5,36C 548.059,39.2277 555.392,42.8944 562.5,47C 567.066,48.3092 571.733,48.8092 576.5,48.5C 576.509,52.3433 574.509,54.01 570.5,53.5C 566.128,53.0924 561.795,52.4258 557.5,51.5C 550.525,53.3641 543.858,52.6974 537.5,49.5C 535.349,47.2277 533.849,44.561 533,41.5C 531.078,38.9108 528.911,38.4108 526.5,40C 530.279,43.7243 532.279,48.2243 532.5,53.5C 531.178,53.67 530.011,53.3366 529,52.5C 526.178,48.3543 524.011,43.8543 522.5,39C 523.008,37.1074 524.008,35.6074 525.5,34.5 Z"/></g>
<g><path style="opacity:1" fill="#dbb72d" d="M 537.5,40.5 C 539.25,41.7417 540.917,43.2417 542.5,45C 545.553,45.1786 548.553,45.6786 551.5,46.5C 551.291,47.086 550.957,47.586 550.5,48C 543.308,50.0793 538.974,47.5793 537.5,40.5 Z"/></g>
<g><path style="opacity:1" fill="#fbd131" d="M 818.5,134.5 C 820.833,135.167 823.167,135.833 825.5,136.5C 815.518,143.589 804.518,145.422 792.5,142C 788.985,139.217 784.985,137.717 780.5,137.5C 780.343,138.873 780.51,140.207 781,141.5C 790.046,147.972 800.212,150.806 811.5,150C 801.421,158.685 789.754,161.685 776.5,159C 772.744,156.457 770.911,157.29 771,161.5C 772.648,162.717 774.481,163.55 776.5,164C 783.565,165.403 790.565,165.903 797.5,165.5C 792.434,174.623 784.601,179.29 774,179.5C 766.219,179.128 758.886,177.128 752,173.5C 747.654,174.719 747.487,176.553 751.5,179C 757.764,182.477 764.431,184.644 771.5,185.5C 771.451,188.099 770.451,190.266 768.5,192C 758.932,198.627 750.266,197.627 742.5,189C 740.051,188.225 738.384,189.058 737.5,191.5C 741.957,202.408 738.29,207.241 726.5,206C 724.095,204.004 721.595,202.17 719,200.5C 718.5,201.5 718,202.5 717.5,203.5C 721.965,212.576 728.965,215.076 738.5,211C 741.396,207.36 743.896,203.527 746,199.5C 751.396,201.223 756.896,201.723 762.5,201C 767.843,198.98 772.676,196.147 777,192.5C 789.056,204.274 803.556,210.107 820.5,210C 808.903,217.138 796.57,218.471 783.5,214C 779.612,211.271 775.612,208.771 771.5,206.5C 769.876,207.869 769.376,209.536 770,211.5C 777.068,217.617 785.235,221.45 794.5,223C 782.676,229.811 771.676,228.811 761.5,220C 759.044,219.054 757.044,219.554 755.5,221.5C 756.711,223.422 758.044,225.255 759.5,227C 763.815,229.773 768.482,231.773 773.5,233C 768.061,239.702 761.061,242.035 752.5,240C 747.222,237.449 742.389,234.282 738,230.5C 735.449,235.085 732.283,239.251 728.5,243C 724.218,243.449 720.385,242.283 717,239.5C 714.003,241.478 713.836,243.645 716.5,246C 726.055,251.374 733.555,249.208 739,239.5C 741.99,242.491 745.49,244.657 749.5,246C 762.752,249.118 772.919,244.951 780,233.5C 789.447,232.909 797.614,229.409 804.5,223C 812.278,220.529 819.778,217.362 827,213.5C 842.872,230.238 862.372,237.738 885.5,236C 884.833,236.667 884.167,237.333 883.5,238C 880.574,238.218 877.74,238.718 875,239.5C 874.833,240.167 874.667,240.833 874.5,241.5C 879.04,244.87 879.373,248.537 875.5,252.5C 867.015,256.018 860.515,253.685 856,245.5C 855.061,242.879 854.228,240.212 853.5,237.5C 851.929,236.691 850.262,236.357 848.5,236.5C 848.831,245.028 852.498,251.862 859.5,257C 854.435,261.063 849.102,261.397 843.5,258C 838.601,253.935 835.601,248.768 834.5,242.5C 832.62,238.502 830.953,238.668 829.5,243C 830.605,249.04 832.938,254.54 836.5,259.5C 831.714,264.234 826.38,264.734 820.5,261C 815.715,256.931 812.881,251.764 812,245.5C 810.416,244.139 808.582,243.472 806.5,243.5C 807.522,248.735 808.855,253.901 810.5,259C 807.673,266.414 802.34,269.08 794.5,267C 788.59,265.421 785.09,261.588 784,255.5C 781.149,252.356 779.316,252.856 778.5,257C 780.193,261.555 782.526,265.722 785.5,269.5C 785.023,270.478 784.357,271.311 783.5,272C 779.167,272.667 774.833,272.667 770.5,272C 765.886,269.61 763.719,265.777 764,260.5C 762.747,256.956 760.913,256.623 758.5,259.5C 755.693,270.481 748.693,275.315 737.5,274C 736.257,272.846 735.257,271.512 734.5,270C 733.667,269.833 732.833,269.667 732,269.5C 729.269,270.617 726.435,271.283 723.5,271.5C 720.932,257.852 713.599,247.686 701.5,241C 699.548,233.016 697.381,225.183 695,217.5C 698.136,219.996 701.636,221.163 705.5,221C 707.396,219.192 707.896,217.025 707,214.5C 702.054,204.222 695.554,195.056 687.5,187C 690.652,188.186 693.985,188.519 697.5,188C 698.554,186.612 698.72,185.112 698,183.5C 692.516,176.018 686.349,169.185 679.5,163C 686.694,161.718 694.027,160.718 701.5,160C 707.915,158.876 713.415,156.043 718,151.5C 722.837,131.161 735.003,117.161 754.5,109.5C 766.693,86.3701 785.693,71.8701 811.5,66C 836.676,57.8647 862.509,54.3647 889,55.5C 943.335,56.809 997.668,56.809 1052,55.5C 1055.5,55.8333 1059,56.1667 1062.5,56.5C 1056.63,63.4359 1049.63,68.9359 1041.5,73C 1007.8,85.5809 974.137,85.5809 940.5,73C 936.103,71.8938 934.77,73.3938 936.5,77.5C 944.188,81.089 952.188,83.7557 960.5,85.5C 949.937,99.8556 935.937,105.022 918.5,101C 907.767,97.8802 898.1,92.8802 889.5,86C 884.302,85.4081 883.302,87.2414 886.5,91.5C 896.246,97.372 906.246,102.705 916.5,107.5C 914.172,110.335 911.172,112.169 907.5,113C 889.691,114.268 873.691,109.435 859.5,98.5C 856.85,99.4571 856.183,101.124 857.5,103.5C 863.907,107.033 870.241,110.533 876.5,114C 877.833,115 877.833,116 876.5,117C 863.445,121.852 850.445,121.519 837.5,116C 832.637,113.737 827.971,111.237 823.5,108.5C 821.833,108.833 820.833,109.833 820.5,111.5C 828.821,117.825 838.154,122.325 848.5,125C 831.946,131.868 815.946,130.701 800.5,121.5C 797.208,122.891 796.875,124.724 799.5,127C 805.685,130.1 812.018,132.6 818.5,134.5 Z"/></g>
<g><path style="opacity:1" fill="#fcd131" d="M 1174.5,54.5 C 1176.03,54.5173 1176.53,55.184 1176,56.5C 1162.27,70.949 1145.44,79.449 1125.5,82C 1103.53,85.9327 1081.53,86.266 1059.5,83C 1054.92,82.2894 1050.59,80.956 1046.5,79C 1055.78,73.0559 1063.78,65.7226 1070.5,57C 1103.83,57.4073 1137.16,57.4073 1170.5,57C 1172.07,56.3918 1173.4,55.5585 1174.5,54.5 Z"/></g>
<g><path style="opacity:1" fill="#fad031" d="M 118.5,58.5 C 121.85,58.335 125.183,58.5017 128.5,59C 132.942,66.4397 137.775,73.6064 143,80.5C 147.738,85.0736 152.905,89.0736 158.5,92.5C 151.061,94.9651 143.395,96.1318 135.5,96C 109.349,98.3749 83.6823,96.0415 58.5,89C 42.723,84.2001 30.0563,75.2001 20.5,62C 26.6622,60.708 32.9956,60.0414 39.5,60C 66.0032,59.8322 92.3365,59.3322 118.5,58.5 Z"/></g>
<g><path style="opacity:1" fill="#fbd131" d="M 1039.5,83.5 C 1060.83,88.7615 1082.5,91.2615 1104.5,91C 1111.7,88.5568 1119.04,88.0568 1126.5,89.5C 1121.94,95.2289 1116.61,100.062 1110.5,104C 1093.89,112.647 1076.22,117.647 1057.5,119C 1044.5,119.667 1031.5,119.667 1018.5,119C 1010.54,118.094 1002.88,116.094 995.5,113C 1006.28,108.11 1016.62,102.443 1026.5,96C 1031.34,92.3305 1035.67,88.1638 1039.5,83.5 Z"/></g>
<g><path style="opacity:1" fill="#f9cf31" d="M 1024.5,84.5 C 1025.98,84.238 1027.31,84.5713 1028.5,85.5C 1002.4,108.476 972.398,115.976 938.5,108C 944.632,105.73 950.632,103.063 956.5,100C 960.868,95.967 964.868,91.6337 968.5,87C 982.42,88.4554 996.42,88.7888 1010.5,88C 1015.3,86.8011 1019.96,85.6345 1024.5,84.5 Z"/></g>
<g><path style="opacity:1" fill="#f8ce31" d="M 235.5,90.5 C 237.857,90.3367 240.19,90.5034 242.5,91C 246.89,99.7235 253.557,106.057 262.5,110C 242.021,114.48 221.354,115.48 200.5,113C 188.885,110.691 179.218,105.025 171.5,96C 184.167,95.6667 196.833,95.3333 209.5,95C 218.426,94.1814 227.093,92.6814 235.5,90.5 Z"/></g>
<g><path style="opacity:1" fill="#fad031" d="M 161.5,97.5 C 162.873,97.3433 164.207,97.51 165.5,98C 171.317,105.153 178.317,110.819 186.5,115C 193.336,116.417 200.003,118.417 206.5,121C 199.684,123.165 192.684,124.499 185.5,125C 166.821,126.729 148.154,126.729 129.5,125C 114.965,122.901 101.299,118.234 88.5,111C 84.3525,108.02 80.6859,104.52 77.5,100.5C 78.5,100.167 79.5,99.8333 80.5,99.5C 104.81,103.234 129.143,103.4 153.5,100C 156.31,99.2177 158.977,98.3844 161.5,97.5 Z"/></g>
<g><path style="opacity:1" fill="#1d1b13" d="M 634.5,106.5 C 640.269,107.426 644.103,110.759 646,116.5C 646.897,129.242 643.063,130.742 634.5,121C 630.901,119.986 627.235,119.153 623.5,118.5C 622.289,117.28 622.289,116.113 623.5,115C 625.167,114.833 626.833,114.667 628.5,114.5C 632.661,114.917 636.661,115.917 640.5,117.5C 638.5,113.833 636.5,110.167 634.5,106.5 Z"/></g>
<g><path style="opacity:1" fill="#fad031" d="M 923.5,110.5 C 943.552,116.465 963.885,117.965 984.5,115C 970.962,131.107 953.629,140.44 932.5,143C 920.167,143.667 907.833,143.667 895.5,143C 887.289,139.731 878.955,136.731 870.5,134C 856.897,128.018 857.897,125.018 873.5,125C 877.761,122.953 881.928,120.787 886,118.5C 897.223,120.666 908.057,119.499 918.5,115C 920.618,113.951 922.284,112.451 923.5,110.5 Z"/></g>
<g><path style="opacity:1" fill="#f9cf31" d="M 280.5,112.5 C 283.599,112.092 285.933,113.259 287.5,116C 297.694,121.578 308.36,122.745 319.5,119.5C 324.237,125.378 330.237,129.545 337.5,132C 296.487,145.213 257.153,141.547 219.5,121C 240.209,119.878 260.542,117.045 280.5,112.5 Z"/></g>
<g><path style="opacity:1" fill="#fbd031" d="M 1092.5,117.5 C 1094.35,117.272 1095.19,117.939 1095,119.5C 1089.05,126.458 1082.22,132.291 1074.5,137C 1024.55,163.827 971.887,171.16 916.5,159C 920.548,155.284 924.882,151.95 929.5,149C 948.046,147.97 964.712,141.97 979.5,131C 983.735,126.596 988.068,122.429 992.5,118.5C 1018.44,126.046 1044.77,127.546 1071.5,123C 1078.82,121.921 1085.82,120.088 1092.5,117.5 Z"/></g>
<g><path style="opacity:1" fill="#fbd131" d="M 206.5,126.5 C 209.518,126.335 212.518,126.502 215.5,127C 234.518,136.228 254.518,142.228 275.5,145C 279.663,150.991 284.329,156.491 289.5,161.5C 285.304,163.133 280.971,164.299 276.5,165C 267.124,165.184 257.791,165.85 248.5,167C 216.547,170.488 185.881,165.822 156.5,153C 141.902,148.375 129.236,140.708 118.5,130C 135.437,131.437 152.437,131.77 169.5,131C 182.196,131.259 194.53,129.759 206.5,126.5 Z"/></g>
<g><path style="opacity:1" fill="#f9cf31" d="M 850.5,131.5 C 852.199,131.34 853.866,131.506 855.5,132C 859.569,135.063 863.902,137.73 868.5,140C 878.241,143.136 887.908,146.469 897.5,150C 903.528,150.17 909.528,150.67 915.5,151.5C 908.416,158.876 899.75,163.376 889.5,165C 868.152,168.33 848.486,163.997 830.5,152C 828.534,150.54 826.868,148.873 825.5,147C 828.282,143.701 830.949,140.201 833.5,136.5C 839.514,135.585 845.18,133.918 850.5,131.5 Z"/></g>
<g><path style="opacity:1" fill="#fad031" d="M 349.5,134.5 C 350.873,134.343 352.207,134.51 353.5,135C 359.408,140.36 366.408,142.86 374.5,142.5C 377.543,146.544 381.209,149.877 385.5,152.5C 385.032,154.134 384.032,155.3 382.5,156C 358.598,163.364 334.264,165.698 309.5,163C 304.053,161.305 298.72,159.305 293.5,157C 289.377,154.254 286.043,150.754 283.5,146.5C 306.227,145.685 328.227,141.685 349.5,134.5 Z"/></g>
<g><path style="opacity:1" fill="#826e21" d="M 818.5,134.5 C 821.247,134.187 823.914,134.52 826.5,135.5C 826.376,136.107 826.043,136.44 825.5,136.5C 823.167,135.833 820.833,135.167 818.5,134.5 Z"/></g>
<g><path style="opacity:1" fill="#1a1813" d="M 643.5,140.5 C 646.675,140.84 648.841,142.507 650,145.5C 652.564,151.003 653.064,156.67 651.5,162.5C 647.188,160.711 643.521,157.877 640.5,154C 637.421,152.589 634.421,151.089 631.5,149.5C 630.614,148.675 630.281,147.675 630.5,146.5C 636.349,146.672 641.516,148.672 646,152.5C 645.45,148.446 644.616,144.446 643.5,140.5 Z"/></g>
<g><path style="opacity:1" fill="#f9cf31" d="M 818.5,151.5 C 832.684,161.399 848.35,167.899 865.5,171C 872.167,171.333 878.833,171.667 885.5,172C 870.157,186.873 852.157,191.206 831.5,185C 820.197,180.529 811.53,173.029 805.5,162.5C 811.274,160.459 815.608,156.792 818.5,151.5 Z"/></g>
<g><path style="opacity:1" fill="#fad031" d="M 387.5,158.5 C 393.183,159.006 398.517,160.673 403.5,163.5C 405.821,166.128 406.988,169.128 407,172.5C 383.047,184.532 357.881,188.032 331.5,183C 322.947,180.564 315.947,175.898 310.5,169C 318.794,169.536 327.127,169.536 335.5,169C 343.82,167.891 352.154,166.891 360.5,166C 369.918,164.565 378.918,162.065 387.5,158.5 Z"/></g>
<g><path style="opacity:1" fill="#181712" d="M 573.5,159.5 C 574.833,159.5 576.167,159.5 577.5,159.5C 577.649,160.552 577.483,161.552 577,162.5C 573.429,164.907 571.263,168.24 570.5,172.5C 574.105,171.037 577.771,169.537 581.5,168C 584.146,167.503 586.813,167.336 589.5,167.5C 589.719,168.675 589.386,169.675 588.5,170.5C 584.78,171.513 581.114,172.68 577.5,174C 568.069,183.961 564.569,182.461 567,169.5C 568.431,165.626 570.597,162.293 573.5,159.5 Z"/></g>
<g><path style="opacity:1" fill="#fad031" d="M 1043.5,157.5 C 1044.24,157.369 1044.91,157.536 1045.5,158C 1029.37,173.569 1010.37,184.236 988.5,190C 959.36,197.319 930.026,198.319 900.5,193C 893.266,190.922 886.266,188.256 879.5,185C 885.521,179.977 891.188,174.644 896.5,169C 900.333,167.5 904.167,166 908,164.5C 949.971,173.837 991.805,173.004 1033.5,162C 1037.04,160.725 1040.38,159.225 1043.5,157.5 Z"/></g>
<g><path style="opacity:1" fill="#171612" d="M 544.5,160.5 C 546.252,160.418 547.252,161.251 547.5,163C 545.015,166.823 542.515,170.656 540,174.5C 538.132,177.605 536.965,180.938 536.5,184.5C 538.842,184.496 540.842,183.663 542.5,182C 545.482,181.502 548.482,181.335 551.5,181.5C 551.5,182.5 551.5,183.5 551.5,184.5C 549.436,184.687 547.436,185.187 545.5,186C 543.099,188.062 540.433,189.729 537.5,191C 531.333,192.833 529.167,190.667 531,184.5C 533.723,175.375 538.223,167.375 544.5,160.5 Z"/></g>
<g><path style="opacity:1" fill="#fad031" d="M 168.5,165.5 C 168.735,164.903 169.235,164.57 170,164.5C 178.391,167.389 186.891,169.889 195.5,172C 224.543,173.907 253.543,173.241 282.5,170C 288.565,169.156 294.565,167.989 300.5,166.5C 304.539,171.044 308.873,175.544 313.5,180C 316.502,182.503 319.835,184.503 323.5,186C 295.509,194.547 266.843,198.547 237.5,198C 218.292,196.599 200.959,190.266 185.5,179C 179.67,174.667 174.004,170.167 168.5,165.5 Z"/></g>
<g><path style="opacity:1" fill="#f8cf31" d="M 801.5,170.5 C 805.224,173.719 808.891,177.219 812.5,181C 823.538,188.848 835.871,193.181 849.5,194C 828.52,207.955 807.52,207.955 786.5,194C 783.93,191.933 781.93,189.433 780.5,186.5C 786.235,184.465 791.569,181.632 796.5,178C 798.808,175.872 800.474,173.372 801.5,170.5 Z"/></g>
<g><path style="opacity:1" fill="#191812" d="M 621.5,177.5 C 624.385,178.545 626.552,180.545 628,183.5C 628.615,190.242 628.115,196.908 626.5,203.5C 624.356,204.953 622.523,204.62 621,202.5C 619.333,199.167 617.667,195.833 616,192.5C 611.549,189.717 607.383,186.55 603.5,183C 604.628,180.935 606.294,180.268 608.5,181C 613.923,184.419 618.756,188.585 623,193.5C 624.046,192.228 624.546,190.728 624.5,189C 623.346,185.196 622.346,181.363 621.5,177.5 Z"/></g>
<g><path style="opacity:1" fill="#191712" d="M 641.5,178.5 C 648.498,180.643 654.665,184.309 660,189.5C 660.14,185.766 659.64,182.099 658.5,178.5C 662.523,179.025 664.69,181.359 665,185.5C 665.296,188.706 665.796,191.872 666.5,195C 666.286,197.941 664.953,200.107 662.5,201.5C 657.727,192.892 650.894,186.559 642,182.5C 641.51,181.207 641.343,179.873 641.5,178.5 Z"/></g>
<g><path style="opacity:1" fill="#f9cf31" d="M 870.5,188.5 C 899.593,200.631 929.759,204.298 961,199.5C 961.5,199.833 962,200.167 962.5,200.5C 952.589,209.423 940.922,214.59 927.5,216C 903.553,218.513 881.553,213.18 861.5,200C 859.203,198.737 858.37,196.903 859,194.5C 862.751,192.205 866.585,190.205 870.5,188.5 Z"/></g>
<g><path style="opacity:1" fill="#f9cf31" d="M 332.5,189.5 C 339.711,188.761 345.377,191.261 349.5,197C 352.833,199 356.167,201 359.5,203C 335.598,215.462 310.265,220.129 283.5,217C 272.364,215.181 262.364,210.847 253.5,204C 267.773,201.909 282.106,200.242 296.5,199C 308.057,195.861 319.724,193.194 331.5,191C 332.056,190.617 332.389,190.117 332.5,189.5 Z"/></g>
<g><path style="opacity:1" fill="#f9cf31" d="M 850.5,200.5 C 852.308,200.491 853.975,200.991 855.5,202C 869.284,212.153 884.617,218.82 901.5,222C 887.075,231.224 871.742,232.89 855.5,227C 849.323,224.081 843.656,220.414 838.5,216C 836.042,214.213 834.376,211.879 833.5,209C 839.248,206.256 844.915,203.422 850.5,200.5 Z"/></g>
<g><path style="opacity:1" fill="#191813" d="M 569.5,200.5 C 570.5,200.5 571.5,200.5 572.5,200.5C 572.657,201.873 572.49,203.207 572,204.5C 560.203,215.528 561.036,218.028 574.5,212C 577.146,211.503 579.813,211.336 582.5,211.5C 582.5,212.833 582.5,214.167 582.5,215.5C 572.94,215.779 565.607,219.946 560.5,228C 559.216,228.684 558.049,228.517 557,227.5C 555.978,216.043 560.145,207.043 569.5,200.5 Z"/></g>
<g><path style="opacity:1" fill="#f4cb30" d="M 368.5,206.5 C 374.425,205.736 378.758,208.069 381.5,213.5C 376.298,217.184 370.631,220.017 364.5,222C 358.321,223.06 352.321,224.727 346.5,227C 338.833,227.667 331.167,227.667 323.5,227C 319.863,226.68 316.529,225.514 313.5,223.5C 320.163,222.047 326.83,220.547 333.5,219C 345.278,214.76 356.945,210.593 368.5,206.5 Z"/></g>
<g><path style="opacity:1" fill="#181712" d="M 663.5,210.5 C 665.722,210.178 667.556,210.845 669,212.5C 669.758,218.891 669.424,225.224 668,231.5C 666.846,232.743 665.512,233.743 664,234.5C 660.937,228.228 656.77,222.728 651.5,218C 649.564,217.187 647.564,216.687 645.5,216.5C 645.5,215.167 645.5,213.833 645.5,212.5C 653.299,212.816 659.466,216.149 664,222.5C 664.875,221.127 665.375,219.627 665.5,218C 664.678,215.528 664.011,213.028 663.5,210.5 Z"/></g>
<g><path style="opacity:1" fill="#191813" d="M 636.5,241.5 C 638.5,241.5 640.5,241.5 642.5,241.5C 642.719,242.675 642.386,243.675 641.5,244.5C 635.832,246.642 633.332,250.642 634,256.5C 638.58,252.783 643.747,251.283 649.5,252C 648.833,253 648.167,254 647.5,255C 639.429,256.5 634.095,261 631.5,268.5C 630.167,268.5 628.833,268.5 627.5,268.5C 627.196,262.423 627.696,256.423 629,250.5C 630.642,246.7 633.142,243.7 636.5,241.5 Z"/></g>
<g><path style="opacity:1" fill="#1c1a13" d="M 593.5,243.5 C 595.308,243.491 596.975,243.991 598.5,245C 605.237,250.236 609.237,257.069 610.5,265.5C 610.128,269.381 608.128,271.215 604.5,271C 600.284,262.927 593.618,258.927 584.5,259C 581.751,256.577 582.251,255.077 586,254.5C 591.195,255.215 596.195,256.548 601,258.5C 601.52,256.711 601.187,255.044 600,253.5C 597.936,250.469 595.269,248.136 592,246.5C 591.761,245.212 592.261,244.212 593.5,243.5 Z"/></g>
<g><path style="opacity:1" fill="#151512" d="M 682.5,246.5 C 684.39,246.297 685.89,246.963 687,248.5C 688.936,254.182 688.936,259.848 687,265.5C 685.92,269.112 683.753,270.112 680.5,268.5C 679.251,260.662 675.085,254.996 668,251.5C 667.517,250.552 667.351,249.552 667.5,248.5C 669.199,248.34 670.866,248.506 672.5,249C 676.059,251.606 679.393,254.44 682.5,257.5C 683.079,253.904 683.079,250.238 682.5,246.5 Z"/></g>
<g><path style="opacity:1" fill="#1d1b13" d="M 553.5,250.5 C 554.5,250.5 555.5,250.5 556.5,250.5C 556.028,253.815 554.195,256.149 551,257.5C 548.769,260.795 546.936,264.295 545.5,268C 550.122,266.965 554.789,265.799 559.5,264.5C 560.833,264.667 562.167,264.833 563.5,265C 563.957,265.414 564.291,265.914 564.5,266.5C 559.272,268.113 554.272,270.28 549.5,273C 547.787,274.378 546.453,276.045 545.5,278C 543.866,278.494 542.199,278.66 540.5,278.5C 540.004,266.829 544.338,257.496 553.5,250.5 Z"/></g>
<g><path style="opacity:1" fill="#8d7722" d="M 518.5,291.5 C 518.198,294.059 518.532,296.393 519.5,298.5C 519.44,299.043 519.107,299.376 518.5,299.5C 517.2,296.691 517.2,294.024 518.5,291.5 Z"/></g>
<g><path style="opacity:1" fill="#f2c930" d="M 664.5,312.5 C 665.675,312.281 666.675,312.614 667.5,313.5C 669.132,316.991 670.132,320.658 670.5,324.5C 667.14,324.616 663.807,324.949 660.5,325.5C 658.146,319.854 659.479,315.52 664.5,312.5 Z"/></g>
<g><path style="opacity:1" fill="#f1c830" d="M 695.5,313.5 C 696.812,315.743 697.478,318.41 697.5,321.5C 697.698,326.676 696.864,331.676 695,336.5C 692.788,333.143 689.622,331.476 685.5,331.5C 685.77,336.62 684.103,340.953 680.5,344.5C 678.26,334.842 675.927,325.175 673.5,315.5C 674.002,314.479 674.668,314.312 675.5,315C 678.071,318.677 680.738,322.177 683.5,325.5C 688.393,322.37 692.393,318.37 695.5,313.5 Z"/></g>
<g><path style="opacity:1" fill="#eac32f" d="M 552.5,315.5 C 557.105,317.766 559.105,321.433 558.5,326.5C 550.148,326.845 548.148,323.178 552.5,315.5 Z"/></g>
<g><path style="opacity:1" fill="#ebc32f" d="M 544.5,317.5 C 545.638,320.304 545.805,323.304 545,326.5C 543.872,331.552 542.538,336.552 541,341.5C 538.139,337.706 536.973,333.373 537.5,328.5C 533.853,328.622 531.019,330.288 529,333.5C 527.338,328.555 527.171,323.555 528.5,318.5C 534.468,326.834 539.801,326.5 544.5,317.5 Z"/></g>
<g><path style="opacity:1" fill="#f1c830" d="M 666.5,328.5 C 672.671,329.141 672.837,330.141 667,331.5C 663.993,331.001 663.826,330.001 666.5,328.5 Z"/></g>
<g><path style="opacity:1" fill="#eac32f" d="M 550.5,329.5 C 552.827,329.247 554.827,329.914 556.5,331.5C 554.167,332.833 551.833,332.833 549.5,331.5C 549.863,330.817 550.196,330.15 550.5,329.5 Z"/></g>
<g><path style="opacity:1" fill="#ebc32f" d="M 548.5,335.5 C 555.25,335.334 557.25,338.334 554.5,344.5C 551.833,344.167 549.167,343.833 546.5,343.5C 546.283,340.579 546.949,337.913 548.5,335.5 Z"/></g>
<g><path style="opacity:1" fill="#e8c12f" d="M 667.5,335.5 C 672,335.164 673.833,337.164 673,341.5C 669.606,342.456 666.106,342.789 662.5,342.5C 663.002,339.331 664.669,336.998 667.5,335.5 Z"/></g>
<g><path style="opacity:1" fill="#d4b12c" d="M 666.5,345.5 C 669.397,345.125 672.063,345.625 674.5,347C 671.028,348.58 667.362,348.913 663.5,348C 664.571,347.148 665.571,346.315 666.5,345.5 Z"/></g>
<g><path style="opacity:1" fill="#e5be2e" d="M 545.5,347.5 C 554.686,347.926 555.186,348.926 547,350.5C 544.72,350.106 544.22,349.106 545.5,347.5 Z"/></g>
<g><path style="opacity:1" fill="#f8ce31" d="M 672.5,352.5 C 673.978,352.238 675.311,352.571 676.5,353.5C 681.22,363.054 688.387,370.054 698,374.5C 699.289,377.351 699.789,380.351 699.5,383.5C 704.032,384.122 706.198,382.122 706,377.5C 706.916,380.524 708.416,383.191 710.5,385.5C 714.486,379.061 718.319,379.394 722,386.5C 722.801,389.229 721.801,390.895 719,391.5C 711.713,389.067 704.213,387.734 696.5,387.5C 696.473,390.23 697.14,392.73 698.5,395C 697.923,397.137 697.59,399.304 697.5,401.5C 699.722,401.822 701.556,401.155 703,399.5C 703.692,400.025 704.192,400.692 704.5,401.5C 701.499,407.17 703.165,408.836 709.5,406.5C 709.5,408.167 709.5,409.833 709.5,411.5C 707.801,411.66 706.134,411.494 704.5,411C 698.617,404.614 692.284,398.781 685.5,393.5C 682.516,394.952 681.849,397.119 683.5,400C 681.569,401.453 679.902,403.12 678.5,405C 678.645,405.772 678.978,406.439 679.5,407C 683.659,407.39 684.159,408.556 681,410.5C 680.743,413.493 682.243,414.826 685.5,414.5C 684.873,421.358 682.04,422.691 677,418.5C 674.134,412.111 672.467,405.444 672,398.5C 671,396.167 670,393.833 669,391.5C 664.65,390.051 660.484,388.218 656.5,386C 654.734,383.904 653.401,381.571 652.5,379C 647.44,379.371 642.44,380.037 637.5,381C 636.202,378.501 636.536,376.167 638.5,374C 640.391,374.763 642.391,375.597 644.5,376.5C 644.338,374.473 644.505,372.473 645,370.5C 646.154,371.743 647.488,372.743 649,373.5C 650.867,371.192 651.867,368.525 652,365.5C 655.349,362.43 658.516,359.264 661.5,356C 665.102,354.243 668.768,353.076 672.5,352.5 Z"/></g>
<g><path style="opacity:1" fill="#f8ce31" d="M 543.5,353.5 C 547.007,353.307 550.34,353.973 553.5,355.5C 555.318,361.487 558.818,366.154 564,369.5C 564.497,372.146 564.664,374.813 564.5,377.5C 568.375,378.126 570.209,376.459 570,372.5C 571.096,374.889 571.929,377.389 572.5,380C 574.921,379.617 576.921,378.617 578.5,377C 580,382.698 577.667,385.865 571.5,386.5C 568.784,386.039 566.118,385.373 563.5,384.5C 561.292,385.863 558.959,387.03 556.5,388C 552.159,388.093 547.826,388.093 543.5,388C 542.333,389.167 541.167,390.333 540,391.5C 538.61,398.671 536.61,405.671 534,412.5C 532.261,414.741 530.094,416.408 527.5,417.5C 526.28,417.113 525.613,416.28 525.5,415C 526.57,413.291 527.903,411.791 529.5,410.5C 527.244,409.579 526.244,407.912 526.5,405.5C 529.364,405.936 531.697,405.103 533.5,403C 527.693,402.901 526.36,400.567 529.5,396C 528.313,393.41 526.48,392.91 524,394.5C 520.616,401.213 516.45,407.38 511.5,413C 506.662,414.328 504.329,412.494 504.5,407.5C 506.827,407.247 508.827,407.914 510.5,409.5C 511.94,406.772 511.274,404.605 508.5,403C 509.907,401.548 511.407,401.715 513,403.5C 513,400.833 513,398.167 513,395.5C 515.644,393.69 518.144,391.69 520.5,389.5C 521.833,388.5 521.833,387.5 520.5,386.5C 518.902,385.515 517.235,385.349 515.5,386C 509.45,391.485 502.283,394.652 494,395.5C 489.196,395.367 487.529,393.033 489,388.5C 493.871,383.499 498.537,383.499 503,388.5C 504.614,387.183 505.781,385.517 506.5,383.5C 508.149,384.648 509.649,385.981 511,387.5C 511.895,385.196 512.729,382.862 513.5,380.5C 517.677,378.383 522.01,376.549 526.5,375C 533.166,368.514 538.833,361.348 543.5,353.5 Z"/></g>
<g><path style="opacity:1" fill="#dcb72d" d="M 629.5,377.5 C 630.675,377.281 631.675,377.614 632.5,378.5C 630.81,381.024 628.643,383.024 626,384.5C 625.333,383.5 625.333,382.5 626,381.5C 627.376,380.295 628.542,378.962 629.5,377.5 Z"/></g>
<g><path style="opacity:1" fill="#e4be2e" d="M 584.5,378.5 C 589.672,379.848 592.172,383.182 592,388.5C 589.966,386.968 587.799,385.635 585.5,384.5C 584.534,382.604 584.201,380.604 584.5,378.5 Z"/></g>
<g><path style="opacity:1" fill="#b3b3b3" d="M 591.5,379.5 C 594.355,378.197 597.355,378.197 600.5,379.5C 602.147,382.473 604.147,385.14 606.5,387.5C 608.853,385.14 610.853,382.473 612.5,379.5C 615.602,378.382 618.602,378.716 621.5,380.5C 618.718,384.118 618.884,387.452 622,390.5C 624.449,389.056 626.615,387.222 628.5,385C 635.535,384.507 642.535,384.174 649.5,384C 650.833,385.667 652.167,387.333 653.5,389C 657.824,390.827 661.824,393.16 665.5,396C 666.115,408.526 670.615,419.359 679,428.5C 679.172,431.826 679.005,435.159 678.5,438.5C 652.387,433.796 626.054,431.129 599.5,430.5C 577.427,431.861 555.427,433.694 533.5,436C 532.427,434.687 531.76,433.187 531.5,431.5C 532.641,428.245 533.474,424.911 534,421.5C 538.825,412.356 542.659,402.856 545.5,393C 551.659,393.361 557.326,392.028 562.5,389C 566.362,388.355 570.196,388.521 574,389.5C 576.88,388.644 579.713,387.644 582.5,386.5C 586.728,388.197 590.561,390.53 594,393.5C 594.772,393.355 595.439,393.022 596,392.5C 596.966,387.227 595.466,382.894 591.5,379.5 Z"/></g>
<g><path style="opacity:1" fill="#deb92d" d="M 726.5,389.5 C 731.166,390.477 733.499,393.144 733.5,397.5C 731.641,395.808 729.641,394.308 727.5,393C 726.663,391.989 726.33,390.822 726.5,389.5 Z"/></g>
<g><path style="opacity:1" fill="#b1b1b1" d="M 701.5,392.5 C 702.946,391.387 704.613,391.22 706.5,392C 713.258,393.69 719.925,395.69 726.5,398C 728.675,400.486 731.175,402.653 734,404.5C 735.584,404.012 736.751,403.012 737.5,401.5C 750.1,406.468 762.433,411.968 774.5,418C 743.986,426.296 713.319,433.629 682.5,440C 685.25,437.33 687.083,434.164 688,430.5C 688.243,424.838 688.076,419.172 687.5,413.5C 687.378,410.309 687.878,407.309 689,404.5C 694.108,409.974 700.275,413.807 707.5,416C 710.749,418.234 712.749,421.234 713.5,425C 715.895,427.145 718.062,426.978 720,424.5C 722.122,419.348 721.789,414.348 719,409.5C 713.332,403.665 707.498,397.998 701.5,392.5 Z"/></g>
<g><path style="opacity:1" fill="#e2bc2e" d="M 481.5,391.5 C 482.649,391.791 483.316,392.624 483.5,394C 481.444,397.738 478.944,401.238 476,404.5C 475.333,402.833 475.333,401.167 476,399.5C 477.596,396.631 479.43,393.964 481.5,391.5 Z"/></g>
<g><path style="opacity:1" fill="#b1b1b1" d="M 484.5,399.5 C 490.842,399.334 497.175,399.5 503.5,400C 501.226,402.344 500.059,405.178 500,408.5C 494.787,412.93 492.287,418.597 492.5,425.5C 493.095,428.14 493.428,430.807 493.5,433.5C 472.706,428.968 452.039,423.801 431.5,418C 444.506,411.612 457.839,406.112 471.5,401.5C 471.5,404.167 471.5,406.833 471.5,409.5C 473.199,409.66 474.866,409.494 476.5,409C 478.364,405.073 481.031,401.906 484.5,399.5 Z"/></g>
<g><path style="opacity:1" fill="#d3b02c" d="M 714.5,410.5 C 718.17,413.171 719.337,416.838 718,421.5C 716.517,418.677 715.017,415.843 713.5,413C 713.743,412.098 714.077,411.265 714.5,410.5 Z"/></g>
<g><path style="opacity:1" fill="#afafaf" d="M 518.5,413.5 C 519.931,413.881 520.764,414.881 521,416.5C 521.333,421.833 521.667,427.167 522,432.5C 523.916,436.085 526.749,438.585 530.5,440C 526.833,440.667 523.167,440.667 519.5,440C 512.575,438.853 505.909,437.02 499.5,434.5C 501.079,431.006 502.913,427.673 505,424.5C 509.399,420.591 513.899,416.924 518.5,413.5 Z"/></g>
<g><path style="opacity:1" fill="#e9c22f" d="M 498.5,415.5 C 501.127,415.293 502.793,416.46 503.5,419C 500.713,422.064 498.547,425.564 497,429.5C 496.034,424.61 496.534,419.943 498.5,415.5 Z"/></g>
<g><path style="opacity:1" fill="#edc52f" d="M 525.5,421.5 C 526.833,421.5 528.167,421.5 529.5,421.5C 529.048,425.163 528.548,428.83 528,432.5C 524.8,429.328 523.966,425.661 525.5,421.5 Z"/></g>
<g><path style="opacity:1" fill="#127f4a" d="M 605.5,458.5 C 605.5,472.167 605.5,485.833 605.5,499.5C 601.993,500.006 598.826,499.34 596,497.5C 595.627,491.811 595.127,486.145 594.5,480.5C 592.143,480.337 589.81,480.503 587.5,481C 588.31,486.751 588.81,492.584 589,498.5C 590.167,501 592,502.833 594.5,504C 598.152,504.499 601.818,504.665 605.5,504.5C 605.5,512.833 605.5,521.167 605.5,529.5C 576.649,527.71 547.982,524.21 519.5,519C 482.393,511.871 445.393,504.204 408.5,496C 401.5,495.333 394.5,495.333 387.5,496C 359.918,503.865 333.585,514.865 308.5,529C 275.94,546.915 244.44,566.415 214,587.5C 215.576,571.215 217.076,554.881 218.5,538.5C 199.807,537.383 181.14,535.883 162.5,534C 221.665,494.916 284.665,462.916 351.5,438C 370.071,431.365 389.071,426.365 408.5,423C 412.5,422.333 416.5,422.333 420.5,423C 465.477,434.911 510.81,445.244 556.5,454C 572.78,456.124 589.113,457.624 605.5,458.5 Z"/></g>
<g><path style="opacity:1" fill="#e52f2f" d="M 605.5,529.5 C 605.5,521.167 605.5,512.833 605.5,504.5C 610.274,504.033 613.774,501.699 616,497.5C 616.348,491.161 616.182,484.827 615.5,478.5C 613.167,478.5 610.833,478.5 608.5,478.5C 608.666,484.842 608.5,491.175 608,497.5C 607.292,498.381 606.458,499.047 605.5,499.5C 605.5,485.833 605.5,472.167 605.5,458.5C 629.631,456.623 653.631,453.456 677.5,449C 714.059,441.222 750.392,432.555 786.5,423C 794.274,422.287 801.941,422.953 809.5,425C 867.73,440.114 923.064,462.447 975.5,492C 999.156,504.839 1022.16,518.673 1044.5,533.5C 1025.85,535.388 1007.18,537.054 988.5,538.5C 989.721,554.102 991.721,569.602 994.5,585C 994.167,585.833 993.833,586.667 993.5,587.5C 947.494,555.654 898.828,528.154 847.5,505C 837.39,501.185 827.057,498.185 816.5,496C 809.833,495.333 803.167,495.333 796.5,496C 733.616,511.674 669.949,522.84 605.5,529.5 Z"/></g>
<g><path style="opacity:1" fill="#e7c02f" d="M 681.5,423.5 C 683.167,423.5 684.833,423.5 686.5,423.5C 686.633,427.599 685.467,431.266 683,434.5C 682.667,431.833 682.333,429.167 682,426.5C 680.272,425.648 680.105,424.648 681.5,423.5 Z"/></g>
<g><path style="opacity:1" fill="#f4f4f4" d="M 592.5,437.5 C 616.662,437.474 640.662,439.307 664.5,443C 624.273,452.622 583.939,452.956 543.5,444C 559.809,440.539 576.142,438.372 592.5,437.5 Z"/></g>
<g><path style="opacity:1" fill="#191111" d="M 804.5,444.5 C 806.833,444.5 809.167,444.5 811.5,444.5C 811.539,449.184 811.872,453.851 812.5,458.5C 811.937,467.652 806.937,471.986 797.5,471.5C 790.886,471.786 786.72,468.786 785,462.5C 784.316,457.178 783.816,451.844 783.5,446.5C 785.833,446.5 788.167,446.5 790.5,446.5C 791.055,452.154 791.555,457.82 792,463.5C 796.522,466.312 800.855,465.979 805,462.5C 804.928,456.52 804.761,450.52 804.5,444.5 Z"/></g>
<g><path style="opacity:1" fill="#101513" d="M 377.5,444.5 C 383.176,444.334 388.843,444.501 394.5,445C 399.367,448.484 399.7,452.318 395.5,456.5C 392.397,458.312 389.064,459.312 385.5,459.5C 386.051,462.807 386.384,466.14 386.5,469.5C 384.167,469.5 381.833,469.5 379.5,469.5C 378.975,461.15 378.308,452.816 377.5,444.5 Z"/></g>
<g><path style="opacity:1" fill="#101312" d="M 419.5,446.5 C 421.717,447.369 424.05,447.702 426.5,447.5C 425.246,452.772 424.246,458.105 423.5,463.5C 423.833,464.833 424.167,466.167 424.5,467.5C 427.447,468.423 430.447,469.089 433.5,469.5C 433.509,471.308 433.009,472.975 432,474.5C 426.667,473.167 421.333,471.833 416,470.5C 416.189,462.381 417.356,454.381 419.5,446.5 Z"/></g>
<g><path style="opacity:1" fill="#127b48" d="M 384.5,449.5 C 386.5,449.5 388.5,449.5 390.5,449.5C 390.915,451.948 389.915,453.281 387.5,453.5C 385.532,452.9 384.532,451.567 384.5,449.5 Z"/></g>
<g><path style="opacity:1" fill="#181111" d="M 862.5,455.5 C 863.167,460.833 863.833,466.167 864.5,471.5C 864.5,475.167 864.5,478.833 864.5,482.5C 862.738,482.643 861.071,482.309 859.5,481.5C 858.672,477.204 858.172,472.871 858,468.5C 853.81,471.934 849.81,475.6 846,479.5C 844.187,474.387 842.187,469.387 840,464.5C 837.667,467.833 835.333,471.167 833,474.5C 831.175,473.897 829.341,473.23 827.5,472.5C 832.333,464.833 837.167,457.167 842,449.5C 844.533,455.432 846.866,461.432 849,467.5C 853.669,463.663 858.169,459.663 862.5,455.5 Z"/></g>
<g><path style="opacity:1" fill="#171011" d="M 761.5,451.5 C 762.496,451.414 763.329,451.748 764,452.5C 765.641,460.414 767.475,468.247 769.5,476C 760.807,473.5 752.14,470.666 743.5,467.5C 743.685,471.244 744.352,474.911 745.5,478.5C 744.323,480.975 742.323,481.975 739.5,481.5C 737.796,473.15 736.296,464.816 735,456.5C 743.013,460.258 751.18,463.591 759.5,466.5C 759.221,461.773 758.554,457.107 757.5,452.5C 759.099,452.768 760.432,452.434 761.5,451.5 Z"/></g>
<g><path style="opacity:1" fill="#0f1212" d="M 451.5,454.5 C 453.861,454.674 456.194,455.007 458.5,455.5C 456.53,461.703 455.697,468.036 456,474.5C 459.601,477.366 463.434,477.866 467.5,476C 469.739,470.414 471.072,464.58 471.5,458.5C 474.386,458.61 476.72,459.777 478.5,462C 477.54,467.212 476.374,472.379 475,477.5C 471.657,482.218 467.157,483.718 461.5,482C 451.213,481.055 447.047,475.555 449,465.5C 450.15,461.888 450.983,458.222 451.5,454.5 Z"/></g>
<g><path style="opacity:1" fill="#0f1312" d="M 327.5,458.5 C 330.321,458.316 331.988,459.649 332.5,462.5C 328.696,464.435 324.696,465.768 320.5,466.5C 320.147,468.635 320.98,469.968 323,470.5C 325.866,469.1 328.866,468.1 332,467.5C 333.871,467.709 335.038,468.709 335.5,470.5C 332.377,472.544 329.044,474.211 325.5,475.5C 324.252,477.597 324.752,479.264 327,480.5C 329.877,479.597 332.71,478.597 335.5,477.5C 337.569,477.785 338.902,478.952 339.5,481C 333.855,483.55 328.021,485.717 322,487.5C 321.5,487.167 321,486.833 320.5,486.5C 318.123,479.201 315.457,472.034 312.5,465C 317.608,462.915 322.608,460.748 327.5,458.5 Z"/></g>
<g><path style="opacity:1" fill="#181111" d="M 713.5,462.5 C 714.833,462.5 716.167,462.5 717.5,462.5C 719.473,469.382 720.306,476.382 720,483.5C 714.332,490.044 707.165,492.211 698.5,490C 697.333,488.833 696.167,487.667 695,486.5C 693.183,480.247 691.683,473.914 690.5,467.5C 692.861,467.326 695.194,466.993 697.5,466.5C 698.008,471.216 698.842,475.882 700,480.5C 703.185,486.499 707.352,487.166 712.5,482.5C 712.833,481.167 713.167,479.833 713.5,478.5C 712.656,473.458 711.656,468.458 710.5,463.5C 711.791,463.737 712.791,463.404 713.5,462.5 Z"/></g>
<g><path style="opacity:1" fill="#0f1312" d="M 495.5,464.5 C 501.004,465.376 506.337,466.876 511.5,469C 515.285,475.294 513.618,479.461 506.5,481.5C 509.083,484.997 511.416,488.664 513.5,492.5C 511.234,493.206 508.901,493.039 506.5,492C 503.877,488.588 501.377,485.088 499,481.5C 497.921,484.063 497.421,486.729 497.5,489.5C 494.359,490.092 492.026,489.092 490.5,486.5C 492.589,479.24 494.256,471.906 495.5,464.5 Z"/></g>
<g><path style="opacity:1" fill="#5e1c1b" d="M 862.5,455.5 C 862.56,454.957 862.893,454.624 863.5,454.5C 864.495,460.128 864.829,465.794 864.5,471.5C 863.833,466.167 863.167,460.833 862.5,455.5 Z"/></g>
<g><path style="opacity:1" fill="#127846" d="M 501.5,470.5 C 505.172,470.183 506.838,471.849 506.5,475.5C 504.833,475.5 503.167,475.5 501.5,475.5C 501.5,473.833 501.5,472.167 501.5,470.5 Z"/></g>
<g><path style="opacity:1" fill="#0f1211" d="M 531.5,472.5 C 533.927,472.523 536.26,473.023 538.5,474C 537.136,481.152 535.636,488.319 534,495.5C 533.612,496.428 532.945,497.095 532,497.5C 530.56,496.852 529.06,496.519 527.5,496.5C 528.704,488.479 530.038,480.479 531.5,472.5 Z"/></g>
<g><path style="opacity:1" fill="#0f1312" d="M 554.5,476.5 C 560.673,476.854 566.673,478.021 572.5,480C 575.122,483.13 575.122,486.297 572.5,489.5C 576.373,495.934 574.706,500.101 567.5,502C 562.512,502.087 557.512,501.92 552.5,501.5C 552.926,493.144 553.593,484.811 554.5,476.5 Z"/></g>
<g><path style="opacity:1" fill="#191111" d="M 638.5,475.5 C 643.52,475.117 647.853,476.617 651.5,480C 648.589,482.422 645.422,482.922 642,481.5C 640.188,481.493 638.688,482.16 637.5,483.5C 642.23,485.684 647.064,487.684 652,489.5C 654.178,495.951 652.011,500.118 645.5,502C 639.537,503.675 634.87,502.008 631.5,497C 633.769,494.881 636.102,494.548 638.5,496C 641.649,497.035 644.316,496.368 646.5,494C 645.833,493.333 645.167,492.667 644.5,492C 640.006,491.337 635.839,489.837 632,487.5C 631.333,485.167 631.333,482.833 632,480.5C 633.965,478.45 636.132,476.783 638.5,475.5 Z"/></g>
<g><path style="opacity:1" fill="#161312" d="M 605.5,504.5 C 601.818,504.665 598.152,504.499 594.5,504C 592,502.833 590.167,501 589,498.5C 588.81,492.584 588.31,486.751 587.5,481C 589.81,480.503 592.143,480.337 594.5,480.5C 595.127,486.145 595.627,491.811 596,497.5C 598.826,499.34 601.993,500.006 605.5,499.5C 606.458,499.047 607.292,498.381 608,497.5C 608.5,491.175 608.666,484.842 608.5,478.5C 610.833,478.5 613.167,478.5 615.5,478.5C 616.182,484.827 616.348,491.161 616,497.5C 613.774,501.699 610.274,504.033 605.5,504.5 Z"/></g>
<g><path style="opacity:1" fill="#127544" d="M 560.5,481.5 C 564.56,480.848 566.56,482.515 566.5,486.5C 564.5,486.5 562.5,486.5 560.5,486.5C 560.5,484.833 560.5,483.167 560.5,481.5 Z"/></g>
<g><path style="opacity:1" fill="#127a47" d="M 559.5,490.5 C 562.573,490.453 564.906,491.619 566.5,494C 566.355,494.772 566.022,495.439 565.5,496C 563.527,496.495 561.527,496.662 559.5,496.5C 559.5,494.5 559.5,492.5 559.5,490.5 Z"/></g>
<g><path style="opacity:1" fill="#b4b4b4" d="M 390.5,501.5 C 393.187,501.336 395.854,501.503 398.5,502C 328.156,558.14 285.656,630.973 271,720.5C 258.18,833.714 291.347,930.881 370.5,1012C 416.111,1055.32 469.778,1084.32 531.5,1099C 552.07,1119.93 573.404,1139.93 595.5,1159C 484.473,1155.79 390.973,1113.96 315,1033.5C 233.184,940.018 200.517,831.352 217,707.5C 225.856,652.244 245.69,601.411 276.5,555C 305.729,536.718 336.396,521.051 368.5,508C 375.91,505.692 383.244,503.526 390.5,501.5 Z"/></g>
<g><path style="opacity:1" fill="#fbfbfb" d="M 796.5,502.5 C 799.32,502.248 801.986,502.748 804.5,504C 895.355,575.896 939.188,670.062 936,786.5C 927.011,900.704 874.844,988.871 779.5,1051C 751.74,1068.05 722.073,1080.38 690.5,1088C 698.538,1079.63 706.205,1070.96 713.5,1062C 808.452,1025.05 871.952,958.214 904,861.5C 933.716,757.106 916.049,661.773 851,575.5C 829.558,549.048 804.724,526.548 776.5,508C 783.362,506.479 790.028,504.645 796.5,502.5 Z"/></g>
<g><path style="opacity:1" fill="#fbfbfb" d="M 408.5,502.5 C 416.69,504.178 424.69,506.345 432.5,509C 387.158,538.872 352.325,578.039 328,626.5C 284.128,716.53 282.128,807.53 322,899.5C 359.442,977.61 418.609,1032.11 499.5,1063C 506.461,1071.63 513.795,1079.96 521.5,1088C 436.726,1065.2 370.893,1016.7 324,942.5C 269.682,849.082 260.682,751.415 297,649.5C 320.663,590.135 357.83,541.135 408.5,502.5 Z"/></g>
<g><path style="opacity:1" fill="#b4b4b4" d="M 813.5,503.5 C 814.274,502.853 815.274,502.52 816.5,502.5C 831.937,506.368 846.937,511.535 861.5,518C 885.636,529.564 908.969,542.397 931.5,556.5C 994.445,657.894 1009.95,766.227 978,881.5C 937.947,1004.89 857.447,1090.05 736.5,1137C 697.696,1151.2 657.696,1158.36 616.5,1158.5C 638.586,1139.58 659.919,1119.75 680.5,1099C 771.737,1076.17 842.57,1025.34 893,946.5C 948.92,850.472 957.92,750.138 920,645.5C 897.312,588.413 861.812,541.08 813.5,503.5 Z"/></g>
<g><path style="opacity:1" fill="#fbfbfb" d="M 760.5,510.5 C 764.383,510.109 768.05,510.776 771.5,512.5C 772.521,513.002 772.688,513.668 772,514.5C 752.029,544.636 731.863,574.636 711.5,604.5C 702.641,606.965 693.641,608.632 684.5,609.5C 697.768,578.961 711.601,548.627 726,518.5C 737.634,516.009 749.134,513.343 760.5,510.5 Z"/></g>
<g><path style="opacity:1" fill="#fcfcfc" d="M 442.5,510.5 C 461.783,514.056 480.949,518.056 500,522.5C 512.371,552.073 524.871,581.573 537.5,611C 524.907,610.315 512.573,608.148 500.5,604.5C 480.291,573.914 459.957,543.414 439.5,513C 440.571,512.148 441.571,511.315 442.5,510.5 Z"/></g>
<g><path style="opacity:1" fill="#fcfcfc" d="M 432.5,516.5 C 452.182,544.675 471.515,573.175 490.5,602C 488.5,602.667 486.5,602.667 484.5,602C 466.489,597.664 448.489,593.33 430.5,589C 418,576.5 405.5,564 393,551.5C 394.578,547.886 397.078,544.719 400.5,542C 411.066,533.256 421.732,524.756 432.5,516.5 Z"/></g>
<g><path style="opacity:1" fill="#fcfcfc" d="M 778.5,517.5 C 791.301,525.452 803.135,534.785 814,545.5C 814.667,546.167 814.667,546.833 814,547.5C 799.471,561.695 785.304,576.195 771.5,591C 755.302,596.024 738.969,599.524 722.5,601.5C 741.177,573.471 759.844,545.471 778.5,517.5 Z"/></g>
<g><path style="opacity:1" fill="#fcfcfc" d="M 712.5,520.5 C 714.288,520.215 715.955,520.548 717.5,521.5C 703.227,551.046 689.227,580.712 675.5,610.5C 664.057,613.55 652.39,615.217 640.5,615.5C 645.093,587.012 650.426,558.679 656.5,530.5C 675.367,527.579 694.033,524.246 712.5,520.5 Z"/></g>
<g><path style="opacity:1" fill="#fcfcfc" d="M 508.5,523.5 C 523.958,526.575 539.458,529.242 555,531.5C 560.819,559.443 566.319,587.443 571.5,615.5C 562.159,615.13 552.992,613.797 544,611.5C 531.871,582.248 520.037,552.915 508.5,523.5 Z"/></g>
<g><path style="opacity:1" fill="#fdfdfd" d="M 562.5,532.5 C 575.833,533.833 589.167,535.167 602.5,536.5C 602.5,563.5 602.5,590.5 602.5,617.5C 594.479,617.558 586.479,617.224 578.5,616.5C 573.81,588.381 568.476,560.381 562.5,532.5 Z"/></g>
<g><path style="opacity:1" fill="#fcfcfc" d="M 642.5,531.5 C 644.833,531.5 647.167,531.5 649.5,531.5C 643.395,559.69 638.062,588.024 633.5,616.5C 625.505,616.935 617.505,617.269 609.5,617.5C 609.5,590.167 609.5,562.833 609.5,535.5C 620.817,535.614 631.817,534.281 642.5,531.5 Z"/></g>
<g><path style="opacity:1" fill="#fafafa" d="M 818.5,551.5 C 826.124,557.124 832.791,563.791 838.5,571.5C 821.353,577.438 804.019,582.771 786.5,587.5C 785.479,586.998 785.312,586.332 786,585.5C 797.402,574.601 808.235,563.267 818.5,551.5 Z"/></g>
<g><path style="opacity:1" fill="#f2f2f2" d="M 386.5,555.5 C 396.913,564.409 406.913,573.909 416.5,584C 401.577,581.253 386.91,577.253 372.5,572C 377.377,566.627 382.044,561.127 386.5,555.5 Z"/></g>
<g><path style="opacity:1" fill="#fbfbfb" d="M 368.5,577.5 C 434.241,599.267 501.574,614.1 570.5,622C 612.503,624.778 654.169,622.111 695.5,614C 744.99,604.961 793.657,592.794 841.5,577.5C 842.192,578.025 842.692,578.692 843,579.5C 854.116,626.908 857.45,674.908 853,723.5C 843.104,828.212 807.771,923.212 747,1008.5C 706.663,1064.68 659.496,1114.68 605.5,1158.5C 529.347,1096.73 467.847,1023.06 421,937.5C 367.592,835.722 347.592,727.722 361,613.5C 362.8,601.334 365.3,589.334 368.5,577.5 Z"/></g>
<g><path style="opacity:1" fill="#e0e0e0" d="M 358.5,588.5 C 359.178,591.545 358.511,594.545 356.5,597.5C 355.5,597.167 354.833,596.5 354.5,595.5C 355.861,593.15 357.194,590.816 358.5,588.5 Z"/></g>
<g><path style="opacity:1" fill="#dfdfdf" d="M 852.5,589.5 C 854.497,591.513 856.164,593.846 857.5,596.5C 856.68,598.111 855.346,598.778 853.5,598.5C 853.296,595.482 852.963,592.482 852.5,589.5 Z"/></g>
<g><path style="opacity:1" fill="#f9fafa" d="M 349.5,602.5 C 353.431,602.93 355.431,605.096 355.5,609C 352.811,625.393 351.477,641.893 351.5,658.5C 342.189,656.009 333.523,652.176 325.5,647C 332.361,631.438 340.361,616.605 349.5,602.5 Z"/></g>
<g><path style="opacity:1" fill="#fafafa" d="M 859.5,603.5 C 860.552,603.351 861.552,603.517 862.5,604C 871.39,618.275 879.39,633.109 886.5,648.5C 878.314,652.424 869.981,656.091 861.5,659.5C 860.609,642.525 858.609,625.692 855.5,609C 855.667,608.167 855.833,607.333 856,606.5C 857.518,605.837 858.685,604.837 859.5,603.5 Z"/></g>
<g><path style="opacity:1" fill="#171615" d="M 385.5,607.5 C 445.564,626.678 506.898,640.178 569.5,648C 609.81,651.103 649.81,648.769 689.5,641C 735.111,632.18 780.111,621.014 824.5,607.5C 829.289,623.806 832.123,640.472 833,657.5C 837.028,771.06 808.695,875.727 748,971.5C 708.951,1031.73 661.451,1084.73 605.5,1130.5C 532.577,1070.77 474.744,999.104 432,915.5C 387.144,823.366 370.478,726.366 382,624.5C 383.329,618.852 384.496,613.185 385.5,607.5 Z"/></g>
<g><path style="opacity:1" fill="#e72f2f" d="M 605.5,655.5 C 605.5,655.833 605.5,656.167 605.5,656.5C 604.503,673.659 604.17,690.992 604.5,708.5C 599.968,708.182 595.634,708.515 591.5,709.5C 576.518,710.159 562.851,714.659 550.5,723C 545.499,723.168 540.832,724.501 536.5,727C 497.42,750.471 474.587,784.971 468,830.5C 464.746,852.976 467.58,874.642 476.5,895.5C 466.181,906.319 455.681,916.986 445,927.5C 393.477,829.324 374.977,725.324 389.5,615.5C 428.029,627.049 467.029,636.882 506.5,645C 539.182,651.544 572.182,655.044 605.5,655.5 Z"/></g>
<g><path style="opacity:1" fill="#1273ba" d="M 819.5,615.5 C 820.649,615.791 821.316,616.624 821.5,618C 825.62,639.987 827.453,662.154 827,684.5C 717.973,793.527 608.973,902.527 500,1011.5C 479.933,986.678 462.933,960.011 449,931.5C 547.5,833 646,734.5 744.5,636C 769.92,630.231 794.92,623.398 819.5,615.5 Z"/></g>
<g><path style="opacity:1" fill="#fcfcfc" d="M 605.5,709.5 C 605.5,691.833 605.5,674.167 605.5,656.5C 605.5,656.167 605.5,655.833 605.5,655.5C 623.236,655.431 640.903,654.264 658.5,652C 683.958,648.04 709.291,643.707 734.5,639C 708.5,665 682.5,691 656.5,717C 644.642,714.465 632.642,712.132 620.5,710C 615.511,709.501 610.511,709.334 605.5,709.5 Z"/></g>
<g><path style="opacity:1" fill="#fbfbfb" d="M 321.5,655.5 C 331.089,659.363 340.755,663.03 350.5,666.5C 350.415,682.511 350.748,698.511 351.5,714.5C 336.766,712.22 322.099,709.553 307.5,706.5C 307.865,700.035 309.032,693.702 311,687.5C 314.208,676.711 317.708,666.044 321.5,655.5 Z"/></g>
<g><path style="opacity:1" fill="#dc6161" d="M 605.5,656.5 C 605.5,674.167 605.5,691.833 605.5,709.5C 600.833,709.5 596.167,709.5 591.5,709.5C 595.634,708.515 599.968,708.182 604.5,708.5C 604.17,690.992 604.503,673.659 605.5,656.5 Z"/></g>
<g><path style="opacity:1" fill="#fafafa" d="M 886.5,655.5 C 887.822,655.33 888.989,655.663 890,656.5C 895.506,670.685 900.006,685.185 903.5,700C 902.318,701.735 900.651,702.735 898.5,703C 885.881,705.824 873.215,708.324 860.5,710.5C 860.952,695.834 861.452,681.168 862,666.5C 870.301,662.929 878.467,659.262 886.5,655.5 Z"/></g>
<g><path style="opacity:1" fill="#f8d137" d="M 803.5,680.5 C 812.306,680.464 814.639,684.297 810.5,692C 803.388,694.554 799.888,692.054 800,684.5C 800.69,682.65 801.856,681.316 803.5,680.5 Z"/></g>
<g><path style="opacity:1" fill="#fad235" d="M 716.5,681.5 C 733.608,681.426 741.108,689.76 739,706.5C 744.009,702.69 749.176,702.523 754.5,706C 766.954,713.027 770.454,723.194 765,736.5C 757.683,744.984 749.85,752.984 741.5,760.5C 724.25,741.914 706.583,723.58 688.5,705.5C 696.404,695.578 705.738,687.578 716.5,681.5 Z"/></g>
<g><path style="opacity:1" fill="#fdfdfd" d="M 605.5,1121.5 C 605.5,1075.5 605.5,1029.5 605.5,983.5C 607.511,982.107 609.845,981.44 612.5,981.5C 637.598,982.725 660.265,975.892 680.5,961C 686.638,952.525 694.305,945.859 703.5,941C 723.873,923.088 735.373,900.588 738,873.5C 743.013,860.992 744.68,847.992 743,834.5C 741.023,819.283 737.023,804.616 731,790.5C 730.333,789.167 730.333,787.833 731,786.5C 762.667,754.833 794.333,723.167 826,691.5C 826.072,753.331 814.738,812.998 792,870.5C 750.732,969.706 688.565,1053.37 605.5,1121.5 Z"/></g>
<g><path style="opacity:1" fill="#1f75b9" d="M 717.5,693.5 C 728.494,695.611 731.66,701.611 727,711.5C 724.317,714.016 721.817,716.683 719.5,719.5C 713.718,715.221 708.385,710.388 703.5,705C 707.484,700.168 712.151,696.335 717.5,693.5 Z"/></g>
<g><path style="opacity:1" fill="#fcfcfc" d="M 898.5,709.5 C 900.833,709.5 903.167,709.5 905.5,709.5C 909.073,727.991 910.74,746.658 910.5,765.5C 891.833,765.5 873.167,765.5 854.5,765.5C 857.263,749.962 858.93,734.296 859.5,718.5C 872.651,715.661 885.651,712.661 898.5,709.5 Z"/></g>
<g><path style="opacity:1" fill="#fbfbfb" d="M 304.5,713.5 C 320.253,715.75 335.919,718.584 351.5,722C 353.345,736.438 355.012,750.938 356.5,765.5C 337.833,765.5 319.167,765.5 300.5,765.5C 300.509,748.046 301.842,730.713 304.5,713.5 Z"/></g>
<g><path style="opacity:1" fill="#fdd231" d="M 585.5,714.5 C 598.171,714.333 610.838,714.5 623.5,715C 624.624,715.249 625.624,715.749 626.5,716.5C 599.96,729.507 589.127,750.507 594,779.5C 571,802.5 548,825.5 525,848.5C 519.946,828.477 518.279,808.144 520,787.5C 523.555,765.555 533.055,746.722 548.5,731C 559.223,721.711 571.556,716.211 585.5,714.5 Z"/></g>
<g><path style="opacity:1" fill="#1b75b9" d="M 737.5,716.5 C 752.127,715.61 756.961,721.943 752,735.5C 748.985,738.683 745.818,741.683 742.5,744.5C 736.055,739.394 730.722,733.394 726.5,726.5C 730.009,722.926 733.676,719.592 737.5,716.5 Z"/></g>
<g><path style="opacity:1" fill="#fad031" d="M 628.5,720.5 C 636.253,720.104 643.92,720.604 651.5,722C 634,739.5 616.5,757 599,774.5C 596.594,756.384 601.761,740.884 614.5,728C 619.101,725.202 623.768,722.702 628.5,720.5 Z"/></g>
<g><path style="opacity:1" fill="#fbd131" d="M 540.5,729.5 C 541.239,729.369 541.906,729.536 542.5,730C 527.937,745.652 519.103,764.152 516,785.5C 514.501,798.799 514.168,812.133 515,825.5C 516.371,834.963 518.038,844.297 520,853.5C 513.35,859.316 506.85,865.316 500.5,871.5C 483.925,861.574 475.259,846.907 474.5,827.5C 475.26,811.386 479.76,796.386 488,782.5C 501.025,760.309 518.525,742.642 540.5,729.5 Z"/></g>
<g><path style="opacity:1" fill="#535353" d="M 853.5,772.5 C 872.659,771.503 891.993,771.17 911.5,771.5C 911.819,776.363 911.486,781.03 910.5,785.5C 910.5,781.167 910.5,776.833 910.5,772.5C 891.5,772.5 872.5,772.5 853.5,772.5 Z"/></g>
<g><path style="opacity:1" fill="#fdfdfd" d="M 300.5,772.5 C 319.833,772.5 339.167,772.5 358.5,772.5C 361.25,787.248 364.25,801.915 367.5,816.5C 349.138,820.117 330.805,823.95 312.5,828C 310.421,828.808 308.421,828.641 306.5,827.5C 302.853,809.363 300.853,791.03 300.5,772.5 Z"/></g>
<g><path style="opacity:1" fill="#fcfcfc" d="M 853.5,772.5 C 872.5,772.5 891.5,772.5 910.5,772.5C 910.5,776.833 910.5,781.167 910.5,785.5C 909.577,798.548 908.244,811.548 906.5,824.5C 886.143,820.962 865.81,817.295 845.5,813.5C 848.166,799.835 850.833,786.168 853.5,772.5 Z"/></g>
<g><path style="opacity:1" fill="#f4cf3a" d="M 695.5,788.5 C 703.379,788.216 706.212,791.883 704,799.5C 699.522,803.731 695.522,803.398 692,798.5C 690.581,794.082 691.748,790.749 695.5,788.5 Z"/></g>
<g><path style="opacity:1" fill="#f3ca30" d="M 725.5,791.5 C 726.376,791.369 727.043,791.702 727.5,792.5C 737.228,814.991 740.394,838.324 737,862.5C 732.848,841.861 723.681,823.861 709.5,808.5C 714.855,802.813 720.188,797.146 725.5,791.5 Z"/></g>
<g><path style="opacity:1" fill="#f8d137" d="M 591.5,801.5 C 592.239,801.369 592.906,801.536 593.5,802C 608.347,817.014 623.347,831.847 638.5,846.5C 644.652,840.848 650.652,835.015 656.5,829C 660.351,829.642 663.351,831.809 665.5,835.5C 656.5,845.167 647.167,854.5 637.5,863.5C 619.347,845.847 601.347,828.014 583.5,810C 586.371,807.297 589.038,804.464 591.5,801.5 Z"/></g>
<g><path style="opacity:1" fill="#fbd131" d="M 705.5,812.5 C 709.498,815.665 712.998,819.332 716,823.5C 722.97,834.772 728.303,846.772 732,859.5C 734.58,871.797 733.58,883.797 729,895.5C 724.449,907.611 718.116,918.611 710,928.5C 706.242,932.931 701.908,936.598 697,939.5C 696.5,939.333 696,939.167 695.5,939C 700.063,926.226 701.563,913.06 700,899.5C 695.438,878.957 686.938,860.29 674.5,843.5C 684.548,832.785 694.881,822.452 705.5,812.5 Z"/></g>
<g><path style="opacity:1" fill="#fcfcfc" d="M 843.5,819.5 C 863.803,823.494 884.136,827.494 904.5,831.5C 900.785,848.146 895.952,864.48 890,880.5C 889.612,881.428 888.945,882.095 888,882.5C 869.01,874.784 850.177,866.784 831.5,858.5C 835.92,845.577 839.92,832.577 843.5,819.5 Z"/></g>
<g><path style="opacity:1" fill="#fcfcfc" d="M 364.5,823.5 C 366.5,823.5 368.5,823.5 370.5,823.5C 372.613,834.01 375.447,844.343 379,854.5C 379.798,856.259 379.631,857.926 378.5,859.5C 359.581,867.463 340.581,875.129 321.5,882.5C 316.073,867.122 311.739,851.456 308.5,835.5C 327.318,831.605 345.985,827.605 364.5,823.5 Z"/></g>
<g><path style="opacity:1" fill="#fcd131" d="M 669.5,847.5 C 670.496,847.414 671.329,847.748 672,848.5C 687.573,869.219 695.573,892.552 696,918.5C 694.371,939.268 684.538,954.768 666.5,965C 652.822,971.784 638.488,976.117 623.5,978C 634.431,969.981 640.598,959.147 642,945.5C 644.81,925.343 642.144,906.01 634,887.5C 633.333,886.167 633.333,884.833 634,883.5C 646.035,871.632 657.869,859.632 669.5,847.5 Z"/></g>
<g><path style="opacity:1" fill="#f7ce31" d="M 472.5,847.5 C 478.674,858.679 487.007,868.012 497.5,875.5C 492.182,881.319 486.682,886.985 481,892.5C 478.877,887.686 477.211,882.686 476,877.5C 474.243,867.555 473.076,857.555 472.5,847.5 Z"/></g>
<g><path style="opacity:1" fill="#fcfcfc" d="M 380.5,865.5 C 381.5,865.5 382.5,865.5 383.5,865.5C 387.107,877.484 391.607,889.151 397,900.5C 397.667,901.833 397.667,903.167 397,904.5C 381.414,914.709 365.914,925.043 350.5,935.5C 340.779,921.235 332.446,906.069 325.5,890C 326.444,888.523 327.777,887.523 329.5,887C 346.723,880.101 363.723,872.934 380.5,865.5 Z"/></g>
<g><path style="opacity:1" fill="#fcfcfc" d="M 828.5,866.5 C 847.833,873.833 867.167,881.167 886.5,888.5C 880.009,905.149 871.676,920.815 861.5,935.5C 845.742,925.539 830.242,915.205 815,904.5C 814.675,902.447 815.009,900.447 816,898.5C 820.663,888.007 824.83,877.34 828.5,866.5 Z"/></g>
<g><path style="opacity:1" fill="#facf31" d="M 628.5,888.5 C 637.155,900.803 636.322,912.47 626,923.5C 611.605,936.189 594.771,942.355 575.5,942C 593.368,924.299 611.035,906.465 628.5,888.5 Z"/></g>
<g><path style="opacity:1" fill="#f9d136" d="M 590.5,892.5 C 600.351,892.71 602.684,896.876 597.5,905C 589.145,907.152 585.979,903.985 588,895.5C 589.045,894.627 589.878,893.627 590.5,892.5 Z"/></g>
<g><path style="opacity:1" fill="#fad136" d="M 500.5,893.5 C 505.297,893.121 509.964,893.621 514.5,895C 512.998,898.005 511.998,901.171 511.5,904.5C 502.142,903.042 496.475,906.875 494.5,916C 494.892,922.222 498.225,925.055 504.5,924.5C 511.739,923.587 518.739,921.754 525.5,919C 544.81,916.647 554.31,925.147 554,944.5C 549.681,959.911 539.514,967.411 523.5,967C 520.622,966.248 518.622,964.582 517.5,962C 518.177,958.773 519.511,955.94 521.5,953.5C 529.459,956.683 535.959,954.683 541,947.5C 544.018,934.546 538.852,929.38 525.5,932C 515.621,936.509 505.287,938.176 494.5,937C 481.964,929.237 479.13,918.737 486,905.5C 490.149,900.503 494.983,896.503 500.5,893.5 Z"/></g>
<g><path style="opacity:1" fill="#fcfcfc" d="M 399.5,910.5 C 400.496,910.414 401.329,910.748 402,911.5C 408.512,926.025 415.679,940.191 423.5,954C 413.363,965.137 402.863,975.971 392,986.5C 377.428,973.106 364.928,958.106 354.5,941.5C 369.355,930.91 384.355,920.577 399.5,910.5 Z"/></g>
<g><path style="opacity:1" fill="#fcfcfc" d="M 810.5,911.5 C 826.451,921.148 842.117,931.314 857.5,942C 847.465,956.374 836.299,969.874 824,982.5C 812.986,971.653 802.152,960.653 791.5,949.5C 798.374,937.086 804.707,924.419 810.5,911.5 Z"/></g>
<g><path style="opacity:1" fill="#fad031" d="M 636.5,917.5 C 637.821,920.598 638.488,924.098 638.5,928C 639.225,942.183 636.058,955.35 629,967.5C 623.022,973.28 615.855,976.78 607.5,978C 599.167,978.667 590.833,978.667 582.5,978C 571.548,975.356 560.881,971.856 550.5,967.5C 556.652,960.848 562.985,954.348 569.5,948C 589.25,948.233 607.25,942.9 623.5,932C 628.411,927.594 632.745,922.76 636.5,917.5 Z"/></g>
<g><path style="opacity:1" fill="#fcfcfc" d="M 787.5,956.5 C 798.146,966.479 808.479,976.812 818.5,987.5C 806.049,1000.12 792.549,1011.45 778,1021.5C 772.636,1013.63 767.47,1005.63 762.5,997.5C 771.598,984.306 779.931,970.639 787.5,956.5 Z"/></g>
<g><path style="opacity:1" fill="#fbfbfb" d="M 425.5,961.5 C 426.496,961.414 427.329,961.748 428,962.5C 434.771,974.266 441.937,985.766 449.5,997C 444.189,1005.14 438.522,1012.97 432.5,1020.5C 420.108,1011.95 408.441,1002.45 397.5,992C 407.039,981.963 416.373,971.797 425.5,961.5 Z"/></g>
<g><path style="opacity:1" fill="#e62f2f" d="M 604.5,983.5 C 604.832,1029.34 604.499,1075 603.5,1120.5C 566.043,1089.04 532.376,1054.04 502.5,1015.5C 516.887,1000.28 531.721,985.612 547,971.5C 565.15,980.276 584.317,984.276 604.5,983.5 Z"/></g>
<g><path style="opacity:1" fill="#ee6e6e" d="M 604.5,983.5 C 604.833,983.5 605.167,983.5 605.5,983.5C 605.5,1029.5 605.5,1075.5 605.5,1121.5C 604.508,1121.67 603.842,1121.34 603.5,1120.5C 604.499,1075 604.832,1029.34 604.5,983.5 Z"/></g>
<g><path style="opacity:1" fill="#f9f9f9" d="M 452.5,1003.5 C 460.869,1013.85 469.035,1024.52 477,1035.5C 476.537,1038.77 475.204,1041.77 473,1044.5C 461.673,1038.67 450.673,1032.34 440,1025.5C 439.685,1024.09 440.018,1022.76 441,1021.5C 445.104,1015.61 448.938,1009.61 452.5,1003.5 Z"/></g>
<g><path style="opacity:1" fill="#f9f9f9" d="M 757.5,1004.5 C 762.637,1011.15 767.637,1017.98 772.5,1025C 758.322,1034.84 743.155,1043.01 727,1049.5C 726.5,1049.17 726,1048.83 725.5,1048.5C 736.665,1034.16 747.332,1019.49 757.5,1004.5 Z"/></g>
<g><path style="opacity:1" fill="#e6e6e6" d="M 481.5,1042.5 C 484.284,1044.45 486.617,1046.95 488.5,1050C 485.812,1049.99 483.312,1049.16 481,1047.5C 480.616,1045.8 480.782,1044.14 481.5,1042.5 Z"/></g>
</svg>
