<?xml version="1.0" encoding="UTF-8"?>
<svg version="1.1" xmlns="http://www.w3.org/2000/svg" width="30" height="30">
<path d="M0 0 C1.89470816 0.0685495 3.7916834 0.08480372 5.6875 0.0625 C6.68136719 0.05347656 7.67523437 0.04445312 8.69921875 0.03515625 C9.45847656 0.02355469 10.21773437 0.01195313 11 0 C8.99205638 5.03042717 5.767945 5.84673451 1 8 C3.64 9.32 6.28 10.64 9 12 C8.01 12.495 8.01 12.495 7 13 C7.05220703 13.88751953 7.05220703 13.88751953 7.10546875 14.79296875 C7.27323815 19.69023752 7.31859893 23.08879412 4 27 C1.03195583 29.3084788 -2.2526188 29.49208479 -5.96484375 29.3671875 C-9.81651051 28.67226106 -11.54156167 26.93813362 -14 24 C-14.95450205 20.33370075 -15 16.76530576 -15 13 C-15.66 12.67 -16.32 12.34 -17 12 C-14.03 10.68 -11.06 9.36 -8 8 C-8.71027344 7.67386719 -9.42054687 7.34773437 -10.15234375 7.01171875 C-11.07144531 6.57472656 -11.99054687 6.13773437 -12.9375 5.6875 C-13.85402344 5.25824219 -14.77054688 4.82898438 -15.71484375 4.38671875 C-18 3 -18 3 -19 0 C-17.27111445 -0.16955795 -15.54187557 -0.33551514 -13.8125 -0.5 C-12.84957031 -0.5928125 -11.88664063 -0.685625 -10.89453125 -0.78125 C-6.9128635 -1.08215876 -3.8134764 -1.2711588 0 0 Z " fill="#C5AC4B" transform="translate(19,1)"/>
<path d="M0 0 C1.65 0.66 3.3 1.32 5 2 C4.01 2.495 4.01 2.495 3 3 C3.05220703 3.88751953 3.05220703 3.88751953 3.10546875 4.79296875 C3.27323815 9.69023752 3.31859893 13.08879412 0 17 C-2.96804417 19.3084788 -6.2526188 19.49208479 -9.96484375 19.3671875 C-13.81651051 18.67226106 -15.54156167 16.93813362 -18 14 C-18.95450205 10.33370075 -19 6.76530576 -19 3 C-19.66 2.67 -20.32 2.34 -21 2 C-17.76939581 2.55700072 -15.9341777 3.29215122 -14 6 C-13.8125 8.6875 -13.8125 8.6875 -14 11 C-13.34 11 -12.68 11 -12 11 C-11.01 12.485 -11.01 12.485 -10 14 C-8.85111717 12.87811441 -7.70598863 11.75238316 -6.5625 10.625 C-5.92441406 9.99851562 -5.28632813 9.37203125 -4.62890625 8.7265625 C-2.92117824 7.08276939 -2.92117824 7.08276939 -2 5 C-3.98 5.66 -5.96 6.32 -8 7 C-8 6.34 -8 5.68 -8 5 C-9.32 4.34 -10.64 3.68 -12 3 C-10.20909747 2.80533668 -8.41723495 2.61948787 -6.625 2.4375 C-5.12839844 2.28087891 -5.12839844 2.28087891 -3.6015625 2.12109375 C-1 2 -1 2 1 3 C0.67 2.01 0.34 1.02 0 0 Z " fill="#C1C1C1" transform="translate(23,11)"/>
<path d="M0 0 C1.65 0 3.3 0 5 0 C5 0.99 5 1.98 5 3 C4.01 3.33 3.02 3.66 2 4 C2.99 4.66 3.98 5.32 5 6 C4.34 6.66 3.68 7.32 3 8 C2.67 8.66 2.34 9.32 2 10 C2.99 9.34 3.98 8.68 5 8 C5.99 8 6.98 8 8 8 C6.61811547 11.21043882 5.07578097 13.04936365 2.375 15.25 C1.74335938 15.77078125 1.11171875 16.2915625 0.4609375 16.828125 C-0.02117188 17.21484375 -0.50328125 17.6015625 -1 18 C-1.33 16.68 -1.66 15.36 -2 14 C-2.66 14 -3.32 14 -4 14 C-4.0825 13.2575 -4.165 12.515 -4.25 11.75 C-5.1396946 8.48778646 -6.48503749 7.19045122 -9 5 C-7 3 -7 3 -3.9375 2.5 C-2.4834375 2.2525 -2.4834375 2.2525 -1 2 C-0.67 1.34 -0.34 0.68 0 0 Z " fill="#9EA199" transform="translate(13,8)"/>
<path d="M0 0 C0.391875 0.495 0.78375 0.99 1.1875 1.5 C-1.8125 1.5 -1.8125 1.5 -3.8125 0.5 C-3.77125 1.428125 -3.73 2.35625 -3.6875 3.3125 C-3.8125 6.5 -3.8125 6.5 -5.8125 9.5 C-7.1325 9.17 -8.4525 8.84 -9.8125 8.5 C-8.8225 8.17 -7.8325 7.84 -6.8125 7.5 C-7.52277344 7.17386719 -8.23304687 6.84773437 -8.96484375 6.51171875 C-9.88394531 6.07472656 -10.80304687 5.63773437 -11.75 5.1875 C-12.66652344 4.75824219 -13.58304688 4.32898438 -14.52734375 3.88671875 C-16.8125 2.5 -16.8125 2.5 -17.8125 -0.5 C-16.08361445 -0.66955795 -14.35437557 -0.83551514 -12.625 -1 C-11.66207031 -1.0928125 -10.69914063 -1.185625 -9.70703125 -1.28125 C-2.23088417 -1.84624897 -2.23088417 -1.84624897 0 0 Z " fill="#C1B069" transform="translate(17.8125,1.5)"/>
<path d="M0 0 C3.23060419 0.55700072 5.0658223 1.29215122 7 4 C7.1875 6.6875 7.1875 6.6875 7 9 C7.66 9 8.32 9 9 9 C9.99 10.485 9.99 10.485 11 12 C12.98 10.35 14.96 8.7 17 7 C16.34 8.65 15.68 10.3 15 12 C14.34 12 13.68 12 13 12 C13 13.32 13 14.64 13 16 C9.60543766 16.30859658 7.62289441 16.38720463 4.6875 14.5625 C1.96046042 10.42143989 2 5.86266026 2 1 C1.34 0.67 0.68 0.34 0 0 Z " fill="#BDBCBC" transform="translate(2,13)"/>
<path d="M0 0 C0.6875 1.6875 0.6875 1.6875 1 4 C-0.4375 6.75 -0.4375 6.75 -2 9 C-1.67 8.67 -1.34 8.34 -1 8 C2 6 2 6 5 6 C4 9 4 9 2.4375 10.1875 C-1.11122383 11.37040794 -4.26701621 11.12443279 -8 11 C-6.68 10.67 -5.36 10.34 -4 10 C-4 8.68 -4 7.36 -4 6 C-2.5625 4.4375 -2.5625 4.4375 -1 3 C-0.67 2.01 -0.34 1.02 0 0 Z " fill="#DAD7D6" transform="translate(19,19)"/>
<path d="M0 0 C0.33 0.66 0.66 1.32 1 2 C0.01 3.485 0.01 3.485 -1 5 C-1.66 5 -2.32 5 -3 5 C-3 6.32 -3 7.64 -3 9 C-4.98 9 -6.96 9 -9 9 C-9.33 8.01 -9.66 7.02 -10 6 C-9.01 6 -8.02 6 -7 6 C-6.67 5.34 -6.34 4.68 -6 4 C-5.34 4 -4.68 4 -4 4 C-2.62689293 2.70766393 -1.28965176 1.37562854 0 0 Z " fill="#C6A685" transform="translate(18,20)"/>
<path d="M0 0 C-1.38188453 3.21043882 -2.92421903 5.04936365 -5.625 7.25 C-6.57246094 8.03117187 -6.57246094 8.03117187 -7.5390625 8.828125 C-8.02117188 9.21484375 -8.50328125 9.6015625 -9 10 C-9.33 9.01 -9.66 8.02 -10 7 C-8.90536178 5.82438854 -7.79892814 4.6597511 -6.6875 3.5 C-6.07261719 2.8503125 -5.45773438 2.200625 -4.82421875 1.53125 C-3 0 -3 0 0 0 Z " fill="#428195" transform="translate(21,16)"/>
<path d="M0 0 C0.391875 0.495 0.78375 0.99 1.1875 1.5 C-1.8125 1.5 -1.8125 1.5 -3.8125 0.5 C-4.1425 1.49 -4.4725 2.48 -4.8125 3.5 C-5.4725 2.84 -6.1325 2.18 -6.8125 1.5 C-9.48199409 1.25684344 -9.48199409 1.25684344 -12.4375 1.375 C-13.44039062 1.39304688 -14.44328125 1.41109375 -15.4765625 1.4296875 C-16.63285156 1.46449219 -16.63285156 1.46449219 -17.8125 1.5 C-17.8125 0.84 -17.8125 0.18 -17.8125 -0.5 C-16.08361445 -0.66955795 -14.35437557 -0.83551514 -12.625 -1 C-11.66207031 -1.0928125 -10.69914063 -1.185625 -9.70703125 -1.28125 C-2.23088417 -1.84624897 -2.23088417 -1.84624897 0 0 Z " fill="#D6CDA8" transform="translate(17.8125,1.5)"/>
<path d="M0 0 C3.63 0 7.26 0 11 0 C8.92271668 4.15456665 8.06410367 5.11663488 4 7 C3.01 6.67 2.02 6.34 1 6 C1.66 5.67 2.32 5.34 3 5 C2.67 4.34 2.34 3.68 2 3 C3.32 2.67 4.64 2.34 6 2 C3.03 1.505 3.03 1.505 0 1 C0 0.67 0 0.34 0 0 Z " fill="#D6CA9A" transform="translate(19,1)"/>
<path d="M0 0 C3.23060419 0.55700072 5.0658223 1.29215122 7 4 C7.1875 6.6875 7.1875 6.6875 7 9 C6.01 8.67 5.02 8.34 4 8 C3.01 8.495 3.01 8.495 2 9 C2 6.36 2 3.72 2 1 C1.34 0.67 0.68 0.34 0 0 Z " fill="#CBD0CE" transform="translate(2,13)"/>
<path d="M0 0 C1.65 0 3.3 0 5 0 C5 0.99 5 1.98 5 3 C1.3558226 5.4294516 -0.71241272 5.16179575 -5 5 C-5 4.34 -5 3.68 -5 3 C-4.360625 2.87625 -3.72125 2.7525 -3.0625 2.625 C-2.0415625 2.315625 -2.0415625 2.315625 -1 2 C-0.67 1.34 -0.34 0.68 0 0 Z " fill="#60814E" transform="translate(13,8)"/>
<path d="M0 0 C2.475 0.495 2.475 0.495 5 1 C5 1.99 5 2.98 5 4 C3 5.6875 3 5.6875 1 7 C0 6 0 6 -0.0625 2.9375 C-0.041875 1.968125 -0.02125 0.99875 0 0 Z " fill="#D9562D" transform="translate(10,16)"/>
<path d="M0 0 C1.62418745 -0.08090971 3.24951745 -0.13914995 4.875 -0.1875 C5.77992188 -0.22230469 6.68484375 -0.25710937 7.6171875 -0.29296875 C8.79667969 -0.14794922 8.79667969 -0.14794922 10 0 C10.66 0.99 11.32 1.98 12 3 C9.03 2.505 9.03 2.505 6 2 C5.67 2.66 5.34 3.32 5 4 C2.525 3.01 2.525 3.01 0 2 C0 1.34 0 0.68 0 0 Z " fill="#DBC158" transform="translate(1,2)"/>
<path d="M0 0 C2.97 0 5.94 0 9 0 C9.66 1.32 10.32 2.64 11 4 C9.35232753 3.71890887 7.70686855 3.42481474 6.0625 3.125 C4.68771484 2.88136719 4.68771484 2.88136719 3.28515625 2.6328125 C2.53105469 2.42398437 1.77695313 2.21515625 1 2 C0.67 1.34 0.34 0.68 0 0 Z " fill="#B13C3B" transform="translate(14,11)"/>
<path d="M0 0 C0.66 0.33 1.32 0.66 2 1 C2 1.66 2 2.32 2 3 C0.02 3.66 -1.96 4.32 -4 5 C-4 5.66 -4 6.32 -4 7 C-4.66 6.67 -5.32 6.34 -6 6 C-2.25 1.125 -2.25 1.125 0 0 Z " fill="#AFAFAF" transform="translate(22,22)"/>
<path d="M0 0 C0.99 0.33 1.98 0.66 3 1 C3.33 2.65 3.66 4.3 4 6 C3.01 6.33 2.02 6.66 1 7 C0 6 0 6 -0.0625 2.9375 C-0.041875 1.968125 -0.02125 0.99875 0 0 Z " fill="#DCB82A" transform="translate(14,2)"/>
<path d="M0 0 C2.475 0.99 2.475 0.99 5 2 C4.01 2.495 4.01 2.495 3 3 C3 5.97 3 8.94 3 12 C2.67 12 2.34 12 2 12 C1.93941406 11.38511719 1.87882812 10.77023438 1.81640625 10.13671875 C1.73261719 9.32847656 1.64882813 8.52023438 1.5625 7.6875 C1.48128906 6.88699219 1.40007813 6.08648437 1.31640625 5.26171875 C1.04734307 2.83912821 1.04734307 2.83912821 0 0 Z " fill="#EAD7D7" transform="translate(23,11)"/>
</svg>
