<?xml version="1.0" encoding="UTF-8"?>
<!DOCTYPE svg PUBLIC "-//W3C//DTD SVG 1.1//EN" "http://www.w3.org/Graphics/SVG/1.1/DTD/svg11.dtd">
<svg xmlns="http://www.w3.org/2000/svg" version="1.1" width="480px" height="500px" style="shape-rendering:geometricPrecision; text-rendering:geometricPrecision; image-rendering:optimizeQuality; fill-rule:evenodd; clip-rule:evenodd" xmlns:xlink="http://www.w3.org/1999/xlink">
<g><path style="opacity:0.874" fill="#f7f7f7" d="M 220.5,-0.5 C 226.167,-0.5 231.833,-0.5 237.5,-0.5C 238.833,0.833333 240.167,0.833333 241.5,-0.5C 246.833,-0.5 252.167,-0.5 257.5,-0.5C 263.433,3.03929 265.933,8.37262 265,15.5C 271.1,21.4844 270.933,27.3177 264.5,33C 267.082,41.1032 264.415,46.6032 256.5,49.5C 263.455,56.3729 270.788,57.0396 278.5,51.5C 272.326,46.7902 270.993,40.9569 274.5,34C 269.828,27.2114 270.828,21.3781 277.5,16.5C 278.389,5.76324 284.056,1.26324 294.5,3C 297.833,4.33333 301.167,5.66667 304.5,7C 310.564,7.19459 316.564,7.86126 322.5,9C 328.329,13.3442 329.996,19.0109 327.5,26C 331.935,32.4477 331.269,38.2811 325.5,43.5C 324.771,48.8687 322.438,53.3687 318.5,57C 316.833,57.3333 315.167,57.6667 313.5,58C 318.874,65.9046 325.874,67.9046 334.5,64C 325.81,59.7559 323.643,53.2559 328,44.5C 331.998,40.8079 333.665,36.1413 333,30.5C 335.967,24.5401 340.801,21.3734 347.5,21C 351.306,15.9023 356.306,14.2356 362.5,16C 372.729,19.6457 377.562,26.8124 377,37.5C 375.77,40.7323 373.77,43.3989 371,45.5C 370.451,51.6944 367.784,56.6944 363,60.5C 362.248,73.354 356.415,83.0206 345.5,89.5C 350.948,98.7458 348.948,105.912 339.5,111C 340.293,112.085 340.96,113.252 341.5,114.5C 349.472,115.498 357.472,115.831 365.5,115.5C 365.83,210.362 365.496,305.195 364.5,400C 365.577,401.543 366.911,401.543 368.5,400C 374.052,398.804 379.219,399.637 384,402.5C 382.231,397.413 381.065,392.079 380.5,386.5C 380.758,375.408 386.424,369.241 397.5,368C 387.959,362.487 383.792,354.32 385,343.5C 389.473,334.518 396.64,331.351 406.5,334C 408.519,334.45 410.352,335.283 412,336.5C 414.234,334.3 416.734,332.467 419.5,331C 410.603,327.435 402.77,322.269 396,315.5C 388.348,301.146 392.348,292.146 408,288.5C 410.449,288.861 412.782,289.528 415,290.5C 416.167,289.333 417.333,288.167 418.5,287C 411.112,282.944 404.278,278.111 398,272.5C 391.988,266.134 390.321,258.801 393,250.5C 394.315,248.684 395.815,247.017 397.5,245.5C 402.387,243.589 407.387,242.089 412.5,241C 401.798,238.4 392.298,233.566 384,226.5C 378.942,219.855 378.275,212.855 382,205.5C 385.567,202.298 389.734,200.632 394.5,200.5C 393.665,195.439 394.999,191.105 398.5,187.5C 388.065,181.229 380.231,172.562 375,161.5C 371.216,144.956 377.716,137.456 394.5,139C 404.926,144.007 411.426,152.173 414,163.5C 414.864,169.143 415.531,174.81 416,180.5C 422.2,177.34 427.7,178.34 432.5,183.5C 443.403,177.546 451.236,180.213 456,191.5C 457.258,203.403 454.592,214.403 448,224.5C 444.487,229.54 440.987,234.54 437.5,239.5C 438,241.5 438.5,243.5 439,245.5C 444.629,238.736 451.796,235.902 460.5,237C 467.184,239.537 470.517,244.37 470.5,251.5C 469.876,258.872 467.376,265.539 463,271.5C 459.686,275.648 456.186,279.648 452.5,283.5C 453.982,285.483 455.649,287.316 457.5,289C 466.566,287.345 473.899,290.178 479.5,297.5C 479.5,301.5 479.5,305.5 479.5,309.5C 476.484,315.358 472.151,320.191 466.5,324C 459.019,328.577 451.019,331.744 442.5,333.5C 441.921,337.238 441.921,340.904 442.5,344.5C 450.161,339.201 458.495,337.701 467.5,340C 477.765,345.475 479.932,353.308 474,363.5C 465.606,371.45 455.773,376.95 444.5,380C 446.606,384.019 446.94,388.185 445.5,392.5C 452.638,393.982 457.804,397.982 461,404.5C 462.492,414.351 458.659,421.185 449.5,425C 442.353,427.548 435.02,429.382 427.5,430.5C 433.81,431.82 439.143,434.82 443.5,439.5C 447.849,455.339 441.683,463.339 425,463.5C 414.528,462.804 404.362,460.97 394.5,458C 388.167,465.667 381.167,472.667 373.5,479C 375.53,480.896 377.197,483.063 378.5,485.5C 349.508,486.5 320.508,486.833 291.5,486.5C 292.279,491.918 290.613,496.251 286.5,499.5C 255.167,499.5 223.833,499.5 192.5,499.5C 188.387,496.251 186.721,491.918 187.5,486.5C 158.159,486.833 128.826,486.5 99.5,485.5C 101.316,483.183 103.316,481.016 105.5,479C 97.6562,472.322 90.3228,465.156 83.5,457.5C 70.5522,462.911 57.2189,464.411 43.5,462C 33.1606,456.798 30.6606,448.965 36,438.5C 40.2513,434.124 45.418,431.457 51.5,430.5C 43.1707,429.534 35.1707,427.368 27.5,424C 19.3244,419.482 16.1577,412.649 18,403.5C 19.7932,400.705 21.9598,398.205 24.5,396C 27.7204,395.284 30.7204,394.117 33.5,392.5C 31.9654,388.152 32.2987,383.986 34.5,380C 25.4959,377.331 17.1626,373.331 9.5,368C -1.50295,358.091 -1.16962,348.758 10.5,340C 19.8279,337.665 28.4946,339.165 36.5,344.5C 36.9086,340.93 36.9086,337.264 36.5,333.5C 21.01,330.604 8.67662,322.937 -0.5,310.5C -0.5,306.167 -0.5,301.833 -0.5,297.5C 4.7611,289.772 11.9278,287.439 21,290.5C 21.8823,287.448 23.7156,285.114 26.5,283.5C 20.3688,277.204 15.2021,270.204 11,262.5C 7.54543,255.354 7.71209,248.354 11.5,241.5C 15.8147,236.817 21.148,235.317 27.5,237C 32.4463,238.72 36.613,241.554 40,245.5C 40.5,243.5 41,241.5 41.5,239.5C 38.835,234.852 35.6683,230.519 32,226.5C 24.598,215.559 21.598,203.559 23,190.5C 28.1492,180.14 35.8158,177.807 46,183.5C 50.6116,178.319 55.9449,177.319 62,180.5C 63.2335,172.439 64.9002,164.439 67,156.5C 72.0721,144.074 81.2387,138.24 94.5,139C 99.2062,140.105 102.373,142.938 104,147.5C 104.667,152.167 104.667,156.833 104,161.5C 98.7977,172.536 90.9644,181.203 80.5,187.5C 83.8403,191.2 85.1736,195.533 84.5,200.5C 96.5484,201.247 101.382,207.581 99,219.5C 96.5587,225.608 92.3921,230.108 86.5,233C 80.1521,236.45 73.4854,239.116 66.5,241C 67.3339,243.493 69.0006,243.993 71.5,242.5C 84.5852,244.415 89.4185,251.749 86,264.5C 84.0206,268.956 81.1872,272.79 77.5,276C 72.0036,279.916 66.3369,283.582 60.5,287C 61.6667,288.167 62.8333,289.333 64,290.5C 73.8585,287.09 81.1918,290.09 86,299.5C 87.4994,308.341 84.666,315.507 77.5,321C 71.9897,325.168 65.9897,328.502 59.5,331C 62.2664,332.467 64.7664,334.3 67,336.5C 74.0549,332.709 81.2216,332.542 88.5,336C 95.9766,343.651 96.4766,351.817 90,360.5C 87.4634,363.372 84.6301,365.872 81.5,368C 92.3765,369.207 98.0432,375.207 98.5,386C 97.9513,391.751 96.7847,397.251 95,402.5C 100.972,398.943 107.139,398.609 113.5,401.5C 113.833,401 114.167,400.5 114.5,400C 113.504,305.195 113.17,210.362 113.5,115.5C 121.528,115.831 129.528,115.498 137.5,114.5C 138.04,113.252 138.707,112.085 139.5,111C 130.023,105.74 128.023,98.4069 133.5,89C 122.467,82.7811 116.634,73.2811 116,60.5C 115,58.1667 113.333,56.5 111,55.5C 109.053,51.7158 107.72,47.7158 107,43.5C 100.424,37.5411 99.757,30.8744 105,23.5C 110.071,17.2547 116.571,14.7547 124.5,16C 127.362,16.9305 129.695,18.5971 131.5,21C 142.606,22.7734 147.773,29.2734 147,40.5C 156.281,49.5109 155.448,57.3443 144.5,64C 152.905,67.6634 159.905,65.6634 165.5,58C 157.767,56.4067 153.933,51.5734 154,43.5C 147.766,38.2968 146.932,32.2968 151.5,25.5C 148.338,16.48 151.338,10.6467 160.5,8C 168.701,8.45557 176.368,6.7889 183.5,3C 193.955,1.45065 199.788,5.95065 201,16.5C 208.141,21.1256 209.308,26.9589 204.5,34C 208.237,41.5246 206.57,47.5246 199.5,52C 207.925,56.9727 215.591,55.9727 222.5,49C 219.966,48.4837 217.8,47.317 216,45.5C 214.481,38.0937 212.314,30.927 209.5,24C 209.621,20.5917 210.954,17.7583 213.5,15.5C 212.994,8.72068 215.327,3.38734 220.5,-0.5 Z M 358.5,411.5 C 358.621,420.07 361.287,427.737 366.5,434.5C 327.838,435.333 289.171,435.833 250.5,436C 249.789,437.255 248.956,438.421 248,439.5C 247.501,443.821 247.334,448.154 247.5,452.5C 242.167,452.5 236.833,452.5 231.5,452.5C 231.666,448.154 231.499,443.821 231,439.5C 230.044,438.421 229.211,437.255 228.5,436C 189.5,435.667 150.5,435.333 111.5,435C 118.197,427.776 121.03,419.276 120,409.5C 125.333,414.915 131.833,417.748 139.5,418C 167.5,418.333 195.5,418.667 223.5,419C 225.333,420.167 227.167,421.333 229,422.5C 232.248,428.664 235.748,434.664 239.5,440.5C 243.239,434.696 246.739,428.696 250,422.5C 251.918,421.458 253.751,420.292 255.5,419C 283.5,418.667 311.5,418.333 339.5,418C 346.468,417.508 352.801,415.341 358.5,411.5 Z M 395.5,418.5 C 400.092,420.44 400.925,423.106 398,426.5C 397.059,423.846 396.226,421.179 395.5,418.5 Z M 82.5,419.5 C 82.7529,421.827 82.0863,423.827 80.5,425.5C 78.2642,422.938 78.9308,420.938 82.5,419.5 Z M 62.5,430.5 C 63.4971,429.287 64.4971,429.454 65.5,431C 64.4232,431.47 63.4232,431.303 62.5,430.5 Z M 414.5,429.5 C 418.339,429.612 418.339,430.279 414.5,431.5C 413.537,431.03 413.537,430.363 414.5,429.5 Z M 102.5,444.5 C 108.584,449.744 114.584,455.244 120.5,461C 118.787,462.378 117.453,464.045 116.5,466C 109.585,462.117 103.419,456.95 98,450.5C 99.1378,448.487 100.638,446.487 102.5,444.5 Z M 374.5,444.5 C 376.932,445.75 379.266,447.25 381.5,449C 375.991,455.509 369.824,461.342 363,466.5C 361.5,464.667 360,462.833 358.5,461C 364.036,455.631 369.37,450.131 374.5,444.5 Z"/></g>
<g><path style="opacity:1" fill="#100d06" d="M 337.5,120.5 C 344.648,121.492 351.981,121.825 359.5,121.5C 359.5,211.833 359.5,302.167 359.5,392.5C 358.911,403.925 352.911,410.425 341.5,412C 312.5,412.333 283.5,412.667 254.5,413C 247.295,416.038 242.295,421.205 239.5,428.5C 236.503,420.333 230.836,415.166 222.5,413C 193.5,412.667 164.5,412.333 135.5,412C 125.663,409.667 120.33,403.5 119.5,393.5C 119.5,302.833 119.5,212.167 119.5,121.5C 127.352,121.825 135.018,121.492 142.5,120.5C 142.357,118.738 142.691,117.071 143.5,115.5C 145.167,114.5 146.5,113.167 147.5,111.5C 146.423,109.271 145.756,106.937 145.5,104.5C 138.175,105.008 135.342,101.674 137,94.5C 140.509,90.8877 144.676,88.3877 149.5,87C 137.158,86.6435 128.658,80.8102 124,69.5C 122.744,64.5518 121.744,59.5518 121,54.5C 115.232,52.652 112.899,48.652 114,42.5C 104.538,34.0808 105.705,27.2475 117.5,22C 119.5,21.3333 121.5,21.3333 123.5,22C 127.008,26.5603 131.675,28.8937 137.5,29C 138.333,29.8333 139.167,30.6667 140,31.5C 140.333,35.1667 140.667,38.8333 141,42.5C 151.023,51.8631 149.189,57.5298 135.5,59.5C 140.847,72.4518 149.847,75.6184 162.5,69C 169.742,64.4429 173.575,57.9429 174,49.5C 164.039,55.2374 159.373,52.2374 160,40.5C 157.046,39.2182 155.213,37.0516 154.5,34C 155.241,31.1938 156.241,28.5271 157.5,26C 155.576,21.4467 156.243,17.4467 159.5,14C 168.288,14.4476 176.622,12.7809 184.5,9C 188.274,7.8175 191.441,8.65083 194,11.5C 194.794,14.4715 195.461,17.4715 196,20.5C 197.419,21.4601 198.919,22.2935 200.5,23C 201.081,23.8926 201.415,24.8926 201.5,26C 200.901,28.6921 199.901,31.1921 198.5,33.5C 202.704,43.3162 199.371,47.9828 188.5,47.5C 194.753,58.4582 204.086,62.6249 216.5,60C 224.701,57.2984 230.035,51.7984 232.5,43.5C 229.283,43.3418 225.95,43.1751 222.5,43C 219.342,39.9243 218.675,36.2576 220.5,32C 218.394,29.5704 216.727,26.9037 215.5,24C 216.162,21.3239 217.662,19.1572 220,17.5C 220.333,14.1667 220.667,10.8333 221,7.5C 222.255,5.40616 224.088,4.40616 226.5,4.5C 234.833,5.83333 243.167,5.83333 251.5,4.5C 254.111,4.55592 256.278,5.55592 258,7.5C 257.335,13.1413 259.002,17.8079 263,21.5C 264.334,25.4854 263.001,28.1521 259,29.5C 259.278,33.1394 259.278,36.8061 259,40.5C 255.372,43.8059 251.206,44.4726 246.5,42.5C 251.104,57.2244 261.104,63.0578 276.5,60C 282.584,57.4162 287.25,53.2495 290.5,47.5C 279.281,48.2948 275.948,43.6281 280.5,33.5C 280.297,31.7923 279.464,30.459 278,29.5C 277.333,27.5 277.333,25.5 278,23.5C 282.486,21.6763 284.486,18.343 284,13.5C 285.713,8.96199 288.88,7.46199 293.5,9C 301.355,12.8619 309.688,14.5286 318.5,14C 319.931,14.4652 321.097,15.2986 322,16.5C 322.592,19.6944 322.426,22.8611 321.5,26C 322.759,28.5271 323.759,31.1938 324.5,34C 323.787,37.0516 321.954,39.2182 319,40.5C 319.375,51.8233 314.709,54.8233 305,49.5C 306.454,62.624 313.787,70.2906 327,72.5C 335.665,71.9862 341.165,67.6529 343.5,59.5C 339.869,59.8396 336.536,59.0063 333.5,57C 331.718,54.7569 331.218,52.2569 332,49.5C 333.626,46.8723 335.626,44.539 338,42.5C 335.975,32.2011 340.141,27.0344 350.5,27C 354.379,20.962 359.379,19.962 365.5,24C 373.654,30.4132 373.488,36.5799 365,42.5C 364.667,45.1667 364.333,47.8333 364,50.5C 362.491,52.9193 360.325,53.9193 357.5,53.5C 358.324,72.4148 349.658,83.9148 331.5,88C 335.607,89.25 339.107,91.4167 342,94.5C 343.594,101.42 340.761,105.087 333.5,105.5C 332.735,107.295 332.068,109.128 331.5,111C 334.211,113.845 336.211,117.011 337.5,120.5 Z"/></g>
<g><path style="opacity:1" fill="#ebc60f" d="M 193.5,59.5 C 192.527,61.9479 192.194,64.6146 192.5,67.5C 189.853,65.1891 187.186,62.8558 184.5,60.5C 175.868,78.6509 161.534,85.9843 141.5,82.5C 141.5,79.5 141.5,76.5 141.5,73.5C 155.894,77.5346 167.061,73.2013 175,60.5C 177.103,55.698 178.269,50.698 178.5,45.5C 173.939,46.9072 169.272,47.9072 164.5,48.5C 164.665,45.4816 164.498,42.4816 164,39.5C 161.894,37.5397 159.727,35.7064 157.5,34C 160.693,29.8037 161.36,25.1371 159.5,20C 159.755,18.6739 160.422,17.6739 161.5,17C 170.654,17.3776 179.32,15.5442 187.5,11.5C 189.029,11.5288 190.196,12.1955 191,13.5C 191.333,15.8333 191.667,18.1667 192,20.5C 194.046,22.3761 195.879,24.3761 197.5,26.5C 196.271,28.5622 195.271,30.7289 194.5,33C 196.038,36.0212 196.538,39.1878 196,42.5C 191.934,43.4637 187.767,43.797 183.5,43.5C 185.303,49.7696 188.637,55.1029 193.5,59.5 Z"/></g>
<g><path style="opacity:1" fill="#f3e101" d="M 330.5,75.5 C 332.369,77.6353 333.036,80.3019 332.5,83.5C 314.523,84.5152 301.857,76.8485 294.5,60.5C 283.25,73.0411 269.917,75.8745 254.5,69C 250.051,66.7157 246.384,63.5491 243.5,59.5C 244.088,56.3896 244.755,53.3896 245.5,50.5C 253.084,62.1125 263.751,66.2791 277.5,63C 286.366,59.634 292.366,53.4673 295.5,44.5C 291.217,43.5078 286.884,43.1744 282.5,43.5C 282.36,39.8358 283.027,36.3358 284.5,33C 283.822,30.4761 282.488,28.3095 280.5,26.5C 285.568,23.702 288.068,19.3687 288,13.5C 288.804,12.1955 289.971,11.5288 291.5,11.5C 299.589,15.7298 308.256,17.5631 317.5,17C 318,17.5 318.5,18 319,18.5C 319.442,21.3053 318.942,23.9719 317.5,26.5C 318.242,28.9798 319.242,31.3131 320.5,33.5C 319.143,35.8011 317.31,37.8011 315,39.5C 314.502,42.4816 314.335,45.4816 314.5,48.5C 309.968,48.4032 305.635,47.4032 301.5,45.5C 301.569,64.5718 311.236,74.5718 330.5,75.5 Z"/></g>
<g><path style="opacity:1" fill="#160d02" d="M 181.5,20.5 C 186.182,20.8664 187.516,23.1997 185.5,27.5C 185.804,29.4405 186.637,31.1072 188,32.5C 188.667,33.8333 188.667,35.1667 188,36.5C 182.482,37.4819 176.982,38.3152 171.5,39C 170.933,34.5369 169.933,30.2036 168.5,26C 168.833,25.1667 169.167,24.3333 169.5,23.5C 173.78,23.0791 177.78,22.0791 181.5,20.5 Z"/></g>
<g><path style="opacity:1" fill="#170f03" d="M 293.5,20.5 C 298.368,21.8764 303.368,22.7098 308.5,23C 309,23.5 309.5,24 310,24.5C 309.172,29.2321 308.339,34.0654 307.5,39C 301.977,38.4549 296.477,37.6216 291,36.5C 290.333,35.1667 290.333,33.8333 291,32.5C 292.363,31.1072 293.196,29.4405 293.5,27.5C 292.179,25.1475 292.179,22.8141 293.5,20.5 Z"/></g>
<g><path style="opacity:1" fill="#d61920" d="M 180.5,24.5 C 182.075,27.3745 183.408,30.5411 184.5,34C 181.146,34.4552 177.813,34.9552 174.5,35.5C 174.896,32.5178 174.229,29.8511 172.5,27.5C 175.276,26.4852 177.943,25.4852 180.5,24.5 Z"/></g>
<g><path style="opacity:1" fill="#d71920" d="M 296.5,24.5 C 299.668,25.8638 303.001,26.6972 306.5,27C 304.821,29.5645 304.154,32.3979 304.5,35.5C 301.126,35.3256 297.793,34.8256 294.5,34C 296.227,31.0964 296.893,27.9297 296.5,24.5 Z"/></g>
<g><path style="opacity:1" fill="#cdac1b" d="M 349.5,46.5 C 348.555,41.5947 348.221,36.5947 348.5,31.5C 347.167,31.5 345.833,31.5 344.5,31.5C 346.631,30.6862 348.964,30.1862 351.5,30C 353.53,27.7661 355.863,25.9327 358.5,24.5C 363.076,26.0739 366.409,29.0739 368.5,33.5C 366.517,35.9837 364.35,38.3171 362,40.5C 360.142,37.5878 357.642,36.0878 354.5,36C 353.301,39.7845 351.635,43.2845 349.5,46.5 Z"/></g>
<g><path style="opacity:1" fill="#f0da06" d="M 245.5,50.5 C 244.755,53.3896 244.088,56.3896 243.5,59.5C 242.549,57.882 241.216,56.5487 239.5,55.5C 230.054,68.389 217.387,73.889 201.5,72C 198.194,71.0138 195.194,69.5138 192.5,67.5C 192.194,64.6146 192.527,61.9479 193.5,59.5C 202.889,64.2252 212.556,64.7252 222.5,61C 230.476,56.5083 235.143,49.6749 236.5,40.5C 237.043,40.44 237.376,40.1067 237.5,39.5C 235.027,38.2031 232.693,38.2031 230.5,39.5C 228.236,40.2186 225.903,40.552 223.5,40.5C 223.666,36.4862 223.499,32.4862 223,28.5C 218.506,25.2631 218.506,21.9297 223,18.5C 223.333,15.5 223.667,12.5 224,9.5C 224.804,8.19551 225.971,7.52884 227.5,7.5C 235.314,10.0865 243.147,10.0865 251,7.5C 252.711,7.43928 254.044,8.10595 255,9.5C 255.333,12.8333 255.667,16.1667 256,19.5C 260.667,22.5 260.667,25.5 256,28.5C 255.501,32.4862 255.334,36.4862 255.5,40.5C 251.547,40.5357 247.714,39.869 244,38.5C 243.167,38.8333 242.333,39.1667 241.5,39.5C 242.84,43.1902 244.174,46.8569 245.5,50.5 Z"/></g>
<g><path style="opacity:1" fill="#150b02" d="M 231.5,15.5 C 236.828,16.5681 242.162,16.7348 247.5,16C 247.52,21.1156 247.686,26.2823 248,31.5C 242.562,31.4129 237.062,31.5796 231.5,32C 231.435,26.5032 231.435,21.0032 231.5,15.5 Z"/></g>
<g><path style="opacity:1" fill="#e61b23" d="M 234.5,20.5 C 237.64,19.3592 240.973,19.1925 244.5,20C 243.8,23.1948 243.467,26.3614 243.5,29.5C 240.634,28.2054 237.801,28.2054 235,29.5C 235.547,26.3539 235.381,23.3539 234.5,20.5 Z"/></g>
<g><path style="opacity:1" fill="#716702" d="M 230.5,39.5 C 232.693,38.2031 235.027,38.2031 237.5,39.5C 237.376,40.1067 237.043,40.44 236.5,40.5C 234.735,39.5386 232.735,39.2053 230.5,39.5 Z"/></g>
<g><path style="opacity:1" fill="#b7191e" d="M 121.5,40.5 C 122.946,43.1269 124.613,45.7936 126.5,48.5C 124.754,49.3953 122.92,50.062 121,50.5C 118.942,49.9422 117.775,48.6089 117.5,46.5C 118.432,44.2345 119.765,42.2345 121.5,40.5 Z"/></g>
<g><path style="opacity:1" fill="#b6191e" d="M 355.5,40.5 C 361.062,42.1548 362.395,45.3215 359.5,50C 356.955,50.6146 354.622,50.1146 352.5,48.5C 354.623,46.2546 355.623,43.5879 355.5,40.5 Z"/></g>
<g><path style="opacity:1" fill="#d9bb13" d="M 344.5,31.5 C 345.833,31.5 347.167,31.5 348.5,31.5C 348.221,36.5947 348.555,41.5947 349.5,46.5C 348.089,50.7722 349.756,52.7722 354.5,52.5C 353.935,60.6464 351.768,68.3131 348,75.5C 343.957,80.3474 338.791,83.014 332.5,83.5C 333.036,80.3019 332.369,77.6353 330.5,75.5C 339.85,73.3193 345.85,67.4859 348.5,58C 344.54,56.9087 340.54,55.9087 336.5,55C 335.919,54.1074 335.585,53.1074 335.5,52C 336.881,48.937 338.714,46.1037 341,43.5C 341.333,40.1667 341.667,36.8333 342,33.5C 342.708,32.6195 343.542,31.9528 344.5,31.5 Z"/></g>
<g><path style="opacity:1" fill="#d1a423" d="M 141.5,73.5 C 141.5,76.5 141.5,79.5 141.5,82.5C 136.025,80.8637 131.858,77.5304 129,72.5C 126.553,66.0466 125.053,59.3799 124.5,52.5C 127.571,53.0755 129.571,51.9088 130.5,49C 127.488,45.8013 125.988,41.9679 126,37.5C 125.261,36.4258 124.261,35.7591 123,35.5C 120.702,36.9611 118.535,38.6278 116.5,40.5C 115.472,38.6385 113.972,37.3052 112,36.5C 110.813,34.9556 110.48,33.2889 111,31.5C 113.489,28.1676 116.656,25.8343 120.5,24.5C 123.137,25.9327 125.47,27.7661 127.5,30C 129.833,30.3333 132.167,30.6667 134.5,31C 135.701,31.9025 136.535,33.0692 137,34.5C 136.102,40.7734 138.102,45.7734 143,49.5C 143.97,52.8265 142.803,54.9932 139.5,56C 136.518,56.498 133.518,56.6646 130.5,56.5C 131.415,64.0082 135.082,69.6749 141.5,73.5 Z"/></g>
<g><path style="opacity:1" fill="#e9bc03" d="M 251.5,70.5 C 243.5,71.8333 235.5,71.8333 227.5,70.5C 231.773,67.5665 235.773,64.2332 239.5,60.5C 242.752,64.7843 246.752,68.1176 251.5,70.5 Z"/></g>
<g><path style="opacity:1" fill="#deb303" d="M 184.5,66.5 C 189.153,69.8296 194.153,72.663 199.5,75C 191.126,76.5162 182.793,77.8495 174.5,79C 178.831,75.5161 182.164,71.3495 184.5,66.5 Z"/></g>
<g><path style="opacity:1" fill="#ddb203" d="M 292.5,66.5 C 295.25,69.4315 297.916,72.5981 300.5,76C 302.5,77.3333 304.5,78.6667 306.5,80C 297.602,78.2377 288.602,76.5711 279.5,75C 284.549,73.1498 288.883,70.3164 292.5,66.5 Z"/></g>
<g><path style="opacity:1" fill="#574702" d="M 227.5,70.5 C 235.5,71.8333 243.5,71.8333 251.5,70.5C 252.289,70.7828 252.956,71.2828 253.5,72C 244.167,72.6667 234.833,72.6667 225.5,72C 226.044,71.2828 226.711,70.7828 227.5,70.5 Z"/></g>
<g><path style="opacity:1" fill="#e6c111" d="M 221.5,75.5 C 219.393,76.4682 217.059,76.8016 214.5,76.5C 214.5,78.8333 214.5,81.1667 214.5,83.5C 196.993,85.8799 179.659,89.5465 162.5,94.5C 161.233,91.9387 161.233,89.272 162.5,86.5C 181.667,80.4006 201.333,76.7339 221.5,75.5 Z"/></g>
<g><path style="opacity:1" fill="#f2df02" d="M 221.5,75.5 C 251.054,73.5989 280.054,76.5989 308.5,84.5C 308.5,86.8333 308.5,89.1667 308.5,91.5C 307.5,91.5 306.5,91.5 305.5,91.5C 275.602,84.16 245.269,81.4934 214.5,83.5C 214.5,81.1667 214.5,78.8333 214.5,76.5C 217.059,76.8016 219.393,76.4682 221.5,75.5 Z"/></g>
<g><path style="opacity:1" fill="#e4b803" d="M 215.5,86.5 C 220.511,86.3341 225.511,86.5007 230.5,87C 229.22,89.1317 229.22,91.2984 230.5,93.5C 225.177,94.5543 219.843,95.0543 214.5,95C 216.349,93.907 218.016,92.5737 219.5,91C 217.623,89.8147 215.623,88.8147 213.5,88C 214.416,87.7216 215.082,87.2216 215.5,86.5 Z"/></g>
<g><path style="opacity:1" fill="#e31a22" d="M 235.5,86.5 C 238.649,86.2114 241.649,86.7114 244.5,88C 245.747,89.4936 245.747,90.9936 244.5,92.5C 241.167,93.8333 237.833,93.8333 234.5,92.5C 233.23,90.2432 233.564,88.2432 235.5,86.5 Z"/></g>
<g><path style="opacity:1" fill="#e2b603" d="M 248.5,87.5 C 254.037,86.3415 259.704,86.5082 265.5,88C 263.051,88.7246 260.717,89.7246 258.5,91C 260.5,92.3333 262.5,93.6667 264.5,95C 259.05,95.755 253.717,95.255 248.5,93.5C 249.754,91.3569 249.754,89.3569 248.5,87.5 Z"/></g>
<g><path style="opacity:1" fill="#cf181f" d="M 205.5,89.5 C 214.106,89.9706 214.606,91.9706 207,95.5C 204.964,95.0464 203.13,94.2131 201.5,93C 203.093,92.0513 204.426,90.8846 205.5,89.5 Z"/></g>
<g><path style="opacity:1" fill="#cb181e" d="M 268.5,89.5 C 272.162,89.0026 275.162,90.1693 277.5,93C 275.541,93.9309 273.541,94.7643 271.5,95.5C 269.228,94.5589 267.228,93.2255 265.5,91.5C 266.602,90.8243 267.602,90.1577 268.5,89.5 Z"/></g>
<g><path style="opacity:1" fill="#d6b716" d="M 308.5,84.5 C 318.852,86.8935 328.685,90.5601 338,95.5C 339.5,100.667 337.667,102.5 332.5,101C 323.429,97.7004 314.429,94.5337 305.5,91.5C 306.5,91.5 307.5,91.5 308.5,91.5C 308.5,89.1667 308.5,86.8333 308.5,84.5 Z"/></g>
<g><path style="opacity:1" fill="#cea025" d="M 162.5,86.5 C 161.233,89.272 161.233,91.9387 162.5,94.5C 156.337,97.0022 150.003,99.3356 143.5,101.5C 138.35,98.9882 138.35,96.1548 143.5,93C 149.854,90.8192 156.188,88.6526 162.5,86.5 Z"/></g>
<g><path style="opacity:1" fill="#dfb403" d="M 194.5,89.5 C 196.527,89.3379 198.527,89.5045 200.5,90C 198.5,91.3333 196.5,92.6667 194.5,94C 196.833,95 199.167,96 201.5,97C 196.864,98.0666 192.198,98.8999 187.5,99.5C 187.838,96.8431 187.171,94.5098 185.5,92.5C 188.656,91.6162 191.656,90.6162 194.5,89.5 Z"/></g>
<g><path style="opacity:1" fill="#dcb103" d="M 278.5,90.5 C 283.495,89.6421 288.495,90.3087 293.5,92.5C 291.829,94.5098 291.162,96.8431 291.5,99.5C 286.73,99.3083 282.063,98.4749 277.5,97C 279.635,95.6189 281.968,94.6189 284.5,94C 282.609,92.5576 280.609,91.3909 278.5,90.5 Z"/></g>
<g><path style="opacity:1" fill="#d0191f" d="M 175.5,94.5 C 177.857,94.3367 180.19,94.5034 182.5,95C 183.554,96.3876 183.72,97.8876 183,99.5C 179.859,102.295 176.359,102.962 172.5,101.5C 171.386,100.277 171.219,98.9437 172,97.5C 173.145,96.3636 174.312,95.3636 175.5,94.5 Z"/></g>
<g><path style="opacity:1" fill="#cc181f" d="M 295.5,94.5 C 298.978,94.1842 302.312,94.6842 305.5,96C 308.446,99.4911 307.612,101.658 303,102.5C 299.201,102.025 296.367,100.192 294.5,97C 294.743,96.0979 295.077,95.2646 295.5,94.5 Z"/></g>
<g><path style="opacity:1" fill="#e1b503" d="M 163.5,97.5 C 164.833,97.5 166.167,97.5 167.5,97.5C 167.081,100.325 168.081,102.491 170.5,104C 165.522,105.437 160.689,107.271 156,109.5C 155.5,109.333 155,109.167 154.5,109C 156.351,107.316 158.018,105.483 159.5,103.5C 157.234,102.686 154.9,102.186 152.5,102C 156.307,100.572 159.974,99.0716 163.5,97.5 Z"/></g>
<g><path style="opacity:1" fill="#f4e302" d="M 226.5,97.5 C 251.593,96.5767 276.26,99.2434 300.5,105.5C 300.5,107.833 300.5,110.167 300.5,112.5C 299.167,112.5 297.833,112.5 296.5,112.5C 272.14,107.192 247.473,104.859 222.5,105.5C 221.167,105.5 219.833,105.5 218.5,105.5C 218.338,103.473 218.505,101.473 219,99.5C 221.607,98.8767 224.107,98.21 226.5,97.5 Z"/></g>
<g><path style="opacity:1" fill="#dbb003" d="M 310.5,96.5 C 315.773,98.4245 321.106,100.258 326.5,102C 323.833,102.333 321.167,102.667 318.5,103C 320.5,105 322.5,107 324.5,109C 319.072,107.97 313.739,106.304 308.5,104C 310.278,101.865 310.945,99.3646 310.5,96.5 Z"/></g>
<g><path style="opacity:1" fill="#ebc90d" d="M 226.5,97.5 C 224.107,98.21 221.607,98.8767 219,99.5C 218.505,101.473 218.338,103.473 218.5,105.5C 219.833,105.5 221.167,105.5 222.5,105.5C 208.494,107.03 194.494,109.364 180.5,112.5C 178.656,110.721 177.99,108.388 178.5,105.5C 194.169,101.07 210.169,98.4036 226.5,97.5 Z"/></g>
<g><path style="opacity:1" fill="#a8171c" d="M 149.5,105.5 C 152.957,105.667 153.29,106.667 150.5,108.5C 149.614,107.675 149.281,106.675 149.5,105.5 Z"/></g>
<g><path style="opacity:1" fill="#a7171c" d="M 325.5,106.5 C 326.568,105.566 327.901,105.232 329.5,105.5C 329.719,106.675 329.386,107.675 328.5,108.5C 327.482,107.807 326.482,107.141 325.5,106.5 Z"/></g>
<g><path style="opacity:1" fill="#e6cc0b" d="M 300.5,105.5 C 305.745,106.721 310.745,108.387 315.5,110.5C 316.01,113.388 315.344,115.721 313.5,117.5C 307.68,116.001 302.013,114.334 296.5,112.5C 297.833,112.5 299.167,112.5 300.5,112.5C 300.5,110.167 300.5,107.833 300.5,105.5 Z"/></g>
<g><path style="opacity:1" fill="#d2a620" d="M 178.5,105.5 C 177.99,108.388 178.656,110.721 180.5,112.5C 173.359,115.22 166.026,117.72 158.5,120C 154.129,120.828 149.795,120.661 145.5,119.5C 146.032,117.259 147.365,115.759 149.5,115C 158.883,110.928 168.55,107.761 178.5,105.5 Z"/></g>
<g><path style="opacity:1" fill="#d31a20" d="M 224.5,109.5 C 225.833,109.5 227.167,109.5 228.5,109.5C 228.5,113.167 228.5,116.833 228.5,120.5C 227.167,120.5 225.833,120.5 224.5,120.5C 224.5,116.833 224.5,113.167 224.5,109.5 Z"/></g>
<g><path style="opacity:1" fill="#e91b23" d="M 233.5,108.5 C 234.5,108.5 235.5,108.5 236.5,108.5C 236.5,112.5 236.5,116.5 236.5,120.5C 235.5,120.5 234.5,120.5 233.5,120.5C 233.5,116.5 233.5,112.5 233.5,108.5 Z"/></g>
<g><path style="opacity:1" fill="#d11920" d="M 242.5,108.5 C 243.5,108.5 244.5,108.5 245.5,108.5C 245.5,112.5 245.5,116.5 245.5,120.5C 244.167,120.5 242.833,120.5 241.5,120.5C 241.237,116.4 241.57,112.4 242.5,108.5 Z"/></g>
<g><path style="opacity:1" fill="#d41921" d="M 250.5,109.5 C 251.833,109.5 253.167,109.5 254.5,109.5C 254.5,113.167 254.5,116.833 254.5,120.5C 253.167,120.5 251.833,120.5 250.5,120.5C 250.5,116.833 250.5,113.167 250.5,109.5 Z"/></g>
<g><path style="opacity:1" fill="#d21a21" d="M 215.5,109.5 C 216.822,109.33 217.989,109.663 219,110.5C 219.498,113.817 219.665,117.15 219.5,120.5C 218.167,120.5 216.833,120.5 215.5,120.5C 215.5,116.833 215.5,113.167 215.5,109.5 Z"/></g>
<g><path style="opacity:1" fill="#d51a21" d="M 260.5,109.5 C 261.496,109.414 262.329,109.748 263,110.5C 263.498,113.817 263.665,117.15 263.5,120.5C 262.167,120.5 260.833,120.5 259.5,120.5C 259.244,116.731 259.577,113.064 260.5,109.5 Z"/></g>
<g><path style="opacity:1" fill="#d01b21" d="M 207.5,110.5 C 208.496,110.414 209.329,110.748 210,111.5C 210.498,114.482 210.665,117.482 210.5,120.5C 209.167,120.5 207.833,120.5 206.5,120.5C 206.253,117.061 206.586,113.728 207.5,110.5 Z"/></g>
<g><path style="opacity:1" fill="#d01921" d="M 269.5,110.5 C 270.496,110.414 271.329,110.748 272,111.5C 272.498,114.482 272.665,117.482 272.5,120.5C 271.167,120.5 269.833,120.5 268.5,120.5C 268.253,117.061 268.586,113.728 269.5,110.5 Z"/></g>
<g><path style="opacity:1" fill="#d11c22" d="M 197.5,112.5 C 198.833,112.5 200.167,112.5 201.5,112.5C 201.5,115.167 201.5,117.833 201.5,120.5C 200.167,120.5 198.833,120.5 197.5,120.5C 197.5,117.833 197.5,115.167 197.5,112.5 Z"/></g>
<g><path style="opacity:1" fill="#ce1a21" d="M 277.5,112.5 C 278.833,112.5 280.167,112.5 281.5,112.5C 281.5,115.167 281.5,117.833 281.5,120.5C 280.167,120.5 278.833,120.5 277.5,120.5C 277.5,117.833 277.5,115.167 277.5,112.5 Z"/></g>
<g><path style="opacity:1" fill="#d3b219" d="M 315.5,110.5 C 321.03,111.9 326.364,113.9 331.5,116.5C 332.415,117.328 333.081,118.328 333.5,119.5C 326.459,121.191 319.793,120.525 313.5,117.5C 315.344,115.721 316.01,113.388 315.5,110.5 Z"/></g>
<g><path style="opacity:1" fill="#ce1c22" d="M 188.5,114.5 C 189.833,114.5 191.167,114.5 192.5,114.5C 192.5,116.5 192.5,118.5 192.5,120.5C 191.167,120.5 189.833,120.5 188.5,120.5C 188.5,118.5 188.5,116.5 188.5,114.5 Z"/></g>
<g><path style="opacity:1" fill="#cb1a21" d="M 286.5,114.5 C 287.833,114.5 289.167,114.5 290.5,114.5C 290.5,116.5 290.5,118.5 290.5,120.5C 289.167,120.5 287.833,120.5 286.5,120.5C 286.5,118.5 286.5,116.5 286.5,114.5 Z"/></g>
<g><path style="opacity:1" fill="#d91c23" d="M 295.5,116.5 C 296.5,116.5 297.5,116.5 298.5,116.5C 298.5,117.833 298.5,119.167 298.5,120.5C 297.5,120.5 296.5,120.5 295.5,120.5C 295.5,119.167 295.5,117.833 295.5,116.5 Z"/></g>
<g><path style="opacity:1" fill="#ca1e23" d="M 171.5,118.5 C 172.675,118.281 173.675,118.614 174.5,119.5C 172.948,120.798 171.948,120.465 171.5,118.5 Z"/></g>
<g><path style="opacity:1" fill="#c41c22" d="M 179.5,116.5 C 180.833,116.5 182.167,116.5 183.5,116.5C 183.5,117.833 183.5,119.167 183.5,120.5C 182.167,120.5 180.833,120.5 179.5,120.5C 179.5,119.167 179.5,117.833 179.5,116.5 Z"/></g>
<g><path style="opacity:1" fill="#cb1b21" d="M 304.5,118.5 C 305.675,118.281 306.675,118.614 307.5,119.5C 305.948,120.798 304.948,120.465 304.5,118.5 Z"/></g>
<g><path style="opacity:1" fill="#3e3e3e" d="M 142.5,120.5 C 135.018,121.492 127.352,121.825 119.5,121.5C 119.5,212.167 119.5,302.833 119.5,393.5C 118.501,302.668 118.167,211.668 118.5,120.5C 126.5,120.5 134.5,120.5 142.5,120.5 Z"/></g>
<g><path style="opacity:1" fill="#4e4e4e" d="M 337.5,120.5 C 345.167,120.5 352.833,120.5 360.5,120.5C 360.833,211.335 360.499,302.002 359.5,392.5C 359.5,302.167 359.5,211.833 359.5,121.5C 351.981,121.825 344.648,121.492 337.5,120.5 Z"/></g>
<g><path style="opacity:1" fill="#c5a323" d="M 183.5,124.5 C 181.758,127.145 181.091,130.145 181.5,133.5C 189.833,133.5 198.167,133.5 206.5,133.5C 206.5,133.833 206.5,134.167 206.5,134.5C 181.833,134.5 157.167,134.5 132.5,134.5C 132.5,150.167 132.5,165.833 132.5,181.5C 203.833,181.5 275.167,181.5 346.5,181.5C 341.36,182.488 336.026,182.821 330.5,182.5C 287.5,182.5 244.5,182.5 201.5,182.5C 193.493,182.334 185.493,182.5 177.5,183C 178.986,186.104 178.653,188.938 176.5,191.5C 161.833,191.5 147.167,191.5 132.5,191.5C 132.01,259.891 132.51,328.225 134,396.5C 134.75,397.126 135.584,397.626 136.5,398C 166.003,398.168 195.336,398.668 224.5,399.5C 213.167,399.5 201.833,399.5 190.5,399.5C 183.833,399.5 177.167,399.5 170.5,399.5C 170.5,402.167 170.5,404.833 170.5,407.5C 172.415,407.216 174.081,407.549 175.5,408.5C 162.163,408.667 148.829,408.5 135.5,408C 128.667,406.5 124.5,402.333 123,395.5C 122.5,305.167 122.333,214.834 122.5,124.5C 142.833,124.5 163.167,124.5 183.5,124.5 Z"/></g>
<g><path style="opacity:1" fill="#f7d50b" d="M 183.5,124.5 C 192.833,124.5 202.167,124.5 211.5,124.5C 210.791,125.404 209.791,125.737 208.5,125.5C 208.5,128.167 208.5,130.833 208.5,133.5C 207.833,133.5 207.167,133.5 206.5,133.5C 198.167,133.5 189.833,133.5 181.5,133.5C 181.091,130.145 181.758,127.145 183.5,124.5 Z"/></g>
<g><path style="opacity:1" fill="#fde601" d="M 211.5,124.5 C 250.833,124.5 290.167,124.5 329.5,124.5C 330.403,127.391 330.736,130.391 330.5,133.5C 289.833,133.5 249.167,133.5 208.5,133.5C 208.5,130.833 208.5,128.167 208.5,125.5C 209.791,125.737 210.791,125.404 211.5,124.5 Z"/></g>
<g><path style="opacity:1" fill="#d5b11b" d="M 329.5,124.5 C 338.5,124.5 347.5,124.5 356.5,124.5C 356.667,214.501 356.5,304.501 356,394.5C 354.688,402.745 349.855,407.245 341.5,408C 334.508,408.5 327.508,408.666 320.5,408.5C 321.919,407.549 323.585,407.216 325.5,407.5C 325.5,404.833 325.5,402.167 325.5,399.5C 301.833,399.5 278.167,399.5 254.5,399.5C 283.33,398.668 312.33,398.168 341.5,398C 343.286,397.215 344.786,396.049 346,394.5C 346.5,326.834 346.667,259.167 346.5,191.5C 341.167,191.5 335.833,191.5 330.5,191.5C 330.5,188.5 330.5,185.5 330.5,182.5C 336.026,182.821 341.36,182.488 346.5,181.5C 346.5,165.833 346.5,150.167 346.5,134.5C 299.833,134.5 253.167,134.5 206.5,134.5C 206.5,134.167 206.5,133.833 206.5,133.5C 207.167,133.5 207.833,133.5 208.5,133.5C 249.167,133.5 289.833,133.5 330.5,133.5C 330.736,130.391 330.403,127.391 329.5,124.5 Z"/></g>
<g><path style="opacity:1" fill="#050505" d="M 206.5,134.5 C 253.167,134.5 299.833,134.5 346.5,134.5C 346.5,150.167 346.5,165.833 346.5,181.5C 275.167,181.5 203.833,181.5 132.5,181.5C 132.5,165.833 132.5,150.167 132.5,134.5C 157.167,134.5 181.833,134.5 206.5,134.5 Z"/></g>
<g><path style="opacity:1" fill="#f8f8f8" d="M 147.5,142.5 C 160.837,142.333 174.171,142.5 187.5,143C 192.985,144.803 194.485,148.303 192,153.5C 190.581,154.46 189.081,155.293 187.5,156C 194.199,160.187 195.199,165.521 190.5,172C 176.264,173.466 161.931,173.966 147.5,173.5C 147.5,163.167 147.5,152.833 147.5,142.5 Z"/></g>
<g><path style="opacity:1" fill="#8b8b8b" d="M 214.5,142.5 C 214.5,152.833 214.5,163.167 214.5,173.5C 218.5,173.5 222.5,173.5 226.5,173.5C 222.366,174.485 218.032,174.818 213.5,174.5C 213.172,163.654 213.506,152.987 214.5,142.5 Z"/></g>
<g><path style="opacity:1" fill="#f5f5f5" d="M 214.5,142.5 C 229.5,142.5 244.5,142.5 259.5,142.5C 259.5,144.5 259.5,146.5 259.5,148.5C 248.5,148.5 237.5,148.5 226.5,148.5C 226.5,150.833 226.5,153.167 226.5,155.5C 235.833,155.5 245.167,155.5 254.5,155.5C 254.5,156.833 254.5,158.167 254.5,159.5C 245.167,159.5 235.833,159.5 226.5,159.5C 226.5,164.167 226.5,168.833 226.5,173.5C 222.5,173.5 218.5,173.5 214.5,173.5C 214.5,163.167 214.5,152.833 214.5,142.5 Z"/></g>
<g><path style="opacity:1" fill="#f3f3f3" d="M 278.5,142.5 C 292.5,142.5 306.5,142.5 320.5,142.5C 320.5,144.5 320.5,146.5 320.5,148.5C 309.5,148.5 298.5,148.5 287.5,148.5C 287.5,154.833 287.5,161.167 287.5,167.5C 298.5,167.5 309.5,167.5 320.5,167.5C 320.5,169.5 320.5,171.5 320.5,173.5C 306.496,173.667 292.496,173.5 278.5,173C 276.951,171.786 275.785,170.286 275,168.5C 274.333,161.5 274.333,154.5 275,147.5C 275.997,145.677 277.164,144.01 278.5,142.5 Z"/></g>
<g><path style="opacity:1" fill="#0d0f0e" d="M 415.5,345.5 C 415.738,347.404 416.738,348.738 418.5,349.5C 421.59,354.679 424.423,360.013 427,365.5C 430.693,359.955 430.193,354.789 425.5,350C 423.527,349.505 421.527,349.338 419.5,349.5C 417.016,347.455 416.016,344.788 416.5,341.5C 418.867,337.322 422.2,336.489 426.5,339C 428.066,341.93 428.9,345.097 429,348.5C 429.667,349.167 430.333,349.833 431,350.5C 431.769,343.144 432.602,335.811 433.5,328.5C 420.05,326.534 408.883,320.534 400,310.5C 396.06,300.124 399.56,294.958 410.5,295C 414.062,295.739 417.228,297.239 420,299.5C 419.135,292.029 422.301,289.195 429.5,291C 432.52,293.264 433.187,296.097 431.5,299.5C 432.145,300.646 432.978,301.646 434,302.5C 434.499,296.843 434.666,291.176 434.5,285.5C 420.933,282.44 409.433,275.774 400,265.5C 394.783,256.445 397.116,250.778 407,248.5C 413.523,249.35 418.856,252.35 423,257.5C 426.834,262.497 430.167,267.83 433,273.5C 433.273,266.796 431.94,260.463 429,254.5C 428.261,253.426 427.261,252.759 426,252.5C 418.386,254.219 415.386,251.219 417,243.5C 423.907,239.454 427.907,241.454 429,249.5C 428.998,245.14 428.498,240.807 427.5,236.5C 411.719,236.744 398.219,231.41 387,220.5C 382.838,210.87 386.172,206.203 397,206.5C 407.689,207.01 416.023,211.677 422,220.5C 420.693,213.927 418.193,207.76 414.5,202C 413.584,201.626 412.75,201.126 412,200.5C 408.735,203.924 405.235,204.257 401.5,201.5C 400.438,198.897 400.272,196.23 401,193.5C 404.19,191.672 407.356,191.005 410.5,191.5C 409.42,189.004 408.086,186.67 406.5,184.5C 394.922,179.755 386.422,171.755 381,160.5C 377.404,152.032 379.904,146.699 388.5,144.5C 394.17,144.585 398.67,146.918 402,151.5C 408.102,161.236 411.102,171.903 411,183.5C 413.077,187.912 415.244,192.246 417.5,196.5C 418.656,195.424 418.489,194.424 417,193.5C 416.613,184.23 420.28,182.23 428,187.5C 429.32,193.026 427.153,196.359 421.5,197.5C 420.937,198.939 420.603,200.439 420.5,202C 421.79,206.873 423.29,211.706 425,216.5C 424.677,205.266 428.51,195.766 436.5,188C 442.134,185.224 446.634,186.391 450,191.5C 450.764,209.475 444.264,224.309 430.5,236C 432.839,245.026 434.672,254.193 436,263.5C 437.873,258.087 440.54,253.087 444,248.5C 448.244,243.957 453.411,242.123 459.5,243C 461.667,243.833 463.167,245.333 464,247.5C 464.688,254.413 463.021,260.746 459,266.5C 453.294,273.874 446.627,280.207 439,285.5C 438.333,290.833 438.333,296.167 439,301.5C 441.293,299.614 441.793,297.447 440.5,295C 440.644,291.026 442.644,288.859 446.5,288.5C 452.397,290.013 454.064,293.68 451.5,299.5C 456.957,295.802 462.957,294.636 469.5,296C 475.117,299.865 475.951,304.698 472,310.5C 462.678,320.578 451.178,326.578 437.5,328.5C 436.158,339.907 434.658,351.24 433,362.5C 438.4,354.427 445.567,348.594 454.5,345C 459.403,344.063 464.07,344.73 468.5,347C 472.584,352.203 472.251,357.203 467.5,362C 456.212,370.209 443.545,374.876 429.5,376C 428.167,380 426.833,384 425.5,388C 426.167,388.667 426.833,388.667 427.5,388C 429.367,380.028 433.534,378.528 440,383.5C 441.153,392.526 437.653,395.192 429.5,391.5C 426.906,392.592 424.739,394.259 423,396.5C 421.598,400.207 420.098,403.874 418.5,407.5C 418.833,407.833 419.167,408.167 419.5,408.5C 427.379,400.93 436.712,398.096 447.5,400C 454.214,401.59 456.714,405.756 455,412.5C 454.215,414.286 453.049,415.786 451.5,417C 447.952,418.941 444.286,420.607 440.5,422C 430.493,424.038 420.493,424.872 410.5,424.5C 407.562,430.099 404.229,435.433 400.5,440.5C 400.833,440.833 401.167,441.167 401.5,441.5C 411.043,436.496 421.043,435.33 431.5,438C 440.08,441.644 441.746,447.311 436.5,455C 421.564,459.509 407.397,457.676 394,449.5C 385.649,459.351 376.483,468.351 366.5,476.5C 365.224,477.614 365.224,478.614 366.5,479.5C 339.5,480.167 312.5,480.833 285.5,481.5C 285.665,485.182 285.499,488.848 285,492.5C 284.5,493 284,493.5 283.5,494C 254.167,494.667 224.833,494.667 195.5,494C 195,493.5 194.5,493 194,492.5C 193.501,488.848 193.335,485.182 193.5,481.5C 166.5,480.833 139.5,480.167 112.5,479.5C 113.776,478.614 113.776,477.614 112.5,476.5C 101.846,468.845 92.5123,459.845 84.5,449.5C 72.6332,455.757 59.9665,458.257 46.5,457C 40.2048,454.575 38.0382,450.075 40,443.5C 46.1058,436.908 53.6058,434.742 62.5,437C 68.0259,438.048 73.3592,439.381 78.5,441C 74.7898,435.75 71.4565,430.25 68.5,424.5C 55.4512,425.726 42.7845,423.892 30.5,419C 24.3974,415.96 22.2307,411.126 24,404.5C 25.7309,402.383 27.8976,400.883 30.5,400C 41.9993,398.167 51.8326,401.334 60,409.5C 59.3354,401.836 55.8354,395.836 49.5,391.5C 41.3475,395.192 37.8475,392.526 39,383.5C 41.6786,380.165 44.8453,379.665 48.5,382C 49.7826,384.627 51.2826,387.127 53,389.5C 52.3231,385.133 51.1564,380.799 49.5,376.5C 35.9268,375.255 23.5935,370.755 12.5,363C 6.41615,357.55 6.08282,351.884 11.5,346C 15.3749,344.48 19.3749,344.146 23.5,345C 33.0287,348.192 40.5287,354.025 46,362.5C 44.3193,351.245 42.8193,339.912 41.5,328.5C 27.776,326.556 16.276,320.556 7,310.5C 2.11241,301.607 4.61241,296.607 14.5,295.5C 18.7236,295.687 22.7236,296.687 26.5,298.5C 24.9752,291.855 27.6419,288.689 34.5,289C 38.3148,291.218 39.3148,294.384 37.5,298.5C 38.1449,299.646 38.9783,300.646 40,301.5C 40.8295,296.136 40.6628,290.802 39.5,285.5C 28.2131,278.047 20.0464,268.047 15,255.5C 13.84,243.013 19.0067,239.513 30.5,245C 36.5798,250.339 40.7464,256.839 43,264.5C 43.9231,254.789 45.7564,245.289 48.5,236C 34.7493,224.333 28.2493,209.5 29,191.5C 32.8649,185.883 37.6982,185.049 43.5,189C 50.7117,196.291 54.2117,205.124 54,215.5C 55.3333,212.167 56.6667,208.833 58,205.5C 58.4954,202.469 58.3287,199.469 57.5,196.5C 51.4536,196.427 49.2869,193.427 51,187.5C 54.5877,183.607 58.2544,183.607 62,187.5C 62.3333,189.5 62.6667,191.5 63,193.5C 67.7825,185.186 70.1158,176.186 70,166.5C 71.8838,156.875 77.0504,149.708 85.5,145C 93.2195,143.02 97.8862,145.853 99.5,153.5C 96.0127,168.491 87.0127,178.657 72.5,184C 70.4552,186.586 68.7885,189.42 67.5,192.5C 70.1237,191.395 73.1237,191.395 76.5,192.5C 78.3952,194.867 78.8952,197.534 78,200.5C 74.3333,204.5 70.6667,204.5 67,200.5C 66.2496,201.126 65.4162,201.626 64.5,202C 60.7158,207.723 58.2158,213.889 57,220.5C 65.0749,208.046 76.2415,203.879 90.5,208C 93.977,211.685 94.477,215.851 92,220.5C 88.6416,224.759 84.4749,227.926 79.5,230C 70.5091,233.748 61.1758,235.915 51.5,236.5C 50.1833,240.757 49.6833,245.09 50,249.5C 50.511,242.471 54.011,240.138 60.5,242.5C 64.1975,248.352 62.6975,252.018 56,253.5C 50.8766,252.582 47.8766,254.916 47,260.5C 46.0954,264.819 45.7621,269.152 46,273.5C 48.82,267.863 52.1533,262.53 56,257.5C 59.5518,254.281 63.3851,251.448 67.5,249C 81.0702,248.631 84.5702,254.464 78,266.5C 68.948,275.78 58.1147,282.113 45.5,285.5C 44.3372,290.802 44.1705,296.136 45,301.5C 46.2156,299.038 46.8823,296.371 47,293.5C 50.1815,289.943 53.6815,289.609 57.5,292.5C 58.517,295.174 58.6837,297.84 58,300.5C 65.1177,293.047 72.451,292.714 80,299.5C 80.7383,303.261 80.4049,306.928 79,310.5C 69.9023,320.3 58.7357,326.3 45.5,328.5C 46.0044,335.862 46.8377,343.196 48,350.5C 50.0043,347.525 51.0043,344.192 51,340.5C 53.2103,337.71 56.0437,336.877 59.5,338C 64.7971,345.407 62.7971,349.407 53.5,350C 48.8816,354.559 48.2149,359.726 51.5,365.5C 55.0988,356.122 60.7655,348.289 68.5,342C 73.2317,339.599 78.2317,338.932 83.5,340C 88.1549,342.897 89.6549,347.063 88,352.5C 79.3566,364.242 67.8566,371.576 53.5,374.5C 54.8199,380.962 56.6532,387.295 59,393.5C 61.3394,390.905 61.6728,388.239 60,385.5C 58.8333,378.667 61.6667,375.833 68.5,377C 70.7676,378.558 71.9343,380.724 72,383.5C 74.4993,378.994 78.166,375.994 83,374.5C 91.1251,376.735 94.1251,382.068 92,390.5C 90.5872,395.739 88.5872,400.739 86,405.5C 81.8401,411.656 77.0068,417.156 71.5,422C 75.0368,428.908 79.2034,435.408 84,441.5C 85.3418,430.808 88.6752,420.808 94,411.5C 99.8141,404.446 106.147,403.779 113,409.5C 115.201,415.938 114.201,421.938 110,427.5C 104.453,436.047 97.2865,442.88 88.5,448C 96.7227,458.057 106.056,466.891 116.5,474.5C 120.748,470.424 124.415,465.924 127.5,461C 121.878,454.376 115.878,448.043 109.5,442C 148.167,441.333 186.833,441.333 225.5,442C 226.471,447.072 226.805,452.238 226.5,457.5C 235.167,457.5 243.833,457.5 252.5,457.5C 252.195,452.238 252.529,447.072 253.5,442C 292.167,441.333 330.833,441.333 369.5,442C 363.167,448.333 356.833,454.667 350.5,461C 354.343,465.674 358.343,470.174 362.5,474.5C 372.944,466.891 382.277,458.057 390.5,448C 378.411,441.246 369.911,431.413 365,418.5C 363.332,410.815 366.332,406.482 374,405.5C 378.783,405.393 382.45,407.393 385,411.5C 390.721,420.664 394.055,430.664 395,441.5C 399.797,435.408 403.963,428.908 407.5,422C 399.874,415.026 393.707,406.86 389,397.5C 386.817,392.005 386.151,386.339 387,380.5C 390.542,374.124 395.376,372.957 401.5,377C 403.709,378.873 405.542,381.04 407,383.5C 408.948,375.954 412.948,374.621 419,379.5C 419.844,382.606 419.344,385.439 417.5,388C 417.959,390.355 418.792,392.521 420,394.5C 421.842,387.797 423.675,381.13 425.5,374.5C 413.745,372.206 403.578,366.872 395,358.5C 386.55,345.221 390.05,339.054 405.5,340C 409.211,341.227 412.545,343.06 415.5,345.5 Z M 358.5,411.5 C 352.801,415.341 346.468,417.508 339.5,418C 311.5,418.333 283.5,418.667 255.5,419C 253.751,420.292 251.918,421.458 250,422.5C 246.739,428.696 243.239,434.696 239.5,440.5C 235.748,434.664 232.248,428.664 229,422.5C 227.167,421.333 225.333,420.167 223.5,419C 195.5,418.667 167.5,418.333 139.5,418C 131.833,417.748 125.333,414.915 120,409.5C 121.03,419.276 118.197,427.776 111.5,435C 150.5,435.333 189.5,435.667 228.5,436C 229.211,437.255 230.044,438.421 231,439.5C 231.499,443.821 231.666,448.154 231.5,452.5C 236.833,452.5 242.167,452.5 247.5,452.5C 247.334,448.154 247.501,443.821 248,439.5C 248.956,438.421 249.789,437.255 250.5,436C 289.171,435.833 327.838,435.333 366.5,434.5C 361.287,427.737 358.621,420.07 358.5,411.5 Z M 395.5,418.5 C 396.226,421.179 397.059,423.846 398,426.5C 400.925,423.106 400.092,420.44 395.5,418.5 Z M 82.5,419.5 C 78.9308,420.938 78.2642,422.938 80.5,425.5C 82.0863,423.827 82.7529,421.827 82.5,419.5 Z M 102.5,444.5 C 100.638,446.487 99.1378,448.487 98,450.5C 103.419,456.95 109.585,462.117 116.5,466C 117.453,464.045 118.787,462.378 120.5,461C 114.584,455.244 108.584,449.744 102.5,444.5 Z M 374.5,444.5 C 369.37,450.131 364.036,455.631 358.5,461C 360,462.833 361.5,464.667 363,466.5C 369.824,461.342 375.991,455.509 381.5,449C 379.266,447.25 376.932,445.75 374.5,444.5 Z"/></g>
<g><path style="opacity:1" fill="#009836" d="M 87.5,147.5 C 90.6516,146.959 93.1516,147.959 95,150.5C 95.7011,153.928 95.3677,157.262 94,160.5C 89.2232,168.985 82.3899,175.319 73.5,179.5C 71.6555,165.866 76.3222,155.199 87.5,147.5 Z"/></g>
<g><path style="opacity:1" fill="#161616" d="M 159.5,147.5 C 166.175,147.334 172.842,147.5 179.5,148C 182.167,150.333 182.167,152.667 179.5,155C 172.842,155.5 166.175,155.666 159.5,155.5C 159.5,152.833 159.5,150.167 159.5,147.5 Z"/></g>
<g><path style="opacity:1" fill="#009836" d="M 386.5,147.5 C 392.795,148.068 397.628,151.068 401,156.5C 405.031,164.022 406.698,172.022 406,180.5C 397.848,176.1 391.181,170.1 386,162.5C 382.623,157.206 382.79,152.206 386.5,147.5 Z"/></g>
<g><path style="opacity:1" fill="#0c0c0c" d="M 159.5,159.5 C 165.842,159.334 172.175,159.5 178.5,160C 181.932,162.367 182.265,165.034 179.5,168C 172.842,168.5 166.175,168.666 159.5,168.5C 159.5,165.5 159.5,162.5 159.5,159.5 Z"/></g>
<g><path style="opacity:1" fill="#fcfcfc" d="M 199.5,168.5 C 201.167,168.5 202.833,168.5 204.5,168.5C 204.5,170.167 204.5,171.833 204.5,173.5C 202.833,173.5 201.167,173.5 199.5,173.5C 199.5,171.833 199.5,170.167 199.5,168.5 Z"/></g>
<g><path style="opacity:1" fill="#fdfdfd" d="M 255.5,168.5 C 257.167,168.5 258.833,168.5 260.5,168.5C 260.5,170.167 260.5,171.833 260.5,173.5C 258.833,173.5 257.167,173.5 255.5,173.5C 255.5,171.833 255.5,170.167 255.5,168.5 Z"/></g>
<g><path style="opacity:1" fill="#fafafa" d="M 326.5,168.5 C 328.167,168.5 329.833,168.5 331.5,168.5C 331.5,170.167 331.5,171.833 331.5,173.5C 331.5,171.833 331.5,170.167 331.5,168.5C 329.833,168.5 328.167,168.5 326.5,168.5 Z"/></g>
<g><path style="opacity:1" fill="#696969" d="M 326.5,168.5 C 326.5,170.167 326.5,171.833 326.5,173.5C 328.167,173.5 329.833,173.5 331.5,173.5C 329.735,174.461 327.735,174.795 325.5,174.5C 325.205,172.265 325.539,170.265 326.5,168.5 Z"/></g>
<g><path style="opacity:1" fill="#f5d00e" d="M 201.5,182.5 C 203.078,185.777 202.745,188.777 200.5,191.5C 192.5,191.5 184.5,191.5 176.5,191.5C 178.653,188.938 178.986,186.104 177.5,183C 185.493,182.5 193.493,182.334 201.5,182.5 Z"/></g>
<g><path style="opacity:1" fill="#fde602" d="M 201.5,182.5 C 244.5,182.5 287.5,182.5 330.5,182.5C 330.5,185.5 330.5,188.5 330.5,191.5C 287.167,191.5 243.833,191.5 200.5,191.5C 202.745,188.777 203.078,185.777 201.5,182.5 Z"/></g>
<g><path style="opacity:1" fill="#009937" d="M 33.5,190.5 C 40.2367,190.06 44.7367,193.06 47,199.5C 50.3009,209.526 50.3009,219.526 47,229.5C 38.499,220.664 33.3323,210.164 31.5,198C 31.4101,195.256 32.0768,192.756 33.5,190.5 Z"/></g>
<g><path style="opacity:1" fill="#009936" d="M 438.5,190.5 C 441.119,190.232 443.619,190.565 446,191.5C 447.412,206.414 442.579,219.081 431.5,229.5C 429.562,221.61 429.062,213.61 430,205.5C 431.294,199.572 434.128,194.572 438.5,190.5 Z"/></g>
<g><path style="opacity:1" fill="#030201" d="M 176.5,191.5 C 184.5,191.5 192.5,191.5 200.5,191.5C 243.833,191.5 287.167,191.5 330.5,191.5C 335.833,191.5 341.167,191.5 346.5,191.5C 346.667,259.167 346.5,326.834 346,394.5C 344.786,396.049 343.286,397.215 341.5,398C 312.33,398.168 283.33,398.668 254.5,399.5C 248.954,400.105 243.954,402.105 239.5,405.5C 234.807,402.651 229.807,400.651 224.5,399.5C 195.336,398.668 166.003,398.168 136.5,398C 135.584,397.626 134.75,397.126 134,396.5C 132.51,328.225 132.01,259.891 132.5,191.5C 147.167,191.5 161.833,191.5 176.5,191.5 Z"/></g>
<g><path style="opacity:1" fill="#fefefe" d="M 217.5,195.5 C 217.5,208.5 217.5,221.5 217.5,234.5C 203.5,234.5 189.5,234.5 175.5,234.5C 175.5,221.5 175.5,208.5 175.5,195.5C 189.5,195.5 203.5,195.5 217.5,195.5 Z"/></g>
<g><path style="opacity:1" fill="#fefefe" d="M 261.5,195.5 C 275.5,195.5 289.5,195.5 303.5,195.5C 303.5,208.5 303.5,221.5 303.5,234.5C 289.5,234.5 275.5,234.5 261.5,234.5C 261.5,221.5 261.5,208.5 261.5,195.5 Z"/></g>
<g><path style="opacity:1" fill="#009936" d="M 76.5,209.5 C 79.8499,209.335 83.1832,209.502 86.5,210C 90.6632,211.816 91.4965,214.649 89,218.5C 78.9086,227.531 67.0752,232.031 53.5,232C 58.4366,221.562 66.1033,214.062 76.5,209.5 Z"/></g>
<g><path style="opacity:1" fill="#009937" d="M 392.5,209.5 C 408.195,210.198 418.862,217.865 424.5,232.5C 411.159,232.223 399.659,227.556 390,218.5C 387.578,214.517 388.411,211.517 392.5,209.5 Z"/></g>
<g><path style="opacity:1" fill="#020202" d="M 175.5,234.5 C 189.5,234.5 203.5,234.5 217.5,234.5C 217.5,248.833 217.5,263.167 217.5,277.5C 203.5,277.5 189.5,277.5 175.5,277.5C 175.5,263.167 175.5,248.833 175.5,234.5 Z"/></g>
<g><path style="opacity:1" fill="#fdfdfd" d="M 218.5,234.5 C 232.5,234.5 246.5,234.5 260.5,234.5C 260.5,248.833 260.5,263.167 260.5,277.5C 246.5,277.5 232.5,277.5 218.5,277.5C 218.5,263.167 218.5,248.833 218.5,234.5 Z"/></g>
<g><path style="opacity:1" fill="#020202" d="M 261.5,234.5 C 275.5,234.5 289.5,234.5 303.5,234.5C 303.5,248.833 303.5,263.167 303.5,277.5C 289.5,277.5 275.5,277.5 261.5,277.5C 261.5,263.167 261.5,248.833 261.5,234.5 Z"/></g>
<g><path style="opacity:1" fill="#fcfcfc" d="M 303.5,234.5 C 316.5,234.5 329.5,234.5 342.5,234.5C 342.5,248.833 342.5,263.167 342.5,277.5C 329.833,277.5 317.167,277.5 304.5,277.5C 304.167,277.5 303.833,277.5 303.5,277.5C 303.5,263.167 303.5,248.833 303.5,234.5 Z"/></g>
<g><path style="opacity:1" fill="#009836" d="M 19.5,246.5 C 25.7981,245.732 30.6314,248.065 34,253.5C 39.3382,262.181 41.5049,271.514 40.5,281.5C 28.8083,274.316 21.1416,264.149 17.5,251C 17.5186,249.167 18.1852,247.667 19.5,246.5 Z"/></g>
<g><path style="opacity:1" fill="#009937" d="M 452.5,246.5 C 455.119,246.232 457.619,246.565 460,247.5C 460.667,250.5 460.667,253.5 460,256.5C 455.177,266.824 448.011,275.158 438.5,281.5C 436.923,267.213 441.589,255.546 452.5,246.5 Z"/></g>
<g><path style="opacity:1" fill="#009937" d="M 67.5,252.5 C 77.7397,251.477 80.2397,255.477 75,264.5C 66.9612,272.924 57.4612,278.258 46.5,280.5C 51.1239,269.193 58.1239,259.859 67.5,252.5 Z"/></g>
<g><path style="opacity:1" fill="#009a37" d="M 403.5,252.5 C 408.561,251.665 412.895,252.999 416.5,256.5C 423.01,263.684 428.343,271.684 432.5,280.5C 420.078,278.186 409.912,271.852 402,261.5C 401.068,258.177 401.568,255.177 403.5,252.5 Z"/></g>
<g><path style="opacity:1" fill="#b4b4b4" d="M 136.5,234.5 C 136.5,248.5 136.5,262.5 136.5,276.5C 149.167,276.5 161.833,276.5 174.5,276.5C 174.5,262.5 174.5,248.5 174.5,234.5C 174.833,234.5 175.167,234.5 175.5,234.5C 175.5,248.833 175.5,263.167 175.5,277.5C 175.167,277.5 174.833,277.5 174.5,277.5C 161.5,277.5 148.5,277.5 135.5,277.5C 135.171,262.99 135.504,248.657 136.5,234.5 Z"/></g>
<g><path style="opacity:1" fill="#fefefe" d="M 136.5,234.5 C 149.167,234.5 161.833,234.5 174.5,234.5C 174.5,248.5 174.5,262.5 174.5,276.5C 161.833,276.5 149.167,276.5 136.5,276.5C 136.5,262.5 136.5,248.5 136.5,234.5 Z"/></g>
<g><path style="opacity:1" fill="#fefefe" d="M 175.5,277.5 C 189.5,277.5 203.5,277.5 217.5,277.5C 217.5,291.5 217.5,305.5 217.5,319.5C 203.5,319.5 189.5,319.5 175.5,319.5C 175.5,305.5 175.5,291.5 175.5,277.5 Z"/></g>
<g><path style="opacity:1" fill="#000000" d="M 218.5,277.5 C 232.5,277.5 246.5,277.5 260.5,277.5C 260.5,291.5 260.5,305.5 260.5,319.5C 246.5,319.5 232.5,319.5 218.5,319.5C 218.5,305.5 218.5,291.5 218.5,277.5 Z"/></g>
<g><path style="opacity:1" fill="#fefefe" d="M 261.5,277.5 C 275.5,277.5 289.5,277.5 303.5,277.5C 303.5,291.5 303.5,305.5 303.5,319.5C 289.5,319.5 275.5,319.5 261.5,319.5C 261.5,305.5 261.5,291.5 261.5,277.5 Z"/></g>
<g><path style="opacity:1" fill="#009937" d="M 11.5,298.5 C 20.2009,298.602 27.0343,302.268 32,309.5C 34.7692,314.039 37.2692,318.706 39.5,323.5C 26.9076,322.448 16.741,316.781 9,306.5C 7.83657,303.029 8.6699,300.362 11.5,298.5 Z"/></g>
<g><path style="opacity:1" fill="#009936" d="M 66.5,298.5 C 76.2427,297.385 79.076,301.051 75,309.5C 67.6022,316.951 58.7688,321.951 48.5,324.5C 50.4748,313.269 56.4748,304.602 66.5,298.5 Z"/></g>
<g><path style="opacity:1" fill="#009937" d="M 404.5,298.5 C 409.287,297.97 413.62,299.137 417.5,302C 424.084,308.342 428.751,315.842 431.5,324.5C 419.358,322.184 409.525,316.184 402,306.5C 401.018,303.225 401.851,300.559 404.5,298.5 Z"/></g>
<g><path style="opacity:1" fill="#009a37" d="M 460.5,298.5 C 468.738,297.558 471.572,300.891 469,308.5C 460.964,317.431 451.131,322.431 439.5,323.5C 443.291,312.384 450.291,304.05 460.5,298.5 Z"/></g>
<g><path style="opacity:1" fill="#d9d9d9" d="M 26.5,298.5 C 36.2432,299.981 40.7432,305.648 40,315.5C 36.3664,309.045 31.8664,303.379 26.5,298.5 Z"/></g>
<g><path style="opacity:1" fill="#e0e0e0" d="M 451.5,299.5 C 446.158,303.819 441.991,309.152 439,315.5C 438.152,306.178 442.319,300.845 451.5,299.5 Z"/></g>
<g><path style="opacity:1" fill="#e7e7e7" d="M 54.5,301.5 C 55.2389,301.369 55.9056,301.536 56.5,302C 51.2996,306.892 47.4663,312.725 45,319.5C 42.246,309.993 45.4127,303.993 54.5,301.5 Z"/></g>
<g><path style="opacity:1" fill="#e7e7e7" d="M 422.5,302.5 C 426.629,301.524 430.129,302.857 433,306.5C 434.534,310.711 434.867,315.044 434,319.5C 431.133,313.075 427.3,307.409 422.5,302.5 Z"/></g>
<g><path style="opacity:1" fill="#4c4c4c" d="M 174.5,277.5 C 174.833,277.5 175.167,277.5 175.5,277.5C 175.5,291.5 175.5,305.5 175.5,319.5C 175.5,319.833 175.5,320.167 175.5,320.5C 175.167,320.5 174.833,320.5 174.5,320.5C 161.833,320.5 149.167,320.5 136.5,320.5C 148.989,319.505 161.656,319.171 174.5,319.5C 174.5,305.5 174.5,291.5 174.5,277.5 Z"/></g>
<g><path style="opacity:1" fill="#a4a4a4" d="M 261.5,195.5 C 261.5,208.5 261.5,221.5 261.5,234.5C 261.5,248.833 261.5,263.167 261.5,277.5C 261.5,291.5 261.5,305.5 261.5,319.5C 275.5,319.5 289.5,319.5 303.5,319.5C 303.5,319.833 303.5,320.167 303.5,320.5C 289.5,320.5 275.5,320.5 261.5,320.5C 261.167,320.5 260.833,320.5 260.5,320.5C 260.5,320.167 260.5,319.833 260.5,319.5C 260.5,305.5 260.5,291.5 260.5,277.5C 260.5,263.167 260.5,248.833 260.5,234.5C 260.171,221.323 260.505,208.323 261.5,195.5 Z"/></g>
<g><path style="opacity:1" fill="#454545" d="M 303.5,277.5 C 303.833,277.5 304.167,277.5 304.5,277.5C 304.5,291.5 304.5,305.5 304.5,319.5C 317.344,319.171 330.011,319.505 342.5,320.5C 329.5,320.5 316.5,320.5 303.5,320.5C 303.5,320.167 303.5,319.833 303.5,319.5C 303.5,305.5 303.5,291.5 303.5,277.5 Z"/></g>
<g><path style="opacity:1" fill="#000000" d="M 175.5,320.5 C 189.5,320.5 203.5,320.5 217.5,320.5C 217.5,334.5 217.5,348.5 217.5,362.5C 203.5,362.5 189.5,362.5 175.5,362.5C 175.5,348.5 175.5,334.5 175.5,320.5 Z"/></g>
<g><path style="opacity:1" fill="#009937" d="M 74.5,342.5 C 83.5884,341.417 86.4217,345.083 83,353.5C 75.2745,362.436 65.7745,367.769 54.5,369.5C 57.5708,357.633 64.2375,348.633 74.5,342.5 Z"/></g>
<g><path style="opacity:1" fill="#009a37" d="M 397.5,342.5 C 405.219,342.779 411.385,346.112 416,352.5C 420.093,358.339 422.76,364.673 424,371.5C 412.199,367.779 402.533,361.112 395,351.5C 393.779,347.718 394.613,344.718 397.5,342.5 Z"/></g>
<g><path style="opacity:1" fill="#707070" d="M 416.5,341.5 C 416.016,344.788 417.016,347.455 419.5,349.5C 419.167,349.5 418.833,349.5 418.5,349.5C 416.738,348.738 415.738,347.404 415.5,345.5C 415.232,343.901 415.566,342.568 416.5,341.5 Z"/></g>
<g><path style="opacity:1" fill="#009a37" d="M 14.5,348.5 C 25.574,348.12 34.4074,352.453 41,361.5C 42.8333,364.5 44.6667,367.5 46.5,370.5C 32.9348,371.031 21.4348,366.365 12,356.5C 10.8366,353.029 11.6699,350.362 14.5,348.5 Z"/></g>
<g><path style="opacity:1" fill="#009a37" d="M 454.5,348.5 C 458.637,348.146 462.637,348.646 466.5,350C 467.591,352.064 467.758,354.231 467,356.5C 457.383,365.98 445.883,370.646 432.5,370.5C 437.574,360.759 444.908,353.426 454.5,348.5 Z"/></g>
<g><path style="opacity:1" fill="#ececec" d="M 418.5,349.5 C 418.833,349.5 419.167,349.5 419.5,349.5C 421.527,349.338 423.527,349.505 425.5,350C 430.193,354.789 430.693,359.955 427,365.5C 424.423,360.013 421.59,354.679 418.5,349.5 Z"/></g>
<g><path style="opacity:1" fill="#9b9b9b" d="M 136.5,320.5 C 136.5,334.5 136.5,348.5 136.5,362.5C 149.167,362.5 161.833,362.5 174.5,362.5C 174.5,348.5 174.5,334.5 174.5,320.5C 174.833,320.5 175.167,320.5 175.5,320.5C 175.5,334.5 175.5,348.5 175.5,362.5C 175.5,362.833 175.5,363.167 175.5,363.5C 162.167,363.5 148.833,363.5 135.5,363.5C 135.171,348.99 135.504,334.657 136.5,320.5 Z"/></g>
<g><path style="opacity:1" fill="#fefffe" d="M 136.5,320.5 C 149.167,320.5 161.833,320.5 174.5,320.5C 174.5,334.5 174.5,348.5 174.5,362.5C 161.833,362.5 149.167,362.5 136.5,362.5C 136.5,348.5 136.5,334.5 136.5,320.5 Z"/></g>
<g><path style="opacity:1" fill="#848484" d="M 217.5,195.5 C 218.495,208.323 218.829,221.323 218.5,234.5C 218.5,248.833 218.5,263.167 218.5,277.5C 218.5,291.5 218.5,305.5 218.5,319.5C 232.5,319.5 246.5,319.5 260.5,319.5C 260.5,319.833 260.5,320.167 260.5,320.5C 260.833,320.5 261.167,320.5 261.5,320.5C 261.5,334.5 261.5,348.5 261.5,362.5C 275.5,362.5 289.5,362.5 303.5,362.5C 316.5,362.5 329.5,362.5 342.5,362.5C 342.5,348.5 342.5,334.5 342.5,320.5C 343.496,334.657 343.829,348.99 343.5,363.5C 330.167,363.5 316.833,363.5 303.5,363.5C 289.5,363.5 275.5,363.5 261.5,363.5C 261.5,373.833 261.5,384.167 261.5,394.5C 275.5,394.5 289.5,394.5 303.5,394.5C 289.343,395.496 275.01,395.829 260.5,395.5C 260.5,384.833 260.5,374.167 260.5,363.5C 246.5,363.5 232.5,363.5 218.5,363.5C 218.5,374.167 218.5,384.833 218.5,395.5C 203.99,395.829 189.657,395.496 175.5,394.5C 189.5,394.5 203.5,394.5 217.5,394.5C 217.5,384.167 217.5,373.833 217.5,363.5C 203.5,363.5 189.5,363.5 175.5,363.5C 175.5,363.167 175.5,362.833 175.5,362.5C 189.5,362.5 203.5,362.5 217.5,362.5C 217.5,348.5 217.5,334.5 217.5,320.5C 203.5,320.5 189.5,320.5 175.5,320.5C 175.5,320.167 175.5,319.833 175.5,319.5C 189.5,319.5 203.5,319.5 217.5,319.5C 217.5,305.5 217.5,291.5 217.5,277.5C 217.5,263.167 217.5,248.833 217.5,234.5C 217.5,221.5 217.5,208.5 217.5,195.5 Z"/></g>
<g><path style="opacity:1" fill="#fdfdfd" d="M 303.5,320.5 C 316.5,320.5 329.5,320.5 342.5,320.5C 342.5,334.5 342.5,348.5 342.5,362.5C 329.5,362.5 316.5,362.5 303.5,362.5C 303.5,348.5 303.5,334.5 303.5,320.5 Z"/></g>
<g><path style="opacity:1" fill="#000000" d="M 261.5,320.5 C 275.5,320.5 289.5,320.5 303.5,320.5C 303.5,334.5 303.5,348.5 303.5,362.5C 289.5,362.5 275.5,362.5 261.5,362.5C 261.5,348.5 261.5,334.5 261.5,320.5 Z"/></g>
<g><path style="opacity:1" fill="#fefefe" d="M 260.5,320.5 C 260.5,334.5 260.5,348.5 260.5,362.5C 246.5,362.5 232.5,362.5 218.5,362.5C 218.5,348.5 218.5,334.5 218.5,320.5C 232.5,320.5 246.5,320.5 260.5,320.5 Z"/></g>
<g><path style="opacity:1" fill="#fefffe" d="M 175.5,363.5 C 189.5,363.5 203.5,363.5 217.5,363.5C 217.5,373.833 217.5,384.167 217.5,394.5C 203.5,394.5 189.5,394.5 175.5,394.5C 175.5,384.167 175.5,373.833 175.5,363.5 Z"/></g>
<g><path style="opacity:1" fill="#fefffe" d="M 303.5,363.5 C 303.5,373.833 303.5,384.167 303.5,394.5C 289.5,394.5 275.5,394.5 261.5,394.5C 261.5,384.167 261.5,373.833 261.5,363.5C 275.5,363.5 289.5,363.5 303.5,363.5 Z"/></g>
<g><path style="opacity:1" fill="#009936" d="M 80.5,378.5 C 83.6516,377.959 86.1516,378.959 88,381.5C 88.5355,396.097 82.8689,407.764 71,416.5C 69.5013,405.77 70.8347,395.437 75,385.5C 76.6665,383.004 78.4998,380.671 80.5,378.5 Z"/></g>
<g><path style="opacity:1" fill="#009936" d="M 393.5,378.5 C 398.444,378.602 401.944,380.935 404,385.5C 408.097,395.468 409.43,405.801 408,416.5C 396.161,407.822 390.494,396.156 391,381.5C 391.698,380.309 392.531,379.309 393.5,378.5 Z"/></g>
<g><path style="opacity:1" fill="#ececec" d="M 65.5,388.5 C 66.8333,388.5 68.1667,388.5 69.5,388.5C 67.5825,395.673 66.4158,403.007 66,410.5C 61.5836,403.257 61.4169,395.923 65.5,388.5 Z"/></g>
<g><path style="opacity:1" fill="#eaeaea" d="M 408.5,387.5 C 413.445,387.757 415.945,390.423 416,395.5C 416.751,400.834 415.751,405.834 413,410.5C 412.455,402.609 410.955,394.942 408.5,387.5 Z"/></g>
<g><path style="opacity:1" fill="#e9c216" d="M 190.5,399.5 C 190.5,402.167 190.5,404.833 190.5,407.5C 192.099,407.232 193.432,407.566 194.5,408.5C 188.167,408.5 181.833,408.5 175.5,408.5C 174.081,407.549 172.415,407.216 170.5,407.5C 170.5,404.833 170.5,402.167 170.5,399.5C 177.167,399.5 183.833,399.5 190.5,399.5 Z"/></g>
<g><path style="opacity:1" fill="#f9e201" d="M 190.5,399.5 C 201.833,399.5 213.167,399.5 224.5,399.5C 229.807,400.651 234.807,402.651 239.5,405.5C 243.954,402.105 248.954,400.105 254.5,399.5C 278.167,399.5 301.833,399.5 325.5,399.5C 325.5,402.167 325.5,404.833 325.5,407.5C 323.585,407.216 321.919,407.549 320.5,408.5C 298.831,408.333 277.164,408.5 255.5,409C 252.382,410.059 249.382,411.392 246.5,413C 244.317,415.35 241.984,417.517 239.5,419.5C 234.869,413.684 228.869,410.184 221.5,409C 212.506,408.5 203.506,408.334 194.5,408.5C 193.432,407.566 192.099,407.232 190.5,407.5C 190.5,404.833 190.5,402.167 190.5,399.5 Z"/></g>
<g><path style="opacity:1" fill="#009937" d="M 33.5,402.5 C 46.4957,403.167 56.8291,408.834 64.5,419.5C 52.1273,421.991 40.4607,420.158 29.5,414C 24.7662,408.11 26.0995,404.277 33.5,402.5 Z"/></g>
<g><path style="opacity:1" fill="#009936" d="M 437.5,402.5 C 442.08,402.113 446.414,402.947 450.5,405C 453.197,408.271 452.864,411.271 449.5,414C 438.425,419.606 426.759,421.439 414.5,419.5C 420.321,411.113 427.988,405.447 437.5,402.5 Z"/></g>
<g><path style="opacity:1" fill="#009836" d="M 102.5,408.5 C 105.652,407.959 108.152,408.959 110,411.5C 108.735,425.327 101.901,435.661 89.5,442.5C 88.1935,431.908 90.6935,422.241 97,413.5C 98.7297,411.598 100.563,409.931 102.5,408.5 Z"/></g>
<g><path style="opacity:1" fill="#009937" d="M 371.5,408.5 C 378.069,408.886 382.569,412.219 385,418.5C 395.481,445.899 391.481,448.899 373,427.5C 369.271,422.726 367.938,417.393 369,411.5C 370.045,410.627 370.878,409.627 371.5,408.5 Z"/></g>
<g><path style="opacity:1" fill="#009736" d="M 412.5,440.5 C 418.925,440.13 425.258,440.63 431.5,442C 437.717,445.186 438.05,448.853 432.5,453C 420.53,455.123 409.196,453.29 398.5,447.5C 398.709,446.914 399.043,446.414 399.5,446C 403.893,444.044 408.226,442.211 412.5,440.5 Z"/></g>
<g><path style="opacity:1" fill="#009a37" d="M 49.5,440.5 C 60.5749,439.354 70.9083,441.52 80.5,447C 75.3901,450.365 69.7235,452.365 63.5,453C 57.8333,453.667 52.1667,453.667 46.5,453C 43.3114,451.456 42.1447,448.956 43,445.5C 44.9651,443.45 47.1318,441.783 49.5,440.5 Z"/></g>
<g><path style="opacity:1" fill="#a1a1a1" d="M 214.5,446.5 C 182.833,445.167 151.167,445.167 119.5,446.5C 118.711,446.217 118.044,445.717 117.5,445C 150.5,444.333 183.5,444.333 216.5,445C 215.956,445.717 215.289,446.217 214.5,446.5 Z"/></g>
<g><path style="opacity:1" fill="#9f9f9f" d="M 359.5,446.5 C 327.671,445.502 295.671,445.168 263.5,445.5C 294.791,444.34 327.458,444.173 361.5,445C 360.956,445.717 360.289,446.217 359.5,446.5 Z"/></g>
<g><path style="opacity:1" fill="#fdfdfd" d="M 214.5,446.5 C 207.779,450.948 200.946,455.281 194,459.5C 193.501,465.157 193.334,470.824 193.5,476.5C 169.328,476.831 145.328,476.498 121.5,475.5C 125.288,470.54 129.288,465.707 133.5,461C 128.63,456.298 123.963,451.465 119.5,446.5C 151.167,445.167 182.833,445.167 214.5,446.5 Z"/></g>
<g><path style="opacity:1" fill="#fdfdfd" d="M 263.5,445.5 C 295.671,445.168 327.671,445.502 359.5,446.5C 355.037,451.465 350.37,456.298 345.5,461C 349.712,465.707 353.712,470.54 357.5,475.5C 333.672,476.498 309.672,476.831 285.5,476.5C 285.666,470.824 285.499,465.157 285,459.5C 277.658,454.97 270.491,450.304 263.5,445.5 Z"/></g>
<g><path style="opacity:1" fill="#f2f2f2" d="M 220.5,446.5 C 222.414,449.684 223.08,453.351 222.5,457.5C 216.491,457.666 210.491,457.499 204.5,457C 210.07,453.725 215.403,450.225 220.5,446.5 Z"/></g>
<g><path style="opacity:1" fill="#f4f4f4" d="M 256.5,446.5 C 262.609,449.724 268.609,453.224 274.5,457C 268.509,457.499 262.509,457.666 256.5,457.5C 256.5,453.833 256.5,450.167 256.5,446.5 Z"/></g>
<g><path style="opacity:1" fill="#f6f6f6" d="M 197.5,461.5 C 225.5,461.5 253.5,461.5 281.5,461.5C 281.5,471.167 281.5,480.833 281.5,490.5C 253.5,490.5 225.5,490.5 197.5,490.5C 197.5,480.833 197.5,471.167 197.5,461.5 Z"/></g>
<g><path style="opacity:1" fill="#111111" d="M 226.5,465.5 C 230.287,464.814 233.454,465.814 236,468.5C 236.909,474.612 236.576,480.612 235,486.5C 229.9,489.907 226.067,488.907 223.5,483.5C 224.333,483.167 225.167,482.833 226,482.5C 227.8,483.378 229.633,484.045 231.5,484.5C 231.66,482.801 231.494,481.134 231,479.5C 228.075,481.018 225.742,480.351 224,477.5C 223.333,474.5 223.333,471.5 224,468.5C 224.698,467.309 225.531,466.309 226.5,465.5 Z"/></g>
<g><path style="opacity:1" fill="#111111" d="M 241.5,465.5 C 244.518,465.335 247.518,465.502 250.5,466C 251.126,466.75 251.626,467.584 252,468.5C 252.667,473.833 252.667,479.167 252,484.5C 248.399,489.321 244.399,489.654 240,485.5C 239.333,479.5 239.333,473.5 240,467.5C 240.717,466.956 241.217,466.289 241.5,465.5 Z"/></g>
<g><path style="opacity:1" fill="#171717" d="M 257.5,465.5 C 266.99,464.138 269.657,467.638 265.5,476C 269.911,480.868 269.244,484.868 263.5,488C 258.004,488.681 255.004,486.181 254.5,480.5C 256.167,480.5 257.833,480.5 259.5,480.5C 259.222,482.346 259.889,483.68 261.5,484.5C 263.657,483.034 263.99,481.2 262.5,479C 259.553,478.888 258.22,477.388 258.5,474.5C 261.91,474.616 263.244,472.95 262.5,469.5C 261.5,469.5 260.5,469.5 259.5,469.5C 259.5,470.5 259.5,471.5 259.5,472.5C 257.833,472.5 256.167,472.5 254.5,472.5C 254.15,469.547 255.15,467.213 257.5,465.5 Z"/></g>
<g><path style="opacity:1" fill="#080808" d="M 216.5,465.5 C 217.5,465.5 218.5,465.5 219.5,465.5C 219.5,472.833 219.5,480.167 219.5,487.5C 218.167,487.5 216.833,487.5 215.5,487.5C 215.5,482.5 215.5,477.5 215.5,472.5C 213.833,472.5 212.167,472.5 210.5,472.5C 210.5,471.167 210.5,469.833 210.5,468.5C 213.313,468.975 215.313,467.975 216.5,465.5 Z"/></g>
<g><path style="opacity:1" fill="#e4e4e4" d="M 228.5,469.5 C 229.5,469.5 230.5,469.5 231.5,469.5C 231.5,471.833 231.5,474.167 231.5,476.5C 230.5,476.5 229.5,476.5 228.5,476.5C 228.5,474.167 228.5,471.833 228.5,469.5 Z"/></g>
<g><path style="opacity:1" fill="#ededed" d="M 244.5,469.5 C 245.5,469.5 246.5,469.5 247.5,469.5C 247.5,474.5 247.5,479.5 247.5,484.5C 246.5,484.5 245.5,484.5 244.5,484.5C 244.5,479.5 244.5,474.5 244.5,469.5 Z"/></g>
<g><path style="opacity:1" fill="#808080" d="M 121.5,475.5 C 145.328,476.498 169.328,476.831 193.5,476.5C 169.33,477.829 144.997,477.829 120.5,476.5C 120.624,475.893 120.957,475.56 121.5,475.5 Z"/></g>
<g><path style="opacity:1" fill="#7f7f7f" d="M 357.5,475.5 C 358.043,475.56 358.376,475.893 358.5,476.5C 334.003,477.829 309.67,477.829 285.5,476.5C 309.672,476.831 333.672,476.498 357.5,475.5 Z"/></g>
<g><path style="opacity:1" fill="#bababa" d="M 112.5,479.5 C 139.5,480.167 166.5,480.833 193.5,481.5C 166.159,481.833 138.825,481.5 111.5,480.5C 111.624,479.893 111.957,479.56 112.5,479.5 Z"/></g>
<g><path style="opacity:1" fill="#bababa" d="M 366.5,479.5 C 367.043,479.56 367.376,479.893 367.5,480.5C 340.175,481.5 312.841,481.833 285.5,481.5C 312.5,480.833 339.5,480.167 366.5,479.5 Z"/></g>
</svg>
