<?xml version="1.0" encoding="UTF-8"?>
<svg version="1.1" xmlns="http://www.w3.org/2000/svg" width="30" height="30">
<path d="M0 0 C0.7528125 -0.00257812 1.505625 -0.00515625 2.28125 -0.0078125 C4.473535 0.12341583 6.39319137 0.52168662 8.5 1.125 C8.17 3.105 7.84 5.085 7.5 7.125 C8.49 7.785 9.48 8.445 10.5 9.125 C10.5 9.785 10.5 10.445 10.5 11.125 C11.49 11.125 12.48 11.125 13.5 11.125 C15.20430906 24.0685364 15.20430906 24.0685364 12.5 28.125 C4.35533806 31.56758907 -4.21898519 30.22811487 -12.5 28.125 C-14.20366626 22.04248904 -14.63253652 17.35395086 -13.5 11.125 C-12.51 11.125 -11.52 11.125 -10.5 11.125 C-10.17 10.135 -9.84 9.145 -9.5 8.125 C-8.84 7.795 -8.18 7.465 -7.5 7.125 C-7.83 5.145 -8.16 3.165 -8.5 1.125 C-5.59959681 0.29442999 -3.01427898 -0.01032287 0 0 Z M-8.5 10.125 C-9.89151652 14.91800133 -9.18662689 19.27635782 -8.5 24.125 C-8.17 24.125 -7.84 24.125 -7.5 24.125 C-7.5 19.505 -7.5 14.885 -7.5 10.125 C-7.83 10.125 -8.16 10.125 -8.5 10.125 Z M7.5 10.125 C7.5 14.745 7.5 19.365 7.5 24.125 C9.37184371 20.38131258 9.73999767 19.2849209 9.625 15.375 C9.60695313 14.57578125 9.58890625 13.7765625 9.5703125 12.953125 C9.54710937 12.34984375 9.52390625 11.7465625 9.5 11.125 C8.84 10.795 8.18 10.465 7.5 10.125 Z M-7.5 25.125 C-7.5 25.455 -7.5 25.785 -7.5 26.125 C-5.19 26.125 -2.88 26.125 -0.5 26.125 C-0.5 25.795 -0.5 25.465 -0.5 25.125 C-2.81 25.125 -5.12 25.125 -7.5 25.125 Z M0.5 25.125 C0.5 25.455 0.5 25.785 0.5 26.125 C2.81 26.125 5.12 26.125 7.5 26.125 C7.5 25.795 7.5 25.465 7.5 25.125 C5.19 25.125 2.88 25.125 0.5 25.125 Z " fill="#695B04" transform="translate(14.5,-0.125)"/>
<path d="M0 0 C0.66 0 1.32 0 2 0 C1.89171875 0.85271484 1.89171875 0.85271484 1.78125 1.72265625 C1.20416899 6.52364968 0.89714162 11.16565627 1 16 C6.98887526 17.61034201 12.16126262 18.91936869 18 16 C18.02701408 13.89590361 18.04640223 11.79170822 18.0625 9.6875 C18.07410156 8.51574219 18.08570312 7.34398437 18.09765625 6.13671875 C18.14899898 2.96940805 18.14899898 2.96940805 17 0 C17.99 0.33 18.98 0.66 20 1 C20 1.66 20 2.32 20 3 C20.99 3 21.98 3 23 3 C24.70430906 15.9435364 24.70430906 15.9435364 22 20 C13.85533806 23.44258907 5.28101481 22.10311487 -3 20 C-4.70366626 13.91748904 -5.13253652 9.22895086 -4 3 C-3.01 3 -2.02 3 -1 3 C-0.67 2.01 -0.34 1.02 0 0 Z " fill="#08200A" transform="translate(5,8)"/>
<path d="M0 0 C1.65 0 3.3 0 5 0 C4 2 4 2 3 3 C3.99 3 4.98 3 6 3 C6 2.01 6 1.02 6 0 C6.99 0.33 7.98 0.66 9 1 C8.34 1 7.68 1 7 1 C7 1.66 7 2.32 7 3 C9.31 3 11.62 3 14 3 C13.01 3.495 13.01 3.495 12 4 C12 4.66 12 5.32 12 6 C12.66 6 13.32 6 14 6 C14 6.99 14 7.98 14 9 C13.34 9 12.68 9 12 9 C12 9.66 12 10.32 12 11 C12.66 11 13.32 11 14 11 C14 11.99 14 12.98 14 14 C13.01 14 12.02 14 11 14 C11 14.66 11 15.32 11 16 C10.34 16 9.68 16 9 16 C9 15.34 9 14.68 9 14 C8.01 14 7.02 14 6 14 C6 14.66 6 15.32 6 16 C5.34 16 4.68 16 4 16 C4 15.34 4 14.68 4 14 C3.01 14 2.02 14 1 14 C1 13.01 1 12.02 1 11 C1.66 11 2.32 11 3 11 C3 10.34 3 9.68 3 9 C2.34 9 1.68 9 1 9 C1 8.01 1 7.02 1 6 C1.99 6 2.98 6 4 6 C4 5.34 4 4.68 4 4 C2.68 4 1.36 4 0 4 C0 2.68 0 1.36 0 0 Z " fill="#A8A689" transform="translate(7,8)"/>
<path d="M0 0 C0.99 0.33 1.98 0.66 3 1 C3 1.66 3 2.32 3 3 C3.99 3 4.98 3 6 3 C7.51708428 14.52164009 7.51708428 14.52164009 5 20 C3.35 20.33 1.7 20.66 0 21 C-0.33 19.35 -0.66 17.7 -1 16 C-0.34 16 0.32 16 1 16 C1.02701408 13.89590361 1.04640223 11.79170822 1.0625 9.6875 C1.07410156 8.51574219 1.08570313 7.34398437 1.09765625 6.13671875 C1.14899898 2.96940805 1.14899898 2.96940805 0 0 Z " fill="#082009" transform="translate(22,8)"/>
<path d="M0 0 C1.32 0 2.64 0 4 0 C4 0.66 4 1.32 4 2 C3.01 2 2.02 2 1 2 C1 2.99 1 3.98 1 5 C1.66 5 2.32 5 3 5 C3 5.66 3 6.32 3 7 C2.34 7 1.68 7 1 7 C1 7.99 1 8.98 1 10 C1.99 10 2.98 10 4 10 C4 10.66 4 11.32 4 12 C4.66 12 5.32 12 6 12 C6 11.34 6 10.68 6 10 C6.99 10 7.98 10 9 10 C9 10.66 9 11.32 9 12 C9.66 12 10.32 12 11 12 C11 11.34 11 10.68 11 10 C11.99 10 12.98 10 14 10 C14 10.99 14 11.98 14 13 C8.51053913 14.12029814 5.16569441 13.79217969 0 12 C0 8.04 0 4.08 0 0 Z " fill="#615B0A" transform="translate(7,12)"/>
<path d="M0 0 C0.99 0.33 1.98 0.66 3 1 C2.34 1 1.68 1 1 1 C1 1.66 1 2.32 1 3 C3.31 3 5.62 3 8 3 C7.01 3.495 7.01 3.495 6 4 C6 4.66 6 5.32 6 6 C6.66 6 7.32 6 8 6 C8 6.99 8 7.98 8 9 C7.34 9 6.68 9 6 9 C6 9.66 6 10.32 6 11 C4.02 11 2.04 11 0 11 C0 10.34 0 9.68 0 9 C0.99 9 1.98 9 3 9 C3 8.01 3 7.02 3 6 C2.01 6 1.02 6 0 6 C0 4.02 0 2.04 0 0 Z " fill="#7A7976" transform="translate(13,8)"/>
<path d="M0 0 C4.95 0 9.9 0 15 0 C15 0.99 15 1.98 15 3 C10.1129572 4.5638537 4.8870428 4.5638537 0 3 C0 2.01 0 1.02 0 0 Z " fill="#909090" transform="translate(7,26)"/>
<path d="M0 0 C0.33 0.66 0.66 1.32 1 2 C1.66 2 2.32 2 3 2 C3 1.34 3 0.68 3 0 C6.3 0 9.6 0 13 0 C13 0.99 13 1.98 13 3 C12.01 3 11.02 3 10 3 C10 3.66 10 4.32 10 5 C9.34 5 8.68 5 8 5 C8 4.34 8 3.68 8 3 C7.01 3 6.02 3 5 3 C5 3.66 5 4.32 5 5 C4.34 5 3.68 5 3 5 C3 4.34 3 3.68 3 3 C2.01 3 1.02 3 0 3 C0 2.01 0 1.02 0 0 Z " fill="#959489" transform="translate(8,19)"/>
<path d="M0 0 C2.00720923 0.28674418 4.0085944 0.61866701 6 1 C5.34 2.98 4.68 4.96 4 7 C2.68 7 1.36 7 0 7 C-0.38133299 5.0085944 -0.71325582 3.00720923 -1 1 C-0.67 0.67 -0.34 0.34 0 0 Z " fill="#665A00" transform="translate(17,0)"/>
<path d="M0 0 C0.99 0.33 1.98 0.66 3 1 C2.34 1 1.68 1 1 1 C1 1.66 1 2.32 1 3 C3.31 3 5.62 3 8 3 C7.01 3.495 7.01 3.495 6 4 C6 4.66 6 5.32 6 6 C4.02 6 2.04 6 0 6 C0 4.02 0 2.04 0 0 Z " fill="#868354" transform="translate(13,8)"/>
<path d="M0 0 C0.33 0.66 0.66 1.32 1 2 C1.66 2 2.32 2 3 2 C3.33 2.99 3.66 3.98 4 5 C3.01 5.33 2.02 5.66 1 6 C0.67 6.99 0.34 7.98 0 9 C-1.10844919 5.67465243 -0.84454356 3.37817425 0 0 Z " fill="#7B7100" transform="translate(8,2)"/>
<path d="M0 0 C0 0.99 0 1.98 0 3 C-2.31 3 -4.62 3 -7 3 C-7 2.34 -7 1.68 -7 1 C-4 0 -4 0 0 0 Z " fill="#3E3D2C" transform="translate(21,8)"/>
<path d="M0 0 C0.99 0 1.98 0 3 0 C3.33 1.65 3.66 3.3 4 5 C2.35 5 0.7 5 -1 5 C-0.67 3.35 -0.34 1.7 0 0 Z " fill="#8C7F00" transform="translate(13,0)"/>
</svg>
