<?xml version="1.0" encoding="UTF-8"?>
<svg version="1.1" xmlns="http://www.w3.org/2000/svg" width="30" height="30">
<path d="M0 0 C1.7634375 -0.00773437 1.7634375 -0.00773437 3.5625 -0.015625 C7.01937245 0.25149696 9.77517473 1.01119517 13 2.25 C12.690625 2.848125 12.38125 3.44625 12.0625 4.0625 C9.65150068 9.02632213 9.7319696 13.86982555 9.65820312 19.26953125 C9.51486646 22.84961451 9.07699893 25.12053277 7.234375 28.21875 C4.76666399 30.46212365 3.84296292 30.93185378 0.5625 30.875 C-0.17871094 30.88789063 -0.91992188 30.90078125 -1.68359375 30.9140625 C-5.27435761 29.88466982 -6.75461235 28.19974669 -9 25.25 C-9.44839994 22.40819262 -9.65631711 20.07897881 -9.625 17.25 C-9.625 12.09510692 -9.98351307 8.59118754 -13 4.25 C-13 3.59 -13 2.93 -13 2.25 C-8.52268535 0.53005596 -4.78853369 -0.02100234 0 0 Z " fill="#9B8C77" transform="translate(15,-0.25)"/>
<path d="M0 0 C2.64 0 5.28 0 8 0 C10.27232834 7.57442779 9.68885947 13.32218504 8 21 C2.25 20.25 2.25 20.25 0 18 C-0.22705078 16.12060547 -0.22705078 16.12060547 -0.1953125 13.8671875 C-0.18886719 13.06152344 -0.18242188 12.25585938 -0.17578125 11.42578125 C-0.15064453 10.16314453 -0.15064453 10.16314453 -0.125 8.875 C-0.11597656 8.02550781 -0.10695313 7.17601562 -0.09765625 6.30078125 C-0.07405647 4.20040116 -0.03818483 2.10016556 0 0 Z " fill="#B8896B" transform="translate(7,9)"/>
<path d="M0 0 C4.29 0 8.58 0 13 0 C12.34 1.98 11.68 3.96 11 6 C11.66 6 12.32 6 13 6 C13 4.68 13 3.36 13 2 C13.66 2 14.32 2 15 2 C15 3.65 15 5.3 15 7 C13.35 7 11.7 7 10 7 C10 9.97 10 12.94 10 16 C11.32 16 12.64 16 14 16 C14 13.36 14 10.72 14 8 C14.33 8 14.66 8 15 8 C16.58350566 15.90031626 16.58350566 15.90031626 14.375 20.0625 C11.56757203 22.35277019 10.49690942 22.18007341 7 22 C7.08378906 21.21496094 7.16757813 20.42992188 7.25390625 19.62109375 C7.81462023 13.83651284 8.11646311 8.70636699 7 3 C7 2.34 7 1.68 7 1 C4.69 1 2.38 1 0 1 C0 0.67 0 0.34 0 0 Z " fill="#E2E3E4" transform="translate(8,8)"/>
<path d="M0 0 C2.64 0 5.28 0 8 0 C8.80967438 2.91482778 9.21845993 4.46113217 8.0625 7.3125 C7.5365625 8.1478125 7.5365625 8.1478125 7 9 C6.67 8.01 6.34 7.02 6 6 C4.35 6 2.7 6 1 6 C1 8.97 1 11.94 1 15 C0.67 15 0.34 15 0 15 C0 10.05 0 5.1 0 0 Z " fill="#D40912" transform="translate(7,9)"/>
<path d="M0 0 C-0.16371094 0.97066406 -0.32742187 1.94132813 -0.49609375 2.94140625 C-1.11628841 7.28276888 -1.11126417 11.55997771 -1.0625 15.9375 C-1.05798828 16.71673828 -1.05347656 17.49597656 -1.04882812 18.29882812 C-1.03716908 20.19925268 -1.01923877 22.09963706 -1 24 C-1.33 24 -1.66 24 -2 24 C-2.03738281 22.90300781 -2.07476562 21.80601563 -2.11328125 20.67578125 C-2.17896653 19.22132143 -2.24541299 17.76689584 -2.3125 16.3125 C-2.34633789 15.2306543 -2.34633789 15.2306543 -2.38085938 14.12695312 C-2.60935395 9.57783388 -3.34596963 6.83518061 -6 3 C-6 2.34 -6 1.68 -6 1 C-3 0 -3 0 0 0 Z " fill="#B79B95" transform="translate(8,1)"/>
<path d="M0 0 C0.99 0.66 1.98 1.32 3 2 C2.67 4.97 2.34 7.94 2 11 C1.01 10.67 0.02 10.34 -1 10 C-1 9.34 -1 8.68 -1 8 C-2.32 7.67 -3.64 7.34 -5 7 C-4.67 6.34 -4.34 5.68 -4 5 C-2.68 5 -1.36 5 0 5 C0 3.35 0 1.7 0 0 Z " fill="#B71420" transform="translate(13,19)"/>
<path d="M0 0 C1.32 0 2.64 0 4 0 C4 2.97 4 5.94 4 9 C2.68 9 1.36 9 0 9 C0 6.03 0 3.06 0 0 Z " fill="#B79365" transform="translate(18,15)"/>
<path d="M0 0 C4.62 0 9.24 0 14 0 C13.01 0.33 12.02 0.66 11 1 C11 1.66 11 2.32 11 3 C9.02 3.66 7.04 4.32 5 5 C4.67 3.68 4.34 2.36 4 1 C2.68 0.67 1.36 0.34 0 0 Z " fill="#CDBFAD" transform="translate(8,0)"/>
<path d="M0 0 C1.98 0 3.96 0 6 0 C6.33 1.65 6.66 3.3 7 5 C6.401875 4.814375 5.80375 4.62875 5.1875 4.4375 C2.83591238 3.77906313 2.83591238 3.77906313 0 5 C0 3.35 0 1.7 0 0 Z " fill="#874161" transform="translate(9,9)"/>
<path d="M0 0 C1.65 0.33 3.3 0.66 5 1 C3.79618552 3.49361571 2.54571278 5.68143083 1 8 C0.26919734 6.02253397 -0.39421747 4.01927511 -1 2 C-0.67 1.34 -0.34 0.68 0 0 Z " fill="#D4C9BB" transform="translate(23,1)"/>
<path d="M0 0 C1.32 0 2.64 0 4 0 C4 1.98 4 3.96 4 6 C3.34 6 2.68 6 2 6 C2 5.34 2 4.68 2 4 C0.68 3.67 -0.64 3.34 -2 3 C-1.34 2.67 -0.68 2.34 0 2 C0 1.34 0 0.68 0 0 Z " fill="#AC8F69" transform="translate(19,1)"/>
<path d="M0 0 C0.66 0.66 1.32 1.32 2 2 C2.66 1.67 3.32 1.34 4 1 C4.33 2.32 4.66 3.64 5 5 C4.01 5 3.02 5 2 5 C1.34 6.32 0.68 7.64 0 9 C0 6.03 0 3.06 0 0 Z " fill="#A55450" transform="translate(12,15)"/>
<path d="M0 0 C0.33 0.99 0.66 1.98 1 3 C-1 5 -1 5 -3.625 5.125 C-4.40875 5.08375 -5.1925 5.0425 -6 5 C-4.62308038 2.24616077 -2.63279958 1.48516899 0 0 Z " fill="#B3BDC9" transform="translate(21,25)"/>
<path d="M0 0 C0.33 0 0.66 0 1 0 C1.22174933 1.45635371 1.42698698 2.91522956 1.625 4.375 C1.74101562 5.18710937 1.85703125 5.99921875 1.9765625 6.8359375 C1.98429687 7.55007812 1.99203125 8.26421875 2 9 C1.34 9.66 0.68 10.32 0 11 C-1.32 10.01 -2.64 9.02 -4 8 C-2.68 8 -1.36 8 0 8 C0 5.36 0 2.72 0 0 Z " fill="#DEDEDE" transform="translate(22,16)"/>
<path d="M0 0 C0 0.99 0 1.98 0 3 C-0.66 3 -1.32 3 -2 3 C-2.66 3.66 -3.32 4.32 -4 5 C-4.66 3.68 -5.32 2.36 -6 1 C-3 0 -3 0 0 0 Z " fill="#DFD8CE" transform="translate(8,1)"/>
</svg>
