<?xml version="1.0" encoding="UTF-8"?>
<svg version="1.1" xmlns="http://www.w3.org/2000/svg" width="30" height="30">
<path d="M0 0 C8.25 0 16.5 0 25 0 C25 20.5862069 25 20.5862069 17.1875 28.9375 C13.73501532 30.61442113 11.62546415 30.08127878 8 29 C1.62779038 23.05260436 0.74454777 15.94913268 0.375 7.5625 C0.25125 5.066875 0.1275 2.57125 0 0 Z " fill="#131213" transform="translate(2,0)"/>
<path d="M0 0 C8.25 0 16.5 0 25 0 C25 20.5862069 25 20.5862069 17.1875 28.9375 C13.73501532 30.61442113 11.62546415 30.08127878 8 29 C1.62779038 23.05260436 0.74454777 15.94913268 0.375 7.5625 C0.25125 5.066875 0.1275 2.57125 0 0 Z M2 2 C2.02972883 15.0517581 2.02972883 15.0517581 7.8125 26.0625 C10.74589271 28.17705825 10.74589271 28.17705825 13.5625 28.1875 C17.16055928 26.43459933 19.27337286 24.56668234 21 21 C22.43561617 14.68032882 23 8.47234983 23 2 C16.07 2 9.14 2 2 2 Z " fill="#4F4F50" transform="translate(2,0)"/>
<path d="M0 0 C6.93 0 13.86 0 21 0 C20.67 2.64 20.34 5.28 20 8 C17.36 8.33 14.72 8.66 12 9 C12 7.02 12 5.04 12 3 C11.01 3 10.02 3 9 3 C9 4.98 9 6.96 9 9 C7.33388095 9.042721 5.66617115 9.04063832 4 9 C3.67 8.67 3.34 8.34 3 8 C2.67 9.65 2.34 11.3 2 13 C1.67 13 1.34 13 1 13 C0.67 8.71 0.34 4.42 0 0 Z " fill="#060506" transform="translate(4,2)"/>
<path d="M0 0 C1.65 0 3.3 0 5 0 C4.67 2.31 4.34 4.62 4 7 C6.31 6.34 8.62 5.68 11 5 C11 6.98 11 8.96 11 11 C8.69 10.67 6.38 10.34 4 10 C4.33 13.63 4.66 17.26 5 21 C3.35 21 1.7 21 0 21 C0.33 17.37 0.66 13.74 1 10 C-1.31 10.33 -3.62 10.66 -6 11 C-6 9.02 -6 7.04 -6 5 C-3.69 5.66 -1.38 6.32 1 7 C0.67 4.69 0.34 2.38 0 0 Z " fill="#B11A21" transform="translate(12,4)"/>
<path d="M0 0 C8.25 0 16.5 0 25 0 C25 5.51738922 24.87401535 9.75590789 24 15 C23.67 15 23.34 15 23 15 C23 10.71 23 6.42 23 2 C16.07 2 9.14 2 2 2 C2 5.96 2 9.92 2 14 C1.67 14 1.34 14 1 14 C0.019497 9.09748502 0 5.19057759 0 0 Z " fill="#494949" transform="translate(2,0)"/>
<path d="M0 0 C0.05447047 1.41623216 0.09300508 2.83308191 0.125 4.25 C0.14820313 5.03890625 0.17140625 5.8278125 0.1953125 6.640625 C-0.0171622 9.20731941 -0.71345895 10.7916067 -2 13 C-6.92307692 7.83076923 -6.92307692 7.83076923 -7.3125 3.625 C-7.209375 2.75875 -7.10625 1.8925 -7 1 C-4.53721199 -0.231394 -2.7204945 -0.07159196 0 0 Z " fill="#1B1A1B" transform="translate(13,14)"/>
<path d="M0 0 C1.65 0 3.3 0 5 0 C4.67 2.31 4.34 4.62 4 7 C5.65 7 7.3 7 9 7 C9 7.66 9 8.32 9 9 C7.02 9 5.04 9 3 9 C3 12.3 3 15.6 3 19 C2.67 19 2.34 19 2 19 C2 15.7 2 12.4 2 9 C0.02 9 -1.96 9 -4 9 C-4 8.34 -4 7.68 -4 7 C-2.35 7 -0.7 7 1 7 C0.67 4.69 0.34 2.38 0 0 Z " fill="#E3323A" transform="translate(12,4)"/>
<path d="M0 0 C0.33 0 0.66 0 1 0 C1.68839211 13.95906226 1.68839211 13.95906226 -0.75 17.75 C-2.79482301 19.79482301 -4.2916953 21.03274832 -7 22 C-6.3503125 20.9790625 -6.3503125 20.9790625 -5.6875 19.9375 C-1.79513104 13.16189478 -0.45296739 7.76292382 0 0 Z " fill="#59595A" transform="translate(24,7)"/>
<path d="M0 0 C0.33 0 0.66 0 1 0 C1 1.98 1 3.96 1 6 C2.98 6 4.96 6 7 6 C7 6.33 7 6.66 7 7 C5.02 7 3.04 7 1 7 C1 10.3 1 13.6 1 17 C0.67 17 0.34 17 0 17 C0 13.7 0 10.4 0 7 C-1.98 7 -3.96 7 -6 7 C-6 6.67 -6 6.34 -6 6 C-4.02 6 -2.04 6 0 6 C0 4.02 0 2.04 0 0 Z " fill="#FBDDDD" transform="translate(14,6)"/>
<path d="M0 0 C0.66 0.33 1.32 0.66 2 1 C2 2.98 2 4.96 2 7 C0.35 7 -1.3 7 -3 7 C-3.1875 4.625 -3.1875 4.625 -3 2 C-2.01 1.34 -1.02 0.68 0 0 Z " fill="#2F2627" transform="translate(11,4)"/>
<path d="M0 0 C2.0625 0.4375 2.0625 0.4375 4 1 C3.34 2.65 2.68 4.3 2 6 C2.66 6.33 3.32 6.66 4 7 C2.35 7 0.7 7 -1 7 C-1.04254356 5.00045254 -1.04080783 2.99958364 -1 1 C-0.67 0.67 -0.34 0.34 0 0 Z " fill="#423839" transform="translate(17,4)"/>
<path d="M0 0 C0.33 0 0.66 0 1 0 C1.33 3.63 1.66 7.26 2 11 C1.01 11 0.02 11 -1 11 C-0.67 7.37 -0.34 3.74 0 0 Z " fill="#848484" transform="translate(4,7)"/>
</svg>
