<?xml version="1.0" encoding="UTF-8"?>
<!DOCTYPE svg PUBLIC "-//W3C//DTD SVG 1.1//EN" "http://www.w3.org/Graphics/SVG/1.1/DTD/svg11.dtd">
<svg xmlns="http://www.w3.org/2000/svg" version="1.1" width="295px" height="350px" style="shape-rendering:geometricPrecision; text-rendering:geometricPrecision; image-rendering:optimizeQuality; fill-rule:evenodd; clip-rule:evenodd" xmlns:xlink="http://www.w3.org/1999/xlink">
<g><path style="opacity:0.993" fill="#0d0d0d" d="M -0.5,-0.5 C 97.8333,-0.5 196.167,-0.5 294.5,-0.5C 294.5,25.1667 294.5,50.8333 294.5,76.5C 285.11,80.7464 279.61,88.0797 278,98.5C 275.945,133.165 273.945,167.831 272,202.5C 258.162,273.813 217.662,322.813 150.5,349.5C 148.167,349.5 145.833,349.5 143.5,349.5C 75.9602,323.104 35.4602,274.104 22,202.5C 20.359,166.109 18.0257,129.775 15,93.5C 12.3813,85.3866 7.21465,79.7199 -0.5,76.5C -0.5,50.8333 -0.5,25.1667 -0.5,-0.5 Z"/></g>
<g><path style="opacity:1" fill="#f4f4f4" d="M 6.5,6.5 C 100.167,6.5 193.833,6.5 287.5,6.5C 287.833,28.5101 287.5,50.5101 286.5,72.5C 278.726,77.4455 273.892,84.4455 272,93.5C 269.446,130.145 267.112,166.812 265,203.5C 254.446,258.483 225.279,300.316 177.5,329C 167.733,334.133 157.566,338.3 147,341.5C 97.739,325.245 62.739,293.245 42,245.5C 35.7822,231.427 31.4488,216.76 29,201.5C 27.0813,164.8 24.7479,128.134 22,91.5C 19.21,83.5513 14.3767,77.218 7.5,72.5C 6.50031,50.5101 6.16697,28.5101 6.5,6.5 Z"/></g>
<g><path style="opacity:1" fill="#020202" d="M 13.5,13.5 C 102.5,13.5 191.5,13.5 280.5,13.5C 280.667,31.8364 280.5,50.1697 280,68.5C 270.841,75.1391 265.508,84.1391 264,95.5C 261.913,130.491 259.913,165.491 258,200.5C 248.734,253.576 221.234,294.076 175.5,322C 166.206,326.562 156.706,330.729 147,334.5C 94.3872,315.219 59.3872,278.886 42,225.5C 39.6847,217.572 37.6847,209.572 36,201.5C 34.3602,165.812 32.3602,130.146 30,94.5C 28.2102,83.575 22.8769,74.9084 14,68.5C 13.5001,50.1697 13.3334,31.8364 13.5,13.5 Z"/></g>
<g><path style="opacity:1" fill="#f3f3f3" d="M 79.5,60.5 C 88.3964,59.8642 97.063,60.8642 105.5,63.5C 105.817,66.5719 105.484,69.5719 104.5,72.5C 97.7399,69.7615 90.7399,68.9282 83.5,70C 75.9443,74.8482 73.4443,81.6816 76,90.5C 78.173,98.0047 83.173,101.671 91,101.5C 95.6947,101.368 100.195,100.368 104.5,98.5C 105.498,103.033 103.498,105.533 98.5,106C 79.0123,110.428 68.0123,102.761 65.5,83C 65.9864,72.8536 70.653,65.3536 79.5,60.5 Z"/></g>
<g><path style="opacity:1" fill="#f5f5f5" d="M 187.5,60.5 C 199.171,60.3335 210.838,60.5001 222.5,61C 228.698,66.3692 229.032,72.0358 223.5,78C 215.561,84.4664 206.894,89.633 197.5,93.5C 197.5,98.1667 197.5,102.833 197.5,107.5C 194.167,107.5 190.833,107.5 187.5,107.5C 187.5,91.8333 187.5,76.1667 187.5,60.5 Z"/></g>
<g><path style="opacity:1" fill="#676669" d="M 127.5,64.5 C 128.497,83.9929 128.83,103.66 128.5,123.5C 109.326,123.83 90.326,123.497 71.5,122.5C 90.1667,122.5 108.833,122.5 127.5,122.5C 127.5,103.167 127.5,83.8333 127.5,64.5 Z"/></g>
<g><path style="opacity:1" fill="#040404" d="M 197.5,68.5 C 205.196,68.1692 212.862,68.5025 220.5,69.5C 219.687,70.8139 218.687,71.9805 217.5,73C 211.167,76.8333 204.833,80.6667 198.5,84.5C 197.505,79.2079 197.172,73.8746 197.5,68.5 Z"/></g>
<g><path style="opacity:1" fill="#343434" d="M 244.5,101.5 C 244.56,100.957 244.893,100.624 245.5,100.5C 246.833,127.833 246.833,155.167 245.5,182.5C 244.893,182.376 244.56,182.043 244.5,181.5C 245.833,154.833 245.833,128.167 244.5,101.5 Z"/></g>
<g><path style="opacity:1" fill="#262729" d="M 49.5,101.5 C 48.5021,127.995 48.1688,154.661 48.5,181.5C 47.1707,154.664 47.1707,127.664 48.5,100.5C 49.1067,100.624 49.44,100.957 49.5,101.5 Z"/></g>
<g><path style="opacity:1" fill="#676767" d="M 166.5,65.5 C 166.5,84.5 166.5,103.5 166.5,122.5C 185.167,122.5 203.833,122.5 222.5,122.5C 203.674,123.497 184.674,123.83 165.5,123.5C 165.17,103.993 165.503,84.6595 166.5,65.5 Z"/></g>
<g><path style="opacity:1" fill="#f3eaea" d="M 166.5,65.5 C 165.503,84.6595 165.17,103.993 165.5,123.5C 184.674,123.83 203.674,123.497 222.5,122.5C 229.86,115.472 237.193,108.472 244.5,101.5C 245.833,128.167 245.833,154.833 244.5,181.5C 237.671,173.838 230.338,166.671 222.5,160C 203.503,159.5 184.503,159.333 165.5,159.5C 165.167,195.839 165.5,232.173 166.5,268.5C 173.188,275.52 179.855,282.52 186.5,289.5C 160.167,290.833 133.833,290.833 107.5,289.5C 114.131,282.368 120.964,275.368 128,268.5C 128.5,232.168 128.667,195.835 128.5,159.5C 109.497,159.333 90.4971,159.5 71.5,160C 63.6623,167.005 55.9957,174.172 48.5,181.5C 48.1688,154.661 48.5021,127.995 49.5,101.5C 56.8069,108.472 64.1402,115.472 71.5,122.5C 90.326,123.497 109.326,123.83 128.5,123.5C 128.83,103.66 128.497,83.9929 127.5,64.5C 120.549,57.2136 113.549,49.8803 106.5,42.5C 133.827,41.3335 161.161,41.1668 188.5,42C 181.328,50.0044 173.995,57.8377 166.5,65.5 Z"/></g>
<g><path style="opacity:1" fill="#e21220" d="M 163.5,63.5 C 162.503,84.3267 162.169,105.327 162.5,126.5C 183.007,126.83 203.34,126.497 223.5,125.5C 230.104,120.565 236.104,114.898 241.5,108.5C 242.497,130.327 242.831,152.327 242.5,174.5C 236.369,168.87 230.369,163.036 224.5,157C 203.836,156.5 183.169,156.333 162.5,156.5C 162.333,194.168 162.5,231.835 163,269.5C 168.703,275.035 174.203,280.702 179.5,286.5C 169.005,287.167 158.339,287.5 147.5,287.5C 136.478,287.499 125.812,286.832 115.5,285.5C 120.436,280.062 125.603,274.729 131,269.5C 131.5,231.835 131.667,194.168 131.5,156.5C 110.831,156.333 90.164,156.5 69.5,157C 63.6667,162.833 57.8333,168.667 52,174.5C 51.3333,152.5 51.3333,130.5 52,108.5C 57.7368,114.741 63.9035,120.408 70.5,125.5C 90.6598,126.497 110.993,126.83 131.5,126.5C 131.831,105.327 131.497,84.3267 130.5,63.5C 125.036,57.5353 119.37,51.7019 113.5,46C 135.833,45.3333 158.167,45.3333 180.5,46C 174.63,51.7019 168.964,57.5353 163.5,63.5 Z"/></g>
<g><path style="opacity:1" fill="#e56472" d="M 152.5,68.5 C 153.497,90.6604 153.831,112.994 153.5,135.5C 176.006,135.169 198.34,135.503 220.5,136.5C 197.833,136.5 175.167,136.5 152.5,136.5C 152.5,113.833 152.5,91.1667 152.5,68.5 Z"/></g>
<g><path style="opacity:1" fill="#e46370" d="M 141.5,68.5 C 141.5,91.1667 141.5,113.833 141.5,136.5C 118.833,136.5 96.1667,136.5 73.5,136.5C 73.5,140.167 73.5,143.833 73.5,147.5C 72.5166,143.702 72.1832,139.702 72.5,135.5C 95.1667,135.5 117.833,135.5 140.5,135.5C 140.169,112.994 140.503,90.6604 141.5,68.5 Z"/></g>
<g><path style="opacity:1" fill="#da9da2" d="M 163.5,63.5 C 163.5,84.1667 163.5,104.833 163.5,125.5C 183.5,125.5 203.5,125.5 223.5,125.5C 203.34,126.497 183.007,126.83 162.5,126.5C 162.169,105.327 162.503,84.3267 163.5,63.5 Z"/></g>
<g><path style="opacity:1" fill="#da9ca4" d="M 130.5,63.5 C 131.497,84.3267 131.831,105.327 131.5,126.5C 110.993,126.83 90.6598,126.497 70.5,125.5C 90.5,125.5 110.5,125.5 130.5,125.5C 130.5,104.833 130.5,84.1667 130.5,63.5 Z"/></g>
<g><path style="opacity:1" fill="#f8ced2" d="M 241.5,108.5 C 241.56,107.957 241.893,107.624 242.5,107.5C 243.828,129.996 243.828,152.33 242.5,174.5C 242.831,152.327 242.497,130.327 241.5,108.5 Z"/></g>
<g><path style="opacity:1" fill="#fefdfc" d="M 141.5,68.5 C 145.167,68.5 148.833,68.5 152.5,68.5C 152.5,91.1667 152.5,113.833 152.5,136.5C 175.167,136.5 197.833,136.5 220.5,136.5C 220.5,140.167 220.5,143.833 220.5,147.5C 197.833,147.5 175.167,147.5 152.5,147.5C 152.5,186.833 152.5,226.167 152.5,265.5C 148.833,265.5 145.167,265.5 141.5,265.5C 141.5,226.167 141.5,186.833 141.5,147.5C 118.833,147.5 96.1667,147.5 73.5,147.5C 73.5,143.833 73.5,140.167 73.5,136.5C 96.1667,136.5 118.833,136.5 141.5,136.5C 141.5,113.833 141.5,91.1667 141.5,68.5 Z"/></g>
<g><path style="opacity:1" fill="#f6f6f6" d="M 103.5,176.5 C 104.5,176.5 105.5,176.5 106.5,176.5C 106.5,191.833 106.5,207.167 106.5,222.5C 103.833,222.5 101.167,222.5 98.5,222.5C 98.5,216.5 98.5,210.5 98.5,204.5C 86.5959,202.964 76.7626,206.631 69,215.5C 67.9207,218.063 67.4207,220.729 67.5,223.5C 65.8333,223.5 64.1667,223.5 62.5,223.5C 62.1369,202.72 71.4702,188.22 90.5,180C 94.7155,178.316 99.0488,177.149 103.5,176.5 Z"/></g>
<g><path style="opacity:1" fill="#898989" d="M 103.5,176.5 C 104.568,175.566 105.901,175.232 107.5,175.5C 107.5,191.5 107.5,207.5 107.5,223.5C 104.287,223.81 101.287,223.477 98.5,222.5C 101.167,222.5 103.833,222.5 106.5,222.5C 106.5,207.167 106.5,191.833 106.5,176.5C 105.5,176.5 104.5,176.5 103.5,176.5 Z"/></g>
<g><path style="opacity:1" fill="#f3f3f3" d="M 200.5,175.5 C 208.685,175.058 216.518,176.392 224,179.5C 224.497,182.146 224.664,184.813 224.5,187.5C 221.053,187.186 217.72,186.352 214.5,185C 202.632,182.706 195.965,187.539 194.5,199.5C 194.511,206.694 197.511,212.194 203.5,216C 210.609,216.826 217.609,216.326 224.5,214.5C 224.714,216.144 224.38,217.644 223.5,219C 207.095,227.418 194.595,223.585 186,207.5C 182.516,192.814 187.35,182.148 200.5,175.5 Z"/></g>
<g><path style="opacity:1" fill="#0f0f0f" d="M 95.5,186.5 C 96.5,186.5 97.5,186.5 98.5,186.5C 98.5,190.167 98.5,193.833 98.5,197.5C 90.625,197.193 82.9584,198.026 75.5,200C 81.7142,194.734 88.3809,190.234 95.5,186.5 Z"/></g>
<g><path style="opacity:1" fill="#d75662" d="M 115.5,285.5 C 125.812,286.832 136.478,287.499 147.5,287.5C 158.339,287.5 169.005,287.167 179.5,286.5C 180.043,286.56 180.376,286.893 180.5,287.5C 158.167,288.833 135.833,288.833 113.5,287.5C 113.855,286.478 114.522,285.811 115.5,285.5 Z"/></g>
<g><path style="opacity:1" fill="#b1b1af" d="M 107.5,289.5 C 133.833,290.833 160.167,290.833 186.5,289.5C 187.289,289.783 187.956,290.283 188.5,291C 161.161,291.833 133.827,291.667 106.5,290.5C 106.624,289.893 106.957,289.56 107.5,289.5 Z"/></g>
</svg>
