<?xml version="1.0" encoding="UTF-8"?>
<!DOCTYPE svg PUBLIC "-//W3C//DTD SVG 1.1//EN" "http://www.w3.org/Graphics/SVG/1.1/DTD/svg11.dtd">
<svg xmlns="http://www.w3.org/2000/svg" version="1.1" width="500px" height="669px" style="shape-rendering:geometricPrecision; text-rendering:geometricPrecision; image-rendering:optimizeQuality; fill-rule:evenodd; clip-rule:evenodd" xmlns:xlink="http://www.w3.org/1999/xlink">
<g><path style="opacity:0.963" fill="#094b97" d="M -0.5,-0.5 C 166.167,-0.5 332.833,-0.5 499.5,-0.5C 499.5,0.5 499.5,1.5 499.5,2.5C 415.98,224.225 332.98,446.225 250.5,668.5C 249.833,668.5 249.167,668.5 248.5,668.5C 166.02,446.225 83.02,224.225 -0.5,2.5C -0.5,1.5 -0.5,0.5 -0.5,-0.5 Z"/></g>
<g><path style="opacity:1" fill="#f9e90a" d="M 8.5,5.5 C 169.168,5.16667 329.835,5.50001 490.5,6.5C 410.36,220.92 330.027,435.254 249.5,649.5C 168.769,434.974 88.4361,220.307 8.5,5.5 Z"/></g>
<g><path style="opacity:1" fill="#034a98" d="M 25.5,18.5 C 174.666,17.3339 323.999,17.1672 473.5,18C 398.976,216.882 324.31,415.715 249.5,614.5C 174.783,415.754 100.116,217.087 25.5,18.5 Z"/></g>
<g><path style="opacity:1" fill="#0795d6" d="M 404.5,185.5 C 392.495,185.667 380.495,185.5 368.5,185C 365.833,180 363.167,175 360.5,170C 372.167,162.167 383.833,154.333 395.5,146.5C 396.583,145.635 396.749,144.635 396,143.5C 394.426,142.016 393.093,140.349 392,138.5C 379.828,146.252 367.828,154.252 356,162.5C 354.023,159.688 351.856,157.022 349.5,154.5C 366.497,140.341 383.664,126.341 401,112.5C 401.667,111.833 401.667,111.167 401,110.5C 399.315,108.983 397.815,107.316 396.5,105.5C 378.804,120.068 360.804,133.901 342.5,147C 340.167,144.667 337.833,142.333 335.5,140C 370.667,106.833 405.833,73.6667 441,40.5C 441.269,37.7202 440.102,35.5536 437.5,34C 435.024,34.7473 432.691,36.0806 430.5,38C 397.258,70.5783 363.425,102.412 329,133.5C 325.465,131.649 323.132,128.982 322,125.5C 338.29,102.421 354.457,79.254 370.5,56C 368.095,53.1427 365.262,51.9761 362,52.5C 346.051,76.2729 329.551,99.6062 312.5,122.5C 309.291,120.735 306.291,118.735 303.5,116.5C 314.395,93.7102 325.561,71.0436 337,48.5C 337.667,47.5 337.667,46.5 337,45.5C 334.895,44.6886 332.895,43.6886 331,42.5C 318.94,65.6187 307.107,88.952 295.5,112.5C 294.833,112.833 294.167,113.167 293.5,113.5C 290.87,112.622 288.203,111.955 285.5,111.5C 288.516,98.7723 291.849,86.1057 295.5,73.5C 295.392,72.5581 295.059,71.7247 294.5,71C 292.645,70.5779 290.811,70.0779 289,69.5C 288.055,69.9054 287.388,70.572 287,71.5C 283.654,83.8837 280.154,96.217 276.5,108.5C 273.956,108.949 271.29,108.949 268.5,108.5C 270.614,86.8111 272.947,65.1444 275.5,43.5C 272.5,43.5 269.5,43.5 266.5,43.5C 264.286,64.5511 261.953,85.5511 259.5,106.5C 257.833,106.5 256.167,106.5 254.5,106.5C 254.831,79.9947 254.498,53.6614 253.5,27.5C 250.833,27.5 248.167,27.5 245.5,27.5C 244.502,53.6614 244.169,79.9947 244.5,106.5C 242.833,106.5 241.167,106.5 239.5,106.5C 237.047,85.5511 234.714,64.5511 232.5,43.5C 229.5,43.5 226.5,43.5 223.5,43.5C 226.053,65.1409 228.386,86.8076 230.5,108.5C 227.881,108.232 225.381,108.565 223,109.5C 219.025,96.9349 215.358,84.2682 212,71.5C 211.481,70.4844 210.647,69.8178 209.5,69.5C 207.547,70.1556 205.547,70.4889 203.5,70.5C 206.675,84.1997 210.008,97.8663 213.5,111.5C 210.689,111.571 208.022,112.238 205.5,113.5C 204.833,113.167 204.167,112.833 203.5,112.5C 191.893,88.952 180.06,65.6187 168,42.5C 166.107,43.1963 164.274,44.0296 162.5,45C 161.483,46.0495 161.316,47.2161 162,48.5C 173.439,71.0436 184.605,93.7102 195.5,116.5C 192.709,118.735 189.709,120.735 186.5,122.5C 169.449,99.6062 152.949,76.2729 137,52.5C 133.738,51.9761 130.905,53.1427 128.5,56C 144.543,79.254 160.71,102.421 177,125.5C 175.868,128.982 173.535,131.649 170,133.5C 135.241,102.078 101.075,69.9115 67.5,37C 65.6313,35.3983 63.6313,34.3983 61.5,34C 58.8975,35.5536 57.7308,37.7202 58,40.5C 93.1667,73.6667 128.333,106.833 163.5,140C 160.945,143.259 157.945,145.593 154.5,147C 137.311,132.977 119.978,119.143 102.5,105.5C 101.185,107.316 99.6851,108.983 98,110.5C 97.3333,111.167 97.3333,111.833 98,112.5C 115.336,126.341 132.503,140.341 149.5,154.5C 147.642,156.524 145.975,158.691 144.5,161C 143.5,161.667 142.5,161.667 141.5,161C 130,153.5 118.5,146 107,138.5C 105.907,140.349 104.574,142.016 103,143.5C 102.251,144.635 102.417,145.635 103.5,146.5C 115.167,154.333 126.833,162.167 138.5,170C 135.833,175 133.167,180 130.5,185C 118.505,185.5 106.505,185.667 94.5,185.5C 74.9036,131.714 54.9036,78.0475 34.5,24.5C 177.833,23.1667 321.167,23.1667 464.5,24.5C 444.096,78.0475 424.096,131.714 404.5,185.5 Z"/></g>
<g><path style="opacity:1" fill="#4fb094" d="M 245.5,27.5 C 245.5,54.1667 245.5,80.8333 245.5,107.5C 243.265,107.795 241.265,107.461 239.5,106.5C 241.167,106.5 242.833,106.5 244.5,106.5C 244.169,79.9947 244.502,53.6614 245.5,27.5 Z"/></g>
<g><path style="opacity:1" fill="#faeb0d" d="M 245.5,27.5 C 248.167,27.5 250.833,27.5 253.5,27.5C 253.5,54.1667 253.5,80.8333 253.5,107.5C 255.735,107.795 257.735,107.461 259.5,106.5C 261.953,85.5511 264.286,64.5511 266.5,43.5C 269.5,43.5 272.5,43.5 275.5,43.5C 272.947,65.1444 270.614,86.8111 268.5,108.5C 271.29,108.949 273.956,108.949 276.5,108.5C 280.154,96.217 283.654,83.8837 287,71.5C 287.388,70.572 288.055,69.9054 289,69.5C 290.811,70.0779 292.645,70.5779 294.5,71C 295.059,71.7247 295.392,72.5581 295.5,73.5C 291.849,86.1057 288.516,98.7723 285.5,111.5C 288.203,111.955 290.87,112.622 293.5,113.5C 294.167,113.167 294.833,112.833 295.5,112.5C 307.107,88.952 318.94,65.6187 331,42.5C 332.895,43.6886 334.895,44.6886 337,45.5C 337.667,46.5 337.667,47.5 337,48.5C 325.561,71.0436 314.395,93.7102 303.5,116.5C 306.291,118.735 309.291,120.735 312.5,122.5C 329.551,99.6062 346.051,76.2729 362,52.5C 365.262,51.9761 368.095,53.1427 370.5,56C 354.457,79.254 338.29,102.421 322,125.5C 323.132,128.982 325.465,131.649 329,133.5C 363.425,102.412 397.258,70.5783 430.5,38C 432.691,36.0806 435.024,34.7473 437.5,34C 440.102,35.5536 441.269,37.7202 441,40.5C 405.833,73.6667 370.667,106.833 335.5,140C 337.833,142.333 340.167,144.667 342.5,147C 360.804,133.901 378.804,120.068 396.5,105.5C 397.815,107.316 399.315,108.983 401,110.5C 401.667,111.167 401.667,111.833 401,112.5C 383.664,126.341 366.497,140.341 349.5,154.5C 351.856,157.022 354.023,159.688 356,162.5C 367.828,154.252 379.828,146.252 392,138.5C 393.093,140.349 394.426,142.016 396,143.5C 396.749,144.635 396.583,145.635 395.5,146.5C 383.833,154.333 372.167,162.167 360.5,170C 363.167,175 365.833,180 368.5,185C 380.495,185.5 392.495,185.667 404.5,185.5C 402.905,188.285 401.905,191.285 401.5,194.5C 300.167,194.5 198.833,194.5 97.5,194.5C 97.0951,191.285 96.0951,188.285 94.5,185.5C 106.505,185.667 118.505,185.5 130.5,185C 133.167,180 135.833,175 138.5,170C 126.833,162.167 115.167,154.333 103.5,146.5C 102.417,145.635 102.251,144.635 103,143.5C 104.574,142.016 105.907,140.349 107,138.5C 118.5,146 130,153.5 141.5,161C 142.5,161.667 143.5,161.667 144.5,161C 145.975,158.691 147.642,156.524 149.5,154.5C 132.503,140.341 115.336,126.341 98,112.5C 97.3333,111.833 97.3333,111.167 98,110.5C 99.6851,108.983 101.185,107.316 102.5,105.5C 119.978,119.143 137.311,132.977 154.5,147C 157.945,145.593 160.945,143.259 163.5,140C 128.333,106.833 93.1667,73.6667 58,40.5C 57.7308,37.7202 58.8975,35.5536 61.5,34C 63.6313,34.3983 65.6313,35.3983 67.5,37C 101.075,69.9115 135.241,102.078 170,133.5C 173.535,131.649 175.868,128.982 177,125.5C 160.71,102.421 144.543,79.254 128.5,56C 130.905,53.1427 133.738,51.9761 137,52.5C 152.949,76.2729 169.449,99.6062 186.5,122.5C 189.709,120.735 192.709,118.735 195.5,116.5C 184.605,93.7102 173.439,71.0436 162,48.5C 161.316,47.2161 161.483,46.0495 162.5,45C 164.274,44.0296 166.107,43.1963 168,42.5C 180.06,65.6187 191.893,88.952 203.5,112.5C 204.167,112.833 204.833,113.167 205.5,113.5C 208.022,112.238 210.689,111.571 213.5,111.5C 210.008,97.8663 206.675,84.1997 203.5,70.5C 205.547,70.4889 207.547,70.1556 209.5,69.5C 210.647,69.8178 211.481,70.4844 212,71.5C 215.358,84.2682 219.025,96.9349 223,109.5C 225.381,108.565 227.881,108.232 230.5,108.5C 228.386,86.8076 226.053,65.1409 223.5,43.5C 226.5,43.5 229.5,43.5 232.5,43.5C 234.714,64.5511 237.047,85.5511 239.5,106.5C 241.265,107.461 243.265,107.795 245.5,107.5C 245.5,80.8333 245.5,54.1667 245.5,27.5 Z"/></g>
<g><path style="opacity:1" fill="#4daf97" d="M 253.5,27.5 C 254.498,53.6614 254.831,79.9947 254.5,106.5C 256.167,106.5 257.833,106.5 259.5,106.5C 257.735,107.461 255.735,107.795 253.5,107.5C 253.5,80.8333 253.5,54.1667 253.5,27.5 Z"/></g>
<g><path style="opacity:1" fill="#bbc228" d="M 240.5,224.5 C 240.5,219.833 240.5,215.167 240.5,210.5C 200.153,209.839 160.153,210.506 120.5,212.5C 119.596,211.791 119.263,210.791 119.5,209.5C 160.167,209.5 200.833,209.5 241.5,209.5C 241.821,214.695 241.487,219.695 240.5,224.5 Z"/></g>
<g><path style="opacity:1" fill="#fbea07" d="M 240.5,224.5 C 207.165,224.333 173.832,224.5 140.5,225C 163.328,287.483 186.162,349.983 209,412.5C 214.536,414.425 220.369,415.092 226.5,414.5C 226.5,403.5 226.5,392.5 226.5,381.5C 218.833,381.5 211.167,381.5 203.5,381.5C 203.5,376.5 203.5,371.5 203.5,366.5C 215.833,366.5 228.167,366.5 240.5,366.5C 240.5,387.167 240.5,407.833 240.5,428.5C 226.833,428.5 213.167,428.5 199.5,428.5C 172.796,356.728 146.462,284.728 120.5,212.5C 160.153,210.506 200.153,209.839 240.5,210.5C 240.5,215.167 240.5,219.833 240.5,224.5 Z"/></g>
<g><path style="opacity:1" fill="#c7c922" d="M 378.5,212.5 C 338.847,210.506 298.847,209.839 258.5,210.5C 258.5,283.167 258.5,355.833 258.5,428.5C 272.167,428.5 285.833,428.5 299.5,428.5C 285.677,429.496 271.677,429.829 257.5,429.5C 257.5,356.167 257.5,282.833 257.5,209.5C 298.167,209.5 338.833,209.5 379.5,209.5C 379.737,210.791 379.404,211.791 378.5,212.5 Z"/></g>
<g><path style="opacity:1" fill="#fdeb02" d="M 378.5,212.5 C 377.459,216.254 376.125,219.92 374.5,223.5C 340.507,224.5 306.507,224.833 272.5,224.5C 272.5,248.5 272.5,272.5 272.5,296.5C 278.833,296.5 285.167,296.5 291.5,296.5C 291.5,301.5 291.5,306.5 291.5,311.5C 285.167,311.5 278.833,311.5 272.5,311.5C 272.5,345.833 272.5,380.167 272.5,414.5C 278.206,414.829 283.872,414.495 289.5,413.5C 295.167,398.167 300.833,382.833 306.5,367.5C 311.833,366.167 317.167,366.167 322.5,367.5C 315.001,388.01 307.334,408.343 299.5,428.5C 285.833,428.5 272.167,428.5 258.5,428.5C 258.5,355.833 258.5,283.167 258.5,210.5C 298.847,209.839 338.847,210.506 378.5,212.5 Z"/></g>
<g><path style="opacity:1" fill="#c9cb21" d="M 230.5,242.5 C 208.474,241.844 186.808,242.511 165.5,244.5C 164.596,243.791 164.263,242.791 164.5,241.5C 186.673,241.169 208.673,241.503 230.5,242.5 Z"/></g>
<g><path style="opacity:1" fill="#fae908" d="M 230.5,242.5 C 235.647,243.473 239.147,246.473 241,251.5C 241.667,280.5 241.667,309.5 241,338.5C 239.526,343.974 236.026,347.474 230.5,349C 221.255,349.817 212.089,349.65 203,348.5C 190.197,313.924 177.697,279.257 165.5,244.5C 186.808,242.511 208.474,241.844 230.5,242.5 Z"/></g>
<g><path style="opacity:1" fill="#f8e80d" d="M 296.5,241.5 C 316.169,241.333 335.836,241.5 355.5,242C 362.264,244.104 364.764,248.604 363,255.5C 357.256,272.401 350.922,289.067 344,305.5C 341.374,308.231 338.207,310.064 334.5,311C 326.841,311.5 319.174,311.666 311.5,311.5C 311.5,323.167 311.5,334.833 311.5,346.5C 306.5,346.5 301.5,346.5 296.5,346.5C 296.5,311.5 296.5,276.5 296.5,241.5 Z"/></g>
<g><path style="opacity:1" fill="#034a98" d="M 185.5,256.5 C 196.838,256.333 208.172,256.5 219.5,257C 222.573,257.739 224.74,259.572 226,262.5C 226.667,284.167 226.667,305.833 226,327.5C 223.509,334.252 219.176,335.919 213,332.5C 203.925,307.105 194.758,281.772 185.5,256.5 Z"/></g>
<g><path style="opacity:1" fill="#0a4b97" d="M 311.5,256.5 C 320.839,256.334 330.173,256.5 339.5,257C 342.405,257.737 344.072,259.571 344.5,262.5C 340.963,272.612 337.129,282.612 333,292.5C 331.2,294.317 329.034,295.484 326.5,296C 321.511,296.499 316.511,296.666 311.5,296.5C 311.5,283.167 311.5,269.833 311.5,256.5 Z"/></g>
<g><path style="opacity:1" fill="#c8c921" d="M 240.5,366.5 C 241.497,387.327 241.831,408.327 241.5,429.5C 227.323,429.829 213.323,429.496 199.5,428.5C 213.167,428.5 226.833,428.5 240.5,428.5C 240.5,407.833 240.5,387.167 240.5,366.5 Z"/></g>
</svg>
