<?xml version="1.0" encoding="UTF-8"?>
<svg version="1.1" xmlns="http://www.w3.org/2000/svg" width="30" height="30">
<path d="M0 0 C7.26 0 14.52 0 22 0 C19.75 10.125 19.75 10.125 18.0546875 14.47265625 C17.70019531 15.39111328 17.34570312 16.30957031 16.98046875 17.25585938 C16.61566406 18.18205078 16.25085938 19.10824219 15.875 20.0625 C15.50246094 21.02349609 15.12992188 21.98449219 14.74609375 22.97460938 C13.83644515 25.31870383 12.92101046 27.66035181 12 30 C11.34 30 10.68 30 10 30 C8.32239667 25.75423582 6.65982557 21.50274227 5 17.25 C4.52304688 16.0434375 4.04609375 14.836875 3.5546875 13.59375 C3.10351562 12.43359375 2.65234375 11.2734375 2.1875 10.078125 C1.55908203 8.47565918 1.55908203 8.47565918 0.91796875 6.84082031 C0 4 0 4 0 0 Z " fill="#809E6C" transform="translate(4,0)"/>
<path d="M0 0 C0.33 0.99 0.66 1.98 1 3 C1.33 2.01 1.66 1.02 2 0 C2.66 0 3.32 0 4 0 C0.92482916 10.55808656 0.92482916 10.55808656 -1 15 C-1.66 14.34 -2.32 13.68 -3 13 C-2.34 11.68 -1.68 10.36 -1 9 C-1.66 8.67 -2.32 8.34 -3 8 C-2.01 8 -1.02 8 0 8 C0 7.01 0 6.02 0 5 C-3.63 5 -7.26 5 -11 5 C-11 3.68 -11 2.36 -11 1 C-7.2297564 -1.56376565 -4.32597804 -0.83191885 0 0 Z " fill="#73A87C" transform="translate(21,4)"/>
<path d="M0 0 C5.94 0 11.88 0 18 0 C17.67 1.98 17.34 3.96 17 6 C16.01 6.495 16.01 6.495 15 7 C14.67 6.01 14.34 5.02 14 4 C10.33694766 3.25073929 7.57644848 2.7619986 4 4 C3.67 5.32 3.34 6.64 3 8 C0 3.375 0 3.375 0 0 Z " fill="#35A9B3" transform="translate(6,1)"/>
<path d="M0 0 C4.29 0.33 8.58 0.66 13 1 C12.67 1.99 12.34 2.98 12 4 C11.01 3.67 10.02 3.34 9 3 C8.67 3.66 8.34 4.32 8 5 C7.67 4.34 7.34 3.68 7 3 C5.68 3.33 4.36 3.66 3 4 C3.99 4 4.98 4 6 4 C5.67 4.99 5.34 5.98 5 7 C4.34 7 3.68 7 3 7 C2.34 7.66 1.68 8.32 1 9 C0.67 6.03 0.34 3.06 0 0 Z " fill="#4C807F" transform="translate(8,8)"/>
<path d="M0 0 C1.33332095 2.6666419 0.67102033 4.16680303 0 7 C-0.66 7 -1.32 7 -2 7 C-2.33 8.65 -2.66 10.3 -3 12 C-3.66 12 -4.32 12 -5 12 C-5.66 10.02 -6.32 8.04 -7 6 C-5.68 5.67 -4.36 5.34 -3 5 C-2.814375 4.0409375 -2.814375 4.0409375 -2.625 3.0625 C-2.41875 2.381875 -2.2125 1.70125 -2 1 C-1.34 0.67 -0.68 0.34 0 0 Z " fill="#256991" transform="translate(19,13)"/>
<path d="M0 0 C2.64 0 5.28 0 8 0 C7.01 0.495 7.01 0.495 6 1 C6 1.99 6 2.98 6 4 C5.34 4 4.68 4 4 4 C3.67 5.32 3.34 6.64 3 8 C0 3.375 0 3.375 0 0 Z " fill="#3FACAB" transform="translate(6,1)"/>
<path d="M0 0 C0.33 0.99 0.66 1.98 1 3 C-2.3 3 -5.6 3 -9 3 C-8.67 2.01 -8.34 1.02 -8 0 C-5.13822943 -1.43088528 -3.06624227 -0.59991697 0 0 Z " fill="#F0EC0D" transform="translate(19,6)"/>
<path d="M0 0 C3.94727588 -0.17942163 6.5980513 -0.09350689 10 2 C9.505 2.4125 9.01 2.825 8.5 3.25 C6.56613908 5.12202338 6.56613908 5.12202338 7 9 C6.01 8.67 5.02 8.34 4 8 C4 6.02 4 4.04 4 2 C2.68 2.33 1.36 2.66 0 3 C0 2.01 0 1.02 0 0 Z " fill="#AEBB3E" transform="translate(10,10)"/>
<path d="M0 0 C0.66 0 1.32 0 2 0 C1.01 3.3 0.02 6.6 -1 10 C-1.66 10 -2.32 10 -3 10 C-3.33 7.69 -3.66 5.38 -4 3 C-3.67 3.66 -3.34 4.32 -3 5 C-2.34 5 -1.68 5 -1 5 C-0.67 3.35 -0.34 1.7 0 0 Z " fill="#78977C" transform="translate(17,20)"/>
</svg>
