<?xml version="1.0" encoding="UTF-8"?>
<svg version="1.1" xmlns="http://www.w3.org/2000/svg" width="30" height="30">
<path d="M0 0 C1.67929755 0.26239024 3.34327363 0.62033354 5 1 C6.6040564 1.35466574 8.20822979 1.70880263 9.8125 2.0625 C11.20844918 2.37448212 12.60432165 2.68680856 14 3 C14.59203938 11.65035317 13.72158325 18.79997957 8.57421875 25.9921875 C6.40898214 28.42038566 4.78021419 29.90247323 1.5 30.3125 C-4.06565281 27.39053227 -7.56499569 22.1417087 -9.54296875 16.265625 C-10.42840245 11.87629553 -10.22097039 7.45214405 -10 3 C-9.04287109 2.80083984 -9.04287109 2.80083984 -8.06640625 2.59765625 C-7.24011719 2.42105469 -6.41382813 2.24445313 -5.5625 2.0625 C-4.73878906 1.88847656 -3.91507813 1.71445312 -3.06640625 1.53515625 C-1.02338796 1.19247006 -1.02338796 1.19247006 0 0 Z " fill="#B48934" transform="translate(13,0)"/>
<path d="M0 0 C0 3.63 0 7.26 0 11 C0.66 11.33 1.32 11.66 2 12 C1.67 12.33 1.34 12.66 1 13 C0.76636119 14.84891946 0.58696365 16.70488031 0.4375 18.5625 C0.35371094 19.57441406 0.26992188 20.58632813 0.18359375 21.62890625 C0.12300781 22.41136719 0.06242187 23.19382812 0 24 C-2.3125 25.125 -2.3125 25.125 -5 26 C-5.99 25.34 -6.98 24.68 -8 24 C-8.4765625 21.46875 -8.4765625 21.46875 -8.625 18.5 C-8.7518652 14.60309331 -8.7518652 14.60309331 -10 11 C-9.34 11 -8.68 11 -8 11 C-8.03480469 10.37351562 -8.06960938 9.74703125 -8.10546875 9.1015625 C-8.13253906 8.28429688 -8.15960938 7.46703125 -8.1875 6.625 C-8.22230469 5.81289062 -8.25710938 5.00078125 -8.29296875 4.1640625 C-8.19628906 3.44992187 -8.09960938 2.73578125 -8 2 C-5 0 -5 0 0 0 Z " fill="#E9C56C" transform="translate(19,2)"/>
<path d="M0 0 C0.66 0.66 1.32 1.32 2 2 C4.06874034 2.6425235 4.06874034 2.6425235 6 3 C6.4989294 10.53937758 6.06618566 15.54194042 2 22 C1.34 22.33 0.68 22.66 0 23 C0 15.33333333 0 7.66666667 0 0 Z " fill="#468944" transform="translate(19,2)"/>
<path d="M0 0 C0 7 0 14 0 21 C-3.94085545 17.45323009 -5.83365355 14.4652544 -6.1953125 9.10546875 C-6.17210937 8.14253906 -6.14890625 7.17960938 -6.125 6.1875 C-6.10695313 5.21167969 -6.08890625 4.23585938 -6.0703125 3.23046875 C-6.04710937 2.49441406 -6.02390625 1.75835937 -6 1 C-3.92446352 0.4465236 -2.15634036 0 0 0 Z " fill="#D62B1C" transform="translate(11,4)"/>
<path d="M0 0 C2.6875 0.875 2.6875 0.875 5 2 C5 3.65 5 5.3 5 7 C2.6875 8.125 2.6875 8.125 0 9 C-0.99 8.34 -1.98 7.68 -3 7 C-3.375 4.5 -3.375 4.5 -3 2 C-2.01 1.34 -1.02 0.68 0 0 Z " fill="#EAE2D1" transform="translate(14,19)"/>
<path d="M0 0 C0.66 0 1.32 0 2 0 C2.33 0.99 2.66 1.98 3 3 C3.33 2.01 3.66 1.02 4 0 C4.66 0 5.32 0 6 0 C6 2.97 6 5.94 6 9 C5.34 8.67 4.68 8.34 4 8 C4 7.01 4 6.02 4 5 C3.34 5 2.68 5 2 5 C2 6.65 2 8.3 2 10 C1.01 10 0.02 10 -1 10 C-1.02689216 8.52093108 -1.04634621 7.04172517 -1.0625 5.5625 C-1.07410156 4.73878906 -1.08570313 3.91507812 -1.09765625 3.06640625 C-1 1 -1 1 0 0 Z " fill="#F7EAE5" transform="translate(12,3)"/>
<path d="M0 0 C2.31 0 4.62 0 7 0 C7.5297429 7.74013232 6.86688868 14.14121205 3 21 C2.34 21.33 1.68 21.66 1 22 C1.49407454 19.77666455 2.08298222 17.81069681 3 15.71875 C4.07585573 12.79376723 4.40081123 10.28877798 4.625 7.1875 C4.73714844 5.72376953 4.73714844 5.72376953 4.8515625 4.23046875 C4.90054687 3.49441406 4.94953125 2.75835937 5 2 C3.35 1.67 1.7 1.34 0 1 C0 0.67 0 0.34 0 0 Z " fill="#9C8534" transform="translate(20,3)"/>
<path d="M0 0 C1.67542976 0.28604898 3.34385343 0.61781233 5 1 C0.54341778 3.31082041 -2.90360271 5 -8 5 C-8.33 7.97 -8.66 10.94 -9 14 C-9.33 14 -9.66 14 -10 14 C-10 10.37 -10 6.74 -10 3 C-8.535625 2.690625 -7.07125 2.38125 -5.5625 2.0625 C-2.49550444 1.58840351 -2.49550444 1.58840351 0 0 Z " fill="#A57A33" transform="translate(13,0)"/>
<path d="M0 0 C0 1.32 0 2.64 0 4 C-0.66 4 -1.32 4 -2 4 C-2 3.34 -2 2.68 -2 2 C-2.66 2 -3.32 2 -4 2 C-4 2.66 -4 3.32 -4 4 C-4.66 4 -5.32 4 -6 4 C-6 2.68 -6 1.36 -6 0 C-3.50907189 -1.24546405 -2.58919267 -0.7767578 0 0 Z " fill="#F9F8F6" transform="translate(18,20)"/>
<path d="M0 0 C1.32 0.33 2.64 0.66 4 1 C4 2.65 4 4.3 4 6 C3.01 6.33 2.02 6.66 1 7 C0.67 4.69 0.34 2.38 0 0 Z " fill="#C84221" transform="translate(7,7)"/>
<path d="M0 0 C0.66 0 1.32 0 2 0 C2 2.97 2 5.94 2 9 C1.34 8.67 0.68 8.34 0 8 C0 7.01 0 6.02 0 5 C-0.66 4.67 -1.32 4.34 -2 4 C-1.34 2.68 -0.68 1.36 0 0 Z " fill="#FBFBFA" transform="translate(16,3)"/>
<path d="M0 0 C0 3 0 3 -1.25 4.6875 C-3 6 -3 6 -7 6 C-6.67 5.01 -6.34 4.02 -6 3 C-3.5 1.875 -3.5 1.875 -1 1 C-0.67 0.67 -0.34 0.34 0 0 Z " fill="#B4954A" transform="translate(20,24)"/>
</svg>
