<?xml version="1.0" encoding="UTF-8"?>
<svg version="1.1" xmlns="http://www.w3.org/2000/svg" width="30" height="30">
<path d="M0 0 C0 0.66 0 1.32 0 2 C0.66 2 1.32 2 2 2 C2 2.66 2 3.32 2 4 C2.92232422 3.87431641 2.92232422 3.87431641 3.86328125 3.74609375 C4.67152344 3.64425781 5.47976563 3.54242188 6.3125 3.4375 C7.11300781 3.33308594 7.91351563 3.22867187 8.73828125 3.12109375 C11 3 11 3 14 4 C14 3.34 14 2.68 14 2 C14.66 2 15.32 2 16 2 C16 1.34 16 0.68 16 0 C18.375 0.625 18.375 0.625 21 2 C23.67660989 6.65497371 22.87139802 10.543253 21.70703125 15.53125 C20.39756716 20.10352242 18.65200594 24.0219911 16 28 C13.04983213 28.84118839 10.05586428 28.88458969 7 29 C5.7625 29.061875 4.525 29.12375 3.25 29.1875 C-0.51619158 27.81139154 -0.93972202 27.09453633 -2.8125 23.6875 C-5.22280445 18.11417144 -7.06916331 12.11230778 -7 6 C-4.11328671 0 -4.11328671 0 0 0 Z " fill="#C8B65A" transform="translate(7,0)"/>
<path d="M0 0 C0.33 1.65 0.66 3.3 1 5 C2.32 5.33 3.64 5.66 5 6 C4.01 6 3.02 6 2 6 C2 7.32 2 8.64 2 10 C3.98 10 5.96 10 8 10 C8 14.29 8 18.58 8 23 C9.65 22.01 11.3 21.02 13 20 C13.82304013 16.59065404 13.82304013 16.59065404 13.8125 12.8125 C13.86019531 11.54019531 13.90789063 10.26789062 13.95703125 8.95703125 C13.97830078 7.49330078 13.97830078 7.49330078 14 6 C13.01 5.67 12.02 5.34 11 5 C12.32 5 13.64 5 15 5 C16.125 10.75 16.125 10.75 15 13 C16.65 13 18.3 13 20 13 C19.01 13.33 18.02 13.66 17 14 C17 14.99 17 15.98 17 17 C16.34 17 15.68 17 15 17 C14.896875 17.763125 14.79375 18.52625 14.6875 19.3125 C13.93412462 22.25751284 13.44706902 23.25209356 11 25 C8.75 25.625 8.75 25.625 6 26 C4.741875 26.185625 3.48375 26.37125 2.1875 26.5625 C0.6096875 26.7790625 0.6096875 26.7790625 -1 27 C-4.4074135 20.44982648 -6.98957059 13.46745586 -7 6 C-4.12569832 0 -4.12569832 0 0 0 Z " fill="#C9BE81" transform="translate(7,0)"/>
<path d="M0 0 C1.98 0.495 1.98 0.495 4 1 C3.01 1 2.02 1 1 1 C1 2.32 1 3.64 1 5 C2.98 5 4.96 5 7 5 C7 9.29 7 13.58 7 18 C8.65 17.01 10.3 16.02 12 15 C12.82304013 11.59065404 12.82304013 11.59065404 12.8125 7.8125 C12.86019531 6.54019531 12.90789063 5.26789062 12.95703125 3.95703125 C12.97830078 2.49330078 12.97830078 2.49330078 13 1 C12.01 0.67 11.02 0.34 10 0 C11.32 0 12.64 0 14 0 C15.125 5.75 15.125 5.75 14 8 C15.65 8 17.3 8 19 8 C18.01 8.33 17.02 8.66 16 9 C16 9.99 16 10.98 16 12 C15.34 12 14.68 12 14 12 C13.8453125 13.1446875 13.8453125 13.1446875 13.6875 14.3125 C12.94209384 17.22636046 12.15541061 18.02950397 10 20 C8.51800098 19.55090939 7.03944764 19.09043436 5.5625 18.625 C4.32693359 18.24214844 4.32693359 18.24214844 3.06640625 17.8515625 C1 17 1 17 0 15 C-0.80630775 9.9381791 -1.49576947 4.98589822 0 0 Z " fill="#223640" transform="translate(8,5)"/>
<path d="M0 0 C2.375 0.625 2.375 0.625 5 2 C7.67660989 6.65497371 6.87139802 10.543253 5.70703125 15.53125 C4.39756716 20.10352242 2.65200594 24.0219911 0 28 C-5.29218012 29.50897193 -10.67284108 29.02009426 -16 28 C-12.76207328 25.84138219 -10.21261629 24.23097453 -6.375 23.5 C-3.82473909 23.18891761 -3.82473909 23.18891761 -2 21 C-1.3574765 18.93125966 -1.3574765 18.93125966 -1 17 C-0.34 17 0.32 17 1 17 C1 16.01 1 15.02 1 14 C1.99 14 2.98 14 4 14 C4 10.7 4 7.4 4 4 C2.68 3.34 1.36 2.68 0 2 C0 1.34 0 0.68 0 0 Z " fill="#B1A55D" transform="translate(23,0)"/>
<path d="M0 0 C1.98 0 3.96 0 6 0 C6.08121924 1.60332791 6.13929134 3.20784026 6.1875 4.8125 C6.22230469 5.70582031 6.25710937 6.59914063 6.29296875 7.51953125 C6 10 6 10 4.67578125 11.82421875 C3 13 3 13 0 13 C0 8.71 0 4.42 0 0 Z " fill="#F1F3F4" transform="translate(15,10)"/>
<path d="M0 0 C2.375 0.625 2.375 0.625 5 2 C7.6757453 6.6534701 6.87275964 10.54103456 5.70703125 15.52734375 C4.47525329 19.8351639 3.22707784 23.77292216 0 27 C-1 24 -1 24 -0.0625 21.8125 C0.4634375 20.9153125 0.4634375 20.9153125 1 20 C0.34 19.67 -0.32 19.34 -1 19 C-1 18.34 -1 17.68 -1 17 C-0.34 17 0.32 17 1 17 C1 16.01 1 15.02 1 14 C1.99 14 2.98 14 4 14 C4 10.7 4 7.4 4 4 C2.68 3.34 1.36 2.68 0 2 C0 1.34 0 0.68 0 0 Z " fill="#D2CDAB" transform="translate(23,0)"/>
<path d="M0 0 C2.475 0.99 2.475 0.99 5 2 C5.125 8.75 5.125 8.75 4 11 C2.35 11 0.7 11 -1 11 C-1.02688151 9.35425434 -1.04634123 7.70838587 -1.0625 6.0625 C-1.07410156 5.14597656 -1.08570312 4.22945313 -1.09765625 3.28515625 C-1 1 -1 1 0 0 Z " fill="#B99C12" transform="translate(23,2)"/>
<path d="M0 0 C1.32 0 2.64 0 4 0 C4 3.96 4 7.92 4 12 C2.68 11.67 1.36 11.34 0 11 C-0.19491452 9.54263913 -0.38069358 8.08405407 -0.5625 6.625 C-0.66691406 5.81289062 -0.77132813 5.00078125 -0.87890625 4.1640625 C-1 2 -1 2 0 0 Z " fill="#0D2F54" transform="translate(11,10)"/>
<path d="M0 0 C1.32 0 2.64 0 4 0 C5.125 5.75 5.125 5.75 4 8 C5.65 8 7.3 8 9 8 C8.01 8.33 7.02 8.66 6 9 C6 9.99 6 10.98 6 12 C5.34 12 4.68 12 4 12 C3.896875 12.763125 3.79375 13.52625 3.6875 14.3125 C2.95635961 17.17059424 2.23048087 18.15742885 0 20 C-0.99 19.34 -1.98 18.68 -3 18 C-2.19175781 17.65324219 -1.38351563 17.30648438 -0.55078125 16.94921875 C2.34379606 15.1765335 2.34379606 15.1765335 2.70703125 11.64453125 C2.75923828 9.74767578 2.75923828 9.74767578 2.8125 7.8125 C2.86019531 6.54019531 2.90789063 5.26789062 2.95703125 3.95703125 C2.97121094 2.98121094 2.98539063 2.00539063 3 1 C2.01 0.67 1.02 0.34 0 0 Z " fill="#6B6C47" transform="translate(18,5)"/>
<path d="M0 0 C0.99 0.33 1.98 0.66 3 1 C3 1.66 3 2.32 3 3 C5.475 3.99 5.475 3.99 8 5 C7.67 5.66 7.34 6.32 7 7 C3.9375 7.625 3.9375 7.625 1 8 C0.855625 7.401875 0.71125 6.80375 0.5625 6.1875 C0.1127561 4.43849596 -0.42892341 2.71322977 -1 1 C-0.67 0.67 -0.34 0.34 0 0 Z " fill="#918329" transform="translate(6,19)"/>
<path d="M0 0 C2.475 0.99 2.475 0.99 5 2 C5 3.65 5 5.3 5 7 C4.01 7 3.02 7 2 7 C1.67 6.01 1.34 5.02 1 4 C0.34 3.67 -0.32 3.34 -1 3 C-0.67 2.01 -0.34 1.02 0 0 Z " fill="#8E8129" transform="translate(23,2)"/>
<path d="M0 0 C1.65 0 3.3 0 5 0 C5 1.98 5 3.96 5 6 C4.01 6.33 3.02 6.66 2 7 C1.34 4.69 0.68 2.38 0 0 Z " fill="#9A871A" transform="translate(3,13)"/>
<path d="M0 0 C0.33 0 0.66 0 1 0 C1 2.97 1 5.94 1 9 C0.01 8.67 -0.98 8.34 -2 8 C-2.125 5.125 -2.125 5.125 -2 2 C-1.34 1.34 -0.68 0.68 0 0 Z " fill="#0E3967" transform="translate(14,11)"/>
<path d="M0 0 C0.66 0 1.32 0 2 0 C3 3 3 3 2 6 C1.01 6 0.02 6 -1 6 C-1.042721 4.33388095 -1.04063832 2.66617115 -1 1 C-0.67 0.67 -0.34 0.34 0 0 Z " fill="#897C23" transform="translate(3,3)"/>
</svg>
