<?xml version="1.0" encoding="UTF-8"?>
<!DOCTYPE svg PUBLIC "-//W3C//DTD SVG 1.1//EN" "http://www.w3.org/Graphics/SVG/1.1/DTD/svg11.dtd">
<svg xmlns="http://www.w3.org/2000/svg" version="1.1" width="1200px" height="1151px" style="shape-rendering:geometricPrecision; text-rendering:geometricPrecision; image-rendering:optimizeQuality; fill-rule:evenodd; clip-rule:evenodd" xmlns:xlink="http://www.w3.org/1999/xlink">
<g><path style="opacity:0.974" fill="#fdfdfc" d="M 230.5,31.5 C 244.082,32.0398 254.915,37.7065 263,48.5C 271.453,61.0689 278.62,74.4022 284.5,88.5C 298.284,89.642 309.451,95.642 318,106.5C 329.076,122.388 335.409,140.055 337,159.5C 337.333,166.167 337.667,172.833 338,179.5C 341.879,181.189 345.712,183.022 349.5,185C 352.946,188.069 356.279,191.235 359.5,194.5C 519.501,137.19 679.501,137.19 839.5,194.5C 844.907,187.423 851.907,182.757 860.5,180.5C 860.081,158.091 864.581,136.758 874,116.5C 879.557,105.276 888.057,97.1098 899.5,92C 904.359,91.0671 909.192,90.2338 914,89.5C 920.999,70.6546 931.165,53.8212 944.5,39C 967.944,26.1126 986.777,30.9459 1001,53.5C 1007.17,63.8523 1011.67,74.8523 1014.5,86.5C 1018.07,86.9376 1021.57,87.6042 1025,88.5C 1041.09,72.403 1058.92,70.2363 1078.5,82C 1086.29,90.3919 1092.45,99.8919 1097,110.5C 1101.26,120.27 1104.92,130.27 1108,140.5C 1124.24,149.625 1132.24,163.625 1132,182.5C 1132.78,187.222 1132.61,191.889 1131.5,196.5C 1137.31,201.486 1141.81,207.486 1145,214.5C 1147.6,226.091 1149.77,237.757 1151.5,249.5C 1165.05,260.018 1169.88,273.685 1166,290.5C 1161.77,310.185 1154.61,328.685 1144.5,346C 1148.35,353.207 1151.52,360.707 1154,368.5C 1155.8,378.48 1154.13,387.813 1149,396.5C 1130.36,418.721 1119.7,444.388 1117,473.5C 1116.78,489.522 1116.11,505.522 1115,521.5C 1113.19,526.446 1110.86,531.112 1108,535.5C 1100.11,545.048 1091.94,554.214 1083.5,563C 1088.53,570.371 1090.87,578.538 1090.5,587.5C 1089.68,606.452 1086.34,624.952 1080.5,643C 1085.19,649.208 1088.69,656.041 1091,663.5C 1093.04,674.366 1091.04,684.366 1085,693.5C 1071.14,705.685 1059.14,719.351 1049,734.5C 1038.03,754.398 1032.36,775.732 1032,798.5C 1029.49,812.504 1021.66,822.171 1008.5,827.5C 999.26,843.566 989.427,859.233 979,874.5C 978.915,890.925 976.248,906.925 971,922.5C 967.405,928.882 962.572,934.049 956.5,938C 933.804,945.434 913.137,956.434 894.5,971C 908.447,977.316 922.78,982.65 937.5,987C 949.002,991.836 956.168,1000.34 959,1012.5C 964.479,1044.35 951.312,1062.85 919.5,1068C 916.167,1070 912.833,1072 909.5,1074C 902.5,1081 895.5,1088 888.5,1095C 878.246,1098.79 868.246,1103.13 858.5,1108C 836.5,1108.67 814.5,1108.67 792.5,1108C 779.178,1104.68 770.345,1096.51 766,1083.5C 764.746,1070.89 764.079,1058.22 764,1045.5C 761.912,1046.31 759.912,1047.31 758,1048.5C 747.458,1082.03 724.625,1100.53 689.5,1104C 680.588,1104.82 671.755,1104.65 663,1103.5C 643.046,1115.85 621.879,1118.52 599.5,1111.5C 577.176,1118.7 556.009,1116.03 536,1103.5C 511.248,1107.6 488.415,1102.77 467.5,1089C 454.039,1078.59 445.206,1065.09 441,1048.5C 438.912,1047.69 436.912,1046.69 435,1045.5C 434.815,1057.87 434.148,1070.2 433,1082.5C 425.42,1102.37 410.92,1111.2 389.5,1109C 373.148,1109.68 356.815,1109.34 340.5,1108C 331.042,1103.55 321.376,1099.55 311.5,1096C 303.392,1087.8 295.059,1079.8 286.5,1072C 278.014,1067.29 269.014,1063.96 259.5,1062C 243.171,1052.17 236.338,1037.67 239,1018.5C 240.23,1004.94 246.73,994.775 258.5,988C 274,983.502 289,977.836 303.5,971C 297.448,965.947 291.115,961.281 284.5,957C 270.071,949.785 255.405,943.119 240.5,937C 232.463,931.101 227.296,923.267 225,913.5C 223.077,905.218 221.41,896.885 220,888.5C 219.378,884.971 219.545,881.471 220.5,878C 210.362,861.336 200.362,844.502 190.5,827.5C 178.183,822.353 170.349,813.353 167,800.5C 166.436,757.04 149.103,722.04 115,695.5C 103.431,677.367 104.597,660.034 118.5,643.5C 110.464,620.757 107.631,597.424 110,573.5C 111.181,569.637 113.014,566.137 115.5,563C 104.256,552.415 94.4227,540.582 86,527.5C 85,524.5 84,521.5 83,518.5C 85.6066,486.34 80.94,455.34 69,425.5C 64.1767,415.684 58.1767,406.684 51,398.5C 44.8541,389.047 42.8541,378.714 45,367.5C 47.2137,359.907 50.3803,352.74 54.5,346C 40.3437,323.866 32.8437,299.7 32,273.5C 33.8867,263.396 39.0534,255.396 47.5,249.5C 48.9261,236.942 51.4261,224.609 55,212.5C 57.8941,206.938 61.5608,201.938 66,197.5C 66.0191,185.994 67.3524,174.661 70,163.5C 74.2191,153.281 81.2191,145.615 91,140.5C 96.0293,121.445 104.029,103.778 115,87.5C 126.075,75.3544 139.575,71.5211 155.5,76C 162.444,79.0526 168.611,83.2193 174,88.5C 177.147,87.7224 180.313,86.8891 183.5,86C 188.078,71.0103 194.912,57.177 204,44.5C 211.252,36.7024 220.086,32.369 230.5,31.5 Z"/></g>
<g><path style="opacity:1" fill="#17293f" d="M 1106.5,212.5 C 1105.96,212.56 1105.62,212.893 1105.5,213.5C 1108.09,214.48 1110.75,214.813 1113.5,214.5C 1118.75,215.919 1122.25,219.252 1124,224.5C 1125.69,232.768 1126.86,241.102 1127.5,249.5C 1127.5,255.5 1127.5,261.5 1127.5,267.5C 1129.5,267.5 1131.5,267.5 1133.5,267.5C 1141.76,269.688 1145.26,275.022 1144,283.5C 1139.75,304.992 1131.41,324.659 1119,342.5C 1117.75,343.211 1116.58,344.044 1115.5,345C 1117.67,346.5 1119.5,348.333 1121,350.5C 1124.27,356.712 1127.27,363.046 1130,369.5C 1131.43,373.406 1131.77,377.406 1131,381.5C 1115.53,400.776 1104.53,422.443 1098,446.5C 1096.34,454.11 1095.01,461.777 1094,469.5C 1093.67,484.833 1093.33,500.167 1093,515.5C 1087.94,523.898 1082.1,531.731 1075.5,539C 1072.26,540.894 1068.76,542.061 1065,542.5C 1063.03,552.765 1060.2,562.765 1056.5,572.5C 1065.05,575.062 1068.71,580.896 1067.5,590C 1065.6,609.749 1061.27,628.916 1054.5,647.5C 1059,653.833 1063.5,660.167 1068,666.5C 1068.79,670.926 1068.46,675.259 1067,679.5C 1048.19,695.626 1033.19,714.626 1022,736.5C 1013.71,755.625 1009.37,775.625 1009,796.5C 1008.39,799.548 1006.89,802.048 1004.5,804C 1000.16,805.838 995.825,807.672 991.5,809.5C 980.348,831.814 967.181,852.814 952,872.5C 951.938,875.161 952.938,877.495 955,879.5C 955.167,881.333 955.333,883.167 955.5,885C 954.082,893.841 952.582,902.674 951,911.5C 949.708,913.249 948.542,915.082 947.5,917C 930.62,923.515 914.287,931.182 898.5,940C 888.549,946.949 878.883,954.283 869.5,962C 860.5,962.333 851.5,962.667 842.5,963C 842.043,963.414 841.709,963.914 841.5,964.5C 857.082,977.871 874.415,988.704 893.5,997C 906.55,1001.51 919.55,1006.18 932.5,1011C 933.304,1012.77 934.471,1014.27 936,1015.5C 936.884,1022.58 936.551,1029.58 935,1036.5C 933.833,1038.33 932.333,1039.83 930.5,1041C 907.836,1045.65 889.836,1057.32 876.5,1076C 872.491,1078.38 868.324,1078.88 864,1077.5C 861.778,1081.39 858.612,1084.22 854.5,1086C 835.167,1086.67 815.833,1086.67 796.5,1086C 792.612,1083.78 789.779,1080.61 788,1076.5C 787.333,1062.83 787.333,1049.17 788,1035.5C 788.638,1034.39 789.138,1033.22 789.5,1032C 783.947,1025.05 778.28,1018.22 772.5,1011.5C 770.358,1015.48 767.358,1018.64 763.5,1021C 754.897,1025.48 745.897,1028.64 736.5,1030.5C 734.321,1060.96 717.988,1078.13 687.5,1082C 679.833,1082.67 672.167,1082.67 664.5,1082C 662.412,1080.97 660.245,1080.14 658,1079.5C 640.127,1093.61 620.627,1096.27 599.5,1087.5C 578.3,1096.47 558.8,1093.81 541,1079.5C 517.191,1086.45 495.691,1082.29 476.5,1067C 467.405,1056.55 462.738,1044.38 462.5,1030.5C 452.223,1028.91 442.557,1025.41 433.5,1020C 430.6,1017.6 428.267,1014.77 426.5,1011.5C 421.472,1018.21 415.972,1024.54 410,1030.5C 411.582,1045.69 411.915,1061.02 411,1076.5C 409.141,1081.03 405.974,1084.19 401.5,1086C 382.167,1086.67 362.833,1086.67 343.5,1086C 339.978,1083.81 337.145,1080.98 335,1077.5C 330.589,1079.06 326.423,1078.56 322.5,1076C 309.582,1057.37 291.915,1046.03 269.5,1042C 267.333,1040.5 265.5,1038.67 264,1036.5C 262.409,1029.61 262.076,1022.61 263,1015.5C 264.833,1013 267,1010.83 269.5,1009C 302.361,1000.74 331.694,985.904 357.5,964.5C 357.291,963.914 356.957,963.414 356.5,963C 347.5,962.667 338.5,962.333 329.5,962C 320.833,955.333 312.167,948.667 303.5,942C 287.831,933 271.498,925.333 254.5,919C 252.667,917.167 250.833,915.333 249,913.5C 245.711,902.362 244.045,891.029 244,879.5C 246.062,877.495 247.062,875.161 247,872.5C 231.819,852.814 218.652,831.814 207.5,809.5C 201.549,808.246 196.382,805.58 192,801.5C 191.333,800.167 190.667,798.833 190,797.5C 189.757,764.437 179.757,734.77 160,708.5C 151.03,698.53 141.697,688.863 132,679.5C 130.566,675.594 130.233,671.594 131,667.5C 135.252,660.661 139.752,653.994 144.5,647.5C 136.411,626.221 132.244,604.221 132,581.5C 133.891,576.43 137.391,573.43 142.5,572.5C 138.803,562.765 135.97,552.765 134,542.5C 130.24,542.061 126.74,540.894 123.5,539C 116.896,531.731 111.063,523.898 106,515.5C 109.646,477.032 102.646,440.699 85,406.5C 79.3333,398.167 73.6667,389.833 68,381.5C 67.3333,378.167 67.3333,374.833 68,371.5C 71.5262,364.586 74.8596,357.586 78,350.5C 79.8333,348.667 81.6667,346.833 83.5,345C 79.7679,342.055 76.6013,338.555 74,334.5C 65.4083,318.657 59.0749,301.99 55,284.5C 53.4914,278.716 54.9914,273.883 59.5,270C 61.2166,268.441 63.2166,267.608 65.5,267.5C 67.5,267.5 69.5,267.5 71.5,267.5C 71.5,262.167 71.5,256.833 71.5,251.5C 71.4153,240.333 73.5819,229.666 78,219.5C 79.5,218 81,216.5 82.5,215C 86.211,214.825 89.8776,214.325 93.5,213.5C 88.8739,199.646 88.3739,185.646 92,171.5C 96.2731,163.737 102.773,160.737 111.5,162.5C 113.329,139.016 121.662,118.183 136.5,100C 141.987,97.8152 147.32,98.1485 152.5,101C 158.699,106.864 164.532,113.031 170,119.5C 176.267,109.741 184.434,107.908 194.5,114C 196.37,115.366 198.37,116.533 200.5,117.5C 203.098,99.8716 208.598,83.2049 217,67.5C 223.996,53.7432 232.996,52.0766 244,62.5C 255.883,80.6412 265.383,99.9745 272.5,120.5C 277.639,115.756 283.639,113.589 290.5,114C 298.484,119.327 304.317,126.493 308,135.5C 313.191,150.373 315.357,165.706 314.5,181.5C 314.447,188.866 314.114,196.2 313.5,203.5C 317.493,203.168 321.493,202.835 325.5,202.5C 332.431,201.881 337.598,204.548 341,210.5C 341.529,215.854 341.362,221.187 340.5,226.5C 513.092,158.693 685.759,158.693 858.5,226.5C 857.734,221.18 857.568,215.846 858,210.5C 861.213,204.812 866.046,202.145 872.5,202.5C 876.844,202.786 881.177,203.12 885.5,203.5C 884.399,188.525 884.233,173.525 885,158.5C 886.676,144.464 891.676,131.797 900,120.5C 903.882,115.139 909.049,112.972 915.5,114C 919.496,115.663 923.163,117.829 926.5,120.5C 933.6,99.9669 943.1,80.6336 955,62.5C 964.819,52.443 973.486,53.443 981,65.5C 989.934,81.8032 995.768,99.1366 998.5,117.5C 1003.5,113.915 1009,111.582 1015,110.5C 1021.44,110.72 1026.1,113.72 1029,119.5C 1035.17,112 1042,105.167 1049.5,99C 1058.26,96.8054 1064.76,99.6387 1069,107.5C 1079.17,124.521 1085.67,142.854 1088.5,162.5C 1096.73,161.222 1102.9,164.222 1107,171.5C 1110.24,185.185 1110.07,198.852 1106.5,212.5 Z"/></g>
<g><path style="opacity:1" fill="#f1c208" d="M 231.5,69.5 C 237.552,75.9108 242.385,83.2441 246,91.5C 252.556,107.281 258.556,123.281 264,139.5C 265.507,140.535 267.007,140.368 268.5,139C 274.366,134.969 280.366,131.136 286.5,127.5C 291.384,132.237 294.884,137.904 297,144.5C 301.264,161.236 302.597,178.236 301,195.5C 294.315,184.478 286.482,174.311 277.5,165C 274.327,162.913 270.994,161.079 267.5,159.5C 260.294,163.046 253.627,167.379 247.5,172.5C 245.389,152.328 242.222,132.328 238,112.5C 237.193,108.603 235.526,107.937 233,110.5C 232.833,118.5 232.667,126.5 232.5,134.5C 233.213,153.506 233.713,172.506 234,191.5C 227.833,186 221.667,180.5 215.5,175C 212.833,173.333 210.167,171.667 207.5,170C 206.056,169.219 204.723,169.386 203.5,170.5C 210.893,182.596 219.726,193.596 230,203.5C 230.389,208.056 229.555,212.39 227.5,216.5C 216.878,212.341 205.878,210.008 194.5,209.5C 193.935,213.799 193.601,218.132 193.5,222.5C 194.307,234.536 195.14,246.536 196,258.5C 188.911,249.317 184.244,238.984 182,227.5C 180.084,218.262 179.251,208.929 179.5,199.5C 185.804,198.74 192.137,198.407 198.5,198.5C 198.649,197.448 198.483,196.448 198,195.5C 186.693,180.91 180.526,164.41 179.5,146C 178.788,138.564 180.121,131.564 183.5,125C 186.017,124.743 188.35,125.41 190.5,127C 197.321,133.654 203.987,140.488 210.5,147.5C 211.137,126.534 214.97,106.201 222,86.5C 224.672,80.483 227.839,74.8163 231.5,69.5 Z"/></g>
<g><path style="opacity:1" fill="#f1c208" d="M 966.5,69.5 C 976.84,82.992 983.007,98.3253 985,115.5C 986.35,126.149 987.517,136.816 988.5,147.5C 994.831,140.335 1001.5,133.502 1008.5,127C 1013.68,122.837 1016.85,124.004 1018,130.5C 1021,144.944 1019.66,158.944 1014,172.5C 1009.71,181.42 1005.21,190.087 1000.5,198.5C 1006.85,198.653 1013.18,198.986 1019.5,199.5C 1020.68,221.134 1015.18,240.801 1003,258.5C 1004.75,242.569 1005.42,226.569 1005,210.5C 993.91,209.804 983.076,211.471 972.5,215.5C 971.833,215.167 971.167,214.833 970.5,214.5C 969.342,210.89 968.842,207.223 969,203.5C 979.274,193.596 988.107,182.596 995.5,170.5C 992.641,169.401 989.974,169.901 987.5,172C 979.705,178.127 972.205,184.627 965,191.5C 965.055,171.998 965.555,152.498 966.5,133C 966.333,126.167 966.167,119.333 966,112.5C 964.705,107.395 963.038,107.395 961,112.5C 956.735,132.354 953.402,152.354 951,172.5C 946.255,168.878 941.422,165.378 936.5,162C 934.35,160.41 932.017,159.743 929.5,160C 922.792,163.702 916.959,168.535 912,174.5C 907.085,181.328 902.419,188.328 898,195.5C 897.147,182.462 897.48,169.462 899,156.5C 900.541,145.342 905.041,135.675 912.5,127.5C 919.778,132.636 927.445,136.969 935.5,140.5C 941.497,118.172 949.997,96.8382 961,76.5C 962.666,74.0043 964.5,71.671 966.5,69.5 Z"/></g>
<g><path style="opacity:1" fill="#f1c208" d="M 143.5,111.5 C 151.702,118.206 158.702,126.039 164.5,135C 159.494,155.313 164.16,172.979 178.5,188C 174.165,188.263 169.832,188.097 165.5,187.5C 165.666,195.174 165.5,202.841 165,210.5C 164.311,211.357 163.478,212.023 162.5,212.5C 160.835,198.539 159.335,184.539 158,170.5C 157.106,166.137 156.106,161.804 155,157.5C 152.415,152.186 150.415,152.519 149,158.5C 148.45,175.193 148.95,191.859 150.5,208.5C 150.167,210.5 149.833,212.5 149.5,214.5C 141.189,208.511 132.189,203.845 122.5,200.5C 123.319,204.853 125.652,208.353 129.5,211C 136.577,216.621 143.743,222.121 151,227.5C 152.29,231.73 152.79,236.064 152.5,240.5C 150.345,240.372 148.345,240.872 146.5,242C 141.195,246.299 137.028,251.466 134,257.5C 112.763,235.458 102.763,209.125 104,178.5C 104.839,177.376 106.006,176.709 107.5,176.5C 112.755,177.931 118.089,178.931 123.5,179.5C 122.777,168.286 123.943,157.286 127,146.5C 131.984,134.535 137.484,122.868 143.5,111.5 Z"/></g>
<g><path style="opacity:1" fill="#f1c207" d="M 1054.5,111.5 C 1055.46,111.953 1056.29,112.619 1057,113.5C 1064.96,127.741 1070.96,142.741 1075,158.5C 1075.5,165.492 1075.67,172.492 1075.5,179.5C 1080.67,178.583 1085.84,177.583 1091,176.5C 1092.44,176.559 1093.77,176.892 1095,177.5C 1096.45,208.487 1086.45,235.153 1065,257.5C 1061.97,251.466 1057.8,246.299 1052.5,242C 1050.56,241.187 1048.56,240.687 1046.5,240.5C 1046.21,236.064 1046.71,231.73 1048,227.5C 1057.62,220.211 1066.96,212.545 1076,204.5C 1076.49,203.207 1076.66,201.873 1076.5,200.5C 1066.84,203.829 1057.84,208.496 1049.5,214.5C 1049.17,212.5 1048.83,210.5 1048.5,208.5C 1050.22,191.867 1050.72,175.2 1050,158.5C 1048.58,152.519 1046.58,152.186 1044,157.5C 1043.18,159.788 1042.51,162.122 1042,164.5C 1039.96,180.478 1038.12,196.478 1036.5,212.5C 1035.52,212.023 1034.69,211.357 1034,210.5C 1033.5,202.841 1033.33,195.174 1033.5,187.5C 1029.42,187.998 1025.42,187.998 1021.5,187.5C 1035.06,171.839 1039.56,153.839 1035,133.5C 1041.02,125.65 1047.52,118.317 1054.5,111.5 Z"/></g>
<g><path style="opacity:1" fill="#f3c406" d="M 316.5,216.5 C 320.649,215.92 324.316,216.586 327.5,218.5C 323.208,242.39 313.874,264.057 299.5,283.5C 299.833,283.833 300.167,284.167 300.5,284.5C 308.445,280.967 316.779,279.634 325.5,280.5C 325.667,295.837 325.5,311.17 325,326.5C 322.252,331.666 319.252,336.666 316,341.5C 310.323,348.343 304.156,354.677 297.5,360.5C 303.745,362.097 310.079,363.263 316.5,364C 315.53,381.791 308.863,397.291 296.5,410.5C 290.024,405.858 283.691,401.025 277.5,396C 290.994,380.725 288.328,377.558 269.5,386.5C 268.507,378.35 268.174,370.017 268.5,361.5C 268.169,352.808 268.502,344.141 269.5,335.5C 276.815,329.353 283.982,323.019 291,316.5C 292.559,314.783 293.392,312.783 293.5,310.5C 290.729,310.421 288.063,310.921 285.5,312C 280.349,314.996 275.349,318.162 270.5,321.5C 269.504,307.01 269.171,292.343 269.5,277.5C 275.464,271.035 281.631,264.702 288,258.5C 289.559,256.783 290.392,254.783 290.5,252.5C 287.984,252.755 285.65,253.589 283.5,255C 278.667,258.5 273.833,262 269,265.5C 268.407,254.162 267.74,242.829 267,231.5C 266.747,228.21 265.747,225.21 264,222.5C 262.04,226.622 260.707,230.955 260,235.5C 258.88,245.154 257.88,254.82 257,264.5C 256.751,265.624 256.251,266.624 255.5,267.5C 248.84,262.501 241.84,258.001 234.5,254C 233.056,253.219 231.723,253.386 230.5,254.5C 237.027,264.535 244.861,273.535 254,281.5C 254.055,300.175 253.555,318.842 252.5,337.5C 247.09,335.974 241.756,334.141 236.5,332C 226.502,328.564 224.835,330.231 231.5,337C 237.755,341.378 243.922,345.878 250,350.5C 250.5,359.16 250.666,367.827 250.5,376.5C 240.93,371.378 231.263,366.212 221.5,361C 203.868,344.606 196.868,324.44 200.5,300.5C 209.173,300.666 217.84,300.5 226.5,300C 213.191,275.881 206.524,250.048 206.5,222.5C 217.619,224.429 228.286,227.762 238.5,232.5C 238.56,233.043 238.893,233.376 239.5,233.5C 240.493,228.88 240.827,224.214 240.5,219.5C 240.464,202.411 246.797,188.245 259.5,177C 262.112,175.111 264.945,173.611 268,172.5C 282.864,185.215 292.364,201.215 296.5,220.5C 302.972,218.216 309.638,216.882 316.5,216.5 Z"/></g>
<g><path style="opacity:1" fill="#f3c406" d="M 958.5,218.5 C 958.173,223.544 958.506,228.544 959.5,233.5C 960.107,233.376 960.44,233.043 960.5,232.5C 967.849,229.771 975.182,226.938 982.5,224C 985.757,222.957 989.09,222.457 992.5,222.5C 992.173,249.977 985.506,275.81 972.5,300C 981.085,300.155 989.585,300.322 998,300.5C 1002.14,324.44 995.311,344.606 977.5,361C 967.737,366.212 958.07,371.378 948.5,376.5C 948.334,367.827 948.5,359.16 949,350.5C 955.589,345.789 962.089,340.955 968.5,336C 974.013,330.712 972.68,329.045 964.5,331C 958.576,333.466 952.576,335.632 946.5,337.5C 945.445,318.842 944.945,300.175 945,281.5C 954.139,273.535 961.973,264.535 968.5,254.5C 964.929,253.752 961.595,254.585 958.5,257C 953.5,260.5 948.5,264 943.5,267.5C 941.397,257.276 939.897,246.943 939,236.5C 938.417,231.561 937.083,226.894 935,222.5C 934.085,223.328 933.419,224.328 933,225.5C 931.439,238.79 930.439,252.123 930,265.5C 923.725,260.28 916.892,255.946 909.5,252.5C 909.167,253 908.833,253.5 908.5,254C 909.317,255.49 910.15,256.99 911,258.5C 917.369,264.702 923.536,271.035 929.5,277.5C 929.829,292.343 929.496,307.01 928.5,321.5C 923.651,318.162 918.651,314.996 913.5,312C 910.937,310.921 908.271,310.421 905.5,310.5C 905.608,312.783 906.441,314.783 908,316.5C 915.038,323.207 922.372,329.54 930,335.5C 930.5,343.827 930.666,352.16 930.5,360.5C 930.826,369.349 930.493,378.016 929.5,386.5C 924.425,384.031 919.092,382.364 913.5,381.5C 915.012,386.876 917.678,391.71 921.5,396C 915.833,400.333 910.167,404.667 904.5,409C 903.5,409.667 902.5,409.667 901.5,409C 889.8,396.095 883.133,380.928 881.5,363.5C 888.227,362.934 894.894,361.934 901.5,360.5C 894.998,354.498 888.831,348.164 883,341.5C 879.748,336.666 876.748,331.666 874,326.5C 873.5,311.17 873.333,295.837 873.5,280.5C 878.511,280.334 883.511,280.501 888.5,281C 892.411,282.644 896.411,283.644 900.5,284C 885.334,264.692 875.667,242.859 871.5,218.5C 875.029,216.577 879.029,215.911 883.5,216.5C 889.843,217.668 896.176,219.001 902.5,220.5C 906.636,201.215 916.136,185.215 931,172.5C 945.181,179.028 953.847,190.028 957,205.5C 958.075,209.77 958.575,214.103 958.5,218.5 Z"/></g>
<g><path style="opacity:1" fill="#f4c406" d="M 772.5,380.5 C 674.355,359.188 575.689,356.188 476.5,371.5C 459.529,373.497 442.862,376.497 426.5,380.5C 401.314,385.38 376.314,391.047 351.5,397.5C 351.17,349.595 351.503,301.761 352.5,254C 498.408,187.305 647.075,180.638 798.5,234C 816.176,240.338 833.51,247.505 850.5,255.5C 851.5,303.162 851.833,350.829 851.5,398.5C 825.354,391.737 799.02,385.737 772.5,380.5 Z"/></g>
<g><path style="opacity:1" fill="#898867" d="M 1106.5,212.5 C 1108.83,213.167 1111.17,213.833 1113.5,214.5C 1110.75,214.813 1108.09,214.48 1105.5,213.5C 1105.62,212.893 1105.96,212.56 1106.5,212.5 Z"/></g>
<g><path style="opacity:1" fill="#857722" d="M 316.5,216.5 C 320.298,215.517 324.298,215.183 328.5,215.5C 328.737,216.791 328.404,217.791 327.5,218.5C 324.316,216.586 320.649,215.92 316.5,216.5 Z"/></g>
<g><path style="opacity:1" fill="#807324" d="M 883.5,216.5 C 879.029,215.911 875.029,216.577 871.5,218.5C 870.596,217.791 870.263,216.791 870.5,215.5C 875.032,215.182 879.366,215.515 883.5,216.5 Z"/></g>
<g><path style="opacity:1" fill="#e8bc0c" d="M 165.5,224.5 C 166.693,224.97 167.36,225.97 167.5,227.5C 170.433,249.544 181.1,266.711 199.5,279C 202.07,281.067 204.07,283.567 205.5,286.5C 200.918,286.375 196.252,286.708 191.5,287.5C 190.487,291.22 189.32,294.886 188,298.5C 185.327,284.136 180.66,270.469 174,257.5C 171.667,254.5 169.333,251.5 167,248.5C 166.331,241.812 165.497,235.146 164.5,228.5C 164.623,227.075 164.957,225.742 165.5,224.5 Z"/></g>
<g><path style="opacity:1" fill="#e7bb0d" d="M 1031.5,224.5 C 1032.5,224.5 1033.5,224.5 1034.5,224.5C 1034.33,232.564 1033.49,240.564 1032,248.5C 1026.81,254.032 1022.81,260.366 1020,267.5C 1016.39,277.325 1013.39,287.325 1011,297.5C 1009.46,294.142 1008.29,290.642 1007.5,287C 1002.66,286.646 997.995,286.48 993.5,286.5C 994.93,283.567 996.93,281.067 999.5,279C 1018.77,265.972 1029.44,247.806 1031.5,224.5 Z"/></g>
<g><path style="opacity:1" fill="#69632a" d="M 240.5,219.5 C 240.827,224.214 240.493,228.88 239.5,233.5C 238.893,233.376 238.56,233.043 238.5,232.5C 239.167,228.167 239.833,223.833 240.5,219.5 Z"/></g>
<g><path style="opacity:1" fill="#f1c307" d="M 123.5,338.5 C 114.348,339.494 105.015,339.827 95.5,339.5C 82.1202,322.902 73.1202,304.069 68.5,283C 68.8333,282.167 69.1667,281.333 69.5,280.5C 75.3629,282.454 81.3629,283.788 87.5,284.5C 83.1685,265.309 83.6685,246.309 89,227.5C 95.2602,231.756 100.927,236.756 106,242.5C 116.069,254.971 125.402,267.971 134,281.5C 138.496,275.844 142.496,269.844 146,263.5C 148.489,260.168 151.656,257.834 155.5,256.5C 156.167,256.833 156.833,257.167 157.5,257.5C 164.525,267.218 169.692,277.885 173,289.5C 176.966,303.625 179.966,317.959 182,332.5C 182.928,335.035 184.762,336.035 187.5,335.5C 188.941,341.883 191.608,347.717 195.5,353C 177.451,348.324 159.118,344.657 140.5,342C 138.268,338.982 136.601,335.649 135.5,332C 138.288,326.927 141.454,322.094 145,317.5C 148.397,312.444 150.231,307.11 150.5,301.5C 143.186,306.981 136.686,313.314 131,320.5C 124.881,305.595 118.215,290.929 111,276.5C 109.691,274.024 107.858,272.024 105.5,270.5C 104.334,274.527 104.501,278.527 106,282.5C 109.742,294.484 113.909,306.317 118.5,318C 118.167,318.5 117.833,319 117.5,319.5C 111.774,316.733 105.774,315.567 99.5,316C 105.684,321.843 112.684,326.51 120.5,330C 121.798,332.727 122.798,335.56 123.5,338.5 Z"/></g>
<g><path style="opacity:1" fill="#f1c307" d="M 1109.5,227.5 C 1110.12,227.611 1110.62,227.944 1111,228.5C 1115.37,246.483 1115.53,264.483 1111.5,282.5C 1111.83,283.167 1112.17,283.833 1112.5,284.5C 1118.42,282.783 1124.42,281.45 1130.5,280.5C 1126.52,302.631 1117.52,322.464 1103.5,340C 1094.17,340.5 1084.84,340.666 1075.5,340.5C 1075.81,337.053 1076.65,333.72 1078,330.5C 1085.6,326.286 1092.77,321.452 1099.5,316C 1093.09,314.968 1087.09,316.134 1081.5,319.5C 1081.17,319.167 1080.83,318.833 1080.5,318.5C 1086.68,304.132 1091.34,289.299 1094.5,274C 1094.17,272.5 1093.83,271 1093.5,269.5C 1091.48,271.69 1089.64,274.023 1088,276.5C 1080.79,290.929 1074.12,305.595 1068,320.5C 1062.31,313.314 1055.81,306.981 1048.5,301.5C 1048.77,307.11 1050.6,312.444 1054,317.5C 1057.55,322.094 1060.71,326.927 1063.5,332C 1062.36,335.101 1061.02,338.101 1059.5,341C 1040.9,343.404 1022.73,347.571 1005,353.5C 1004.5,353.333 1004,353.167 1003.5,353C 1007.68,347.471 1010.35,341.305 1011.5,334.5C 1013.77,334.859 1015.6,334.192 1017,332.5C 1019.55,313.738 1023.89,295.405 1030,277.5C 1033.09,269.632 1037.43,262.632 1043,256.5C 1047.13,257.62 1050.46,259.954 1053,263.5C 1056.5,269.844 1060.5,275.844 1065,281.5C 1071.84,270.486 1079.17,259.819 1087,249.5C 1093.73,241.266 1101.23,233.933 1109.5,227.5 Z"/></g>
<g><path style="opacity:1" fill="#15293f" d="M 631.5,251.5 C 631.5,254.833 631.5,258.167 631.5,261.5C 627.958,261.187 624.625,261.521 621.5,262.5C 618.167,262.5 614.833,262.5 611.5,262.5C 612.351,250.185 606.685,245.018 594.5,247C 592.274,248.227 590.774,250.061 590,252.5C 589.5,264.162 589.333,275.829 589.5,287.5C 582.421,287.447 575.421,288.113 568.5,289.5C 568.333,275.829 568.5,262.163 569,248.5C 573.058,239.444 579.891,233.611 589.5,231C 597.564,230.137 605.564,230.47 613.5,232C 623.264,235.029 629.264,241.529 631.5,251.5 Z"/></g>
<g><path style="opacity:1" fill="#796e27" d="M 958.5,218.5 C 959.167,223.167 959.833,227.833 960.5,232.5C 960.44,233.043 960.107,233.376 959.5,233.5C 958.506,228.544 958.173,223.544 958.5,218.5 Z"/></g>
<g><path style="opacity:1" fill="#162a40" d="M 525.5,232.5 C 528.5,232.5 531.5,232.5 534.5,232.5C 534.939,237.403 535.606,242.237 536.5,247C 525.167,248.333 513.833,249.667 502.5,251C 501.861,253.411 501.527,255.911 501.5,258.5C 502.244,265.882 503.244,273.216 504.5,280.5C 514.883,281.163 525.216,280.496 535.5,278.5C 535.98,283.822 536.313,289.155 536.5,294.5C 526.743,294.762 517.076,295.762 507.5,297.5C 507.167,298.833 506.833,300.167 506.5,301.5C 507.935,315.163 509.269,328.83 510.5,342.5C 503.86,343.346 497.193,344.013 490.5,344.5C 487.116,308.809 483.449,273.142 479.5,237.5C 495.047,236.539 510.38,234.873 525.5,232.5 Z"/></g>
<g><path style="opacity:1" fill="#182a41" d="M 669.5,234.5 C 688.159,236.573 706.825,238.573 725.5,240.5C 724.746,245.463 724.413,250.463 724.5,255.5C 712.176,254.44 699.843,253.44 687.5,252.5C 686.834,260.161 686.167,267.827 685.5,275.5C 685.833,277.833 686.167,280.167 686.5,282.5C 696.085,284.154 705.751,285.154 715.5,285.5C 714.806,290.805 714.472,296.138 714.5,301.5C 703.833,300.5 693.166,299.5 682.5,298.5C 680.833,313.173 679.166,327.84 677.5,342.5C 671.137,342.08 664.804,341.413 658.5,340.5C 661.926,305.145 665.593,269.812 669.5,234.5 Z"/></g>
<g><path style="opacity:1" fill="#9f9c78" d="M 1127.5,249.5 C 1128.49,254.975 1128.82,260.642 1128.5,266.5C 1130.41,266.216 1132.08,266.549 1133.5,267.5C 1131.5,267.5 1129.5,267.5 1127.5,267.5C 1127.5,261.5 1127.5,255.5 1127.5,249.5 Z"/></g>
<g><path style="opacity:1" fill="#464a34" d="M 631.5,251.5 C 632.482,254.962 632.815,258.629 632.5,262.5C 628.833,262.5 625.167,262.5 621.5,262.5C 624.625,261.521 627.958,261.187 631.5,261.5C 631.5,258.167 631.5,254.833 631.5,251.5 Z"/></g>
<g><path style="opacity:1" fill="#989571" d="M 71.5,251.5 C 71.5,256.833 71.5,262.167 71.5,267.5C 69.5,267.5 67.5,267.5 65.5,267.5C 66.9187,266.549 68.5853,266.216 70.5,266.5C 70.1795,261.305 70.5128,256.305 71.5,251.5 Z"/></g>
<g><path style="opacity:1" fill="#7a6f24" d="M 269.5,277.5 C 269.171,292.343 269.504,307.01 270.5,321.5C 270.44,322.043 270.107,322.376 269.5,322.5C 268.174,307.339 268.174,292.339 269.5,277.5 Z"/></g>
<g><path style="opacity:1" fill="#796f24" d="M 929.5,277.5 C 930.826,292.339 930.826,307.339 929.5,322.5C 928.893,322.376 928.56,322.043 928.5,321.5C 929.496,307.01 929.829,292.343 929.5,277.5 Z"/></g>
<g><path style="opacity:1" fill="#172e49" d="M 589.5,287.5 C 589.334,296.839 589.5,306.173 590,315.5C 591.573,320.645 595.073,322.978 600.5,322.5C 605.157,322.424 608.657,320.424 611,316.5C 611.498,313.183 611.665,309.85 611.5,306.5C 618.5,306.5 625.5,306.5 632.5,306.5C 633.58,323.269 625.913,333.769 609.5,338C 598.528,339.885 588.194,338.219 578.5,333C 572.613,329.06 569.447,323.56 569,316.5C 568.5,307.506 568.334,298.506 568.5,289.5C 575.421,288.113 582.421,287.447 589.5,287.5 Z"/></g>
<g><path style="opacity:1" fill="#8a7a21" d="M 123.5,338.5 C 124.043,338.56 124.376,338.893 124.5,339.5C 114.675,340.823 105.008,340.823 95.5,339.5C 105.015,339.827 114.348,339.494 123.5,338.5 Z"/></g>
<g><path style="opacity:1" fill="#f3c406" d="M 90.5,355.5 C 150.212,351.678 205.212,365.844 255.5,398C 279.746,414.233 302.246,432.733 323,453.5C 323.667,480.5 323.667,507.5 323,534.5C 275.362,494.298 220.862,480.465 159.5,493C 152.002,494.961 144.669,497.295 137.5,500C 138.641,502.308 140.308,504.141 142.5,505.5C 211.519,486.617 272.019,501.617 324,550.5C 324.667,561.833 324.667,573.167 324,584.5C 310.167,568 295,552.833 278.5,539C 242.379,512.693 202.713,505.693 159.5,518C 150.044,521.371 140.711,524.705 131.5,528C 128.028,522.894 124.194,518.06 120,513.5C 121.723,481.947 117.39,451.28 107,421.5C 100.197,405.215 91.3634,390.215 80.5,376.5C 84.1338,369.569 87.4671,362.569 90.5,355.5 Z"/></g>
<g><path style="opacity:1" fill="#f3c406" d="M 1057.5,355.5 C 1074.17,355.333 1090.84,355.5 1107.5,356C 1111.53,362.563 1115.2,369.396 1118.5,376.5C 1095.59,405.056 1082.75,437.723 1080,474.5C 1079.67,487.5 1079.33,500.5 1079,513.5C 1074.82,518.54 1070.66,523.54 1066.5,528.5C 998.495,497.8 939.995,510.466 891,566.5C 885.667,572.5 880.333,578.5 875,584.5C 874.333,573.167 874.333,561.833 875,550.5C 904.77,521.699 940.27,504.199 981.5,498C 1006.7,495.708 1031.37,498.208 1055.5,505.5C 1058.27,504.562 1060.27,502.729 1061.5,500C 992.923,476.184 931.089,487.684 876,534.5C 875.333,507.5 875.333,480.5 876,453.5C 909.296,419.205 947.796,392.372 991.5,373C 1012.96,364.636 1034.96,358.803 1057.5,355.5 Z"/></g>
<g><path style="opacity:1" fill="#152f4d" d="M 772.5,380.5 C 775.123,384.902 778.123,389.069 781.5,393C 781.272,393.399 780.938,393.565 780.5,393.5C 772.429,392.552 764.429,391.219 756.5,389.5C 737.227,386.366 717.894,383.699 698.5,381.5C 685.69,380.153 673.023,378.82 660.5,377.5C 642.173,367.913 622.006,363.246 600,363.5C 563.833,364.109 531.666,375.609 503.5,398C 464.523,431.757 438.023,473.59 424,523.5C 403.373,599.097 408.706,672.764 440,744.5C 457.852,783.018 484.352,814.185 519.5,838C 544.631,853.432 571.964,861.265 601.5,861.5C 601.5,875.167 601.5,888.833 601.5,902.5C 553.561,901.52 511.894,885.02 476.5,853C 431.98,809.817 403.146,757.65 390,696.5C 372.915,618.845 379.249,543.179 409,469.5C 424.834,432.141 447.334,399.474 476.5,371.5C 575.689,356.188 674.355,359.188 772.5,380.5 Z"/></g>
<g><path style="opacity:1" fill="#163254" d="M 660.5,377.5 C 648.161,377.325 635.828,376.992 623.5,376.5C 616.352,375.508 609.019,375.175 601.5,375.5C 601.5,383.167 601.5,390.833 601.5,398.5C 567.75,399.051 538.083,410.217 512.5,432C 471.868,470.428 448.035,517.595 441,573.5C 432.495,634.482 443.162,691.815 473,745.5C 489.167,772.333 510.667,793.833 537.5,810C 557.446,820.82 578.78,826.32 601.5,826.5C 601.5,838.167 601.5,849.833 601.5,861.5C 571.964,861.265 544.631,853.432 519.5,838C 484.352,814.185 457.852,783.018 440,744.5C 408.706,672.764 403.373,599.097 424,523.5C 438.023,473.59 464.523,431.757 503.5,398C 531.666,375.609 563.833,364.109 600,363.5C 622.006,363.246 642.173,367.913 660.5,377.5 Z"/></g>
<g><path style="opacity:1" fill="#18293e" d="M 137.5,444.5 C 134.167,444.5 130.833,444.5 127.5,444.5C 127.737,443.209 127.404,442.209 126.5,441.5C 121.897,416.527 113.23,393.027 100.5,371C 107.524,370.169 114.524,370.336 121.5,371.5C 128.968,386.404 134.135,402.071 137,418.5C 137.5,427.16 137.666,435.827 137.5,444.5 Z"/></g>
<g><path style="opacity:1" fill="#152c47" d="M 476.5,371.5 C 447.334,399.474 424.834,432.141 409,469.5C 379.249,543.179 372.915,618.845 390,696.5C 403.146,757.65 431.98,809.817 476.5,853C 511.894,885.02 553.561,901.52 601.5,902.5C 601.5,912.5 601.5,922.5 601.5,932.5C 604.059,932.802 606.393,932.468 608.5,931.5C 623.073,931.373 637.407,929.54 651.5,926C 661.488,923.504 671.154,920.337 680.5,916.5C 683.221,916.037 685.888,915.371 688.5,914.5C 669.103,925.911 648.103,933.078 625.5,936C 569.156,942.324 518.823,927.991 474.5,893C 437.298,862.129 408.798,824.629 389,780.5C 353.225,696.541 344.891,609.874 364,520.5C 375.409,469.371 396.242,422.705 426.5,380.5C 442.862,376.497 459.529,373.497 476.5,371.5 Z"/></g>
<g><path style="opacity:1" fill="#18293e" d="M 1072.5,441.5 C 1071.6,442.209 1071.26,443.209 1071.5,444.5C 1068.17,444.5 1064.83,444.5 1061.5,444.5C 1061.03,432.072 1061.86,419.738 1064,407.5C 1067.61,395.162 1072.11,383.162 1077.5,371.5C 1084.48,370.336 1091.48,370.169 1098.5,371C 1085.77,393.032 1077.1,416.532 1072.5,441.5 Z"/></g>
<g><path style="opacity:1" fill="#17293e" d="M 137.5,373.5 C 142.844,373.816 148.178,374.316 153.5,375C 157.128,382.797 159.628,390.964 161,399.5C 162.205,411.47 162.705,423.47 162.5,435.5C 159.167,435.167 155.833,434.833 152.5,434.5C 151.102,413.243 146.102,392.91 137.5,373.5 Z"/></g>
<g><path style="opacity:1" fill="#18293e" d="M 1058.5,372.5 C 1059.98,372.238 1061.31,372.571 1062.5,373.5C 1052.95,392.711 1047.61,413.045 1046.5,434.5C 1043.42,434.26 1040.42,434.593 1037.5,435.5C 1035.23,414.878 1037.73,394.878 1045,375.5C 1049.53,374.174 1054.03,373.174 1058.5,372.5 Z"/></g>
<g><path style="opacity:1" fill="#6b642a" d="M 268.5,361.5 C 268.174,370.017 268.507,378.35 269.5,386.5C 269.44,387.043 269.107,387.376 268.5,387.5C 267.179,378.675 267.179,370.009 268.5,361.5 Z"/></g>
<g><path style="opacity:1" fill="#f5f6f7" d="M 623.5,376.5 C 635.828,376.992 648.161,377.325 660.5,377.5C 673.023,378.82 685.69,380.153 698.5,381.5C 732.08,421.669 754.246,467.669 765,519.5C 783.082,604.361 776.082,687.027 744,767.5C 729.994,801.034 709.494,829.867 682.5,854C 659.53,873.643 632.863,884.143 602.5,885.5C 602.5,854.5 602.5,823.5 602.5,792.5C 620.27,791.445 636.27,785.612 650.5,775C 670.887,758.406 686.054,737.906 696,713.5C 717.086,659.531 721.419,604.198 709,547.5C 702.348,515.869 689.014,487.536 669,462.5C 656.122,447.279 640.288,436.445 621.5,430C 615.303,428.114 608.97,427.28 602.5,427.5C 602.5,410.5 602.5,393.5 602.5,376.5C 609.5,376.5 616.5,376.5 623.5,376.5 Z"/></g>
<g><path style="opacity:1" fill="#6f6729" d="M 930.5,360.5 C 931.822,369.342 931.822,378.342 930.5,387.5C 929.893,387.376 929.56,387.043 929.5,386.5C 930.493,378.016 930.826,369.349 930.5,360.5 Z"/></g>
<g><path style="opacity:1" fill="#f2f4f5" d="M 698.5,381.5 C 717.894,383.699 737.227,386.366 756.5,389.5C 792.405,458.836 810.072,532.669 809.5,611C 810.146,688.581 792.646,761.747 757,830.5C 738,864.997 712.5,893.664 680.5,916.5C 671.154,920.337 661.488,923.504 651.5,926C 637.407,929.54 623.073,931.373 608.5,931.5C 606.5,931.5 604.5,931.5 602.5,931.5C 602.5,916.167 602.5,900.833 602.5,885.5C 632.863,884.143 659.53,873.643 682.5,854C 709.494,829.867 729.994,801.034 744,767.5C 776.082,687.027 783.082,604.361 765,519.5C 754.246,467.669 732.08,421.669 698.5,381.5 Z"/></g>
<g><path style="opacity:1" fill="#16293e" d="M 169.5,382.5 C 174.323,383.546 179.156,384.546 184,385.5C 186.738,399.743 187.238,414.076 185.5,428.5C 182.167,428.5 178.833,428.5 175.5,428.5C 175.794,412.851 173.794,397.518 169.5,382.5 Z"/></g>
<g><path style="opacity:1" fill="#17293e" d="M 1025.5,382.5 C 1026.98,382.238 1028.31,382.571 1029.5,383.5C 1025.12,398.173 1023.12,413.173 1023.5,428.5C 1020.17,428.5 1016.83,428.5 1013.5,428.5C 1011.76,414.076 1012.26,399.743 1015,385.5C 1018.56,384.335 1022.06,383.335 1025.5,382.5 Z"/></g>
<g><path style="opacity:1" fill="#eef1f3" d="M 756.5,389.5 C 764.429,391.219 772.429,392.552 780.5,393.5C 795.04,397.303 809.707,401.136 824.5,405C 833.607,407.473 842.441,410.64 851,414.5C 851.748,520.17 851.414,625.837 850,731.5C 843.36,772.777 826.026,808.777 798,839.5C 767.068,872.594 730.568,897.594 688.5,914.5C 685.888,915.371 683.221,916.037 680.5,916.5C 712.5,893.664 738,864.997 757,830.5C 792.646,761.747 810.146,688.581 809.5,611C 810.072,532.669 792.405,458.836 756.5,389.5 Z"/></g>
<g><path style="opacity:1" fill="#16293e" d="M 999.5,392.5 C 1000.68,392.281 1001.68,392.614 1002.5,393.5C 1000.76,403.066 1000.09,412.732 1000.5,422.5C 997.833,422.5 995.167,422.5 992.5,422.5C 991.683,413.191 991.35,403.857 991.5,394.5C 994.428,394.435 997.095,393.768 999.5,392.5 Z"/></g>
<g><path style="opacity:1" fill="#15283e" d="M 196.5,393.5 C 196.735,392.903 197.235,392.57 198,392.5C 201.026,393.872 204.193,394.538 207.5,394.5C 207.61,403.854 207.277,413.188 206.5,422.5C 203.833,422.5 201.167,422.5 198.5,422.5C 198.666,415.159 198.5,407.826 198,400.5C 197.814,397.964 197.314,395.631 196.5,393.5 Z"/></g>
<g><path style="opacity:1" fill="#15355a" d="M 601.5,398.5 C 601.5,410.167 601.5,421.833 601.5,433.5C 573.019,434.083 548.019,443.583 526.5,462C 494.534,492.425 475.034,529.592 468,573.5C 459.531,625.221 467.531,674.221 492,720.5C 508.665,750.502 532.832,772.002 564.5,785C 576.482,789.219 588.815,791.053 601.5,790.5C 601.5,802.5 601.5,814.5 601.5,826.5C 578.78,826.32 557.446,820.82 537.5,810C 510.667,793.833 489.167,772.333 473,745.5C 443.162,691.815 432.495,634.482 441,573.5C 448.035,517.595 471.868,470.428 512.5,432C 538.083,410.217 567.75,399.051 601.5,398.5 Z"/></g>
<g><path style="opacity:1" fill="#1f2d3d" d="M 218.5,403.5 C 221.704,404.901 225.037,405.901 228.5,406.5C 228.376,411.289 227.542,415.955 226,420.5C 225.586,420.957 225.086,421.291 224.5,421.5C 222.556,420.811 220.556,420.311 218.5,420C 218.359,414.651 218.359,409.151 218.5,403.5 Z"/></g>
<g><path style="opacity:1" fill="#202d3d" d="M 978.5,403.5 C 980.217,408.11 981.217,413.11 981.5,418.5C 979.389,419.949 977.056,420.949 974.5,421.5C 973.914,421.291 973.414,420.957 973,420.5C 971.109,415.912 970.609,411.245 971.5,406.5C 974.016,405.67 976.35,404.67 978.5,403.5 Z"/></g>
<g><path style="opacity:1" fill="#153760" d="M 601.5,433.5 C 601.5,445.167 601.5,456.833 601.5,468.5C 571.135,469.766 546.302,482.099 527,505.5C 497.862,544.714 486.528,588.714 493,637.5C 497.621,675.101 513.454,706.934 540.5,733C 558.064,747.911 578.398,755.411 601.5,755.5C 601.5,767.167 601.5,778.833 601.5,790.5C 588.815,791.053 576.482,789.219 564.5,785C 532.832,772.002 508.665,750.502 492,720.5C 467.531,674.221 459.531,625.221 468,573.5C 475.034,529.592 494.534,492.425 526.5,462C 548.019,443.583 573.019,434.083 601.5,433.5 Z"/></g>
<g><path style="opacity:1" fill="#69632b" d="M 126.5,441.5 C 127.404,442.209 127.737,443.209 127.5,444.5C 130.833,444.5 134.167,444.5 137.5,444.5C 134.038,445.482 130.371,445.815 126.5,445.5C 126.5,444.167 126.5,442.833 126.5,441.5 Z"/></g>
<g><path style="opacity:1" fill="#6d662a" d="M 1072.5,441.5 C 1072.5,442.833 1072.5,444.167 1072.5,445.5C 1068.63,445.815 1064.96,445.482 1061.5,444.5C 1064.83,444.5 1068.17,444.5 1071.5,444.5C 1071.26,443.209 1071.6,442.209 1072.5,441.5 Z"/></g>
<g><path style="opacity:1" fill="#f8f9fa" d="M 602.5,427.5 C 608.97,427.28 615.303,428.114 621.5,430C 640.288,436.445 656.122,447.279 669,462.5C 689.014,487.536 702.348,515.869 709,547.5C 721.419,604.198 717.086,659.531 696,713.5C 686.054,737.906 670.887,758.406 650.5,775C 636.27,785.612 620.27,791.445 602.5,792.5C 602.5,775.5 602.5,758.5 602.5,741.5C 622.217,739.557 638.384,730.89 651,715.5C 673.882,684.178 684.715,649.012 683.5,610C 684.634,571.006 673.8,535.839 651,504.5C 638.539,488.853 622.373,479.853 602.5,477.5C 602.5,460.833 602.5,444.167 602.5,427.5 Z"/></g>
<g><path style="opacity:1" fill="#163b66" d="M 601.5,468.5 C 601.5,482.167 601.5,495.833 601.5,509.5C 573.735,511.462 552.902,524.462 539,548.5C 521.314,581.292 517.647,615.625 528,651.5C 535.073,675.215 548.906,693.715 569.5,707C 579.5,712.333 590.167,714.833 601.5,714.5C 601.5,728.167 601.5,741.833 601.5,755.5C 578.398,755.411 558.064,747.911 540.5,733C 513.454,706.934 497.621,675.101 493,637.5C 486.528,588.714 497.862,544.714 527,505.5C 546.302,482.099 571.135,469.766 601.5,468.5 Z"/></g>
<g><path style="opacity:1" fill="#fbfbfc" d="M 602.5,477.5 C 622.373,479.853 638.539,488.853 651,504.5C 673.8,535.839 684.634,571.006 683.5,610C 684.715,649.012 673.882,684.178 651,715.5C 638.384,730.89 622.217,739.557 602.5,741.5C 602.5,653.5 602.5,565.5 602.5,477.5 Z"/></g>
<g><path style="opacity:1" fill="#173e6c" d="M 601.5,509.5 C 601.5,521.5 601.5,533.5 601.5,545.5C 582.444,546.114 568.277,554.781 559,571.5C 544.011,601.636 545.344,630.969 563,659.5C 572.575,672.371 585.408,679.038 601.5,679.5C 601.5,691.167 601.5,702.833 601.5,714.5C 590.167,714.833 579.5,712.333 569.5,707C 548.906,693.715 535.073,675.215 528,651.5C 517.647,615.625 521.314,581.292 539,548.5C 552.902,524.462 573.735,511.462 601.5,509.5 Z"/></g>
<g><path style="opacity:1" fill="#7d7127" d="M 182.5,526.5 C 184.265,525.539 186.265,525.205 188.5,525.5C 188.737,526.791 188.404,527.791 187.5,528.5C 186.448,526.744 184.781,526.077 182.5,526.5 Z"/></g>
<g><path style="opacity:1" fill="#f1c208" d="M 193.5,524.5 C 206.604,523.864 219.104,526.198 231,531.5C 228.493,556.222 225.493,580.889 222,605.5C 229.267,602.297 236.767,600.131 244.5,599C 237.866,613.937 230.199,628.271 221.5,642C 214.5,642.667 207.5,642.667 200.5,642C 207.119,635.552 212.785,628.386 217.5,620.5C 216.277,619.386 214.944,619.219 213.5,620C 208.366,622.969 203.366,626.136 198.5,629.5C 197.667,604.476 196.833,579.476 196,554.5C 200.701,550.134 205.034,545.467 209,540.5C 211.571,538.024 213.071,535.024 213.5,531.5C 211.801,531.34 210.134,531.506 208.5,532C 203.747,534.458 199.247,537.292 195,540.5C 194.17,535.192 193.67,529.859 193.5,524.5 Z"/></g>
<g><path style="opacity:1" fill="#f1c307" d="M 1001.5,614.5 C 1000.83,619.167 1000.17,623.833 999.5,628.5C 995.028,625.427 990.361,622.593 985.5,620C 984.056,619.219 982.723,619.386 981.5,620.5C 986.215,628.386 991.881,635.552 998.5,642C 991.476,642.831 984.476,642.664 977.5,641.5C 968.675,628.02 961.008,613.853 954.5,599C 962.086,600.912 969.752,602.745 977.5,604.5C 973.426,580.243 970.26,555.91 968,531.5C 979.837,525.887 992.337,523.554 1005.5,524.5C 1005.59,529.887 1005.09,535.22 1004,540.5C 999.753,537.292 995.253,534.458 990.5,532C 988.866,531.506 987.199,531.34 985.5,531.5C 989.845,540.137 995.678,547.804 1003,554.5C 1002.23,574.472 1001.73,594.472 1001.5,614.5 Z"/></g>
<g><path style="opacity:1" fill="#f2c307" d="M 182.5,526.5 C 184.781,526.077 186.448,526.744 187.5,528.5C 187.331,534.523 186.831,540.523 186,546.5C 183.203,542.701 180.036,539.201 176.5,536C 174.783,534.441 172.783,533.608 170.5,533.5C 173.962,544.759 178.795,555.426 185,565.5C 185.067,586.832 184.733,608.165 184,629.5C 178.131,624.651 171.631,620.984 164.5,618.5C 164.608,620.783 165.441,622.783 167,624.5C 171.671,630.003 176.504,635.336 181.5,640.5C 178.713,641.477 175.713,641.81 172.5,641.5C 166.907,641.807 161.407,641.473 156,640.5C 150.275,624.265 146.441,607.598 144.5,590.5C 144.833,588.833 145.167,587.167 145.5,585.5C 150.638,588.805 155.638,592.305 160.5,596C 161.759,596.982 163.092,597.315 164.5,597C 155.916,577.279 150.25,556.946 147.5,536C 158.828,531.5 170.495,528.334 182.5,526.5 Z"/></g>
<g><path style="opacity:1" fill="#f1c307" d="M 1011.5,525.5 C 1025.03,528.05 1038.36,531.55 1051.5,536C 1048.86,556.796 1043.19,576.963 1034.5,596.5C 1035.79,597.408 1037.12,597.241 1038.5,596C 1043.36,592.305 1048.36,588.805 1053.5,585.5C 1053.83,587.5 1054.17,589.5 1054.5,591.5C 1052.46,608.497 1048.46,624.997 1042.5,641C 1034.15,641.832 1025.81,641.665 1017.5,640.5C 1022.52,635.316 1027.35,629.983 1032,624.5C 1033.56,622.783 1034.39,620.783 1034.5,618.5C 1027.37,620.984 1020.87,624.651 1015,629.5C 1013.82,608.176 1013.49,586.843 1014,565.5C 1020.21,555.426 1025.04,544.759 1028.5,533.5C 1022.04,536.116 1016.87,540.449 1013,546.5C 1012.11,539.524 1011.61,532.524 1011.5,525.5 Z"/></g>
<g><path style="opacity:1" fill="#ecbf0c" d="M 244.5,539.5 C 255.681,542.691 265.014,548.691 272.5,557.5C 271.391,559.385 270.557,561.385 270,563.5C 269.5,577.163 269.333,590.829 269.5,604.5C 265.865,605.114 262.198,605.448 258.5,605.5C 260.787,598.348 262.121,591.015 262.5,583.5C 254.701,583.025 247.034,583.692 239.5,585.5C 239.167,584.833 238.833,584.167 238.5,583.5C 241.398,568.956 243.398,554.29 244.5,539.5 Z"/></g>
<g><path style="opacity:1" fill="#ecbf0c" d="M 952.5,539.5 C 954.117,540.589 954.95,542.256 955,544.5C 956.353,558.24 958.186,571.907 960.5,585.5C 952.601,583.839 944.601,583.173 936.5,583.5C 936.879,591.015 938.213,598.348 940.5,605.5C 936.802,605.448 933.135,605.114 929.5,604.5C 929.667,590.829 929.5,577.163 929,563.5C 928.443,561.385 927.609,559.385 926.5,557.5C 933.829,549.495 942.495,543.495 952.5,539.5 Z"/></g>
<g><path style="opacity:1" fill="#174174" d="M 601.5,545.5 C 601.5,590.167 601.5,634.833 601.5,679.5C 585.408,679.038 572.575,672.371 563,659.5C 545.344,630.969 544.011,601.636 559,571.5C 568.277,554.781 582.444,546.114 601.5,545.5 Z"/></g>
<g><path style="opacity:1" fill="#9f891b" d="M 916.5,598.5 C 916.828,586.655 916.495,574.988 915.5,563.5C 915.783,562.711 916.283,562.044 917,561.5C 917.827,574.007 917.66,586.34 916.5,598.5 Z"/></g>
<g><path style="opacity:1" fill="#f1c208" d="M 283.5,563.5 C 291.798,571.298 299.965,579.298 308,587.5C 308.638,594.208 308.305,600.874 307,607.5C 303.882,602.714 300.382,598.214 296.5,594C 295.4,593.568 294.733,594.068 294.5,595.5C 297.447,606.175 301.28,616.508 306,626.5C 306.811,643.192 306.478,659.859 305,676.5C 284.726,662.955 274.726,643.955 275,619.5C 277.5,622 280,624.5 282.5,627C 283.793,627.49 285.127,627.657 286.5,627.5C 284.129,617.978 282.796,608.312 282.5,598.5C 282.172,586.655 282.505,574.988 283.5,563.5 Z"/></g>
<g><path style="opacity:1" fill="#f1c208" d="M 915.5,563.5 C 916.495,574.988 916.828,586.655 916.5,598.5C 915.945,608.276 914.611,617.943 912.5,627.5C 917.232,626.29 921.066,623.623 924,619.5C 924.275,643.951 914.275,662.951 894,676.5C 892.544,659.857 892.211,643.19 893,626.5C 898.438,615.652 902.104,604.319 904,592.5C 899.279,596.953 895.279,601.953 892,607.5C 890.695,600.874 890.362,594.208 891,587.5C 899.035,579.298 907.202,571.298 915.5,563.5 Z"/></g>
<g><path style="opacity:1" fill="#9e881b" d="M 283.5,563.5 C 282.505,574.988 282.172,586.655 282.5,598.5C 281.34,586.34 281.173,574.007 282,561.5C 282.717,562.044 283.217,562.711 283.5,563.5 Z"/></g>
<g><path style="opacity:1" fill="#ddb512" d="M 316.5,598.5 C 320.168,601.836 322.834,605.836 324.5,610.5C 323.555,613.445 321.555,615.445 318.5,616.5C 317.306,610.557 316.639,604.557 316.5,598.5 Z"/></g>
<g><path style="opacity:1" fill="#d8b114" d="M 881.5,598.5 C 882.163,600.641 882.497,602.975 882.5,605.5C 882.633,609.336 881.967,613.002 880.5,616.5C 877.512,615.367 875.512,613.367 874.5,610.5C 876.304,606.231 878.637,602.231 881.5,598.5 Z"/></g>
<g><path style="opacity:1" fill="#ebbe0c" d="M 254.5,617.5 C 256.144,617.286 257.644,617.62 259,618.5C 259.843,627.247 261.177,635.913 263,644.5C 264.396,648.23 266.23,651.73 268.5,655C 257.862,652.955 247.529,649.788 237.5,645.5C 242.27,636.959 246.77,628.292 251,619.5C 252.302,618.915 253.469,618.249 254.5,617.5 Z"/></g>
<g><path style="opacity:1" fill="#edbf0a" d="M 940.5,617.5 C 943.199,617.466 945.699,618.133 948,619.5C 952.23,628.292 956.73,636.959 961.5,645.5C 951.713,648.929 941.88,652.262 932,655.5C 931.5,655.167 931,654.833 930.5,654.5C 932.968,651.528 934.802,648.194 936,644.5C 937.749,635.497 939.249,626.497 940.5,617.5 Z"/></g>
<g><path style="opacity:1" fill="#7c7025" d="M 1001.5,614.5 C 1001.83,619.544 1001.49,624.544 1000.5,629.5C 999.893,629.376 999.56,629.043 999.5,628.5C 1000.17,623.833 1000.83,619.167 1001.5,614.5 Z"/></g>
<g><path style="opacity:1" fill="#776d25" d="M 322.5,683.5 C 323.497,665.007 323.83,646.341 323.5,627.5C 324.179,636.091 324.513,645.424 324.5,655.5C 324.167,665.167 323.833,674.833 323.5,684.5C 322.893,684.376 322.56,684.043 322.5,683.5 Z"/></g>
<g><path style="opacity:1" fill="#776d25" d="M 875.5,627.5 C 875.17,646.341 875.503,665.007 876.5,683.5C 876.44,684.043 876.107,684.376 875.5,684.5C 875.167,674.833 874.833,665.167 874.5,655.5C 874.487,645.424 874.821,636.091 875.5,627.5 Z"/></g>
<g><path style="opacity:1" fill="#f0c207" d="M 323.5,627.5 C 323.83,646.341 323.497,665.007 322.5,683.5C 321.5,683.5 320.5,683.5 319.5,683.5C 318.708,666.838 318.542,650.171 319,633.5C 320.277,631.253 321.777,629.253 323.5,627.5 Z"/></g>
<g><path style="opacity:1" fill="#f1c307" d="M 875.5,627.5 C 877.223,629.253 878.723,631.253 880,633.5C 880.389,650.17 880.222,666.837 879.5,683.5C 878.5,683.5 877.5,683.5 876.5,683.5C 875.503,665.007 875.17,646.341 875.5,627.5 Z"/></g>
<g><path style="opacity:1" fill="#58572e" d="M 181.5,640.5 C 182.043,640.56 182.376,640.893 182.5,641.5C 179.02,642.806 175.687,642.806 172.5,641.5C 175.713,641.81 178.713,641.477 181.5,640.5 Z"/></g>
<g><path style="opacity:1" fill="#f2c307" d="M 179.5,650.5 C 220.793,649.156 258.793,659.656 293.5,682C 304.098,688.214 314.265,695.047 324,702.5C 324.621,716.528 325.621,730.528 327,744.5C 328.133,752.668 329.967,760.668 332.5,768.5C 332,768.833 331.5,769.167 331,769.5C 297.617,752.505 263.45,751.005 228.5,765C 223.084,767.139 217.751,769.472 212.5,772C 211.353,773.904 211.853,775.404 214,776.5C 255.14,759.921 295.973,760.755 336.5,779C 339.535,783.931 341.202,789.098 341.5,794.5C 298.199,776.585 255.199,777.252 212.5,796.5C 209.432,795.699 206.432,794.699 203.5,793.5C 200.803,744.441 180.803,704.107 143.5,672.5C 148.044,665.912 152.711,659.412 157.5,653C 164.989,652.209 172.322,651.376 179.5,650.5 Z"/></g>
<g><path style="opacity:1" fill="#f2c307" d="M 997.5,650.5 C 1012.62,650.299 1027.62,651.466 1042.5,654C 1046.59,660.177 1050.92,666.177 1055.5,672C 1027.75,695.672 1009.25,725.172 1000,760.5C 997.723,771.377 996.557,782.377 996.5,793.5C 993.055,794.093 989.721,795.093 986.5,796.5C 964.853,786.754 942.186,781.754 918.5,781.5C 897.173,781.099 876.84,785.432 857.5,794.5C 857.798,789.098 859.465,783.931 862.5,779C 902.984,760.706 943.817,759.872 985,776.5C 987.147,775.404 987.647,773.904 986.5,772C 961.897,759.746 935.897,754.413 908.5,756C 894.08,758.195 880.413,762.695 867.5,769.5C 871.693,747.596 874.193,725.263 875,702.5C 902.826,681.055 933.659,665.222 967.5,655C 977.557,652.874 987.557,651.374 997.5,650.5 Z"/></g>
<g><path style="opacity:1" fill="#dcdcce" d="M 623.5,376.5 C 616.5,376.5 609.5,376.5 602.5,376.5C 602.5,393.5 602.5,410.5 602.5,427.5C 602.5,444.167 602.5,460.833 602.5,477.5C 602.5,565.5 602.5,653.5 602.5,741.5C 602.5,758.5 602.5,775.5 602.5,792.5C 602.5,823.5 602.5,854.5 602.5,885.5C 602.5,900.833 602.5,916.167 602.5,931.5C 604.5,931.5 606.5,931.5 608.5,931.5C 606.393,932.468 604.059,932.802 601.5,932.5C 601.5,922.5 601.5,912.5 601.5,902.5C 601.5,888.833 601.5,875.167 601.5,861.5C 601.5,849.833 601.5,838.167 601.5,826.5C 601.5,814.5 601.5,802.5 601.5,790.5C 601.5,778.833 601.5,767.167 601.5,755.5C 601.5,741.833 601.5,728.167 601.5,714.5C 601.5,702.833 601.5,691.167 601.5,679.5C 601.5,634.833 601.5,590.167 601.5,545.5C 601.5,533.5 601.5,521.5 601.5,509.5C 601.5,495.833 601.5,482.167 601.5,468.5C 601.5,456.833 601.5,445.167 601.5,433.5C 601.5,421.833 601.5,410.167 601.5,398.5C 601.5,390.833 601.5,383.167 601.5,375.5C 609.019,375.175 616.352,375.508 623.5,376.5 Z"/></g>
<g><path style="opacity:1" fill="#192a3e" d="M 173.5,669.5 C 178.179,669.334 182.845,669.501 187.5,670C 202.952,688.074 212.618,708.907 216.5,732.5C 213.792,733.449 211.126,733.449 208.5,732.5C 198.635,709.92 185.635,689.42 169.5,671C 171.058,670.79 172.391,670.29 173.5,669.5 Z"/></g>
<g><path style="opacity:1" fill="#192a3e" d="M 1011.5,669.5 C 1017.55,669.428 1023.55,669.928 1029.5,671C 1013.36,689.42 1000.36,709.92 990.5,732.5C 988.579,733.641 986.579,733.808 984.5,733C 983.484,732.481 982.818,731.647 982.5,730.5C 984.976,717.905 989.143,705.905 995,694.5C 1000.51,686.138 1006.01,677.805 1011.5,669.5 Z"/></g>
<g><path style="opacity:1" fill="#6f6729" d="M 984.5,671.5 C 986.693,670.203 989.027,670.203 991.5,671.5C 991.376,672.107 991.043,672.44 990.5,672.5C 988.735,671.539 986.735,671.205 984.5,671.5 Z"/></g>
<g><path style="opacity:1" fill="#192a3e" d="M 207.5,672.5 C 211.683,671.189 216.016,671.189 220.5,672.5C 229.762,688.621 235.429,705.954 237.5,724.5C 234.966,725.777 232.466,725.777 230,724.5C 225.481,705.742 217.981,688.409 207.5,672.5 Z"/></g>
<g><path style="opacity:1" fill="#1a2a3e" d="M 984.5,671.5 C 986.735,671.205 988.735,671.539 990.5,672.5C 980.441,688.952 973.441,706.618 969.5,725.5C 966.753,725.813 964.086,725.48 961.5,724.5C 963.571,705.954 969.238,688.621 978.5,672.5C 980.396,671.534 982.396,671.201 984.5,671.5 Z"/></g>
<g><path style="opacity:1" fill="#18293e" d="M 240.5,678.5 C 240.735,677.903 241.235,677.57 242,677.5C 244.478,678.245 246.978,678.911 249.5,679.5C 251.353,680.189 252.519,681.522 253,683.5C 255.976,694.642 257.476,705.975 257.5,717.5C 255.167,717.5 252.833,717.5 250.5,717.5C 249.179,703.879 245.845,690.879 240.5,678.5 Z"/></g>
<g><path style="opacity:1" fill="#182a3e" d="M 953.5,677.5 C 955.199,677.34 956.866,677.506 958.5,678C 953.213,690.648 949.88,703.814 948.5,717.5C 946.167,717.5 943.833,717.5 941.5,717.5C 941.297,704.784 943.297,692.451 947.5,680.5C 949.594,679.482 951.594,678.482 953.5,677.5 Z"/></g>
<g><path style="opacity:1" fill="#232f3d" d="M 269.5,687.5 C 272.028,688.399 274.528,689.399 277,690.5C 277.647,698.189 277.48,705.856 276.5,713.5C 274.5,713.5 272.5,713.5 270.5,713.5C 270.711,704.8 270.377,696.133 269.5,687.5 Z"/></g>
<g><path style="opacity:1" fill="#25303c" d="M 927.5,687.5 C 928.586,687.62 929.253,688.287 929.5,689.5C 928.562,697.464 928.229,705.464 928.5,713.5C 926.5,713.5 924.5,713.5 922.5,713.5C 921.52,705.856 921.353,698.189 922,690.5C 923.876,689.391 925.709,688.391 927.5,687.5 Z"/></g>
<g><path style="opacity:1" fill="#ecbf0b" d="M 286.5,817.5 C 285.833,815.5 285.167,813.5 284.5,811.5C 284.763,804.63 283.763,797.964 281.5,791.5C 286.297,791.121 290.964,791.621 295.5,793C 297.41,800.485 300.41,807.485 304.5,814C 300.816,812.198 296.816,811.531 292.5,812C 289.977,813.36 287.977,815.193 286.5,817.5 Z"/></g>
<g><path style="opacity:1" fill="#e9bd0d" d="M 905.5,791.5 C 909.5,791.5 913.5,791.5 917.5,791.5C 915.374,800.366 914.041,809.366 913.5,818.5C 911.644,815.81 909.311,813.644 906.5,812C 902.184,811.531 898.184,812.198 894.5,814C 898.555,807.717 901.388,800.884 903,793.5C 903.995,792.934 904.828,792.267 905.5,791.5 Z"/></g>
<g><path style="opacity:1" fill="#f0c208" d="M 950.5,854.5 C 949.549,853.081 949.216,851.415 949.5,849.5C 950.4,837.329 951.4,825.163 952.5,813C 952.333,810.167 952.167,807.333 952,804.5C 949.91,803.209 948.576,803.876 948,806.5C 943.589,824.302 940.255,842.302 938,860.5C 934.697,856.117 930.531,853.117 925.5,851.5C 926.139,856.445 928.139,860.778 931.5,864.5C 931.167,864.833 930.833,865.167 930.5,865.5C 925.161,863.666 919.828,861.832 914.5,860C 911.324,849.754 910.157,839.254 911,828.5C 913.5,831 916,833.5 918.5,836C 920.345,837.128 922.345,837.628 924.5,837.5C 924.334,827.494 924.5,817.494 925,807.5C 925.884,802.627 927.384,797.96 929.5,793.5C 945.402,793.518 960.402,797.351 974.5,805C 976.612,805.906 977.445,807.406 977,809.5C 969.668,825.516 960.834,840.516 950.5,854.5 Z"/></g>
<g><path style="opacity:1" fill="#f0c208" d="M 249.5,849.5 C 249.784,851.415 249.451,853.081 248.5,854.5C 237.864,840.076 228.864,824.576 221.5,808C 227.872,802.639 235.205,798.972 243.5,797C 252.029,794.189 260.696,793.022 269.5,793.5C 271.702,797.939 273.202,802.606 274,807.5C 274.5,817.494 274.666,827.494 274.5,837.5C 280.149,836.372 284.649,833.372 288,828.5C 289.249,839.31 288.082,849.81 284.5,860C 278.786,862.311 273.119,863.811 267.5,864.5C 270.861,860.778 272.861,856.445 273.5,851.5C 268.915,853.137 264.915,855.804 261.5,859.5C 258.657,842.775 255.49,826.108 252,809.5C 251.361,806.888 250.194,804.554 248.5,802.5C 247.808,803.025 247.308,803.692 247,804.5C 246.833,807.5 246.667,810.5 246.5,813.5C 247.633,825.492 248.633,837.492 249.5,849.5 Z"/></g>
<g><path style="opacity:1" fill="#efc109" d="M 307.5,795.5 C 323.603,797.699 338.103,803.699 351,813.5C 354.934,823.204 359.767,832.371 365.5,841C 365.167,841.5 364.833,842 364.5,842.5C 358.529,835.902 353.029,828.902 348,821.5C 336.273,808.889 334.606,810.223 343,825.5C 346.708,831.751 350.541,837.917 354.5,844C 350.535,844.534 346.702,844.034 343,842.5C 339.112,842.538 338.612,843.704 341.5,846C 347.985,848.743 354.319,851.743 360.5,855C 350.5,855.111 340.5,854.778 330.5,854C 320.35,847.024 313.016,837.857 308.5,826.5C 309.167,826.167 309.833,825.833 310.5,825.5C 315.795,826.928 321.128,827.761 326.5,828C 317.21,818.924 310.877,808.091 307.5,795.5 Z"/></g>
<g><path style="opacity:1" fill="#efc109" d="M 887.5,795.5 C 888.833,795.5 890.167,795.5 891.5,795.5C 888.123,808.091 881.79,818.924 872.5,828C 877.665,827.57 882.831,826.736 888,825.5C 888.833,825.833 889.667,826.167 890.5,826.5C 885.984,837.857 878.65,847.024 868.5,854C 858.482,854.537 848.482,854.871 838.5,855C 843.26,852.295 848.26,849.962 853.5,848C 856.076,847.218 858.076,845.718 859.5,843.5C 858.5,843.167 857.5,842.833 856.5,842.5C 852.509,843.469 848.509,843.969 844.5,844C 849.963,836.246 854.797,828.079 859,819.5C 860.15,817.246 860.484,814.913 860,812.5C 851.591,820.58 844.258,829.58 838,839.5C 836.981,840.687 835.814,841.687 834.5,842.5C 834.167,842 833.833,841.5 833.5,841C 839.233,832.371 844.066,823.204 848,813.5C 859.847,804.5 873.014,798.5 887.5,795.5 Z"/></g>
<g><path style="opacity:1" fill="#807323" d="M 284.5,811.5 C 285.167,813.5 285.833,815.5 286.5,817.5C 286.44,818.043 286.107,818.376 285.5,818.5C 284.526,816.257 284.192,813.924 284.5,811.5 Z"/></g>
<g><path style="opacity:1" fill="#e9bd0c" d="M 299.5,834.5 C 303.968,841.898 309.301,848.731 315.5,855C 310.148,855.322 304.814,855.822 299.5,856.5C 298.5,856.167 297.5,855.833 296.5,855.5C 298.692,848.679 299.692,841.679 299.5,834.5 Z"/></g>
<g><path style="opacity:1" fill="#e9bd0c" d="M 898.5,834.5 C 899.276,841.472 900.609,848.472 902.5,855.5C 901.167,855.833 899.833,856.167 898.5,856.5C 893.509,855.91 888.509,855.41 883.5,855C 889.854,849.113 894.854,842.28 898.5,834.5 Z"/></g>
<g><path style="opacity:1" fill="#d9b212" d="M 826.5,848.5 C 827.922,848.75 828.922,849.583 829.5,851C 828.333,852.833 827.167,854.667 826,856.5C 824.274,857.576 822.441,857.743 820.5,857C 822.888,854.371 824.888,851.538 826.5,848.5 Z"/></g>
<g><path style="opacity:1" fill="#d8b113" d="M 370.5,848.5 C 373.616,850.787 376.283,853.62 378.5,857C 376.559,857.743 374.726,857.576 373,856.5C 371.833,854.667 370.667,852.833 369.5,851C 370.252,850.329 370.586,849.496 370.5,848.5 Z"/></g>
<g><path style="opacity:1" fill="#877924" d="M 249.5,849.5 C 250.629,851.628 250.796,853.961 250,856.5C 249.283,855.956 248.783,855.289 248.5,854.5C 249.451,853.081 249.784,851.415 249.5,849.5 Z"/></g>
<g><path style="opacity:1" fill="#867725" d="M 949.5,849.5 C 949.216,851.415 949.549,853.081 950.5,854.5C 950.217,855.289 949.717,855.956 949,856.5C 948.204,853.961 948.371,851.628 949.5,849.5 Z"/></g>
<g><path style="opacity:1" fill="#f1c307" d="M 451.5,911.5 C 443.833,912.167 436.167,912.833 428.5,913.5C 406.968,913.733 387.634,920.233 370.5,933C 365.278,937.719 360.612,942.885 356.5,948.5C 348.855,949.665 341.188,949.831 333.5,949C 312.653,929.899 288.653,915.899 261.5,907C 258.667,899.344 257.333,891.511 257.5,883.5C 286.759,868.623 317.759,862.789 350.5,866C 366.727,867.371 382.727,870.038 398.5,874C 416.547,886.018 434.214,898.518 451.5,911.5 Z"/></g>
<g><path style="opacity:1" fill="#f1c207" d="M 768.5,913.5 C 761.5,912.833 754.5,912.167 747.5,911.5C 764.749,898.53 782.416,886.03 800.5,874C 844.321,861.458 887.655,862.791 930.5,878C 934.167,879.833 937.833,881.667 941.5,883.5C 941.667,891.511 940.333,899.344 937.5,907C 910.347,915.899 886.347,929.899 865.5,949C 857.812,949.831 850.145,949.665 842.5,948.5C 830.632,931.815 814.632,921.315 794.5,917C 785.92,915.131 777.253,913.965 768.5,913.5 Z"/></g>
<g><path style="opacity:1" fill="#1b2b3d" d="M 334.5,875.5 C 335.873,875.343 337.207,875.51 338.5,876C 341.093,878.766 343.093,881.933 344.5,885.5C 342.33,887.086 339.996,888.42 337.5,889.5C 334.722,885.548 331.722,881.714 328.5,878C 330.611,877.155 332.611,876.322 334.5,875.5 Z"/></g>
<g><path style="opacity:1" fill="#1b2b3d" d="M 860.5,875.5 C 863.988,875.705 867.321,876.539 870.5,878C 867.278,881.714 864.278,885.548 861.5,889.5C 859.004,888.42 856.67,887.086 854.5,885.5C 856.129,881.887 858.129,878.554 860.5,875.5 Z"/></g>
<g><path style="opacity:1" fill="#1d2c3d" d="M 309.5,879.5 C 318.138,882.644 324.305,888.311 328,896.5C 326.26,898.954 324.093,900.454 321.5,901C 315.059,894.29 308.059,888.29 300.5,883C 303.571,881.704 306.571,880.538 309.5,879.5 Z"/></g>
<g><path style="opacity:1" fill="#1c2b3d" d="M 886.5,879.5 C 890.571,880.356 894.571,881.523 898.5,883C 890.611,888.453 883.278,894.62 876.5,901.5C 874.167,899.833 872.167,897.833 870.5,895.5C 874.882,889.118 880.215,883.785 886.5,879.5 Z"/></g>
<g><path style="opacity:1" fill="#1b2b3d" d="M 285.5,888.5 C 296.571,892.872 306.571,899.039 315.5,907C 319.4,909.951 319.067,912.618 314.5,915C 313.5,915.667 312.5,915.667 311.5,915C 300.508,906.001 288.175,899.335 274.5,895C 278.23,892.807 281.897,890.64 285.5,888.5 Z"/></g>
<g><path style="opacity:1" fill="#1b2b3d" d="M 910.5,888.5 C 915.135,889.718 919.468,891.718 923.5,894.5C 910.403,899.545 898.403,906.378 887.5,915C 884.72,915.269 882.554,914.102 881,911.5C 880.333,910.833 880.333,910.167 881,909.5C 890.109,901.373 899.942,894.373 910.5,888.5 Z"/></g>
<g><path style="opacity:1" fill="#1a2a3e" d="M 399.5,904.5 C 406.2,904.17 412.866,904.503 419.5,905.5C 421.167,907.167 420.833,908.167 418.5,908.5C 400.369,909.031 383.702,914.198 368.5,924C 361.989,928.423 355.655,933.089 349.5,938C 344.766,938.09 340.433,936.756 336.5,934C 354.799,918.294 375.799,908.461 399.5,904.5 Z"/></g>
<g><path style="opacity:1" fill="#1a2a3e" d="M 779.5,904.5 C 811.108,903.534 838.775,913.367 862.5,934C 858.402,936.368 854.069,937.701 849.5,938C 835.975,926.235 820.641,917.568 803.5,912C 795.889,910.59 788.223,909.59 780.5,909C 779.692,908.692 779.025,908.192 778.5,907.5C 779.127,906.583 779.461,905.583 779.5,904.5 Z"/></g>
<g><path style="opacity:1" fill="#aa9119" d="M 451.5,911.5 C 452.289,911.783 452.956,912.283 453.5,913C 445.173,913.5 436.84,913.666 428.5,913.5C 436.167,912.833 443.833,912.167 451.5,911.5 Z"/></g>
<g><path style="opacity:1" fill="#aa9118" d="M 747.5,911.5 C 754.5,912.167 761.5,912.833 768.5,913.5C 760.826,913.666 753.159,913.5 745.5,913C 746.044,912.283 746.711,911.783 747.5,911.5 Z"/></g>
<g><path style="opacity:1" fill="#877822" d="M 463.5,921.5 C 459.629,921.185 455.962,921.518 452.5,922.5C 451.957,922.44 451.624,922.107 451.5,921.5C 455.649,920.191 459.649,920.191 463.5,921.5 Z"/></g>
<g><path style="opacity:1" fill="#efc109" d="M 463.5,921.5 C 478.685,927.952 494.018,934.119 509.5,940C 505.864,941.818 502.198,943.651 498.5,945.5C 497.614,946.325 497.281,947.325 497.5,948.5C 505.909,947.71 514.242,946.376 522.5,944.5C 528.076,944.983 533.409,946.316 538.5,948.5C 536.573,951.35 534.406,954.017 532,956.5C 530.589,958.65 529.755,960.984 529.5,963.5C 533.774,963.197 537.441,961.53 540.5,958.5C 539.928,964.243 538.262,969.909 535.5,975.5C 526.807,976.799 518.14,976.632 509.5,975C 500.867,972.244 500.201,968.078 507.5,962.5C 508.043,962.44 508.376,962.107 508.5,961.5C 504.217,960.508 499.884,960.174 495.5,960.5C 486.965,960.355 478.631,959.022 470.5,956.5C 470.338,954.473 470.505,952.473 471,950.5C 473.376,947.955 475.876,945.622 478.5,943.5C 466.796,940.118 458.13,933.118 452.5,922.5C 455.962,921.518 459.629,921.185 463.5,921.5 Z"/></g>
<g><path style="opacity:1" fill="#efc109" d="M 736.5,920.5 C 739.833,920.5 743.167,920.5 746.5,920.5C 745.008,925.643 742.342,930.143 738.5,934C 732.901,937.966 726.901,941.132 720.5,943.5C 732.074,951.464 731.074,956.631 717.5,959C 708.5,959.833 699.5,960.667 690.5,961.5C 694.701,964.221 696.368,967.888 695.5,972.5C 685.124,976.363 674.457,977.363 663.5,975.5C 660.734,969.898 659.068,964.232 658.5,958.5C 661.559,961.53 665.226,963.197 669.5,963.5C 667.791,957.776 664.791,952.776 660.5,948.5C 665.119,946.47 669.952,945.136 675,944.5C 683.759,946.419 692.592,947.752 701.5,948.5C 701.719,947.325 701.386,946.325 700.5,945.5C 697.285,943.726 693.952,942.226 690.5,941C 689.167,940.333 689.167,939.667 690.5,939C 706.261,933.61 721.594,927.443 736.5,920.5 Z"/></g>
<g><path style="opacity:1" fill="#f1c207" d="M 415.5,925.5 C 434.325,923.412 448.991,930.246 459.5,946C 454.759,953.932 455.926,960.765 463,966.5C 463.133,969.682 461.966,970.182 459.5,968C 453.212,961.857 446.212,956.691 438.5,952.5C 438.167,952.833 437.833,953.167 437.5,953.5C 442.737,961.74 448.737,969.407 455.5,976.5C 448.871,977.488 442.537,979.321 436.5,982C 439.309,983.122 442.309,983.622 445.5,983.5C 450.844,982.997 456.177,982.83 461.5,983C 469.348,990.681 477.015,998.514 484.5,1006.5C 479.283,1007.11 474.283,1008.44 469.5,1010.5C 471.547,1012.02 473.881,1012.85 476.5,1013C 481.833,1013.33 487.167,1013.67 492.5,1014C 493.687,1015.02 494.687,1016.19 495.5,1017.5C 478.966,1023.29 462.632,1022.79 446.5,1016C 444.833,1014.83 443.167,1013.67 441.5,1012.5C 444.419,1008.09 448.419,1004.93 453.5,1003C 437.63,1000.65 423.796,994.146 412,983.5C 412.195,981.255 413.362,979.422 415.5,978C 418.717,976.363 422.05,975.03 425.5,974C 409.797,962.734 403.797,947.567 407.5,928.5C 410.282,927.484 412.949,926.484 415.5,925.5 Z"/></g>
<g><path style="opacity:1" fill="#f1c207" d="M 765.5,925.5 C 771.176,925.334 776.843,925.501 782.5,926C 786.039,926.187 789.205,927.354 792,929.5C 795.016,948.794 788.516,963.961 772.5,975C 778.329,975.05 783.162,977.217 787,981.5C 787.667,982.167 787.667,982.833 787,983.5C 775.163,994.013 761.33,1000.51 745.5,1003C 750.581,1004.93 754.581,1008.09 757.5,1012.5C 744.299,1020.56 729.965,1023.39 714.5,1021C 710.597,1020.53 706.93,1019.37 703.5,1017.5C 704.313,1016.19 705.313,1015.02 706.5,1014C 713.135,1013.03 719.801,1012.36 726.5,1012C 727.624,1011.75 728.624,1011.25 729.5,1010.5C 724.537,1009.06 719.537,1007.73 714.5,1006.5C 721.985,998.514 729.652,990.681 737.5,983C 742.13,983.031 746.796,983.198 751.5,983.5C 755.349,983.632 759.016,983.132 762.5,982C 756.348,979.732 750.014,977.898 743.5,976.5C 769.091,947.591 766.924,945.258 737,969.5C 736.308,968.975 735.808,968.308 735.5,967.5C 736.528,965.639 738.028,964.305 740,963.5C 743.338,957.435 743.171,951.602 739.5,946C 746.003,936.32 754.67,929.487 765.5,925.5 Z"/></g>
<g><path style="opacity:1" fill="#f1c207" d="M 394.5,932.5 C 395.167,936.5 395.833,940.5 396.5,944.5C 396.724,949.397 397.891,954.064 400,958.5C 402.893,963.793 406.393,968.626 410.5,973C 409.333,975.5 407.5,977.333 405,978.5C 394.61,973.389 384.443,967.889 374.5,962C 371.678,959.344 369.345,956.344 367.5,953C 373.451,942.224 382.451,935.39 394.5,932.5 Z"/></g>
<g><path style="opacity:1" fill="#f0c208" d="M 804.5,932.5 C 816.841,934.997 825.841,941.83 831.5,953C 829.655,956.344 827.322,959.344 824.5,962C 814.323,967.517 804.157,973.017 794,978.5C 791.5,977.333 789.667,975.5 788.5,973C 792.117,968.272 795.617,963.439 799,958.5C 801.109,954.064 802.276,949.397 802.5,944.5C 803.167,940.5 803.833,936.5 804.5,932.5 Z"/></g>
<g><path style="opacity:1" fill="#585630" d="M 394.5,932.5 C 394.56,931.957 394.893,931.624 395.5,931.5C 396.492,935.783 396.826,940.116 396.5,944.5C 395.833,940.5 395.167,936.5 394.5,932.5 Z"/></g>
<g><path style="opacity:1" fill="#565530" d="M 804.5,932.5 C 803.833,936.5 803.167,940.5 802.5,944.5C 802.174,940.116 802.508,935.783 803.5,931.5C 804.107,931.624 804.44,931.957 804.5,932.5 Z"/></g>
<g><path style="opacity:1" fill="#f3c406" d="M 585.5,989.5 C 586.043,989.44 586.376,989.107 586.5,988.5C 584.027,987.203 581.693,987.203 579.5,988.5C 568.385,1017.58 553.051,1044.08 533.5,1068C 524.833,1068.67 516.167,1068.67 507.5,1068C 488.744,1063.98 478.077,1052.48 475.5,1033.5C 508.139,1032.68 530.972,1017.35 544,987.5C 548.7,975.9 551.867,963.9 553.5,951.5C 568.42,953.573 583.42,954.906 598.5,955.5C 614.238,954.899 629.905,953.566 645.5,951.5C 648.156,973.314 655.989,992.981 669,1010.5C 683.791,1025.98 701.958,1033.98 723.5,1034.5C 720.666,1053.61 709.666,1064.77 690.5,1068C 682.167,1068.67 673.833,1068.67 665.5,1068C 645.671,1043.85 630.337,1017.02 619.5,987.5C 617.5,987.5 615.5,987.5 613.5,987.5C 620.975,1016.45 632.308,1043.78 647.5,1069.5C 637.217,1079.12 625.217,1081.95 611.5,1078C 607.667,1074.67 603.667,1071.5 599.5,1068.5C 595.702,1070.8 592.369,1073.63 589.5,1077C 575.742,1081.95 563.242,1079.78 552,1070.5C 565.955,1044.84 577.121,1017.84 585.5,989.5 Z"/></g>
<g><path style="opacity:1" fill="#58572e" d="M 495.5,960.5 C 499.884,960.174 504.217,960.508 508.5,961.5C 508.376,962.107 508.043,962.44 507.5,962.5C 503.5,961.833 499.5,961.167 495.5,960.5 Z"/></g>
<g><path style="opacity:1" fill="#ecbf0b" d="M 470.5,969.5 C 476.815,970.313 483.148,970.979 489.5,971.5C 488.004,980.689 491.67,986.522 500.5,989C 500.915,993.375 499.415,997.208 496,1000.5C 487.333,992.5 478.667,984.5 470,976.5C 469.297,974.071 469.463,971.738 470.5,969.5 Z"/></g>
<g><path style="opacity:1" fill="#ecbf0b" d="M 709.5,970.5 C 716.167,970.5 722.833,970.5 729.5,970.5C 729.662,972.527 729.495,974.527 729,976.5C 720.333,984.5 711.667,992.5 703,1000.5C 700.005,997.013 698.172,993.013 697.5,988.5C 702.673,988.332 706.506,985.998 709,981.5C 709.499,977.848 709.665,974.182 709.5,970.5 Z"/></g>
<g><path style="opacity:1" fill="#f2c306" d="M 369.5,971.5 C 385.813,980.322 401.48,990.156 416.5,1001C 395.537,1031.84 367.203,1053 331.5,1064.5C 327.997,1061.89 325.164,1058.55 323,1054.5C 310.191,1040.93 294.525,1032.59 276,1029.5C 275.223,1026.57 275.39,1023.74 276.5,1021C 311.648,1011.77 342.648,995.266 369.5,971.5 Z"/></g>
<g><path style="opacity:1" fill="#f3c306" d="M 827.5,971.5 C 855.487,994.665 887.154,1011.33 922.5,1021.5C 923.48,1024.09 923.813,1026.75 923.5,1029.5C 899.956,1033.59 881.289,1045.26 867.5,1064.5C 831.797,1053 803.463,1031.84 782.5,1001C 797.194,990.656 812.194,980.823 827.5,971.5 Z"/></g>
<g><path style="opacity:1" fill="#6b642a" d="M 579.5,988.5 C 581.693,987.203 584.027,987.203 586.5,988.5C 586.376,989.107 586.043,989.44 585.5,989.5C 583.735,988.539 581.735,988.205 579.5,988.5 Z"/></g>
<g><path style="opacity:1" fill="#ecbf09" d="M 504.5,989.5 C 512.528,989.169 520.528,989.502 528.5,990.5C 522.519,998.315 515.685,1005.31 508,1011.5C 506.333,1009.83 504.667,1008.17 503,1006.5C 502.838,1000.79 503.338,995.127 504.5,989.5 Z"/></g>
<g><path style="opacity:1" fill="#ebbe0a" d="M 670.5,989.5 C 678.5,989.5 686.5,989.5 694.5,989.5C 695.662,995.127 696.162,1000.79 696,1006.5C 694.333,1008.17 692.667,1009.83 691,1011.5C 682.894,1005.23 676.061,997.899 670.5,989.5 Z"/></g>
<g><path style="opacity:1" fill="#1c2b3d" d="M 337.5,1013.5 C 338.822,1013.33 339.989,1013.66 341,1014.5C 344.71,1020.09 348.543,1025.59 352.5,1031C 350.167,1032.5 347.833,1034 345.5,1035.5C 339.635,1029.8 334.302,1023.63 329.5,1017C 332.309,1015.91 334.976,1014.74 337.5,1013.5 Z"/></g>
<g><path style="opacity:1" fill="#1b2b3d" d="M 858.5,1013.5 C 862.207,1014.51 865.873,1015.68 869.5,1017C 864.698,1023.63 859.365,1029.8 853.5,1035.5C 851.167,1034 848.833,1032.5 846.5,1031C 850.633,1025.22 854.633,1019.39 858.5,1013.5 Z"/></g>
<g><path style="opacity:1" fill="#1e2c3d" d="M 314.5,1021.5 C 316.39,1021.3 317.89,1021.96 319,1023.5C 324.667,1030.5 330.333,1037.5 336,1044.5C 336.265,1046.16 335.765,1047.66 334.5,1049C 333.833,1049.67 333.167,1049.67 332.5,1049C 324.635,1041.47 317.135,1033.64 310,1025.5C 309.383,1024.55 309.549,1023.72 310.5,1023C 312.058,1022.79 313.391,1022.29 314.5,1021.5 Z"/></g>
<g><path style="opacity:1" fill="#1d2c3d" d="M 880.5,1022.5 C 883.187,1022.34 885.854,1022.5 888.5,1023C 889.451,1023.72 889.617,1024.55 889,1025.5C 881.846,1033.62 874.346,1041.45 866.5,1049C 865.833,1049.67 865.167,1049.67 864.5,1049C 863.235,1047.66 862.735,1046.16 863,1044.5C 869.047,1037.29 874.88,1029.96 880.5,1022.5 Z"/></g>
<g><path style="opacity:1" fill="#f3c406" d="M 396.5,1040.5 C 397.494,1050.99 397.828,1061.65 397.5,1072.5C 381.658,1072.83 365.991,1072.5 350.5,1071.5C 367.454,1063.54 382.787,1053.21 396.5,1040.5 Z"/></g>
<g><path style="opacity:1" fill="#f3c406" d="M 802.5,1040.5 C 816.213,1053.21 831.546,1063.54 848.5,1071.5C 833.009,1072.5 817.342,1072.83 801.5,1072.5C 801.172,1061.65 801.506,1050.99 802.5,1040.5 Z"/></g>
<g><path style="opacity:1" fill="#4b4e30" d="M 396.5,1040.5 C 396.56,1039.96 396.893,1039.62 397.5,1039.5C 398.824,1050.99 398.824,1062.33 397.5,1073.5C 397.5,1073.17 397.5,1072.83 397.5,1072.5C 397.828,1061.65 397.494,1050.99 396.5,1040.5 Z"/></g>
<g><path style="opacity:1" fill="#474c32" d="M 802.5,1040.5 C 801.506,1050.99 801.172,1061.65 801.5,1072.5C 801.5,1072.83 801.5,1073.17 801.5,1073.5C 800.176,1062.33 800.176,1050.99 801.5,1039.5C 802.107,1039.62 802.44,1039.96 802.5,1040.5 Z"/></g>
<g><path style="opacity:1" fill="#ac9219" d="M 350.5,1071.5 C 365.991,1072.5 381.658,1072.83 397.5,1072.5C 397.5,1072.83 397.5,1073.17 397.5,1073.5C 381.163,1073.67 364.83,1073.5 348.5,1073C 349.044,1072.28 349.711,1071.78 350.5,1071.5 Z"/></g>
<g><path style="opacity:1" fill="#8e7d1f" d="M 848.5,1071.5 C 849.043,1071.56 849.376,1071.89 849.5,1072.5C 833.514,1073.5 817.514,1073.83 801.5,1073.5C 801.5,1073.17 801.5,1072.83 801.5,1072.5C 817.342,1072.83 833.009,1072.5 848.5,1071.5 Z"/></g>
</svg>
