<?xml version="1.0" encoding="UTF-8"?>
<svg version="1.1" xmlns="http://www.w3.org/2000/svg" width="30" height="30">
<path d="M0 0 C1.0725 0.01417969 2.145 0.02835937 3.25 0.04296875 C4.3225 0.04941406 5.395 0.05585937 6.5 0.0625 C9.25 0.23046875 9.25 0.23046875 11.25 1.23046875 C10.940625 2.56078125 10.940625 2.56078125 10.625 3.91796875 C10.21008444 7.5830562 10.87062043 8.9037298 12.25 12.23046875 C12.92315995 18.17671498 11.44356531 22.31729136 8.25 27.23046875 C6.76171875 28.95703125 6.76171875 28.95703125 5.25 30.23046875 C2.875 30.35546875 2.875 30.35546875 0.25 29.23046875 C-4.5885116 23.93243371 -6.00237829 19.42325001 -5.75 12.23046875 C-5.42619874 10.89478854 -5.09342449 9.56123864 -4.75 8.23046875 C-4.770625 7.19921875 -4.79125 6.16796875 -4.8125 5.10546875 C-4.72720365 1.18183662 -3.907477 0.32747321 0 0 Z " fill="#F7F0D5" transform="translate(11.75,-0.23046875)"/>
<path d="M0 0 C1.00051772 2.63940258 1.07069298 3.79276303 0.14453125 6.5078125 C-0.29503906 7.37148438 -0.73460937 8.23515625 -1.1875 9.125 C-1.61417969 9.99382813 -2.04085938 10.86265625 -2.48046875 11.7578125 C-4.12574263 14.1855431 -5.29588661 14.9693101 -8 16 C-12 11.375 -12 11.375 -12 8 C-11.34 7.67 -10.68 7.34 -10 7 C-10 6.34 -10 5.68 -10 5 C-10.66 4.34 -11.32 3.68 -12 3 C-11.67 2.34 -11.34 1.68 -11 1 C-7.66666667 1 -4.33333333 1 -1 1 C-0.67 0.67 -0.34 0.34 0 0 Z " fill="#3E3623" transform="translate(22,13)"/>
<path d="M0 0 C1.32 0 2.64 0 4 0 C4.33 0.33 4.66 0.66 5 1 C6.32 1 7.64 1 9 1 C9 4.63 9 8.26 9 12 C4.38 12 -0.24 12 -5 12 C-4 7 -4 7 -2 5 C-2.99 4.01 -3.98 3.02 -5 2 C-4.01 2 -3.02 2 -2 2 C-1.67 2.33 -1.34 2.66 -1 3 C-0.67 2.01 -0.34 1.02 0 0 Z " fill="#33A3A5" transform="translate(13,1)"/>
<path d="M0 0 C1.0725 0.01417969 2.145 0.02835937 3.25 0.04296875 C4.3225 0.04941406 5.395 0.05585937 6.5 0.0625 C9.25 0.23046875 9.25 0.23046875 11.25 1.23046875 C10.92 2.88046875 10.59 4.53046875 10.25 6.23046875 C9.92 5.57046875 9.59 4.91046875 9.25 4.23046875 C9.58 3.57046875 9.91 2.91046875 10.25 2.23046875 C8.93 2.23046875 7.61 2.23046875 6.25 2.23046875 C6.25 2.89046875 6.25 3.55046875 6.25 4.23046875 C5.26 3.90046875 4.27 3.57046875 3.25 3.23046875 C3.91 3.23046875 4.57 3.23046875 5.25 3.23046875 C5.25 2.57046875 5.25 1.91046875 5.25 1.23046875 C3.93 1.23046875 2.61 1.23046875 1.25 1.23046875 C0.92 2.55046875 0.59 3.87046875 0.25 5.23046875 C-0.74 4.57046875 -1.73 3.91046875 -2.75 3.23046875 C-0.71731398 5.39389886 -0.71731398 5.39389886 2.25 7.23046875 C0.6 7.56046875 -1.05 7.89046875 -2.75 8.23046875 C-3.50241109 11.8850369 -4.15049704 15.54780772 -4.75 19.23046875 C-5.08 19.23046875 -5.41 19.23046875 -5.75 19.23046875 C-5.82482036 15.33980982 -5.71813743 11.9820013 -4.75 8.23046875 C-4.770625 7.19921875 -4.79125 6.16796875 -4.8125 5.10546875 C-4.72720365 1.18183662 -3.907477 0.32747321 0 0 Z " fill="#ECEFE9" transform="translate(11.75,-0.23046875)"/>
<path d="M0 0 C2.31 0 4.62 0 7 0 C6.814375 0.721875 6.62875 1.44375 6.4375 2.1875 C5.98004693 5.12826973 6.26483643 7.14103058 7 10 C6.01 10.495 6.01 10.495 5 11 C5 10.01 5 9.02 5 8 C4.34 8 3.68 8 3 8 C3 8.66 3 9.32 3 10 C2.34 9.67 1.68 9.34 1 9 C1.33 8.34 1.66 7.68 2 7 C2.66 7 3.32 7 4 7 C4 6.34 4 5.68 4 5 C1.525 4.01 1.525 4.01 -1 3 C-0.67 2.01 -0.34 1.02 0 0 Z " fill="#D7B63F" transform="translate(11,14)"/>
<path d="M0 0 C0.99 0 1.98 0 3 0 C3 0.66 3 1.32 3 2 C3.66 2 4.32 2 5 2 C5 1.34 5 0.68 5 0 C5.99 0 6.98 0 8 0 C8 1.32 8 2.64 8 4 C5.36 4 2.72 4 0 4 C0 2.68 0 1.36 0 0 Z " fill="#643639" transform="translate(11,9)"/>
<path d="M0 0 C1.32 0 2.64 0 4 0 C4 1.98 4 3.96 4 6 C1.03 5.505 1.03 5.505 -2 5 C-2.33 4.01 -2.66 3.02 -3 2 C-2.01 2 -1.02 2 0 2 C0 1.34 0 0.68 0 0 Z " fill="#9ABFA8" transform="translate(18,2)"/>
<path d="M0 0 C0.625 1.8125 0.625 1.8125 1 4 C0.01 5.485 0.01 5.485 -1 7 C-2.65 6.67 -4.3 6.34 -6 6 C-4 4 -2 2 0 0 Z " fill="#504422" transform="translate(22,13)"/>
<path d="M0 0 C1.32 0.33 2.64 0.66 4 1 C4.33 2.65 4.66 4.3 5 6 C3.68 6.33 2.36 6.66 1 7 C0.67 4.69 0.34 2.38 0 0 Z " fill="#FAF8F2" transform="translate(8,14)"/>
<path d="M0 0 C0.99 0.66 1.98 1.32 3 2 C2.67 3.65 2.34 5.3 2 7 C1.67 6.01 1.34 5.02 1 4 C0.34 4 -0.32 4 -1 4 C-1 4.66 -1 5.32 -1 6 C-1.66 5.67 -2.32 5.34 -3 5 C-2.67 4.34 -2.34 3.68 -2 3 C-1.34 3 -0.68 3 0 3 C0 2.01 0 1.02 0 0 Z " fill="#B28E0F" transform="translate(15,18)"/>
</svg>
