<?xml version="1.0" encoding="UTF-8"?>
<!DOCTYPE svg PUBLIC "-//W3C//DTD SVG 1.1//EN" "http://www.w3.org/Graphics/SVG/1.1/DTD/svg11.dtd">
<svg xmlns="http://www.w3.org/2000/svg" version="1.1" width="225px" height="225px" style="shape-rendering:geometricPrecision; text-rendering:geometricPrecision; image-rendering:optimizeQuality; fill-rule:evenodd; clip-rule:evenodd" xmlns:xlink="http://www.w3.org/1999/xlink">
<g><path style="opacity:1" fill="#fefefe" d="M -0.5,-0.5 C 74.5,-0.5 149.5,-0.5 224.5,-0.5C 224.5,74.5 224.5,149.5 224.5,224.5C 149.5,224.5 74.5,224.5 -0.5,224.5C -0.5,149.5 -0.5,74.5 -0.5,-0.5 Z"/></g>
<g><path style="opacity:1" fill="#0d6e2c" d="M 122.5,13.5 C 124.312,15.4605 125.312,17.7939 125.5,20.5C 125.5,20.8333 125.5,21.1667 125.5,21.5C 124.549,22.9187 124.216,24.5853 124.5,26.5C 122.167,26.5 119.833,26.5 117.5,26.5C 117.784,24.5853 117.451,22.9187 116.5,21.5C 115.833,21.5 115.5,21.1667 115.5,20.5C 113.034,19.3659 110.367,19.1993 107.5,20C 106.748,20.6708 106.414,21.5041 106.5,22.5C 105.254,25.2933 105.587,27.96 107.5,30.5C 107.5,30.8333 107.5,31.1667 107.5,31.5C 107.42,34.7814 108.087,37.7814 109.5,40.5C 110.488,41.795 111.488,43.1283 112.5,44.5C 113.189,45.7736 114.023,45.7736 115,44.5C 116.128,42.6547 116.628,40.6547 116.5,38.5C 118.167,38.5 119.833,38.5 121.5,38.5C 121.5,40.5 121.5,42.5 121.5,44.5C 121.33,47.204 119.997,48.8707 117.5,49.5C 114.167,49.5 110.833,49.5 107.5,49.5C 104.745,48.0388 102.912,45.7054 102,42.5C 99.491,33.6322 98.1577,24.6322 98,15.5C 99.214,13.9512 100.714,12.7845 102.5,12C 108.5,11.3333 114.5,11.3333 120.5,12C 121.416,12.2784 122.082,12.7784 122.5,13.5 Z"/></g>
<g><path style="opacity:1" fill="#1e271e" d="M 84.5,23.5 C 86.315,21.5315 86.815,19.1982 86,16.5C 84.3005,17.4061 82.4672,17.7394 80.5,17.5C 82.5145,16.0762 84.8478,15.4095 87.5,15.5C 87.8511,17.8695 88.0178,20.2028 88,22.5C 86.9887,23.3366 85.8221,23.67 84.5,23.5 Z"/></g>
<g><path style="opacity:1" fill="#15652b" d="M 143.5,33.5 C 145.239,36.2427 147.573,38.2427 150.5,39.5C 151.552,39.3505 152.552,39.5172 153.5,40C 150.789,43.6528 147.789,44.1528 144.5,41.5C 142.617,38.4488 140.45,38.1155 138,40.5C 136.991,42.0249 136.491,43.6916 136.5,45.5C 135.294,52.739 132.627,53.4057 128.5,47.5C 131.826,36.6821 135.826,26.1821 140.5,16C 146.62,17.1326 152.454,19.2992 158,22.5C 159.93,27.0439 159.43,31.3772 156.5,35.5C 151.923,34.6558 149.423,31.9891 149,27.5C 147.667,26.1667 146.333,26.1667 145,27.5C 143.872,29.3453 143.372,31.3453 143.5,33.5 Z"/></g>
<g><path style="opacity:1" fill="#156b2d" d="M 84.5,23.5 C 81.2605,25.1361 78.2605,27.1361 75.5,29.5C 78.9799,31.879 82.6466,33.879 86.5,35.5C 88.1815,37.0075 90.1815,38.0075 92.5,38.5C 93.8333,38.5 94.5,39.1667 94.5,40.5C 94.8504,43.4534 93.8504,45.7867 91.5,47.5C 88.8291,49.1181 85.8291,49.7847 82.5,49.5C 79.4281,49.8174 76.4281,49.4841 73.5,48.5C 77.6271,47.489 81.6271,46.489 85.5,45.5C 86.7734,42.7287 85.7734,41.062 82.5,40.5C 78.3873,38.7175 74.054,37.3841 69.5,36.5C 65.3779,34.9232 63.8779,31.9232 65,27.5C 68.7484,22.0382 73.9151,18.7049 80.5,17.5C 82.4672,17.7394 84.3005,17.4061 86,16.5C 86.815,19.1982 86.315,21.5315 84.5,23.5 Z"/></g>
<g><path style="opacity:1" fill="#111111" d="M 115.5,20.5 C 112.162,20.0653 109.162,20.7319 106.5,22.5C 106.414,21.5041 106.748,20.6708 107.5,20C 110.367,19.1993 113.034,19.3659 115.5,20.5 Z"/></g>
<g><path style="opacity:1" fill="#403e40" d="M 122.5,13.5 C 124.411,13.5743 125.578,14.5743 126,16.5C 126.765,18.0657 126.598,19.3991 125.5,20.5C 125.312,17.7939 124.312,15.4605 122.5,13.5 Z"/></g>
<g><path style="opacity:1" fill="#0e190e" d="M 106.5,22.5 C 106.833,25.1667 107.167,27.8333 107.5,30.5C 105.587,27.96 105.254,25.2933 106.5,22.5 Z"/></g>
<g><path style="opacity:1" fill="#4a4a4a" d="M 116.5,21.5 C 117.451,22.9187 117.784,24.5853 117.5,26.5C 119.833,26.5 122.167,26.5 124.5,26.5C 124.216,24.5853 124.549,22.9187 125.5,21.5C 125.5,23.8333 125.5,26.1667 125.5,28.5C 122.482,28.2962 119.482,27.9629 116.5,27.5C 116.5,25.5 116.5,23.5 116.5,21.5 Z"/></g>
<g><path style="opacity:1" fill="#1c1d1b" d="M 107.5,31.5 C 108.913,34.2186 109.58,37.2186 109.5,40.5C 108.087,37.7814 107.42,34.7814 107.5,31.5 Z"/></g>
<g><path style="opacity:1" fill="#191e18" d="M 86.5,35.5 C 89.089,35.461 91.089,36.461 92.5,38.5C 90.1815,38.0075 88.1815,37.0075 86.5,35.5 Z"/></g>
<g><path style="opacity:1" fill="#242f25" d="M 69.5,36.5 C 74.054,37.3841 78.3873,38.7175 82.5,40.5C 77.7363,40.2311 73.403,38.8978 69.5,36.5 Z"/></g>
<g><path style="opacity:1" fill="#111510" d="M 143.5,33.5 C 146.427,34.7573 148.761,36.7573 150.5,39.5C 147.573,38.2427 145.239,36.2427 143.5,33.5 Z"/></g>
<g><path style="opacity:1" fill="#131912" d="M 121.5,44.5 C 121.5,42.5 121.5,40.5 121.5,38.5C 119.833,38.5 118.167,38.5 116.5,38.5C 116.628,40.6547 116.128,42.6547 115,44.5C 114.023,45.7736 113.189,45.7736 112.5,44.5C 114.834,42.8243 115.834,40.491 115.5,37.5C 118.167,37.5 120.833,37.5 123.5,37.5C 123.279,40.0673 122.612,42.4006 121.5,44.5 Z"/></g>
<g><path style="opacity:1" fill="#232923" d="M 144.5,41.5 C 142.863,40.7822 141.197,40.6155 139.5,41C 138.601,42.6516 137.601,44.1516 136.5,45.5C 136.491,43.6916 136.991,42.0249 138,40.5C 140.45,38.1155 142.617,38.4488 144.5,41.5 Z"/></g>
<g><path style="opacity:1" fill="#0f150d" d="M 94.5,40.5 C 96.3302,43.978 95.3302,46.3114 91.5,47.5C 93.8504,45.7867 94.8504,43.4534 94.5,40.5 Z"/></g>
<g><path style="opacity:1" fill="#0f170f" d="M 85.5,45.5 C 81.6271,46.489 77.6271,47.489 73.5,48.5C 76.4281,49.4841 79.4281,49.8174 82.5,49.5C 79.3752,50.4794 76.0419,50.8128 72.5,50.5C 72.67,49.1779 72.3366,48.0113 71.5,47C 76.118,46.006 80.7847,45.506 85.5,45.5 Z"/></g>
<g><path style="opacity:1" fill="#213615" d="M 107.5,49.5 C 110.833,49.5 114.167,49.5 117.5,49.5C 116.833,50.1667 116.167,50.8333 115.5,51.5C 114.833,51.5 114.167,51.5 113.5,51.5C 112.5,51.5 111.5,51.5 110.5,51.5C 109.833,51.5 109.167,51.5 108.5,51.5C 108.167,50.8333 107.833,50.1667 107.5,49.5 Z"/></g>
<g><path style="opacity:1" fill="#f1bb15" d="M 108.5,51.5 C 109.167,51.5 109.833,51.5 110.5,51.5C 107.755,54.0376 104.422,55.5376 100.5,56C 94.7963,56.4559 89.1296,56.4559 83.5,56C 77.8569,59.9789 72.5236,64.3122 67.5,69C 72.7511,79.5861 70.7511,88.5861 61.5,96C 68.8258,96.4997 76.1591,96.6663 83.5,96.5C 83.8333,96.5 84.1667,96.5 84.5,96.5C 85.5,96.5 86.5,96.5 87.5,96.5C 87.8333,96.5 88.1667,96.5 88.5,96.5C 91.8333,96.5 95.1667,96.5 98.5,96.5C 98.8333,96.5 99.1667,96.5 99.5,96.5C 101.833,96.5 104.167,96.5 106.5,96.5C 107.167,96.5 107.833,96.5 108.5,96.5C 110.833,96.5 113.167,96.5 115.5,96.5C 115.833,96.5 116.167,96.5 116.5,96.5C 117.833,96.5 119.167,96.5 120.5,96.5C 120.833,96.5 121.167,96.5 121.5,96.5C 124.167,96.5 126.833,96.5 129.5,96.5C 129.833,96.5 130.167,96.5 130.5,96.5C 132.167,96.5 133.833,96.5 135.5,96.5C 135.833,96.5 136.167,96.5 136.5,96.5C 137.5,96.5 138.5,96.5 139.5,96.5C 139.833,96.5 140.167,96.5 140.5,96.5C 147.841,96.6663 155.174,96.4997 162.5,96C 153.249,88.5861 151.249,79.5861 156.5,69C 151.476,64.3122 146.143,59.9789 140.5,56C 134.195,56.4245 127.862,56.4245 121.5,56C 118.316,55.2458 115.649,53.7458 113.5,51.5C 114.167,51.5 114.833,51.5 115.5,51.5C 123.188,55.037 131.022,55.3704 139,52.5C 145.924,57.7126 152.757,63.0459 159.5,68.5C 154.875,74.8396 154.375,81.5063 158,88.5C 161.035,91.8702 164.368,94.8702 168,97.5C 167.226,144.712 148.559,183.046 112,212.5C 75.4486,183.06 56.7819,144.727 56,97.5C 61.4662,94.038 65.4662,89.3713 68,83.5C 69.1074,77.8217 67.9408,72.6551 64.5,68C 71.0112,63.5774 77.3446,58.9108 83.5,54C 89.7953,54.4838 96.1286,54.4838 102.5,54C 104.641,53.4275 106.641,52.5942 108.5,51.5 Z"/></g>
<g><path style="opacity:1" fill="#624b04" d="M 116.5,138.5 C 117.774,137.811 117.774,136.977 116.5,136C 117.725,135.437 118.725,135.77 119.5,137C 119.018,138.008 118.852,139.175 119,140.5C 118.005,139.934 117.172,139.267 116.5,138.5 Z"/></g>
<g><path style="opacity:1" fill="#967406" d="M 116.5,138.5 C 115.069,138.881 114.236,139.881 114,141.5C 112.15,138.537 112.15,135.537 114,132.5C 114.236,134.845 115.07,136.845 116.5,138.5 Z"/></g>
<g><path style="opacity:1" fill="#8b8479" d="M 80.5,126.5 C 84.4126,126.187 88.0793,126.853 91.5,128.5C 91.5,129.167 91.5,129.833 91.5,130.5C 88.0467,128.393 84.38,127.06 80.5,126.5 Z"/></g>
<g><path style="opacity:1" fill="#ecb800" d="M 103.5,119.5 C 102.602,120.158 101.602,120.824 100.5,121.5C 100.624,122.107 100.957,122.44 101.5,122.5C 102.779,124.765 102.279,126.765 100,128.5C 97.2033,128.76 94.3699,128.76 91.5,128.5C 88.0793,126.853 84.4126,126.187 80.5,126.5C 79.1667,124.167 79.1667,121.833 80.5,119.5C 83.1085,119.4 85.4418,120.067 87.5,121.5C 90.1709,123.118 93.1709,123.785 96.5,123.5C 96.7373,122.209 96.404,121.209 95.5,120.5C 95.0472,119.542 94.3805,118.708 93.5,118C 94.4506,117.282 94.6172,116.449 94,115.5C 91.4274,114.346 89.2608,112.68 87.5,110.5C 88.2458,109.264 88.5792,107.93 88.5,106.5C 90.3307,107.052 91.9974,107.052 93.5,106.5C 95.7558,110.083 97.9225,113.75 100,117.5C 101.113,118.305 102.279,118.972 103.5,119.5 Z"/></g>
<g><path style="opacity:1" fill="#8a8173" d="M 80.5,119.5 C 79.1667,121.833 79.1667,124.167 80.5,126.5C 76.6829,124.376 76.6829,122.042 80.5,119.5 Z"/></g>
<g><path style="opacity:1" fill="#74644d" d="M 95.5,120.5 C 96.404,121.209 96.7373,122.209 96.5,123.5C 93.1709,123.785 90.1709,123.118 87.5,121.5C 89.5466,121.511 91.5466,121.844 93.5,122.5C 94.7133,122.253 95.38,121.586 95.5,120.5 Z"/></g>
<g><path style="opacity:1" fill="#d4a400" d="M 123.5,116.5 C 121.99,117.728 120.49,117.728 119,116.5C 118.768,117.737 118.268,118.737 117.5,119.5C 116.175,120.953 115.342,120.619 115,118.5C 113.933,119.191 112.766,119.691 111.5,120C 112.167,120.333 112.833,120.667 113.5,121C 112.748,121.671 112.414,122.504 112.5,123.5C 112.389,124.117 112.056,124.617 111.5,125C 115.73,126.246 119.064,125.08 121.5,121.5C 120.833,121.167 120.167,120.833 119.5,120.5C 120.325,119.614 121.325,119.281 122.5,119.5C 122.351,120.552 122.517,121.552 123,122.5C 124.008,122.018 125.175,121.852 126.5,122C 128.101,118.733 128.934,115.233 129,111.5C 129.232,112.737 129.732,113.737 130.5,114.5C 129.833,117.167 129.167,119.833 128.5,122.5C 127.89,123.391 127.557,124.391 127.5,125.5C 125.926,126.984 124.593,128.651 123.5,130.5C 123.992,126.71 123.159,126.044 121,128.5C 119.84,126.203 118.84,126.536 118,129.5C 116.513,128.747 116.346,127.914 117.5,127C 116.101,126.405 114.768,126.572 113.5,127.5C 111.393,126.363 109.227,125.363 107,124.5C 106.448,125.986 104.948,127.152 102.5,128C 104.035,128.496 105.535,128.33 107,127.5C 107.5,127.833 108,128.167 108.5,128.5C 107.5,129.333 106.5,130.167 105.5,131C 107.557,131.305 109.557,131.305 111.5,131C 107.732,132.503 104.065,133.337 100.5,133.5C 97.8152,131.741 94.8152,130.741 91.5,130.5C 91.5,129.833 91.5,129.167 91.5,128.5C 94.3699,128.76 97.2033,128.76 100,128.5C 102.279,126.765 102.779,124.765 101.5,122.5C 103.219,121.978 104.552,120.978 105.5,119.5C 107.827,119.753 109.827,119.086 111.5,117.5C 109.345,116.999 107.678,115.999 106.5,114.5C 108.512,113.986 110.512,113.82 112.5,114C 110.068,115.087 110.402,115.587 113.5,115.5C 113.5,114.5 113.5,113.5 113.5,112.5C 115.43,111.964 117.597,111.964 120,112.5C 120.5,111.333 121.333,110.5 122.5,110C 122.167,109.667 121.833,109.333 121.5,109C 124.544,108.641 124.878,107.974 122.5,107C 125.167,106.333 125.167,105.667 122.5,105C 125.667,104.167 126.833,105.333 126,108.5C 123.03,110.574 122.196,113.241 123.5,116.5 Z"/></g>
<g><path style="opacity:1" fill="#7e6103" d="M 117.5,119.5 C 116.493,121.522 114.826,122.855 112.5,123.5C 112.414,122.504 112.748,121.671 113.5,121C 112.833,120.667 112.167,120.333 111.5,120C 112.766,119.691 113.933,119.191 115,118.5C 115.342,120.619 116.175,120.953 117.5,119.5 Z"/></g>
<g><path style="opacity:1" fill="#efba00" d="M 130.5,114.5 C 129.732,113.737 129.232,112.737 129,111.5C 128.934,115.233 128.101,118.733 126.5,122C 125.175,121.852 124.008,122.018 123,122.5C 122.517,121.552 122.351,120.552 122.5,119.5C 121.325,119.281 120.325,119.614 119.5,120.5C 120.167,120.833 120.833,121.167 121.5,121.5C 119.064,125.08 115.73,126.246 111.5,125C 112.056,124.617 112.389,124.117 112.5,123.5C 114.826,122.855 116.493,121.522 117.5,119.5C 118.268,118.737 118.768,117.737 119,116.5C 120.49,117.728 121.99,117.728 123.5,116.5C 122.196,113.241 123.03,110.574 126,108.5C 126.833,105.333 125.667,104.167 122.5,105C 125.167,105.667 125.167,106.333 122.5,107C 124.878,107.974 124.544,108.641 121.5,109C 121.833,109.333 122.167,109.667 122.5,110C 121.333,110.5 120.5,111.333 120,112.5C 117.597,111.964 115.43,111.964 113.5,112.5C 111.283,111.631 108.95,111.298 106.5,111.5C 105.962,109.883 105.629,108.216 105.5,106.5C 112.08,104.727 118.747,103.561 125.5,103C 127.798,104.086 129.798,105.586 131.5,107.5C 130.975,108.192 130.308,108.692 129.5,109C 130.406,110.699 130.739,112.533 130.5,114.5 Z"/></g>
<g><path style="opacity:1" fill="#030200" d="M 123.5,130.5 C 124.593,128.651 125.926,126.984 127.5,125.5C 140.564,117.215 153.397,108.548 166,99.5C 164.321,144.523 146.321,181.523 112,210.5C 96.066,196.953 83.2326,180.953 73.5,162.5C 82.9714,156.195 92.3047,149.695 101.5,143C 106.291,142.448 110.624,143.614 114.5,146.5C 114.167,147.167 113.833,147.833 113.5,148.5C 110.215,149.324 106.882,149.824 103.5,150C 101.185,151.109 99.6853,152.943 99,155.5C 99.1433,158.163 99.6433,160.829 100.5,163.5C 100.423,165.299 99.923,166.966 99,168.5C 96.2595,169.282 93.4262,169.782 90.5,170C 89.6433,170.689 88.9767,171.522 88.5,172.5C 91.3172,175.204 94.6505,176.038 98.5,175C 100,172.167 102.167,170 105,168.5C 105.939,165.879 106.772,163.212 107.5,160.5C 109.942,160.718 112.442,160.718 115,160.5C 118.827,162.932 122.66,165.265 126.5,167.5C 125.365,169.799 124.032,171.966 122.5,174C 120.112,174.303 117.945,175.137 116,176.5C 115.517,177.448 115.351,178.448 115.5,179.5C 117.143,179.48 118.476,180.147 119.5,181.5C 121.135,180.67 122.802,180.503 124.5,181C 125.255,178.825 126.088,176.659 127,174.5C 130.495,172.378 132.162,169.378 132,165.5C 130.283,164.012 129.116,162.179 128.5,160C 129.833,158.333 129.833,156.667 128.5,155C 134.007,152.182 136.174,147.682 135,141.5C 133.68,137.698 132.513,133.865 131.5,130C 130.932,126.737 132.266,125.237 135.5,125.5C 135.316,128.321 136.649,129.988 139.5,130.5C 140.562,129.23 141.562,128.063 142.5,127C 138.481,122.567 134.315,122.401 130,126.5C 129.219,127.729 128.719,129.062 128.5,130.5C 130.037,134.443 131.37,138.443 132.5,142.5C 132.761,144.985 131.761,146.652 129.5,147.5C 127.424,143.917 124.758,140.75 121.5,138C 123.891,137.309 123.891,136.309 121.5,135C 123.107,133.951 123.773,132.451 123.5,130.5 Z"/></g>
<g><path style="opacity:1" fill="#f9f8f6" d="M 128.5,122.5 C 129.167,119.833 129.833,117.167 130.5,114.5C 130.739,112.533 130.406,110.699 129.5,109C 130.308,108.692 130.975,108.192 131.5,107.5C 129.798,105.586 127.798,104.086 125.5,103C 118.747,103.561 112.08,104.727 105.5,106.5C 105.629,108.216 105.962,109.883 106.5,111.5C 104.708,112.309 102.708,112.809 100.5,113C 102.25,114.319 104.25,114.819 106.5,114.5C 107.678,115.999 109.345,116.999 111.5,117.5C 109.827,119.086 107.827,119.753 105.5,119.5C 104.833,119.5 104.167,119.5 103.5,119.5C 102.279,118.972 101.113,118.305 100,117.5C 97.9225,113.75 95.7558,110.083 93.5,106.5C 91.9974,107.052 90.3307,107.052 88.5,106.5C 88.5792,107.93 88.2458,109.264 87.5,110.5C 89.2608,112.68 91.4274,114.346 94,115.5C 94.6172,116.449 94.4506,117.282 93.5,118C 94.3805,118.708 95.0472,119.542 95.5,120.5C 95.38,121.586 94.7133,122.253 93.5,122.5C 91.5466,121.844 89.5466,121.511 87.5,121.5C 85.4418,120.067 83.1085,119.4 80.5,119.5C 76.6829,122.042 76.6829,124.376 80.5,126.5C 84.38,127.06 88.0467,128.393 91.5,130.5C 94.8152,130.741 97.8152,131.741 100.5,133.5C 100.415,135.929 99.415,137.929 97.5,139.5C 100.797,140.142 101.131,141.309 98.5,143C 89.5809,148.709 80.7476,154.542 72,160.5C 62.4418,140.934 57.6085,120.268 57.5,98.5C 92.8349,98.3333 128.168,98.5 163.5,99C 151.805,106.843 140.138,114.677 128.5,122.5 Z"/></g>
<g><path style="opacity:1" fill="#6f5821" d="M 103.5,119.5 C 104.167,119.5 104.833,119.5 105.5,119.5C 104.552,120.978 103.219,121.978 101.5,122.5C 100.957,122.44 100.624,122.107 100.5,121.5C 101.602,120.824 102.602,120.158 103.5,119.5 Z"/></g>
<g><path style="opacity:1" fill="#856700" d="M 123.5,116.5 C 124.322,114.611 125.155,112.611 126,110.5C 127.284,113.376 126.617,116.043 124,118.5C 123.536,117.906 123.369,117.239 123.5,116.5 Z"/></g>
<g><path style="opacity:1" fill="#775c0b" d="M 106.5,111.5 C 108.95,111.298 111.283,111.631 113.5,112.5C 113.5,113.5 113.5,114.5 113.5,115.5C 110.402,115.587 110.068,115.087 112.5,114C 110.512,113.82 108.512,113.986 106.5,114.5C 104.25,114.819 102.25,114.319 100.5,113C 102.708,112.809 104.708,112.309 106.5,111.5 Z"/></g>
<g><path style="opacity:1" fill="#14a1e8" d="M 110.5,51.5 C 111.5,51.5 112.5,51.5 113.5,51.5C 115.649,53.7458 118.316,55.2458 121.5,56C 127.862,56.4245 134.195,56.4245 140.5,56C 146.143,59.9789 151.476,64.3122 156.5,69C 151.249,79.5861 153.249,88.5861 162.5,96C 155.174,96.4997 147.841,96.6663 140.5,96.5C 140.5,88.8333 140.5,81.1667 140.5,73.5C 141.141,72.5178 141.807,71.5178 142.5,70.5C 140.511,69.3847 138.678,69.718 137,71.5C 134.667,68.8333 132.333,68.8333 130,71.5C 128,68.8333 126,68.8333 124,71.5C 122.322,69.718 120.489,69.3847 118.5,70.5C 119.193,71.5178 119.859,72.5178 120.5,73.5C 120.5,75.5 120.5,77.5 120.5,79.5C 119.5,79.5 118.5,79.5 117.5,79.5C 116.833,83.5 116.167,83.5 115.5,79.5C 114.5,79.5 113.5,79.5 112.5,79.5C 111.833,83.5 111.167,83.5 110.5,79.5C 109.5,79.5 108.5,79.5 107.5,79.5C 106.833,83.5 106.167,83.5 105.5,79.5C 104.5,79.5 103.5,79.5 102.5,79.5C 102.5,78.5 102.5,77.5 102.5,76.5C 102.884,74.0706 103.551,71.7373 104.5,69.5C 102.8,69.6261 101.3,70.2927 100,71.5C 97.6667,68.8333 95.3333,68.8333 93,71.5C 90.6667,68.8333 88.3333,68.8333 86,71.5C 81.7975,68.8486 80.9641,69.5153 83.5,73.5C 83.5,81.1667 83.5,88.8333 83.5,96.5C 76.1591,96.6663 68.8258,96.4997 61.5,96C 70.7511,88.5861 72.7511,79.5861 67.5,69C 72.5236,64.3122 77.8569,59.9789 83.5,56C 89.1296,56.4559 94.7963,56.4559 100.5,56C 104.422,55.5376 107.755,54.0376 110.5,51.5 Z"/></g>
<g><path style="opacity:1" fill="#800912" d="M 116.5,93.5 C 117.833,93.5 119.167,93.5 120.5,93.5C 120.5,94.5 120.5,95.5 120.5,96.5C 119.167,96.5 117.833,96.5 116.5,96.5C 116.5,95.5 116.5,94.5 116.5,93.5 Z"/></g>
<g><path style="opacity:1" fill="#190c11" d="M 120.5,73.5 C 121.404,74.209 121.737,75.209 121.5,76.5C 121.5,78.5 121.5,80.5 121.5,82.5C 123.5,82.5 125.5,82.5 127.5,82.5C 127.263,81.209 127.596,80.209 128.5,79.5C 128.5,80.8333 128.5,82.1667 128.5,83.5C 126.167,83.5 123.833,83.5 121.5,83.5C 121.201,85.604 121.534,87.604 122.5,89.5C 123.738,85.6893 124.404,85.6893 124.5,89.5C 125.5,89.5 126.5,89.5 127.5,89.5C 127.5,90.5 127.5,91.5 127.5,92.5C 131.5,92.5 135.5,92.5 139.5,92.5C 139.5,87.1667 139.5,81.8333 139.5,76.5C 139.263,75.209 139.596,74.209 140.5,73.5C 140.5,81.1667 140.5,88.8333 140.5,96.5C 140.167,96.5 139.833,96.5 139.5,96.5C 139.5,95.5 139.5,94.5 139.5,93.5C 138.5,93.5 137.5,93.5 136.5,93.5C 136.5,94.5 136.5,95.5 136.5,96.5C 136.167,96.5 135.833,96.5 135.5,96.5C 135.5,95.5 135.5,94.5 135.5,93.5C 133.833,93.5 132.167,93.5 130.5,93.5C 130.5,94.5 130.5,95.5 130.5,96.5C 130.167,96.5 129.833,96.5 129.5,96.5C 129.5,95.5 129.5,94.5 129.5,93.5C 128.5,93.5 127.5,93.5 126.5,93.5C 126.5,92.5 126.5,91.5 126.5,90.5C 124.833,90.5 123.167,90.5 121.5,90.5C 121.5,92.5 121.5,94.5 121.5,96.5C 121.167,96.5 120.833,96.5 120.5,96.5C 120.5,95.5 120.5,94.5 120.5,93.5C 119.167,93.5 117.833,93.5 116.5,93.5C 116.5,93.1667 116.5,92.8333 116.5,92.5C 121.833,91.8333 121.833,91.1667 116.5,90.5C 116.5,90.1667 116.5,89.8333 116.5,89.5C 117.833,89.5 119.167,89.5 120.5,89.5C 120.5,86.1667 120.5,82.8333 120.5,79.5C 120.5,77.5 120.5,75.5 120.5,73.5 Z"/></g>
<g><path style="opacity:1" fill="#840c14" d="M 139.5,96.5 C 138.5,96.5 137.5,96.5 136.5,96.5C 136.5,95.5 136.5,94.5 136.5,93.5C 137.5,93.5 138.5,93.5 139.5,93.5C 139.5,94.5 139.5,95.5 139.5,96.5 Z"/></g>
<g><path style="opacity:1" fill="#830c15" d="M 135.5,96.5 C 133.833,96.5 132.167,96.5 130.5,96.5C 130.5,95.5 130.5,94.5 130.5,93.5C 132.167,93.5 133.833,93.5 135.5,93.5C 135.5,94.5 135.5,95.5 135.5,96.5 Z"/></g>
<g><path style="opacity:1" fill="#6e0f13" d="M 129.5,96.5 C 126.833,96.5 124.167,96.5 121.5,96.5C 121.5,94.5 121.5,92.5 121.5,90.5C 123.167,90.5 124.833,90.5 126.5,90.5C 126.5,91.5 126.5,92.5 126.5,93.5C 127.5,93.5 128.5,93.5 129.5,93.5C 129.5,94.5 129.5,95.5 129.5,96.5 Z"/></g>
<g><path style="opacity:1" fill="#2b2b33" d="M 83.5,73.5 C 84.404,74.209 84.7373,75.209 84.5,76.5C 84.5,78.8333 84.5,81.1667 84.5,83.5C 84.5,86.5 84.5,89.5 84.5,92.5C 92.1667,92.5 99.8333,92.5 107.5,92.5C 107.198,89.9407 107.532,87.6074 108.5,85.5C 108.5,89.1667 108.5,92.8333 108.5,96.5C 107.833,96.5 107.167,96.5 106.5,96.5C 106.5,95.5 106.5,94.5 106.5,93.5C 104.167,93.5 101.833,93.5 99.5,93.5C 99.5,94.5 99.5,95.5 99.5,96.5C 99.1667,96.5 98.8333,96.5 98.5,96.5C 98.5,95.5 98.5,94.5 98.5,93.5C 95.1667,93.5 91.8333,93.5 88.5,93.5C 88.5,94.5 88.5,95.5 88.5,96.5C 88.1667,96.5 87.8333,96.5 87.5,96.5C 87.5,95.5 87.5,94.5 87.5,93.5C 86.5,93.5 85.5,93.5 84.5,93.5C 84.5,94.5 84.5,95.5 84.5,96.5C 84.1667,96.5 83.8333,96.5 83.5,96.5C 83.5,88.8333 83.5,81.1667 83.5,73.5 Z"/></g>
<g><path style="opacity:1" fill="#790814" d="M 98.5,96.5 C 95.1667,96.5 91.8333,96.5 88.5,96.5C 88.5,95.5 88.5,94.5 88.5,93.5C 91.8333,93.5 95.1667,93.5 98.5,93.5C 98.5,94.5 98.5,95.5 98.5,96.5 Z"/></g>
<g><path style="opacity:1" fill="#780b13" d="M 106.5,96.5 C 104.167,96.5 101.833,96.5 99.5,96.5C 99.5,95.5 99.5,94.5 99.5,93.5C 101.833,93.5 104.167,93.5 106.5,93.5C 106.5,94.5 106.5,95.5 106.5,96.5 Z"/></g>
<g><path style="opacity:1" fill="#800a11" d="M 87.5,96.5 C 86.5,96.5 85.5,96.5 84.5,96.5C 84.5,95.5 84.5,94.5 84.5,93.5C 85.5,93.5 86.5,93.5 87.5,93.5C 87.5,94.5 87.5,95.5 87.5,96.5 Z"/></g>
<g><path style="opacity:1" fill="#850d12" d="M 116.5,90.5 C 121.833,91.1667 121.833,91.8333 116.5,92.5C 116.5,91.8333 116.5,91.1667 116.5,90.5 Z"/></g>
<g><path style="opacity:1" fill="#570e10" d="M 139.5,76.5 C 139.5,81.8333 139.5,87.1667 139.5,92.5C 135.5,92.5 131.5,92.5 127.5,92.5C 127.5,91.5 127.5,90.5 127.5,89.5C 126.5,89.5 125.5,89.5 124.5,89.5C 124.404,85.6893 123.738,85.6893 122.5,89.5C 121.534,87.604 121.201,85.604 121.5,83.5C 123.833,83.5 126.167,83.5 128.5,83.5C 129.222,83.9175 129.722,84.5842 130,85.5C 131.319,83.7505 131.819,81.7505 131.5,79.5C 130.5,79.5 129.5,79.5 128.5,79.5C 127.596,80.209 127.263,81.209 127.5,82.5C 125.5,82.5 123.5,82.5 121.5,82.5C 121.5,80.5 121.5,78.5 121.5,76.5C 124.167,76.5 126.833,76.5 129.5,76.5C 129.833,72.5 130.167,72.5 130.5,76.5C 133.5,76.5 136.5,76.5 139.5,76.5 Z"/></g>
<g><path style="opacity:1" fill="#8f8e8f" d="M 109.5,84.5 C 114.19,82.4986 116.524,84.1652 116.5,89.5C 116.5,89.8333 116.5,90.1667 116.5,90.5C 116.5,91.1667 116.5,91.8333 116.5,92.5C 116.5,92.8333 116.5,93.1667 116.5,93.5C 116.5,94.5 116.5,95.5 116.5,96.5C 116.167,96.5 115.833,96.5 115.5,96.5C 115.957,92.4161 115.29,88.5828 113.5,85C 112.207,84.51 110.873,84.3433 109.5,84.5 Z"/></g>
<g><path style="opacity:1" fill="#600d10" d="M 84.5,83.5 C 86.1667,83.5 87.8333,83.5 89.5,83.5C 89.6932,87.449 90.1932,87.449 91,83.5C 91.3826,84.056 91.8826,84.3893 92.5,84.5C 93.1667,85.8333 93.8333,85.8333 94.5,84.5C 99.2868,83.4083 104.287,83.4083 109.5,84.5C 109.5,85.1667 109.167,85.5 108.5,85.5C 107.532,87.6074 107.198,89.9407 107.5,92.5C 99.8333,92.5 92.1667,92.5 84.5,92.5C 84.5,89.5 84.5,86.5 84.5,83.5 Z"/></g>
<g><path style="opacity:1" fill="#080809" d="M 109.5,84.5 C 110.873,84.3433 112.207,84.51 113.5,85C 115.29,88.5828 115.957,92.4161 115.5,96.5C 113.167,96.5 110.833,96.5 108.5,96.5C 108.5,92.8333 108.5,89.1667 108.5,85.5C 109.167,85.5 109.5,85.1667 109.5,84.5 Z"/></g>
<g><path style="opacity:1" fill="#e1e0e1" d="M 128.5,79.5 C 129.5,79.5 130.5,79.5 131.5,79.5C 131.819,81.7505 131.319,83.7505 130,85.5C 129.722,84.5842 129.222,83.9175 128.5,83.5C 128.5,82.1667 128.5,80.8333 128.5,79.5 Z"/></g>
<g><path style="opacity:1" fill="#460d0d" d="M 102.5,76.5 C 102.5,77.5 102.5,78.5 102.5,79.5C 103.5,79.5 104.5,79.5 105.5,79.5C 106.167,83.5 106.833,83.5 107.5,79.5C 108.5,79.5 109.5,79.5 110.5,79.5C 111.167,83.5 111.833,83.5 112.5,79.5C 113.5,79.5 114.5,79.5 115.5,79.5C 116.167,83.5 116.833,83.5 117.5,79.5C 118.5,79.5 119.5,79.5 120.5,79.5C 120.5,82.8333 120.5,86.1667 120.5,89.5C 119.167,89.5 117.833,89.5 116.5,89.5C 116.524,84.1652 114.19,82.4986 109.5,84.5C 104.287,83.4083 99.2868,83.4083 94.5,84.5C 95.038,82.8828 95.3713,81.2161 95.5,79.5C 94.1667,79.5 92.8333,79.5 91.5,79.5C 91.6287,81.2161 91.962,82.8828 92.5,84.5C 91.8826,84.3893 91.3826,84.056 91,83.5C 90.1932,87.449 89.6932,87.449 89.5,83.5C 87.8333,83.5 86.1667,83.5 84.5,83.5C 84.5,81.1667 84.5,78.8333 84.5,76.5C 85.5,76.5 86.5,76.5 87.5,76.5C 87.8333,72.5 88.1667,72.5 88.5,76.5C 91.8333,76.5 95.1667,76.5 98.5,76.5C 98.8333,72.5 99.1667,72.5 99.5,76.5C 100.5,76.5 101.5,76.5 102.5,76.5 Z"/></g>
<g><path style="opacity:1" fill="#d7d7d7" d="M 94.5,84.5 C 93.8333,85.8333 93.1667,85.8333 92.5,84.5C 91.962,82.8828 91.6287,81.2161 91.5,79.5C 92.8333,79.5 94.1667,79.5 95.5,79.5C 95.3713,81.2161 95.038,82.8828 94.5,84.5 Z"/></g>
<g><path style="opacity:1" fill="#630a0e" d="M 102.5,76.5 C 101.5,76.5 100.5,76.5 99.5,76.5C 99.1667,72.5 98.8333,72.5 98.5,76.5C 95.1667,76.5 91.8333,76.5 88.5,76.5C 88.1667,72.5 87.8333,72.5 87.5,76.5C 86.5,76.5 85.5,76.5 84.5,76.5C 84.7373,75.209 84.404,74.209 83.5,73.5C 80.9641,69.5153 81.7975,68.8486 86,71.5C 88.3333,68.8333 90.6667,68.8333 93,71.5C 95.3333,68.8333 97.6667,68.8333 100,71.5C 101.3,70.2927 102.8,69.6261 104.5,69.5C 103.551,71.7373 102.884,74.0706 102.5,76.5 Z"/></g>
<g><path style="opacity:1" fill="#630a0f" d="M 140.5,73.5 C 139.596,74.209 139.263,75.209 139.5,76.5C 136.5,76.5 133.5,76.5 130.5,76.5C 130.167,72.5 129.833,72.5 129.5,76.5C 126.833,76.5 124.167,76.5 121.5,76.5C 121.737,75.209 121.404,74.209 120.5,73.5C 119.859,72.5178 119.193,71.5178 118.5,70.5C 120.489,69.3847 122.322,69.718 124,71.5C 126,68.8333 128,68.8333 130,71.5C 132.333,68.8333 134.667,68.8333 137,71.5C 138.678,69.718 140.511,69.3847 142.5,70.5C 141.807,71.5178 141.141,72.5178 140.5,73.5 Z"/></g>
<g><path style="opacity:1" fill="#c5b914" d="M 112.5,59.5 C 113.79,60.0577 114.623,61.0577 115,62.5C 115.777,67.222 115.61,71.8887 114.5,76.5C 112.051,77.9097 109.884,77.5763 108,75.5C 108.552,71.282 108.385,67.1153 107.5,63C 108.044,62.2828 108.711,61.7828 109.5,61.5C 109.435,61.9382 109.601,62.2716 110,62.5C 110.698,61.3094 111.531,60.3094 112.5,59.5 Z"/></g>
<g><path style="opacity:1" fill="#e9dc1b" d="M 104.5,56.5 C 107.704,58.4496 107.871,60.4496 105,62.5C 104.167,61.6667 103.333,60.8333 102.5,60C 103.823,59.1841 104.489,58.0174 104.5,56.5 Z"/></g>
<g><path style="opacity:1" fill="#806d60" d="M 112.5,59.5 C 111.531,60.3094 110.698,61.3094 110,62.5C 109.601,62.2716 109.435,61.9382 109.5,61.5C 109.261,59.5328 109.594,57.6995 110.5,56C 113.332,55.8259 113.999,56.9925 112.5,59.5 Z"/></g>
</svg>
