<?xml version="1.0" encoding="UTF-8"?>
<svg version="1.1" xmlns="http://www.w3.org/2000/svg" width="30" height="30">
<path d="M0 0 C3.3125 1.9375 3.3125 1.9375 5 5 C6.75791793 11.83634752 3.80478415 17.30893971 0.703125 23.30078125 C-0.97353703 25.95805984 -2.6232762 27.9524355 -5 30 C-6.9375 30.125 -6.9375 30.125 -9 29 C-14.42592314 23.57407686 -18.09710582 17.01949728 -18.5625 9.25 C-18.36332846 6.09091804 -17.89728187 4.81358562 -16.3125 1.9375 C-11.0645632 -1.13204794 -5.91948813 -0.91710379 0 0 Z " fill="#B93548" transform="translate(21,0)"/>
<path d="M0 0 C0.66 0.66 1.32 1.32 2 2 C0.35 2.66 -1.3 3.32 -3 4 C-1.47793991 6.62901288 -0.15634036 8.84365964 2 11 C5.58343976 11.16677282 5.58343976 11.16677282 9 11 C9 11.66 9 12.32 9 13 C9.66 13 10.32 13 11 13 C11 15.31 11 17.62 11 20 C13.0745356 20.1490712 13.0745356 20.1490712 15 19 C13.70306052 22.89081843 12.29300888 25.48181674 9 28 C7.0625 28.125 7.0625 28.125 5 27 C-0.47415175 21.52584825 -4.13010469 14.96933168 -4.5 7.125 C-4.36638823 3.93501895 -4.29993069 3.30930353 -2 0.9375 C-1.34 0.628125 -0.68 0.31875 0 0 Z " fill="#0F61A3" transform="translate(7,2)"/>
<path d="M0 0 C0.061875 0.61875 0.12375 1.2375 0.1875 1.875 C0.455625 2.57625 0.72375 3.2775 1 4 C1.804375 4.309375 2.60875 4.61875 3.4375 4.9375 C6 6 6 6 7.25 8.5625 C7.4975 9.366875 7.745 10.17125 8 11 C8.33 11.33 8.66 11.66 9 12 C9.25 14.375 9.25 14.375 9 17 C7.5 18.8125 7.5 18.8125 6 20 C4.38050989 17.42786866 3.95591249 16.32330841 4.375 13.25 C4.58125 12.5075 4.7875 11.765 5 11 C4.34 11 3.68 11 3 11 C3 10.34 3 9.68 3 9 C1.948125 9.268125 0.89625 9.53625 -0.1875 9.8125 C-4 10 -4 10 -6.9375 7.75 C-9 5 -9 5 -9 2 C-5.5647952 -0.29013653 -4.014669 -0.17842973 0 0 Z " fill="#9D99A3" transform="translate(13,4)"/>
<path d="M0 0 C0.33 1.32 0.66 2.64 1 4 C1.680625 3.2575 1.680625 3.2575 2.375 2.5 C4 1 4 1 6 1 C6.28571429 8.42857143 6.28571429 8.42857143 4 12 C0.15795869 9.52126367 0.15795869 9.52126367 -0.625 6.9375 C-0.74875 6.298125 -0.8725 5.65875 -1 5 C-1.66 4.34 -2.32 3.68 -3 3 C-2.01 2.01 -1.02 1.02 0 0 Z " fill="#F32426" transform="translate(19,5)"/>
<path d="M0 0 C0 1.65 0 3.3 0 5 C-0.99 5 -1.98 5 -3 5 C-3 6.32 -3 7.64 -3 9 C-5.46800047 7.84826645 -7.04783565 6.95216435 -9 5 C-9 4.01 -9 3.02 -9 2 C-5.5647952 -0.29013653 -4.014669 -0.17842973 0 0 Z " fill="#E0D8E0" transform="translate(13,4)"/>
<path d="M0 0 C0.99 0 1.98 0 3 0 C3 0.66 3 1.32 3 2 C3.66 2 4.32 2 5 2 C5.042721 3.66611905 5.04063832 5.33382885 5 7 C4 8 4 8 1.5 8.125 C-1 8 -1 8 -2 7 C-2.04063832 5.33382885 -2.042721 3.66611905 -2 2 C-1.34 2 -0.68 2 0 2 C0 1.34 0 0.68 0 0 Z " fill="#5B6E89" transform="translate(13,13)"/>
<path d="M0 0 C2.5 0.9375 2.5 0.9375 5 3 C6.31408309 8.87817526 4.65678685 13.79712575 2 19 C1.375 17.25 1.375 17.25 1 15 C1.64808564 13.65753688 2.31822584 12.32567199 3 11 C3.38749213 8.67504723 3.72982839 6.34148732 4 4 C3.54625 4.495 3.0925 4.99 2.625 5.5 C1 7 1 7 -1 7 C-0.67 4.69 -0.34 2.38 0 0 Z " fill="#4E5888" transform="translate(21,2)"/>
<path d="M0 0 C0.99 0.33 1.98 0.66 3 1 C3.36923077 5.55384615 3.36923077 5.55384615 1.5 7.8125 C1.005 8.204375 0.51 8.59625 0 9 C-1.125 7.3125 -1.125 7.3125 -2 5 C-1.125 2.25 -1.125 2.25 0 0 Z " fill="#E7E8EE" transform="translate(19,15)"/>
<path d="M0 0 C0.99 0 1.98 0 3 0 C3 0.66 3 1.32 3 2 C3.66 2.33 4.32 2.66 5 3 C4.34 3.66 3.68 4.32 3 5 C0.9375 4.75 0.9375 4.75 -1 4 C-1.33 3.34 -1.66 2.68 -2 2 C-1.34 2 -0.68 2 0 2 C0 1.34 0 0.68 0 0 Z " fill="#455364" transform="translate(13,13)"/>
<path d="M0 0 C0.99 0.33 1.98 0.66 3 1 C3 1.99 3 2.98 3 4 C1.68 4.33 0.36 4.66 -1 5 C-1.33 3.68 -1.66 2.36 -2 1 C-1.34 0.67 -0.68 0.34 0 0 Z " fill="#C6D2E2" transform="translate(6,5)"/>
</svg>
