<?xml version="1.0" encoding="UTF-8"?>
<!DOCTYPE svg PUBLIC "-//W3C//DTD SVG 1.1//EN" "http://www.w3.org/Graphics/SVG/1.1/DTD/svg11.dtd">
<svg xmlns="http://www.w3.org/2000/svg" version="1.1" width="300px" height="300px" style="shape-rendering:geometricPrecision; text-rendering:geometricPrecision; image-rendering:optimizeQuality; fill-rule:evenodd; clip-rule:evenodd" xmlns:xlink="http://www.w3.org/1999/xlink">
<g><path style="opacity:0.978" fill="#164387" d="M 95.5,9.5 C 105.696,12.9532 116.03,16.1198 126.5,19C 141.833,22.3333 157.167,22.3333 172.5,19C 182.97,16.1198 193.304,12.9532 203.5,9.5C 209.213,30.7136 221.546,46.8803 240.5,58C 245.796,61.2314 251.296,64.0648 257,66.5C 254.739,155.171 220.572,228.671 154.5,287C 151.167,290.333 147.833,290.333 144.5,287C 78.4279,228.671 44.2612,155.171 42,66.5C 65.1861,56.978 82.1861,40.978 93,18.5C 94.4301,15.6473 95.2634,12.6473 95.5,9.5 Z"/></g>
<g><path style="opacity:1" fill="#ec3024" d="M 186.5,126.5 C 187.774,125.811 187.774,124.977 186.5,124C 187.5,123.167 188.5,122.333 189.5,121.5C 188.807,120.482 188.141,119.482 187.5,118.5C 188.674,117.486 189.34,116.153 189.5,114.5C 190.971,112.784 191.971,110.784 192.5,108.5C 192.5,108.167 192.5,107.833 192.5,107.5C 194.824,106.141 196.49,104.141 197.5,101.5C 196.349,100.269 195.183,100.269 194,101.5C 193.517,100.552 193.351,99.552 193.5,98.5C 192.07,98.4208 190.736,98.7542 189.5,99.5C 188.833,98.5 188.167,97.5 187.5,96.5C 185.306,98.3153 184.972,100.482 186.5,103C 185.584,103.278 184.918,103.778 184.5,104.5C 184.44,105.043 184.107,105.376 183.5,105.5C 182.614,104.675 182.281,103.675 182.5,102.5C 180.876,102.36 179.71,103.027 179,104.5C 178.764,102.881 177.931,101.881 176.5,101.5C 176.5,100.833 176.5,100.167 176.5,99.5C 179.484,99.2132 180.817,97.5465 180.5,94.5C 179.178,94.33 178.011,94.6634 177,95.5C 175.946,93.2464 174.446,92.913 172.5,94.5C 170.833,91.8333 169.167,91.8333 167.5,94.5C 166.614,93.675 166.281,92.675 166.5,91.5C 165.5,91.5 164.5,91.5 163.5,91.5C 163.584,94.3274 164.25,96.994 165.5,99.5C 164.265,99.7214 163.265,100.388 162.5,101.5C 161.614,100.675 161.281,99.675 161.5,98.5C 159.876,98.3601 158.71,99.0267 158,100.5C 157.583,99.244 156.75,98.5774 155.5,98.5C 155.427,96.9731 156.094,95.9731 157.5,95.5C 158.833,94.1667 158.833,92.8333 157.5,91.5C 157.44,90.9569 157.107,90.6236 156.5,90.5C 155.106,92.984 153.606,92.984 152,90.5C 151.05,91.0223 150.216,91.689 149.5,92.5C 143.892,88.3956 138.725,83.7289 134,78.5C 135.332,67.8531 136.832,57.1864 138.5,46.5C 135.881,46.2317 133.381,46.565 131,47.5C 129.72,54.1235 128.72,60.7902 128,67.5C 127.617,66.944 127.117,66.6107 126.5,66.5C 124.5,60.5 122.5,54.5 120.5,48.5C 117.022,48.1842 113.688,48.6842 110.5,50C 112.16,52.3116 112.993,54.8116 113,57.5C 106,50.5 99,43.5 92,36.5C 94.6673,30.1588 97.6673,23.8255 101,17.5C 133.304,32.0371 165.637,32.0371 198,17.5C 208.277,42.2775 225.777,59.9442 250.5,70.5C 249.824,106.21 242.491,140.543 228.5,173.5C 214.875,159.374 201.041,145.374 187,131.5C 186.506,129.866 186.34,128.199 186.5,126.5 Z"/></g>
<g><path style="opacity:1" fill="#f9fafc" d="M 124.5,79.5 C 126.969,80.3171 129.635,80.8171 132.5,81C 136.688,85.1884 140.855,89.3551 145,93.5C 145.945,93.0946 146.612,92.428 147,91.5C 148.667,94.1667 150.333,94.1667 152,91.5C 153.81,94.0176 155.643,94.0176 157.5,91.5C 158.833,92.8333 158.833,94.1667 157.5,95.5C 152.35,94.3493 147.016,94.1826 141.5,95C 142.823,95.8159 143.489,96.9826 143.5,98.5C 142.849,99.0906 142.182,99.7573 141.5,100.5C 140.476,99.1468 139.143,98.4802 137.5,98.5C 137.719,99.675 137.386,100.675 136.5,101.5C 135.735,100.388 134.735,99.7214 133.5,99.5C 134.75,96.994 135.416,94.3274 135.5,91.5C 132.18,92.5136 128.847,93.5136 125.5,94.5C 123.351,95.1105 121.017,95.1105 118.5,94.5C 118.343,95.8734 118.51,97.2068 119,98.5C 120,99.8333 121,99.8333 122,98.5C 123.189,100.233 124.356,101.9 125.5,103.5C 124.82,107.119 124.32,110.786 124,114.5C 123.617,115.056 123.117,115.389 122.5,115.5C 122.666,110.821 122.499,106.155 122,101.5C 121.751,102.624 121.251,103.624 120.5,104.5C 119.476,103.147 118.143,102.48 116.5,102.5C 116.719,103.675 116.386,104.675 115.5,105.5C 114.893,105.376 114.56,105.043 114.5,104.5C 112.256,103.388 112.256,101.888 114.5,100C 113.934,99.0053 113.267,98.172 112.5,97.5C 112.44,96.9569 112.107,96.6236 111.5,96.5C 110.833,97.5 110.167,98.5 109.5,99.5C 108.264,98.7542 106.93,98.4208 105.5,98.5C 105.671,101.797 105.005,102.131 103.5,99.5C 101.466,100.574 101.133,101.907 102.5,103.5C 105.427,108.558 108.427,113.725 111.5,119C 108.846,121.072 109.18,122.739 112.5,124C 112.406,131.683 112.406,139.516 112.5,147.5C 90.868,126.368 69.368,105.035 48,83.5C 47.1725,79.1287 47.3391,74.7953 48.5,70.5C 65.0009,63.4218 78.6676,52.7552 89.5,38.5C 99.1525,47.6523 108.653,56.9856 118,66.5C 119.706,71.1565 121.873,75.4898 124.5,79.5 Z"/></g>
<g><path style="opacity:1" fill="#f3f6f9" d="M 124.5,79.5 C 120.637,69.9112 116.97,60.2446 113.5,50.5C 115.604,50.2011 117.604,50.5344 119.5,51.5C 121.608,56.7111 123.942,61.7111 126.5,66.5C 126.491,68.3084 126.991,69.9751 128,71.5C 129.56,63.8653 131.06,56.1986 132.5,48.5C 133.833,48.5 135.167,48.5 136.5,48.5C 135.003,58.4772 133.67,68.4772 132.5,78.5C 129.833,78.8333 127.167,79.1667 124.5,79.5 Z"/></g>
<g><path style="opacity:1" fill="#3b639d" d="M 90.5,87.5 C 83.1467,94.5446 76.3134,93.878 70,85.5C 65.8591,78.3006 65.5257,70.9673 69,63.5C 76.6591,56.5462 83.9924,56.8795 91,64.5C 91.6877,65.3317 91.521,65.9984 90.5,66.5C 88.5,67.5 86.5,68.5 84.5,69.5C 81.5795,66.0773 78.4129,65.744 75,68.5C 74.3061,74.5548 76.1394,79.7214 80.5,84C 84.3482,84.9866 86.3482,83.4866 86.5,79.5C 80.9854,81.1672 78.9854,79.1672 80.5,73.5C 84.3175,71.3906 88.3175,70.2239 92.5,70C 94.9978,75.3274 96.9978,80.8274 98.5,86.5C 96.2271,87.7353 94.3938,87.4019 93,85.5C 92.2917,86.3805 91.4584,87.0472 90.5,87.5 Z"/></g>
<g><path style="opacity:1" fill="#f5f7fa" d="M 90.5,87.5 C 78.5494,93.4432 71.0494,89.7766 68,76.5C 66.3431,66.8078 70.3431,61.1411 80,59.5C 83.8416,60.1707 87.0083,62.004 89.5,65C 86.5,68.3333 83.5,68.3333 80.5,65C 77.6917,64.0799 75.5251,64.9133 74,67.5C 72.8263,72.9401 73.8263,77.9401 77,82.5C 80.6667,86.5 84.3333,86.5 88,82.5C 88.4935,80.8659 88.6602,79.1992 88.5,77.5C 86.9397,77.5191 85.4397,77.8524 84,78.5C 81.5,77.6667 81,76.1667 82.5,74C 85.4055,72.9625 88.2388,71.7958 91,70.5C 93.7857,75.3276 95.2857,80.3276 95.5,85.5C 94.2807,84.7366 93.2807,83.7366 92.5,82.5C 91.438,84.0217 90.7713,85.6883 90.5,87.5 Z"/></g>
<g><path style="opacity:1" fill="#414f86" d="M 157.5,91.5 C 155.643,94.0176 153.81,94.0176 152,91.5C 150.333,94.1667 148.667,94.1667 147,91.5C 146.612,92.428 145.945,93.0946 145,93.5C 140.855,89.3551 136.688,85.1884 132.5,81C 129.635,80.8171 126.969,80.3171 124.5,79.5C 127.167,79.1667 129.833,78.8333 132.5,78.5C 133.67,68.4772 135.003,58.4772 136.5,48.5C 135.167,48.5 133.833,48.5 132.5,48.5C 131.06,56.1986 129.56,63.8653 128,71.5C 126.991,69.9751 126.491,68.3084 126.5,66.5C 127.117,66.6107 127.617,66.944 128,67.5C 128.72,60.7902 129.72,54.1235 131,47.5C 133.381,46.565 135.881,46.2317 138.5,46.5C 136.832,57.1864 135.332,67.8531 134,78.5C 138.725,83.7289 143.892,88.3956 149.5,92.5C 150.216,91.689 151.05,91.0223 152,90.5C 153.606,92.984 155.106,92.984 156.5,90.5C 157.107,90.6236 157.44,90.9569 157.5,91.5 Z"/></g>
<g><path style="opacity:1" fill="#47487e" d="M 162.5,46.5 C 170.148,47.5721 177.814,48.5721 185.5,49.5C 185.5,51.8333 185.5,54.1667 185.5,56.5C 180.482,56.3867 175.482,56.0534 170.5,55.5C 170.579,56.9305 170.246,58.2638 169.5,59.5C 173.355,61.0033 177.355,61.6699 181.5,61.5C 181.768,64.1194 181.435,66.6194 180.5,69C 176.507,69.1703 172.507,69.0037 168.5,68.5C 168.354,72.5191 168.021,76.5191 167.5,80.5C 164.518,80.0371 161.518,79.7038 158.5,79.5C 159.834,68.4947 161.167,57.4947 162.5,46.5 Z"/></g>
<g><path style="opacity:1" fill="#f0f3f8" d="M 163.5,48.5 C 170.532,48.874 177.532,49.5407 184.5,50.5C 184.5,52.1667 184.5,53.8333 184.5,55.5C 179.167,54.8333 173.833,54.1667 168.5,53.5C 168.5,56.5 168.5,59.5 168.5,62.5C 172.215,62.423 175.881,62.7564 179.5,63.5C 179.5,64.8333 179.5,66.1667 179.5,67.5C 175.466,67.4955 171.466,67.1621 167.5,66.5C 167.354,70.5191 167.021,74.5191 166.5,78.5C 164.5,78.5 162.5,78.5 160.5,78.5C 161.207,68.4671 162.207,58.4671 163.5,48.5 Z"/></g>
<g><path style="opacity:1" fill="#424e85" d="M 220.5,65.5 C 215.304,66.1925 212.137,69.1925 211,74.5C 208.832,80.979 210.999,83.8123 217.5,83C 218.211,81.7453 219.044,80.5786 220,79.5C 229.287,82.951 229.12,86.7843 219.5,91C 211.665,92.3328 205.832,89.4994 202,82.5C 200.26,74.148 202.427,66.9814 208.5,61C 218.218,56.0038 225.718,58.1704 231,67.5C 233.539,75.8024 231.039,78.1358 223.5,74.5C 222.815,71.3529 221.815,68.3529 220.5,65.5 Z"/></g>
<g><path style="opacity:1" fill="#f3f6f9" d="M 220.5,65.5 C 216.946,63.7978 214.113,64.7978 212,68.5C 209.335,72.486 208.335,76.8193 209,81.5C 212.838,86.7483 216.671,86.7483 220.5,81.5C 226.869,83.6747 226.869,86.1747 220.5,89C 210.179,91.3307 204.179,87.3307 202.5,77C 204.036,62.0842 211.703,57.0842 225.5,62C 229.039,65.3868 230.372,69.5534 229.5,74.5C 227.5,74.1667 225.5,73.8333 223.5,73.5C 223.663,71.1432 223.497,68.8098 223,66.5C 222.329,65.7476 221.496,65.4142 220.5,65.5 Z"/></g>
<g><path style="opacity:1" fill="#037ac0" d="M 116.5,189.5 C 117.167,191.167 117.833,192.833 118.5,194.5C 119.585,196.587 121.251,197.92 123.5,198.5C 123.414,199.496 123.748,200.329 124.5,201C 127.365,201.183 130.031,201.683 132.5,202.5C 125.855,201.791 125.188,202.958 130.5,206C 134.363,207.354 138.363,207.854 142.5,207.5C 141.737,208.268 140.737,208.768 139.5,209C 145.843,210.935 152.177,210.935 158.5,209C 157.263,208.768 156.263,208.268 155.5,207.5C 159.587,207.52 163.587,207.353 167.5,207C 176.681,216.014 185.681,225.181 194.5,234.5C 182.133,251.705 167.8,267.205 151.5,281C 150.167,281.667 148.833,281.667 147.5,281C 89.3951,229.627 56.5617,165.127 49,87.5C 70.3619,108.528 91.3619,129.861 112,151.5C 112.333,161.167 112.667,170.833 113,180.5C 113.725,183.79 114.892,186.79 116.5,189.5 Z"/></g>
<g><path style="opacity:1" fill="#7c84a3" d="M 176.5,99.5 C 175.768,100.808 174.934,102.142 174,103.5C 173.878,99.9055 172.044,98.2388 168.5,98.5C 168.306,102.005 167.306,102.338 165.5,99.5C 164.25,96.994 163.584,94.3274 163.5,91.5C 164.5,91.5 165.5,91.5 166.5,91.5C 166.281,92.675 166.614,93.675 167.5,94.5C 169.167,91.8333 170.833,91.8333 172.5,94.5C 174.446,92.913 175.946,93.2464 177,95.5C 178.011,94.6634 179.178,94.33 180.5,94.5C 180.817,97.5465 179.484,99.2132 176.5,99.5 Z"/></g>
<g><path style="opacity:1" fill="#6c88b0" d="M 133.5,99.5 C 131.694,102.338 130.694,102.005 130.5,98.5C 126.828,98.1826 125.162,99.8493 125.5,103.5C 124.356,101.9 123.189,100.233 122,98.5C 121,99.8333 120,99.8333 119,98.5C 118.51,97.2068 118.343,95.8734 118.5,94.5C 121.017,95.1105 123.351,95.1105 125.5,94.5C 128.847,93.5136 132.18,92.5136 135.5,91.5C 135.416,94.3274 134.75,96.994 133.5,99.5 Z"/></g>
<g><path style="opacity:1" fill="#d8dbdf" d="M 125.5,94.5 C 126.91,95.8284 128.076,95.4951 129,93.5C 129.483,94.448 129.649,95.448 129.5,96.5C 126.103,97.1919 122.77,97.1919 119.5,96.5C 121.525,96.7897 123.525,96.123 125.5,94.5 Z"/></g>
<g><path style="opacity:1" fill="#16478a" d="M 143.5,98.5 C 143.5,99.5 143.5,100.5 143.5,101.5C 142.837,104.481 142.17,107.481 141.5,110.5C 141.253,111.713 140.586,112.38 139.5,112.5C 139.167,112.5 138.833,112.5 138.5,112.5C 136.638,108.25 134.972,103.917 133.5,99.5C 134.735,99.7214 135.735,100.388 136.5,101.5C 137.386,100.675 137.719,99.675 137.5,98.5C 139.143,98.4802 140.476,99.1468 141.5,100.5C 142.182,99.7573 142.849,99.0906 143.5,98.5 Z"/></g>
<g><path style="opacity:1" fill="#204284" d="M 155.5,98.5 C 156.75,98.5774 157.583,99.244 158,100.5C 158.71,99.0267 159.876,98.3601 161.5,98.5C 161.281,99.675 161.614,100.675 162.5,101.5C 163.265,100.388 164.265,99.7214 165.5,99.5C 164.028,103.917 162.362,108.25 160.5,112.5C 160.167,112.5 159.833,112.5 159.5,112.5C 158.414,112.38 157.747,111.713 157.5,110.5C 156.703,107.18 156.036,103.846 155.5,100.5C 155.5,99.8333 155.5,99.1667 155.5,98.5 Z"/></g>
<g><path style="opacity:1" fill="#6d87ab" d="M 157.5,95.5 C 156.094,95.9731 155.427,96.9731 155.5,98.5C 155.5,99.1667 155.5,99.8333 155.5,100.5C 154.244,100.461 153.244,100.961 152.5,102C 154.646,104.268 154.98,106.768 153.5,109.5C 153.818,110.647 154.484,111.481 155.5,112C 152.183,112.498 148.85,112.665 145.5,112.5C 143.849,108.782 144.182,105.282 146.5,102C 145.648,100.272 144.648,100.105 143.5,101.5C 143.5,100.5 143.5,99.5 143.5,98.5C 143.489,96.9826 142.823,95.8159 141.5,95C 147.016,94.1826 152.35,94.3493 157.5,95.5 Z"/></g>
<g><path style="opacity:1" fill="#c5c8cd" d="M 147.5,96.5 C 148.833,96.5 150.167,96.5 151.5,96.5C 151.657,97.8734 151.49,99.2068 151,100.5C 150,99.1667 149,99.1667 148,100.5C 147.51,99.2068 147.343,97.8734 147.5,96.5 Z"/></g>
<g><path style="opacity:1" fill="#777d9b" d="M 192.5,107.5 C 192.631,106.761 192.464,106.094 192,105.5C 191.581,106.672 190.915,107.672 190,108.5C 189.798,106.744 189.298,105.078 188.5,103.5C 187.817,103.863 187.15,104.196 186.5,104.5C 185.833,104.5 185.167,104.5 184.5,104.5C 184.918,103.778 185.584,103.278 186.5,103C 184.972,100.482 185.306,98.3153 187.5,96.5C 188.167,97.5 188.833,98.5 189.5,99.5C 190.736,98.7542 192.07,98.4208 193.5,98.5C 193.351,99.552 193.517,100.552 194,101.5C 195.183,100.269 196.349,100.269 197.5,101.5C 196.49,104.141 194.824,106.141 192.5,107.5 Z"/></g>
<g><path style="opacity:1" fill="#aebdd2" d="M 112.5,97.5 C 112.719,98.675 112.386,99.675 111.5,100.5C 108.573,101.801 105.573,102.801 102.5,103.5C 101.133,101.907 101.466,100.574 103.5,99.5C 105.005,102.131 105.671,101.797 105.5,98.5C 106.93,98.4208 108.264,98.7542 109.5,99.5C 110.167,98.5 110.833,97.5 111.5,96.5C 112.107,96.6236 112.44,96.9569 112.5,97.5 Z"/></g>
<g><path style="opacity:1" fill="#234586" d="M 176.5,101.5 C 177.931,101.881 178.764,102.881 179,104.5C 179.71,103.027 180.876,102.36 182.5,102.5C 182.281,103.675 182.614,104.675 183.5,105.5C 184.107,105.376 184.44,105.043 184.5,104.5C 185.167,104.5 185.833,104.5 186.5,104.5C 184.427,108.308 182.094,111.974 179.5,115.5C 179.863,116.183 180.196,116.85 180.5,117.5C 178.847,117.34 177.514,116.674 176.5,115.5C 176.5,110.833 176.5,106.167 176.5,101.5 Z"/></g>
<g><path style="opacity:1" fill="#b0b9c6" d="M 176.5,99.5 C 176.5,100.167 176.5,100.833 176.5,101.5C 176.5,106.167 176.5,110.833 176.5,115.5C 175.883,115.389 175.383,115.056 175,114.5C 174.17,102.518 173.67,102.518 173.5,114.5C 170.859,115.263 168.192,115.43 165.5,115C 170.833,114.333 170.833,113.667 165.5,113C 170.288,111.41 170.621,110.243 166.5,109.5C 168.223,107.61 169.889,105.777 171.5,104C 169.422,101.866 167.588,102.032 166,104.5C 164.293,106.909 163.46,109.575 163.5,112.5C 162.5,112.5 161.5,112.5 160.5,112.5C 162.362,108.25 164.028,103.917 165.5,99.5C 167.306,102.338 168.306,102.005 168.5,98.5C 172.044,98.2388 173.878,99.9055 174,103.5C 174.934,102.142 175.768,100.808 176.5,99.5 Z"/></g>
<g><path style="opacity:1" fill="#7082a6" d="M 192.5,108.5 C 191.971,110.784 190.971,112.784 189.5,114.5C 189.649,113.448 189.483,112.448 189,111.5C 187.045,112.453 185.378,113.787 184,115.5C 183.493,114.004 183.993,112.837 185.5,112C 185.167,111.667 184.833,111.333 184.5,111C 187.048,109.85 189.715,109.017 192.5,108.5 Z"/></g>
<g><path style="opacity:1" fill="#95a5ba" d="M 155.5,100.5 C 156.036,103.846 156.703,107.18 157.5,110.5C 157.747,111.713 158.414,112.38 159.5,112.5C 160.952,113.302 162.618,113.802 164.5,114C 154.5,117.333 144.5,117.333 134.5,114C 136.382,113.802 138.048,113.302 139.5,112.5C 140.586,112.38 141.253,111.713 141.5,110.5C 142.17,107.481 142.837,104.481 143.5,101.5C 144.648,100.105 145.648,100.272 146.5,102C 144.182,105.282 143.849,108.782 145.5,112.5C 148.85,112.665 152.183,112.498 155.5,112C 154.484,111.481 153.818,110.647 153.5,109.5C 154.98,106.768 154.646,104.268 152.5,102C 153.244,100.961 154.244,100.461 155.5,100.5 Z"/></g>
<g><path style="opacity:1" fill="#6d85a7" d="M 138.5,112.5 C 138.833,112.5 139.167,112.5 139.5,112.5C 138.048,113.302 136.382,113.802 134.5,114C 144.5,117.333 154.5,117.333 164.5,114C 162.618,113.802 160.952,113.302 159.5,112.5C 159.833,112.5 160.167,112.5 160.5,112.5C 161.5,112.5 162.5,112.5 163.5,112.5C 163.46,109.575 164.293,106.909 166,104.5C 167.588,102.032 169.422,101.866 171.5,104C 169.889,105.777 168.223,107.61 166.5,109.5C 170.621,110.243 170.288,111.41 165.5,113C 170.833,113.667 170.833,114.333 165.5,115C 168.192,115.43 170.859,115.263 173.5,114.5C 173.67,102.518 174.17,102.518 175,114.5C 175.383,115.056 175.883,115.389 176.5,115.5C 177.514,116.674 178.847,117.34 180.5,117.5C 181.117,117.389 181.617,117.056 182,116.5C 183.584,117.861 185.418,118.528 187.5,118.5C 188.141,119.482 188.807,120.482 189.5,121.5C 188.5,122.333 187.5,123.167 186.5,124C 187.774,124.977 187.774,125.811 186.5,126.5C 184.703,126.065 182.703,126.065 180.5,126.5C 180.5,125.5 180.5,124.5 180.5,123.5C 178.5,123.167 176.5,122.833 174.5,122.5C 172.5,122.167 170.5,121.833 168.5,121.5C 169.263,120.732 170.263,120.232 171.5,120C 154.705,115.871 138.205,116.371 122,121.5C 120.566,121.07 119.399,120.236 118.5,119C 121.767,117.28 125.1,116.78 128.5,117.5C 129.893,116.137 131.559,115.304 133.5,115C 126.833,114.333 126.833,113.667 133.5,113C 131.579,112.64 129.912,111.806 128.5,110.5C 129.025,109.808 129.692,109.308 130.5,109C 129.167,108 129.167,107 130.5,106C 129.672,105.085 128.672,104.419 127.5,104C 129.578,101.866 131.412,102.032 133,104.5C 134.707,106.909 135.54,109.575 135.5,112.5C 136.5,112.5 137.5,112.5 138.5,112.5 Z"/></g>
<g><path style="opacity:1" fill="#bcc1c9" d="M 148.5,103.5 C 149.189,102.226 150.023,102.226 151,103.5C 152.436,106.143 152.602,108.81 151.5,111.5C 149.775,110.985 148.108,110.318 146.5,109.5C 149.797,108.858 150.131,107.691 147.5,106C 149.359,105.399 149.692,104.566 148.5,103.5 Z"/></g>
<g><path style="opacity:1" fill="#b4bbca" d="M 192.5,107.5 C 192.5,107.833 192.5,108.167 192.5,108.5C 189.715,109.017 187.048,109.85 184.5,111C 184.833,111.333 185.167,111.667 185.5,112C 183.993,112.837 183.493,114.004 184,115.5C 185.378,113.787 187.045,112.453 189,111.5C 189.483,112.448 189.649,113.448 189.5,114.5C 189.34,116.153 188.674,117.486 187.5,118.5C 185.418,118.528 183.584,117.861 182,116.5C 181.617,117.056 181.117,117.389 180.5,117.5C 180.196,116.85 179.863,116.183 179.5,115.5C 182.094,111.974 184.427,108.308 186.5,104.5C 187.15,104.196 187.817,103.863 188.5,103.5C 189.298,105.078 189.798,106.744 190,108.5C 190.915,107.672 191.581,106.672 192,105.5C 192.464,106.094 192.631,106.761 192.5,107.5 Z"/></g>
<g><path style="opacity:1" fill="#fdfdfe" d="M 168.5,121.5 C 170.5,121.833 172.5,122.167 174.5,122.5C 174.833,123.167 175.167,123.833 175.5,124.5C 156.338,125.662 137.004,125.829 117.5,125C 134.225,119.207 151.225,118.04 168.5,121.5 Z"/></g>
<g><path style="opacity:1" fill="#98aac3" d="M 112.5,97.5 C 113.267,98.172 113.934,99.0053 114.5,100C 112.256,101.888 112.256,103.388 114.5,104.5C 113.761,104.369 113.094,104.536 112.5,105C 114.958,109.288 117.958,113.121 121.5,116.5C 122.107,116.376 122.44,116.043 122.5,115.5C 123.117,115.389 123.617,115.056 124,114.5C 124.32,110.786 124.82,107.119 125.5,103.5C 125.162,99.8493 126.828,98.1826 130.5,98.5C 130.694,102.005 131.694,102.338 133.5,99.5C 134.972,103.917 136.638,108.25 138.5,112.5C 137.5,112.5 136.5,112.5 135.5,112.5C 135.54,109.575 134.707,106.909 133,104.5C 131.412,102.032 129.578,101.866 127.5,104C 128.672,104.419 129.672,105.085 130.5,106C 129.167,107 129.167,108 130.5,109C 129.692,109.308 129.025,109.808 128.5,110.5C 129.912,111.806 131.579,112.64 133.5,113C 126.833,113.667 126.833,114.333 133.5,115C 131.559,115.304 129.893,116.137 128.5,117.5C 125.1,116.78 121.767,117.28 118.5,119C 119.399,120.236 120.566,121.07 122,121.5C 138.205,116.371 154.705,115.871 171.5,120C 170.263,120.232 169.263,120.732 168.5,121.5C 151.225,118.04 134.225,119.207 117.5,125C 137.004,125.829 156.338,125.662 175.5,124.5C 176.289,124.783 176.956,125.283 177.5,126C 156.26,126.826 135.094,126.66 114,125.5C 113.849,133.583 113.349,140.916 112.5,147.5C 112.406,139.516 112.406,131.683 112.5,124C 109.18,122.739 108.846,121.072 111.5,119C 108.427,113.725 105.427,108.558 102.5,103.5C 105.573,102.801 108.573,101.801 111.5,100.5C 112.386,99.675 112.719,98.675 112.5,97.5 Z"/></g>
<g><path style="opacity:1" fill="#15468a" d="M 122.5,115.5 C 122.44,116.043 122.107,116.376 121.5,116.5C 117.958,113.121 114.958,109.288 112.5,105C 113.094,104.536 113.761,104.369 114.5,104.5C 114.56,105.043 114.893,105.376 115.5,105.5C 116.386,104.675 116.719,103.675 116.5,102.5C 118.143,102.48 119.476,103.147 120.5,104.5C 121.251,103.624 121.751,102.624 122,101.5C 122.499,106.155 122.666,110.821 122.5,115.5 Z"/></g>
<g><path style="opacity:1" fill="#f3f6f9" d="M 116.5,128.5 C 123.167,128.5 129.833,128.5 136.5,128.5C 136.886,137.061 133.553,143.727 126.5,148.5C 118.939,144.045 115.606,137.379 116.5,128.5 Z"/></g>
<g><path style="opacity:1" fill="#f3f6f9" d="M 162.5,128.5 C 169.167,128.5 175.833,128.5 182.5,128.5C 183.394,137.379 180.061,144.045 172.5,148.5C 165.447,143.727 162.114,137.061 162.5,128.5 Z"/></g>
<g><path style="opacity:1" fill="#c6372b" d="M 146.5,128.5 C 148.5,132.5 150.5,132.5 152.5,128.5C 154.5,128.5 156.5,128.5 158.5,128.5C 158.5,130.5 158.5,132.5 158.5,134.5C 155.826,135.499 155.159,137.166 156.5,139.5C 156.378,142.292 155.044,144.292 152.5,145.5C 150.455,142.867 148.455,142.867 146.5,145.5C 143.956,144.292 142.622,142.292 142.5,139.5C 143.841,137.166 143.174,135.499 140.5,134.5C 140.5,132.5 140.5,130.5 140.5,128.5C 142.5,128.5 144.5,128.5 146.5,128.5 Z"/></g>
<g><path style="opacity:1" fill="#b5a8a6" d="M 146.5,128.5 C 148.5,128.5 150.5,128.5 152.5,128.5C 150.5,132.5 148.5,132.5 146.5,128.5 Z"/></g>
<g><path style="opacity:1" fill="#dfdddd" d="M 143.5,130.5 C 145.912,130.694 146.912,132.027 146.5,134.5C 143.046,134.733 142.046,133.4 143.5,130.5 Z"/></g>
<g><path style="opacity:1" fill="#dfdcdc" d="M 153.5,130.5 C 154.995,130.415 155.995,131.081 156.5,132.5C 155.68,134.111 154.346,134.778 152.5,134.5C 152.433,133.041 152.766,131.708 153.5,130.5 Z"/></g>
<g><path style="opacity:1" fill="#7795bc" d="M 124.5,130.5 C 125.833,130.5 127.167,130.5 128.5,130.5C 128.714,132.144 128.38,133.644 127.5,135C 129.134,135.494 130.801,135.66 132.5,135.5C 133.048,139.795 131.381,141.295 127.5,140C 128.99,142.2 128.657,144.034 126.5,145.5C 124.343,144.034 124.01,142.2 125.5,140C 121.619,141.295 119.952,139.795 120.5,135.5C 122.199,135.66 123.866,135.494 125.5,135C 124.62,133.644 124.286,132.144 124.5,130.5 Z"/></g>
<g><path style="opacity:1" fill="#b4acab" d="M 147.5,134.5 C 148.833,134.5 150.167,134.5 151.5,134.5C 151.5,135.833 151.5,137.167 151.5,138.5C 150.167,138.5 148.833,138.5 147.5,138.5C 147.5,137.167 147.5,135.833 147.5,134.5 Z"/></g>
<g><path style="opacity:1" fill="#e7e7e7" d="M 140.5,134.5 C 143.174,135.499 143.841,137.166 142.5,139.5C 141.069,138.22 140.402,136.553 140.5,134.5 Z"/></g>
<g><path style="opacity:1" fill="#ebeaea" d="M 158.5,134.5 C 158.598,136.553 157.931,138.22 156.5,139.5C 155.159,137.166 155.826,135.499 158.5,134.5 Z"/></g>
<g><path style="opacity:1" fill="#f9fafc" d="M 132.5,202.5 C 130.031,201.683 127.365,201.183 124.5,201C 123.748,200.329 123.414,199.496 123.5,198.5C 140.643,197.198 157.81,197.198 175,198.5C 177.163,198.505 178.663,197.505 179.5,195.5C 172.833,191.889 165.999,191.556 159,194.5C 155.52,193.729 152.02,193.062 148.5,192.5C 145.429,192.87 142.429,193.537 139.5,194.5C 136.014,193.754 132.514,193.087 129,192.5C 125.592,193.619 122.092,194.286 118.5,194.5C 117.833,192.833 117.167,191.167 116.5,189.5C 138.827,188.313 161.161,188.313 183.5,189.5C 184.224,186.157 185.057,182.824 186,179.5C 186.333,164.833 186.667,150.167 187,135.5C 200.875,149.041 214.375,162.874 227.5,177C 219.338,196.501 209.005,214.667 196.5,231.5C 187.848,223.348 179.348,215.014 171,206.5C 170.837,204.613 171.671,203.113 173.5,202C 168.523,201.257 163.69,201.757 159,203.5C 155.667,202.833 152.333,202.167 149,201.5C 143.576,203.491 138.076,203.824 132.5,202.5 Z"/></g>
<g><path style="opacity:1" fill="#7896bd" d="M 170.5,130.5 C 171.833,130.5 173.167,130.5 174.5,130.5C 174.714,132.144 174.38,133.644 173.5,135C 175.134,135.494 176.801,135.66 178.5,135.5C 179.048,139.795 177.381,141.295 173.5,140C 174.99,142.2 174.657,144.034 172.5,145.5C 170.343,144.034 170.01,142.2 171.5,140C 167.619,141.295 165.952,139.795 166.5,135.5C 168.199,135.66 169.866,135.494 171.5,135C 170.62,133.644 170.286,132.144 170.5,130.5 Z"/></g>
<g><path style="opacity:1" fill="#e0dede" d="M 145.5,138.5 C 149.61,140.746 149.277,142.079 144.5,142.5C 144.433,141.041 144.766,139.708 145.5,138.5 Z"/></g>
<g><path style="opacity:1" fill="#e0dede" d="M 152.5,138.5 C 154.104,139.287 154.771,140.62 154.5,142.5C 150.421,142.466 149.754,141.133 152.5,138.5 Z"/></g>
<g><path style="opacity:1" fill="#e8e5e4" d="M 152.5,145.5 C 150.5,148.167 148.5,148.167 146.5,145.5C 148.455,142.867 150.455,142.867 152.5,145.5 Z"/></g>
<g><path style="opacity:1" fill="#f4ede7" d="M 139.5,151.5 C 142.075,153.845 143.075,156.845 142.5,160.5C 143.5,160.5 144.5,160.5 145.5,160.5C 143.157,156.526 144.157,153.86 148.5,152.5C 152.485,154.125 153.485,156.791 151.5,160.5C 152.5,160.5 153.5,160.5 154.5,160.5C 156.007,148.647 158.007,148.647 160.5,160.5C 161.308,160.808 161.975,161.308 162.5,162C 153.167,162.667 143.833,162.667 134.5,162C 137.218,160.585 137.885,158.585 136.5,156C 137.386,154.385 138.386,152.885 139.5,151.5 Z"/></g>
<g><path style="opacity:1" fill="#858587" d="M 130.5,160.5 C 129.244,160.096 128.077,159.429 127,158.5C 125.394,160.984 123.894,160.984 122.5,158.5C 121.132,162.057 122.466,163.723 126.5,163.5C 128.114,163.197 129.448,162.53 130.5,161.5C 131.275,163.388 131.275,165.388 130.5,167.5C 125.959,167.669 125.626,167.002 129.5,165.5C 127.49,164.651 125.823,165.318 124.5,167.5C 123.667,166.5 122.833,165.5 122,164.5C 120.549,164.736 119.049,164.736 117.5,164.5C 117.177,160.774 117.511,157.107 118.5,153.5C 119.833,156.167 121.167,156.167 122.5,153.5C 123.816,156.028 124.983,156.028 126,153.5C 127.333,156.167 128.667,156.167 130,153.5C 130.497,155.81 130.663,158.143 130.5,160.5 Z"/></g>
<g><path style="opacity:1" fill="#292b38" d="M 180.5,157.5 C 179.842,158.398 179.176,159.398 178.5,160.5C 177.824,159.398 177.158,158.398 176.5,157.5C 176.5,157.167 176.5,156.833 176.5,156.5C 178.257,153.852 179.59,154.186 180.5,157.5 Z"/></g>
<g><path style="opacity:1" fill="#7b899d" d="M 181.5,162.5 C 180.549,161.081 180.216,159.415 180.5,157.5C 179.59,154.186 178.257,153.852 176.5,156.5C 176.631,152.348 178.131,151.682 181,154.5C 181.497,157.146 181.664,159.813 181.5,162.5 Z"/></g>
<g><path style="opacity:1" fill="#d05f55" d="M 147.5,157.5 C 149.337,157.639 149.67,158.306 148.5,159.5C 147.702,159.043 147.369,158.376 147.5,157.5 Z"/></g>
<g><path style="opacity:1" fill="#1b7535" d="M 170.5,172.5 C 169.833,172.5 169.167,172.5 168.5,172.5C 168.662,170.473 168.495,168.473 168,166.5C 166.108,164.946 164.608,163.112 163.5,161C 164.911,158.022 165.911,154.855 166.5,151.5C 168.382,152.093 170.215,152.76 172,153.5C 172.373,155.698 172.873,157.865 173.5,160C 170.804,163.653 169.804,167.82 170.5,172.5 Z"/></g>
<g><path style="opacity:1" fill="#785450" d="M 130.5,160.5 C 130.5,160.833 130.5,161.167 130.5,161.5C 129.448,162.53 128.114,163.197 126.5,163.5C 122.466,163.723 121.132,162.057 122.5,158.5C 123.894,160.984 125.394,160.984 127,158.5C 128.077,159.429 129.244,160.096 130.5,160.5 Z"/></g>
<g><path style="opacity:1" fill="#e4e2e2" d="M 176.5,157.5 C 177.158,158.398 177.824,159.398 178.5,160.5C 179.176,159.398 179.842,158.398 180.5,157.5C 180.216,159.415 180.549,161.081 181.5,162.5C 183.762,163.345 184.429,164.678 183.5,166.5C 181.974,167.492 181.307,168.992 181.5,171C 181.307,173.008 181.974,174.508 183.5,175.5C 183.179,177.048 182.179,177.715 180.5,177.5C 180.5,175.167 180.5,172.833 180.5,170.5C 179.178,170.33 178.011,170.663 177,171.5C 176.505,173.473 176.338,175.473 176.5,177.5C 175.325,177.719 174.325,177.386 173.5,176.5C 176.407,172.358 176.074,168.524 172.5,165C 175.941,163.682 177.275,161.182 176.5,157.5 Z"/></g>
<g><path style="opacity:1" fill="#212a3c" d="M 183.5,166.5 C 183.5,169.5 183.5,172.5 183.5,175.5C 181.974,174.508 181.307,173.008 181.5,171C 181.307,168.992 181.974,167.492 183.5,166.5 Z"/></g>
<g><path style="opacity:1" fill="#201d21" d="M 168.5,172.5 C 169.167,172.5 169.833,172.5 170.5,172.5C 171.451,173.919 171.784,175.585 171.5,177.5C 169.833,177.5 168.167,177.5 166.5,177.5C 166.077,175.219 166.744,173.552 168.5,172.5 Z"/></g>
<g><path style="opacity:1" fill="#c04034" d="M 180.5,177.5 C 179.167,177.5 177.833,177.5 176.5,177.5C 176.338,175.473 176.505,173.473 177,171.5C 178.011,170.663 179.178,170.33 180.5,170.5C 180.5,172.833 180.5,175.167 180.5,177.5 Z"/></g>
<g><path style="opacity:1" fill="#6589b4" d="M 133.5,168.5 C 133.177,172.226 133.511,175.893 134.5,179.5C 135.182,178.757 135.849,178.091 136.5,177.5C 136.802,180.059 136.468,182.393 135.5,184.5C 135.762,183.022 135.429,181.689 134.5,180.5C 133.614,181.325 133.281,182.325 133.5,183.5C 132.167,178.5 132.167,173.5 133.5,168.5 Z"/></g>
<g><path style="opacity:1" fill="#5d83b0" d="M 162.5,168.5 C 162.56,167.957 162.893,167.624 163.5,167.5C 164.816,173.32 164.816,178.987 163.5,184.5C 163.762,183.022 163.429,181.689 162.5,180.5C 161.218,181.958 161.218,183.292 162.5,184.5C 162.44,185.043 162.107,185.376 161.5,185.5C 160.52,182.914 160.187,180.247 160.5,177.5C 161.151,178.091 161.818,178.757 162.5,179.5C 163.808,175.685 163.808,172.019 162.5,168.5 Z"/></g>
<g><path style="opacity:1" fill="#66666a" d="M 117.5,164.5 C 119.049,164.736 120.549,164.736 122,164.5C 122.833,165.5 123.667,166.5 124.5,167.5C 125.823,165.318 127.49,164.651 129.5,165.5C 125.626,167.002 125.959,167.669 130.5,167.5C 130.26,170.579 130.593,173.579 131.5,176.5C 129.955,177.452 128.288,177.785 126.5,177.5C 126.5,174.833 126.5,172.167 126.5,169.5C 125.5,169.5 124.5,169.5 123.5,169.5C 123.5,172.167 123.5,174.833 123.5,177.5C 121.5,177.5 119.5,177.5 117.5,177.5C 117.5,173.167 117.5,168.833 117.5,164.5 Z"/></g>
<g><path style="opacity:1" fill="#c42d23" d="M 126.5,177.5 C 125.5,177.5 124.5,177.5 123.5,177.5C 123.5,174.833 123.5,172.167 123.5,169.5C 124.5,169.5 125.5,169.5 126.5,169.5C 126.5,172.167 126.5,174.833 126.5,177.5 Z"/></g>
<g><path style="opacity:1" fill="#b1b0b1" d="M 118.5,166.5 C 122.893,166.457 123.226,166.957 119.5,168C 123.5,168.667 123.5,169.333 119.5,170C 122.051,171.516 121.718,172.349 118.5,172.5C 118.5,170.5 118.5,168.5 118.5,166.5 Z"/></g>
<g><path style="opacity:1" fill="#bccbde" d="M 162.5,168.5 C 163.808,172.019 163.808,175.685 162.5,179.5C 161.818,178.757 161.151,178.091 160.5,177.5C 158.631,179.635 157.964,182.302 158.5,185.5C 157.5,185.5 156.5,185.5 155.5,185.5C 155.5,182.833 155.5,180.167 155.5,177.5C 154.5,177.5 153.5,177.5 152.5,177.5C 152.5,179.5 152.5,181.5 152.5,183.5C 151.5,183.5 150.5,183.5 149.5,183.5C 149.799,181.396 149.466,179.396 148.5,177.5C 145.752,186.313 144.418,186.313 144.5,177.5C 143.5,177.5 142.5,177.5 141.5,177.5C 141.5,180.167 141.5,182.833 141.5,185.5C 140.5,185.5 139.5,185.5 138.5,185.5C 139.036,182.302 138.369,179.635 136.5,177.5C 135.849,178.091 135.182,178.757 134.5,179.5C 133.511,175.893 133.177,172.226 133.5,168.5C 143.579,169.757 153.245,169.757 162.5,168.5 Z"/></g>
<g><path style="opacity:1" fill="#e1e7f0" d="M 135.5,184.5 C 134.508,184.672 133.842,184.338 133.5,183.5C 133.281,182.325 133.614,181.325 134.5,180.5C 135.429,181.689 135.762,183.022 135.5,184.5 Z"/></g>
<g><path style="opacity:1" fill="#ecf0f5" d="M 163.5,184.5 C 163.167,184.5 162.833,184.5 162.5,184.5C 161.218,183.292 161.218,181.958 162.5,180.5C 163.429,181.689 163.762,183.022 163.5,184.5 Z"/></g>
<g><path style="opacity:1" fill="#14468a" d="M 123.5,198.5 C 121.251,197.92 119.585,196.587 118.5,194.5C 122.092,194.286 125.592,193.619 129,192.5C 132.514,193.087 136.014,193.754 139.5,194.5C 142.429,193.537 145.429,192.87 148.5,192.5C 152.02,193.062 155.52,193.729 159,194.5C 165.999,191.556 172.833,191.889 179.5,195.5C 178.663,197.505 177.163,198.505 175,198.5C 157.81,197.198 140.643,197.198 123.5,198.5 Z"/></g>
<g><path style="opacity:1" fill="#ecf0f6" d="M 155.5,207.5 C 156.263,208.268 157.263,208.768 158.5,209C 152.177,210.935 145.843,210.935 139.5,209C 140.737,208.768 141.737,208.268 142.5,207.5C 146.833,206.167 151.167,206.167 155.5,207.5 Z"/></g>
<g><path style="opacity:1" fill="#e7f2f9" d="M 115.5,229.5 C 117.467,229.261 119.301,229.594 121,230.5C 121.373,232.698 121.873,234.865 122.5,237C 121.219,240.044 118.885,241.21 115.5,240.5C 115.5,236.833 115.5,233.167 115.5,229.5 Z"/></g>
<g><path style="opacity:1" fill="#d1e7f3" d="M 151.5,229.5 C 153.527,229.338 155.527,229.505 157.5,230C 156.207,230.49 154.873,230.657 153.5,230.5C 153.5,231.833 153.5,233.167 153.5,234.5C 158.833,234.833 158.833,235.167 153.5,235.5C 153.5,236.833 153.5,238.167 153.5,239.5C 154.873,239.343 156.207,239.51 157.5,240C 155.527,240.495 153.527,240.662 151.5,240.5C 151.5,236.833 151.5,233.167 151.5,229.5 Z"/></g>
<g><path style="opacity:1" fill="#f7fbfd" d="M 159.5,229.5 C 160.479,232.625 160.813,235.958 160.5,239.5C 162.199,239.34 163.866,239.506 165.5,240C 163.527,240.495 161.527,240.662 159.5,240.5C 159.5,236.833 159.5,233.167 159.5,229.5 Z"/></g>
<g><path style="opacity:1" fill="#388eca" d="M 116.5,230.5 C 118.346,230.222 119.68,230.889 120.5,232.5C 119.68,234.111 118.346,234.778 116.5,234.5C 116.5,233.167 116.5,231.833 116.5,230.5 Z"/></g>
<g><path style="opacity:1" fill="#c9e2f1" d="M 133.5,229.5 C 135.792,229.244 137.959,229.577 140,230.5C 139.333,233.833 139.333,237.167 140,240.5C 137.767,234.104 135.933,234.104 134.5,240.5C 133.511,236.893 133.177,233.226 133.5,229.5 Z"/></g>
<g><path style="opacity:1" fill="#0f7ec3" d="M 135.5,230.5 C 136.5,230.5 137.5,230.5 138.5,230.5C 138.5,231.833 138.5,233.167 138.5,234.5C 137.5,234.5 136.5,234.5 135.5,234.5C 135.5,233.167 135.5,231.833 135.5,230.5 Z"/></g>
<g><path style="opacity:1" fill="#cfe5f3" d="M 178.5,229.5 C 179.873,229.343 181.207,229.51 182.5,230C 177.232,231.555 177.232,233.221 182.5,235C 184.323,239.846 182.656,241.512 177.5,240C 178.793,239.51 180.127,239.343 181.5,239.5C 181.723,236.886 180.556,235.219 178,234.5C 177.36,232.735 177.527,231.068 178.5,229.5 Z"/></g>
<g><path style="opacity:1" fill="#2c87c7" d="M 116.5,235.5 C 117.833,235.5 119.167,235.5 120.5,235.5C 120.833,238.5 119.5,239.833 116.5,239.5C 116.5,238.167 116.5,236.833 116.5,235.5 Z"/></g>
<g><path style="opacity:1" fill="#a5cbe7" d="M 126.5,229.5 C 127.5,229.5 128.5,229.5 129.5,229.5C 130.091,232.94 131.091,236.273 132.5,239.5C 132.167,239.833 131.833,240.167 131.5,240.5C 130.614,239.675 130.281,238.675 130.5,237.5C 128.833,237.5 127.167,237.5 125.5,237.5C 125.719,238.675 125.386,239.675 124.5,240.5C 124.167,240 123.833,239.5 123.5,239C 124.662,235.853 125.662,232.686 126.5,229.5 Z"/></g>
<g><path style="opacity:1" fill="#daebf6" d="M 168.5,229.5 C 174.997,229.18 177.164,232.18 175,238.5C 171.706,241.311 168.706,240.978 166,237.5C 165.018,234.225 165.851,231.559 168.5,229.5 Z"/></g>
<g><path style="opacity:1" fill="#1c81c4" d="M 169.5,230.5 C 173.976,230.822 175.476,233.156 174,237.5C 170.509,240.446 168.342,239.612 167.5,235C 167.519,233.167 168.185,231.667 169.5,230.5 Z"/></g>
<g><path style="opacity:1" fill="#d6e9f5" d="M 144.5,229.5 C 150.208,229.492 150.541,229.992 145.5,231C 142.051,236.055 143.384,239.055 149.5,240C 141.088,239.812 139.421,236.312 144.5,229.5 Z"/></g>
</svg>
