<?xml version="1.0" encoding="UTF-8"?>
<!DOCTYPE svg PUBLIC "-//W3C//DTD SVG 1.1//EN" "http://www.w3.org/Graphics/SVG/1.1/DTD/svg11.dtd">
<svg xmlns="http://www.w3.org/2000/svg" version="1.1" width="300px" height="168px" style="shape-rendering:geometricPrecision; text-rendering:geometricPrecision; image-rendering:optimizeQuality; fill-rule:evenodd; clip-rule:evenodd" xmlns:xlink="http://www.w3.org/1999/xlink">
<g><path style="opacity:1" fill="#fefefe" d="M -0.5,-0.5 C 99.5,-0.5 199.5,-0.5 299.5,-0.5C 299.5,13.5 299.5,27.5 299.5,41.5C 298.033,38.7102 295.7,37.0435 292.5,36.5C 262.338,35.5019 232.005,35.1685 201.5,35.5C 201.737,34.209 201.404,33.209 200.5,32.5C 200.334,26.8236 200.501,21.1569 201,15.5C 202.186,10.4425 203.186,5.44254 204,0.5C 188.176,11.909 170.51,18.2423 151,19.5C 131.674,17.4465 113.841,11.1131 97.5,0.5C 97.1667,1.16667 96.8333,1.83333 96.5,2.5C 99.0585,13.3661 99.0585,24.1994 96.5,35C 65.8333,35.3333 35.1667,35.6667 4.5,36C 2.31305,37.025 0.646381,38.525 -0.5,40.5C -0.5,26.8333 -0.5,13.1667 -0.5,-0.5 Z"/></g>
<g><path style="opacity:1" fill="#ae9614" d="M 200.5,32.5 C 200.5,33.8333 200.5,35.1667 200.5,36.5C 231.167,36.5 261.833,36.5 292.5,36.5C 295.7,37.0435 298.033,38.7102 299.5,41.5C 299.5,43.5 299.5,45.5 299.5,47.5C 298.869,49.4478 297.869,51.2811 296.5,53C 291.934,54.3092 287.267,54.8092 282.5,54.5C 282.59,62.74 278.59,67.0733 270.5,67.5C 267.167,67.5 263.833,67.5 260.5,67.5C 260.5,68.5 260.5,69.5 260.5,70.5C 259.644,74.8544 256.977,77.3544 252.5,78C 246.175,78.4995 239.842,78.6662 233.5,78.5C 232.477,87.2068 227.477,90.8734 218.5,89.5C 218.202,92.2646 217.202,94.7646 215.5,97C 211.129,98.7721 206.629,99.9387 202,100.5C 199.582,109.337 195.582,117.337 190,124.5C 176.996,139.003 163.829,153.337 150.5,167.5C 150.167,167.5 149.833,167.5 149.5,167.5C 133.077,154.244 118.91,138.911 107,121.5C 102.973,114.779 99.4728,107.779 96.5,100.5C 87.9309,101.236 82.5976,97.569 80.5,89.5C 76.2982,89.6161 72.2982,88.7827 68.5,87C 66.4152,84.5806 65.4152,81.7472 65.5,78.5C 58.4921,78.6663 51.4921,78.4996 44.5,78C 40.5714,75.6471 38.5714,72.1471 38.5,67.5C 27.5969,69.72 20.2636,65.72 16.5,55.5C 12.2044,54.6725 7.8711,54.1725 3.5,54C 1.92975,52.6032 0.596413,51.1032 -0.5,49.5C -0.5,46.5 -0.5,43.5 -0.5,40.5C 0.646381,38.525 2.31305,37.025 4.5,36C 35.1667,35.6667 65.8333,35.3333 96.5,35C 99.0585,24.1994 99.0585,13.3661 96.5,2.5C 96.8333,1.83333 97.1667,1.16667 97.5,0.5C 113.841,11.1131 131.674,17.4465 151,19.5C 170.51,18.2423 188.176,11.909 204,0.5C 203.186,5.44254 202.186,10.4425 201,15.5C 200.501,21.1569 200.334,26.8236 200.5,32.5 Z"/></g>
<g><path style="opacity:1" fill="#165f24" d="M 194.5,13.5 C 191.143,17.852 187.809,22.1853 184.5,26.5C 175.523,26.3263 167.523,28.993 160.5,34.5C 162.457,38.7437 164.124,43.077 165.5,47.5C 146.833,68.5 128.167,89.5 109.5,110.5C 107.344,107.563 105.844,104.229 105,100.5C 100.739,82.0659 99.4057,63.3993 101,44.5C 102.182,33.7778 103.682,23.1111 105.5,12.5C 119.42,18.6404 133.92,22.6404 149,24.5C 164.701,22.9496 179.868,19.2829 194.5,13.5 Z"/></g>
<g><path style="opacity:1" fill="#fdfdfb" d="M 194.5,13.5 C 195.461,15.2646 195.795,17.2646 195.5,19.5C 195.612,37.8517 196.279,56.185 197.5,74.5C 197.545,89.0765 194.045,102.743 187,115.5C 175.736,130.634 163.07,144.634 149,157.5C 134.956,147.79 123.29,135.79 114,121.5C 111.928,118.029 110.428,114.362 109.5,110.5C 128.167,89.5 146.833,68.5 165.5,47.5C 165.666,51.5138 165.499,55.5138 165,59.5C 163.365,62.6319 161.532,65.6319 159.5,68.5C 161.575,74.4897 164.075,74.823 167,69.5C 168.734,62.8372 170.068,56.1705 171,49.5C 171.333,52.1667 171.667,54.8333 172,57.5C 173.395,61.3058 175.895,62.3058 179.5,60.5C 180.386,59.675 180.719,58.675 180.5,57.5C 179.167,57.5 177.833,57.5 176.5,57.5C 176.107,54.0703 176.773,50.9036 178.5,48C 176.4,44.1051 173.734,43.6051 170.5,46.5C 169.548,44.9547 169.215,43.288 169.5,41.5C 172.903,39.1002 175.57,36.1002 177.5,32.5C 178.978,32.238 180.311,32.5713 181.5,33.5C 179.127,38.1461 179.127,42.6461 181.5,47C 183.925,47.9859 185.591,47.3193 186.5,45C 185.449,42.6393 184.449,40.3059 183.5,38C 185.338,34.0193 187.338,30.186 189.5,26.5C 187.833,26.5 186.167,26.5 184.5,26.5C 187.809,22.1853 191.143,17.852 194.5,13.5 Z"/></g>
<g><path style="opacity:1" fill="#c7c18c" d="M 194.5,13.5 C 194.56,12.9569 194.893,12.6236 195.5,12.5C 196.797,14.9732 196.797,17.3066 195.5,19.5C 195.795,17.2646 195.461,15.2646 194.5,13.5 Z"/></g>
<g><path style="opacity:1" fill="#ae9719" d="M 184.5,26.5 C 186.167,26.5 187.833,26.5 189.5,26.5C 187.338,30.186 185.338,34.0193 183.5,38C 184.449,40.3059 185.449,42.6393 186.5,45C 185.591,47.3193 183.925,47.9859 181.5,47C 179.127,42.6461 179.127,38.1461 181.5,33.5C 180.311,32.5713 178.978,32.238 177.5,32.5C 170.612,31.7224 167.945,34.7224 169.5,41.5C 169.215,43.288 169.548,44.9547 170.5,46.5C 173.734,43.6051 176.4,44.1051 178.5,48C 176.773,50.9036 176.107,54.0703 176.5,57.5C 177.833,57.5 179.167,57.5 180.5,57.5C 180.719,58.675 180.386,59.675 179.5,60.5C 175.895,62.3058 173.395,61.3058 172,57.5C 171.667,54.8333 171.333,52.1667 171,49.5C 170.068,56.1705 168.734,62.8372 167,69.5C 164.075,74.823 161.575,74.4897 159.5,68.5C 161.532,65.6319 163.365,62.6319 165,59.5C 165.499,55.5138 165.666,51.5138 165.5,47.5C 164.124,43.077 162.457,38.7437 160.5,34.5C 167.523,28.993 175.523,26.3263 184.5,26.5 Z"/></g>
<g><path style="opacity:1" fill="#a99414" d="M 110.5,26.5 C 115.422,30.0801 120.089,34.0801 124.5,38.5C 126.657,36.1778 128.99,34.0111 131.5,32C 133.909,30.2932 136.575,29.4598 139.5,29.5C 140.011,33.3879 138.345,35.7212 134.5,36.5C 133.072,47.1629 135.072,57.1629 140.5,66.5C 139.876,68.754 138.543,70.4206 136.5,71.5C 134.527,68.7542 133.027,65.7542 132,62.5C 130.533,55.2315 129.533,47.8981 129,40.5C 128.333,41.1667 127.667,41.8333 127,42.5C 126.882,45.3713 126.216,48.038 125,50.5C 123.333,48.1667 121.667,45.8333 120,43.5C 118.945,50.5537 117.611,57.5537 116,64.5C 115.108,67.9518 113.442,70.9518 111,73.5C 109.565,71.6264 108.398,69.6264 107.5,67.5C 112.674,57.7895 114.84,47.4561 114,36.5C 111.049,33.8285 109.883,30.4952 110.5,26.5 Z"/></g>
<g><path style="opacity:1" fill="#1b5f21" d="M 177.5,32.5 C 175.57,36.1002 172.903,39.1002 169.5,41.5C 167.945,34.7224 170.612,31.7224 177.5,32.5 Z"/></g>
<g><path style="opacity:1" fill="#eae4cb" d="M 200.5,32.5 C 201.404,33.209 201.737,34.209 201.5,35.5C 232.005,35.1685 262.338,35.5019 292.5,36.5C 261.833,36.5 231.167,36.5 200.5,36.5C 200.5,35.1667 200.5,33.8333 200.5,32.5 Z"/></g>
<g><path style="opacity:1" fill="#fefefe" d="M -0.5,49.5 C 0.596413,51.1032 1.92975,52.6032 3.5,54C 7.8711,54.1725 12.2044,54.6725 16.5,55.5C 20.2636,65.72 27.5969,69.72 38.5,67.5C 38.5714,72.1471 40.5714,75.6471 44.5,78C 51.4921,78.4996 58.4921,78.6663 65.5,78.5C 65.4152,81.7472 66.4152,84.5806 68.5,87C 72.2982,88.7827 76.2982,89.6161 80.5,89.5C 82.5976,97.569 87.9309,101.236 96.5,100.5C 99.4728,107.779 102.973,114.779 107,121.5C 118.91,138.911 133.077,154.244 149.5,167.5C 99.5,167.5 49.5,167.5 -0.5,167.5C -0.5,128.167 -0.5,88.8333 -0.5,49.5 Z"/></g>
<g><path style="opacity:1" fill="#fefefe" d="M 299.5,47.5 C 299.5,87.5 299.5,127.5 299.5,167.5C 249.833,167.5 200.167,167.5 150.5,167.5C 163.829,153.337 176.996,139.003 190,124.5C 195.582,117.337 199.582,109.337 202,100.5C 206.629,99.9387 211.129,98.7721 215.5,97C 217.202,94.7646 218.202,92.2646 218.5,89.5C 227.477,90.8734 232.477,87.2068 233.5,78.5C 239.842,78.6662 246.175,78.4995 252.5,78C 256.977,77.3544 259.644,74.8544 260.5,70.5C 263.704,69.0115 267.037,68.0115 270.5,67.5C 278.59,67.0733 282.59,62.74 282.5,54.5C 287.267,54.8092 291.934,54.3092 296.5,53C 297.869,51.2811 298.869,49.4478 299.5,47.5 Z"/></g>
<g><path style="opacity:1" fill="#d7cc9e" d="M 270.5,67.5 C 267.037,68.0115 263.704,69.0115 260.5,70.5C 260.5,69.5 260.5,68.5 260.5,67.5C 263.833,67.5 267.167,67.5 270.5,67.5 Z"/></g>
<g><path style="opacity:1" fill="#af971a" d="M 156.5,96.5 C 157.833,96.5 159.167,96.5 160.5,96.5C 160.657,97.8734 160.49,99.2068 160,100.5C 158.512,103.333 156.845,105.999 155,108.5C 154.228,108.355 153.561,108.022 153,107.5C 152.503,105.19 152.337,102.857 152.5,100.5C 148.039,100.79 145.205,103.123 144,107.5C 143.333,114.5 143.333,121.5 144,128.5C 148.568,135.483 152.068,134.983 154.5,127C 154.385,125.105 153.718,123.438 152.5,122C 154,120.5 155.5,119 157,117.5C 157.903,123.281 157.57,128.947 156,134.5C 149.287,140.395 143.62,139.395 139,131.5C 137.424,127.439 136.257,123.272 135.5,119C 137.233,113.361 139.4,107.861 142,102.5C 146.014,98.3485 150.848,96.3485 156.5,96.5 Z"/></g>
</svg>
