<?xml version="1.0" encoding="UTF-8"?>
<svg version="1.1" xmlns="http://www.w3.org/2000/svg" width="30" height="30">
<path d="M0 0 C1.85625 0.2784375 1.85625 0.2784375 3.75 0.5625 C6.76279577 0.94711223 9.10010827 1.0874594 12 0 C12 1.32 12 2.64 12 4 C14.97 4 17.94 4 21 4 C21 4.99 21 5.98 21 7 C20.40832031 7.29132812 19.81664063 7.58265625 19.20703125 7.8828125 C13.90806011 10.63170781 10.49441987 13.15290146 7 18 C4.23836094 16.91507037 3.03810293 16.05171111 1.25 13.625 C-1.67900709 10.20782506 -4.92677808 8.76967651 -9 7 C-9 6.01 -9 5.02 -9 4 C-6.03 4 -3.06 4 0 4 C0 2.68 0 1.36 0 0 Z " fill="#C1B04D" transform="translate(9,6)"/>
<path d="M0 0 C3.3 0.66 6.6 1.32 10 2 C4.375 9.875 4.375 9.875 1 11 C-1.48046875 10.22265625 -1.48046875 10.22265625 -4.1875 9.0625 C-5.08855469 8.68222656 -5.98960938 8.30195313 -6.91796875 7.91015625 C-7.94857422 7.45962891 -7.94857422 7.45962891 -9 7 C-9 6.01 -9 5.02 -9 4 C-6.03 4 -3.06 4 0 4 C0 2.68 0 1.36 0 0 Z " fill="#B59F27" transform="translate(9,6)"/>
<path d="M0 0 C0.33 0 0.66 0 1 0 C1.36923077 6.4 1.36923077 6.4 -0.5 9.4375 C-0.995 9.953125 -1.49 10.46875 -2 11 C-3.32 10.34 -4.64 9.68 -6 9 C-6 7.68 -6 6.36 -6 5 C-4.125 3.375 -4.125 3.375 -2 2 C-1.34 1.34 -0.68 0.68 0 0 Z " fill="#FAFAF4" transform="translate(18,11)"/>
<path d="M0 0 C3.3 0.33 6.6 0.66 10 1 C10 1.99 10 2.98 10 4 C7.03 5.32 4.06 6.64 1 8 C0 7 0 7 -0.0625 3.4375 C-0.041875 2.303125 -0.02125 1.16875 0 0 Z " fill="#B59E24" transform="translate(20,9)"/>
<path d="M0 0 C2.97 0 5.94 0 9 0 C8.07161713 1.31896465 7.13194268 2.62998689 6.1875 3.9375 C5.40439453 5.03384766 5.40439453 5.03384766 4.60546875 6.15234375 C3 8 3 8 0 9 C0 6.03 0 3.06 0 0 Z " fill="#447225" transform="translate(10,8)"/>
<path d="M0 0 C-0.33 3.3 -0.66 6.6 -1 10 C-1.66 9.01 -2.32 8.02 -3 7 C-3.99 7 -4.98 7 -6 7 C-5.01 5.68 -4.02 4.36 -3 3 C-3.33 2.34 -3.66 1.68 -4 1 C-2 0 -2 0 0 0 Z " fill="#C9C27E" transform="translate(21,6)"/>
<path d="M0 0 C2.0625 0.4375 2.0625 0.4375 4 1 C4.33 2.32 4.66 3.64 5 5 C3.68 5 2.36 5 1 5 C0.34 3.68 -0.32 2.36 -1 1 C-0.67 0.67 -0.34 0.34 0 0 Z " fill="#E8E4C5" transform="translate(12,16)"/>
</svg>
