<?xml version="1.0" encoding="UTF-8"?>
<!DOCTYPE svg PUBLIC "-//W3C//DTD SVG 1.1//EN" "http://www.w3.org/Graphics/SVG/1.1/DTD/svg11.dtd">
<svg xmlns="http://www.w3.org/2000/svg" version="1.1" width="300px" height="168px" style="shape-rendering:geometricPrecision; text-rendering:geometricPrecision; image-rendering:optimizeQuality; fill-rule:evenodd; clip-rule:evenodd" xmlns:xlink="http://www.w3.org/1999/xlink">
<g><path style="opacity:1" fill="#fefefe" d="M -0.5,-0.5 C 99.5,-0.5 199.5,-0.5 299.5,-0.5C 299.5,13.5 299.5,27.5 299.5,41.5C 298.033,38.7102 295.7,37.0435 292.5,36.5C 262.338,35.5019 232.005,35.1685 201.5,35.5C 201.737,34.209 201.404,33.209 200.5,32.5C 200.334,27.1563 200.501,21.8229 201,16.5C 202.028,11.0783 203.028,5.74496 204,0.5C 188.176,11.909 170.51,18.2423 151,19.5C 131.674,17.4465 113.841,11.1131 97.5,0.5C 97.1667,1.16667 96.8333,1.83333 96.5,2.5C 99.1037,13.3692 99.1037,24.2025 96.5,35C 65.8333,35.3333 35.1667,35.6667 4.5,36C 2.31305,37.025 0.646381,38.525 -0.5,40.5C -0.5,26.8333 -0.5,13.1667 -0.5,-0.5 Z"/></g>
<g><path style="opacity:1" fill="#ae9714" d="M 200.5,32.5 C 200.5,33.8333 200.5,35.1667 200.5,36.5C 231.167,36.5 261.833,36.5 292.5,36.5C 295.7,37.0435 298.033,38.7102 299.5,41.5C 299.5,43.5 299.5,45.5 299.5,47.5C 298.869,49.4478 297.869,51.2811 296.5,53C 291.934,54.3092 287.267,54.8092 282.5,54.5C 282.752,61.6874 279.418,66.0207 272.5,67.5C 268.029,66.9106 264.029,67.5772 260.5,69.5C 260.456,73.0897 258.789,75.5897 255.5,77C 248.254,78.3905 240.921,78.8905 233.5,78.5C 232.477,87.2068 227.477,90.8734 218.5,89.5C 218.202,92.2646 217.202,94.7646 215.5,97C 211.129,98.7721 206.629,99.9387 202,100.5C 199.582,109.337 195.582,117.337 190,124.5C 176.996,139.003 163.829,153.337 150.5,167.5C 150.167,167.5 149.833,167.5 149.5,167.5C 133.077,154.244 118.91,138.911 107,121.5C 102.973,114.779 99.4728,107.779 96.5,100.5C 87.9309,101.236 82.5976,97.569 80.5,89.5C 76.2982,89.6161 72.2982,88.7827 68.5,87C 66.0695,84.6954 65.0695,81.8621 65.5,78.5C 58.4921,78.6663 51.4921,78.4996 44.5,78C 40.5792,75.6649 38.5792,72.1649 38.5,67.5C 27.6335,69.737 20.3001,65.737 16.5,55.5C 12.2044,54.6725 7.8711,54.1725 3.5,54C 1.92975,52.6032 0.596413,51.1032 -0.5,49.5C -0.5,46.5 -0.5,43.5 -0.5,40.5C 0.646381,38.525 2.31305,37.025 4.5,36C 35.1667,35.6667 65.8333,35.3333 96.5,35C 99.1037,24.2025 99.1037,13.3692 96.5,2.5C 96.8333,1.83333 97.1667,1.16667 97.5,0.5C 113.841,11.1131 131.674,17.4465 151,19.5C 170.51,18.2423 188.176,11.909 204,0.5C 203.028,5.74496 202.028,11.0783 201,16.5C 200.501,21.8229 200.334,27.1563 200.5,32.5 Z"/></g>
<g><path style="opacity:1" fill="#165f24" d="M 194.5,13.5 C 191.143,17.852 187.809,22.1853 184.5,26.5C 175.463,26.1788 167.463,28.8455 160.5,34.5C 162.457,38.7437 164.124,43.077 165.5,47.5C 146.833,68.5 128.167,89.5 109.5,110.5C 106.809,106.278 104.976,101.612 104,96.5C 99.1354,68.406 99.6354,40.406 105.5,12.5C 119.705,18.8464 134.538,22.8464 150,24.5C 165.27,22.5762 180.103,18.9095 194.5,13.5 Z"/></g>
<g><path style="opacity:1" fill="#fdfdfb" d="M 194.5,13.5 C 195.468,15.6074 195.802,17.9407 195.5,20.5C 195.649,38.5172 196.316,56.5172 197.5,74.5C 197.586,89.0778 194.086,102.744 187,115.5C 175.812,130.695 163.146,144.695 149,157.5C 138.679,149.178 129.012,140.178 120,130.5C 115.18,124.526 111.68,117.859 109.5,110.5C 128.167,89.5 146.833,68.5 165.5,47.5C 165.666,51.5138 165.499,55.5138 165,59.5C 163.365,62.6319 161.532,65.6319 159.5,68.5C 161.575,74.4897 164.075,74.823 167,69.5C 168.85,63.3129 170.016,56.9796 170.5,50.5C 171.049,54.3508 172.382,57.8508 174.5,61C 177.955,62.1111 179.955,60.9444 180.5,57.5C 179.167,57.5 177.833,57.5 176.5,57.5C 176.107,54.0703 176.773,50.9036 178.5,48C 176.4,44.1051 173.734,43.6051 170.5,46.5C 169.548,44.9547 169.215,43.288 169.5,41.5C 172.903,39.1002 175.57,36.1002 177.5,32.5C 178.833,32.5 180.167,32.5 181.5,32.5C 179.922,36.711 179.422,41.0443 180,45.5C 182.536,48.3127 184.703,48.146 186.5,45C 184.295,41.7783 183.461,38.2783 184,34.5C 186.903,32.4537 188.736,29.787 189.5,26.5C 187.833,26.5 186.167,26.5 184.5,26.5C 187.809,22.1853 191.143,17.852 194.5,13.5 Z"/></g>
<g><path style="opacity:1" fill="#c6bd85" d="M 194.5,13.5 C 194.56,12.9569 194.893,12.6236 195.5,12.5C 196.8,15.3092 196.8,17.9759 195.5,20.5C 195.802,17.9407 195.468,15.6074 194.5,13.5 Z"/></g>
<g><path style="opacity:1" fill="#af9719" d="M 184.5,26.5 C 186.167,26.5 187.833,26.5 189.5,26.5C 188.736,29.787 186.903,32.4537 184,34.5C 183.461,38.2783 184.295,41.7783 186.5,45C 184.703,48.146 182.536,48.3127 180,45.5C 179.422,41.0443 179.922,36.711 181.5,32.5C 180.167,32.5 178.833,32.5 177.5,32.5C 170.612,31.7224 167.945,34.7224 169.5,41.5C 169.215,43.288 169.548,44.9547 170.5,46.5C 173.734,43.6051 176.4,44.1051 178.5,48C 176.773,50.9036 176.107,54.0703 176.5,57.5C 177.833,57.5 179.167,57.5 180.5,57.5C 179.955,60.9444 177.955,62.1111 174.5,61C 172.382,57.8508 171.049,54.3508 170.5,50.5C 170.016,56.9796 168.85,63.3129 167,69.5C 164.075,74.823 161.575,74.4897 159.5,68.5C 161.532,65.6319 163.365,62.6319 165,59.5C 165.499,55.5138 165.666,51.5138 165.5,47.5C 164.124,43.077 162.457,38.7437 160.5,34.5C 167.463,28.8455 175.463,26.1788 184.5,26.5 Z"/></g>
<g><path style="opacity:1" fill="#a99414" d="M 110.5,26.5 C 115.422,30.0801 120.089,34.0801 124.5,38.5C 126.657,36.1778 128.99,34.0111 131.5,32C 133.909,30.2932 136.575,29.4598 139.5,29.5C 140.051,33.7064 138.217,36.0397 134,36.5C 132.78,47.2343 134.947,57.2343 140.5,66.5C 138.567,72.273 136.4,72.6063 134,67.5C 130.718,58.8098 129.051,49.8098 129,40.5C 128.333,41.1667 127.667,41.8333 127,42.5C 126.882,45.3713 126.216,48.038 125,50.5C 123.333,48.1667 121.667,45.8333 120,43.5C 118.994,50.5505 117.661,57.5505 116,64.5C 115.108,67.9518 113.442,70.9518 111,73.5C 109.565,71.6264 108.398,69.6264 107.5,67.5C 112.672,57.7914 114.839,47.458 114,36.5C 111.049,33.8285 109.883,30.4952 110.5,26.5 Z"/></g>
<g><path style="opacity:1" fill="#175e1f" d="M 177.5,32.5 C 175.57,36.1002 172.903,39.1002 169.5,41.5C 167.945,34.7224 170.612,31.7224 177.5,32.5 Z"/></g>
<g><path style="opacity:1" fill="#ebe5cf" d="M 200.5,32.5 C 201.404,33.209 201.737,34.209 201.5,35.5C 232.005,35.1685 262.338,35.5019 292.5,36.5C 261.833,36.5 231.167,36.5 200.5,36.5C 200.5,35.1667 200.5,33.8333 200.5,32.5 Z"/></g>
<g><path style="opacity:1" fill="#fefefe" d="M -0.5,49.5 C 0.596413,51.1032 1.92975,52.6032 3.5,54C 7.8711,54.1725 12.2044,54.6725 16.5,55.5C 20.3001,65.737 27.6335,69.737 38.5,67.5C 38.5792,72.1649 40.5792,75.6649 44.5,78C 51.4921,78.4996 58.4921,78.6663 65.5,78.5C 65.0695,81.8621 66.0695,84.6954 68.5,87C 72.2982,88.7827 76.2982,89.6161 80.5,89.5C 82.5976,97.569 87.9309,101.236 96.5,100.5C 99.4728,107.779 102.973,114.779 107,121.5C 118.91,138.911 133.077,154.244 149.5,167.5C 99.5,167.5 49.5,167.5 -0.5,167.5C -0.5,128.167 -0.5,88.8333 -0.5,49.5 Z"/></g>
<g><path style="opacity:1" fill="#fefefe" d="M 299.5,47.5 C 299.5,87.5 299.5,127.5 299.5,167.5C 249.833,167.5 200.167,167.5 150.5,167.5C 163.829,153.337 176.996,139.003 190,124.5C 195.582,117.337 199.582,109.337 202,100.5C 206.629,99.9387 211.129,98.7721 215.5,97C 217.202,94.7646 218.202,92.2646 218.5,89.5C 227.477,90.8734 232.477,87.2068 233.5,78.5C 240.921,78.8905 248.254,78.3905 255.5,77C 258.789,75.5897 260.456,73.0897 260.5,69.5C 264.605,68.8914 268.605,68.2248 272.5,67.5C 279.418,66.0207 282.752,61.6874 282.5,54.5C 287.267,54.8092 291.934,54.3092 296.5,53C 297.869,51.2811 298.869,49.4478 299.5,47.5 Z"/></g>
<g><path style="opacity:1" fill="#d9cfa2" d="M 272.5,67.5 C 268.605,68.2248 264.605,68.8914 260.5,69.5C 264.029,67.5772 268.029,66.9106 272.5,67.5 Z"/></g>
<g><path style="opacity:1" fill="#af9615" d="M 156.5,96.5 C 157.833,96.5 159.167,96.5 160.5,96.5C 159.495,100.198 158.162,103.865 156.5,107.5C 155.675,108.386 154.675,108.719 153.5,108.5C 152.908,105.873 152.575,103.206 152.5,100.5C 148.039,100.79 145.205,103.123 144,107.5C 142.434,114.452 142.434,121.452 144,128.5C 146.992,134.596 150.325,134.93 154,129.5C 154.782,126.743 154.282,124.243 152.5,122C 154,120.5 155.5,119 157,117.5C 157.903,123.281 157.57,128.947 156,134.5C 149.211,140.424 143.544,139.424 139,131.5C 137.365,127.291 136.198,122.958 135.5,118.5C 137.378,113.074 139.545,107.74 142,102.5C 146.014,98.3485 150.848,96.3485 156.5,96.5 Z"/></g>
</svg>
