<?xml version="1.0" encoding="UTF-8"?>
<svg version="1.1" xmlns="http://www.w3.org/2000/svg" width="30" height="30">
<path d="M0 0 C3.80333334 2.2386338 7.00833378 5.01666757 9 9 C9.69116213 14.10517482 10.18851602 18.98076728 7.5078125 23.53515625 C2.1014129 29.71550102 2.1014129 29.71550102 -2.5390625 30.34375 C-8.40325365 30.64067107 -12.14203975 30.60124653 -16.6875 26.625 C-21.24480607 22.03938768 -21.50753995 18.50784836 -21.4921875 12.12890625 C-20.69821069 7.08148225 -17.84877452 4.17828665 -14 1 C-9.73179902 -1.13410049 -4.60927974 -0.72505524 0 0 Z " fill="#CDAB30" transform="translate(21,0)"/>
<path d="M0 0 C5.57894737 3.15789474 5.57894737 3.15789474 7 6 C7.35017306 11.3401391 7.46830225 14.66462219 4 19 C1.52305174 21.23724359 -0.61334472 22.90323842 -4 23 C-8.25308123 21.1346135 -10.34030468 19.97890273 -12.9375 16.125 C-14.10310803 12.69674109 -14.60927624 10.5794979 -14 7 C-9.87838955 2.09862541 -6.55097746 -0.77070323 0 0 Z " fill="#B19D58" transform="translate(18,4)"/>
<path d="M0 0 C3.80333334 2.2386338 7.00833378 5.01666757 9 9 C9.69116213 14.10517482 10.18851602 18.98076728 7.5078125 23.53515625 C2.1014129 29.71550102 2.1014129 29.71550102 -2.5390625 30.34375 C-8.40325365 30.64067107 -12.14203975 30.60124653 -16.6875 26.625 C-21.24480607 22.03938768 -21.50753995 18.50784836 -21.4921875 12.12890625 C-20.69821069 7.08148225 -17.84877452 4.17828665 -14 1 C-9.73179902 -1.13410049 -4.60927974 -0.72505524 0 0 Z M-17 6 C-20.11754738 10.28662764 -20.42546201 13.72748379 -19.64453125 18.81640625 C-18.37440331 23.11944577 -15.72571731 25.73447397 -12.125 28.375 C-7.71666955 29.67156778 -4.09147212 29.40662687 0.1875 27.8125 C4.22593343 25.20995401 6.48039779 22.55880664 8 18 C8.53923825 12.28407456 7.63434458 9.44197671 4 5 C0.73402627 2.12990187 -1.8969566 1.12727424 -6.25 0.625 C-11.04869578 1.10486958 -13.58709585 2.6750573 -17 6 Z " fill="#974E95" transform="translate(21,0)"/>
<path d="M0 0 C0.66 0 1.32 0 2 0 C2.33 3.3 2.66 6.6 3 10 C4.32 9.34 5.64 8.68 7 8 C7.99 8 8.98 8 10 8 C8.30528925 12.09555099 6.07236458 13.92808729 2.1875 15.9375 C-1.43638365 16.04103953 -4.22125199 14.2303109 -7 12 C-7.9375 9.75 -7.9375 9.75 -8 8 C-3.25 9.875 -3.25 9.875 -1 11 C-0.67 7.37 -0.34 3.74 0 0 Z " fill="#956C58" transform="translate(14,11)"/>
<path d="M0 0 C5.625 0 5.625 0 9 3 C8.8125 5.3125 8.8125 5.3125 8 8 C5.625 9.875 5.625 9.875 3 11 C2.01 10.67 1.02 10.34 0 10 C0 6.7 0 3.4 0 0 Z " fill="#BEAE71" transform="translate(16,11)"/>
<path d="M0 0 C3.3125 1.625 3.3125 1.625 6 4 C6.875 7.25 6.875 7.25 7 10 C5.0625 9.25 5.0625 9.25 3 8 C2.25 5.875 2.25 5.875 2 4 C-0.02126284 4 -2.04291874 4.04256811 -4.0625 4.125 C-7 4 -7 4 -9 2 C-5.46569344 -0.35620437 -4.16428713 -0.48991613 0 0 Z " fill="#8B6457" transform="translate(18,4)"/>
<path d="M0 0 C5.625 -0.25 5.625 -0.25 9 2 C8.67 2.99 8.34 3.98 8 5 C5.03 4.67 2.06 4.34 -1 4 C-0.67 2.68 -0.34 1.36 0 0 Z " fill="#BE9B44" transform="translate(12,6)"/>
<path d="M0 0 C-1.15173355 2.46800047 -2.04783565 4.04783565 -4 6 C-7.125 5.625 -7.125 5.625 -10 5 C-9.01 4.34 -8.02 3.68 -7 3 C-6.34 2.46375 -5.68 1.9275 -5 1.375 C-3 0 -3 0 0 0 Z " fill="#99656A" transform="translate(24,19)"/>
<path d="M0 0 C0.66 0 1.32 0 2 0 C2.33 3.3 2.66 6.6 3 10 C1.68 10.33 0.36 10.66 -1 11 C-0.67 7.37 -0.34 3.74 0 0 Z " fill="#85817F" transform="translate(14,11)"/>
<path d="M0 0 C0.66 0.99 1.32 1.98 2 3 C1.01 4.32 0.02 5.64 -1 7 C-1.99 6.67 -2.98 6.34 -4 6 C-2.25 1.125 -2.25 1.125 0 0 Z " fill="#89596A" transform="translate(8,7)"/>
<path d="M0 0 C-0.33 0.66 -0.66 1.32 -1 2 C-1.36141955 4.32914823 -1.69699525 6.66253478 -2 9 C-2.33 9 -2.66 9 -3 9 C-3 7.02 -3 5.04 -3 3 C-3.99 3.33 -4.98 3.66 -6 4 C-6 2.68 -6 1.36 -6 0 C-3 -1 -3 -1 0 0 Z " fill="#DBDADA" transform="translate(16,11)"/>
</svg>
