<?xml version="1.0" encoding="UTF-8"?>
<!DOCTYPE svg PUBLIC "-//W3C//DTD SVG 1.1//EN" "http://www.w3.org/Graphics/SVG/1.1/DTD/svg11.dtd">
<svg xmlns="http://www.w3.org/2000/svg" version="1.1" width="360px" height="256px" style="shape-rendering:geometricPrecision; text-rendering:geometricPrecision; image-rendering:optimizeQuality; fill-rule:evenodd; clip-rule:evenodd" xmlns:xlink="http://www.w3.org/1999/xlink">
<g><path style="opacity:1" fill="#fefffe" d="M -0.5,-0.5 C 4.5,-0.5 9.5,-0.5 14.5,-0.5C 14.5,4.5 14.5,9.5 14.5,14.5C 9.5,14.5 4.5,14.5 -0.5,14.5C -0.5,9.5 -0.5,4.5 -0.5,-0.5 Z"/></g>
<g><path style="opacity:1" fill="#edefed" d="M 14.5,-0.5 C 19.5,-0.5 24.5,-0.5 29.5,-0.5C 29.5,4.5 29.5,9.5 29.5,14.5C 24.5,14.5 19.5,14.5 14.5,14.5C 14.5,9.5 14.5,4.5 14.5,-0.5 Z"/></g>
<g><path style="opacity:1" fill="#fefffe" d="M 29.5,-0.5 C 34.5,-0.5 39.5,-0.5 44.5,-0.5C 44.5,4.5 44.5,9.5 44.5,14.5C 39.5,14.5 34.5,14.5 29.5,14.5C 29.5,9.5 29.5,4.5 29.5,-0.5 Z"/></g>
<g><path style="opacity:1" fill="#edefed" d="M 44.5,-0.5 C 49.5,-0.5 54.5,-0.5 59.5,-0.5C 59.5,4.5 59.5,9.5 59.5,14.5C 54.5,14.5 49.5,14.5 44.5,14.5C 44.5,9.5 44.5,4.5 44.5,-0.5 Z"/></g>
<g><path style="opacity:1" fill="#fefffe" d="M 59.5,-0.5 C 64.5,-0.5 69.5,-0.5 74.5,-0.5C 74.5,4.5 74.5,9.5 74.5,14.5C 69.5,14.5 64.5,14.5 59.5,14.5C 59.5,9.5 59.5,4.5 59.5,-0.5 Z"/></g>
<g><path style="opacity:1" fill="#edefed" d="M 74.5,-0.5 C 79.5,-0.5 84.5,-0.5 89.5,-0.5C 89.5,4.5 89.5,9.5 89.5,14.5C 84.5,14.5 79.5,14.5 74.5,14.5C 74.5,9.5 74.5,4.5 74.5,-0.5 Z"/></g>
<g><path style="opacity:1" fill="#1a6c43" d="M 178.5,-0.5 C 181.167,-0.5 183.833,-0.5 186.5,-0.5C 190.443,0.311853 194.443,1.31185 198.5,2.5C 198.806,5.38544 198.473,8.0521 197.5,10.5C 190.79,7.68492 183.79,6.85159 176.5,8C 168.538,10.0924 166.038,14.9257 169,22.5C 178.548,28.7732 188.382,29.1065 198.5,23.5C 199.466,25.396 199.799,27.396 199.5,29.5C 199.586,30.4959 199.252,31.3292 198.5,32C 186.118,36.9479 174.118,36.2813 162.5,30C 151.77,20.9165 152.103,12.2498 163.5,4C 168.482,2.01036 173.482,0.510365 178.5,-0.5 Z"/></g>
<g><path style="opacity:1" fill="#80ae99" d="M 198.5,2.5 C 199.803,5.3553 199.803,8.3553 198.5,11.5C 197.893,11.3764 197.56,11.0431 197.5,10.5C 198.473,8.0521 198.806,5.38544 198.5,2.5 Z"/></g>
<g><path style="opacity:1" fill="#176b42" d="M 240.5,31.5 C 236.818,31.6653 233.152,31.4986 229.5,31C 226.647,29.5699 223.647,28.7366 220.5,28.5C 219.624,32.4616 218.958,36.4616 218.5,40.5C 214.765,39.6988 211.099,38.6988 207.5,37.5C 207.575,34.7938 207.908,32.1272 208.5,29.5C 211.739,21.7839 214.405,13.7839 216.5,5.5C 226.71,7.79137 236.377,11.458 245.5,16.5C 247.391,19.9618 247.891,23.6284 247,27.5C 245.362,29.7337 243.195,31.067 240.5,31.5 Z"/></g>
<g><path style="opacity:1" fill="#186c43" d="M 142.5,12.5 C 137.894,14.2418 132.894,15.4085 127.5,16C 124.307,17.0255 122.974,19.1922 123.5,22.5C 129.816,21.6423 136.15,21.4756 142.5,22C 151.009,23.9909 152.842,28.8242 148,36.5C 139.934,43.9659 130.767,46.6326 120.5,44.5C 120.249,42.8297 119.582,41.3297 118.5,40C 124.325,39.8514 129.992,38.8514 135.5,37C 141.096,33.6479 140.763,31.4812 134.5,30.5C 128.185,31.4878 121.852,31.6545 115.5,31C 111.247,27.5796 110.413,23.4129 113,18.5C 120.23,10.7972 129.064,7.46384 139.5,8.5C 140.521,9.9014 141.521,11.2347 142.5,12.5 Z"/></g>
<g><path style="opacity:1" fill="#edefed" d="M -0.5,14.5 C 4.5,14.5 9.5,14.5 14.5,14.5C 14.5,19.5 14.5,24.5 14.5,29.5C 9.5,29.5 4.5,29.5 -0.5,29.5C -0.5,24.5 -0.5,19.5 -0.5,14.5 Z"/></g>
<g><path style="opacity:1" fill="#fefffe" d="M 14.5,14.5 C 19.5,14.5 24.5,14.5 29.5,14.5C 29.5,19.5 29.5,24.5 29.5,29.5C 24.5,29.5 19.5,29.5 14.5,29.5C 14.5,24.5 14.5,19.5 14.5,14.5 Z"/></g>
<g><path style="opacity:1" fill="#edefed" d="M 29.5,14.5 C 34.5,14.5 39.5,14.5 44.5,14.5C 44.5,19.5 44.5,24.5 44.5,29.5C 39.5,29.5 34.5,29.5 29.5,29.5C 29.5,24.5 29.5,19.5 29.5,14.5 Z"/></g>
<g><path style="opacity:1" fill="#fefffe" d="M 44.5,14.5 C 49.5,14.5 54.5,14.5 59.5,14.5C 59.5,19.5 59.5,24.5 59.5,29.5C 54.5,29.5 49.5,29.5 44.5,29.5C 44.5,24.5 44.5,19.5 44.5,14.5 Z"/></g>
<g><path style="opacity:1" fill="#edefed" d="M 59.5,14.5 C 64.5,14.5 69.5,14.5 74.5,14.5C 74.5,19.5 74.5,24.5 74.5,29.5C 69.5,29.5 64.5,29.5 59.5,29.5C 59.5,24.5 59.5,19.5 59.5,14.5 Z"/></g>
<g><path style="opacity:1" fill="#fefffe" d="M 74.5,14.5 C 79.5,14.5 84.5,14.5 89.5,14.5C 89.5,19.5 89.5,24.5 89.5,29.5C 84.5,29.5 79.5,29.5 74.5,29.5C 74.5,24.5 74.5,19.5 74.5,14.5 Z"/></g>
<g><path style="opacity:1" fill="#f6f7f6" d="M 186.5,-0.5 C 244.167,-0.5 301.833,-0.5 359.5,-0.5C 359.5,49.5 359.5,99.5 359.5,149.5C 354.5,149.5 349.5,149.5 344.5,149.5C 344.5,144.5 344.5,139.5 344.5,134.5C 339.5,134.5 334.5,134.5 329.5,134.5C 329.5,129.5 329.5,124.5 329.5,119.5C 324.5,119.5 319.5,119.5 314.5,119.5C 314.5,114.5 314.5,109.5 314.5,104.5C 309.5,104.5 304.5,104.5 299.5,104.5C 299.5,99.5 299.5,94.5 299.5,89.5C 294.5,89.5 289.5,89.5 284.5,89.5C 284.5,84.5 284.5,79.5 284.5,74.5C 279.5,74.5 274.5,74.5 269.5,74.5C 269.5,69.5 269.5,64.5 269.5,59.5C 263.841,60.1997 258.175,60.3664 252.5,60C 254.414,55.1418 255.081,49.9752 254.5,44.5C 249.5,44.5 244.5,44.5 239.5,44.5C 239.5,40.8333 239.5,37.1667 239.5,33.5C 237.143,33.6633 234.81,33.4966 232.5,33C 235.365,32.8171 238.031,32.3171 240.5,31.5C 243.195,31.067 245.362,29.7337 247,27.5C 247.891,23.6284 247.391,19.9618 245.5,16.5C 236.377,11.458 226.71,7.79137 216.5,5.5C 214.405,13.7839 211.739,21.7839 208.5,29.5C 205.5,29.5 202.5,29.5 199.5,29.5C 199.799,27.396 199.466,25.396 198.5,23.5C 188.382,29.1065 178.548,28.7732 169,22.5C 166.038,14.9257 168.538,10.0924 176.5,8C 183.79,6.85159 190.79,7.68492 197.5,10.5C 197.56,11.0431 197.893,11.3764 198.5,11.5C 199.803,8.3553 199.803,5.3553 198.5,2.5C 194.443,1.31185 190.443,0.311853 186.5,-0.5 Z"/></g>
<g><path style="opacity:1" fill="#ebf2ee" d="M 225.5,14.5 C 229.258,15.6993 232.925,17.1993 236.5,19C 237.832,22.5257 236.499,24.359 232.5,24.5C 229.201,24.262 226.201,23.262 223.5,21.5C 224.325,19.1987 224.992,16.8654 225.5,14.5 Z"/></g>
<g><path style="opacity:1" fill="#fefffe" d="M -0.5,29.5 C 4.5,29.5 9.5,29.5 14.5,29.5C 14.5,34.5 14.5,39.5 14.5,44.5C 9.5,44.5 4.5,44.5 -0.5,44.5C -0.5,39.5 -0.5,34.5 -0.5,29.5 Z"/></g>
<g><path style="opacity:1" fill="#edefed" d="M 14.5,29.5 C 19.5,29.5 24.5,29.5 29.5,29.5C 29.5,34.5 29.5,39.5 29.5,44.5C 24.5,44.5 19.5,44.5 14.5,44.5C 14.5,39.5 14.5,34.5 14.5,29.5 Z"/></g>
<g><path style="opacity:1" fill="#fefffe" d="M 29.5,29.5 C 34.5,29.5 39.5,29.5 44.5,29.5C 44.5,34.5 44.5,39.5 44.5,44.5C 39.5,44.5 34.5,44.5 29.5,44.5C 29.5,39.5 29.5,34.5 29.5,29.5 Z"/></g>
<g><path style="opacity:1" fill="#edefed" d="M 44.5,29.5 C 49.5,29.5 54.5,29.5 59.5,29.5C 59.5,34.5 59.5,39.5 59.5,44.5C 54.5,44.5 49.5,44.5 44.5,44.5C 44.5,39.5 44.5,34.5 44.5,29.5 Z"/></g>
<g><path style="opacity:1" fill="#fefffe" d="M 59.5,29.5 C 64.5,29.5 69.5,29.5 74.5,29.5C 74.5,34.5 74.5,39.5 74.5,44.5C 69.5,44.5 64.5,44.5 59.5,44.5C 59.5,39.5 59.5,34.5 59.5,29.5 Z"/></g>
<g><path style="opacity:1" fill="#edefed" d="M 74.5,29.5 C 79.5,29.5 84.5,29.5 89.5,29.5C 89.5,34.5 89.5,39.5 89.5,44.5C 84.5,44.5 79.5,44.5 74.5,44.5C 74.5,39.5 74.5,34.5 74.5,29.5 Z"/></g>
<g><path style="opacity:1" fill="#176c43" d="M 231.5,115.5 C 232.051,118.807 232.384,122.14 232.5,125.5C 232.5,126.5 232.5,127.5 232.5,128.5C 246.5,128.5 260.5,128.5 274.5,128.5C 274.5,132.5 274.5,136.5 274.5,140.5C 260.833,140.5 247.167,140.5 233.5,140.5C 233.073,144.824 232.739,149.158 232.5,153.5C 245.833,154.167 259.167,154.833 272.5,155.5C 271.992,159.197 271.326,162.864 270.5,166.5C 256.496,166.333 242.496,166.5 228.5,167C 226.933,169.979 225.266,172.812 223.5,175.5C 222.662,175.158 222.328,174.492 222.5,173.5C 230.119,157.004 232.619,139.671 230,121.5C 228.471,114.715 226.638,108.048 224.5,101.5C 213.676,101.462 203.676,98.6284 194.5,93C 184.5,89.6667 174.5,89.6667 164.5,93C 155.629,98.6043 145.962,101.604 135.5,102C 129.045,117.185 126.879,133.019 129,149.5C 130.433,159.97 133.933,169.636 139.5,178.5C 138.833,178.5 138.167,178.5 137.5,178.5C 134.46,175.086 132.46,171.086 131.5,166.5C 117.167,166.5 102.833,166.5 88.5,166.5C 87.5145,162.557 86.8478,158.557 86.5,154.5C 100.183,154.833 113.85,154.499 127.5,153.5C 127.376,152.893 127.043,152.56 126.5,152.5C 126.167,148.5 125.833,144.5 125.5,140.5C 111.833,140.5 98.1667,140.5 84.5,140.5C 84.5,136.167 84.5,131.833 84.5,127.5C 98.5,127.5 112.5,127.5 126.5,127.5C 126.724,123.821 127.058,120.154 127.5,116.5C 128.043,116.44 128.376,116.107 128.5,115.5C 114.182,114.501 99.8488,114.167 85.5,114.5C 85.5,112.5 85.5,110.5 85.5,108.5C 85.5,107.167 85.5,105.833 85.5,104.5C 87.4865,90.1826 91.1532,76.1826 96.5,62.5C 103.195,61.6192 109.862,60.6192 116.5,59.5C 120.263,59.1428 123.93,58.3095 127.5,57C 136.562,52.1361 145.896,47.8028 155.5,44C 171.158,40.6917 186.825,40.6917 202.5,44C 214.615,48.8135 226.615,53.8135 238.5,59C 246.488,60.2758 254.488,61.4425 262.5,62.5C 269.595,79.1175 273.595,96.4509 274.5,114.5C 259.99,114.171 245.657,114.504 231.5,115.5 Z"/></g>
<g><path style="opacity:1" fill="#edefed" d="M -0.5,44.5 C 4.5,44.5 9.5,44.5 14.5,44.5C 14.5,49.5 14.5,54.5 14.5,59.5C 9.5,59.5 4.5,59.5 -0.5,59.5C -0.5,54.5 -0.5,49.5 -0.5,44.5 Z"/></g>
<g><path style="opacity:1" fill="#fefffe" d="M 14.5,44.5 C 19.5,44.5 24.5,44.5 29.5,44.5C 29.5,49.5 29.5,54.5 29.5,59.5C 24.5,59.5 19.5,59.5 14.5,59.5C 14.5,54.5 14.5,49.5 14.5,44.5 Z"/></g>
<g><path style="opacity:1" fill="#edefed" d="M 29.5,44.5 C 34.5,44.5 39.5,44.5 44.5,44.5C 44.5,49.5 44.5,54.5 44.5,59.5C 39.5,59.5 34.5,59.5 29.5,59.5C 29.5,54.5 29.5,49.5 29.5,44.5 Z"/></g>
<g><path style="opacity:1" fill="#fefffe" d="M 44.5,44.5 C 49.5,44.5 54.5,44.5 59.5,44.5C 59.5,49.5 59.5,54.5 59.5,59.5C 54.5,59.5 49.5,59.5 44.5,59.5C 44.5,54.5 44.5,49.5 44.5,44.5 Z"/></g>
<g><path style="opacity:1" fill="#edefed" d="M 59.5,44.5 C 64.5,44.5 69.5,44.5 74.5,44.5C 74.5,49.5 74.5,54.5 74.5,59.5C 69.5,59.5 64.5,59.5 59.5,59.5C 59.5,54.5 59.5,49.5 59.5,44.5 Z"/></g>
<g><path style="opacity:1" fill="#fefffe" d="M 74.5,44.5 C 79.5,44.5 84.5,44.5 89.5,44.5C 89.5,49.5 89.5,54.5 89.5,59.5C 84.5,59.5 79.5,59.5 74.5,59.5C 74.5,54.5 74.5,49.5 74.5,44.5 Z"/></g>
<g><path style="opacity:1" fill="#f2f6f4" d="M 181.5,56.5 C 188.174,56.7129 194.841,57.0462 201.5,57.5C 201.5,58.8333 201.5,60.1667 201.5,61.5C 198.833,61.5 196.167,61.5 193.5,61.5C 193.261,65.8422 192.927,70.1756 192.5,74.5C 190.833,74.5 189.167,74.5 187.5,74.5C 187.353,69.7858 187.686,65.1191 188.5,60.5C 186.473,60.6621 184.473,60.4955 182.5,60C 181.663,58.9887 181.33,57.8221 181.5,56.5 Z"/></g>
<g><path style="opacity:1" fill="#eff4f2" d="M 166.5,56.5 C 170.911,56.021 175.078,56.6876 179,58.5C 180.123,61.9563 179.29,64.7897 176.5,67C 178.84,68.8402 180.84,71.0069 182.5,73.5C 180.167,74.8333 177.833,74.8333 175.5,73.5C 173.957,70.6095 171.624,68.9429 168.5,68.5C 168.5,70.8333 168.5,73.1667 168.5,75.5C 166.5,75.5 164.5,75.5 162.5,75.5C 162.64,69.4638 162.307,63.4638 161.5,57.5C 163.415,57.7845 165.081,57.4511 166.5,56.5 Z"/></g>
<g><path style="opacity:1" fill="#fefffe" d="M -0.5,59.5 C 4.5,59.5 9.5,59.5 14.5,59.5C 14.5,64.5 14.5,69.5 14.5,74.5C 9.5,74.5 4.5,74.5 -0.5,74.5C -0.5,69.5 -0.5,64.5 -0.5,59.5 Z"/></g>
<g><path style="opacity:1" fill="#edefed" d="M 14.5,59.5 C 19.5,59.5 24.5,59.5 29.5,59.5C 29.5,64.5 29.5,69.5 29.5,74.5C 24.5,74.5 19.5,74.5 14.5,74.5C 14.5,69.5 14.5,64.5 14.5,59.5 Z"/></g>
<g><path style="opacity:1" fill="#fefffe" d="M 29.5,59.5 C 34.5,59.5 39.5,59.5 44.5,59.5C 44.5,64.5 44.5,69.5 44.5,74.5C 39.5,74.5 34.5,74.5 29.5,74.5C 29.5,69.5 29.5,64.5 29.5,59.5 Z"/></g>
<g><path style="opacity:1" fill="#edefed" d="M 44.5,59.5 C 49.5,59.5 54.5,59.5 59.5,59.5C 59.5,64.5 59.5,69.5 59.5,74.5C 54.5,74.5 49.5,74.5 44.5,74.5C 44.5,69.5 44.5,64.5 44.5,59.5 Z"/></g>
<g><path style="opacity:1" fill="#fefffe" d="M 59.5,59.5 C 64.5,59.5 69.5,59.5 74.5,59.5C 74.5,64.5 74.5,69.5 74.5,74.5C 69.5,74.5 64.5,74.5 59.5,74.5C 59.5,69.5 59.5,64.5 59.5,59.5 Z"/></g>
<g><path style="opacity:1" fill="#f7f9f8" d="M 205.5,59.5 C 207.117,60.038 208.784,60.3713 210.5,60.5C 209.167,66.1667 207.833,71.8333 206.5,77.5C 204.345,77.628 202.345,77.128 200.5,76C 202.467,70.5989 204.133,65.0989 205.5,59.5 Z"/></g>
<g><path style="opacity:1" fill="#f3f7f5" d="M 147.5,60.5 C 155.439,60.7468 158.939,64.7468 158,72.5C 154.061,79.2152 148.228,81.7152 140.5,80C 135.012,75.575 134.345,70.575 138.5,65C 141.437,63.1991 144.437,61.6991 147.5,60.5 Z"/></g>
<g><path style="opacity:1" fill="#0c6338" d="M 167.5,60.5 C 169.5,60.5 171.5,60.5 173.5,60.5C 173.241,64.0681 171.241,65.4015 167.5,64.5C 167.5,63.1667 167.5,61.8333 167.5,60.5 Z"/></g>
<g><path style="opacity:1" fill="#f5f8f6" d="M 217.5,63.5 C 219.305,64.2371 220.971,65.2371 222.5,66.5C 223.847,70.8881 225.347,75.2215 227,79.5C 229,76.8333 231,74.1667 233,71.5C 235.741,72.2215 236.741,73.8882 236,76.5C 233,80.8333 230,85.1667 227,89.5C 225.702,88.4404 224.535,87.2737 223.5,86C 222.183,81.7128 220.683,77.5461 219,73.5C 217.835,76.4994 216.169,79.166 214,81.5C 212.379,81.2753 211.212,80.442 210.5,79C 212.945,73.8114 215.278,68.6447 217.5,63.5 Z"/></g>
<g><path style="opacity:1" fill="#186b41" d="M 143.5,65.5 C 151.213,64.4288 153.88,67.5955 151.5,75C 144.243,77.7463 141.077,75.2463 142,67.5C 142.717,66.9558 143.217,66.2891 143.5,65.5 Z"/></g>
<g><path style="opacity:1" fill="#f1f6f4" d="M 127.5,70.5 C 134.456,71.3924 136.289,75.0591 133,81.5C 131.649,83.019 130.149,84.3523 128.5,85.5C 129.128,87.2581 130.128,88.7581 131.5,90C 130.315,91.353 128.981,92.5197 127.5,93.5C 123.282,89.4487 119.615,84.9487 116.5,80C 119.749,76.2441 123.415,73.0775 127.5,70.5 Z"/></g>
<g><path style="opacity:1" fill="#edefed" d="M -0.5,74.5 C 4.5,74.5 9.5,74.5 14.5,74.5C 14.5,79.5 14.5,84.5 14.5,89.5C 9.5,89.5 4.5,89.5 -0.5,89.5C -0.5,84.5 -0.5,79.5 -0.5,74.5 Z"/></g>
<g><path style="opacity:1" fill="#fefffe" d="M 14.5,74.5 C 19.5,74.5 24.5,74.5 29.5,74.5C 29.5,79.5 29.5,84.5 29.5,89.5C 24.5,89.5 19.5,89.5 14.5,89.5C 14.5,84.5 14.5,79.5 14.5,74.5 Z"/></g>
<g><path style="opacity:1" fill="#edefed" d="M 29.5,74.5 C 34.5,74.5 39.5,74.5 44.5,74.5C 44.5,79.5 44.5,84.5 44.5,89.5C 39.5,89.5 34.5,89.5 29.5,89.5C 29.5,84.5 29.5,79.5 29.5,74.5 Z"/></g>
<g><path style="opacity:1" fill="#fefffe" d="M 44.5,74.5 C 49.5,74.5 54.5,74.5 59.5,74.5C 59.5,79.5 59.5,84.5 59.5,89.5C 54.5,89.5 49.5,89.5 44.5,89.5C 44.5,84.5 44.5,79.5 44.5,74.5 Z"/></g>
<g><path style="opacity:1" fill="#f4f5f4" d="M 89.5,-0.5 C 109.5,-0.5 129.5,-0.5 149.5,-0.5C 149.5,4.5 149.5,9.5 149.5,14.5C 147.5,14.5 145.5,14.5 143.5,14.5C 143.754,12.5992 143.42,11.9326 142.5,12.5C 141.521,11.2347 140.521,9.9014 139.5,8.5C 129.064,7.46384 120.23,10.7972 113,18.5C 110.413,23.4129 111.247,27.5796 115.5,31C 121.852,31.6545 128.185,31.4878 134.5,30.5C 140.763,31.4812 141.096,33.6479 135.5,37C 129.992,38.8514 124.325,39.8514 118.5,40C 119.582,41.3297 120.249,42.8297 120.5,44.5C 119.617,49.1031 119.283,53.7697 119.5,58.5C 118.209,58.2627 117.209,58.596 116.5,59.5C 109.862,60.6192 103.195,61.6192 96.5,62.5C 91.1532,76.1826 87.4865,90.1826 85.5,104.5C 81.8333,104.5 78.1667,104.5 74.5,104.5C 74.5,109.5 74.5,114.5 74.5,119.5C 69.5,119.5 64.5,119.5 59.5,119.5C 59.5,114.5 59.5,109.5 59.5,104.5C 59.5,99.5 59.5,94.5 59.5,89.5C 59.5,84.5 59.5,79.5 59.5,74.5C 64.5,74.5 69.5,74.5 74.5,74.5C 74.5,69.5 74.5,64.5 74.5,59.5C 79.5,59.5 84.5,59.5 89.5,59.5C 89.5,54.5 89.5,49.5 89.5,44.5C 89.5,39.5 89.5,34.5 89.5,29.5C 89.5,24.5 89.5,19.5 89.5,14.5C 89.5,9.5 89.5,4.5 89.5,-0.5 Z"/></g>
<g><path style="opacity:1" fill="#1c6a41" d="M 126.5,75.5 C 128.252,75.4176 129.252,76.2509 129.5,78C 127.594,83.1508 125.26,83.4841 122.5,79C 123.731,77.5952 125.064,76.4286 126.5,75.5 Z"/></g>
<g><path style="opacity:1" fill="#f4f7f6" d="M 238.5,81.5 C 246.975,82.1331 252.309,86.6331 254.5,95C 254.046,96.6217 253.046,97.7884 251.5,98.5C 251.213,93.7583 249.213,89.9249 245.5,87C 237.149,87.4197 235.316,91.253 240,98.5C 242.853,99.6471 243.686,98.8138 242.5,96C 242.613,94.7202 243.28,93.8869 244.5,93.5C 245.921,96.0094 247.588,98.3428 249.5,100.5C 247.476,102.358 245.309,104.025 243,105.5C 237.388,101.78 233.888,96.6136 232.5,90C 233.174,86.1696 235.174,83.3362 238.5,81.5 Z"/></g>
<g><path style="opacity:1" fill="#f2f6f4" d="M 110.5,84.5 C 111.995,84.4148 112.995,85.0815 113.5,86.5C 111.115,88.8838 109.115,91.5505 107.5,94.5C 108.365,95.5827 109.365,95.7494 110.5,95C 112.538,92.109 115.205,90.2757 118.5,89.5C 121.596,89.4295 123.262,90.9295 123.5,94C 122.37,99.7637 119.37,104.264 114.5,107.5C 113.354,106.855 112.354,106.022 111.5,105C 114.907,103.261 117.24,100.594 118.5,97C 118.167,96.5 117.833,96 117.5,95.5C 115.31,97.524 112.977,99.3573 110.5,101C 104.324,102.188 102.158,99.6875 104,93.5C 105.611,90.0624 107.777,87.0624 110.5,84.5 Z"/></g>
<g><path style="opacity:1" fill="#fefffe" d="M -0.5,89.5 C 4.5,89.5 9.5,89.5 14.5,89.5C 14.5,94.5 14.5,99.5 14.5,104.5C 9.5,104.5 4.5,104.5 -0.5,104.5C -0.5,99.5 -0.5,94.5 -0.5,89.5 Z"/></g>
<g><path style="opacity:1" fill="#edefed" d="M 14.5,89.5 C 19.5,89.5 24.5,89.5 29.5,89.5C 29.5,94.5 29.5,99.5 29.5,104.5C 24.5,104.5 19.5,104.5 14.5,104.5C 14.5,99.5 14.5,94.5 14.5,89.5 Z"/></g>
<g><path style="opacity:1" fill="#fefffe" d="M 29.5,89.5 C 34.5,89.5 39.5,89.5 44.5,89.5C 44.5,94.5 44.5,99.5 44.5,104.5C 39.5,104.5 34.5,104.5 29.5,104.5C 29.5,99.5 29.5,94.5 29.5,89.5 Z"/></g>
<g><path style="opacity:1" fill="#edefed" d="M 44.5,89.5 C 49.5,89.5 54.5,89.5 59.5,89.5C 59.5,94.5 59.5,99.5 59.5,104.5C 54.5,104.5 49.5,104.5 44.5,104.5C 44.5,99.5 44.5,94.5 44.5,89.5 Z"/></g>
<g><path style="opacity:1" fill="#f2f3f2" d="M 149.5,-0.5 C 159.167,-0.5 168.833,-0.5 178.5,-0.5C 173.482,0.510365 168.482,2.01036 163.5,4C 152.103,12.2498 151.77,20.9165 162.5,30C 174.118,36.2813 186.118,36.9479 198.5,32C 199.252,31.3292 199.586,30.4959 199.5,29.5C 202.5,29.5 205.5,29.5 208.5,29.5C 207.908,32.1272 207.575,34.7938 207.5,37.5C 211.099,38.6988 214.765,39.6988 218.5,40.5C 218.958,36.4616 219.624,32.4616 220.5,28.5C 223.647,28.7366 226.647,29.5699 229.5,31C 233.152,31.4986 236.818,31.6653 240.5,31.5C 238.031,32.3171 235.365,32.8171 232.5,33C 234.81,33.4966 237.143,33.6633 239.5,33.5C 239.5,37.1667 239.5,40.8333 239.5,44.5C 244.5,44.5 249.5,44.5 254.5,44.5C 255.081,49.9752 254.414,55.1418 252.5,60C 258.175,60.3664 263.841,60.1997 269.5,59.5C 269.5,64.5 269.5,69.5 269.5,74.5C 274.5,74.5 279.5,74.5 284.5,74.5C 284.5,79.5 284.5,84.5 284.5,89.5C 289.5,89.5 294.5,89.5 299.5,89.5C 299.5,94.5 299.5,99.5 299.5,104.5C 304.5,104.5 309.5,104.5 314.5,104.5C 314.5,109.5 314.5,114.5 314.5,119.5C 319.5,119.5 324.5,119.5 329.5,119.5C 329.5,124.5 329.5,129.5 329.5,134.5C 334.5,134.5 339.5,134.5 344.5,134.5C 344.5,139.5 344.5,144.5 344.5,149.5C 349.5,149.5 354.5,149.5 359.5,149.5C 359.5,164.5 359.5,179.5 359.5,194.5C 354.5,194.5 349.5,194.5 344.5,194.5C 344.5,189.5 344.5,184.5 344.5,179.5C 339.5,179.5 334.5,179.5 329.5,179.5C 329.5,174.5 329.5,169.5 329.5,164.5C 324.5,164.5 319.5,164.5 314.5,164.5C 314.5,159.5 314.5,154.5 314.5,149.5C 309.5,149.5 304.5,149.5 299.5,149.5C 299.5,144.5 299.5,139.5 299.5,134.5C 294.5,134.5 289.5,134.5 284.5,134.5C 284.5,129.5 284.5,124.5 284.5,119.5C 281.167,119.5 277.833,119.5 274.5,119.5C 274.5,118.167 274.5,116.833 274.5,115.5C 260.167,115.5 245.833,115.5 231.5,115.5C 245.657,114.504 259.99,114.171 274.5,114.5C 273.595,96.4509 269.595,79.1175 262.5,62.5C 254.488,61.4425 246.488,60.2758 238.5,59C 226.615,53.8135 214.615,48.8135 202.5,44C 186.825,40.6917 171.158,40.6917 155.5,44C 145.896,47.8028 136.562,52.1361 127.5,57C 123.93,58.3095 120.263,59.1428 116.5,59.5C 117.209,58.596 118.209,58.2627 119.5,58.5C 119.283,53.7697 119.617,49.1031 120.5,44.5C 130.767,46.6326 139.934,43.9659 148,36.5C 152.842,28.8242 151.009,23.9909 142.5,22C 136.15,21.4756 129.816,21.6423 123.5,22.5C 122.974,19.1922 124.307,17.0255 127.5,16C 132.894,15.4085 137.894,14.2418 142.5,12.5C 143.42,11.9326 143.754,12.5992 143.5,14.5C 145.5,14.5 147.5,14.5 149.5,14.5C 149.5,9.5 149.5,4.5 149.5,-0.5 Z"/></g>
<g><path style="opacity:1" fill="#ecf2ef" d="M 222.5,173.5 C 212.12,189.707 197.62,200.373 179,205.5C 163.158,200.335 149.991,191.335 139.5,178.5C 133.933,169.636 130.433,159.97 129,149.5C 126.879,133.019 129.045,117.185 135.5,102C 145.962,101.604 155.629,98.6043 164.5,93C 174.5,89.6667 184.5,89.6667 194.5,93C 203.676,98.6284 213.676,101.462 224.5,101.5C 226.638,108.048 228.471,114.715 230,121.5C 232.619,139.671 230.119,157.004 222.5,173.5 Z"/></g>
<g><path style="opacity:1" fill="#176c43" d="M 172.5,93.5 C 184.827,92.426 196.16,95.2594 206.5,102C 211.512,102.871 216.512,103.704 221.5,104.5C 231.815,128.748 230.649,152.415 218,175.5C 208.735,187.764 196.901,196.598 182.5,202C 179.406,202.652 176.406,202.318 173.5,201C 140.432,185.709 126.599,159.876 132,123.5C 133.058,117.039 134.558,110.706 136.5,104.5C 140.534,104.328 144.534,103.828 148.5,103C 156.501,99.4872 164.501,96.3206 172.5,93.5 Z"/></g>
<g><path style="opacity:1" fill="#edefed" d="M -0.5,104.5 C 4.5,104.5 9.5,104.5 14.5,104.5C 14.5,109.5 14.5,114.5 14.5,119.5C 9.5,119.5 4.5,119.5 -0.5,119.5C -0.5,114.5 -0.5,109.5 -0.5,104.5 Z"/></g>
<g><path style="opacity:1" fill="#fefffe" d="M 14.5,104.5 C 19.5,104.5 24.5,104.5 29.5,104.5C 29.5,109.5 29.5,114.5 29.5,119.5C 24.5,119.5 19.5,119.5 14.5,119.5C 14.5,114.5 14.5,109.5 14.5,104.5 Z"/></g>
<g><path style="opacity:1" fill="#edefed" d="M 29.5,104.5 C 34.5,104.5 39.5,104.5 44.5,104.5C 44.5,109.5 44.5,114.5 44.5,119.5C 39.5,119.5 34.5,119.5 29.5,119.5C 29.5,114.5 29.5,109.5 29.5,104.5 Z"/></g>
<g><path style="opacity:1" fill="#fefffe" d="M 44.5,104.5 C 49.5,104.5 54.5,104.5 59.5,104.5C 59.5,109.5 59.5,114.5 59.5,119.5C 54.5,119.5 49.5,119.5 44.5,119.5C 44.5,114.5 44.5,109.5 44.5,104.5 Z"/></g>
<g><path style="opacity:1" fill="#b1cdbf" d="M 85.5,108.5 C 85.5,110.5 85.5,112.5 85.5,114.5C 99.8488,114.167 114.182,114.501 128.5,115.5C 128.376,116.107 128.043,116.44 127.5,116.5C 113.343,115.504 99.0097,115.171 84.5,115.5C 84.1984,112.941 84.5318,110.607 85.5,108.5 Z"/></g>
<g><path style="opacity:1" fill="#fefffe" d="M -0.5,119.5 C 4.5,119.5 9.5,119.5 14.5,119.5C 14.5,124.5 14.5,129.5 14.5,134.5C 9.5,134.5 4.5,134.5 -0.5,134.5C -0.5,129.5 -0.5,124.5 -0.5,119.5 Z"/></g>
<g><path style="opacity:1" fill="#edefed" d="M 14.5,119.5 C 19.5,119.5 24.5,119.5 29.5,119.5C 29.5,124.5 29.5,129.5 29.5,134.5C 24.5,134.5 19.5,134.5 14.5,134.5C 14.5,129.5 14.5,124.5 14.5,119.5 Z"/></g>
<g><path style="opacity:1" fill="#fefffe" d="M 29.5,119.5 C 34.5,119.5 39.5,119.5 44.5,119.5C 44.5,124.5 44.5,129.5 44.5,134.5C 39.5,134.5 34.5,134.5 29.5,134.5C 29.5,129.5 29.5,124.5 29.5,119.5 Z"/></g>
<g><path style="opacity:1" fill="#edefed" d="M 44.5,119.5 C 49.5,119.5 54.5,119.5 59.5,119.5C 59.5,124.5 59.5,129.5 59.5,134.5C 54.5,134.5 49.5,134.5 44.5,134.5C 44.5,129.5 44.5,124.5 44.5,119.5 Z"/></g>
<g><path style="opacity:1" fill="#9a9b32" d="M 216.5,120.5 C 216.423,121.75 215.756,122.583 214.5,123C 215.712,124.107 215.379,124.607 213.5,124.5C 210.476,124.053 210.143,123.22 212.5,122C 212.167,121.667 211.833,121.333 211.5,121C 213.134,120.506 214.801,120.34 216.5,120.5 Z"/></g>
<g><path style="opacity:1" fill="#e5b72d" d="M 144.5,112.5 C 146.017,112.511 147.184,113.177 148,114.5C 148.423,113.044 149.256,112.544 150.5,113C 153.427,120.082 158.76,123.916 166.5,124.5C 164.724,128.109 161.891,130.442 158,131.5C 157.5,131.167 157,130.833 156.5,130.5C 157.167,129.833 157.833,129.167 158.5,128.5C 158.167,128.167 157.833,127.833 157.5,127.5C 155.902,128.485 154.235,128.651 152.5,128C 157.97,124.908 157.637,123.908 151.5,125C 152.727,123.413 152.394,122.079 150.5,121C 147.178,120.941 144.344,119.774 142,117.5C 141.544,116.256 142.044,115.423 143.5,115C 143.167,114.667 142.833,114.333 142.5,114C 143.416,113.722 144.082,113.222 144.5,112.5 Z"/></g>
<g><path style="opacity:1" fill="#84b19c" d="M 232.5,125.5 C 246.432,127.131 260.432,128.131 274.5,128.5C 260.5,128.5 246.5,128.5 232.5,128.5C 232.5,127.5 232.5,126.5 232.5,125.5 Z"/></g>
<g><path style="opacity:1" fill="#f8f9f8" d="M 85.5,104.5 C 85.5,105.833 85.5,107.167 85.5,108.5C 84.5318,110.607 84.1984,112.941 84.5,115.5C 99.0097,115.171 113.343,115.504 127.5,116.5C 127.058,120.154 126.724,123.821 126.5,127.5C 112.5,127.5 98.5,127.5 84.5,127.5C 84.5,131.833 84.5,136.167 84.5,140.5C 98.1667,140.5 111.833,140.5 125.5,140.5C 125.833,144.5 126.167,148.5 126.5,152.5C 113.167,153.167 99.8333,153.833 86.5,154.5C 86.8478,158.557 87.5145,162.557 88.5,166.5C 102.833,166.5 117.167,166.5 131.5,166.5C 132.46,171.086 134.46,175.086 137.5,178.5C 122.994,179.167 108.328,179.833 93.5,180.5C 95.5303,184.85 97.5303,189.183 99.5,193.5C 99.631,194.239 99.4643,194.906 99,195.5C 95.9433,194.549 92.7766,194.216 89.5,194.5C 89.5,199.5 89.5,204.5 89.5,209.5C 94.5,209.5 99.5,209.5 104.5,209.5C 104.5,214.5 104.5,219.5 104.5,224.5C 109.5,224.5 114.5,224.5 119.5,224.5C 119.5,229.5 119.5,234.5 119.5,239.5C 124.5,239.5 129.5,239.5 134.5,239.5C 134.5,244.5 134.5,249.5 134.5,254.5C 139.5,254.5 144.5,254.5 149.5,254.5C 148.92,250.351 149.586,246.684 151.5,243.5C 159.989,248.017 168.656,252.017 177.5,255.5C 118.167,255.5 58.8333,255.5 -0.5,255.5C -0.5,245.167 -0.5,234.833 -0.5,224.5C 4.5,224.5 9.5,224.5 14.5,224.5C 19.5,224.5 24.5,224.5 29.5,224.5C 34.5,224.5 39.5,224.5 44.5,224.5C 49.5,224.5 54.5,224.5 59.5,224.5C 59.5,219.5 59.5,214.5 59.5,209.5C 59.5,204.5 59.5,199.5 59.5,194.5C 59.5,189.5 59.5,184.5 59.5,179.5C 59.5,174.5 59.5,169.5 59.5,164.5C 59.5,159.5 59.5,154.5 59.5,149.5C 59.5,144.5 59.5,139.5 59.5,134.5C 59.5,129.5 59.5,124.5 59.5,119.5C 64.5,119.5 69.5,119.5 74.5,119.5C 74.5,114.5 74.5,109.5 74.5,104.5C 78.1667,104.5 81.8333,104.5 85.5,104.5 Z"/></g>
<g><path style="opacity:1" fill="#edefed" d="M -0.5,134.5 C 4.5,134.5 9.5,134.5 14.5,134.5C 14.5,139.5 14.5,144.5 14.5,149.5C 9.5,149.5 4.5,149.5 -0.5,149.5C -0.5,144.5 -0.5,139.5 -0.5,134.5 Z"/></g>
<g><path style="opacity:1" fill="#fefffe" d="M 14.5,134.5 C 19.5,134.5 24.5,134.5 29.5,134.5C 29.5,139.5 29.5,144.5 29.5,149.5C 24.5,149.5 19.5,149.5 14.5,149.5C 14.5,144.5 14.5,139.5 14.5,134.5 Z"/></g>
<g><path style="opacity:1" fill="#edefed" d="M 29.5,134.5 C 34.5,134.5 39.5,134.5 44.5,134.5C 44.5,139.5 44.5,144.5 44.5,149.5C 39.5,149.5 34.5,149.5 29.5,149.5C 29.5,144.5 29.5,139.5 29.5,134.5 Z"/></g>
<g><path style="opacity:1" fill="#fefffe" d="M 44.5,134.5 C 49.5,134.5 54.5,134.5 59.5,134.5C 59.5,139.5 59.5,144.5 59.5,149.5C 54.5,149.5 49.5,149.5 44.5,149.5C 44.5,144.5 44.5,139.5 44.5,134.5 Z"/></g>
<g><path style="opacity:1" fill="#ebb82b" d="M 216.5,120.5 C 214.801,120.34 213.134,120.506 211.5,121C 211.833,121.333 212.167,121.667 212.5,122C 210.143,123.22 210.476,124.053 213.5,124.5C 211.393,125.468 209.059,125.802 206.5,125.5C 206.5,124.167 206.5,122.833 206.5,121.5C 202.13,122.041 200.13,124.541 200.5,129C 200.667,130.5 200.833,132 201,133.5C 204.379,138.924 207.212,144.591 209.5,150.5C 209.045,153.251 207.711,155.418 205.5,157C 206.167,157.333 206.833,157.667 207.5,158C 205.51,159.751 203.177,160.751 200.5,161C 202.202,162.718 204.035,162.885 206,161.5C 206.492,162.549 206.326,163.549 205.5,164.5C 202.94,166.273 200.607,168.273 198.5,170.5C 200.595,171.229 202.428,170.563 204,168.5C 204.167,169 204.333,169.5 204.5,170C 202.567,172.732 200.067,174.899 197,176.5C 196.312,177.332 196.479,177.998 197.5,178.5C 198.396,177.494 199.062,177.494 199.5,178.5C 198.135,179.941 196.635,181.274 195,182.5C 194.818,185.226 194.318,187.893 193.5,190.5C 192.833,190.833 192.167,191.167 191.5,191.5C 190.719,190.271 190.219,188.938 190,187.5C 188.736,189.607 186.903,190.607 184.5,190.5C 184.297,188.61 184.963,187.11 186.5,186C 185.101,185.405 183.768,185.572 182.5,186.5C 181.374,184.494 182.04,183.16 184.5,182.5C 189.217,183.314 191.884,181.147 192.5,176C 192.491,174.596 191.991,173.43 191,172.5C 189.989,173.337 188.822,173.67 187.5,173.5C 186.308,169.634 184.641,165.967 182.5,162.5C 183.5,159.833 184.5,157.167 185.5,154.5C 185.167,153.833 184.833,153.167 184.5,152.5C 178.845,151.786 174.179,149.286 170.5,145C 171.167,144.667 171.833,144.333 172.5,144C 169.181,141.495 165.514,140.495 161.5,141C 163.725,141.561 165.725,142.561 167.5,144C 166.5,144.5 165.5,145 164.5,145.5C 161.768,143.454 158.768,142.62 155.5,143C 156.672,143.419 157.672,144.085 158.5,145C 152.886,143.864 147.72,145.031 143,148.5C 142.289,146.633 142.789,145.133 144.5,144C 143.216,143.316 142.049,143.483 141,144.5C 140.517,143.552 140.351,142.552 140.5,141.5C 145.719,142.093 146.386,141.093 142.5,138.5C 143,138.167 143.5,137.833 144,137.5C 146.333,138.5 148.667,139.5 151,140.5C 157.182,138.469 162.015,134.802 165.5,129.5C 168.125,128.236 170.792,127.069 173.5,126C 171.833,125.667 170.167,125.333 168.5,125C 171.72,123.438 174.72,121.604 177.5,119.5C 177.167,119.167 176.833,118.833 176.5,118.5C 174.048,121.284 172.048,120.951 170.5,117.5C 172.743,116.526 175.076,116.192 177.5,116.5C 178.245,113.07 176.911,111.403 173.5,111.5C 171.933,111.477 170.6,111.977 169.5,113C 171.167,113.333 172.833,113.667 174.5,114C 172.122,114.511 169.788,115.178 167.5,116C 164.947,116.851 162.614,116.518 160.5,115C 163.226,114.818 165.893,114.318 168.5,113.5C 167.943,111.765 167.61,110.098 167.5,108.5C 170.034,107.223 172.534,107.223 175,108.5C 176.067,107.809 177.234,107.309 178.5,107C 176.423,106.808 174.423,106.308 172.5,105.5C 173.748,103.31 175.414,102.977 177.5,104.5C 180.72,102.396 184.053,102.396 187.5,104.5C 188.086,104.291 188.586,103.957 189,103.5C 189.456,104.744 188.956,105.577 187.5,106C 189.764,106.236 191.931,106.736 194,107.5C 194.667,108.167 194.667,108.833 194,109.5C 192.035,108.115 190.202,108.282 188.5,110C 194.419,109.252 196.919,111.752 196,117.5C 194.972,115.639 193.472,114.305 191.5,113.5C 191.167,113.833 190.833,114.167 190.5,114.5C 194.459,116.75 195.959,120.084 195,124.5C 193.954,122.91 192.787,121.41 191.5,120C 190.668,119.312 190.002,119.479 189.5,120.5C 190.242,121.287 191.075,121.953 192,122.5C 192.246,125.89 192.746,129.223 193.5,132.5C 192.833,133.833 192.167,133.833 191.5,132.5C 190.965,130.339 190.132,128.339 189,126.5C 187.894,130.122 187.561,133.789 188,137.5C 188.667,136.833 189.333,136.167 190,135.5C 189.987,142.461 192.153,148.628 196.5,154C 201.638,156.931 204.638,155.598 205.5,150C 203.785,144.391 201.619,138.891 199,133.5C 197.103,125.785 199.936,120.952 207.5,119C 211.394,118.301 214.394,118.801 216.5,120.5 Z"/></g>
<g><path style="opacity:1" fill="#156a41" d="M 178.5,129.5 C 179.625,131.377 179.291,133.21 177.5,135C 175.02,135.96 172.52,136.793 170,137.5C 169.383,136.551 169.549,135.718 170.5,135C 173.756,133.884 176.422,132.051 178.5,129.5 Z"/></g>
<g><path style="opacity:1" fill="#196b42" d="M 184.5,130.5 C 185.819,132.605 185.486,134.605 183.5,136.5C 181.189,137.497 178.856,137.997 176.5,138C 180.279,136.623 182.946,134.123 184.5,130.5 Z"/></g>
<g><path style="opacity:1" fill="#1d6d44" d="M 171.5,130.5 C 172.043,130.56 172.376,130.893 172.5,131.5C 170.408,134.152 167.742,134.986 164.5,134C 166.925,132.787 169.259,131.621 171.5,130.5 Z"/></g>
<g><path style="opacity:1" fill="#277349" d="M 169.5,140.5 C 172.019,139.206 174.352,139.706 176.5,142C 174.078,142.135 171.745,141.635 169.5,140.5 Z"/></g>
<g><path style="opacity:1" fill="#f8f9f8" d="M 231.5,115.5 C 245.833,115.5 260.167,115.5 274.5,115.5C 274.5,116.833 274.5,118.167 274.5,119.5C 277.833,119.5 281.167,119.5 284.5,119.5C 284.5,124.5 284.5,129.5 284.5,134.5C 289.5,134.5 294.5,134.5 299.5,134.5C 299.5,139.5 299.5,144.5 299.5,149.5C 304.5,149.5 309.5,149.5 314.5,149.5C 314.5,154.5 314.5,159.5 314.5,164.5C 319.5,164.5 324.5,164.5 329.5,164.5C 329.5,169.5 329.5,174.5 329.5,179.5C 334.5,179.5 339.5,179.5 344.5,179.5C 344.5,184.5 344.5,189.5 344.5,194.5C 349.5,194.5 354.5,194.5 359.5,194.5C 359.5,209.5 359.5,224.5 359.5,239.5C 354.5,239.5 349.5,239.5 344.5,239.5C 344.5,244.5 344.5,249.5 344.5,254.5C 339.5,254.5 334.5,254.5 329.5,254.5C 329.5,249.5 329.5,244.5 329.5,239.5C 324.5,239.5 319.5,239.5 314.5,239.5C 314.5,244.5 314.5,249.5 314.5,254.5C 309.5,254.5 304.5,254.5 299.5,254.5C 299.5,249.5 299.5,244.5 299.5,239.5C 294.5,239.5 289.5,239.5 284.5,239.5C 284.5,244.5 284.5,249.5 284.5,254.5C 279.5,254.5 274.5,254.5 269.5,254.5C 269.5,249.5 269.5,244.5 269.5,239.5C 264.5,239.5 259.5,239.5 254.5,239.5C 254.5,244.5 254.5,249.5 254.5,254.5C 249.5,254.5 244.5,254.5 239.5,254.5C 239.5,249.5 239.5,244.5 239.5,239.5C 234.5,239.5 229.5,239.5 224.5,239.5C 224.5,244.5 224.5,249.5 224.5,254.5C 219.5,254.5 214.5,254.5 209.5,254.5C 209.82,251.102 209.487,247.768 208.5,244.5C 207.571,245.55 206.905,245.55 206.5,244.5C 233.416,229.915 253.083,208.581 265.5,180.5C 250.845,179.667 236.178,179.167 221.5,179C 222.305,177.887 222.972,176.721 223.5,175.5C 225.266,172.812 226.933,169.979 228.5,167C 242.496,166.5 256.496,166.333 270.5,166.5C 271.326,162.864 271.992,159.197 272.5,155.5C 273.043,155.44 273.376,155.107 273.5,154.5C 259.85,153.501 246.183,153.167 232.5,153.5C 232.739,149.158 233.073,144.824 233.5,140.5C 247.167,140.5 260.833,140.5 274.5,140.5C 274.5,136.5 274.5,132.5 274.5,128.5C 260.432,128.131 246.432,127.131 232.5,125.5C 232.384,122.14 232.051,118.807 231.5,115.5 Z"/></g>
<g><path style="opacity:1" fill="#477840" d="M 182.5,144.5 C 184.379,144.393 184.712,144.893 183.5,146C 180.134,147.879 176.8,147.879 173.5,146C 176.695,145.819 179.695,145.319 182.5,144.5 Z"/></g>
<g><path style="opacity:1" fill="#206e45" d="M 185.5,147.5 C 186.239,147.369 186.906,147.536 187.5,148C 184.708,150.575 181.708,150.908 178.5,149C 181.036,148.814 183.369,148.314 185.5,147.5 Z"/></g>
<g><path style="opacity:1" fill="#fefffe" d="M -0.5,149.5 C 4.5,149.5 9.5,149.5 14.5,149.5C 14.5,154.5 14.5,159.5 14.5,164.5C 9.5,164.5 4.5,164.5 -0.5,164.5C -0.5,159.5 -0.5,154.5 -0.5,149.5 Z"/></g>
<g><path style="opacity:1" fill="#edefed" d="M 14.5,149.5 C 19.5,149.5 24.5,149.5 29.5,149.5C 29.5,154.5 29.5,159.5 29.5,164.5C 24.5,164.5 19.5,164.5 14.5,164.5C 14.5,159.5 14.5,154.5 14.5,149.5 Z"/></g>
<g><path style="opacity:1" fill="#fefffe" d="M 29.5,149.5 C 34.5,149.5 39.5,149.5 44.5,149.5C 44.5,154.5 44.5,159.5 44.5,164.5C 39.5,164.5 34.5,164.5 29.5,164.5C 29.5,159.5 29.5,154.5 29.5,149.5 Z"/></g>
<g><path style="opacity:1" fill="#edefed" d="M 44.5,149.5 C 49.5,149.5 54.5,149.5 59.5,149.5C 59.5,154.5 59.5,159.5 59.5,164.5C 54.5,164.5 49.5,164.5 44.5,164.5C 44.5,159.5 44.5,154.5 44.5,149.5 Z"/></g>
<g><path style="opacity:1" fill="#5f9a7d" d="M 126.5,152.5 C 127.043,152.56 127.376,152.893 127.5,153.5C 113.85,154.499 100.183,154.833 86.5,154.5C 99.8333,153.833 113.167,153.167 126.5,152.5 Z"/></g>
<g><path style="opacity:1" fill="#619b7f" d="M 232.5,153.5 C 246.183,153.167 259.85,153.501 273.5,154.5C 273.376,155.107 273.043,155.44 272.5,155.5C 259.167,154.833 245.833,154.167 232.5,153.5 Z"/></g>
<g><path style="opacity:1" fill="#2b7043" d="M 186.5,157.5 C 186.369,161.407 186.869,165.407 188,169.5C 184.547,165.696 184.047,161.696 186.5,157.5 Z"/></g>
<g><path style="opacity:1" fill="#edefed" d="M -0.5,164.5 C 4.5,164.5 9.5,164.5 14.5,164.5C 14.5,169.5 14.5,174.5 14.5,179.5C 9.5,179.5 4.5,179.5 -0.5,179.5C -0.5,174.5 -0.5,169.5 -0.5,164.5 Z"/></g>
<g><path style="opacity:1" fill="#fefffe" d="M 14.5,164.5 C 19.5,164.5 24.5,164.5 29.5,164.5C 29.5,169.5 29.5,174.5 29.5,179.5C 24.5,179.5 19.5,179.5 14.5,179.5C 14.5,174.5 14.5,169.5 14.5,164.5 Z"/></g>
<g><path style="opacity:1" fill="#edefed" d="M 29.5,164.5 C 34.5,164.5 39.5,164.5 44.5,164.5C 44.5,169.5 44.5,174.5 44.5,179.5C 39.5,179.5 34.5,179.5 29.5,179.5C 29.5,174.5 29.5,169.5 29.5,164.5 Z"/></g>
<g><path style="opacity:1" fill="#fefffe" d="M 44.5,164.5 C 49.5,164.5 54.5,164.5 59.5,164.5C 59.5,169.5 59.5,174.5 59.5,179.5C 54.5,179.5 49.5,179.5 44.5,179.5C 44.5,174.5 44.5,169.5 44.5,164.5 Z"/></g>
<g><path style="opacity:1" fill="#e9b82b" d="M 174.5,151.5 C 175.873,151.343 177.207,151.51 178.5,152C 171.883,155.7 172.216,156.2 179.5,153.5C 179.833,153.667 180.167,153.833 180.5,154C 176.575,157.798 177.075,158.298 182,155.5C 182.167,155.833 182.333,156.167 182.5,156.5C 180.816,159.612 180.15,162.946 180.5,166.5C 178.181,165.833 175.847,165.666 173.5,166C 173.167,166.333 172.833,166.667 172.5,167C 174.421,167.36 176.088,168.194 177.5,169.5C 174.863,170.621 172.196,170.621 169.5,169.5C 167.627,169.482 167.294,169.982 168.5,171C 165.5,171.333 162.5,171.667 159.5,172C 157.966,174.381 155.966,174.881 153.5,173.5C 155.865,170.005 155.198,169.672 151.5,172.5C 150.41,171.609 150.41,170.609 151.5,169.5C 153.078,168.702 154.744,168.202 156.5,168C 155.322,167.033 153.989,166.533 152.5,166.5C 154.319,164.089 156.319,163.922 158.5,166C 167.638,168.037 170.305,164.87 166.5,156.5C 166.833,155.5 167.167,154.5 167.5,153.5C 169.982,152.933 172.316,152.266 174.5,151.5 Z"/></g>
<g><path style="opacity:1" fill="#fefffe" d="M -0.5,179.5 C 4.5,179.5 9.5,179.5 14.5,179.5C 14.5,184.5 14.5,189.5 14.5,194.5C 9.5,194.5 4.5,194.5 -0.5,194.5C -0.5,189.5 -0.5,184.5 -0.5,179.5 Z"/></g>
<g><path style="opacity:1" fill="#edefed" d="M 14.5,179.5 C 19.5,179.5 24.5,179.5 29.5,179.5C 29.5,184.5 29.5,189.5 29.5,194.5C 24.5,194.5 19.5,194.5 14.5,194.5C 14.5,189.5 14.5,184.5 14.5,179.5 Z"/></g>
<g><path style="opacity:1" fill="#fefffe" d="M 29.5,179.5 C 34.5,179.5 39.5,179.5 44.5,179.5C 44.5,184.5 44.5,189.5 44.5,194.5C 39.5,194.5 34.5,194.5 29.5,194.5C 29.5,189.5 29.5,184.5 29.5,179.5 Z"/></g>
<g><path style="opacity:1" fill="#edefed" d="M 44.5,179.5 C 49.5,179.5 54.5,179.5 59.5,179.5C 59.5,184.5 59.5,189.5 59.5,194.5C 54.5,194.5 49.5,194.5 44.5,194.5C 44.5,189.5 44.5,184.5 44.5,179.5 Z"/></g>
<g><path style="opacity:1" fill="#186c43" d="M 222.5,173.5 C 222.328,174.492 222.662,175.158 223.5,175.5C 222.972,176.721 222.305,177.887 221.5,179C 236.178,179.167 250.845,179.667 265.5,180.5C 253.083,208.581 233.416,229.915 206.5,244.5C 197.909,248.578 189.242,252.245 180.5,255.5C 179.5,255.5 178.5,255.5 177.5,255.5C 168.656,252.017 159.989,248.017 151.5,243.5C 129.93,231.264 112.597,214.597 99.5,193.5C 97.5303,189.183 95.5303,184.85 93.5,180.5C 108.328,179.833 122.994,179.167 137.5,178.5C 138.167,178.5 138.833,178.5 139.5,178.5C 149.991,191.335 163.158,200.335 179,205.5C 197.62,200.373 212.12,189.707 222.5,173.5 Z"/></g>
<g><path style="opacity:1" fill="#eff4f2" d="M 131.5,204.5 C 127.065,207.351 123.065,206.684 119.5,202.5C 118.186,203.313 117.019,204.313 116,205.5C 114.978,204.646 114.145,203.646 113.5,202.5C 116.041,198.748 119.041,195.415 122.5,192.5C 127.848,194.835 130.848,198.835 131.5,204.5 Z"/></g>
<g><path style="opacity:1" fill="#edefed" d="M -0.5,194.5 C 4.5,194.5 9.5,194.5 14.5,194.5C 14.5,199.5 14.5,204.5 14.5,209.5C 9.5,209.5 4.5,209.5 -0.5,209.5C -0.5,204.5 -0.5,199.5 -0.5,194.5 Z"/></g>
<g><path style="opacity:1" fill="#fefffe" d="M 14.5,194.5 C 19.5,194.5 24.5,194.5 29.5,194.5C 29.5,199.5 29.5,204.5 29.5,209.5C 24.5,209.5 19.5,209.5 14.5,209.5C 14.5,204.5 14.5,199.5 14.5,194.5 Z"/></g>
<g><path style="opacity:1" fill="#edefed" d="M 29.5,194.5 C 34.5,194.5 39.5,194.5 44.5,194.5C 44.5,199.5 44.5,204.5 44.5,209.5C 39.5,209.5 34.5,209.5 29.5,209.5C 29.5,204.5 29.5,199.5 29.5,194.5 Z"/></g>
<g><path style="opacity:1" fill="#fefffe" d="M 44.5,194.5 C 49.5,194.5 54.5,194.5 59.5,194.5C 59.5,199.5 59.5,204.5 59.5,209.5C 54.5,209.5 49.5,209.5 44.5,209.5C 44.5,204.5 44.5,199.5 44.5,194.5 Z"/></g>
<g><path style="opacity:1" fill="#ecf3f0" d="M 233.5,193.5 C 236.464,195.962 239.297,198.629 242,201.5C 244.292,200.21 246.292,198.543 248,196.5C 248.692,197.025 249.192,197.692 249.5,198.5C 246.85,201.651 244.016,204.651 241,207.5C 237.63,204.465 234.63,201.132 232,197.5C 231.7,195.934 232.2,194.601 233.5,193.5 Z"/></g>
<g><path style="opacity:1" fill="#14653a" d="M 123.5,197.5 C 125.759,198.344 126.759,200.011 126.5,202.5C 122.143,202.222 121.143,200.555 123.5,197.5 Z"/></g>
<g><path style="opacity:1" fill="#f4f8f6" d="M 224.5,200.5 C 229.335,202.753 233.669,205.753 237.5,209.5C 235.901,211.729 233.901,212.062 231.5,210.5C 230.167,211.167 228.833,211.833 227.5,212.5C 227.024,215.119 225.691,217.119 223.5,218.5C 221.862,213.264 221.362,207.93 222,202.5C 222.995,201.934 223.828,201.267 224.5,200.5 Z"/></g>
<g><path style="opacity:1" fill="#f4f8f6" d="M 131.5,204.5 C 137.198,202.486 142.032,203.82 146,208.5C 146.688,219.247 142.188,222.08 132.5,217C 128.925,213.064 128.592,208.898 131.5,204.5 Z"/></g>
<g><path style="opacity:1" fill="#19673b" d="M 225.5,205.5 C 228.428,206.637 228.762,207.97 226.5,209.5C 225.571,208.311 225.238,206.978 225.5,205.5 Z"/></g>
<g><path style="opacity:1" fill="#1b6c43" d="M 136.5,206.5 C 143.859,208.754 144.359,212.087 138,216.5C 132.552,213.951 132.052,210.617 136.5,206.5 Z"/></g>
<g><path style="opacity:1" fill="#eef4f1" d="M 210.5,207.5 C 212.199,207.34 213.866,207.506 215.5,208C 216.517,209.049 216.684,210.216 216,211.5C 209.532,209.555 206.532,211.888 207,218.5C 209.585,221.128 212.085,221.128 214.5,218.5C 213.675,217.614 212.675,217.281 211.5,217.5C 212.306,213.748 214.472,212.748 218,214.5C 220.686,218.212 219.853,220.712 215.5,222C 211.471,223.913 207.471,223.913 203.5,222C 201.653,219.421 201.153,216.588 202,213.5C 204.322,210.605 207.155,208.605 210.5,207.5 Z"/></g>
<g><path style="opacity:1" fill="#fefffe" d="M -0.5,209.5 C 4.5,209.5 9.5,209.5 14.5,209.5C 14.5,214.5 14.5,219.5 14.5,224.5C 9.5,224.5 4.5,224.5 -0.5,224.5C -0.5,219.5 -0.5,214.5 -0.5,209.5 Z"/></g>
<g><path style="opacity:1" fill="#edefed" d="M 14.5,209.5 C 19.5,209.5 24.5,209.5 29.5,209.5C 29.5,214.5 29.5,219.5 29.5,224.5C 24.5,224.5 19.5,224.5 14.5,224.5C 14.5,219.5 14.5,214.5 14.5,209.5 Z"/></g>
<g><path style="opacity:1" fill="#fefffe" d="M 29.5,209.5 C 34.5,209.5 39.5,209.5 44.5,209.5C 44.5,214.5 44.5,219.5 44.5,224.5C 39.5,224.5 34.5,224.5 29.5,224.5C 29.5,219.5 29.5,214.5 29.5,209.5 Z"/></g>
<g><path style="opacity:1" fill="#edefed" d="M 44.5,209.5 C 49.5,209.5 54.5,209.5 59.5,209.5C 59.5,214.5 59.5,219.5 59.5,224.5C 54.5,224.5 49.5,224.5 44.5,224.5C 44.5,219.5 44.5,214.5 44.5,209.5 Z"/></g>
<g><path style="opacity:1" fill="#f3f7f5" d="M 149.5,209.5 C 152.947,209.814 156.28,210.648 159.5,212C 161.635,212.759 162.968,214.259 163.5,216.5C 162.167,218.167 160.833,219.833 159.5,221.5C 162.941,226.62 161.941,228.286 156.5,226.5C 155.821,219.109 153.321,218.109 149,223.5C 148.228,223.355 147.561,223.022 147,222.5C 147.655,218.2 148.488,213.866 149.5,209.5 Z"/></g>
<g><path style="opacity:1" fill="#f1f6f3" d="M 192.5,212.5 C 194.167,212.5 195.833,212.5 197.5,212.5C 200.852,226.223 196.019,230.556 183,225.5C 182.762,221.778 182.262,218.111 181.5,214.5C 183.045,213.548 184.712,213.215 186.5,213.5C 186.335,216.85 186.502,220.183 187,223.5C 189,224.833 191,224.833 193,223.5C 193.579,219.797 193.412,216.131 192.5,212.5 Z"/></g>
<g><path style="opacity:1" fill="#eef3f0" d="M 164.5,213.5 C 169.5,213.5 174.5,213.5 179.5,213.5C 179.5,214.833 179.5,216.167 179.5,217.5C 177.5,217.5 175.5,217.5 173.5,217.5C 173.54,220.881 173.207,224.214 172.5,227.5C 171.167,227.5 169.833,227.5 168.5,227.5C 169.244,223.881 169.577,220.215 169.5,216.5C 167.833,216.5 166.167,216.5 164.5,216.5C 164.5,215.5 164.5,214.5 164.5,213.5 Z"/></g>
<g><path style="opacity:1" fill="#266f46" d="M 153.5,213.5 C 154.873,213.343 156.207,213.51 157.5,214C 158.841,215.826 158.341,216.993 156,217.5C 154.775,217.138 153.609,216.638 152.5,216C 153.252,215.329 153.586,214.496 153.5,213.5 Z"/></g>
<g><path style="opacity:1" fill="#eceeed" d="M 99.5,193.5 C 112.597,214.597 129.93,231.264 151.5,243.5C 149.586,246.684 148.92,250.351 149.5,254.5C 144.5,254.5 139.5,254.5 134.5,254.5C 134.5,249.5 134.5,244.5 134.5,239.5C 129.5,239.5 124.5,239.5 119.5,239.5C 119.5,234.5 119.5,229.5 119.5,224.5C 114.5,224.5 109.5,224.5 104.5,224.5C 104.5,219.5 104.5,214.5 104.5,209.5C 99.5,209.5 94.5,209.5 89.5,209.5C 89.5,204.5 89.5,199.5 89.5,194.5C 92.7766,194.216 95.9433,194.549 99,195.5C 99.4643,194.906 99.631,194.239 99.5,193.5 Z"/></g>
<g><path style="opacity:1" fill="#eff0ef" d="M 359.5,239.5 C 359.5,244.833 359.5,250.167 359.5,255.5C 299.833,255.5 240.167,255.5 180.5,255.5C 189.242,252.245 197.909,248.578 206.5,244.5C 206.905,245.55 207.571,245.55 208.5,244.5C 209.487,247.768 209.82,251.102 209.5,254.5C 214.5,254.5 219.5,254.5 224.5,254.5C 224.5,249.5 224.5,244.5 224.5,239.5C 229.5,239.5 234.5,239.5 239.5,239.5C 239.5,244.5 239.5,249.5 239.5,254.5C 244.5,254.5 249.5,254.5 254.5,254.5C 254.5,249.5 254.5,244.5 254.5,239.5C 259.5,239.5 264.5,239.5 269.5,239.5C 269.5,244.5 269.5,249.5 269.5,254.5C 274.5,254.5 279.5,254.5 284.5,254.5C 284.5,249.5 284.5,244.5 284.5,239.5C 289.5,239.5 294.5,239.5 299.5,239.5C 299.5,244.5 299.5,249.5 299.5,254.5C 304.5,254.5 309.5,254.5 314.5,254.5C 314.5,249.5 314.5,244.5 314.5,239.5C 319.5,239.5 324.5,239.5 329.5,239.5C 329.5,244.5 329.5,249.5 329.5,254.5C 334.5,254.5 339.5,254.5 344.5,254.5C 344.5,249.5 344.5,244.5 344.5,239.5C 349.5,239.5 354.5,239.5 359.5,239.5 Z"/></g>
</svg>
