<?xml version="1.0" encoding="UTF-8"?>
<svg version="1.1" xmlns="http://www.w3.org/2000/svg" width="30" height="30">
<path d="M0 0 C4.19450593 3.16918226 5.58303797 6.04063288 7 11 C7.556875 11.969375 8.11375 12.93875 8.6875 13.9375 C10.37302269 17.87038628 10.18967584 19.91048929 9 24 C6.81008403 26.58297781 5.03168312 28.48415844 2 30 C-2.10661505 30.26928623 -4.96609478 30.39058642 -8.8125 28.9375 C-11.85497152 26.24273951 -12.83617886 23.87940378 -14 20 C-13.875 16.25 -13.875 16.25 -13 13 C-12.49855469 12.53335937 -11.99710938 12.06671875 -11.48046875 11.5859375 C-9.54247259 9.50987829 -9.57876321 8.17292286 -9.4375 5.375 C-9.30859375 2.9609375 -9.30859375 2.9609375 -9 1 C-5.86128812 -0.56935594 -3.46144178 -0.35201103 0 0 Z " fill="#476D8C" transform="translate(17,0)"/>
<path d="M0 0 C4.19450593 3.16918226 5.58303797 6.04063288 7 11 C7.556875 11.969375 8.11375 12.93875 8.6875 13.9375 C10.37302269 17.87038628 10.18967584 19.91048929 9 24 C6.81008403 26.58297781 5.03168312 28.48415844 2 30 C-2.10661505 30.26928623 -4.96609478 30.39058642 -8.8125 28.9375 C-11.85497152 26.24273951 -12.83617886 23.87940378 -14 20 C-13.875 16.25 -13.875 16.25 -13 13 C-12.49855469 12.53335937 -11.99710938 12.06671875 -11.48046875 11.5859375 C-9.54247259 9.50987829 -9.57876321 8.17292286 -9.4375 5.375 C-9.30859375 2.9609375 -9.30859375 2.9609375 -9 1 C-5.86128812 -0.56935594 -3.46144178 -0.35201103 0 0 Z M-9.5625 10.9375 C-12.43091917 14.54141127 -12.73890676 16.36424828 -12.5 20.84375 C-11.70000747 24.29371778 -9.74407005 25.90927996 -7 28 C-3.86128812 29.56935594 -1.46144178 29.35201103 2 29 C4.8971941 26.68726558 4.8971941 26.68726558 7 24 C7.33 23.67 7.66 23.34 8 23 C8.61024462 17.85210059 8.61024462 17.85210059 6.91796875 13.13671875 C5.43544807 11.28779857 5.43544807 11.28779857 3 9 C2.67 9 2.34 9 2 9 C2 11.97 2 14.94 2 18 C0.68 18 -0.64 18 -2 18 C-2 17.34 -2 16.68 -2 16 C-2.99 16 -3.98 16 -5 16 C-5.33 13.69 -5.66 11.38 -6 9 C-7.4024775 8.89948195 -7.4024775 8.89948195 -9.5625 10.9375 Z " fill="#BC8476" transform="translate(17,0)"/>
<path d="M0 0 C4.19450593 3.16918226 5.58303797 6.04063288 7 11 C7.556875 11.969375 8.11375 12.93875 8.6875 13.9375 C10.37302269 17.87038628 10.18967584 19.91048929 9 24 C6.81008403 26.58297781 5.03168312 28.48415844 2 30 C-2.10661505 30.26928623 -4.96609478 30.39058642 -8.8125 28.9375 C-11.85497152 26.24273951 -12.83617886 23.87940378 -14 20 C-13.875 16.25 -13.875 16.25 -13 13 C-12.49855469 12.53335937 -11.99710938 12.06671875 -11.48046875 11.5859375 C-9.54247259 9.50987829 -9.57876321 8.17292286 -9.4375 5.375 C-9.30859375 2.9609375 -9.30859375 2.9609375 -9 1 C-5.86128812 -0.56935594 -3.46144178 -0.35201103 0 0 Z M-6 3 C-6.90094617 4.9769577 -7.5655401 6.94760218 -8.19140625 9.02734375 C-9 11 -9 11 -10.55859375 12.48046875 C-12.45091051 14.4753501 -12.46290985 15.65814685 -12.5 18.375 C-12.38947989 22.14496377 -12.09513794 22.87982577 -9.625 26 C-5.54182873 29.11098764 -3.17345666 29.52611424 2 29 C4.8971941 26.68726558 4.8971941 26.68726558 7 24 C7.33 23.67 7.66 23.34 8 23 C8.51454325 18.02608195 8.55603911 15.23632017 5.5 11.1875 C5.0359375 10.64480469 4.571875 10.10210937 4.09375 9.54296875 C3 8 3 8 3 5 C2.34 5 1.68 5 1 5 C0.34 3.68 -0.32 2.36 -1 1 C-3.20086936 1 -4.19664809 1.72704571 -6 3 Z " fill="#EEF0F3" transform="translate(17,0)"/>
<path d="M0 0 C0 4.29 0 8.58 0 13 C-0.99 12.67 -1.98 12.34 -3 12 C-2.67 12.99 -2.34 13.98 -2 15 C-1.01 15 -0.02 15 1 15 C1.66 16.32 2.32 17.64 3 19 C-0.16937172 18.71827807 -2.35417981 18.51665615 -4.875 16.5 C-6.5955342 12.67659066 -6.81203302 9.11137441 -6 5 C-2.02040816 0 -2.02040816 0 0 0 Z " fill="#2B4D5D" transform="translate(11,9)"/>
<path d="M0 0 C0.33 0 0.66 0 1 0 C1 2.97 1 5.94 1 9 C-0.32 9.33 -1.64 9.66 -3 10 C-3 8.35 -3 6.7 -3 5 C-3.66 5 -4.32 5 -5 5 C-5 5.99 -5 6.98 -5 8 C-5.66 8 -6.32 8 -7 8 C-7 7.01 -7 6.02 -7 5 C-7.66 5 -8.32 5 -9 5 C-9.33 6.32 -9.66 7.64 -10 9 C-10.99 9 -11.98 9 -13 9 C-13 8.01 -13 7.02 -13 6 C-12.34 6 -11.68 6 -11 6 C-10.34 4.35 -9.68 2.7 -9 1 C-8.01 1 -7.02 1 -6 1 C-6 1.66 -6 2.32 -6 3 C-4.02 2.67 -2.04 2.34 0 2 C0 1.34 0 0.68 0 0 Z " fill="#608481" transform="translate(21,15)"/>
<path d="M0 0 C3.66540112 2.91075971 4.67714638 5.59048793 6 10 C6.556875 10.969375 7.11375 11.93875 7.6875 12.9375 C9.37302269 16.87038628 9.18967584 18.91048929 8 23 C5.4375 25.9375 5.4375 25.9375 3 28 C2.34 27.67 1.68 27.34 1 27 C1.825 26.34 2.65 25.68 3.5 25 C6.12968259 21.8443809 6.73629553 20.15518402 6.51171875 16.05859375 C5.7440758 12.97044236 4.06952316 10.90858875 1.99609375 8.54296875 C1.66738281 8.03378906 1.33867187 7.52460938 1 7 C1.33 6.01 1.66 5.02 2 4 C1.34 4 0.68 4 0 4 C-0.45375 3.484375 -0.9075 2.96875 -1.375 2.4375 C-1.91125 1.963125 -2.4475 1.48875 -3 1 C-5.16299211 1.22757731 -5.16299211 1.22757731 -7 2 C-7 1.34 -7 0.68 -7 0 C-3.80367098 -1.06544301 -3.02974348 -1.19353531 0 0 Z " fill="#ECEEEC" transform="translate(18,1)"/>
<path d="M0 0 C0.33 0 0.66 0 1 0 C1.06058594 0.62648438 1.12117187 1.25296875 1.18359375 1.8984375 C1.26738281 2.71570313 1.35117188 3.53296875 1.4375 4.375 C1.51871094 5.18710937 1.59992187 5.99921875 1.68359375 6.8359375 C1.89090114 9.04272805 1.89090114 9.04272805 3 11 C3.99 11 4.98 11 6 11 C6.66 12.32 7.32 13.64 8 15 C4.83062828 14.71827807 2.64582019 14.51665615 0.125 12.5 C-1.5570104 8.76219912 -1.42641534 5.04274548 -1 1 C-0.67 0.67 -0.34 0.34 0 0 Z " fill="#3C4E74" transform="translate(6,13)"/>
<path d="M0 0 C1.32 1.32 2.64 2.64 4 4 C3.67 4.66 3.34 5.32 3 6 C0.125 6.125 0.125 6.125 -3 6 C-3.66 5.34 -4.32 4.68 -5 4 C-3 1 -3 1 0 0 Z " fill="#5C6724" transform="translate(15,1)"/>
<path d="M0 0 C0.33 0 0.66 0 1 0 C1 2.97 1 5.94 1 9 C-0.32 9.33 -1.64 9.66 -3 10 C-3 8.35 -3 6.7 -3 5 C-2.01 4.67 -1.02 4.34 0 4 C0 2.68 0 1.36 0 0 Z " fill="#6C96BB" transform="translate(21,15)"/>
<path d="M0 0 C0.66 0.33 1.32 0.66 2 1 C1.67 3.97 1.34 6.94 1 10 C0.01 9.67 -0.98 9.34 -2 9 C-2 8.34 -2 7.68 -2 7 C-1.34 7 -0.68 7 0 7 C0 6.01 0 5.02 0 4 C-0.99 4 -1.98 4 -3 4 C-3 3.01 -3 2.02 -3 1 C-2.01 0.67 -1.02 0.34 0 0 Z " fill="#B2ACB5" transform="translate(18,8)"/>
<path d="M0 0 C0.99 0.33 1.98 0.66 3 1 C2.34 1 1.68 1 1 1 C1.061875 1.928125 1.12375 2.85625 1.1875 3.8125 C1 7 1 7 -2 10 C-2 7.03 -2 4.06 -2 1 C-1.34 0.67 -0.68 0.34 0 0 Z " fill="#FCF8F6" transform="translate(10,0)"/>
<path d="M0 0 C0.99 0.99 1.98 1.98 3 3 C0.36 3.66 -2.28 4.32 -5 5 C-4.1875 3.0625 -4.1875 3.0625 -3 1 C-2.01 0.67 -1.02 0.34 0 0 Z " fill="#A06957" transform="translate(15,1)"/>
</svg>
