<?xml version="1.0" encoding="UTF-8"?>
<!DOCTYPE svg PUBLIC "-//W3C//DTD SVG 1.1//EN" "http://www.w3.org/Graphics/SVG/1.1/DTD/svg11.dtd">
<svg xmlns="http://www.w3.org/2000/svg" version="1.1" width="414px" height="500px" style="shape-rendering:geometricPrecision; text-rendering:geometricPrecision; image-rendering:optimizeQuality; fill-rule:evenodd; clip-rule:evenodd" xmlns:xlink="http://www.w3.org/1999/xlink">
<g><path style="opacity:0.961" fill="#080502" d="M 182.5,-0.5 C 186.833,-0.5 191.167,-0.5 195.5,-0.5C 195.5,1.83333 195.5,4.16667 195.5,6.5C 197.167,6.5 198.833,6.5 200.5,6.5C 200.5,4.16667 200.5,1.83333 200.5,-0.5C 204.5,-0.5 208.5,-0.5 212.5,-0.5C 212.5,1.83333 212.5,4.16667 212.5,6.5C 214.167,6.5 215.833,6.5 217.5,6.5C 217.5,4.16667 217.5,1.83333 217.5,-0.5C 221.5,-0.5 225.5,-0.5 229.5,-0.5C 229.5,5.16667 229.5,10.8333 229.5,16.5C 227.167,16.5 224.833,16.5 222.5,16.5C 222.281,20.3776 221.281,24.0442 219.5,27.5C 221.686,28.2208 223.853,28.8875 226,29.5C 226.18,31.4884 226.014,33.4884 225.5,35.5C 226.833,35.5 228.167,35.5 229.5,35.5C 229.148,32.9272 229.648,30.5938 231,28.5C 234.057,29.4505 237.223,29.7839 240.5,29.5C 240.337,31.8568 240.503,34.1902 241,36.5C 242,37.8333 243,37.8333 244,36.5C 244.495,34.5273 244.662,32.5273 244.5,30.5C 248.154,30.9422 251.821,31.2756 255.5,31.5C 255.682,33.5914 255.348,35.5914 254.5,37.5C 255.689,38.4287 257.022,38.762 258.5,38.5C 258.5,36.5 258.5,34.5 258.5,32.5C 261.119,32.2317 263.619,32.565 266,33.5C 265.633,29.2538 265.467,24.9204 265.5,20.5C 263.194,20.0074 260.861,19.6741 258.5,19.5C 259.66,13.8598 260.66,8.19316 261.5,2.5C 265.481,3.02087 269.481,3.3542 273.5,3.5C 273.492,6.54483 273.159,9.54483 272.5,12.5C 273.93,12.4208 275.264,12.7542 276.5,13.5C 278.054,11.0671 278.72,8.40046 278.5,5.5C 282.5,6.16667 286.5,6.83333 290.5,7.5C 289.992,10.1761 289.825,12.8428 290,15.5C 291.356,16.3802 292.856,16.7135 294.5,16.5C 294.539,13.6786 295.205,11.0119 296.5,8.5C 300.072,9.68096 303.738,10.3476 307.5,10.5C 306.757,16.5462 305.757,22.5462 304.5,28.5C 302.131,28.1489 299.797,27.9822 297.5,28C 295.765,31.4666 293.765,34.7999 291.5,38C 293.74,38.977 296.073,39.477 298.5,39.5C 297.908,42.1272 297.575,44.7938 297.5,47.5C 300.779,46.9694 302.113,44.9694 301.5,41.5C 305.197,42.0078 308.864,42.6745 312.5,43.5C 312.683,45.9363 312.016,48.103 310.5,50C 311.5,50.5 312.5,51 313.5,51.5C 314.657,49.322 315.99,47.322 317.5,45.5C 320.332,46.5805 323.165,47.5805 326,48.5C 326.429,50.6687 325.929,52.6687 324.5,54.5C 325.328,55.4147 326.328,56.0814 327.5,56.5C 328.782,54.8208 329.782,52.9874 330.5,51C 332.567,50.4644 334.401,50.9644 336,52.5C 336.017,48.107 336.85,43.9403 338.5,40C 336,39.1146 333.667,37.9479 331.5,36.5C 334.051,32.0654 336.051,27.3988 337.5,22.5C 340.849,21.7273 344.016,22.394 347,24.5C 347.537,27.1872 347.037,29.6872 345.5,32C 346.5,32.5 347.5,33 348.5,33.5C 349.833,31.1667 351.167,28.8333 352.5,26.5C 355.125,27.7639 357.792,28.9305 360.5,30C 361.412,32.9063 360.746,35.573 358.5,38C 359.766,38.3095 360.933,38.8095 362,39.5C 363.411,37.3496 364.245,35.0163 364.5,32.5C 368.604,32.8839 372.271,34.3839 375.5,37C 373.033,42.1008 370.7,47.2675 368.5,52.5C 366.922,51.3595 365.256,50.8595 363.5,51C 361,54.8333 357.833,58 354,60.5C 347.34,74.8198 341.673,89.4865 337,104.5C 334.413,107.034 331.747,107.034 329,104.5C 327.96,107.04 326.126,108.707 323.5,109.5C 325.533,111.452 325.866,113.618 324.5,116C 328.223,117.259 329.223,119.592 327.5,123C 335.056,126.389 340.389,131.889 343.5,139.5C 354.658,143.992 361.992,151.992 365.5,163.5C 375.716,170.221 382.216,179.554 385,191.5C 395.259,202.027 400.593,214.694 401,229.5C 404.419,233.331 407.086,237.665 409,242.5C 410.575,249.432 411.742,256.432 412.5,263.5C 411.992,266.534 411.325,269.534 410.5,272.5C 411.134,275.416 412.134,278.082 413.5,280.5C 413.5,287.833 413.5,295.167 413.5,302.5C 412.163,304.349 411.497,306.516 411.5,309C 413.649,319.919 411.816,330.086 406,339.5C 404.378,366.403 393.878,389.07 374.5,407.5C 370.149,420.71 362.482,431.544 351.5,440C 348.392,442.106 345.059,443.772 341.5,445C 334.058,459.217 322.391,467.217 306.5,469C 295.057,478.058 282.39,485.058 268.5,490C 255.579,494.033 242.579,497.2 229.5,499.5C 214.167,499.5 198.833,499.5 183.5,499.5C 161.305,496.602 140.305,489.769 120.5,479C 115.481,476.157 110.814,472.824 106.5,469C 90.8485,467.169 79.1818,459.336 71.5,445.5C 54.8401,437.674 43.6734,425.007 38,407.5C 19.0086,388.509 8.34194,365.509 6,338.5C 0.67053,328.959 -0.82947,318.793 1.5,308C 1.47528,306.124 0.808618,304.624 -0.5,303.5C -0.5,295.5 -0.5,287.5 -0.5,279.5C 0.726804,277.368 1.7268,275.034 2.5,272.5C -0.152206,259.729 1.34779,247.396 7,235.5C 8.28987,233.208 9.95654,231.208 12,229.5C 11.8889,215.181 16.8889,202.848 27,192.5C 30.4725,180.028 37.4725,170.028 48,162.5C 51.3529,151.315 58.5196,143.982 69.5,140.5C 71.5618,132.721 76.2285,127.055 83.5,123.5C 85.5,118.833 87.5,114.167 89.5,109.5C 87.0988,108.549 84.9322,107.216 83,105.5C 77.0702,107.249 74.4035,104.916 75,98.5C 69.2766,85.9962 63.9433,73.3296 59,60.5C 55.1667,58 52,54.8333 49.5,51C 47.7445,50.8595 46.0778,51.3595 44.5,52.5C 41.8765,46.924 39.5432,41.2574 37.5,35.5C 41.0857,34.2074 44.7524,33.2074 48.5,32.5C 48.2639,35.2257 49.0972,37.559 51,39.5C 51.9246,38.9535 52.7579,38.2868 53.5,37.5C 50.0079,32.8113 51.0079,29.6446 56.5,28C 57.8721,27.5983 59.2054,27.0983 60.5,26.5C 61.8333,28.8333 63.1667,31.1667 64.5,33.5C 65.5,33 66.5,32.5 67.5,32C 66.6005,29.8083 65.6005,27.6416 64.5,25.5C 67.1704,23.8843 70.0038,22.5509 73,21.5C 73.772,21.6448 74.4387,21.9781 75,22.5C 77.0288,26.9197 78.8622,31.4197 80.5,36C 78.7678,37.6946 76.7678,39.028 74.5,40C 76.0568,43.9779 76.8902,48.1446 77,52.5C 78.1939,51.5697 79.5272,50.9031 81,50.5C 82.8186,52.1257 84.1519,54.1257 85,56.5C 86.0674,55.8095 87.2341,55.3095 88.5,55C 86.5356,52.8325 86.2022,50.4992 87.5,48C 90.1724,47.1656 92.839,46.3323 95.5,45.5C 96.6566,47.678 97.9899,49.678 99.5,51.5C 100.72,51.1131 101.387,50.2798 101.5,49C 100.394,47.1178 100.394,45.2844 101.5,43.5C 103.976,42.771 106.476,42.1043 109,41.5C 110.713,42.9544 111.88,44.7877 112.5,47C 113.448,47.4828 114.448,47.6495 115.5,47.5C 115.167,44.8333 114.833,42.1667 114.5,39.5C 116.06,39.4809 117.56,39.1476 119,38.5C 120.257,38.1501 120.591,37.4835 120,36.5C 118.247,33.9952 116.747,31.3286 115.5,28.5C 113.229,27.6365 110.895,27.6365 108.5,28.5C 106.985,22.5898 105.985,16.5898 105.5,10.5C 108.959,10.4687 112.292,9.80204 115.5,8.5C 117.401,10.7284 118.401,13.3951 118.5,16.5C 120.144,16.7135 121.644,16.3802 123,15.5C 122.917,12.8806 122.75,10.214 122.5,7.5C 126.5,6.83333 130.5,6.16667 134.5,5.5C 134.104,8.48223 134.771,11.1489 136.5,13.5C 137.795,12.9017 139.128,12.4017 140.5,12C 139.773,9.87604 139.106,7.70937 138.5,5.5C 138.709,4.91395 139.043,4.41395 139.5,4C 142.525,3.6393 145.525,3.1393 148.5,2.5C 149.442,2.60816 150.275,2.94149 151,3.5C 151.94,8.42374 153.106,13.2571 154.5,18C 152.661,19.1316 150.661,19.9649 148.5,20.5C 147.468,24.8275 146.968,29.1608 147,33.5C 152.048,31.4526 154.548,33.1193 154.5,38.5C 155.5,38.5 156.5,38.5 157.5,38.5C 157.5,36.1667 157.5,33.8333 157.5,31.5C 161.154,31.0578 164.821,30.7244 168.5,30.5C 168.192,32.924 168.526,35.2573 169.5,37.5C 172.106,35.5822 173.106,32.9156 172.5,29.5C 176.167,29.5 179.833,29.5 183.5,29.5C 183.5,31.5 183.5,33.5 183.5,35.5C 184.5,35.5 185.5,35.5 186.5,35.5C 186.5,33.1667 186.5,30.8333 186.5,28.5C 188.857,28.6633 191.19,28.4966 193.5,28C 191.488,24.4519 190.488,20.6186 190.5,16.5C 187.833,16.5 185.167,16.5 182.5,16.5C 182.5,10.8333 182.5,5.16667 182.5,-0.5 Z M 189.5,100.5 C 231.879,98.5774 272.879,105.077 312.5,120C 241.833,120.667 171.167,120.667 100.5,120C 129.296,108.943 158.963,102.443 189.5,100.5 Z"/></g>
<g><path style="opacity:1" fill="#f2f2f2" d="M 185.5,1.5 C 187.833,1.5 190.167,1.5 192.5,1.5C 192.5,4.16667 192.5,6.83333 192.5,9.5C 196.167,9.5 199.833,9.5 203.5,9.5C 203.5,6.83333 203.5,4.16667 203.5,1.5C 205.5,1.5 207.5,1.5 209.5,1.5C 209.5,4.16667 209.5,6.83333 209.5,9.5C 213.167,9.5 216.833,9.5 220.5,9.5C 220.5,6.83333 220.5,4.16667 220.5,1.5C 222.5,1.5 224.5,1.5 226.5,1.5C 226.5,5.5 226.5,9.5 226.5,13.5C 212.833,13.5 199.167,13.5 185.5,13.5C 185.5,9.5 185.5,5.5 185.5,1.5 Z"/></g>
<g><path style="opacity:1" fill="#ececec" d="M 144.5,5.5 C 146.144,5.28649 147.644,5.61983 149,6.5C 149.936,10.1135 150.436,13.7802 150.5,17.5C 137.164,19.8337 123.831,22.167 110.5,24.5C 109.819,20.8026 109.319,17.1359 109,13.5C 111.041,12.5769 113.208,12.2436 115.5,12.5C 115.674,14.861 116.007,17.1944 116.5,19.5C 119.807,18.9492 123.14,18.6159 126.5,18.5C 126.296,15.4824 125.963,12.4824 125.5,9.5C 127.861,9.32588 130.194,8.99255 132.5,8.5C 132.232,11.1194 132.565,13.6194 133.5,16C 136.112,15.9015 138.779,15.5682 141.5,15C 143.723,13.2485 144.057,11.0819 142.5,8.5C 142.942,7.26133 143.609,6.26133 144.5,5.5 Z"/></g>
<g><path style="opacity:1" fill="#ebebeb" d="M 263.5,5.5 C 265.764,6.21862 268.097,6.55195 270.5,6.5C 267.847,14.9486 270.847,17.9486 279.5,15.5C 280.374,13.2534 280.708,10.9201 280.5,8.5C 282.96,8.69855 285.293,9.36521 287.5,10.5C 286.607,13.0841 286.274,15.7508 286.5,18.5C 289.833,18.8333 293.167,19.1667 296.5,19.5C 296.674,17.139 297.007,14.8056 297.5,12.5C 300.059,12.3896 302.392,13.0562 304.5,14.5C 303.079,18.0278 302.412,21.6945 302.5,25.5C 289.186,22.7408 275.852,20.0741 262.5,17.5C 262.505,13.4659 262.838,9.46591 263.5,5.5 Z"/></g>
<g><path style="opacity:1" fill="#efefef" d="M 193.5,15.5 C 202.167,15.5 210.833,15.5 219.5,15.5C 219.5,16.8333 219.5,18.1667 219.5,19.5C 210.833,19.5 202.167,19.5 193.5,19.5C 193.5,18.1667 193.5,16.8333 193.5,15.5 Z"/></g>
<g><path style="opacity:1" fill="#e5e5e5" d="M 141.5,20.5 C 142.5,20.5 143.5,20.5 144.5,20.5C 144.5,21.8333 144.5,23.1667 144.5,24.5C 135.78,25.9531 127.113,27.6197 118.5,29.5C 118.5,28.1667 118.5,26.8333 118.5,25.5C 126.315,23.959 133.982,22.2924 141.5,20.5 Z"/></g>
<g><path style="opacity:1" fill="#e5e5e5" d="M 268.5,21.5 C 277.214,22.5118 285.881,23.8451 294.5,25.5C 294.915,27.9477 293.915,29.2811 291.5,29.5C 284.228,27.6819 276.895,26.1819 269.5,25C 268.663,23.9887 268.33,22.8221 268.5,21.5 Z"/></g>
<g><path style="opacity:1" fill="#ebebeb" d="M 218.5,40.5 C 220.815,51.0561 222.481,61.7227 223.5,72.5C 221.833,72.5 220.167,72.5 218.5,72.5C 218.302,64.371 217.136,56.371 215,48.5C 209.833,40.9209 204.167,40.5876 198,47.5C 196.018,55.3911 194.685,63.3911 194,71.5C 192.644,72.3802 191.144,72.7135 189.5,72.5C 189.5,71.1667 189.5,69.8333 189.5,68.5C 191.576,55.1206 193.909,41.7872 196.5,28.5C 195.423,26.2706 194.756,23.9372 194.5,21.5C 202.5,21.5 210.5,21.5 218.5,21.5C 218.134,23.905 217.467,26.2383 216.5,28.5C 217.384,32.4729 218.051,36.4729 218.5,40.5 Z"/></g>
<g><path style="opacity:1" fill="#ebebeb" d="M 71.5,24.5 C 72.3764,24.3691 73.0431,24.7025 73.5,25.5C 74.5031,28.1716 75.5031,30.8383 76.5,33.5C 76.4096,35.4251 75.4096,36.5917 73.5,37C 64.5,40.8333 55.5,44.6667 46.5,48.5C 44.4436,45.5546 42.777,42.3879 41.5,39C 41.7336,37.2676 42.7336,36.4342 44.5,36.5C 46.5552,38.2609 48.3885,40.2609 50,42.5C 52.7224,41.5559 55.2224,40.2225 57.5,38.5C 56.5,36.5 55.5,34.5 54.5,32.5C 56.1222,30.5614 57.9555,30.228 60,31.5C 60.8147,33.6228 61.8147,35.6228 63,37.5C 65.2354,35.7976 67.7354,34.7976 70.5,34.5C 70.1274,31.4261 69.4608,28.4261 68.5,25.5C 69.791,25.7373 70.791,25.404 71.5,24.5 Z"/></g>
<g><path style="opacity:1" fill="#eaeaea" d="M 339.5,24.5 C 341.423,24.795 343.09,25.6283 344.5,27C 340.5,34 342.5,37 350.5,36C 351.861,34.4157 352.528,32.5824 352.5,30.5C 354.971,30.233 356.638,31.233 357.5,33.5C 356.638,35.5104 356.138,37.5104 356,39.5C 358.587,41.1958 361.421,42.1958 364.5,42.5C 364.592,36.7028 366.925,35.3695 371.5,38.5C 369.827,41.8685 368.16,45.2019 366.5,48.5C 356.615,44.0573 346.615,39.8906 336.5,36C 336.043,35.586 335.709,35.086 335.5,34.5C 337.036,31.2225 338.369,27.8891 339.5,24.5 Z"/></g>
<g><path style="opacity:1" fill="#efefef" d="M 146.5,41.5 C 151.241,52.7286 155.574,64.062 159.5,75.5C 157.712,75.7852 156.045,75.4519 154.5,74.5C 152.035,66.9089 149.035,59.5756 145.5,52.5C 139.543,47.9947 134.376,48.6614 130,54.5C 129.667,63.5 129.333,72.5 129,81.5C 127.989,82.3366 126.822,82.67 125.5,82.5C 125.073,67.333 124.406,52.333 123.5,37.5C 122.011,35.3549 121.011,33.0215 120.5,30.5C 128.56,29.5548 136.56,28.2214 144.5,26.5C 144.489,28.5466 144.156,30.5466 143.5,32.5C 144.308,35.5917 145.308,38.5917 146.5,41.5 Z"/></g>
<g><path style="opacity:1" fill="#eeeeee" d="M 289.5,36.5 C 288.37,51.6566 287.703,66.9899 287.5,82.5C 286.178,82.67 285.011,82.3366 284,81.5C 283.667,72.5 283.333,63.5 283,54.5C 278.321,48.6652 272.988,47.9985 267,52.5C 263.608,60.0088 260.608,67.6754 258,75.5C 254.667,77.1667 253.333,76.1667 254,72.5C 258.606,60.8439 263.106,49.1772 267.5,37.5C 268.289,36.085 268.956,34.585 269.5,33C 268.355,30.8014 268.355,28.6348 269.5,26.5C 277.195,28.1737 284.862,30.007 292.5,32C 291.614,33.6147 290.614,35.1147 289.5,36.5 Z"/></g>
<g><path style="opacity:1" fill="#1a1a1a" d="M 198.5,29.5 C 199.833,29.5 201.167,29.5 202.5,29.5C 201.833,33.5 201.167,37.5 200.5,41.5C 199.5,41.5 198.5,41.5 197.5,41.5C 197.646,37.4809 197.979,33.4809 198.5,29.5 Z"/></g>
<g><path style="opacity:1" fill="#1e1e1e" d="M 210.5,29.5 C 211.833,29.5 213.167,29.5 214.5,29.5C 214.646,33.5191 214.979,37.5191 215.5,41.5C 214.178,41.67 213.011,41.3366 212,40.5C 211.452,36.8296 210.952,33.1629 210.5,29.5 Z"/></g>
<g><path style="opacity:1" fill="#e0e0e0" d="M 187.5,41.5 C 174.846,42.4958 162.18,43.4958 149.5,44.5C 149.598,42.4471 148.931,40.7804 147.5,39.5C 146.176,36.2053 147.509,34.872 151.5,35.5C 151.5,37.5 151.5,39.5 151.5,41.5C 154.518,41.2962 157.518,40.9629 160.5,40.5C 160.5,38.1667 160.5,35.8333 160.5,33.5C 162.5,33.5 164.5,33.5 166.5,33.5C 166.5,35.5 166.5,37.5 166.5,39.5C 169.5,39.5 172.5,39.5 175.5,39.5C 175.5,37.1667 175.5,34.8333 175.5,32.5C 177.167,32.5 178.833,32.5 180.5,32.5C 180.5,34.5 180.5,36.5 180.5,38.5C 183.5,38.5 186.5,38.5 189.5,38.5C 189.5,36.1667 189.5,33.8333 189.5,31.5C 190.833,31.5 192.167,31.5 193.5,31.5C 193.384,34.8599 193.051,38.1933 192.5,41.5C 190.833,41.5 189.167,41.5 187.5,41.5 Z"/></g>
<g><path style="opacity:1" fill="#e4e4e4" d="M 265.5,35.5 C 265.196,38.5792 264.196,41.4125 262.5,44C 248.516,43.2597 234.516,42.4263 220.5,41.5C 220.784,39.5853 220.451,37.9187 219.5,36.5C 219.5,34.8333 219.5,33.1667 219.5,31.5C 220.5,31.5 221.5,31.5 222.5,31.5C 222.5,33.8333 222.5,36.1667 222.5,38.5C 225.833,38.5 229.167,38.5 232.5,38.5C 232.5,36.5 232.5,34.5 232.5,32.5C 234.167,32.5 235.833,32.5 237.5,32.5C 237.5,34.8333 237.5,37.1667 237.5,39.5C 240.5,39.5 243.5,39.5 246.5,39.5C 246.5,37.5 246.5,35.5 246.5,33.5C 248.5,33.5 250.5,33.5 252.5,33.5C 252.167,36.1667 251.833,38.8333 251.5,41.5C 254.833,41.5 258.167,41.5 261.5,41.5C 261.5,39.5 261.5,37.5 261.5,35.5C 262.833,35.5 264.167,35.5 265.5,35.5 Z"/></g>
<g><path style="opacity:1" fill="#1a1a1a" d="M 137.5,35.5 C 139.144,35.2865 140.644,35.6198 142,36.5C 142.606,39.7127 143.773,42.7127 145.5,45.5C 144.311,46.4287 142.978,46.762 141.5,46.5C 140.452,42.7356 139.119,39.069 137.5,35.5 Z"/></g>
<g><path style="opacity:1" fill="#171717" d="M 271.5,35.5 C 272.5,35.5 273.5,35.5 274.5,35.5C 273.699,39.2347 272.699,42.9014 271.5,46.5C 270.022,46.762 268.689,46.4287 267.5,45.5C 268.849,42.141 270.182,38.8077 271.5,35.5 Z"/></g>
<g><path style="opacity:1" fill="#e9e9e9" d="M 68.5,40.5 C 69.8333,40.5 71.1667,40.5 72.5,40.5C 72.5,41.8333 72.5,43.1667 72.5,44.5C 65.8593,47 59.1927,49.1667 52.5,51C 51.1667,50 51.1667,49 52.5,48C 58.1492,45.9613 63.4825,43.4613 68.5,40.5 Z"/></g>
<g><path style="opacity:1" fill="#e0e0e0" d="M 120.5,51.5 C 107.928,54.2816 95.5945,57.9482 83.5,62.5C 81.1455,60.8122 79.1455,58.8122 77.5,56.5C 77.5106,54.3141 78.5106,53.4808 80.5,54C 81.8613,55.5843 82.528,57.4176 82.5,59.5C 85.4261,58.5392 88.4261,57.8726 91.5,57.5C 91.2437,55.0628 90.5771,52.7294 89.5,50.5C 91.396,49.5344 93.396,49.2011 95.5,49.5C 95.2907,51.7144 96.124,53.381 98,54.5C 100.749,54.026 103.249,53.026 105.5,51.5C 102.405,48.1942 102.905,45.8609 107,44.5C 108.938,46.0581 110.438,48.0581 111.5,50.5C 113.776,49.7868 116.109,49.2868 118.5,49C 118.957,48.586 119.291,48.086 119.5,47.5C 118.253,45.677 117.586,43.677 117.5,41.5C 119.167,41.5 120.833,41.5 122.5,41.5C 123.069,45.3293 122.402,48.6627 120.5,51.5 Z"/></g>
<g><path style="opacity:1" fill="#e1e1e1" d="M 335.5,54.5 C 334.511,58.1573 332.344,60.8239 329,62.5C 316.355,58.1177 303.522,54.4511 290.5,51.5C 290.5,48.8333 290.5,46.1667 290.5,43.5C 291.183,41.8235 292.517,41.1568 294.5,41.5C 294.425,44.2062 294.092,46.8728 293.5,49.5C 295.884,49.4433 298.218,49.7766 300.5,50.5C 302.975,49.3227 303.975,47.3227 303.5,44.5C 309.26,44.3357 310.594,46.5024 307.5,51C 308.928,53.2742 311.095,54.4409 314,54.5C 316.633,53.9106 317.8,52.244 317.5,49.5C 319.167,49.5 320.833,49.5 322.5,49.5C 322.167,52.1667 321.833,54.8333 321.5,57.5C 324.426,58.4608 327.426,59.1274 330.5,59.5C 330.133,55.119 331.799,53.4524 335.5,54.5 Z"/></g>
<g><path style="opacity:1" fill="#e6e6e6" d="M 340.5,40.5 C 347.725,42.779 354.725,45.6124 361.5,49C 359.306,51.8267 356.639,52.1601 353.5,50C 348.866,47.7345 344.199,45.5678 339.5,43.5C 340.127,42.5832 340.461,41.5832 340.5,40.5 Z"/></g>
<g><path style="opacity:1" fill="#f0f0f0" d="M 76.5,57.5 C 83.739,68.3026 90.739,79.3026 97.5,90.5C 96.0316,92.3329 94.3649,92.6662 92.5,91.5C 88.4738,83.6427 83.4738,76.476 77.5,70C 73.5138,69.5012 69.5138,69.3345 65.5,69.5C 64.2905,62.9029 60.9572,57.7362 55.5,54C 61.1578,50.6709 67.1578,48.1709 73.5,46.5C 72.9439,50.6656 73.9439,54.3323 76.5,57.5 Z"/></g>
<g><path style="opacity:1" fill="#efefef" d="M 347.5,69.5 C 342.703,69.1211 338.036,69.6211 333.5,71C 328.959,77.2455 324.792,83.7455 321,90.5C 319.604,92.5268 317.938,92.8602 316,91.5C 315.685,90.0922 316.018,88.7589 317,87.5C 324.093,76.9747 330.927,66.3081 337.5,55.5C 339.268,52.8375 339.935,49.8375 339.5,46.5C 345.62,48.7067 351.62,51.2067 357.5,54C 351.708,57.4894 348.374,62.6561 347.5,69.5 Z"/></g>
<g><path style="opacity:1" fill="#1a1a1a" d="M 68.5,55.5 C 69.9778,55.238 71.3112,55.5713 72.5,56.5C 74.1667,59.1667 75.8333,61.8333 77.5,64.5C 76.7112,66.4879 75.5445,66.8213 74,65.5C 71.8882,62.2729 70.0549,58.9396 68.5,55.5 Z"/></g>
<g><path style="opacity:1" fill="#161616" d="M 340.5,55.5 C 341.5,55.5 342.5,55.5 343.5,55.5C 342.405,59.6114 340.405,63.2781 337.5,66.5C 336.5,66.1667 335.833,65.5 335.5,64.5C 337.432,61.6339 339.099,58.6339 340.5,55.5 Z"/></g>
<g><path style="opacity:1" fill="#1d1d1d" d="M 265.5,35.5 C 266.167,36.1667 266.833,36.8333 267.5,37.5C 263.106,49.1772 258.606,60.8439 254,72.5C 253.333,76.1667 254.667,77.1667 258,75.5C 260.608,67.6754 263.608,60.0088 267,52.5C 272.988,47.9985 278.321,48.6652 283,54.5C 283.333,63.5 283.667,72.5 284,81.5C 285.011,82.3366 286.178,82.67 287.5,82.5C 287.703,66.9899 288.37,51.6566 289.5,36.5C 289.198,39.0593 289.532,41.3926 290.5,43.5C 290.5,46.1667 290.5,48.8333 290.5,51.5C 303.522,54.4511 316.355,58.1177 329,62.5C 332.344,60.8239 334.511,58.1573 335.5,54.5C 336.167,54.8333 336.833,55.1667 337.5,55.5C 330.927,66.3081 324.093,76.9747 317,87.5C 316.018,88.7589 315.685,90.0922 316,91.5C 317.938,92.8602 319.604,92.5268 321,90.5C 324.792,83.7455 328.959,77.2455 333.5,71C 338.036,69.6211 342.703,69.1211 347.5,69.5C 346.833,70.1667 346.167,70.8333 345.5,71.5C 342.15,71.335 338.817,71.5017 335.5,72C 330.441,78.728 325.774,85.728 321.5,93C 322,93.1667 322.5,93.3333 323,93.5C 327.486,87.8738 331.486,81.8738 335,75.5C 336.11,73.9632 337.61,73.2965 339.5,73.5C 340.833,74.1667 342.167,74.8333 343.5,75.5C 335.562,75.202 334.895,76.702 341.5,80C 339.064,79.9466 336.731,80.1133 334.5,80.5C 336.167,81.6667 337.833,82.8333 339.5,84C 337.064,83.9466 334.731,84.1133 332.5,84.5C 334.167,85.6667 335.833,86.8333 337.5,88C 334.833,88 332.167,88 329.5,88C 339.018,92.5326 338.684,93.3659 328.5,90.5C 328.167,90.8333 327.833,91.1667 327.5,91.5C 329.833,93 332.167,94.5 334.5,96C 331.437,95.9565 328.437,95.6232 325.5,95C 328.561,97.0347 331.895,98.2014 335.5,98.5C 334.833,99.1667 334.167,99.8333 333.5,100.5C 248.775,65.8442 164.109,65.8442 79.5,100.5C 78.8333,99.8333 78.1667,99.1667 77.5,98.5C 81.0615,98.0348 84.3949,96.8681 87.5,95C 84.9369,94.8458 82.4369,95.3458 80,96.5C 79.5,96.1667 79,95.8333 78.5,95.5C 80.8333,94.1667 83.1667,92.8333 85.5,91.5C 85,91.1667 84.5,90.8333 84,90.5C 81.6698,92.0426 79.1698,92.5426 76.5,92C 78.7173,90.7316 80.7173,89.2316 82.5,87.5C 82.1667,87.1667 81.8333,86.8333 81.5,86.5C 72.6125,89.3577 72.2792,88.5244 80.5,84C 78.144,83.8446 75.8107,83.8446 73.5,84C 75.1667,82.8333 76.8333,81.6667 78.5,80.5C 76.2692,80.1133 73.9359,79.9466 71.5,80C 72.8333,79 74.1667,78 75.5,77C 73.4062,75.6485 71.0728,75.1485 68.5,75.5C 68.1667,74.8333 67.8333,74.1667 67.5,73.5C 71.0644,73.1506 74.3978,73.8173 77.5,75.5C 81,81.1667 84.5,86.8333 88,92.5C 88.8928,93.7112 89.7261,93.7112 90.5,92.5C 86.6254,85.9164 82.6254,79.4164 78.5,73C 74.9743,71.6632 71.3076,71.1632 67.5,71.5C 66.8333,70.8333 66.1667,70.1667 65.5,69.5C 69.5138,69.3345 73.5138,69.5012 77.5,70C 83.4738,76.476 88.4738,83.6427 92.5,91.5C 94.3649,92.6662 96.0316,92.3329 97.5,90.5C 90.739,79.3026 83.739,68.3026 76.5,57.5C 77.1667,57.5 77.5,57.1667 77.5,56.5C 79.1455,58.8122 81.1455,60.8122 83.5,62.5C 95.5945,57.9482 107.928,54.2816 120.5,51.5C 121.167,52.1667 121.833,52.8333 122.5,53.5C 123.488,48.3595 123.821,43.0262 123.5,37.5C 124.406,52.333 125.073,67.333 125.5,82.5C 126.822,82.67 127.989,82.3366 129,81.5C 129.333,72.5 129.667,63.5 130,54.5C 134.376,48.6614 139.543,47.9947 145.5,52.5C 149.035,59.5756 152.035,66.9089 154.5,74.5C 156.045,75.4519 157.712,75.7852 159.5,75.5C 155.574,64.062 151.241,52.7286 146.5,41.5C 147.338,41.1583 147.672,40.4916 147.5,39.5C 148.931,40.7804 149.598,42.4471 149.5,44.5C 162.18,43.4958 174.846,42.4958 187.5,41.5C 188.833,42.1667 190.167,42.8333 191.5,43.5C 190.167,43.5 188.833,43.5 187.5,43.5C 187.5,45.8333 187.5,48.1667 187.5,50.5C 188.5,50.5 189.5,50.5 190.5,50.5C 190.795,52.7354 190.461,54.7354 189.5,56.5C 189.5,55.1667 189.5,53.8333 189.5,52.5C 186.5,52.5 183.5,52.5 180.5,52.5C 180.5,53.8333 180.5,55.1667 180.5,56.5C 179.833,58.1667 179.167,59.8333 178.5,61.5C 178.5,58.8333 178.5,56.1667 178.5,53.5C 174.5,53.5 170.5,53.5 166.5,53.5C 166.274,56.2492 166.607,58.9159 167.5,61.5C 168.689,62.4287 170.022,62.762 171.5,62.5C 173.167,63.1667 174.833,63.8333 176.5,64.5C 177.167,64.1667 177.833,63.8333 178.5,63.5C 178.5,66.8333 178.5,70.1667 178.5,73.5C 181.167,73.5 183.833,73.5 186.5,73.5C 187.207,70.2139 187.54,66.8806 187.5,63.5C 185.833,63.5 184.167,63.5 182.5,63.5C 184.265,62.5386 186.265,62.2053 188.5,62.5C 188.205,64.7354 188.539,66.7354 189.5,68.5C 189.5,69.8333 189.5,71.1667 189.5,72.5C 191.144,72.7135 192.644,72.3802 194,71.5C 194.685,63.3911 196.018,55.3911 198,47.5C 204.167,40.5876 209.833,40.9209 215,48.5C 217.136,56.371 218.302,64.371 218.5,72.5C 220.167,72.5 221.833,72.5 223.5,72.5C 222.481,61.7227 220.815,51.0561 218.5,40.5C 219.434,39.4324 219.768,38.099 219.5,36.5C 220.451,37.9187 220.784,39.5853 220.5,41.5C 234.516,42.4263 248.516,43.2597 262.5,44C 264.196,41.4125 265.196,38.5792 265.5,35.5 Z"/></g>
<g><path style="opacity:1" fill="#eaeaea" d="M 324.5,63.5 C 329.275,64.6073 329.608,66.774 325.5,70C 324.552,70.4828 323.552,70.6495 322.5,70.5C 322.878,68.079 323.545,65.7457 324.5,63.5 Z"/></g>
<g><path style="opacity:1" fill="#f8f8f8" d="M 241.5,73.5 C 239.833,73.5 238.167,73.5 236.5,73.5C 236.5,71.5 236.5,69.5 236.5,67.5C 236.5,66.5 236.5,65.5 236.5,64.5C 238.167,64.5 239.833,64.5 241.5,64.5C 241.5,67.5 241.5,70.5 241.5,73.5 Z"/></g>
<g><path style="opacity:1" fill="#efefef" d="M 176.5,64.5 C 176.5,67.5 176.5,70.5 176.5,73.5C 174.833,73.5 173.167,73.5 171.5,73.5C 171.037,70.5176 170.704,67.5176 170.5,64.5C 172.5,64.5 174.5,64.5 176.5,64.5 Z"/></g>
<g><path style="opacity:1" fill="#dcdcdc" d="M 85.5,63.5 C 86.8221,63.33 87.9887,63.6634 89,64.5C 89.346,66.2182 89.846,67.8849 90.5,69.5C 87.2949,70.7251 85.2949,69.5584 84.5,66C 84.7432,65.0979 85.0766,64.2646 85.5,63.5 Z"/></g>
<g><path style="opacity:1" fill="#f4f4f4" d="M 290.5,62.5 C 293.417,63.4174 296.417,64.084 299.5,64.5C 299.477,66.9267 298.977,69.26 298,71.5C 296.274,72.5762 294.441,72.7429 292.5,72C 290.656,69.1963 289.989,66.0297 290.5,62.5 Z"/></g>
<g><path style="opacity:1" fill="#e9e9e9" d="M 224.5,63.5 C 227.833,63.5 231.167,63.5 234.5,63.5C 234.167,66.8333 233.833,70.1667 233.5,73.5C 230.881,73.7683 228.381,73.435 226,72.5C 225.637,69.456 225.137,66.456 224.5,63.5 Z"/></g>
<g><path style="opacity:1" fill="#e7e7e7" d="M 178.5,63.5 C 179.833,63.5 181.167,63.5 182.5,63.5C 184.167,63.5 185.833,63.5 187.5,63.5C 187.54,66.8806 187.207,70.2139 186.5,73.5C 183.833,73.5 181.167,73.5 178.5,73.5C 178.5,70.1667 178.5,66.8333 178.5,63.5 Z"/></g>
<g><path style="opacity:1" fill="#ededed" d="M 119.5,62.5 C 120.5,62.5 121.5,62.5 122.5,62.5C 122.5,65.5 122.5,68.5 122.5,71.5C 115.756,74.0671 112.422,71.7338 112.5,64.5C 115.228,64.8294 117.562,64.1628 119.5,62.5 Z"/></g>
<g><path style="opacity:1" fill="#ebebeb" d="M 310.5,59.5 C 314.883,59.6917 318.883,61.025 322.5,63.5C 321.498,65.5101 320.498,67.5101 319.5,69.5C 316.261,68.2957 313.094,66.9624 310,65.5C 309.82,63.5116 309.986,61.5116 310.5,59.5 Z"/></g>
<g><path style="opacity:1" fill="#f4f4f4" d="M 98.5,59.5 C 102.225,59.7796 103.392,61.7796 102,65.5C 98.9978,67.171 95.8312,68.0043 92.5,68C 91.3621,66.2657 90.8621,64.4324 91,62.5C 93.5667,61.4131 96.0667,60.4131 98.5,59.5 Z"/></g>
<g><path style="opacity:1" fill="#ededed" d="M 297.5,55.5 C 301.732,55.7777 305.732,56.9444 309.5,59C 309.043,61.7592 307.543,63.5925 305,64.5C 301.373,64.0207 298.207,62.6874 295.5,60.5C 296.174,58.8045 296.841,57.1379 297.5,55.5 Z"/></g>
<g><path style="opacity:1" fill="#dfdfdf" d="M 135.5,51.5 C 138.602,51.154 141.435,51.8207 144,53.5C 146.972,60.6106 149.805,67.7773 152.5,75C 152.167,75.5 151.833,76 151.5,76.5C 148.383,69.9901 145.549,63.3234 143,56.5C 140.271,53.1361 137.271,52.8028 134,55.5C 133.832,63.8532 133.332,72.1866 132.5,80.5C 131.335,71.8525 131.168,63.1858 132,54.5C 133.145,53.3636 134.312,52.3636 135.5,51.5 Z"/></g>
<g><path style="opacity:1" fill="#ebebeb" d="M 247.5,55.5 C 251.226,55.1774 254.893,55.5108 258.5,56.5C 257.123,58.2895 256.123,60.2895 255.5,62.5C 252.914,63.48 250.247,63.8134 247.5,63.5C 247.5,60.8333 247.5,58.1667 247.5,55.5 Z"/></g>
<g><path style="opacity:1" fill="#e8e8e8" d="M 158.5,54.5 C 160.5,54.5 162.5,54.5 164.5,54.5C 165.159,57.4552 165.492,60.4552 165.5,63.5C 162.552,63.7771 159.719,63.4438 157,62.5C 156.443,60.3853 155.609,58.3853 154.5,56.5C 155.949,55.8281 157.282,55.1614 158.5,54.5 Z"/></g>
<g><path style="opacity:1" fill="#ececec" d="M 110.5,55.5 C 112.167,55.5 113.833,55.5 115.5,55.5C 116.014,57.5116 116.18,59.5116 116,61.5C 113.159,62.4204 110.326,63.4204 107.5,64.5C 104.401,63.3154 103.068,60.982 103.5,57.5C 106.152,57.5905 108.485,56.9238 110.5,55.5 Z"/></g>
<g><path style="opacity:1" fill="#e4e4e4" d="M 290.5,53.5 C 292.144,53.2865 293.644,53.6198 295,54.5C 295.18,56.4884 295.014,58.4884 294.5,60.5C 293.167,60.5 291.833,60.5 290.5,60.5C 290.5,58.1667 290.5,55.8333 290.5,53.5 Z"/></g>
<g><path style="opacity:1" fill="#ededed" d="M 234.5,53.5 C 238.5,53.5 242.5,53.5 246.5,53.5C 246.296,56.5176 245.963,59.5176 245.5,62.5C 241.833,62.5 238.167,62.5 234.5,62.5C 234.5,59.5 234.5,56.5 234.5,53.5 Z"/></g>
<g><path style="opacity:1" fill="#ebebeb" d="M 178.5,61.5 C 176.393,62.4682 174.059,62.8016 171.5,62.5C 170.022,62.762 168.689,62.4287 167.5,61.5C 166.607,58.9159 166.274,56.2492 166.5,53.5C 170.5,53.5 174.5,53.5 178.5,53.5C 178.5,56.1667 178.5,58.8333 178.5,61.5 Z"/></g>
<g><path style="opacity:1" fill="#e3e3e3" d="M 122.5,53.5 C 122.5,55.8333 122.5,58.1667 122.5,60.5C 118.156,60.4742 116.822,58.4742 118.5,54.5C 119.736,53.7542 121.07,53.4208 122.5,53.5 Z"/></g>
<g><path style="opacity:1" fill="#e0e0e0" d="M 271.5,51.5 C 275.594,50.7046 278.761,52.038 281,55.5C 281.787,63.9118 281.287,72.2452 279.5,80.5C 279.098,72.5292 278.931,64.5292 279,56.5C 276.916,53.5495 274.249,52.8828 271,54.5C 267.587,61.0679 264.753,67.9012 262.5,75C 261.833,77 261.167,77 260.5,75C 262.8,68.8965 264.966,62.7298 267,56.5C 268.059,54.3408 269.559,52.6741 271.5,51.5 Z"/></g>
<g><path style="opacity:1" fill="#e5e5e5" d="M 223.5,52.5 C 226.5,52.5 229.5,52.5 232.5,52.5C 232.5,55.5 232.5,58.5 232.5,61.5C 229.813,61.6641 227.146,61.4974 224.5,61C 223.556,58.2809 223.223,55.4475 223.5,52.5 Z"/></g>
<g><path style="opacity:1" fill="#e7e7e7" d="M 189.5,56.5 C 189.714,58.1439 189.38,59.6439 188.5,61C 185.854,61.4974 183.187,61.6641 180.5,61.5C 180.5,59.8333 180.5,58.1667 180.5,56.5C 180.5,55.1667 180.5,53.8333 180.5,52.5C 183.5,52.5 186.5,52.5 189.5,52.5C 189.5,53.8333 189.5,55.1667 189.5,56.5 Z"/></g>
<g><path style="opacity:1" fill="#e9e9e9" d="M 255.5,46.5 C 261.319,46.0033 262.652,48.0033 259.5,52.5C 258.311,53.4287 256.978,53.762 255.5,53.5C 255.5,51.1667 255.5,48.8333 255.5,46.5 Z"/></g>
<g><path style="opacity:1" fill="#dadada" d="M 203.5,44.5 C 207.426,44.0466 210.592,45.3799 213,48.5C 215.261,56.3878 216.095,64.3878 215.5,72.5C 213.999,64.8279 212.499,57.1613 211,49.5C 206.214,45.0329 202.881,46.0329 201,52.5C 199.371,59.0687 198.538,65.7354 198.5,72.5C 197.5,72.5 196.5,72.5 195.5,72.5C 196.729,64.8521 197.896,57.1854 199,49.5C 200.059,47.3408 201.559,45.6741 203.5,44.5 Z"/></g>
<g><path style="opacity:1" fill="#cecece" d="M 205.5,48.5 C 207.017,48.5106 208.184,49.1772 209,50.5C 210.926,57.7208 212.092,65.0541 212.5,72.5C 208.154,72.6657 203.821,72.499 199.5,72C 210.496,71.033 210.829,70.1996 200.5,69.5C 200.5,68.5 200.5,67.5 200.5,66.5C 210.277,66.3534 210.611,65.3534 201.5,63.5C 210.833,62.1667 210.833,60.8333 201.5,59.5C 203.833,58.8333 206.167,58.1667 208.5,57.5C 206.604,56.5344 204.604,56.2011 202.5,56.5C 202.5,55.5 202.5,54.5 202.5,53.5C 209.662,53.3872 209.995,52.3872 203.5,50.5C 204.243,49.8182 204.909,49.1515 205.5,48.5 Z"/></g>
<g><path style="opacity:1" fill="#dddddd" d="M 151.5,46.5 C 153.5,46.5 155.5,46.5 157.5,46.5C 157.5,48.8333 157.5,51.1667 157.5,53.5C 153.108,53.4745 151.108,51.1412 151.5,46.5 Z"/></g>
<g><path style="opacity:1" fill="#f1f1f1" d="M 242.5,45.5 C 246.167,45.5 249.833,45.5 253.5,45.5C 253.5,47.8333 253.5,50.1667 253.5,52.5C 249.833,52.5 246.167,52.5 242.5,52.5C 242.5,50.1667 242.5,47.8333 242.5,45.5 Z"/></g>
<g><path style="opacity:1" fill="#f0f0f0" d="M 158.5,45.5 C 162.5,45.5 166.5,45.5 170.5,45.5C 170.5,47.8333 170.5,50.1667 170.5,52.5C 166.833,52.5 163.167,52.5 159.5,52.5C 159.326,50.139 158.993,47.8056 158.5,45.5 Z"/></g>
<g><path style="opacity:1" fill="#eeeeee" d="M 227.5,43.5 C 231.768,44.3726 236.102,44.7059 240.5,44.5C 240.326,46.861 239.993,49.1944 239.5,51.5C 235.534,50.8379 231.534,50.5045 227.5,50.5C 227.5,48.1667 227.5,45.8333 227.5,43.5 Z"/></g>
<g><path style="opacity:1" fill="#e0e0e0" d="M 176.5,43.5 C 179.5,43.5 182.5,43.5 185.5,43.5C 185.768,46.1194 185.435,48.6194 184.5,51C 180.514,51.4988 176.514,51.6655 172.5,51.5C 172.5,49.1667 172.5,46.8333 172.5,44.5C 174.099,44.7678 175.432,44.4345 176.5,43.5 Z"/></g>
<g><path style="opacity:1" fill="#ededed" d="M 221.5,43.5 C 222.833,43.5 224.167,43.5 225.5,43.5C 225.5,45.8333 225.5,48.1667 225.5,50.5C 224.178,50.67 223.011,50.3366 222,49.5C 221.505,47.5273 221.338,45.5273 221.5,43.5 Z"/></g>
<g><path style="opacity:1" fill="#f6f6f6" d="M 191.5,43.5 C 190.781,45.7638 190.448,48.0971 190.5,50.5C 189.5,50.5 188.5,50.5 187.5,50.5C 187.5,48.1667 187.5,45.8333 187.5,43.5C 188.833,43.5 190.167,43.5 191.5,43.5 Z"/></g>
<g><path style="opacity:1" fill="#090909" d="M 282.5,37.5 C 283.5,37.5 284.5,37.5 285.5,37.5C 285.5,41.5 285.5,45.5 285.5,49.5C 284.5,49.5 283.5,49.5 282.5,49.5C 282.5,45.5 282.5,41.5 282.5,37.5 Z"/></g>
<g><path style="opacity:1" fill="#212121" d="M 126.5,37.5 C 127.833,37.5 129.167,37.5 130.5,37.5C 130.5,41.5 130.5,45.5 130.5,49.5C 129.167,49.5 127.833,49.5 126.5,49.5C 126.5,45.5 126.5,41.5 126.5,37.5 Z"/></g>
<g><path style="opacity:1" fill="#eaeaea" d="M 164.5,64.5 C 165.978,64.238 167.311,64.5713 168.5,65.5C 169.407,68.4212 169.74,71.4212 169.5,74.5C 166.753,74.8134 164.086,74.48 161.5,73.5C 160.422,70.7931 159.422,68.1264 158.5,65.5C 160.735,65.7947 162.735,65.4614 164.5,64.5 Z"/></g>
<g><path style="opacity:1" fill="#f4f4f4" d="M 243.5,65.5 C 246.579,65.2601 249.579,65.5934 252.5,66.5C 252.833,67 253.167,67.5 253.5,68C 252.391,70.0466 251.724,72.2133 251.5,74.5C 248.833,74.5 246.167,74.5 243.5,74.5C 243.5,71.5 243.5,68.5 243.5,65.5 Z"/></g>
<g><path style="opacity:1" fill="#dcdcdc" d="M 272.5,55.5 C 273.93,55.4208 275.264,55.7542 276.5,56.5C 277.324,64.146 277.324,71.8127 276.5,79.5C 272.283,79.4107 268.283,78.5774 264.5,77C 267.518,77.499 270.518,77.3323 273.5,76.5C 270.727,75.7475 268.06,74.7475 265.5,73.5C 268.387,73.5874 271.387,73.254 274.5,72.5C 272.096,71.65 269.763,70.65 267.5,69.5C 270.063,69.5508 272.729,69.2175 275.5,68.5C 266.446,66.2269 266.446,64.7269 275.5,64C 268.881,61.8167 269.214,60.4834 276.5,60C 274.941,59.0201 273.274,58.1867 271.5,57.5C 271.863,56.8165 272.196,56.1499 272.5,55.5 Z"/></g>
<g><path style="opacity:1" fill="#eaeaea" d="M 108.5,65.5 C 109.5,65.5 110.5,65.5 111.5,65.5C 112.159,68.4552 112.492,71.4552 112.5,74.5C 108.936,74.6876 105.603,75.6876 102.5,77.5C 100.899,74.6957 99.8986,71.6957 99.5,68.5C 102.785,68.0719 105.785,67.0719 108.5,65.5 Z"/></g>
<g><path style="opacity:1" fill="#d4d4d4" d="M 136.5,55.5 C 139.238,54.9648 141.072,55.9648 142,58.5C 144.265,64.4619 146.432,70.4619 148.5,76.5C 148.291,77.086 147.957,77.586 147.5,78C 143.878,79.1056 140.211,79.4389 136.5,79C 139.257,78.1221 141.924,77.1221 144.5,76C 141.568,75.6888 138.902,75.5221 136.5,75.5C 138.637,74.1319 140.97,73.1319 143.5,72.5C 140.893,71.6816 138.226,71.1816 135.5,71C 137.764,69.7421 140.098,68.5754 142.5,67.5C 140.138,67.0257 137.805,66.6924 135.5,66.5C 137.328,65.2048 139.328,64.2048 141.5,63.5C 139.424,62.9003 137.424,62.567 135.5,62.5C 136.824,61.0653 138.49,60.0653 140.5,59.5C 138.833,58.8333 137.167,58.1667 135.5,57.5C 135.863,56.8165 136.196,56.1499 136.5,55.5 Z"/></g>
<g><path style="opacity:1" fill="#eaeaea" d="M 301.5,65.5 C 305.385,66.9051 309.385,67.9051 313.5,68.5C 312.889,71.7209 311.722,74.7209 310,77.5C 306.666,75.9578 303.166,74.9578 299.5,74.5C 300.167,71.5 300.833,68.5 301.5,65.5 Z"/></g>
<g><path style="opacity:1" fill="#f1f1f1" d="M 93.5,70.5 C 97.8599,71.1654 99.8599,73.8321 99.5,78.5C 94.3556,80.5946 91.0223,78.9279 89.5,73.5C 90.6243,72.1408 91.9577,71.1408 93.5,70.5 Z"/></g>
<g><path style="opacity:1" fill="#efefef" d="M 314.5,70.5 C 317.85,70.5056 320.85,71.5056 323.5,73.5C 321.978,78.9279 318.644,80.5946 313.5,78.5C 313.575,75.7938 313.908,73.1272 314.5,70.5 Z"/></g>
<g><path style="opacity:1" fill="#d9d9d9" d="M 67.5,71.5 C 71.3076,71.1632 74.9743,71.6632 78.5,73C 82.6254,79.4164 86.6254,85.9164 90.5,92.5C 89.7261,93.7112 88.8928,93.7112 88,92.5C 84.5,86.8333 81,81.1667 77.5,75.5C 74.3978,73.8173 71.0644,73.1506 67.5,73.5C 66.1667,72.8333 66.1667,72.1667 67.5,71.5 Z"/></g>
<g><path style="opacity:1" fill="#717171" d="M 236.5,67.5 C 236.5,69.5 236.5,71.5 236.5,73.5C 238.167,73.5 239.833,73.5 241.5,73.5C 239.735,74.4614 237.735,74.7947 235.5,74.5C 235.198,71.9407 235.532,69.6074 236.5,67.5 Z"/></g>
<g><path style="opacity:1" fill="#f3f3f3" d="M 121.5,73.5 C 122.479,76.6248 122.813,79.9581 122.5,83.5C 115.434,85.4051 112.768,82.7385 114.5,75.5C 116.982,74.9329 119.316,74.2663 121.5,73.5 Z"/></g>
<g><path style="opacity:1" fill="#e9e9e9" d="M 289.5,73.5 C 292.802,74.2937 296.135,74.9604 299.5,75.5C 299.127,78.5739 298.461,81.5739 297.5,84.5C 295.08,84.7076 292.747,84.3742 290.5,83.5C 289.513,80.2317 289.18,76.8984 289.5,73.5 Z"/></g>
<g><path style="opacity:1" fill="#dfdfdf" d="M 345.5,71.5 C 344.082,73.3079 342.082,73.9746 339.5,73.5C 337.61,73.2965 336.11,73.9632 335,75.5C 331.486,81.8738 327.486,87.8738 323,93.5C 322.5,93.3333 322,93.1667 321.5,93C 325.774,85.728 330.441,78.728 335.5,72C 338.817,71.5017 342.15,71.335 345.5,71.5 Z"/></g>
<g><path style="opacity:1" fill="#e1e1e1" d="M 333.5,100.5 C 334.404,101.209 334.737,102.209 334.5,103.5C 331.673,103.416 329.006,102.75 326.5,101.5C 257.94,73.932 187.94,70.0987 116.5,90C 108.56,92.3901 100.894,95.2234 93.5,98.5C 88.8648,100.146 84.1982,101.813 79.5,103.5C 78.2241,102.386 78.2241,101.386 79.5,100.5C 164.109,65.8442 248.775,65.8442 333.5,100.5 Z"/></g>
<g><path style="opacity:1" fill="#d3d3d3" d="M 343.5,75.5 C 344.043,75.56 344.376,75.8933 344.5,76.5C 341.103,83.6964 338.103,91.0297 335.5,98.5C 331.895,98.2014 328.561,97.0347 325.5,95C 328.437,95.6232 331.437,95.9565 334.5,96C 332.167,94.5 329.833,93 327.5,91.5C 327.833,91.1667 328.167,90.8333 328.5,90.5C 338.684,93.3659 339.018,92.5326 329.5,88C 332.167,88 334.833,88 337.5,88C 335.833,86.8333 334.167,85.6667 332.5,84.5C 334.731,84.1133 337.064,83.9466 339.5,84C 337.833,82.8333 336.167,81.6667 334.5,80.5C 336.731,80.1133 339.064,79.9466 341.5,80C 334.895,76.702 335.562,75.202 343.5,75.5 Z"/></g>
<g><path style="opacity:1" fill="#e1e1e1" d="M 109.5,76.5 C 112.16,79.113 113.493,82.4463 113.5,86.5C 111.54,87.1383 109.707,87.1383 108,86.5C 107.468,83.7365 106.634,81.0698 105.5,78.5C 106.949,77.8281 108.282,77.1614 109.5,76.5 Z"/></g>
<g><path style="opacity:1" fill="#ebebeb" d="M 301.5,76.5 C 303.903,76.695 305.57,77.8616 306.5,80C 305.791,82.6292 304.791,85.1292 303.5,87.5C 302.264,86.7542 300.93,86.4208 299.5,86.5C 300.04,83.1353 300.706,79.802 301.5,76.5 Z"/></g>
<g><path style="opacity:1" fill="#ececec" d="M 99.5,79.5 C 101.144,79.2865 102.644,79.6198 104,80.5C 104.735,82.8713 105.568,85.2046 106.5,87.5C 104.51,88.4981 102.51,89.4981 100.5,90.5C 98.4685,88.2783 96.8018,85.7783 95.5,83C 96.6856,81.5879 98.019,80.4212 99.5,79.5 Z"/></g>
<g><path style="opacity:1" fill="#f2f2f2" d="M 308.5,79.5 C 317.815,79.2498 319.481,82.4165 313.5,89C 311.153,89.3336 308.819,89.167 306.5,88.5C 307.167,85.5 307.833,82.5 308.5,79.5 Z"/></g>
<g><path style="opacity:1" fill="#e1e1e1" d="M 324.5,102.5 C 325.404,103.209 325.737,104.209 325.5,105.5C 323.784,105.371 322.117,105.038 320.5,104.5C 262.172,81.9339 202.172,76.7672 140.5,89C 123.592,92.6932 107.259,97.8599 91.5,104.5C 90.3052,104.678 89.1385,105.011 88,105.5C 86.7425,105.15 86.4092,104.483 87,103.5C 89.5922,101.69 92.4256,100.356 95.5,99.5C 172.176,71.942 248.51,72.942 324.5,102.5 Z"/></g>
<g><path style="opacity:1" fill="#1d1d1d" d="M 320.5,104.5 C 319.508,104.328 318.842,104.662 318.5,105.5C 243.499,77.6166 168.499,77.6166 93.5,105.5C 93.1583,104.662 92.4916,104.328 91.5,104.5C 107.259,97.8599 123.592,92.6932 140.5,89C 202.172,76.7672 262.172,81.9339 320.5,104.5 Z"/></g>
<g><path style="opacity:1" fill="#e1e1e1" d="M 318.5,105.5 C 319.478,105.811 320.145,106.478 320.5,107.5C 319.311,108.429 317.978,108.762 316.5,108.5C 252.682,84.2654 187.682,81.0987 121.5,99C 112.612,101.877 103.945,105.044 95.5,108.5C 94.0222,108.762 92.6888,108.429 91.5,107.5C 91.8555,106.478 92.5222,105.811 93.5,105.5C 168.499,77.6166 243.499,77.6166 318.5,105.5 Z"/></g>
<g><path style="opacity:1" fill="#d4d4d4" d="M 68.5,75.5 C 71.0728,75.1485 73.4062,75.6485 75.5,77C 74.1667,78 72.8333,79 71.5,80C 73.9359,79.9466 76.2692,80.1133 78.5,80.5C 76.8333,81.6667 75.1667,82.8333 73.5,84C 75.8107,83.8446 78.144,83.8446 80.5,84C 72.2792,88.5244 72.6125,89.3577 81.5,86.5C 81.8333,86.8333 82.1667,87.1667 82.5,87.5C 80.7173,89.2316 78.7173,90.7316 76.5,92C 79.1698,92.5426 81.6698,92.0426 84,90.5C 84.5,90.8333 85,91.1667 85.5,91.5C 83.1667,92.8333 80.8333,94.1667 78.5,95.5C 79,95.8333 79.5,96.1667 80,96.5C 82.4369,95.3458 84.9369,94.8458 87.5,95C 84.3949,96.8681 81.0615,98.0348 77.5,98.5C 74.6527,90.7814 71.6527,83.1147 68.5,75.5 Z"/></g>
<g><path style="opacity:1" fill="#1c1c1c" d="M 316.5,108.5 C 315.833,108.5 315.5,108.833 315.5,109.5C 242.787,82.9713 170.12,82.9713 97.5,109.5C 97.1583,108.662 96.4916,108.328 95.5,108.5C 103.945,105.044 112.612,101.877 121.5,99C 187.682,81.0987 252.682,84.2654 316.5,108.5 Z"/></g>
<g><path style="opacity:1" fill="#1d1d1d" d="M 326.5,101.5 C 325.508,101.328 324.842,101.662 324.5,102.5C 248.51,72.942 172.176,71.942 95.5,99.5C 95.1583,98.6618 94.4916,98.3284 93.5,98.5C 100.894,95.2234 108.56,92.3901 116.5,90C 187.94,70.0987 257.94,73.932 326.5,101.5 Z"/></g>
<g><path style="opacity:1" fill="#e1e1e1" d="M 315.5,109.5 C 318.1,110.468 320.434,111.801 322.5,113.5C 321.311,114.429 319.978,114.762 318.5,114.5C 261.517,91.9092 202.85,86.7425 142.5,99C 124.855,103.334 107.521,108.501 90.5,114.5C 90.4142,113.504 90.7476,112.671 91.5,112C 93.4885,111.062 95.4885,110.228 97.5,109.5C 170.12,82.9713 242.787,82.9713 315.5,109.5 Z"/></g>
<g><path style="opacity:1" fill="#dddddd" d="M 316.5,115.5 C 319.856,116.611 322.856,118.277 325.5,120.5C 324.833,120.833 324.167,121.167 323.5,121.5C 244.793,89.5019 166.127,89.5019 87.5,121.5C 88.2049,118.457 90.2049,116.79 93.5,116.5C 167.697,87.534 242.031,87.2006 316.5,115.5 Z M 189.5,100.5 C 158.963,102.443 129.296,108.943 100.5,120C 171.167,120.667 241.833,120.667 312.5,120C 272.879,105.077 231.879,98.5774 189.5,100.5 Z"/></g>
<g><path style="opacity:1" fill="#1c1c1c" d="M 318.5,114.5 C 317.508,114.328 316.842,114.662 316.5,115.5C 242.031,87.2006 167.697,87.534 93.5,116.5C 92.5,115.833 91.5,115.167 90.5,114.5C 107.521,108.501 124.855,103.334 142.5,99C 202.85,86.7425 261.517,91.9092 318.5,114.5 Z"/></g>
<g><path style="opacity:1" fill="#e58400" d="M 324.5,128.5 C 333.649,131.134 337.815,137.134 337,146.5C 333.389,152.444 329.389,158.111 325,163.5C 324.5,151.838 324.333,140.171 324.5,128.5 Z"/></g>
<g><path style="opacity:1" fill="#eb8700" d="M 85.5,129.5 C 86.8286,134.624 87.4952,140.124 87.5,146C 87.4994,151.677 87.1661,157.177 86.5,162.5C 81.3507,156.372 77.3507,149.539 74.5,142C 76.5505,136.447 80.2172,132.281 85.5,129.5 Z"/></g>
<g><path style="opacity:1" fill="#935400" d="M 85.5,129.5 C 86.209,128.596 87.209,128.263 88.5,128.5C 88.8322,140.186 88.4989,151.852 87.5,163.5C 86.8933,163.376 86.56,163.043 86.5,162.5C 87.1661,157.177 87.4994,151.677 87.5,146C 87.4952,140.124 86.8286,134.624 85.5,129.5 Z"/></g>
<g><path style="opacity:1" fill="#ed8800" d="M 87.5,172.5 C 87.8293,187.343 87.496,202.01 86.5,216.5C 73.7727,202.069 63.2727,186.069 55,168.5C 53.9905,159.472 57.4905,152.639 65.5,148C 67.1667,147.333 68.8333,147.333 70.5,148C 76.0224,156.341 81.6891,164.507 87.5,172.5 Z"/></g>
<g><path style="opacity:1" fill="#ed8800" d="M 326.5,216.5 C 325.504,201.676 325.171,186.676 325.5,171.5C 331.525,163.961 337.191,156.128 342.5,148C 351.898,149.234 357.231,154.734 358.5,164.5C 355.588,173.716 351.422,182.383 346,190.5C 340.053,199.609 333.553,208.276 326.5,216.5 Z"/></g>
<g><path style="opacity:1" fill="#fae900" d="M 218.5,158.5 C 220.484,158.484 221.484,159.484 221.5,161.5C 218.891,164.888 217.225,168.721 216.5,173C 218.622,194.467 218.955,215.967 217.5,237.5C 216.833,233.5 216.167,229.5 215.5,225.5C 214.67,231.138 214.17,236.804 214,242.5C 209.031,249.302 203.531,255.635 197.5,261.5C 195.416,255.462 193.083,249.462 190.5,243.5C 194.54,240.477 193.873,238.811 188.5,238.5C 186.856,217.246 185.856,217.246 185.5,238.5C 183.365,238.147 182.032,238.98 181.5,241C 182.388,242.22 183.055,243.553 183.5,245C 181.826,257.575 179.826,270.075 177.5,282.5C 176.264,283.246 174.93,283.579 173.5,283.5C 169.251,266.596 165.251,249.596 161.5,232.5C 177.462,205.533 196.462,180.866 218.5,158.5 Z"/></g>
<g><path style="opacity:1" fill="#ed8800" d="M 87.5,226.5 C 87.829,240.344 87.4957,254.01 86.5,267.5C 68.4567,250.719 53.2901,231.719 41,210.5C 38.0778,204.491 35.5778,198.325 33.5,192C 35.5127,183.31 39.846,175.977 46.5,170C 47.9437,169.219 49.277,169.386 50.5,170.5C 60.5028,190.812 72.8362,209.478 87.5,226.5 Z"/></g>
<g><path style="opacity:1" fill="#ec8800" d="M 362.5,169.5 C 366.147,169.622 368.981,171.288 371,174.5C 373.732,178.241 376.066,182.241 378,186.5C 378.791,190.926 378.457,195.259 377,199.5C 364.286,225.904 346.952,248.904 325,268.5C 324.333,254.167 324.333,239.833 325,225.5C 340.743,209.016 353.243,190.349 362.5,169.5 Z"/></g>
<g><path style="opacity:1" fill="#925300" d="M 87.5,172.5 C 88.6612,187.661 88.8279,202.994 88,218.5C 87.2828,217.956 86.7828,217.289 86.5,216.5C 87.496,202.01 87.8293,187.343 87.5,172.5 Z"/></g>
<g><path style="opacity:1" fill="#b26600" d="M 325.5,171.5 C 325.171,186.676 325.504,201.676 326.5,216.5C 326.44,217.043 326.107,217.376 325.5,217.5C 324.174,202.005 324.174,186.672 325.5,171.5 Z"/></g>
<g><path style="opacity:1" fill="#ea8700" d="M 27.5,199.5 C 29.0174,199.511 30.1841,200.177 31,201.5C 34.9064,210.318 39.5731,218.652 45,226.5C 45.6667,229.167 45.6667,231.833 45,234.5C 41.5716,240.366 37.9049,246.033 34,251.5C 29.3963,247.656 25.7296,242.989 23,237.5C 20.3226,233.148 18.4893,228.482 17.5,223.5C 19.1982,214.776 22.5315,206.776 27.5,199.5 Z"/></g>
<g><path style="opacity:1" fill="#ea8600" d="M 381.5,200.5 C 383.288,200.215 384.955,200.548 386.5,201.5C 390.753,208.505 393.753,216.005 395.5,224C 391.963,234.494 386.463,243.661 379,251.5C 378.228,251.355 377.561,251.022 377,250.5C 374.252,245.334 371.252,240.334 368,235.5C 367.077,233.966 366.577,232.299 366.5,230.5C 371.997,220.84 376.997,210.84 381.5,200.5 Z"/></g>
<g><path style="opacity:1" fill="#efe000" d="M 140.5,204.5 C 145.833,204.5 151.167,204.5 156.5,204.5C 156.5,207.833 156.5,211.167 156.5,214.5C 151.167,214.5 145.833,214.5 140.5,214.5C 140.5,211.167 140.5,207.833 140.5,204.5 Z"/></g>
<g><path style="opacity:1" fill="#ebde00" d="M 158.5,197.5 C 159.5,197.5 160.5,197.5 161.5,197.5C 161.667,208.505 161.5,219.505 161,230.5C 160,231.833 159,233.167 158,234.5C 157.381,222.154 157.548,209.821 158.5,197.5 Z"/></g>
<g><path style="opacity:1" fill="#fae900" d="M 280.5,167.5 C 282.346,167.222 283.68,167.889 284.5,169.5C 280.1,173.73 276.266,178.397 273,183.5C 272.667,201.833 272.333,220.167 272,238.5C 261.264,250.313 250.764,262.313 240.5,274.5C 240.667,274.833 240.833,275.167 241,275.5C 254.859,260.642 269.025,246.142 283.5,232C 288.833,228 294.167,224 299.5,220C 301.025,218.991 302.692,218.491 304.5,218.5C 304.528,222.155 302.861,224.822 299.5,226.5C 298.731,244.883 295.731,262.883 290.5,280.5C 289,280.833 287.5,281.167 286,281.5C 273.635,278.365 261.468,278.865 249.5,283C 244.667,285.582 240,288.415 235.5,291.5C 232.272,288.485 231.938,285.319 234.5,282C 232.744,281.798 231.078,281.298 229.5,280.5C 226.773,274.046 223.773,267.712 220.5,261.5C 221.002,260.479 221.668,260.312 222.5,261C 228.667,268.5 234.833,276 241,283.5C 241.167,283.167 241.333,282.833 241.5,282.5C 233.833,272.5 226.167,262.5 218.5,252.5C 219.325,251.614 220.325,251.281 221.5,251.5C 220.514,249.156 219.181,246.989 217.5,245C 235.631,217.016 256.631,191.182 280.5,167.5 Z"/></g>
<g><path style="opacity:1" fill="#915300" d="M 87.5,226.5 C 88.8257,240.339 88.8257,254.339 87.5,268.5C 86.8933,268.376 86.56,268.043 86.5,267.5C 87.4957,254.01 87.829,240.344 87.5,226.5 Z"/></g>
<g><path style="opacity:1" fill="#e98600" d="M 13.5,235.5 C 15.5922,235.561 17.0922,236.561 18,238.5C 21.1728,244.181 24.8395,249.514 29,254.5C 29.8749,255.873 30.3749,257.373 30.5,259C 27.1204,267.644 23.4537,276.144 19.5,284.5C 13.9849,279.819 9.81821,274.152 7,267.5C 5.7829,256.084 7.94957,245.418 13.5,235.5 Z"/></g>
<g><path style="opacity:1" fill="#e98600" d="M 396.5,235.5 C 399.091,236.254 400.924,237.921 402,240.5C 404.627,247.429 406.127,254.596 406.5,262C 404.898,271.033 400.564,278.533 393.5,284.5C 389.17,276.361 385.503,267.861 382.5,259C 382.667,257.833 382.833,256.667 383,255.5C 388.253,249.323 392.753,242.656 396.5,235.5 Z"/></g>
<g><path style="opacity:1" fill="#ec8800" d="M 37.5,362.5 C 36.8333,373.833 36.1667,385.167 35.5,396.5C 15.5024,373.175 9.00236,346.508 16,316.5C 22.5348,288.19 33.7015,262.023 49.5,238C 50.5,237.333 51.5,237.333 52.5,238C 58.9305,243.909 63.9305,250.743 67.5,258.5C 62.3608,269.448 57.1941,280.448 52,291.5C 43.3481,314.374 38.5148,338.041 37.5,362.5 Z"/></g>
<g><path style="opacity:1" fill="#ec8800" d="M 360.5,237.5 C 363.642,237.799 365.809,239.466 367,242.5C 382.99,268.817 393.657,297.15 399,327.5C 401.752,353.961 394.252,376.961 376.5,396.5C 377.553,361.613 372.72,327.613 362,294.5C 357.428,283.448 352.094,272.781 346,262.5C 345.333,259.833 345.333,257.167 346,254.5C 351.044,248.961 355.877,243.294 360.5,237.5 Z"/></g>
<g><path style="opacity:1" fill="#eddf00" d="M 156.5,273.5 C 156.334,278.179 156.501,282.845 157,287.5C 157.662,285.187 158.162,282.854 158.5,280.5C 158.5,279.167 159.167,278.5 160.5,278.5C 160.5,293.5 160.5,308.5 160.5,323.5C 159.081,324.451 157.415,324.784 155.5,324.5C 155.56,314.32 155.56,304.32 155.5,294.5C 145.812,298.091 142.145,305.091 144.5,315.5C 143.5,315.5 142.5,315.5 141.5,315.5C 141.666,311.486 141.499,307.486 141,303.5C 140.107,304.711 139.274,304.711 138.5,303.5C 140.412,301.343 142.079,299.009 143.5,296.5C 142.998,295.479 142.332,295.312 141.5,296C 140.213,297.41 139.046,298.91 138,300.5C 137.667,298.5 137.333,296.5 137,294.5C 135.417,296.911 134.417,299.578 134,302.5C 133.443,295.285 134.443,288.285 137,281.5C 141.17,269.493 146.67,258.16 153.5,247.5C 154.657,250.784 154.824,254.118 154,257.5C 150.965,268.006 148.965,278.673 148,289.5C 150.345,280.455 152.845,271.455 155.5,262.5C 156.489,266.107 156.823,269.774 156.5,273.5 Z"/></g>
<g><path style="opacity:1" fill="#f3e400" d="M 210.5,251.5 C 212.09,251.628 213.423,252.295 214.5,253.5C 211.185,264.095 208.185,274.761 205.5,285.5C 203.315,279.611 201.315,273.611 199.5,267.5C 199.622,265.209 200.455,263.209 202,261.5C 205.419,258.588 208.252,255.254 210.5,251.5 Z"/></g>
<g><path style="opacity:1" fill="#ccc200" d="M 191.5,255.5 C 192.376,255.369 193.043,255.702 193.5,256.5C 194.366,258.432 195.033,260.432 195.5,262.5C 195.547,264 194.881,265 193.5,265.5C 192.555,262.212 191.888,258.879 191.5,255.5 Z"/></g>
<g><path style="opacity:1" fill="#ec8800" d="M 71.5,264.5 C 73.1992,264.34 74.8659,264.506 76.5,265C 80.0338,268.869 83.8672,272.369 88,275.5C 88.6667,283.833 88.6667,292.167 88,300.5C 74.0539,331.29 67.2206,363.623 67.5,397.5C 67.9058,410.522 68.5725,423.522 69.5,436.5C 64.3846,434.574 59.8846,431.574 56,427.5C 44.1183,412.967 39.6183,396.301 42.5,377.5C 41.5963,345.52 47.4297,314.853 60,285.5C 63.3377,278.152 67.1711,271.152 71.5,264.5 Z"/></g>
<g><path style="opacity:1" fill="#f2e200" d="M 163.5,256.5 C 167.195,265.42 170.195,274.586 172.5,284C 169.623,286.607 166.289,288.44 162.5,289.5C 162.172,278.321 162.505,267.321 163.5,256.5 Z"/></g>
<g><path style="opacity:1" fill="#ec8800" d="M 336.5,264.5 C 340.182,263.725 342.682,265.059 344,268.5C 367.55,312.465 375.55,359.132 368,408.5C 363.486,421.171 355.32,430.505 343.5,436.5C 349.757,389.363 343.59,344.03 325,300.5C 324.333,292.167 324.333,283.833 325,275.5C 328.729,271.602 332.562,267.935 336.5,264.5 Z"/></g>
<g><path style="opacity:1" fill="#dbcf00" d="M 183.5,255.5 C 184.825,259.276 185.491,263.443 185.5,268C 185.167,272.167 184.833,276.333 184.5,280.5C 183.264,281.246 181.93,281.579 180.5,281.5C 181.792,272.873 182.792,264.206 183.5,255.5 Z"/></g>
<g><path style="opacity:1" fill="#f3e400" d="M 218.5,264.5 C 223.009,269.661 226.009,275.661 227.5,282.5C 224.921,282.394 222.588,283.061 220.5,284.5C 218.541,278.25 217.874,271.584 218.5,264.5 Z"/></g>
<g><path style="opacity:1" fill="#494402" d="M 191.5,266.5 C 190.527,268.948 190.194,271.615 190.5,274.5C 189.197,271.645 189.197,268.645 190.5,265.5C 191.107,265.624 191.44,265.957 191.5,266.5 Z"/></g>
<g><path style="opacity:1" fill="#ecde00" d="M 195.5,268.5 C 196.496,268.414 197.329,268.748 198,269.5C 201.136,278.408 203.969,287.408 206.5,296.5C 204.47,298.878 203.47,298.211 203.5,294.5C 201.738,294.357 200.071,294.691 198.5,295.5C 197.087,288.681 195.753,281.847 194.5,275C 194.653,272.784 194.986,270.617 195.5,268.5 Z"/></g>
<g><path style="opacity:1" fill="#f0e300" d="M 212.5,269.5 C 213.49,275.31 213.823,281.31 213.5,287.5C 212.833,287.5 212.5,287.833 212.5,288.5C 210.617,290.136 208.617,290.469 206.5,289.5C 208.195,282.717 210.195,276.051 212.5,269.5 Z"/></g>
<g><path style="opacity:1" fill="#d00018" d="M 107.5,278.5 C 109.144,278.286 110.644,278.62 112,279.5C 115.758,302.263 128.925,316.429 151.5,322C 152.056,324.237 153.056,326.237 154.5,328C 185.145,326.991 215.811,326.491 246.5,326.5C 246.5,328.5 246.5,330.5 246.5,332.5C 218.498,332.667 190.498,332.5 162.5,332C 143.522,330.923 127.355,323.756 114,310.5C 108.13,300.616 105.964,289.95 107.5,278.5 Z"/></g>
<g><path style="opacity:1" fill="#353101" d="M 218.5,264.5 C 217.874,271.584 218.541,278.25 220.5,284.5C 219.791,285.404 218.791,285.737 217.5,285.5C 217.175,278.313 217.509,271.313 218.5,264.5 Z"/></g>
<g><path style="opacity:1" fill="#e28200" d="M 6.5,279.5 C 9.72426,282.218 12.8909,285.218 16,288.5C 16.8749,289.873 17.3749,291.373 17.5,293C 15.7291,298.92 13.7291,304.753 11.5,310.5C 6.07874,305.082 3.74541,298.415 4.5,290.5C 4.4548,286.664 5.12147,282.997 6.5,279.5 Z"/></g>
<g><path style="opacity:1" fill="#363304" d="M 156.5,273.5 C 157.167,275.833 157.833,278.167 158.5,280.5C 158.162,282.854 157.662,285.187 157,287.5C 156.501,282.845 156.334,278.179 156.5,273.5 Z"/></g>
<g><path style="opacity:1" fill="#e88500" d="M 404.5,279.5 C 405.496,279.414 406.329,279.748 407,280.5C 407.667,287.167 407.667,293.833 407,300.5C 406.469,304.562 404.636,307.896 401.5,310.5C 398.618,305.023 396.618,299.189 395.5,293C 395.625,291.373 396.125,289.873 397,288.5C 400.088,285.919 402.588,282.919 404.5,279.5 Z"/></g>
<g><path style="opacity:1" fill="#9c9100" d="M 212.5,269.5 C 212.56,268.957 212.893,268.624 213.5,268.5C 214.496,274.463 214.829,280.463 214.5,286.5C 215.791,286.263 216.791,286.596 217.5,287.5C 216.5,287.5 215.5,287.5 214.5,287.5C 214.167,287.5 213.833,287.5 213.5,287.5C 213.823,281.31 213.49,275.31 212.5,269.5 Z"/></g>
<g><path style="opacity:1" fill="#f6e700" d="M 184.5,282.5 C 184.5,289.167 184.5,295.833 184.5,302.5C 185.5,302.5 186.5,302.5 187.5,302.5C 187.666,306.514 187.499,310.514 187,314.5C 186,315.5 185,316.5 184,317.5C 183.502,314.183 183.335,310.85 183.5,307.5C 182.448,307.351 181.448,307.517 180.5,308C 175.571,312.384 170.738,316.884 166,321.5C 165.833,320.5 165.667,319.5 165.5,318.5C 169.245,305.003 175.579,293.003 184.5,282.5 Z"/></g>
<g><path style="opacity:1" fill="#f0e300" d="M 214.5,287.5 C 215.5,287.5 216.5,287.5 217.5,287.5C 218.65,292.316 218.816,297.316 218,302.5C 216.955,303.373 216.122,304.373 215.5,305.5C 214.51,299.69 214.177,293.69 214.5,287.5 Z"/></g>
<g><path style="opacity:1" fill="#dace00" d="M 191.5,266.5 C 193.33,276.477 194.997,286.477 196.5,296.5C 195.653,297.845 194.487,298.845 193,299.5C 191.251,291.263 190.418,282.929 190.5,274.5C 190.194,271.615 190.527,268.948 191.5,266.5 Z"/></g>
<g><path style="opacity:1" fill="#575100" d="M 212.5,288.5 C 212.5,287.833 212.833,287.5 213.5,287.5C 213.833,287.5 214.167,287.5 214.5,287.5C 214.177,293.69 214.51,299.69 215.5,305.5C 215.44,306.043 215.107,306.376 214.5,306.5C 213.833,300.346 213.167,294.346 212.5,288.5 Z"/></g>
<g><path style="opacity:1" fill="#d50018" d="M 256.5,288.5 C 260.145,287.68 262.478,289.013 263.5,292.5C 267.795,293.661 272.129,293.828 276.5,293C 279.4,287.836 283.4,287.003 288.5,290.5C 290.125,296.039 290.792,301.705 290.5,307.5C 285.032,308.312 279.532,308.979 274,309.5C 265.823,308.256 257.656,308.256 249.5,309.5C 250.5,302.833 251.5,296.167 252.5,289.5C 254.099,289.768 255.432,289.434 256.5,288.5 Z"/></g>
<g><path style="opacity:1" fill="#e4d700" d="M 229.5,286.5 C 231.306,288.089 232.639,290.089 233.5,292.5C 228.805,297.526 224.139,302.526 219.5,307.5C 218.417,306.635 218.251,305.635 219,304.5C 222.259,298.308 225.759,292.308 229.5,286.5 Z"/></g>
<g><path style="opacity:1" fill="#322e01" d="M 163.5,256.5 C 162.505,267.321 162.172,278.321 162.5,289.5C 161.833,300.833 161.167,312.167 160.5,323.5C 160.5,308.5 160.5,293.5 160.5,278.5C 161.167,270.99 161.833,263.323 162.5,255.5C 163.107,255.624 163.44,255.957 163.5,256.5 Z"/></g>
<g><path style="opacity:1" fill="#877e00" d="M 184.5,282.5 C 184.913,289.261 185.913,295.928 187.5,302.5C 186.5,302.5 185.5,302.5 184.5,302.5C 184.5,295.833 184.5,289.167 184.5,282.5 Z"/></g>
<g><path style="opacity:1" fill="#0d0000" d="M 255.5,300.5 C 258.167,300.5 260.833,300.5 263.5,300.5C 263.5,301.833 263.5,303.167 263.5,304.5C 260.833,304.5 258.167,304.5 255.5,304.5C 255.5,303.167 255.5,301.833 255.5,300.5 Z"/></g>
<g><path style="opacity:1" fill="#d30018" d="M 241.5,300.5 C 243.5,300.5 245.5,300.5 247.5,300.5C 247.062,304.072 246.396,307.572 245.5,311C 218.006,313.991 216.673,310.491 241.5,300.5 Z"/></g>
<g><path style="opacity:1" fill="#1e0602" d="M 267.5,301.5 C 270.167,301.5 272.833,301.5 275.5,301.5C 275.5,302.833 275.5,304.167 275.5,305.5C 272.833,305.5 270.167,305.5 267.5,305.5C 267.5,304.167 267.5,302.833 267.5,301.5 Z"/></g>
<g><path style="opacity:1" fill="#1b0302" d="M 279.5,300.5 C 282.167,300.5 284.833,300.5 287.5,300.5C 287.5,301.833 287.5,303.167 287.5,304.5C 284.833,304.5 282.167,304.5 279.5,304.5C 279.5,303.167 279.5,301.833 279.5,300.5 Z"/></g>
<g><path style="opacity:1" fill="#db0019" d="M 252.5,312.5 C 257.167,312.5 261.833,312.5 266.5,312.5C 266.5,315.5 266.5,318.5 266.5,321.5C 260.833,321.5 255.167,321.5 249.5,321.5C 249.5,318.833 249.5,316.167 249.5,313.5C 250.791,313.737 251.791,313.404 252.5,312.5 Z"/></g>
<g><path style="opacity:1" fill="#dc0019" d="M 282.5,311.5 C 285.167,311.5 287.833,311.5 290.5,311.5C 290.5,314.5 290.5,317.5 290.5,320.5C 285.456,320.273 280.456,320.606 275.5,321.5C 272.853,319.597 271.519,316.93 271.5,313.5C 275.489,313.884 279.155,313.217 282.5,311.5 Z"/></g>
<g><path style="opacity:1" fill="#f3f3f3" d="M 294.5,313.5 C 303.083,312.813 311.083,314.646 318.5,319C 319.558,323.194 319.225,327.36 317.5,331.5C 309.963,327.616 301.963,325.949 293.5,326.5C 294.295,322.215 294.628,317.881 294.5,313.5 Z"/></g>
<g><path style="opacity:1" fill="#cf0018" d="M 201.5,314.5 C 216.166,315.804 230.832,315.804 245.5,314.5C 245.5,317.167 245.5,319.833 245.5,322.5C 230.488,322.409 215.488,322.743 200.5,323.5C 200.368,320.43 200.701,317.43 201.5,314.5 Z"/></g>
<g><path style="opacity:1" fill="#000000" d="M 206.5,317.5 C 208.833,317.5 211.167,317.5 213.5,317.5C 213.5,318.5 213.5,319.5 213.5,320.5C 211.167,320.5 208.833,320.5 206.5,320.5C 206.5,319.5 206.5,318.5 206.5,317.5 Z"/></g>
<g><path style="opacity:1" fill="#030000" d="M 238.5,317.5 C 239.833,317.5 241.167,317.5 242.5,317.5C 242.5,318.5 242.5,319.5 242.5,320.5C 241.167,320.5 239.833,320.5 238.5,320.5C 238.5,319.5 238.5,318.5 238.5,317.5 Z"/></g>
<g><path style="opacity:1" fill="#c97400" d="M 404.5,313.5 C 406.894,318.148 407.06,323.148 405,328.5C 402.077,323.505 401.91,318.505 404.5,313.5 Z"/></g>
<g><path style="opacity:1" fill="#f5f5f5" d="M 106.5,318.5 C 108.924,318.192 111.257,318.526 113.5,319.5C 115.5,322.5 117.5,325.5 119.5,328.5C 111.525,329.825 103.859,332.158 96.5,335.5C 94.4881,331.767 93.6548,327.767 94,323.5C 98.2893,321.909 102.456,320.242 106.5,318.5 Z"/></g>
<g><path style="opacity:1" fill="#d80018" d="M 190.5,316.5 C 192.344,318.279 193.01,320.612 192.5,323.5C 189.813,323.664 187.146,323.497 184.5,323C 186.706,320.963 188.706,318.797 190.5,316.5 Z"/></g>
<g><path style="opacity:1" fill="#1e0402" d="M 217.5,317.5 C 219.833,317.5 222.167,317.5 224.5,317.5C 224.5,318.5 224.5,319.5 224.5,320.5C 222.167,320.5 219.833,320.5 217.5,320.5C 217.5,319.5 217.5,318.5 217.5,317.5 Z"/></g>
<g><path style="opacity:1" fill="#1b0302" d="M 228.5,317.5 C 230.5,317.5 232.5,317.5 234.5,317.5C 234.5,318.5 234.5,319.5 234.5,320.5C 232.5,320.5 230.5,320.5 228.5,320.5C 228.5,319.5 228.5,318.5 228.5,317.5 Z"/></g>
<g><path style="opacity:1" fill="#da7d00" d="M 6.5,314.5 C 9.28563,314.956 10.619,316.623 10.5,319.5C 9.961,322.248 9.12767,324.915 8,327.5C 6.56919,323.365 6.06919,319.032 6.5,314.5 Z"/></g>
<g><path style="opacity:1" fill="#ec8700" d="M 339.5,419.5 C 337.855,424.234 337.189,429.234 337.5,434.5C 335.455,448.208 327.789,456.875 314.5,460.5C 314.833,455.167 315.167,449.833 315.5,444.5C 318.851,418.665 317.851,392.999 312.5,367.5C 319.653,350.552 323.82,332.886 325,314.5C 337.992,348.282 342.826,383.282 339.5,419.5 Z"/></g>
<g><path style="opacity:1" fill="#ea8600" d="M 73.5,376.5 C 74.889,371.731 75.5557,366.731 75.5,361.5C 77.4862,344.887 81.6529,328.887 88,313.5C 88.7043,332.316 92.8709,350.316 100.5,367.5C 97.233,381.804 95.5663,396.304 95.5,411C 95.9621,427.582 97.2955,444.082 99.5,460.5C 87.8137,457.989 79.9803,450.989 76,439.5C 72.6944,418.576 71.8611,397.576 73.5,376.5 Z"/></g>
<g><path style="opacity:1" fill="#d20018" d="M 251.5,324.5 C 256.5,324.5 261.5,324.5 266.5,324.5C 266.5,327.167 266.5,329.833 266.5,332.5C 261.167,332.5 255.833,332.5 250.5,332.5C 250.567,330.599 250.233,328.766 249.5,327C 250.056,325.989 250.722,325.156 251.5,324.5 Z"/></g>
<g><path style="opacity:1" fill="#d50018" d="M 275.5,324.5 C 280.167,324.5 284.833,324.5 289.5,324.5C 289.326,326.861 288.993,329.194 288.5,331.5C 284.774,331.823 281.107,331.489 277.5,330.5C 276.253,328.677 275.586,326.677 275.5,324.5 Z"/></g>
<g><path style="opacity:1" fill="#ce0017" d="M 118.5,321.5 C 118.56,320.957 118.893,320.624 119.5,320.5C 130.501,328.559 142.834,333.393 156.5,335C 185.167,335.333 213.833,335.667 242.5,336C 246.137,335.684 248.804,337.018 250.5,340C 220.167,340.667 189.833,340.667 159.5,340C 147.957,338.486 136.957,335.152 126.5,330C 123.601,327.271 120.934,324.438 118.5,321.5 Z"/></g>
<g><path style="opacity:1" fill="#008b34" d="M 292.5,330.5 C 296.514,330.334 300.514,330.501 304.5,331C 308.823,332.276 313.156,333.442 317.5,334.5C 316.514,338.443 315.848,342.443 315.5,346.5C 311.812,345.828 308.145,344.995 304.5,344C 298.406,343.707 292.406,343.54 286.5,343.5C 288.886,339.341 290.886,335.008 292.5,330.5 Z"/></g>
<g><path style="opacity:1" fill="#008a33" d="M 119.5,332.5 C 120.873,332.343 122.207,332.51 123.5,333C 127.388,337.391 131.721,341.224 136.5,344.5C 124.291,344.429 112.458,346.429 101,350.5C 100.228,350.355 99.5613,350.022 99,349.5C 97.5508,345.968 97.0508,342.468 97.5,339C 104.698,335.873 112.032,333.706 119.5,332.5 Z"/></g>
<g><path style="opacity:1" fill="#d50018" d="M 279.5,334.5 C 281.924,334.192 284.257,334.526 286.5,335.5C 284.773,342.892 280.107,346.559 272.5,346.5C 273.36,343.089 274.526,339.756 276,336.5C 277.302,335.915 278.469,335.249 279.5,334.5 Z"/></g>
<g><path style="opacity:1" fill="#d30018" d="M 252.5,337.5 C 257.305,336.513 262.305,336.179 267.5,336.5C 267.5,340.167 267.5,343.833 267.5,347.5C 260.935,346.616 255.935,343.283 252.5,337.5 Z"/></g>
<g><path style="opacity:1" fill="#cc0017" d="M 133.5,336.5 C 142.584,341.021 152.251,343.521 162.5,344C 189.492,343.538 216.492,343.538 243.5,344C 247.167,344.333 250.833,344.667 254.5,345C 255.5,346 256.5,347 257.5,348C 243.787,348.078 230.121,347.245 216.5,345.5C 203.024,346.258 189.69,348.092 176.5,351C 161.858,352.007 148.524,348.34 136.5,340C 134.937,339.241 133.937,338.074 133.5,336.5 Z"/></g>
<g><path style="opacity:1" fill="#f6f6f6" d="M 285.5,347.5 C 292.841,347.334 300.174,347.5 307.5,348C 309.631,348.543 311.631,349.376 313.5,350.5C 311.368,353.896 310.035,357.563 309.5,361.5C 305.342,361.142 301.176,360.808 297,360.5C 282.044,362.562 267.044,364.229 252,365.5C 244.77,365.229 237.603,364.396 230.5,363C 222.167,362.333 213.833,362.333 205.5,363C 193.776,365.412 181.942,366.912 170,367.5C 160.299,367.368 150.799,365.868 141.5,363C 132.833,362.333 124.167,362.333 115.5,363C 112.607,363.631 109.774,364.464 107,365.5C 104.164,362.31 102.497,358.643 102,354.5C 113.265,349.316 125.098,347.483 137.5,349C 148.281,352.056 159.281,353.889 170.5,354.5C 181.235,353.609 191.901,352.109 202.5,350C 207.5,349.833 212.5,349.667 217.5,349.5C 232.131,351.043 246.798,351.876 261.5,352C 269.695,350.804 277.695,349.304 285.5,347.5 Z"/></g>
<g><path style="opacity:1" fill="#008c34" d="M 264.5,381.5 C 252.444,381.688 240.444,381.021 228.5,379.5C 212.885,378.569 197.552,380.069 182.5,384C 167.758,385.68 153.424,384.013 139.5,379C 131.539,377.998 123.706,378.498 116,380.5C 113.123,377.287 110.623,373.787 108.5,370C 109.992,368.115 111.992,367.115 114.5,367C 128.437,364.422 142.104,365.422 155.5,370C 160.453,370.942 165.453,371.442 170.5,371.5C 180.641,370.972 190.641,369.472 200.5,367C 217.373,366.329 234.206,366.829 251,368.5C 266.048,367.661 281.048,366.327 296,364.5C 299.5,364.833 303,365.167 306.5,365.5C 304.794,369.75 302.461,373.583 299.5,377C 287.766,378.018 276.099,379.518 264.5,381.5 Z"/></g>
<g><path style="opacity:1" fill="#a55f00" d="M 37.5,362.5 C 37.8322,374.186 37.4989,385.852 36.5,397.5C 35.8933,397.376 35.56,397.043 35.5,396.5C 36.1667,385.167 36.8333,373.833 37.5,362.5 Z"/></g>
<g><path style="opacity:1" fill="#8b5001" d="M 75.5,361.5 C 75.5557,366.731 74.889,371.731 73.5,376.5C 73.4443,371.269 74.111,366.269 75.5,361.5 Z"/></g>
<g><path style="opacity:1" fill="#e68400" d="M 309.5,381.5 C 309.751,386.507 310.084,391.507 310.5,396.5C 309.118,399.394 307.118,401.894 304.5,404C 239.723,442.96 174.723,443.293 109.5,405C 104.733,402.634 102.066,398.801 101.5,393.5C 101.883,386.941 103.049,380.608 105,374.5C 130.484,413.495 166.651,432.328 213.5,431C 254.381,427.651 285.881,408.818 308,374.5C 309.202,376.677 309.702,379.011 309.5,381.5 Z"/></g>
<g><path style="opacity:1" fill="#00501e" d="M 228.5,379.5 C 240.444,381.021 252.444,381.688 264.5,381.5C 252.396,383.071 240.396,382.404 228.5,379.5 Z"/></g>
<g><path style="opacity:1" fill="#f6f6f6" d="M 283.5,381.5 C 287.846,381.334 292.179,381.501 296.5,382C 292.432,387.737 287.432,392.404 281.5,396C 271.992,397.168 262.492,398.335 253,399.5C 235.594,396.799 218.094,395.965 200.5,397C 181.819,402.946 163.152,402.946 144.5,397C 139.201,396.07 133.867,395.403 128.5,395C 124.984,391.651 121.651,388.151 118.5,384.5C 118.709,383.914 119.043,383.414 119.5,383C 126.167,382.333 132.833,382.333 139.5,383C 149.31,385.929 159.31,387.762 169.5,388.5C 180.223,387.456 190.89,385.956 201.5,384C 219.03,383.375 236.53,383.875 254,385.5C 264.161,385.608 273.994,384.275 283.5,381.5 Z"/></g>
<g><path style="opacity:1" fill="#6a3d02" d="M 309.5,381.5 C 311.246,386.448 311.579,391.448 310.5,396.5C 310.084,391.507 309.751,386.507 309.5,381.5 Z"/></g>
<g><path style="opacity:1" fill="#008b34" d="M 133.5,400.5 C 134.274,399.853 135.274,399.52 136.5,399.5C 144.936,400.887 153.27,402.721 161.5,405C 164.833,405.167 168.167,405.333 171.5,405.5C 186.192,402.798 201.025,400.798 216,399.5C 228.146,400.757 240.312,401.757 252.5,402.5C 260.868,402.04 269.201,401.54 277.5,401C 270.844,406.665 263.51,411.332 255.5,415C 237.531,413.954 219.531,413.62 201.5,414C 191.574,416.032 181.574,417.532 171.5,418.5C 166.93,418.78 162.596,417.946 158.5,416C 149.486,411.797 141.153,406.63 133.5,400.5 Z"/></g>
<g><path style="opacity:1" fill="#ea8600" d="M 103.5,408.5 C 104.873,408.343 106.207,408.51 107.5,409C 162.285,443.249 219.619,447.916 279.5,423C 288.698,418.317 297.864,413.817 307,409.5C 309.575,409.09 311.242,410.09 312,412.5C 312.598,422.253 311.932,431.92 310,441.5C 305.726,445.774 300.893,449.274 295.5,452C 245.5,477.724 193.833,481.391 140.5,463C 128.113,458.307 116.446,452.307 105.5,445C 103.396,442.958 102.229,440.458 102,437.5C 100.824,428.856 100.49,420.19 101,411.5C 102.045,410.627 102.878,409.627 103.5,408.5 Z"/></g>
<g><path style="opacity:1" fill="#e8e8e8" d="M 206.5,416.5 C 219.306,415.94 231.972,416.94 244.5,419.5C 225.363,426.406 205.696,428.239 185.5,425C 182.298,424.453 179.298,423.453 176.5,422C 186.656,420.254 196.656,418.421 206.5,416.5 Z"/></g>
<g><path style="opacity:1" fill="#130a00" d="M 125.5,424.5 C 130.864,425.828 134.53,428.995 136.5,434C 135.593,439.075 132.593,441.908 127.5,442.5C 127.647,445.443 128.313,448.276 129.5,451C 128.127,452.479 126.627,452.312 125,450.5C 124.483,447.08 123.65,443.747 122.5,440.5C 121.234,442.71 119.734,444.71 118,446.5C 116.72,446.387 115.887,445.72 115.5,444.5C 118.847,437.807 122.18,431.14 125.5,424.5 Z"/></g>
<g><path style="opacity:1" fill="#130a00" d="M 282.5,425.5 C 284.833,425.5 287.167,425.5 289.5,425.5C 289.67,426.822 289.337,427.989 288.5,429C 277.62,430.753 275.286,436.086 281.5,445C 284.5,447 287.5,447 290.5,445C 292.022,443.478 293.522,441.978 295,440.5C 296.28,440.613 297.113,441.28 297.5,442.5C 293.361,449.714 287.361,451.881 279.5,449C 270.658,439.735 271.658,431.902 282.5,425.5 Z"/></g>
<g><path style="opacity:1" fill="#955501" d="M 339.5,419.5 C 339.259,424.694 338.593,429.694 337.5,434.5C 337.189,429.234 337.855,424.234 339.5,419.5 Z"/></g>
<g><path style="opacity:1" fill="#e38200" d="M 126.5,430.5 C 132.078,430.525 133.411,432.691 130.5,437C 128.272,437.82 126.272,437.487 124.5,436C 125.861,434.416 126.528,432.582 126.5,430.5 Z"/></g>
<g><path style="opacity:1" fill="#150c00" d="M 303.5,435.5 C 304.833,435.5 306.167,435.5 307.5,435.5C 307.884,437.665 307.217,439.332 305.5,440.5C 303.783,439.332 303.116,437.665 303.5,435.5 Z"/></g>
<g><path style="opacity:1" fill="#130a00" d="M 233.5,443.5 C 234.833,443.5 236.167,443.5 237.5,443.5C 237.5,444.833 237.5,446.167 237.5,447.5C 234.794,447.575 232.127,447.908 229.5,448.5C 229.421,449.93 229.754,451.264 230.5,452.5C 233.428,453.484 236.428,453.817 239.5,453.5C 239.5,454.5 239.5,455.5 239.5,456.5C 236.873,457.092 234.206,457.425 231.5,457.5C 231.942,461.154 232.276,464.821 232.5,468.5C 231.167,468.5 229.833,468.5 228.5,468.5C 227.811,460.388 226.477,452.388 224.5,444.5C 227.713,444.81 230.713,444.477 233.5,443.5 Z"/></g>
<g><path style="opacity:1" fill="#160c01" d="M 178.5,443.5 C 179.822,443.33 180.989,443.663 182,444.5C 184.408,452.373 186.241,460.373 187.5,468.5C 186.167,468.5 184.833,468.5 183.5,468.5C 183.528,466.418 182.861,464.584 181.5,463C 178.118,462.176 174.784,462.343 171.5,463.5C 170.5,467.167 168.833,467.5 166.5,464.5C 170.528,457.483 174.528,450.483 178.5,443.5 Z"/></g>
<g><path style="opacity:1" fill="#995801" d="M 315.5,444.5 C 315.167,449.833 314.833,455.167 314.5,460.5C 313.356,455.112 313.689,449.779 315.5,444.5 Z"/></g>
<g><path style="opacity:1" fill="#1e1201" d="M 140.5,451.5 C 146.005,454.171 145.671,455.838 139.5,456.5C 139.366,454.708 139.699,453.042 140.5,451.5 Z"/></g>
<g><path style="opacity:1" fill="#dc7f00" d="M 178.5,451.5 C 180.163,453.438 180.829,455.772 180.5,458.5C 178.833,458.5 177.167,458.5 175.5,458.5C 176.011,455.978 177.011,453.645 178.5,451.5 Z"/></g>
<g><path style="opacity:1" fill="#ea8600" d="M 105.5,452.5 C 115.77,457.3 126.103,462.133 136.5,467C 194.341,487.736 250.008,483.07 303.5,453C 306.567,451.836 308.233,452.836 308.5,456C 308.375,457.627 307.875,459.127 307,460.5C 285.139,478.575 259.973,489.075 231.5,492C 194.237,497.928 158.904,492.261 125.5,475C 117.461,470.957 110.628,465.457 105,458.5C 104.322,456.402 104.489,454.402 105.5,452.5 Z"/></g>
<g><path style="opacity:1" fill="#1f1301" d="M 252.5,457.5 C 258.005,460.171 257.671,461.838 251.5,462.5C 251.366,460.708 251.699,459.042 252.5,457.5 Z"/></g>
<g><path style="opacity:1" fill="#221402" d="M 194.5,463.5 C 197.685,463.722 198.685,465.222 197.5,468C 196.207,468.49 194.873,468.657 193.5,468.5C 193.366,466.708 193.699,465.042 194.5,463.5 Z"/></g>
</svg>
