<?xml version="1.0" encoding="UTF-8"?>
<svg version="1.1" xmlns="http://www.w3.org/2000/svg" width="30" height="30">
<path d="M0 0 C1.11246094 -0.00515625 2.22492187 -0.0103125 3.37109375 -0.015625 C6.509509 0.24558949 8.73085425 0.91621546 11.5625 2.25 C10.9025 4.23 10.2425 6.21 9.5625 8.25 C10.036875 8.683125 10.51125 9.11625 11 9.5625 C13.33967427 12.08934822 13.55652945 14.17089027 13.8125 17.5625 C13.47270656 22.57445321 12.24257003 25.72266361 8.5 29.125 C3.24388693 31.13797947 -2.11888693 31.13797947 -7.375 29.125 C-11.05895896 25.7759464 -12.29556122 22.59841842 -12.8125 17.6875 C-12.41176692 14.01411347 -11.51754643 12.24526685 -9.4375 9.25 C-8.10445302 6.35813214 -8.10445302 6.35813214 -9.375 4.0625 C-9.725625 3.464375 -10.07625 2.86625 -10.4375 2.25 C-6.93058963 0.08926305 -4.07588074 -0.018848 0 0 Z " fill="#0A0801" transform="translate(14.4375,-0.25)"/>
<path d="M0 0 C4 2 4 2 5.25 3.6875 C6.70487352 8.17336001 6.41919624 11.85272609 4.8125 16.25 C2.6911324 19.4686267 1.60597575 20.61898801 -2 22 C-6.59004401 22.54445333 -10.59673989 22.53741877 -14.9375 20.875 C-18.62145896 17.5259464 -19.85806122 14.34841842 -20.375 9.4375 C-19.97953523 5.81240624 -19.12367659 3.92005531 -17 1 C-16.01 1.33 -15.02 1.66 -14 2 C-14 4.97 -14 7.94 -14 11 C-8.06 11.99 -8.06 11.99 -2 13 C-2 12.34 -2 11.68 -2 11 C-1.34 11 -0.68 11 0 11 C0 7.37 0 3.74 0 0 Z " fill="#74550A" transform="translate(22,8)"/>
<path d="M0 0 C1.11246094 -0.00515625 2.22492187 -0.0103125 3.37109375 -0.015625 C6.509509 0.24558949 8.73085425 0.91621546 11.5625 2.25 C10.5625 4.7109375 10.5625 4.7109375 8.5625 7.25 C5.65701024 7.77323438 3.45503553 7.95220291 0.5625 7.875 C-0.52417969 7.90400391 -0.52417969 7.90400391 -1.6328125 7.93359375 C-3.75 7.9140625 -3.75 7.9140625 -7.4375 7.25 C-9.4375 4.7109375 -9.4375 4.7109375 -10.4375 2.25 C-6.93058963 0.08926305 -4.07588074 -0.018848 0 0 Z " fill="#767676" transform="translate(14.4375,-0.25)"/>
<path d="M0 0 C3.84375 1.7890625 3.84375 1.7890625 5.25 3.6875 C6.55926692 7.72440634 6.61539575 11.49997285 5 15.4375 C4.67 15.953125 4.34 16.46875 4 17 C3.566875 16.1028125 3.566875 16.1028125 3.125 15.1875 C1.95257974 12.80672208 1.95257974 12.80672208 0 10 C-0.1953125 7.51953125 -0.1953125 7.51953125 -0.125 4.8125 C-0.10695313 3.91144531 -0.08890625 3.01039062 -0.0703125 2.08203125 C-0.04710938 1.39496094 -0.02390625 0.70789062 0 0 Z " fill="#915300" transform="translate(22,8)"/>
<path d="M0 0 C0.99 0.33 1.98 0.66 3 1 C3.8125 2.875 3.8125 2.875 4 5 C3.01 6.485 3.01 6.485 2 8 C1.34 8 0.68 8 0 8 C0 7.34 0 6.68 0 6 C-3.96 6 -7.92 6 -12 6 C-12.33 5.01 -12.66 4.02 -13 3 C-9.37 3 -5.74 3 -2 3 C-2 2.34 -2 1.68 -2 1 C-1.34 0.67 -0.68 0.34 0 0 Z " fill="#B5925B" transform="translate(22,18)"/>
<path d="M0 0 C3.63 0 7.26 0 11 0 C11 0.66 11 1.32 11 2 C11.99 1.67 12.98 1.34 14 1 C14 1.66 14 2.32 14 3 C10.28026121 5.84450614 7.62609198 6.3227506 3 6 C3 5.34 3 4.68 3 4 C3.66 4 4.32 4 5 4 C5 3.34 5 2.68 5 2 C3.35 1.67 1.7 1.34 0 1 C0 0.67 0 0.34 0 0 Z " fill="#76570D" transform="translate(11,24)"/>
<path d="M0 0 C0.66 0.66 1.32 1.32 2 2 C2.66 1.67 3.32 1.34 4 1 C4.33 2.98 4.66 4.96 5 7 C2.36 7.66 -0.28 8.32 -3 9 C-4 5 -4 5 -4 2 C-2.68 1.34 -1.36 0.68 0 0 Z " fill="#D6C800" transform="translate(15,10)"/>
<path d="M0 0 C0.804375 0.185625 1.60875 0.37125 2.4375 0.5625 C3.283125 0.706875 4.12875 0.85125 5 1 C5.33 0.67 5.66 0.34 6 0 C7.66617115 -0.04063832 9.33388095 -0.042721 11 0 C11 1.32 11 2.64 11 4 C8.03 4 5.06 4 2 4 C1.34 2.68 0.68 1.36 0 0 Z " fill="#670D0A" transform="translate(9,17)"/>
<path d="M0 0 C5.75 0.875 5.75 0.875 8 2 C8 2.66 8 3.32 8 4 C7.34 4 6.68 4 6 4 C6 4.66 6 5.32 6 6 C3.0625 5.625 3.0625 5.625 0 5 C-0.33 4.34 -0.66 3.68 -1 3 C-0.01 3 0.98 3 2 3 C2 2.34 2 1.68 2 1 C1.34 0.67 0.68 0.34 0 0 Z " fill="#8D5301" transform="translate(8,24)"/>
<path d="M0 0 C0.66 0.33 1.32 0.66 2 1 C2 2.65 2 4.3 2 6 C1.34 6 0.68 6 0 6 C-0.33 7.98 -0.66 9.96 -1 12 C-2.125 10.375 -2.125 10.375 -3 8 C-2.25465624 5.13329322 -1.32208367 2.64416734 0 0 Z " fill="#CE7700" transform="translate(6,9)"/>
<path d="M0 0 C1.32 0.66 2.64 1.32 4 2 C4 2.66 4 3.32 4 4 C-1.75 5.125 -1.75 5.125 -4 4 C-3.67 3.01 -3.34 2.02 -3 1 C-2.01 1.33 -1.02 1.66 0 2 C0 1.34 0 0.68 0 0 Z " fill="#989898" transform="translate(10,1)"/>
<path d="M0 0 C0.66 0 1.32 0 2 0 C3.38232443 1.62626404 4.71937515 3.2925002 6 5 C4.35 5.66 2.7 6.32 1 7 C0.31292445 4.50935112 0 2.62113708 0 0 Z " fill="#8C8600" transform="translate(11,12)"/>
</svg>
