<?xml version="1.0" encoding="UTF-8"?>
<svg version="1.1" xmlns="http://www.w3.org/2000/svg" width="30" height="30">
<path d="M0 0 C2.85100031 1.8665742 3.03893219 3.85876687 3.7421875 7.140625 C4.49386981 13.95132232 3.91402993 19.53954025 -0.2578125 25.140625 C-3.43656847 27.97386402 -5.04449158 29.140625 -9.3203125 29.140625 C-14.15056486 27.49628377 -16.50973759 25.43040933 -19.0703125 21.015625 C-21.46393289 14.72730025 -20.61541528 7.58923822 -19.2578125 1.140625 C-13.44696552 -1.37217369 -6.03109925 -2.29557411 0 0 Z " fill="#D96754" transform="translate(23.2578125,0.859375)"/>
<path d="M0 0 C1.2684375 -0.00386719 1.2684375 -0.00386719 2.5625 -0.0078125 C5.83231021 0.17035024 8.07408848 0.42584232 10.72265625 2.42578125 C12.75471964 5.12898485 12.47058086 7.42938485 12.34765625 10.7109375 C11.54713094 16.26964133 9.28136975 19.98290957 5.125 23.6875 C1.48313654 25.36275719 -0.2211085 25.35533677 -4 24.125 C-4.33 23.465 -4.66 22.805 -5 22.125 C-3.6078125 22.434375 -3.6078125 22.434375 -2.1875 22.75 C1.15173402 23.49192966 1.15173402 23.49192966 4 21.125 C3.3503125 20.76148437 2.700625 20.39796875 2.03125 20.0234375 C-0.47935365 18.51242604 -2.78284929 17.04393745 -5 15.125 C-5.5625 11.75 -5.5625 11.75 -5 9.125 C-4.34 9.455 -3.68 9.785 -3 10.125 C-2.375 12.6875 -2.375 12.6875 -2 15.125 C-1.2575 14.320625 -0.515 13.51625 0.25 12.6875 C2.75304829 10.35511409 3.7180955 9.48965606 7 9.125 C5.07720547 6.77716032 5.07720547 6.77716032 1.6875 6.8125 C-3.66224737 7.26586842 -6.36611208 9.39713222 -10 13.125 C-10.02698189 11.50009046 -10.04638757 9.87505367 -10.0625 8.25 C-10.07410156 7.34507813 -10.08570313 6.44015625 -10.09765625 5.5078125 C-10 3.125 -10 3.125 -9 1.125 C-6.00338151 0.06815687 -3.15687199 -0.00962461 0 0 Z " fill="#D34B34" transform="translate(15,4.875)"/>
<path d="M0 0 C1.9375 1.5 1.9375 1.5 3 3 C2.67 3.66 2.34 4.32 2 5 C0.68 5 -0.64 5 -2 5 C-3.0260734 6.31337396 -4.02727325 7.64664105 -5 9 C-5.99 9 -6.98 9 -8 9 C-8.66 7.02 -9.32 5.04 -10 3 C-9.57694334 5.7498683 -9.29081652 7.58875473 -8 10 C-5.4945845 11.77424322 -2.86771794 12.92627305 0 14 C-1.32 15.32 -2.64 16.64 -4 18 C-7.52486049 17.11878488 -9.71313409 16.25744376 -12.4375 13.8125 C-14 11 -14 11 -14 7.375 C-12.916171 3.71707713 -12.27530736 2.78653129 -9 1 C-5.95016004 -0.52491998 -3.3576631 -0.23562548 0 0 Z " fill="#EEBAB1" transform="translate(20,11)"/>
<path d="M0 0 C0.99 0.495 0.99 0.495 2 1 C2.625 3.5625 2.625 3.5625 3 6 C3.70125 5.62875 4.4025 5.2575 5.125 4.875 C8.76443651 3.76734541 10.55700411 4.55874591 14 6 C12.67095116 12.40359897 12.67095116 12.40359897 9.75 15 C6.37476037 16.22735987 4.41944193 16.01028966 1 15 C0.67 14.34 0.34 13.68 0 13 C0.928125 13.20625 1.85625 13.4125 2.8125 13.625 C6.15173402 14.36692966 6.15173402 14.36692966 9 12 C8.3503125 11.63648438 7.700625 11.27296875 7.03125 10.8984375 C4.52064635 9.38742604 2.21715071 7.91893745 0 6 C-0.5625 2.625 -0.5625 2.625 0 0 Z " fill="#E59789" transform="translate(10,14)"/>
<path d="M0 0 C-0.33 0.99 -0.66 1.98 -1 3 C-1 2.34 -1 1.68 -1 1 C-2.32 1 -3.64 1 -5 1 C-5 1.66 -5 2.32 -5 3 C-4.34 3 -3.68 3 -3 3 C-3 3.66 -3 4.32 -3 5 C-2.01 5.33 -1.02 5.66 0 6 C-1.0725 6.4125 -2.145 6.825 -3.25 7.25 C-6.52265074 8.63739149 -8.65517162 10.27999908 -11 13 C-11.02698189 11.37509046 -11.04638757 9.75005367 -11.0625 8.125 C-11.07410156 7.22007813 -11.08570313 6.31515625 -11.09765625 5.3828125 C-11 3 -11 3 -10 1 C-6.70581806 -0.22006738 -3.47634765 -0.0790079 0 0 Z " fill="#D14229" transform="translate(16,5)"/>
<path d="M0 0 C2.97 1.32 5.94 2.64 9 4 C7.68 5.32 6.36 6.64 5 8 C-0.75 6.375 -0.75 6.375 -3 3 C-2.01 3 -1.02 3 0 3 C0 2.01 0 1.02 0 0 Z " fill="#F0C1B9" transform="translate(11,21)"/>
<path d="M0 0 C0 0.66 0 1.32 0 2 C1.32 1.67 2.64 1.34 4 1 C6.48887372 5.68493876 5.85687773 8.9444214 5 14 C4.67 14 4.34 14 4 14 C3.67 10.37 3.34 6.74 3 3 C2.01 3 1.02 3 0 3 C-0.33 3.66 -0.66 4.32 -1 5 C-1 4.01 -1 3.02 -1 2 C-4.3 2 -7.6 2 -11 2 C-11.33 2.99 -11.66 3.98 -12 5 C-12 4.34 -12 3.68 -12 3 C-12.99 2.67 -13.98 2.34 -15 2 C-12.87528825 1.6648342 -10.75022095 1.33192171 -8.625 1 C-7.44164062 0.814375 -6.25828125 0.62875 -5.0390625 0.4375 C-2 0 -2 0 0 0 Z " fill="#E49283" transform="translate(21,3)"/>
<path d="M0 0 C3.625 0.25 3.625 0.25 5.5625 1.75 C5.913125 2.245 6.26375 2.74 6.625 3.25 C6.295 3.91 5.965 4.57 5.625 5.25 C4.305 5.25 2.985 5.25 1.625 5.25 C-0.14909808 7.17022703 -0.14909808 7.17022703 -1.375 9.25 C-1.560625 7.826875 -1.560625 7.826875 -1.75 6.375 C-2.09187177 3.16332809 -2.09187177 3.16332809 -4.375 1.25 C-3.375 0.25 -3.375 0.25 0 0 Z " fill="#F7E1DD" transform="translate(16.375,10.75)"/>
<path d="M0 0 C0.99 0.495 0.99 0.495 2 1 C2.625 3.5625 2.625 3.5625 3 6 C3.556875 5.79375 4.11375 5.5875 4.6875 5.375 C7.659538 4.89304789 9.31979941 5.73434972 12 7 C11.67 7.66 11.34 8.32 11 9 C4.77777778 9.35897436 4.77777778 9.35897436 1.5625 7.875 C-0.6260738 5.24871143 -0.29461899 3.31446363 0 0 Z " fill="#D9624E" transform="translate(10,14)"/>
<path d="M0 0 C2.475 0.99 2.475 0.99 5 2 C4.67 4.31 4.34 6.62 4 9 C3.01 8.34 2.02 7.68 1 7 C0.3125 3.375 0.3125 3.375 0 0 Z " fill="#E9A397" transform="translate(10,12)"/>
<path d="M0 0 C-1 3 -1 3 -3 5 C-4.32 5 -5.64 5 -7 5 C-7 4.34 -7 3.68 -7 3 C-7.66 3 -8.32 3 -9 3 C-9 2.34 -9 1.68 -9 1 C-5.846632 0.29925156 -3.27275026 0 0 0 Z " fill="#D9634E" transform="translate(20,5)"/>
<path d="M0 0 C4.455 1.98 4.455 1.98 9 4 C8.34 4.66 7.68 5.32 7 6 C4.69 5.01 2.38 4.02 0 3 C0 2.01 0 1.02 0 0 Z " fill="#FAEDEB" transform="translate(11,21)"/>
<path d="M0 0 C0 0.66 0 1.32 0 2 C0.66 2.33 1.32 2.66 2 3 C-1.465 4.485 -1.465 4.485 -5 6 C-5 4.35 -5 2.7 -5 1 C-2 0 -2 0 0 0 Z " fill="#D75E4A" transform="translate(9,1)"/>
</svg>
