<?xml version="1.0" encoding="UTF-8"?>
<svg version="1.1" xmlns="http://www.w3.org/2000/svg" width="30" height="30">
<path d="M0 0 C1.60875 -0.00386719 1.60875 -0.00386719 3.25 -0.0078125 C6 0.125 6 0.125 8 1.125 C8 2.115 8 3.105 8 4.125 C7.01 4.125 6.02 4.125 5 4.125 C5 4.785 5 5.445 5 6.125 C5.804375 6.269375 6.60875 6.41375 7.4375 6.5625 C10 7.125 10 7.125 11 8.125 C12.23106482 19.74999187 12.23106482 19.74999187 9.73046875 24.57421875 C6.90765879 27.85032666 4.66619889 29.85375832 0.3125 30.5625 C-4.3452915 29.94731999 -6.84161622 27.48350176 -10 24.125 C-11.47694068 21.17111864 -11.20930797 18.47338118 -11.25 15.1875 C-11.27578125 13.94097656 -11.3015625 12.69445312 -11.328125 11.41015625 C-10.96803472 7.80496665 -10.56622567 7.38733052 -8 5.125 C-8 3.805 -8 2.485 -8 1.125 C-5.26922124 -0.24038938 -3.04439633 -0.00731826 0 0 Z " fill="#4A8D6D" transform="translate(15,-0.125)"/>
<path d="M0 0 C0.33 0.66 0.66 1.32 1 2 C2.32 2 3.64 2 5 2 C5 6 5 10 5 14 C6.65 14 8.3 14 10 14 C9.75232426 17.34362255 8.72075548 18.28573857 6.3125 20.75 C4.07777953 22.45796493 2.87987436 23.02811451 0.0625 23.6875 C-4.2330735 22.72318758 -7.20896304 20.39383488 -10 17 C-10 16.01 -10 15.02 -10 14 C-8.35 14 -6.7 14 -5 14 C-5 11.36 -5 8.72 -5 6 C-5.66 5.67 -6.32 5.34 -7 5 C-3.375 2 -3.375 2 0 2 C0 1.34 0 0.68 0 0 Z " fill="#388058" transform="translate(15,7)"/>
<path d="M0 0 C1.22589844 0.01353516 1.22589844 0.01353516 2.4765625 0.02734375 C3.41628906 0.04474609 3.41628906 0.04474609 4.375 0.0625 C3.385 0.3925 2.395 0.7225 1.375 1.0625 C1.375 1.7225 1.375 2.3825 1.375 3.0625 C2.035 3.0625 2.695 3.0625 3.375 3.0625 C3.375 4.0525 3.375 5.0425 3.375 6.0625 C0.405 6.7225 -2.565 7.3825 -5.625 8.0625 C-5.625 8.7225 -5.625 9.3825 -5.625 10.0625 C-6.285 10.0625 -6.945 10.0625 -7.625 10.0625 C-7.295 11.0525 -6.965 12.0425 -6.625 13.0625 C-7.615 13.0625 -8.605 13.0625 -9.625 13.0625 C-9.8125 10.75 -9.8125 10.75 -9.625 8.0625 C-8.6456121 7.04230427 -7.64604551 6.04100195 -6.625 5.0625 C-6.625 3.7425 -6.625 2.4225 -6.625 1.0625 C-4.21954362 -0.14022819 -2.67503047 -0.03821472 0 0 Z " fill="#317E59" transform="translate(13.625,-0.0625)"/>
<path d="M0 0 C0 0.66 0 1.32 0 2 C-1.98 2.99 -3.96 3.98 -6 5 C-5.67 5.33 -5.34 5.66 -5 6 C-4.85884839 8.67058851 -4.95752893 11.32432238 -5 14 C-6.98 14.33 -8.96 14.66 -11 15 C-11 12.03 -11 9.06 -11 6 C-10.34 5.67 -9.68 5.34 -9 5 C-9 4.34 -9 3.68 -9 3 C-8.34 3 -7.68 3 -7 3 C-7 2.34 -7 1.68 -7 1 C-4.53721199 -0.231394 -2.7204945 -0.07159196 0 0 Z " fill="#7DAD96" transform="translate(15,7)"/>
<path d="M0 0 C0.66 0 1.32 0 2 0 C2.33 0.99 2.66 1.98 3 3 C3.99 3.33 4.98 3.66 6 4 C6 6.97 6 9.94 6 13 C3.03 12.505 3.03 12.505 0 12 C-0.16276042 9.98177083 -0.32552083 7.96354167 -0.48828125 5.9453125 C-0.87393036 3.60480784 -0.87393036 3.60480784 -4 2 C-2.68 2 -1.36 2 0 2 C0 1.34 0 0.68 0 0 Z " fill="#89B5A0" transform="translate(20,9)"/>
<path d="M0 0 C0 0.66 0 1.32 0 2 C-1.98 2.99 -3.96 3.98 -6 5 C-6 5.99 -6 6.98 -6 8 C-7.65 8 -9.3 8 -11 8 C-11 7.34 -11 6.68 -11 6 C-10.34 5.67 -9.68 5.34 -9 5 C-9 4.34 -9 3.68 -9 3 C-8.34 3 -7.68 3 -7 3 C-7 2.34 -7 1.68 -7 1 C-4.53721199 -0.231394 -2.7204945 -0.07159196 0 0 Z " fill="#96BDAA" transform="translate(15,7)"/>
<path d="M0 0 C6.875 0.875 6.875 0.875 8 2 C8.04063832 3.66617115 8.042721 5.33388095 8 7 C6.35 7 4.7 7 3 7 C3.33 5.68 3.66 4.36 4 3 C2.68 2.34 1.36 1.68 0 1 C0 0.67 0 0.34 0 0 Z " fill="#2F7C58" transform="translate(18,6)"/>
<path d="M0 0 C0.66 0 1.32 0 2 0 C2.66 2.97 3.32 5.94 4 9 C3.01 9.495 3.01 9.495 2 10 C2 9.34 2 8.68 2 8 C0.68 8.33 -0.64 8.66 -2 9 C-1.67 8.01 -1.34 7.02 -1 6 C-1.66 5.34 -2.32 4.68 -3 4 C-2.34 3.67 -1.68 3.34 -1 3 C-0.67 2.01 -0.34 1.02 0 0 Z " fill="#A7A034" transform="translate(14,12)"/>
<path d="M0 0 C1.32 0.33 2.64 0.66 4 1 C4.125 7.75 4.125 7.75 3 10 C2.34 9.67 1.68 9.34 1 9 C0.5859375 6.93359375 0.5859375 6.93359375 0.375 4.4375 C0.30023437 3.61121094 0.22546875 2.78492188 0.1484375 1.93359375 C0.09945313 1.29550781 0.05046875 0.65742188 0 0 Z " fill="#387A44" transform="translate(16,12)"/>
<path d="M0 0 C-0.33 0.99 -0.66 1.98 -1 3 C-6.75 3.125 -6.75 3.125 -9 2 C-9 1.34 -9 0.68 -9 0 C-2.25 -1.125 -2.25 -1.125 0 0 Z " fill="#24764F" transform="translate(19,27)"/>
<path d="M0 0 C0.33 0.66 0.66 1.32 1 2 C2.32 2 3.64 2 5 2 C5 2.66 5 3.32 5 4 C3.54263913 4.19491452 2.08405407 4.38069358 0.625 4.5625 C-0.18710938 4.66691406 -0.99921875 4.77132813 -1.8359375 4.87890625 C-4 5 -4 5 -6 4 C-3 2 -3 2 0 2 C0 1.34 0 0.68 0 0 Z " fill="#297852" transform="translate(15,7)"/>
<path d="M0 0 C0.99 0.33 1.98 0.66 3 1 C4.49860851 1.06787176 6.00002407 1.08499964 7.5 1.0625 C8.2734375 1.05347656 9.046875 1.04445313 9.84375 1.03515625 C10.91109375 1.01775391 10.91109375 1.01775391 12 1 C12.99 1 13.98 1 15 1 C11.85831485 3.45444152 9.71807205 4.25204065 5.8125 3.875 C2 3 2 3 0 0 Z " fill="#85B29C" transform="translate(8,23)"/>
<path d="M0 0 C1.2065625 0.0309375 1.2065625 0.0309375 2.4375 0.0625 C1.4475 0.5575 1.4475 0.5575 0.4375 1.0625 C0.4375 1.7225 0.4375 2.3825 0.4375 3.0625 C-0.2225 3.0625 -0.8825 3.0625 -1.5625 3.0625 C-1.2325 4.0525 -0.9025 5.0425 -0.5625 6.0625 C-1.5525 6.0625 -2.5425 6.0625 -3.5625 6.0625 C-3.605221 4.39638095 -3.60313832 2.72867115 -3.5625 1.0625 C-2.5625 0.0625 -2.5625 0.0625 0 0 Z " fill="#21744C" transform="translate(7.5625,6.9375)"/>
<path d="M0 0 C1.65 0 3.3 0 5 0 C4.67 1.32 4.34 2.64 4 4 C2.35 3.67 0.7 3.34 -1 3 C-0.67 2.01 -0.34 1.02 0 0 Z " fill="#94BCA9" transform="translate(21,18)"/>
<path d="M0 0 C1.65 0 3.3 0 5 0 C5.33 0.99 5.66 1.98 6 3 C4.02 3.33 2.04 3.66 0 4 C0 2.68 0 1.36 0 0 Z " fill="#94BCA9" transform="translate(4,18)"/>
<path d="M0 0 C1.65 0 3.3 0 5 0 C5 0.99 5 1.98 5 3 C3.02 3.33 1.04 3.66 -1 4 C-0.67 2.68 -0.34 1.36 0 0 Z " fill="#81AF99" transform="translate(21,15)"/>
</svg>
