<?xml version="1.0" encoding="UTF-8"?>
<!DOCTYPE svg PUBLIC "-//W3C//DTD SVG 1.1//EN" "http://www.w3.org/Graphics/SVG/1.1/DTD/svg11.dtd">
<svg xmlns="http://www.w3.org/2000/svg" version="1.1" width="194px" height="260px" style="shape-rendering:geometricPrecision; text-rendering:geometricPrecision; image-rendering:optimizeQuality; fill-rule:evenodd; clip-rule:evenodd" xmlns:xlink="http://www.w3.org/1999/xlink">
<g><path style="opacity:1" fill="#fbfcfc" d="M -0.5,-0.5 C 31.1667,-0.5 62.8333,-0.5 94.5,-0.5C 88.028,0.560335 82.028,3.06033 76.5,7C 69.4052,15.2588 70.0718,22.9254 78.5,30C 90.4666,36.2944 102.8,37.1277 115.5,32.5C 116.655,29.5541 116.821,26.5541 116,23.5C 108.607,27.1875 100.774,28.3542 92.5,27C 84.7387,24.5943 82.572,19.761 86,12.5C 87.9522,10.1064 90.4522,8.60644 93.5,8C 101.462,6.59953 108.962,7.7662 116,11.5C 116.498,8.51838 116.665,5.51838 116.5,2.5C 112.07,1.40093 107.737,0.400933 103.5,-0.5C 133.5,-0.5 163.5,-0.5 193.5,-0.5C 193.5,42.8333 193.5,86.1667 193.5,129.5C 178.923,130.123 164.589,129.456 150.5,127.5C 149.886,123.865 149.552,120.198 149.5,116.5C 163.833,116.5 178.167,116.5 192.5,116.5C 191.741,97.8938 188.074,79.8938 181.5,62.5C 173.084,62.542 164.75,61.7087 156.5,60C 145.599,55.8833 134.933,51.2166 124.5,46C 107.981,42.1659 91.3148,41.4992 74.5,44C 63.6093,48.111 52.9426,52.7777 42.5,58C 32.6872,60.7466 22.6872,62.4132 12.5,63C 5.44979,80.1276 1.44979,97.9609 0.5,116.5C 15.1818,116.167 29.8485,116.501 44.5,117.5C 43.0886,121.713 42.4219,126.046 42.5,130.5C 28.1667,130.5 13.8333,130.5 -0.5,130.5C -0.5,86.8333 -0.5,43.1667 -0.5,-0.5 Z"/></g>
<g><path style="opacity:1" fill="#1f7148" d="M 94.5,-0.5 C 97.5,-0.5 100.5,-0.5 103.5,-0.5C 107.737,0.400933 112.07,1.40093 116.5,2.5C 116.665,5.51838 116.498,8.51838 116,11.5C 108.962,7.7662 101.462,6.59953 93.5,8C 90.4522,8.60644 87.9522,10.1064 86,12.5C 82.572,19.761 84.7387,24.5943 92.5,27C 100.774,28.3542 108.607,27.1875 116,23.5C 116.821,26.5541 116.655,29.5541 115.5,32.5C 102.8,37.1277 90.4666,36.2944 78.5,30C 70.0718,22.9254 69.4052,15.2588 76.5,7C 82.028,3.06033 88.028,0.560335 94.5,-0.5 Z"/></g>
<g><path style="opacity:1" fill="#1c6f46" d="M 134.5,5.5 C 143.683,8.08856 152.683,11.2552 161.5,15C 166.937,19.1207 167.77,23.9541 164,29.5C 161.132,31.4001 157.966,32.4001 154.5,32.5C 149.281,31.9455 144.281,30.6122 139.5,28.5C 137.773,32.0151 136.439,35.6818 135.5,39.5C 131.439,40.3747 127.772,39.3747 124.5,36.5C 127.991,26.1961 131.325,15.8628 134.5,5.5 Z"/></g>
<g><path style="opacity:1" fill="#1f7148" d="M 51.5,7.5 C 55.4816,7.38242 57.8149,9.38242 58.5,13.5C 51.9272,13.7695 45.7605,15.4362 40,18.5C 39.51,19.7932 39.3433,21.1266 39.5,22.5C 44.3477,22.4245 49.181,22.0911 54,21.5C 57.7457,21.3246 61.2457,22.158 64.5,24C 68.2353,27.8844 68.402,32.051 65,36.5C 57.3174,43.8391 48.1507,47.0058 37.5,46C 36.373,44.2467 35.373,42.4134 34.5,40.5C 39.8794,39.844 45.2127,39.0107 50.5,38C 56.5251,35.806 56.8584,33.306 51.5,30.5C 45.2375,32.0599 38.9041,32.5599 32.5,32C 25.8886,26.5062 25.8886,20.8395 32.5,15C 38.4852,11.3305 44.8185,8.83047 51.5,7.5 Z"/></g>
<g><path style="opacity:1" fill="#f1f5f3" d="M 143.5,15.5 C 148.049,15.5912 151.883,17.2579 155,20.5C 155.667,21.5 155.667,22.5 155,23.5C 150.825,24.8174 146.658,24.6507 142.5,23C 141.616,20.4331 141.95,17.9331 143.5,15.5 Z"/></g>
<g><path style="opacity:1" fill="#1a6e45" d="M 150.5,127.5 C 150.5,128.5 150.5,129.5 150.5,130.5C 164.833,130.5 179.167,130.5 193.5,130.5C 193.5,134.5 193.5,138.5 193.5,142.5C 179.5,142.5 165.5,142.5 151.5,142.5C 150.771,147.13 150.437,151.797 150.5,156.5C 164.167,156.5 177.833,156.5 191.5,156.5C 190.354,160.754 189.687,165.087 189.5,169.5C 174.818,169.167 160.152,169.501 145.5,170.5C 144.487,172.527 143.487,174.527 142.5,176.5C 141.662,176.158 141.328,175.492 141.5,174.5C 148.186,158.177 150.353,141.177 148,123.5C 146.54,116.42 144.373,109.587 141.5,103C 137.167,102.667 132.833,102.333 128.5,102C 121.394,98.4472 114.061,95.4472 106.5,93C 99.5,92.3333 92.5,92.3333 85.5,93C 79.0515,95.3909 72.7181,98.0575 66.5,101C 61.2747,101.763 56.108,102.597 51,103.5C 43.7472,123.48 42.5805,143.813 47.5,164.5C 47.5,165.833 47.5,167.167 47.5,168.5C 32.755,168.816 18.0884,168.483 3.5,167.5C 3.04843,164.124 2.38176,160.791 1.5,157.5C 15.1504,156.501 28.8171,156.167 42.5,156.5C 42.5,154.5 42.5,152.5 42.5,150.5C 42.5,147.833 42.5,145.167 42.5,142.5C 28.5,142.5 14.5,142.5 0.5,142.5C 0.166667,142.5 -0.166667,142.5 -0.5,142.5C -0.5,138.5 -0.5,134.5 -0.5,130.5C 13.8333,130.5 28.1667,130.5 42.5,130.5C 42.4219,126.046 43.0886,121.713 44.5,117.5C 29.8485,116.501 15.1818,116.167 0.5,116.5C 1.44979,97.9609 5.44979,80.1276 12.5,63C 22.6872,62.4132 32.6872,60.7466 42.5,58C 52.9426,52.7777 63.6093,48.111 74.5,44C 91.3148,41.4992 107.981,42.1659 124.5,46C 134.933,51.2166 145.599,55.8833 156.5,60C 164.75,61.7087 173.084,62.542 181.5,62.5C 188.074,79.8938 191.741,97.8938 192.5,116.5C 178.167,116.5 163.833,116.5 149.5,116.5C 149.552,120.198 149.886,123.865 150.5,127.5 Z"/></g>
<g><path style="opacity:1" fill="#ecf3ef" d="M 98.5,56.5 C 105.148,57.2764 111.815,57.943 118.5,58.5C 118.5,59.8333 118.5,61.1667 118.5,62.5C 115.794,62.4249 113.127,62.0916 110.5,61.5C 110.497,66.5275 110.164,71.5275 109.5,76.5C 107.856,76.7135 106.356,76.3802 105,75.5C 104.352,70.7959 104.519,66.1292 105.5,61.5C 103.473,61.6621 101.473,61.4955 99.5,61C 98.6198,59.6439 98.2865,58.1439 98.5,56.5 Z"/></g>
<g><path style="opacity:1" fill="#eff4f2" d="M 81.5,57.5 C 85.5138,57.3345 89.5138,57.5012 93.5,58C 97.436,61.1589 97.436,64.4922 93.5,68C 95.8397,69.8402 97.8397,72.0069 99.5,74.5C 97.1667,75.8333 94.8333,75.8333 92.5,74.5C 90.9571,71.6095 88.6238,69.9429 85.5,69.5C 85.5,71.8333 85.5,74.1667 85.5,76.5C 83.5,76.5 81.5,76.5 79.5,76.5C 79.0343,70.509 78.701,64.509 78.5,58.5C 79.791,58.7373 80.791,58.404 81.5,57.5 Z"/></g>
<g><path style="opacity:1" fill="#eff4f1" d="M 122.5,60.5 C 124.589,60.8567 126.589,61.5233 128.5,62.5C 126.708,67.4651 125.041,72.4651 123.5,77.5C 121.955,78.4519 120.288,78.7852 118.5,78.5C 119.516,72.4348 120.85,66.4348 122.5,60.5 Z"/></g>
<g><path style="opacity:1" fill="#f0f5f2" d="M 52.5,76.5 C 52.5,74.1667 52.5,71.8333 52.5,69.5C 58.7445,60.4832 65.9112,59.4832 74,66.5C 76,69.5 76,72.5 74,75.5C 69.876,80.3162 64.7093,82.4829 58.5,82C 56.0038,80.669 54.0038,78.8356 52.5,76.5 Z"/></g>
<g><path style="opacity:1" fill="#136b40" d="M 84.5,61.5 C 86.5,61.5 88.5,61.5 90.5,61.5C 90.2407,65.0681 88.2407,66.4015 84.5,65.5C 84.5,64.1667 84.5,62.8333 84.5,61.5 Z"/></g>
<g><path style="opacity:1" fill="#f1f6f3" d="M 134.5,64.5 C 136.757,64.9617 138.757,65.9617 140.5,67.5C 141.897,72.1921 143.397,76.8588 145,81.5C 146.608,78.228 148.608,75.228 151,72.5C 153.741,73.2215 154.741,74.8882 154,77.5C 151.236,82.0376 148.236,86.371 145,90.5C 143.739,90.2409 142.739,89.5742 142,88.5C 140.133,83.8982 138.466,79.2316 137,74.5C 135.065,77.3707 133.399,80.3707 132,83.5C 130.581,82.5399 129.081,81.7065 127.5,81C 130.25,75.6671 132.584,70.1671 134.5,64.5 Z"/></g>
<g><path style="opacity:1" fill="#1d6f47" d="M 60.5,66.5 C 66.8302,65.6662 69.6635,68.3329 69,74.5C 65.952,78.0095 62.6187,78.3428 59,75.5C 56.7879,72.0213 57.2879,69.0213 60.5,66.5 Z"/></g>
<g><path style="opacity:1" fill="#f2f6f4" d="M 50.5,75.5 C 50.5,76.8333 50.5,78.1667 50.5,79.5C 48.9337,82.4123 46.9337,85.079 44.5,87.5C 48.8018,90.5504 48.4684,92.8837 43.5,94.5C 39.4874,90.4851 35.8207,86.1518 32.5,81.5C 35.4039,77.428 39.0705,74.2614 43.5,72C 46.8129,71.1358 49.1463,72.3024 50.5,75.5 Z"/></g>
<g><path style="opacity:1" fill="#80a893" d="M 52.5,69.5 C 52.5,71.8333 52.5,74.1667 52.5,76.5C 51.8333,77.5 51.1667,78.5 50.5,79.5C 50.5,78.1667 50.5,76.8333 50.5,75.5C 51.1667,73.5 51.8333,71.5 52.5,69.5 Z"/></g>
<g><path style="opacity:1" fill="#27744b" d="M 41.5,77.5 C 42.8333,77.5 44.1667,77.5 45.5,77.5C 45.1121,83.8455 42.7788,84.8455 38.5,80.5C 39.7701,79.7124 40.7701,78.7124 41.5,77.5 Z"/></g>
<g><path style="opacity:1" fill="#eef4f1" d="M 156.5,82.5 C 163.963,82.7791 169.13,86.4457 172,93.5C 172.946,95.9563 172.446,97.9563 170.5,99.5C 169.149,96.4356 167.649,93.4356 166,90.5C 160.839,87.0572 157.339,88.2239 155.5,94C 156.147,96.8047 157.647,98.9714 160,100.5C 160.5,100.167 161,99.8333 161.5,99.5C 160.754,98.2638 160.421,96.9305 160.5,95.5C 163.9,96.5243 166.233,98.8577 167.5,102.5C 165.72,104.444 163.553,105.777 161,106.5C 153.97,102.433 150.637,96.4326 151,88.5C 152.36,85.9774 154.193,83.9774 156.5,82.5 Z"/></g>
<g><path style="opacity:1" fill="#eef4f1" d="M 26.5,85.5 C 27.8118,86.1451 28.8118,87.1451 29.5,88.5C 26.5665,90.2654 24.5665,92.7654 23.5,96C 23.8333,96.5 24.1667,97 24.5,97.5C 26.6499,95.8509 28.6499,94.0176 30.5,92C 35.5622,89.0621 38.5622,90.3955 39.5,96C 38.6727,99.4878 37.1727,102.654 35,105.5C 32.7148,108.877 30.2148,109.21 27.5,106.5C 30.7615,104.408 33.0948,101.574 34.5,98C 34.1667,97.5 33.8333,97 33.5,96.5C 30.6947,99.6467 27.3614,101.98 23.5,103.5C 20.2667,103.1 18.6001,101.266 18.5,98C 19.7535,92.9162 22.4202,88.7495 26.5,85.5 Z"/></g>
<g><path style="opacity:1" fill="#e6eeea" d="M 141.5,174.5 C 130.96,191.686 115.96,203.352 96.5,209.5C 73.379,201.706 57.0457,186.706 47.5,164.5C 42.5805,143.813 43.7472,123.48 51,103.5C 56.108,102.597 61.2747,101.763 66.5,101C 72.7181,98.0575 79.0515,95.3909 85.5,93C 92.5,92.3333 99.5,92.3333 106.5,93C 114.061,95.4472 121.394,98.4472 128.5,102C 132.833,102.333 137.167,102.667 141.5,103C 144.373,109.587 146.54,116.42 148,123.5C 150.353,141.177 148.186,158.177 141.5,174.5 Z"/></g>
<g><path style="opacity:1" fill="#1d6f45" d="M 85.5,95.5 C 92.5079,95.3337 99.5079,95.5004 106.5,96C 113.833,99 121.167,102 128.5,105C 132.167,105.333 135.833,105.667 139.5,106C 142.18,111.88 144.013,118.047 145,124.5C 150.592,165.014 134.426,192.347 96.5,206.5C 59.4393,192.587 43.2727,165.92 48,126.5C 49.0392,119.677 50.7058,113.01 53,106.5C 64.7137,105.318 75.5471,101.651 85.5,95.5 Z"/></g>
<g><path style="opacity:1" fill="#89923a" d="M 89.5,107.5 C 91.604,107.201 93.604,107.534 95.5,108.5C 92.5719,109.484 89.5719,109.817 86.5,109.5C 87.5,108.833 88.5,108.167 89.5,107.5 Z"/></g>
<g><path style="opacity:1" fill="#e3b52e" d="M 60.5,114.5 C 62.4771,115.149 64.3105,115.149 66,114.5C 68.0363,117.392 70.2029,120.226 72.5,123C 75.9567,124.743 79.6233,125.743 83.5,126C 82.0716,128.185 80.4049,130.185 78.5,132C 72.9927,134.459 71.9927,133.792 75.5,130C 69.0462,131.288 68.3795,130.288 73.5,127C 72.1011,126.405 70.7678,126.572 69.5,127.5C 68.8333,126.167 68.1667,124.833 67.5,123.5C 64.4008,122.638 61.5675,121.305 59,119.5C 58.8782,117.718 59.3782,116.052 60.5,114.5 Z"/></g>
<g><path style="opacity:1" fill="#e0b32e" d="M 84.5,115.5 C 85.8734,115.343 87.2068,115.51 88.5,116C 84.9474,118.483 81.2808,118.816 77.5,117C 80.0356,116.814 82.369,116.314 84.5,115.5 Z"/></g>
<g><path style="opacity:1" fill="#929638" d="M 134.5,122.5 C 134.269,125.063 132.935,126.73 130.5,127.5C 130.047,126.542 129.381,125.708 128.5,125C 130.301,124.683 130.634,124.016 129.5,123C 131.134,122.506 132.801,122.34 134.5,122.5 Z"/></g>
<g><path style="opacity:1" fill="#97b8a7" d="M 150.5,127.5 C 164.589,129.456 178.923,130.123 193.5,129.5C 193.5,129.833 193.5,130.167 193.5,130.5C 179.167,130.5 164.833,130.5 150.5,130.5C 150.5,129.5 150.5,128.5 150.5,127.5 Z"/></g>
<g><path style="opacity:1" fill="#2c7144" d="M 83.5,136.5 C 82.8333,136.5 82.5,136.167 82.5,135.5C 84.6121,134.406 86.7787,133.406 89,132.5C 89.6172,133.449 89.4506,134.282 88.5,135C 86.8455,135.608 85.1789,136.108 83.5,136.5 Z"/></g>
<g><path style="opacity:1" fill="#818f3a" d="M 80.5,134.5 C 80.8417,135.338 81.5084,135.672 82.5,135.5C 82.5,136.167 82.8333,136.5 83.5,136.5C 82.0813,137.451 80.4147,137.784 78.5,137.5C 78.9321,136.29 79.5987,135.29 80.5,134.5 Z"/></g>
<g><path style="opacity:1" fill="#e6b62d" d="M 134.5,122.5 C 132.801,122.34 131.134,122.506 129.5,123C 130.634,124.016 130.301,124.683 128.5,125C 129.381,125.708 130.047,126.542 130.5,127.5C 126.542,128.428 123.875,127.094 122.5,123.5C 120.259,124.032 118.759,125.365 118,127.5C 117.348,130.594 117.682,133.594 119,136.5C 120.934,140.759 123.268,144.759 126,148.5C 127.297,153.117 126.13,156.95 122.5,160C 123.167,160.333 123.833,160.667 124.5,161C 122.196,161.895 119.862,162.729 117.5,163.5C 117.709,164.086 118.043,164.586 118.5,165C 120.424,165.179 122.091,165.346 123.5,165.5C 121.403,168.053 119.07,170.386 116.5,172.5C 118.5,172.5 120.5,172.5 122.5,172.5C 120.613,175.29 118.113,177.29 115,178.5C 114.689,179.742 115.189,180.742 116.5,181.5C 115.135,182.941 113.635,184.274 112,185.5C 111.667,188.167 111.333,190.833 111,193.5C 109.989,194.337 108.822,194.67 107.5,194.5C 107.79,190.446 107.123,189.946 105.5,193C 104.207,193.49 102.873,193.657 101.5,193.5C 101.297,191.61 101.963,190.11 103.5,189C 102.207,188.51 100.873,188.343 99.5,188.5C 99.5,187.5 99.5,186.5 99.5,185.5C 107.114,186.553 110.447,183.219 109.5,175.5C 108.07,175.421 106.736,175.754 105.5,176.5C 104.299,173.128 102.466,170.128 100,167.5C 100.751,163.264 101.585,158.931 102.5,154.5C 97.4946,154.11 92.9946,152.444 89,149.5C 88.3162,148.216 88.4829,147.049 89.5,146C 86.495,144.83 83.495,143.664 80.5,142.5C 79.8333,142.667 79.1667,142.833 78.5,143C 80.3049,143.972 81.9716,145.139 83.5,146.5C 82.8333,146.833 82.1667,147.167 81.5,147.5C 78.9486,146.641 76.4486,145.641 74,144.5C 72.437,145.102 72.6037,145.935 74.5,147C 69.1589,146.863 64.1589,148.03 59.5,150.5C 58.0996,148.218 58.7663,146.718 61.5,146C 59.6874,146.046 58.0207,145.88 56.5,145.5C 57.714,143.931 59.3807,143.098 61.5,143C 59.3215,142.558 58.6548,141.558 59.5,140C 62.1645,140.48 64.8312,141.313 67.5,142.5C 71.3943,141.257 75.061,139.59 78.5,137.5C 80.4147,137.784 82.0813,137.451 83.5,136.5C 85.1789,136.108 86.8455,135.608 88.5,135C 89.4506,134.282 89.6172,133.449 89,132.5C 86.7787,133.406 84.6121,134.406 82.5,135.5C 81.5084,135.672 80.8417,135.338 80.5,134.5C 80.4142,133.504 80.7476,132.671 81.5,132C 84.4167,130.472 87.4167,129.139 90.5,128C 88.8333,127.667 87.1667,127.333 85.5,127C 85.8333,126.667 86.1667,126.333 86.5,126C 89.6014,125.145 92.2681,123.645 94.5,121.5C 92.939,120.653 91.439,120.986 90,122.5C 88.9783,121.646 88.1449,120.646 87.5,119.5C 89.7427,118.526 92.076,118.192 94.5,118.5C 94.7135,116.856 94.3802,115.356 93.5,114C 90.4686,113.505 87.4686,113.671 84.5,114.5C 84.0773,112.219 84.744,110.552 86.5,109.5C 89.5719,109.817 92.5719,109.484 95.5,108.5C 93.604,107.534 91.604,107.201 89.5,107.5C 91.9958,105.676 94.9958,104.676 98.5,104.5C 101.145,105.108 103.812,105.608 106.5,106C 105.833,106.667 105.167,107.333 104.5,108C 107.043,108.14 109.377,108.806 111.5,110C 109.744,110.202 108.078,110.702 106.5,111.5C 109.003,110.972 111.169,111.972 113,114.5C 113.967,118.933 113.134,119.433 110.5,116C 109.365,115.251 108.365,115.417 107.5,116.5C 111.839,118.798 113.506,122.131 112.5,126.5C 111.376,125.086 110.376,123.586 109.5,122C 105.825,121.405 105.658,122.238 109,124.5C 109.246,127.89 109.746,131.223 110.5,134.5C 110.154,135.696 109.654,135.696 109,134.5C 108.527,132.221 107.527,130.221 106,128.5C 104.715,132.172 104.548,135.839 105.5,139.5C 106.192,138.975 106.692,138.308 107,137.5C 106.757,145.469 109.591,151.969 115.5,157C 120.141,158.651 122.807,157.151 123.5,152.5C 121.288,146.406 118.788,140.406 116,134.5C 114.864,126.93 118.031,122.43 125.5,121C 129.394,120.301 132.394,120.801 134.5,122.5 Z"/></g>
<g><path style="opacity:1" fill="#367542" d="M 101.5,132.5 C 102.613,133.946 102.78,135.613 102,137.5C 99.441,138.98 96.7743,140.313 94,141.5C 93.3333,140.833 93.3333,140.167 94,139.5C 97.6763,138.321 100.176,135.987 101.5,132.5 Z"/></g>
<g><path style="opacity:1" fill="#2c7243" d="M 95.5,131.5 C 96.8866,133.489 96.5532,135.322 94.5,137C 91.5698,138.318 88.5698,138.985 85.5,139C 89.0804,136.723 92.4137,134.223 95.5,131.5 Z"/></g>
<g><path style="opacity:1" fill="#b5cfc2" d="M 0.5,142.5 C 14.5,142.5 28.5,142.5 42.5,142.5C 42.5,145.167 42.5,147.833 42.5,150.5C 41.5318,148.393 41.1984,146.059 41.5,143.5C 27.6565,143.829 13.9898,143.496 0.5,142.5 Z"/></g>
<g><path style="opacity:1" fill="#fdfdfd" d="M -0.5,142.5 C -0.166667,142.5 0.166667,142.5 0.5,142.5C 13.9898,143.496 27.6565,143.829 41.5,143.5C 41.1984,146.059 41.5318,148.393 42.5,150.5C 42.5,152.5 42.5,154.5 42.5,156.5C 28.8171,156.167 15.1504,156.501 1.5,157.5C 2.38176,160.791 3.04843,164.124 3.5,167.5C 17.7952,169.483 32.4619,170.15 47.5,169.5C 48.9461,173.726 50.9461,177.726 53.5,181.5C 38.8333,182.167 24.1667,182.833 9.5,183.5C 21.3303,211.498 40.6636,232.665 67.5,247C 76.3508,251.763 85.3508,255.929 94.5,259.5C 62.8333,259.5 31.1667,259.5 -0.5,259.5C -0.5,220.5 -0.5,181.5 -0.5,142.5 Z"/></g>
<g><path style="opacity:1" fill="#2a7244" d="M 86.5,142.5 C 88.7949,141.072 90.7949,141.572 92.5,144C 90.3049,144.409 88.3049,143.909 86.5,142.5 Z"/></g>
<g><path style="opacity:1" fill="#fcfdfc" d="M 193.5,142.5 C 193.5,181.5 193.5,220.5 193.5,259.5C 161.5,259.5 129.5,259.5 97.5,259.5C 131.803,248.029 158.636,227.029 178,196.5C 180.311,192.046 182.478,187.546 184.5,183C 169.489,182.833 154.489,182.333 139.5,181.5C 140.763,179.971 141.763,178.305 142.5,176.5C 143.487,174.527 144.487,172.527 145.5,170.5C 160.152,169.501 174.818,169.167 189.5,169.5C 189.687,165.087 190.354,160.754 191.5,156.5C 177.833,156.5 164.167,156.5 150.5,156.5C 150.437,151.797 150.771,147.13 151.5,142.5C 165.5,142.5 179.5,142.5 193.5,142.5 Z"/></g>
<g><path style="opacity:1" fill="#2f6e44" d="M 96.5,147.5 C 97.8734,147.343 99.2068,147.51 100.5,148C 97.9699,149.422 95.3033,149.755 92.5,149C 94.0581,148.79 95.3915,148.29 96.5,147.5 Z"/></g>
<g><path style="opacity:1" fill="#4f7c40" d="M 95.5,151.5 C 97.9664,150.366 100.633,150.199 103.5,151C 100.954,152.812 98.2877,152.978 95.5,151.5 Z"/></g>
<g><path style="opacity:1" fill="#e6b62d" d="M 85.5,154.5 C 88.5184,154.335 91.5184,154.502 94.5,155C 87.7638,158.543 87.9304,159.043 95,156.5C 96.5,157.5 98,158.5 99.5,159.5C 97.7298,162.193 97.0632,165.193 97.5,168.5C 95.1432,168.337 92.8098,168.503 90.5,169C 91.5505,170.385 92.8839,171.385 94.5,172C 93.737,172.944 92.737,173.444 91.5,173.5C 88.9719,172.058 86.3053,171.558 83.5,172C 84.1667,172.667 84.8333,173.333 85.5,174C 81.1744,172.555 77.5078,173.555 74.5,177C 72.7412,177.798 71.0745,177.631 69.5,176.5C 71.9762,173.147 71.4762,172.814 68,175.5C 67.5584,172.26 69.0584,170.427 72.5,170C 71.5,169.667 70.5,169.333 69.5,169C 69.8333,168.667 70.1667,168.333 70.5,168C 73.5081,168.132 76.5081,168.632 79.5,169.5C 81.6934,169.674 83.5267,169.007 85,167.5C 85.3431,164.676 84.8431,162.009 83.5,159.5C 83.4365,157.486 84.1032,155.819 85.5,154.5 Z"/></g>
<g><path style="opacity:1" fill="#327343" d="M 102.5,161.5 C 103.647,164.728 104.48,168.061 105,171.5C 102.836,168.553 102.002,165.219 102.5,161.5 Z"/></g>
<g><path style="opacity:1" fill="#84a793" d="M 3.5,167.5 C 18.0884,168.483 32.755,168.816 47.5,168.5C 47.5,168.833 47.5,169.167 47.5,169.5C 32.4619,170.15 17.7952,169.483 3.5,167.5 Z"/></g>
<g><path style="opacity:1" fill="#1b6f46" d="M 47.5,164.5 C 57.0457,186.706 73.379,201.706 96.5,209.5C 115.96,203.352 130.96,191.686 141.5,174.5C 141.328,175.492 141.662,176.158 142.5,176.5C 141.763,178.305 140.763,179.971 139.5,181.5C 154.489,182.333 169.489,182.833 184.5,183C 182.478,187.546 180.311,192.046 178,196.5C 158.636,227.029 131.803,248.029 97.5,259.5C 96.5,259.5 95.5,259.5 94.5,259.5C 85.3508,255.929 76.3508,251.763 67.5,247C 40.6636,232.665 21.3303,211.498 9.5,183.5C 24.1667,182.833 38.8333,182.167 53.5,181.5C 50.9461,177.726 48.9461,173.726 47.5,169.5C 47.5,169.167 47.5,168.833 47.5,168.5C 47.5,167.167 47.5,165.833 47.5,164.5 Z"/></g>
<g><path style="opacity:1" fill="#edf3f0" d="M 37.5,195.5 C 41.302,196.779 44.4687,199.112 47,202.5C 47.9931,208.502 45.4931,210.668 39.5,209C 37.0812,204.838 34.5812,204.671 32,208.5C 30.3221,207.534 29.6554,206.201 30,204.5C 32.5081,201.469 35.0081,198.469 37.5,195.5 Z"/></g>
<g><path style="opacity:1" fill="#ecf2ef" d="M 151.5,196.5 C 154.48,199.144 157.48,201.811 160.5,204.5C 162.483,203.018 164.316,201.351 166,199.5C 166.87,200.108 167.37,200.941 167.5,202C 164.688,204.812 161.855,207.645 159,210.5C 155.273,207.276 152.106,203.609 149.5,199.5C 150.193,198.482 150.859,197.482 151.5,196.5 Z"/></g>
<g><path style="opacity:1" fill="#1a6e44" d="M 39.5,200.5 C 41.7593,201.344 42.7593,203.011 42.5,205.5C 38.1426,205.222 37.1426,203.555 39.5,200.5 Z"/></g>
<g><path style="opacity:1" fill="#edf3f0" d="M 142.5,203.5 C 147.282,206.399 151.949,209.566 156.5,213C 155.034,213.635 153.7,214.469 152.5,215.5C 149.805,213.057 147.305,213.39 145,216.5C 144.878,220.095 143.044,221.761 139.5,221.5C 139.334,216.156 139.501,210.823 140,205.5C 140.995,204.934 141.828,204.267 142.5,203.5 Z"/></g>
<g><path style="opacity:1" fill="#f0f5f2" d="M 49.5,206.5 C 56.5148,206 61.1814,209 63.5,215.5C 58.952,225.158 53.1187,225.825 46,217.5C 44.6624,212.96 45.8291,209.293 49.5,206.5 Z"/></g>
<g><path style="opacity:1" fill="#1c6f46" d="M 51.5,210.5 C 58.2248,210.204 59.8915,212.871 56.5,218.5C 49.8508,219.221 48.1841,216.555 51.5,210.5 Z"/></g>
<g><path style="opacity:1" fill="#e8f0ec" d="M 125.5,211.5 C 128.448,211.223 131.281,211.556 134,212.5C 134.167,212.833 134.333,213.167 134.5,213.5C 131.503,214.248 128.503,214.915 125.5,215.5C 122.9,218.041 122.9,220.541 125.5,223C 127.81,223.497 130.143,223.663 132.5,223.5C 132.5,222.5 132.5,221.5 132.5,220.5C 131.022,220.762 129.689,220.429 128.5,219.5C 133.241,214.752 136.241,215.752 137.5,222.5C 133.496,225.999 128.83,227.499 123.5,227C 119.443,225.053 117.943,221.886 119,217.5C 120.494,214.686 122.66,212.686 125.5,211.5 Z"/></g>
<g><path style="opacity:1" fill="#2a754d" d="M 143.5,209.5 C 147.094,210.561 147.26,211.895 144,213.5C 143.51,212.207 143.343,210.873 143.5,209.5 Z"/></g>
<g><path style="opacity:1" fill="#ecf2ef" d="M 66.5,212.5 C 71.7139,213.065 76.2139,215.065 80,218.5C 81.5253,217.28 83.3587,216.613 85.5,216.5C 89.1625,216.944 92.8292,217.278 96.5,217.5C 96.5,218.5 96.5,219.5 96.5,220.5C 94.5,220.5 92.5,220.5 90.5,220.5C 90.5,224.167 90.5,227.833 90.5,231.5C 88.8333,231.5 87.1667,231.5 85.5,231.5C 85.5045,227.466 85.8379,223.466 86.5,219.5C 84.4727,219.338 82.4727,219.505 80.5,220C 79.4206,222.043 77.754,223.376 75.5,224C 76.6919,225.912 77.6919,227.912 78.5,230C 76.765,230.651 75.0983,230.485 73.5,229.5C 72.8431,225.854 70.8431,223.52 67.5,222.5C 67.5,224.167 67.5,225.833 67.5,227.5C 65.5165,227.617 63.8498,226.95 62.5,225.5C 63.683,221.096 65.0164,216.763 66.5,212.5 Z"/></g>
<g><path style="opacity:1" fill="#e6eeea" d="M 110.5,215.5 C 112.144,215.286 113.644,215.62 115,216.5C 118.298,228.141 114.132,232.974 102.5,231C 101.667,230.167 100.833,229.333 100,228.5C 98.9847,224.56 98.4847,220.56 98.5,216.5C 100.167,216.5 101.833,216.5 103.5,216.5C 103.833,220.5 104.167,224.5 104.5,228.5C 106.467,228.739 108.301,228.406 110,227.5C 110.499,223.514 110.666,219.514 110.5,215.5 Z"/></g>
<g><path style="opacity:1" fill="#217047" d="M 69.5,216.5 C 72.5876,216.197 74.2542,217.53 74.5,220.5C 71.0504,221.244 69.3838,219.91 69.5,216.5 Z"/></g>
</svg>
