<?xml version="1.0" encoding="UTF-8"?>
<!DOCTYPE svg PUBLIC "-//W3C//DTD SVG 1.1//EN" "http://www.w3.org/Graphics/SVG/1.1/DTD/svg11.dtd">
<svg xmlns="http://www.w3.org/2000/svg" version="1.1" width="300px" height="405px" style="shape-rendering:geometricPrecision; text-rendering:geometricPrecision; image-rendering:optimizeQuality; fill-rule:evenodd; clip-rule:evenodd" xmlns:xlink="http://www.w3.org/1999/xlink">
<g><path style="opacity:0.907" fill="#040404" d="M 19.5,10.5 C 107.833,10.5 196.167,10.5 284.5,10.5C 284.667,77.5008 284.5,144.501 284,211.5C 274.875,298.398 231.041,360.398 152.5,397.5C 72.818,360.606 28.6513,298.272 20,210.5C 19.5,143.834 19.3333,77.1675 19.5,10.5 Z"/></g>
<g><path style="opacity:1" fill="#a4a4a4" d="M 279.5,200.5 C 279.5,138.833 279.5,77.1667 279.5,15.5C 194.5,15.5 109.5,15.5 24.5,15.5C 24.5,77.1667 24.5,138.833 24.5,200.5C 23.5009,138.669 23.1676,76.6689 23.5,14.5C 109.167,14.5 194.833,14.5 280.5,14.5C 280.832,76.6689 280.499,138.669 279.5,200.5 Z"/></g>
<g><path style="opacity:1" fill="#f4f4f4" d="M 279.5,200.5 C 274.703,289.814 232.203,353.814 152,392.5C 71.8967,353.826 29.3967,289.826 24.5,200.5C 24.5,138.833 24.5,77.1667 24.5,15.5C 109.5,15.5 194.5,15.5 279.5,15.5C 279.5,77.1667 279.5,138.833 279.5,200.5 Z"/></g>
<g><path style="opacity:1" fill="#080808" d="M 32.5,23.5 C 112.167,23.5 191.833,23.5 271.5,23.5C 271.667,85.5009 271.5,147.501 271,209.5C 263.235,289.554 223.569,347.554 152,383.5C 80.0078,347.451 40.3412,289.117 33,208.5C 32.5,146.834 32.3333,85.1676 32.5,23.5 Z"/></g>
<g><path style="opacity:1" fill="#f7f7f7" d="M 166.5,73.5 C 165.833,73.5 165.5,73.8333 165.5,74.5C 161.961,70.4641 157.628,69.4641 152.5,71.5C 140.856,65.6847 128.856,60.3514 116.5,55.5C 116.218,52.9433 116.051,50.2766 116,47.5C 111.5,43 107,38.5 102.5,34C 100.975,32.9914 99.3084,32.4914 97.5,32.5C 87.3258,31.1768 76.9925,31.1768 66.5,32.5C 66.6236,33.1067 66.9569,33.44 67.5,33.5C 87.6311,52.463 107.631,71.6297 127.5,91C 130.687,92.9005 133.187,92.0672 135,88.5C 135.667,87.8333 135.667,87.1667 135,86.5C 127.303,78.4689 119.303,70.8022 111,63.5C 110.312,62.6683 110.479,62.0016 111.5,61.5C 123.043,66.5678 134.71,71.2345 146.5,75.5C 146.74,77.5918 145.906,79.5918 144,81.5C 143.503,83.8098 143.337,86.1432 143.5,88.5C 143.658,91.9023 143.324,95.2356 142.5,98.5C 141.833,98.5 141.5,98.8333 141.5,99.5C 141.151,96.3583 140.984,93.025 141,89.5C 106.696,125.471 72.0298,161.138 37,196.5C 36.5,140.168 36.3333,83.8343 36.5,27.5C 91.1677,27.3333 145.834,27.5 200.5,28C 187.863,41.6378 174.863,54.9712 161.5,68C 163.373,69.7038 165.04,71.5372 166.5,73.5 Z"/></g>
<g><path style="opacity:1" fill="#878787" d="M 97.5,32.5 C 87.3194,32.1726 77.3194,32.506 67.5,33.5C 66.9569,33.44 66.6236,33.1067 66.5,32.5C 76.9925,31.1768 87.3258,31.1768 97.5,32.5 Z"/></g>
<g><path style="opacity:1" fill="#868686" d="M 188.5,33.5 C 171.5,32.1667 154.5,32.1667 137.5,33.5C 136.957,33.44 136.624,33.1067 136.5,32.5C 154.167,31.1667 171.833,31.1667 189.5,32.5C 189.376,33.1067 189.043,33.44 188.5,33.5 Z"/></g>
<g><path style="opacity:1" fill="#7d7d7d" d="M 53.5,32.5 C 49.5,32.5 45.5,32.5 41.5,32.5C 41.5,40.8333 41.5,49.1667 41.5,57.5C 40.507,49.0161 40.1736,40.3494 40.5,31.5C 45.0323,31.1818 49.3656,31.5151 53.5,32.5 Z"/></g>
<g><path style="opacity:1" fill="#090909" d="M 53.5,32.5 C 77.1,53.9305 100.267,75.9305 123,98.5C 123.667,99.5 123.667,100.5 123,101.5C 117.333,107.167 111.667,112.833 106,118.5C 84.3021,98.3001 62.8021,77.9668 41.5,57.5C 41.5,49.1667 41.5,40.8333 41.5,32.5C 45.5,32.5 49.5,32.5 53.5,32.5 Z"/></g>
<g><path style="opacity:1" fill="#070707" d="M 67.5,33.5 C 77.3194,32.506 87.3194,32.1726 97.5,32.5C 99.3084,32.4914 100.975,32.9914 102.5,34C 107,38.5 111.5,43 116,47.5C 116.051,50.2766 116.218,52.9433 116.5,55.5C 128.856,60.3514 140.856,65.6847 152.5,71.5C 149.902,72.5278 149.902,73.5278 152.5,74.5C 150.938,74.7329 149.605,75.3995 148.5,76.5C 148.158,75.6618 147.492,75.3284 146.5,75.5C 134.71,71.2345 123.043,66.5678 111.5,61.5C 110.479,62.0016 110.312,62.6683 111,63.5C 119.303,70.8022 127.303,78.4689 135,86.5C 135.667,87.1667 135.667,87.8333 135,88.5C 133.187,92.0672 130.687,92.9005 127.5,91C 107.631,71.6297 87.6311,52.463 67.5,33.5 Z"/></g>
<g><path style="opacity:1" fill="#0b0b0b" d="M 115.5,33.5 C 119.311,32.3547 123.311,32.1881 127.5,33C 137.971,42.4698 148.137,52.3031 158,62.5C 158.167,66.3333 156.333,68.1667 152.5,68C 140.297,56.2948 127.964,44.7948 115.5,33.5 Z"/></g>
<g><path style="opacity:1" fill="#040404" d="M 188.5,33.5 C 185.068,38.8839 180.068,41.0506 173.5,40C 170.5,43 167.5,46 164.5,49C 169.826,52.5726 169.493,55.7393 163.5,58.5C 154.786,50.1177 146.12,41.7843 137.5,33.5C 154.5,32.1667 171.5,32.1667 188.5,33.5 Z"/></g>
<g><path style="opacity:1" fill="#f7f7f7" d="M 47.5,37.5 C 69.1617,58.3279 90.9951,78.9945 113,99.5C 113.667,100.167 113.667,100.833 113,101.5C 110.906,104.315 108.406,106.148 105.5,107C 86.429,88.7178 67.2623,70.5511 48,52.5C 47.5007,47.5111 47.3341,42.5111 47.5,37.5 Z"/></g>
<g><path style="opacity:1" fill="#7d7d7d" d="M 96.5,40.5 C 93.6146,40.1936 90.9479,40.5269 88.5,41.5C 87.9569,41.44 87.6236,41.1067 87.5,40.5C 90.6447,39.1968 93.6447,39.1968 96.5,40.5 Z"/></g>
<g><path style="opacity:1" fill="#f5f5f5" d="M 96.5,40.5 C 100.569,42.2992 104.069,44.9658 107,48.5C 107.896,51.7921 106.729,54.1255 103.5,55.5C 98.4536,50.7836 93.4536,46.1169 88.5,41.5C 90.9479,40.5269 93.6146,40.1936 96.5,40.5 Z"/></g>
<g><path style="opacity:1" fill="#cccccc" d="M 154.5,40.5 C 157.355,39.1968 160.355,39.1968 163.5,40.5C 162.5,42.1667 161.167,43.5 159.5,44.5C 157.814,43.1431 156.148,41.8098 154.5,40.5 Z"/></g>
<g><path style="opacity:1" fill="#ededed" d="M 190.5,49.5 C 191.966,50.347 192.8,51.6803 193,53.5C 193.044,84.832 192.711,116.165 192,147.5C 191.5,148 191,148.5 190.5,149C 196.665,148.989 198.665,151.823 196.5,157.5C 194.979,156.063 193.145,155.396 191,155.5C 187.005,156.394 183.172,156.394 179.5,155.5C 181.032,152.25 182.866,151.916 185,154.5C 185.197,152.139 186.364,150.472 188.5,149.5C 186.032,147.063 185.032,144.063 185.5,140.5C 186.55,112.176 187.383,83.8426 188,55.5C 188.236,53.1887 189.069,51.1887 190.5,49.5 Z"/></g>
<g><path style="opacity:1" fill="#787878" d="M 42.5,65.5 C 41.5056,75.9869 41.1722,86.6536 41.5,97.5C 40.1762,86.6596 40.1762,75.6596 41.5,64.5C 42.1067,64.6236 42.44,64.9569 42.5,65.5 Z"/></g>
<g><path style="opacity:1" fill="#080808" d="M 42.5,65.5 C 43.7927,67.2959 45.2927,68.9625 47,70.5C 47.3333,74.1667 47.6667,77.8333 48,81.5C 64.3453,97.0125 80.512,112.679 96.5,128.5C 95.101,131.099 93.101,132.599 90.5,133C 76.2382,119.949 62.0715,106.783 48,93.5C 47.8214,96.5535 47.3214,99.5535 46.5,102.5C 44.4788,101.145 42.8121,99.4788 41.5,97.5C 41.1722,86.6536 41.5056,75.9869 42.5,65.5 Z"/></g>
<g><path style="opacity:1" fill="#1e1e1e" d="M 165.5,74.5 C 167.604,78.5792 168.937,82.9125 169.5,87.5C 168.839,88.7175 168.172,90.0508 167.5,91.5C 166.893,91.3764 166.56,91.0431 166.5,90.5C 167.598,89.3991 167.765,88.0657 167,86.5C 164.412,82.7901 160.912,80.4568 156.5,79.5C 155.614,80.325 155.281,81.325 155.5,82.5C 154.833,82.5 154.167,82.5 153.5,82.5C 153.443,77.3183 152.776,77.3183 151.5,82.5C 150.516,85.4281 150.183,88.4281 150.5,91.5C 149.833,91.1667 149.167,90.8333 148.5,90.5C 148.5,89.5 148.5,88.5 148.5,87.5C 146.901,87.2322 145.568,87.5655 144.5,88.5C 144.167,88.5 143.833,88.5 143.5,88.5C 143.337,86.1432 143.503,83.8098 144,81.5C 145.906,79.5918 146.74,77.5918 146.5,75.5C 147.492,75.3284 148.158,75.6618 148.5,76.5C 148.369,77.3764 148.702,78.0431 149.5,78.5C 151.288,77.7174 152.288,76.3841 152.5,74.5C 149.902,73.5278 149.902,72.5278 152.5,71.5C 157.628,69.4641 161.961,70.4641 165.5,74.5 Z"/></g>
<g><path style="opacity:1" fill="#ececec" d="M 158.5,72.5 C 163.845,73.6469 166.012,76.9803 165,82.5C 162.603,80.2177 159.769,78.8844 156.5,78.5C 156.704,76.3146 157.37,74.3146 158.5,72.5 Z"/></g>
<g><path style="opacity:1" fill="#b2b2b2" d="M 155.5,72.5 C 157.657,73.0533 157.49,74.0533 155,75.5C 154.53,74.4232 154.697,73.4232 155.5,72.5 Z"/></g>
<g><path style="opacity:1" fill="#cbcbcb" d="M 152.5,74.5 C 152.288,76.3841 151.288,77.7174 149.5,78.5C 148.702,78.0431 148.369,77.3764 148.5,76.5C 149.605,75.3995 150.938,74.7329 152.5,74.5 Z"/></g>
<g><path style="opacity:1" fill="#c5c5c5" d="M 146.5,80.5 C 147.5,80.5 148.5,80.5 149.5,80.5C 149.55,82.5901 148.55,83.9234 146.5,84.5C 145.374,83.1916 145.374,81.8583 146.5,80.5 Z"/></g>
<g><path style="opacity:1" fill="#e3e3e3" d="M 153.5,82.5 C 153.868,86.0443 152.868,89.0443 150.5,91.5C 150.183,88.4281 150.516,85.4281 151.5,82.5C 152.776,77.3183 153.443,77.3183 153.5,82.5 Z"/></g>
<g><path style="opacity:1" fill="#ececec" d="M 148.5,90.5 C 148.288,92.3841 147.288,93.7174 145.5,94.5C 144.534,92.604 144.201,90.604 144.5,88.5C 145.568,87.5655 146.901,87.2322 148.5,87.5C 148.5,88.5 148.5,89.5 148.5,90.5 Z"/></g>
<g><path style="opacity:1" fill="#f0f0f0" d="M 159.5,86.5 C 160.88,86.9623 161.547,87.9623 161.5,89.5C 160.241,98.2785 157.575,98.7785 153.5,91C 153.735,90.1268 154.069,89.2935 154.5,88.5C 156.291,87.8302 157.958,87.1635 159.5,86.5 Z"/></g>
<g><path style="opacity:1" fill="#dfdfdf" d="M 166.5,90.5 C 163.684,86.5985 160.017,83.9319 155.5,82.5C 155.281,81.325 155.614,80.325 156.5,79.5C 160.912,80.4568 164.412,82.7901 167,86.5C 167.765,88.0657 167.598,89.3991 166.5,90.5 Z"/></g>
<g><path style="opacity:1" fill="#d7d7d7" d="M 151.5,93.5 C 153.564,93.7619 154.897,94.9286 155.5,97C 153.159,97.1681 151.826,96.0014 151.5,93.5 Z"/></g>
<g><path style="opacity:1" fill="#c3c3c3" d="M 147.5,94.5 C 149.629,95.1003 149.462,96.1003 147,97.5C 146.5,97.1667 146,96.8333 145.5,96.5C 146.243,95.8182 146.909,95.1515 147.5,94.5 Z"/></g>
<g><path style="opacity:1" fill="#575757" d="M 266.5,98.5 C 266.56,97.9569 266.893,97.6236 267.5,97.5C 268.83,131.998 268.83,166.331 267.5,200.5C 267.832,166.329 267.498,132.329 266.5,98.5 Z"/></g>
<g><path style="opacity:1" fill="#e2e2e2" d="M 146.5,101.5 C 146.685,99.1104 148.018,98.1104 150.5,98.5C 157.004,99.8626 157.004,101.529 150.5,103.5C 148.927,103.248 147.594,102.582 146.5,101.5 Z"/></g>
<g><path style="opacity:1" fill="#fafafa" d="M 266.5,98.5 C 267.498,132.329 267.832,166.329 267.5,200.5C 266.01,246.48 251.177,287.48 223,323.5C 221.829,325.616 220.329,326.282 218.5,325.5C 217.098,321.461 215.598,317.461 214,313.5C 211.931,312.736 209.764,312.236 207.5,312C 205.735,308.86 204.068,305.694 202.5,302.5C 195.865,301.477 189.199,300.81 182.5,300.5C 186.882,281.926 190.882,263.259 194.5,244.5C 195.404,243.791 195.737,242.791 195.5,241.5C 196.354,235.188 197.021,228.855 197.5,222.5C 198.434,221.432 198.768,220.099 198.5,218.5C 197.796,214.197 199.13,210.697 202.5,208C 201.619,207.292 200.953,206.458 200.5,205.5C 200.5,198.833 200.5,192.167 200.5,185.5C 201.833,174.833 201.833,164.167 200.5,153.5C 198.664,150.832 196.331,148.666 193.5,147C 195.289,146.48 196.956,146.813 198.5,148C 202.998,152.021 204.832,157.188 204,163.5C 225.037,141.964 245.87,120.298 266.5,98.5 Z"/></g>
<g><path style="opacity:1" fill="#777777" d="M 42.5,106.5 C 41.5184,109.962 41.185,113.629 41.5,117.5C 40.1905,113.649 40.1905,109.649 41.5,105.5C 42.1067,105.624 42.44,105.957 42.5,106.5 Z"/></g>
<g><path style="opacity:1" fill="#0a0a0a" d="M 42.5,106.5 C 55.8512,118.532 68.8512,131.032 81.5,144C 79.5985,146.613 77.2652,148.28 74.5,149C 63.9339,137.931 52.9339,127.431 41.5,117.5C 41.185,113.629 41.5184,109.962 42.5,106.5 Z"/></g>
<g><path style="opacity:1" fill="#cbcbcb" d="M 138.5,111.5 C 141.356,110.102 144.022,110.602 146.5,113C 143.78,113.045 141.114,112.545 138.5,111.5 Z"/></g>
<g><path style="opacity:1" fill="#b5b5b5" d="M 156.5,111.5 C 158.337,111.639 158.67,112.306 157.5,113.5C 156.702,113.043 156.369,112.376 156.5,111.5 Z"/></g>
<g><path style="opacity:1" fill="#dddddd" d="M 166.5,73.5 C 172.467,82.126 172.967,91.126 168,100.5C 167.333,103.5 167.333,106.5 168,109.5C 171.667,113.833 175.333,118.167 179,122.5C 182.082,125.979 183.415,129.979 183,134.5C 181.333,131.167 179.667,127.833 178,124.5C 173.288,119.457 168.955,114.123 165,108.5C 164.604,103.085 165.938,98.0852 169,93.5C 169.495,91.5273 169.662,89.5273 169.5,87.5C 168.937,82.9125 167.604,78.5792 165.5,74.5C 165.5,73.8333 165.833,73.5 166.5,73.5 Z"/></g>
<g><path style="opacity:1" fill="#888888" d="M 130.5,113.5 C 132.337,113.639 132.67,114.306 131.5,115.5C 130.702,115.043 130.369,114.376 130.5,113.5 Z"/></g>
<g><path style="opacity:1" fill="#dddddd" d="M 160.5,118.5 C 158.833,118.5 157.167,118.5 155.5,118.5C 152.525,118.287 149.858,117.287 147.5,115.5C 151.487,114.992 155.487,115.492 159.5,117C 160.056,117.383 160.389,117.883 160.5,118.5 Z"/></g>
<g><path style="opacity:1" fill="#d6d6d6" d="M 164.5,115.5 C 165.978,115.238 167.311,115.571 168.5,116.5C 170.778,118.495 172.278,120.829 173,123.5C 170.084,121.959 167.251,120.293 164.5,118.5C 163.438,117.575 163.438,116.575 164.5,115.5 Z"/></g>
<g><path style="opacity:1" fill="#c8c8c8" d="M 137.5,116.5 C 139.973,116.947 140.14,117.947 138,119.5C 137.517,118.552 137.351,117.552 137.5,116.5 Z"/></g>
<g><path style="opacity:1" fill="#949494" d="M 143.5,116.5 C 148.063,117.047 148.396,118.214 144.5,120C 145.654,120.914 145.487,121.747 144,122.5C 143.56,120.924 142.727,119.59 141.5,118.5C 141.846,117.304 142.346,117.304 143,118.5C 143.464,117.906 143.631,117.239 143.5,116.5 Z"/></g>
<g><path style="opacity:1" fill="#747474" d="M 155.5,118.5 C 157.167,118.5 158.833,118.5 160.5,118.5C 158.769,119.207 157.103,120.207 155.5,121.5C 154.438,120.575 154.438,119.575 155.5,118.5 Z"/></g>
<g><path style="opacity:1" fill="#adadad" d="M 135.5,121.5 C 136.077,120.227 136.743,120.227 137.5,121.5C 137.03,122.463 136.363,122.463 135.5,121.5 Z"/></g>
<g><path style="opacity:1" fill="#e2e2e2" d="M 146.5,120.5 C 148.337,120.639 148.67,121.306 147.5,122.5C 146.702,122.043 146.369,121.376 146.5,120.5 Z"/></g>
<g><path style="opacity:1" fill="#cccccc" d="M 131.5,120.5 C 133.337,120.639 133.67,121.306 132.5,122.5C 131.702,122.043 131.369,121.376 131.5,120.5 Z"/></g>
<g><path style="opacity:1" fill="#8f8f8f" d="M 127.5,120.5 C 130.012,121.216 130.012,122.216 127.5,123.5C 126.438,122.575 126.438,121.575 127.5,120.5 Z"/></g>
<g><path style="opacity:1" fill="#989898" d="M 138.5,123.5 C 139.497,122.287 140.497,122.454 141.5,124C 140.423,124.47 139.423,124.303 138.5,123.5 Z"/></g>
<g><path style="opacity:1" fill="#b1b1b1" d="M 152.5,121.5 C 153.776,122.386 153.776,123.386 152.5,124.5C 151.438,123.575 151.438,122.575 152.5,121.5 Z"/></g>
<g><path style="opacity:1" fill="#e5e5e5" d="M 148.5,125.5 C 149.077,124.227 149.743,124.227 150.5,125.5C 150.03,126.463 149.363,126.463 148.5,125.5 Z"/></g>
<g><path style="opacity:1" fill="#c2c2c2" d="M 156.5,124.5 C 157.386,123.224 158.386,123.224 159.5,124.5C 158.575,125.562 157.575,125.562 156.5,124.5 Z"/></g>
<g><path style="opacity:1" fill="#787878" d="M 42.5,126.5 C 41.5233,129.287 41.19,132.287 41.5,135.5C 40.1944,132.313 40.1944,128.98 41.5,125.5C 42.1067,125.624 42.44,125.957 42.5,126.5 Z"/></g>
<g><path style="opacity:1" fill="#0a0a0a" d="M 42.5,126.5 C 51.995,135.828 61.6617,144.994 71.5,154C 61.7983,156.734 52.1317,159.567 42.5,162.5C 41.52,159.914 41.1866,157.247 41.5,154.5C 46.6525,153.671 51.6525,152.337 56.5,150.5C 51.2731,145.721 46.2731,140.721 41.5,135.5C 41.19,132.287 41.5233,129.287 42.5,126.5 Z"/></g>
<g><path style="opacity:1" fill="#efefef" d="M 159.5,127.5 C 160.077,126.227 160.743,126.227 161.5,127.5C 161.03,128.463 160.363,128.463 159.5,127.5 Z"/></g>
<g><path style="opacity:1" fill="#a0a0a0" d="M 132.5,126.5 C 133.675,126.281 134.675,126.614 135.5,127.5C 133.948,128.798 132.948,128.465 132.5,126.5 Z"/></g>
<g><path style="opacity:1" fill="#dddddd" d="M 151.5,127.5 C 153.465,127.948 153.798,128.948 152.5,130.5C 151.614,129.675 151.281,128.675 151.5,127.5 Z"/></g>
<g><path style="opacity:1" fill="#adadad" d="M 155.5,126.5 C 157.337,126.639 157.67,127.306 156.5,128.5C 155.702,128.043 155.369,127.376 155.5,126.5 Z"/></g>
<g><path style="opacity:1" fill="#c3c3c3" d="M 165.5,126.5 C 166.376,126.369 167.043,126.702 167.5,127.5C 165.192,128.873 164.525,128.54 165.5,126.5 Z"/></g>
<g><path style="opacity:1" fill="#7e7e7e" d="M 129.5,127.5 C 131.337,127.639 131.67,128.306 130.5,129.5C 129.702,129.043 129.369,128.376 129.5,127.5 Z"/></g>
<g><path style="opacity:1" fill="#838383" d="M 136.5,128.5 C 138.337,128.639 138.67,129.306 137.5,130.5C 136.702,130.043 136.369,129.376 136.5,128.5 Z"/></g>
<g><path style="opacity:1" fill="#dddddd" d="M 167.5,129.5 C 169.337,129.639 169.67,130.306 168.5,131.5C 167.702,131.043 167.369,130.376 167.5,129.5 Z"/></g>
<g><path style="opacity:1" fill="#bdbdbd" d="M 140.5,130.5 C 143.001,130.511 143.168,131.178 141,132.5C 140.536,131.906 140.369,131.239 140.5,130.5 Z"/></g>
<g><path style="opacity:1" fill="#a6a6a6" d="M 171.5,129.5 C 173.337,129.639 173.67,130.306 172.5,131.5C 171.702,131.043 171.369,130.376 171.5,129.5 Z"/></g>
<g><path style="opacity:1" fill="#f3f3f3" d="M 144.5,131.5 C 145.552,131.351 146.552,131.517 147.5,132C 155.923,143.758 165.756,154.258 177,163.5C 177.617,164.449 177.451,165.282 176.5,166C 179.952,164.237 183.285,161.904 186.5,159C 189.462,158.91 191.796,160.243 193.5,163C 189.517,162.725 189.517,163.725 193.5,166C 192.167,166 190.833,166 189.5,166C 192.276,167.779 191.943,168.779 188.5,169C 189.579,169.956 190.745,170.789 192,171.5C 192.667,172.167 192.667,172.833 192,173.5C 190.426,172.152 188.593,171.486 186.5,171.5C 183.96,172.02 181.46,172.687 179,173.5C 168.816,168.322 158.982,162.489 149.5,156C 146.333,152.833 143.167,149.667 140,146.5C 138.097,144.559 137.264,142.226 137.5,139.5C 138.833,139.5 140.167,139.5 141.5,139.5C 141.016,136.212 142.016,133.545 144.5,131.5 Z"/></g>
<g><path style="opacity:1" fill="#d0d0d0" d="M 154.5,130.5 C 158.31,131.754 158.31,132.754 154.5,133.5C 154.5,132.5 154.5,131.5 154.5,130.5 Z"/></g>
<g><path style="opacity:1" fill="#181818" d="M 119.5,126.5 C 119.328,127.492 119.662,128.158 120.5,128.5C 118.983,134.781 117.649,141.114 116.5,147.5C 116.727,149.671 117.06,151.838 117.5,154C 116.692,154.308 116.025,154.808 115.5,155.5C 115.727,157.671 116.06,159.838 116.5,162C 115.5,163.667 114.5,165.333 113.5,167C 114.293,168.085 114.96,169.252 115.5,170.5C 115.154,171.696 114.654,171.696 114,170.5C 113.405,171.899 113.572,173.232 114.5,174.5C 112.078,176.048 112.078,177.714 114.5,179.5C 112.458,180.503 112.125,181.837 113.5,183.5C 111.355,184.682 111.355,186.182 113.5,188C 112.692,188.308 112.025,188.808 111.5,189.5C 112.167,190.5 112.833,191.5 113.5,192.5C 112.603,192.669 111.603,193.002 110.5,193.5C 112.475,195.545 112.475,197.212 110.5,198.5C 111.167,199.167 111.833,199.833 112.5,200.5C 111.603,200.669 110.603,201.002 109.5,201.5C 110.167,202.5 110.833,203.5 111.5,204.5C 110.833,204.833 110.167,205.167 109.5,205.5C 110.04,206.748 110.707,207.915 111.5,209C 110.551,209.617 109.718,209.451 109,208.5C 108.316,209.784 108.483,210.951 109.5,212C 108.692,212.308 108.025,212.808 107.5,213.5C 108.167,214.5 108.833,215.5 109.5,216.5C 108.603,216.669 107.603,217.002 106.5,217.5C 107.5,218.833 108.5,220.167 109.5,221.5C 108.603,221.669 107.603,222.002 106.5,222.5C 107.167,223.5 107.833,224.5 108.5,225.5C 108.154,226.696 107.654,226.696 107,225.5C 106.508,226.549 106.674,227.549 107.5,228.5C 105.078,230.048 105.078,231.714 107.5,233.5C 105.078,235.048 105.078,236.714 107.5,238.5C 106.559,238.489 105.892,238.989 105.5,240C 105.95,241.285 106.617,242.452 107.5,243.5C 106.833,243.833 106.167,244.167 105.5,244.5C 106.04,245.748 106.707,246.915 107.5,248C 106.833,248.333 106.167,248.667 105.5,249C 107.461,251.963 109.794,254.629 112.5,257C 113.332,257.688 113.998,257.521 114.5,256.5C 113.752,254.668 112.752,253.001 111.5,251.5C 112.167,250.833 112.833,250.167 113.5,249.5C 110.71,246.078 110.877,245.411 114,247.5C 114.24,245.023 113.406,242.856 111.5,241C 115.23,241.488 115.564,240.155 112.5,237C 115.003,235.451 115.003,233.784 112.5,232C 113.738,232.077 114.738,231.911 115.5,231.5C 114.376,230.086 113.376,228.586 112.5,227C 113.449,226.383 114.282,226.549 115,227.5C 115.684,226.216 115.517,225.049 114.5,224C 116.592,222.009 116.258,220.009 113.5,218C 117.23,218.488 117.564,217.155 114.5,214C 115.583,212.471 116.583,210.971 117.5,209.5C 116.833,208.5 116.167,207.5 115.5,206.5C 116.441,206.511 117.108,206.011 117.5,205C 116.167,203.333 116.167,201.667 117.5,200C 117.241,198.739 116.574,197.739 115.5,197C 116.5,196.667 117.5,196.333 118.5,196C 116.285,194.057 116.285,192.391 118.5,191C 115.956,189.437 115.956,187.937 118.5,186.5C 118.354,184.194 118.021,181.861 117.5,179.5C 119.645,178.318 119.645,176.818 117.5,175C 118.308,174.692 118.975,174.192 119.5,173.5C 119.167,171.5 118.833,169.5 118.5,167.5C 120.08,161.754 120.747,156.42 120.5,151.5C 121.451,152.919 121.784,154.585 121.5,156.5C 119.736,194.097 117.402,231.597 114.5,269C 114.41,271.744 115.077,274.244 116.5,276.5C 116.167,276.5 115.833,276.5 115.5,276.5C 113.953,278.968 112.62,281.635 111.5,284.5C 111.5,283.833 111.167,283.5 110.5,283.5C 111.111,276.502 111.778,269.502 112.5,262.5C 112.489,260.955 112.156,259.622 111.5,258.5C 108.488,255.983 105.988,252.983 104,249.5C 103.292,234.034 104.459,218.701 107.5,203.5C 105.941,199.382 105.275,195.048 105.5,190.5C 103.5,190.5 101.5,190.5 99.5,190.5C 100.295,186.524 100.962,182.524 101.5,178.5C 101.833,178.5 102.167,178.5 102.5,178.5C 103.183,180.176 104.517,180.843 106.5,180.5C 106.966,178.799 106.966,177.299 106.5,176C 108.481,175.395 108.815,174.395 107.5,173C 109.085,172.915 110.418,172.749 111.5,172.5C 107.845,170.897 107.845,169.063 111.5,167C 111.167,165.333 110.833,163.667 110.5,162C 112.569,161.676 112.902,160.842 111.5,159.5C 113.298,156.004 114.131,152.337 114,148.5C 113.623,149.942 112.79,150.942 111.5,151.5C 114.338,143.121 117.005,134.788 119.5,126.5 Z"/></g>
<g><path style="opacity:1" fill="#e8e8e8" d="M 116.5,276.5 C 115.077,274.244 114.41,271.744 114.5,269C 117.402,231.597 119.736,194.097 121.5,156.5C 122.468,154.393 122.802,152.059 122.5,149.5C 123.358,143.184 123.524,136.85 123,130.5C 121.836,136.772 121.003,143.106 120.5,149.5C 120.5,150.167 120.5,150.833 120.5,151.5C 120.747,156.42 120.08,161.754 118.5,167.5C 118.833,169.5 119.167,171.5 119.5,173.5C 118.975,174.192 118.308,174.692 117.5,175C 119.645,176.818 119.645,178.318 117.5,179.5C 118.021,181.861 118.354,184.194 118.5,186.5C 115.956,187.937 115.956,189.437 118.5,191C 116.285,192.391 116.285,194.057 118.5,196C 117.5,196.333 116.5,196.667 115.5,197C 116.574,197.739 117.241,198.739 117.5,200C 116.167,201.667 116.167,203.333 117.5,205C 117.108,206.011 116.441,206.511 115.5,206.5C 116.167,207.5 116.833,208.5 117.5,209.5C 116.583,210.971 115.583,212.471 114.5,214C 117.564,217.155 117.23,218.488 113.5,218C 116.258,220.009 116.592,222.009 114.5,224C 115.517,225.049 115.684,226.216 115,227.5C 114.282,226.549 113.449,226.383 112.5,227C 113.376,228.586 114.376,230.086 115.5,231.5C 114.738,231.911 113.738,232.077 112.5,232C 115.003,233.784 115.003,235.451 112.5,237C 115.564,240.155 115.23,241.488 111.5,241C 113.406,242.856 114.24,245.023 114,247.5C 110.877,245.411 110.71,246.078 113.5,249.5C 112.833,250.167 112.167,250.833 111.5,251.5C 112.752,253.001 113.752,254.668 114.5,256.5C 113.998,257.521 113.332,257.688 112.5,257C 109.794,254.629 107.461,251.963 105.5,249C 106.167,248.667 106.833,248.333 107.5,248C 106.707,246.915 106.04,245.748 105.5,244.5C 106.167,244.167 106.833,243.833 107.5,243.5C 106.617,242.452 105.95,241.285 105.5,240C 105.892,238.989 106.559,238.489 107.5,238.5C 105.078,236.714 105.078,235.048 107.5,233.5C 105.078,231.714 105.078,230.048 107.5,228.5C 106.674,227.549 106.508,226.549 107,225.5C 107.654,226.696 108.154,226.696 108.5,225.5C 107.833,224.5 107.167,223.5 106.5,222.5C 107.603,222.002 108.603,221.669 109.5,221.5C 108.5,220.167 107.5,218.833 106.5,217.5C 107.603,217.002 108.603,216.669 109.5,216.5C 108.833,215.5 108.167,214.5 107.5,213.5C 108.025,212.808 108.692,212.308 109.5,212C 108.483,210.951 108.316,209.784 109,208.5C 109.718,209.451 110.551,209.617 111.5,209C 110.707,207.915 110.04,206.748 109.5,205.5C 110.167,205.167 110.833,204.833 111.5,204.5C 110.833,203.5 110.167,202.5 109.5,201.5C 110.603,201.002 111.603,200.669 112.5,200.5C 111.833,199.833 111.167,199.167 110.5,198.5C 112.475,197.212 112.475,195.545 110.5,193.5C 111.603,193.002 112.603,192.669 113.5,192.5C 112.833,191.5 112.167,190.5 111.5,189.5C 112.025,188.808 112.692,188.308 113.5,188C 111.355,186.182 111.355,184.682 113.5,183.5C 112.125,181.837 112.458,180.503 114.5,179.5C 112.078,177.714 112.078,176.048 114.5,174.5C 113.572,173.232 113.405,171.899 114,170.5C 114.654,171.696 115.154,171.696 115.5,170.5C 114.96,169.252 114.293,168.085 113.5,167C 114.5,165.333 115.5,163.667 116.5,162C 116.06,159.838 115.727,157.671 115.5,155.5C 116.025,154.808 116.692,154.308 117.5,154C 117.06,151.838 116.727,149.671 116.5,147.5C 117.649,141.114 118.983,134.781 120.5,128.5C 121.011,126.805 121.678,125.139 122.5,123.5C 123.192,124.025 123.692,124.692 124,125.5C 124.18,135.41 124.68,145.244 125.5,155C 125.293,157.885 124.96,160.719 124.5,163.5C 125.167,164.5 125.833,165.5 126.5,166.5C 125.167,167.833 125.167,169.167 126.5,170.5C 125.833,170.833 125.167,171.167 124.5,171.5C 125.167,172.5 125.833,173.5 126.5,174.5C 125.975,175.192 125.308,175.692 124.5,176C 125.357,176.689 126.023,177.522 126.5,178.5C 125.305,179.967 125.305,181.467 126.5,183C 126.223,184.892 125.223,186.225 123.5,187C 124.5,189.333 125.5,191.667 126.5,194C 123.041,193.266 122.707,194.266 125.5,197C 124.833,197.333 124.167,197.667 123.5,198C 124.357,198.689 125.023,199.522 125.5,200.5C 124.167,201.833 124.167,203.167 125.5,204.5C 124.975,205.192 124.308,205.692 123.5,206C 123.721,207.799 124.054,209.632 124.5,211.5C 123.975,212.192 123.308,212.692 122.5,213C 123.925,214.714 123.592,216.047 121.5,217C 121.15,226.825 121.15,236.492 121.5,246C 120.692,246.308 120.025,246.808 119.5,247.5C 120.021,249.861 120.354,252.194 120.5,254.5C 118.504,261.863 117.171,269.196 116.5,276.5 Z"/></g>
<g><path style="opacity:1" fill="#9f9f9f" d="M 169.5,132.5 C 171.983,132.73 172.483,133.397 171,134.5C 169.97,134.164 169.47,133.497 169.5,132.5 Z"/></g>
<g><path style="opacity:1" fill="#dddddd" d="M 165.5,132.5 C 167.337,132.639 167.67,133.306 166.5,134.5C 165.702,134.043 165.369,133.376 165.5,132.5 Z"/></g>
<g><path style="opacity:1" fill="#adadad" d="M 136.5,134.5 C 138.337,134.639 138.67,135.306 137.5,136.5C 136.702,136.043 136.369,135.376 136.5,134.5 Z"/></g>
<g><path style="opacity:1" fill="#afafaf" d="M 160.5,137.5 C 162.973,137.947 163.14,138.947 161,140.5C 160.517,139.552 160.351,138.552 160.5,137.5 Z"/></g>
<g><path style="opacity:1" fill="#0d0d0d" d="M 253.5,140.5 C 258.151,141.174 259.651,143.841 258,148.5C 256.191,153.804 253.358,158.471 249.5,162.5C 252.412,165.245 254.746,168.411 256.5,172C 257.449,172.617 258.282,172.451 259,171.5C 259.333,170.167 259.667,168.833 260,167.5C 262.271,170.12 262.938,173.12 262,176.5C 259.167,178 257,180.167 255.5,183C 250.708,183.542 248.542,181.375 249,176.5C 251.532,179.372 253.365,179.039 254.5,175.5C 250.582,165.804 243.915,163.304 234.5,168C 231.469,170.559 229.302,173.726 228,177.5C 226.765,183.446 225.932,189.446 225.5,195.5C 230.411,196.629 235.078,198.296 239.5,200.5C 238.237,194.179 239.737,193.845 244,199.5C 244.167,200.5 244.333,201.5 244.5,202.5C 242.676,205.466 241.509,208.799 241,212.5C 239.048,215.809 236.215,217.309 232.5,217C 233.337,215.989 233.67,214.822 233.5,213.5C 228.467,213.482 226.467,211.149 227.5,206.5C 229.937,209.437 231.603,209.104 232.5,205.5C 231.375,202.038 229.041,200.038 225.5,199.5C 225.168,210.52 225.501,221.52 226.5,232.5C 234.536,236.35 241.202,241.85 246.5,249C 249.46,248.394 251.627,246.561 253,243.5C 254.204,237.247 254.871,230.914 255,224.5C 258.054,222.634 259.554,219.967 259.5,216.5C 258.5,216.5 257.5,216.5 256.5,216.5C 256.759,212.932 258.759,211.599 262.5,212.5C 262.772,216.821 262.106,220.988 260.5,225C 261.029,226.559 261.696,228.059 262.5,229.5C 261.311,230.429 259.978,230.762 258.5,230.5C 258.913,236.037 258.08,241.37 256,246.5C 254.145,249.689 251.645,252.189 248.5,254C 251.442,267.508 247.775,278.841 237.5,288C 225.147,295.036 213.98,293.536 204,283.5C 202.392,280.618 201.059,277.618 200,274.5C 200.173,268.15 200.506,261.816 201,255.5C 199.269,253.647 197.436,252.981 195.5,253.5C 198.129,248.312 201.796,247.312 206.5,250.5C 209.908,249.106 213.241,249.272 216.5,251C 210.576,251.767 209.742,253.6 214,256.5C 216.302,261.154 215.469,265.154 211.5,268.5C 210.548,266.955 210.215,265.288 210.5,263.5C 207.192,262.974 205.026,264.307 204,267.5C 202.781,276.885 206.614,283.385 215.5,287C 229.35,290.148 237.517,284.648 240,270.5C 240.499,265.177 240.666,259.844 240.5,254.5C 234.02,255.176 228.52,253.176 224,248.5C 220.686,243.54 218.186,238.207 216.5,232.5C 203.339,225.23 200.506,215.23 208,202.5C 210.219,199.639 213.053,197.639 216.5,196.5C 216.275,187.17 218.441,178.503 223,170.5C 229.117,163.236 236.95,160.069 246.5,161C 248.041,159.421 249.208,157.587 250,155.5C 250.333,151.833 250.667,148.167 251,144.5C 251.662,143.016 252.496,141.683 253.5,140.5 Z"/></g>
<g><path style="opacity:1" fill="#bebebe" d="M 162.5,140.5 C 164.973,140.947 165.14,141.947 163,143.5C 162.517,142.552 162.351,141.552 162.5,140.5 Z"/></g>
<g><path style="opacity:1" fill="#272727" d="M 122.5,149.5 C 121.833,149.5 121.167,149.5 120.5,149.5C 121.003,143.106 121.836,136.772 123,130.5C 123.524,136.85 123.358,143.184 122.5,149.5 Z"/></g>
<g><path style="opacity:1" fill="#181818" d="M 150.5,143.5 C 153.001,143.826 154.168,145.159 154,147.5C 151.929,146.897 150.762,145.564 150.5,143.5 Z"/></g>
<g><path style="opacity:1" fill="#8e8e8e" d="M 177.5,144.5 C 179.337,144.639 179.67,145.306 178.5,146.5C 177.702,146.043 177.369,145.376 177.5,144.5 Z"/></g>
<g><path style="opacity:1" fill="#b3b3b3" d="M 164.5,144.5 C 166.337,144.639 166.67,145.306 165.5,146.5C 164.702,146.043 164.369,145.376 164.5,144.5 Z"/></g>
<g><path style="opacity:1" fill="#7c7c7c" d="M 137.5,151.5 C 139.337,151.639 139.67,152.306 138.5,153.5C 137.702,153.043 137.369,152.376 137.5,151.5 Z"/></g>
<g><path style="opacity:1" fill="#4a4a4a" d="M 111.5,151.5 C 111.293,154.241 110.293,156.574 108.5,158.5C 108.707,155.759 109.707,153.426 111.5,151.5 Z"/></g>
<g><path style="opacity:1" fill="#dddddd" d="M 102.5,178.5 C 105.102,172.109 107.102,165.443 108.5,158.5C 110.293,156.574 111.293,154.241 111.5,151.5C 112.79,150.942 113.623,149.942 114,148.5C 114.131,152.337 113.298,156.004 111.5,159.5C 112.902,160.842 112.569,161.676 110.5,162C 110.833,163.667 111.167,165.333 111.5,167C 107.845,169.063 107.845,170.897 111.5,172.5C 110.418,172.749 109.085,172.915 107.5,173C 108.815,174.395 108.481,175.395 106.5,176C 106.966,177.299 106.966,178.799 106.5,180.5C 104.517,180.843 103.183,180.176 102.5,178.5 Z"/></g>
<g><path style="opacity:1" fill="#5f5f5f" d="M 149.5,153.5 C 151.496,152.312 152.329,152.979 152,155.5C 151.292,154.619 150.458,153.953 149.5,153.5 Z"/></g>
<g><path style="opacity:1" fill="#848484" d="M 120.5,149.5 C 121.167,149.5 121.833,149.5 122.5,149.5C 122.802,152.059 122.468,154.393 121.5,156.5C 121.784,154.585 121.451,152.919 120.5,151.5C 120.5,150.833 120.5,150.167 120.5,149.5 Z"/></g>
<g><path style="opacity:1" fill="#b6b6b6" d="M 140.5,154.5 C 142.337,154.639 142.67,155.306 141.5,156.5C 140.702,156.043 140.369,155.376 140.5,154.5 Z"/></g>
<g><path style="opacity:1" fill="#c3c3c3" d="M 143.5,156.5 C 144.773,157.077 144.773,157.743 143.5,158.5C 142.537,158.03 142.537,157.363 143.5,156.5 Z"/></g>
<g><path style="opacity:1" fill="#ababab" d="M 133.5,158.5 C 135.337,158.639 135.67,159.306 134.5,160.5C 133.702,160.043 133.369,159.376 133.5,158.5 Z"/></g>
<g><path style="opacity:1" fill="#dedede" d="M 145.5,159.5 C 147.337,159.639 147.67,160.306 146.5,161.5C 145.702,161.043 145.369,160.376 145.5,159.5 Z"/></g>
<g><path style="opacity:1" fill="#969696" d="M 197.5,180.5 C 197.167,180.5 196.833,180.5 196.5,180.5C 196.819,175.637 196.486,170.97 195.5,166.5C 195.613,163.951 194.946,161.618 193.5,159.5C 194.868,158.406 196.035,158.74 197,160.5C 197.5,167.158 197.666,173.825 197.5,180.5 Z"/></g>
<g><path style="opacity:1" fill="#a2a2a2" d="M 153.5,161.5 C 155.337,161.639 155.67,162.306 154.5,163.5C 153.702,163.043 153.369,162.376 153.5,161.5 Z"/></g>
<g><path style="opacity:1" fill="#3f3f3f" d="M 108.5,158.5 C 107.102,165.443 105.102,172.109 102.5,178.5C 102.167,178.5 101.833,178.5 101.5,178.5C 103.065,171.468 105.398,164.802 108.5,158.5 Z"/></g>
<g><path style="opacity:1" fill="#0a0a0a" d="M 58.5,163.5 C 59.8734,163.343 61.2068,163.51 62.5,164C 55.6667,170.833 48.8333,177.667 42,184.5C 41.5006,179.177 41.334,173.844 41.5,168.5C 47.5044,167.587 53.171,165.92 58.5,163.5 Z"/></g>
<g><path style="opacity:1" fill="#e5e5e5" d="M 139.5,166.5 C 142.518,166.335 145.518,166.502 148.5,167C 145.003,170.013 141.003,171.847 136.5,172.5C 136.34,170.801 136.506,169.134 137,167.5C 137.882,171.042 138.715,170.708 139.5,166.5 Z"/></g>
<g><path style="opacity:1" fill="#dfdfdf" d="M 143.5,177.5 C 144.72,175.718 145.386,173.718 145.5,171.5C 147.841,169.171 150.508,167.171 153.5,165.5C 154.281,166.729 154.781,168.062 155,169.5C 155.245,167.337 156.245,165.67 158,164.5C 158.317,166.301 158.984,166.634 160,165.5C 160.5,166 161,166.5 161.5,167C 155.41,170.46 149.577,174.294 144,178.5C 143.601,178.272 143.435,177.938 143.5,177.5 Z"/></g>
<g><path style="opacity:1" fill="#f2f2f2" d="M 195.5,166.5 C 196.486,170.97 196.819,175.637 196.5,180.5C 196.5,184.5 196.5,188.5 196.5,192.5C 196.5,195.5 196.5,198.5 196.5,201.5C 194.856,201.714 193.356,201.38 192,200.5C 191.503,197.854 191.336,195.187 191.5,192.5C 192.324,189.236 192.658,185.902 192.5,182.5C 193.285,177.124 194.285,171.791 195.5,166.5 Z"/></g>
<g><path style="opacity:1" fill="#858585" d="M 200.5,153.5 C 201.833,164.167 201.833,174.833 200.5,185.5C 200.665,182.15 200.498,178.817 200,175.5C 199.667,180.833 199.333,186.167 199,191.5C 198.503,188.854 198.336,186.187 198.5,183.5C 198.334,174.827 198.5,166.16 199,157.5C 199.333,158.5 199.667,159.5 200,160.5C 200.497,158.19 200.663,155.857 200.5,153.5 Z"/></g>
<g><path style="opacity:1" fill="#e7e7e7" d="M 185.5,173.5 C 187.655,173.372 189.655,173.872 191.5,175C 192.472,179.68 190.472,181.347 185.5,180C 182.939,177.844 182.939,175.677 185.5,173.5 Z"/></g>
<g><path style="opacity:1" fill="#949494" d="M 145.5,171.5 C 145.386,173.718 144.72,175.718 143.5,177.5C 142.778,177.918 142.278,178.584 142,179.5C 140.78,175.707 141.947,173.04 145.5,171.5 Z"/></g>
<g><path style="opacity:1" fill="#c3c3c3" d="M 160.5,173.5 C 162.337,173.639 162.67,174.306 161.5,175.5C 160.702,175.043 160.369,174.376 160.5,173.5 Z"/></g>
<g><path style="opacity:1" fill="#7a7a7a" d="M 160.5,178.5 C 158.678,178.169 157.011,177.502 155.5,176.5C 155.415,175.005 156.081,174.005 157.5,173.5C 158.952,174.94 159.952,176.606 160.5,178.5 Z"/></g>
<g><path style="opacity:1" fill="#bebebe" d="M 133.5,176.5 C 134.675,176.281 135.675,176.614 136.5,177.5C 134.948,178.798 133.948,178.465 133.5,176.5 Z"/></g>
<g><path style="opacity:1" fill="#a6a6a6" d="M 164.5,178.5 C 162.663,178.361 162.33,177.694 163.5,176.5C 164.298,176.957 164.631,177.624 164.5,178.5 Z"/></g>
<g><path style="opacity:1" fill="#939393" d="M 139.5,175.5 C 140.94,177.42 140.607,179.087 138.5,180.5C 137.316,178.533 137.649,176.866 139.5,175.5 Z"/></g>
<g><path style="opacity:1" fill="#aaaaaa" d="M 171.5,176.5 C 173.337,176.639 173.67,177.306 172.5,178.5C 171.702,178.043 171.369,177.376 171.5,176.5 Z"/></g>
<g><path style="opacity:1" fill="#9f9f9f" d="M 155.5,177.5 C 155.5,178.833 154.833,179.5 153.5,179.5C 153.5,178.167 154.167,177.5 155.5,177.5 Z"/></g>
<g><path style="opacity:1" fill="#dbdbdb" d="M 164.5,178.5 C 165.492,178.328 166.158,178.662 166.5,179.5C 166.5,180.833 165.833,181.5 164.5,181.5C 164.5,180.5 164.5,179.5 164.5,178.5 Z"/></g>
<g><path style="opacity:1" fill="#f0f0f0" d="M 148.5,180.5 C 148.179,182.048 147.179,182.715 145.5,182.5C 145.973,181.094 146.973,180.427 148.5,180.5 Z"/></g>
<g><path style="opacity:1" fill="#1d1d1d" d="M 155.5,176.5 C 157.011,177.502 158.678,178.169 160.5,178.5C 161.167,178.5 161.5,178.833 161.5,179.5C 160.243,180.623 160.576,181.289 162.5,181.5C 163.167,181.5 163.833,181.5 164.5,181.5C 165.833,181.5 166.5,180.833 166.5,179.5C 168.3,180.895 168.634,182.561 167.5,184.5C 165.995,181.869 165.329,182.203 165.5,185.5C 165.047,186.458 164.381,187.292 163.5,188C 165.157,188.725 166.157,188.225 166.5,186.5C 167.167,186.5 167.833,186.5 168.5,186.5C 168.328,187.492 168.662,188.158 169.5,188.5C 169.5,189.167 169.167,189.5 168.5,189.5C 164.711,190.596 164.711,191.263 168.5,191.5C 167.5,192.167 166.5,192.833 165.5,193.5C 163.678,192.571 162.345,193.238 161.5,195.5C 161.5,195.833 161.5,196.167 161.5,196.5C 159.5,196.5 158.5,197.5 158.5,199.5C 157.833,199.5 157.5,199.833 157.5,200.5C 155.952,200.821 155.285,201.821 155.5,203.5C 155.189,204.478 154.522,205.145 153.5,205.5C 152.452,204.452 151.452,203.452 150.5,202.5C 153.167,201.833 153.167,201.167 150.5,200.5C 149.222,200.782 148.222,201.449 147.5,202.5C 147.672,201.508 147.338,200.842 146.5,200.5C 147.11,199.609 147.443,198.609 147.5,197.5C 148.914,195.402 148.248,194.402 145.5,194.5C 145.5,195.5 145.5,196.5 145.5,197.5C 144.542,197.953 143.708,198.619 143,199.5C 142.517,198.552 142.351,197.552 142.5,196.5C 143.833,193.833 143.167,193.167 140.5,194.5C 140.5,193.833 140.167,193.5 139.5,193.5C 138.833,193.5 138.167,193.5 137.5,193.5C 137.932,192.29 138.599,191.29 139.5,190.5C 139.369,191.376 139.702,192.043 140.5,192.5C 141.386,191.675 141.719,190.675 141.5,189.5C 141.5,188.833 141.833,188.5 142.5,188.5C 143.209,189.404 144.209,189.737 145.5,189.5C 145.598,186.752 144.598,186.086 142.5,187.5C 142.5,187.167 142.5,186.833 142.5,186.5C 143.11,185.609 143.443,184.609 143.5,183.5C 144.222,183.918 144.722,184.584 145,185.5C 145.383,184.944 145.883,184.611 146.5,184.5C 146.167,183.833 145.833,183.167 145.5,182.5C 147.179,182.715 148.179,182.048 148.5,180.5C 149.167,180.5 149.833,180.5 150.5,180.5C 151.86,183.015 152.86,182.682 153.5,179.5C 154.833,179.5 155.5,178.833 155.5,177.5C 155.5,177.167 155.5,176.833 155.5,176.5 Z"/></g>
<g><path style="opacity:1" fill="#e1e1e1" d="M 161.5,179.5 C 162.338,179.842 162.672,180.508 162.5,181.5C 160.576,181.289 160.243,180.623 161.5,179.5 Z"/></g>
<g><path style="opacity:1" fill="#cbcbcb" d="M 153.5,179.5 C 152.86,182.682 151.86,183.015 150.5,180.5C 151.391,179.89 152.391,179.557 153.5,179.5 Z"/></g>
<g><path style="opacity:1" fill="#d4d4d4" d="M 104.5,181.5 C 107.087,184.01 107.087,186.677 104.5,189.5C 103.5,189.167 102.833,188.5 102.5,187.5C 104.086,185.827 104.753,183.827 104.5,181.5 Z"/></g>
<g><path style="opacity:1" fill="#e5e5e5" d="M 159.5,185.5 C 157.535,185.052 157.202,184.052 158.5,182.5C 159.386,183.325 159.719,184.325 159.5,185.5 Z"/></g>
<g><path style="opacity:1" fill="#ececec" d="M 190.5,182.5 C 190.5,185.833 190.5,189.167 190.5,192.5C 190.5,195.833 190.5,199.167 190.5,202.5C 189.539,204.265 189.205,206.265 189.5,208.5C 188.977,216.49 188.644,224.49 188.5,232.5C 187.514,236.97 187.181,241.637 187.5,246.5C 186.532,248.607 186.198,250.941 186.5,253.5C 185.411,264.474 184.577,275.474 184,286.5C 183.587,289.232 182.92,291.899 182,294.5C 181.501,290.848 181.335,287.182 181.5,283.5C 182.473,281.052 182.806,278.385 182.5,275.5C 183.167,261.167 183.833,246.833 184.5,232.5C 185.473,230.052 185.806,227.385 185.5,224.5C 186.167,210.5 186.833,196.5 187.5,182.5C 188.5,182.5 189.5,182.5 190.5,182.5 Z"/></g>
<g><path style="opacity:1" fill="#f3f3f3" d="M 152.5,183.5 C 155.797,183.329 156.131,183.995 153.5,185.5C 152.702,185.043 152.369,184.376 152.5,183.5 Z"/></g>
<g><path style="opacity:1" fill="#9d9d9d" d="M 132.5,183.5 C 134.337,183.639 134.67,184.306 133.5,185.5C 132.702,185.043 132.369,184.376 132.5,183.5 Z"/></g>
<g><path style="opacity:1" fill="#c5c5c5" d="M 143.5,183.5 C 143.443,184.609 143.11,185.609 142.5,186.5C 139.985,185.14 140.318,184.14 143.5,183.5 Z"/></g>
<g><path style="opacity:1" fill="#f6f6f6" d="M 146.5,184.5 C 147.575,183.438 148.575,183.438 149.5,184.5C 148.386,185.776 147.386,185.776 146.5,184.5 Z"/></g>
<g><path style="opacity:1" fill="#f2f2f2" d="M 162.5,183.5 C 164.337,183.639 164.67,184.306 163.5,185.5C 162.702,185.043 162.369,184.376 162.5,183.5 Z"/></g>
<g><path style="opacity:1" fill="#cfcfcf" d="M 159.5,185.5 C 161.048,185.821 161.715,186.821 161.5,188.5C 158.752,188.598 158.086,187.598 159.5,185.5 Z"/></g>
<g><path style="opacity:1" fill="#e4e4e4" d="M 142.5,188.5 C 142.5,188.167 142.5,187.833 142.5,187.5C 144.598,186.086 145.598,186.752 145.5,189.5C 144.209,189.737 143.209,189.404 142.5,188.5 Z"/></g>
<g><path style="opacity:1" fill="#c7c7c7" d="M 148.5,186.5 C 152.102,186.678 152.102,187.678 148.5,189.5C 147.438,188.575 147.438,187.575 148.5,186.5 Z"/></g>
<g><path style="opacity:1" fill="#d6d6d6" d="M 156.5,189.5 C 153.326,189.048 152.993,188.048 155.5,186.5C 156.386,187.325 156.719,188.325 156.5,189.5 Z"/></g>
<g><path style="opacity:1" fill="#dedede" d="M 165.5,185.5 C 166.167,185.5 166.5,185.833 166.5,186.5C 166.157,188.225 165.157,188.725 163.5,188C 164.381,187.292 165.047,186.458 165.5,185.5 Z"/></g>
<g><path style="opacity:1" fill="#f3f3f3" d="M 168.5,186.5 C 170.424,186.711 170.757,187.377 169.5,188.5C 168.662,188.158 168.328,187.492 168.5,186.5 Z"/></g>
<g><path style="opacity:1" fill="#b8b8b8" d="M 172.5,186.5 C 173.675,186.281 174.675,186.614 175.5,187.5C 173.948,188.798 172.948,188.465 172.5,186.5 Z"/></g>
<g><path style="opacity:1" fill="#e3e3e3" d="M 180.5,186.5 C 182.017,186.511 183.184,187.177 184,188.5C 184.311,190.556 184.811,192.556 185.5,194.5C 184.564,195.974 183.23,196.974 181.5,197.5C 180.511,193.893 180.177,190.226 180.5,186.5 Z"/></g>
<g><path style="opacity:1" fill="#9c9c9c" d="M 139.5,189.5 C 138.833,189.5 138.167,189.5 137.5,189.5C 138.596,185.711 139.263,185.711 139.5,189.5 Z"/></g>
<g><path style="opacity:1" fill="#ededed" d="M 161.5,189.5 C 162.376,189.369 163.043,189.702 163.5,190.5C 161.192,191.873 160.525,191.54 161.5,189.5 Z"/></g>
<g><path style="opacity:1" fill="#727272" d="M 190.5,182.5 C 191.167,182.5 191.833,182.5 192.5,182.5C 192.658,185.902 192.324,189.236 191.5,192.5C 191.167,192.5 190.833,192.5 190.5,192.5C 190.5,189.167 190.5,185.833 190.5,182.5 Z"/></g>
<g><path style="opacity:1" fill="#d6d6d6" d="M 137.5,189.5 C 137.361,191.337 136.694,191.67 135.5,190.5C 135.957,189.702 136.624,189.369 137.5,189.5 Z"/></g>
<g><path style="opacity:1" fill="#dadada" d="M 139.5,189.5 C 140.167,189.5 140.833,189.5 141.5,189.5C 141.719,190.675 141.386,191.675 140.5,192.5C 139.702,192.043 139.369,191.376 139.5,190.5C 139.5,190.167 139.5,189.833 139.5,189.5 Z"/></g>
<g><path style="opacity:1" fill="#d8d8d8" d="M 144.5,190.5 C 147.957,190.667 148.29,191.667 145.5,193.5C 144.614,192.675 144.281,191.675 144.5,190.5 Z"/></g>
<g><path style="opacity:1" fill="#f2f2f2" d="M 150.5,189.5 C 153.012,190.216 153.012,191.216 150.5,192.5C 149.438,191.575 149.438,190.575 150.5,189.5 Z"/></g>
<g><path style="opacity:1" fill="#c7c7c7" d="M 156.5,189.5 C 159.012,190.216 159.012,191.216 156.5,192.5C 155.438,191.575 155.438,190.575 156.5,189.5 Z"/></g>
<g><path style="opacity:1" fill="#c7c7c7" d="M 168.5,189.5 C 168.5,190.167 168.5,190.833 168.5,191.5C 164.711,191.263 164.711,190.596 168.5,189.5 Z"/></g>
<g><path style="opacity:1" fill="#b2b2b2" d="M 170.5,189.5 C 172.332,190.14 172.665,191.14 171.5,192.5C 170.614,191.675 170.281,190.675 170.5,189.5 Z"/></g>
<g><path style="opacity:1" fill="#d5d5d5" d="M 152.5,192.5 C 155.041,193.623 155.041,194.956 152.5,196.5C 151.708,195.3 151.708,193.967 152.5,192.5 Z"/></g>
<g><path style="opacity:1" fill="#bbbbbb" d="M 156.5,193.5 C 161.579,193.782 161.746,194.782 157,196.5C 156.517,195.552 156.351,194.552 156.5,193.5 Z"/></g>
<g><path style="opacity:1" fill="#e5e5e5" d="M 169.5,195.5 C 168.833,195.5 168.167,195.5 167.5,195.5C 167.843,193.775 168.843,193.275 170.5,194C 169.944,194.383 169.611,194.883 169.5,195.5 Z"/></g>
<g><path style="opacity:1" fill="#7a7a7a" d="M 99.5,192.5 C 100.833,192.5 102.167,192.5 103.5,192.5C 103.5,194.167 103.5,195.833 103.5,197.5C 102.566,196.432 102.232,195.099 102.5,193.5C 101.209,193.737 100.209,193.404 99.5,192.5 Z"/></g>
<g><path style="opacity:1" fill="#b3b3b3" d="M 132.5,193.5 C 134.337,193.639 134.67,194.306 133.5,195.5C 132.702,195.043 132.369,194.376 132.5,193.5 Z"/></g>
<g><path style="opacity:1" fill="#9f9f9f" d="M 137.5,193.5 C 138.167,193.5 138.833,193.5 139.5,193.5C 139.052,195.465 138.052,195.798 136.5,194.5C 136.624,193.893 136.957,193.56 137.5,193.5 Z"/></g>
<g><path style="opacity:1" fill="#dddddd" d="M 142.5,196.5 C 141.5,196.167 140.833,195.5 140.5,194.5C 143.167,193.167 143.833,193.833 142.5,196.5 Z"/></g>
<g><path style="opacity:1" fill="#cacaca" d="M 147.5,197.5 C 146.833,197.5 146.167,197.5 145.5,197.5C 145.5,196.5 145.5,195.5 145.5,194.5C 148.248,194.402 148.914,195.402 147.5,197.5 Z"/></g>
<g><path style="opacity:1" fill="#dbdbdb" d="M 165.5,193.5 C 165.5,193.833 165.5,194.167 165.5,194.5C 164.609,195.11 163.609,195.443 162.5,195.5C 162.167,195.5 161.833,195.5 161.5,195.5C 162.345,193.238 163.678,192.571 165.5,193.5 Z"/></g>
<g><path style="opacity:1" fill="#555555" d="M 172.5,193.5 C 174.908,194.315 175.741,195.981 175,198.5C 173.628,197.09 172.795,195.423 172.5,193.5 Z"/></g>
<g><path style="opacity:1" fill="#bcbcbc" d="M 169.5,196.5 C 173.5,197.167 173.5,197.833 169.5,198.5C 169.5,197.833 169.5,197.167 169.5,196.5 Z"/></g>
<g><path style="opacity:1" fill="#1f1f1f" d="M 190.5,192.5 C 190.833,192.5 191.167,192.5 191.5,192.5C 191.336,195.187 191.503,197.854 192,200.5C 193.356,201.38 194.856,201.714 196.5,201.5C 196.5,198.5 196.5,195.5 196.5,192.5C 197.451,193.919 197.784,195.585 197.5,197.5C 197.5,199.5 197.5,201.5 197.5,203.5C 195.5,203.5 193.5,203.5 191.5,203.5C 191.5,204.833 191.5,206.167 191.5,207.5C 190.549,206.081 190.216,204.415 190.5,202.5C 190.5,199.167 190.5,195.833 190.5,192.5 Z"/></g>
<g><path style="opacity:1" fill="#e4e4e4" d="M 134.5,196.5 C 136.337,196.639 136.67,197.306 135.5,198.5C 134.702,198.043 134.369,197.376 134.5,196.5 Z"/></g>
<g><path style="opacity:1" fill="#cccccc" d="M 154.5,196.5 C 155.776,197.386 155.776,198.386 154.5,199.5C 153.438,198.575 153.438,197.575 154.5,196.5 Z"/></g>
<g><path style="opacity:1" fill="#bcbcbc" d="M 139.5,197.5 C 140.289,197.783 140.956,198.283 141.5,199C 140.184,199.528 139.517,199.028 139.5,197.5 Z"/></g>
<g><path style="opacity:1" fill="#f3f3f3" d="M 149.5,196.5 C 150.776,197.386 150.776,198.386 149.5,199.5C 148.438,198.575 148.438,197.575 149.5,196.5 Z"/></g>
<g><path style="opacity:1" fill="#c7c7c7" d="M 161.5,196.5 C 161.5,197.5 161.5,198.5 161.5,199.5C 160.5,199.5 159.5,199.5 158.5,199.5C 158.5,197.5 159.5,196.5 161.5,196.5 Z"/></g>
<g><path style="opacity:1" fill="#d4d4d4" d="M 142.5,98.5 C 144.43,98.7706 145.764,99.7706 146.5,101.5C 146.128,105.043 144.128,107.21 140.5,108C 130.507,106.745 124.007,110.912 121,120.5C 120.187,122.436 119.687,124.436 119.5,126.5C 117.005,134.788 114.338,143.121 111.5,151.5C 109.707,153.426 108.707,155.759 108.5,158.5C 105.398,164.802 103.065,171.468 101.5,178.5C 100.962,182.524 100.295,186.524 99.5,190.5C 101.5,190.5 103.5,190.5 105.5,190.5C 105.275,195.048 105.941,199.382 107.5,203.5C 104.459,218.701 103.292,234.034 104,249.5C 105.988,252.983 108.488,255.983 111.5,258.5C 110.833,258.5 110.5,258.833 110.5,259.5C 100.908,252.937 97.741,243.937 101,232.5C 102.244,222.284 103.744,212.117 105.5,202C 104.586,200.594 103.92,199.094 103.5,197.5C 103.5,195.833 103.5,194.167 103.5,192.5C 102.167,192.5 100.833,192.5 99.5,192.5C 98.0069,191.688 97.3402,190.355 97.5,188.5C 98.3505,183.098 99.5172,177.765 101,172.5C 108.126,154.455 114.46,136.122 120,117.5C 121.777,113.096 124.61,109.596 128.5,107C 133.353,106.971 138.02,106.138 142.5,104.5C 143.684,102.533 143.351,100.866 141.5,99.5C 141.5,98.8333 141.833,98.5 142.5,98.5 Z"/></g>
<g><path style="opacity:1" fill="#e2e2e2" d="M 163.5,199.5 C 163.5,200.5 163.5,201.5 163.5,202.5C 162.5,202.5 161.5,202.5 160.5,202.5C 161.167,201.167 162.167,200.167 163.5,199.5 Z"/></g>
<g><path style="opacity:1" fill="#dfdfdf" d="M 173.5,201.5 C 172.508,201.672 171.842,201.338 171.5,200.5C 172.623,199.243 173.289,199.576 173.5,201.5 Z"/></g>
<g><path style="opacity:1" fill="#9b9b9b" d="M 132.5,200.5 C 133.675,200.281 134.675,200.614 135.5,201.5C 133.948,202.798 132.948,202.465 132.5,200.5 Z"/></g>
<g><path style="opacity:1" fill="#9f9f9f" d="M 136.5,200.5 C 137.675,200.281 138.675,200.614 139.5,201.5C 137.948,202.798 136.948,202.465 136.5,200.5 Z"/></g>
<g><path style="opacity:1" fill="#c8c8c8" d="M 146.5,200.5 C 147.338,200.842 147.672,201.508 147.5,202.5C 145.576,202.289 145.243,201.623 146.5,200.5 Z"/></g>
<g><path style="opacity:1" fill="#c7c7c7" d="M 150.5,200.5 C 153.167,201.167 153.167,201.833 150.5,202.5C 150.5,201.833 150.5,201.167 150.5,200.5 Z"/></g>
<g><path style="opacity:1" fill="#dfdfdf" d="M 157.5,200.5 C 157.715,202.179 157.048,203.179 155.5,203.5C 155.285,201.821 155.952,200.821 157.5,200.5 Z"/></g>
<g><path style="opacity:1" fill="#4c4c4c" d="M 200.5,185.5 C 200.5,192.167 200.5,198.833 200.5,205.5C 199.833,205.5 199.5,205.833 199.5,206.5C 198.833,203.5 198.167,200.5 197.5,197.5C 197.784,195.585 197.451,193.919 196.5,192.5C 196.5,188.5 196.5,184.5 196.5,180.5C 196.833,180.5 197.167,180.5 197.5,180.5C 197.263,181.791 197.596,182.791 198.5,183.5C 198.336,186.187 198.503,188.854 199,191.5C 199.333,186.167 199.667,180.833 200,175.5C 200.498,178.817 200.665,182.15 200.5,185.5 Z"/></g>
<g><path style="opacity:1" fill="#2e2e2e" d="M 165.5,194.5 C 165.842,195.338 166.508,195.672 167.5,195.5C 168.167,195.5 168.833,195.5 169.5,195.5C 169.5,195.833 169.5,196.167 169.5,196.5C 169.5,197.167 169.5,197.833 169.5,198.5C 169.5,199.167 169.5,199.833 169.5,200.5C 170.167,200.5 170.833,200.5 171.5,200.5C 171.842,201.338 172.508,201.672 173.5,201.5C 172.833,202.167 172.167,202.833 171.5,203.5C 170.391,203.557 169.391,203.89 168.5,204.5C 167.833,203.167 167.167,203.167 166.5,204.5C 164.804,202.871 163.804,203.204 163.5,205.5C 162.778,204.449 161.778,203.782 160.5,203.5C 160.167,203.5 159.833,203.5 159.5,203.5C 159.5,202.833 159.833,202.5 160.5,202.5C 161.5,202.5 162.5,202.5 163.5,202.5C 163.5,201.5 163.5,200.5 163.5,199.5C 163.567,198.041 163.234,196.708 162.5,195.5C 163.609,195.443 164.609,195.11 165.5,194.5 Z"/></g>
<g><path style="opacity:1" fill="#f4f4f4" d="M 169.5,200.5 C 169.052,202.465 168.052,202.798 166.5,201.5C 167.133,199.481 168.133,199.147 169.5,200.5 Z"/></g>
<g><path style="opacity:1" fill="#f4f4f4" d="M 164.5,196.5 C 167.957,196.667 168.29,197.667 165.5,199.5C 164.614,198.675 164.281,197.675 164.5,196.5 Z"/></g>
<g><path style="opacity:1" fill="#ededed" d="M 215.5,201.5 C 216.656,209.323 216.823,217.323 216,225.5C 210.274,217.597 210.107,209.597 215.5,201.5 Z"/></g>
<g><path style="opacity:1" fill="#333333" d="M 135.5,204.5 C 135.5,205.833 136.167,206.5 137.5,206.5C 137.5,206.833 137.5,207.167 137.5,207.5C 137.5,208.167 137.5,208.833 137.5,209.5C 136.833,209.5 136.167,209.5 135.5,209.5C 133.852,211.429 132.185,213.429 130.5,215.5C 128.545,213.332 127.879,210.998 128.5,208.5C 129.005,207.081 130.005,206.415 131.5,206.5C 132.5,206.167 133.167,205.5 133.5,204.5C 133.938,203.494 134.604,203.494 135.5,204.5 Z"/></g>
<g><path style="opacity:1" fill="#cfcfcf" d="M 139.5,203.5 C 141.465,203.948 141.798,204.948 140.5,206.5C 139.614,205.675 139.281,204.675 139.5,203.5 Z"/></g>
<g><path style="opacity:1" fill="#dcdcdc" d="M 171.5,203.5 C 171.013,206.715 170.013,207.048 168.5,204.5C 169.391,203.89 170.391,203.557 171.5,203.5 Z"/></g>
<g><path style="opacity:1" fill="#6e6e6e" d="M 183.5,198.5 C 185.308,199.918 185.975,201.918 185.5,204.5C 184.167,204.5 182.833,204.5 181.5,204.5C 181.34,202.801 181.506,201.134 182,199.5C 183.107,200.712 183.607,200.379 183.5,198.5 Z"/></g>
<g><path style="opacity:1" fill="#ededed" d="M 197.5,197.5 C 198.167,200.5 198.833,203.5 199.5,206.5C 199.611,207.117 199.944,207.617 200.5,208C 198.253,209.995 197.253,212.495 197.5,215.5C 196.833,215.5 196.5,215.167 196.5,214.5C 196.5,213.167 196.5,211.833 196.5,210.5C 194.585,210.784 192.919,210.451 191.5,209.5C 191.5,208.833 191.5,208.167 191.5,207.5C 191.5,206.167 191.5,204.833 191.5,203.5C 193.5,203.5 195.5,203.5 197.5,203.5C 197.5,201.5 197.5,199.5 197.5,197.5 Z"/></g>
<g><path style="opacity:1" fill="#bababa" d="M 133.5,204.5 C 133.167,205.5 132.5,206.167 131.5,206.5C 130.5,204.167 131.167,203.5 133.5,204.5 Z"/></g>
<g><path style="opacity:1" fill="#d7d7d7" d="M 137.5,206.5 C 136.167,206.5 135.5,205.833 135.5,204.5C 135.435,204.062 135.601,203.728 136,203.5C 137.039,204.244 137.539,205.244 137.5,206.5 Z"/></g>
<g><path style="opacity:1" fill="#c6c6c6" d="M 144.5,203.5 C 146.337,203.639 146.67,204.306 145.5,205.5C 144.702,205.043 144.369,204.376 144.5,203.5 Z"/></g>
<g><path style="opacity:1" fill="#e9e9e9" d="M 159.5,203.5 C 159.833,203.5 160.167,203.5 160.5,203.5C 160.631,204.376 160.298,205.043 159.5,205.5C 158.227,204.743 158.227,204.077 159.5,203.5 Z"/></g>
<g><path style="opacity:1" fill="#d8d8d8" d="M 166.5,204.5 C 166.167,205.167 165.833,205.833 165.5,206.5C 164.833,206.5 164.167,206.5 163.5,206.5C 163.5,206.167 163.5,205.833 163.5,205.5C 163.804,203.204 164.804,202.871 166.5,204.5 Z"/></g>
<g><path style="opacity:1" fill="#d7d7d7" d="M 173.5,203.5 C 175.337,203.639 175.67,204.306 174.5,205.5C 173.702,205.043 173.369,204.376 173.5,203.5 Z"/></g>
<g><path style="opacity:1" fill="#a2a2a2" d="M 150.5,206.5 C 152.337,206.639 152.67,207.306 151.5,208.5C 150.702,208.043 150.369,207.376 150.5,206.5 Z"/></g>
<g><path style="opacity:1" fill="#dadada" d="M 178.5,203.5 C 180.176,204.183 180.843,205.517 180.5,207.5C 181.978,207.238 183.311,207.571 184.5,208.5C 179.91,210.176 177.91,208.51 178.5,203.5 Z"/></g>
<g><path style="opacity:1" fill="#d8d8d8" d="M 162.5,206.5 C 162.5,207.5 162.5,208.5 162.5,209.5C 161.5,209.5 160.5,209.5 159.5,209.5C 159.5,207.5 160.5,206.5 162.5,206.5 Z"/></g>
<g><path style="opacity:1" fill="#dfdfdf" d="M 165.5,206.5 C 167.179,206.285 168.179,206.952 168.5,208.5C 165.506,210.066 164.506,209.399 165.5,206.5 Z"/></g>
<g><path style="opacity:1" fill="#6e6e6e" d="M 190.5,202.5 C 190.216,204.415 190.549,206.081 191.5,207.5C 191.5,208.167 191.5,208.833 191.5,209.5C 190.833,209.167 190.167,208.833 189.5,208.5C 189.205,206.265 189.539,204.265 190.5,202.5 Z"/></g>
<g><path style="opacity:1" fill="#d4d4d4" d="M 135.5,209.5 C 134.325,209.719 133.325,209.386 132.5,208.5C 134.052,207.202 135.052,207.535 135.5,209.5 Z"/></g>
<g><path style="opacity:1" fill="#f9f9f9" d="M 137.5,207.5 C 140.167,208.167 140.167,208.833 137.5,209.5C 137.5,208.833 137.5,208.167 137.5,207.5 Z"/></g>
<g><path style="opacity:1" fill="#efefef" d="M 142.5,207.5 C 144.337,207.639 144.67,208.306 143.5,209.5C 142.702,209.043 142.369,208.376 142.5,207.5 Z"/></g>
<g><path style="opacity:1" fill="#1e1e1e" d="M 200.5,205.5 C 200.953,206.458 201.619,207.292 202.5,208C 199.13,210.697 197.796,214.197 198.5,218.5C 197.596,217.791 197.263,216.791 197.5,215.5C 197.253,212.495 198.253,209.995 200.5,208C 199.944,207.617 199.611,207.117 199.5,206.5C 199.5,205.833 199.833,205.5 200.5,205.5 Z"/></g>
<g><path style="opacity:1" fill="#d1d1d1" d="M 158.5,209.5 C 159.928,212.35 159.261,213.35 156.5,212.5C 156.427,210.973 157.094,209.973 158.5,209.5 Z"/></g>
<g><path style="opacity:1" fill="#e7e7e7" d="M 170.5,210.5 C 170.737,211.791 170.404,212.791 169.5,213.5C 167.952,213.179 167.285,212.179 167.5,210.5C 168.5,210.5 169.5,210.5 170.5,210.5 Z"/></g>
<g><path style="opacity:1" fill="#939393" d="M 144.5,210.5 C 146.656,210.872 146.656,211.872 144.5,213.5C 143.438,212.575 143.438,211.575 144.5,210.5 Z"/></g>
<g><path style="opacity:1" fill="#a2a2a2" d="M 172.5,211.5 C 174.337,211.639 174.67,212.306 173.5,213.5C 172.702,213.043 172.369,212.376 172.5,211.5 Z"/></g>
<g><path style="opacity:1" fill="#ececec" d="M 194.5,221.5 C 193.566,222.568 193.232,223.901 193.5,225.5C 192.838,229.466 192.505,233.466 192.5,237.5C 191.596,238.209 191.263,239.209 191.5,240.5C 190.833,245.167 190.167,249.833 189.5,254.5C 188.549,253.081 188.216,251.415 188.5,249.5C 188.505,245.466 188.838,241.466 189.5,237.5C 190.083,228.845 190.416,220.178 190.5,211.5C 191.833,211.5 193.167,211.5 194.5,211.5C 194.5,214.833 194.5,218.167 194.5,221.5 Z"/></g>
<g><path style="opacity:1" fill="#1c1c1c" d="M 189.5,208.5 C 190.167,208.833 190.833,209.167 191.5,209.5C 192.919,210.451 194.585,210.784 196.5,210.5C 196.5,211.833 196.5,213.167 196.5,214.5C 195.679,217.641 195.179,220.975 195,224.5C 194.517,223.552 194.351,222.552 194.5,221.5C 194.5,218.167 194.5,214.833 194.5,211.5C 193.167,211.5 191.833,211.5 190.5,211.5C 190.416,220.178 190.083,228.845 189.5,237.5C 188.549,236.081 188.216,234.415 188.5,232.5C 188.644,224.49 188.977,216.49 189.5,208.5 Z"/></g>
<g><path style="opacity:1" fill="#cacaca" d="M 137.5,214.5 C 138.289,214.783 138.956,215.283 139.5,216C 138.184,216.528 137.517,216.028 137.5,214.5 Z"/></g>
<g><path style="opacity:1" fill="#b8b8b8" d="M 131.5,216.5 C 133.973,216.947 134.14,217.947 132,219.5C 131.517,218.552 131.351,217.552 131.5,216.5 Z"/></g>
<g><path style="opacity:1" fill="#939393" d="M 147.5,216.5 C 149.337,216.639 149.67,217.306 148.5,218.5C 147.702,218.043 147.369,217.376 147.5,216.5 Z"/></g>
<g><path style="opacity:1" fill="#d8d8d8" d="M 157.5,219.5 C 156.662,219.158 156.328,218.492 156.5,217.5C 157.397,216.402 158.23,216.402 159,217.5C 159.528,218.816 159.028,219.483 157.5,219.5 Z"/></g>
<g><path style="opacity:1" fill="#f8f8f8" d="M 139.5,217.5 C 141.337,217.639 141.67,218.306 140.5,219.5C 139.702,219.043 139.369,218.376 139.5,217.5 Z"/></g>
<g><path style="opacity:1" fill="#919191" d="M 143.5,217.5 C 145.337,217.639 145.67,218.306 144.5,219.5C 143.702,219.043 143.369,218.376 143.5,217.5 Z"/></g>
<g><path style="opacity:1" fill="#fbfbfb" d="M 172.5,218.5 C 173.833,218.5 174.5,219.167 174.5,220.5C 174.5,219.167 173.833,218.5 172.5,218.5 Z"/></g>
<g><path style="opacity:1" fill="#c1c1c1" d="M 151.5,220.5 C 153.337,220.639 153.67,221.306 152.5,222.5C 151.702,222.043 151.369,221.376 151.5,220.5 Z"/></g>
<g><path style="opacity:1" fill="#d0d0d0" d="M 129.5,220.5 C 131.337,220.639 131.67,221.306 130.5,222.5C 129.702,222.043 129.369,221.376 129.5,220.5 Z"/></g>
<g><path style="opacity:1" fill="#aaaaaa" d="M 132.5,220.5 C 133.675,220.281 134.675,220.614 135.5,221.5C 133.948,222.798 132.948,222.465 132.5,220.5 Z"/></g>
<g><path style="opacity:1" fill="#e0e0e0" d="M 136.5,220.5 C 137.675,220.281 138.675,220.614 139.5,221.5C 137.948,222.798 136.948,222.465 136.5,220.5 Z"/></g>
<g><path style="opacity:1" fill="#dfdfdf" d="M 146.5,220.5 C 148.337,220.639 148.67,221.306 147.5,222.5C 146.702,222.043 146.369,221.376 146.5,220.5 Z"/></g>
<g><path style="opacity:1" fill="#dedede" d="M 158.5,223.5 C 158.5,223.167 158.5,222.833 158.5,222.5C 159.216,219.988 160.216,219.988 161.5,222.5C 160.675,223.386 159.675,223.719 158.5,223.5 Z"/></g>
<g><path style="opacity:1" fill="#f3f3f3" d="M 130.5,224.5 C 132.337,224.639 132.67,225.306 131.5,226.5C 130.702,226.043 130.369,225.376 130.5,224.5 Z"/></g>
<g><path style="opacity:1" fill="#cdcdcd" d="M 136.5,227.5 C 134.952,227.179 134.285,226.179 134.5,224.5C 137.248,224.402 137.914,225.402 136.5,227.5 Z"/></g>
<g><path style="opacity:1" fill="#c0c0c0" d="M 144.5,223.5 C 145.773,224.077 145.773,224.743 144.5,225.5C 143.537,225.03 143.537,224.363 144.5,223.5 Z"/></g>
<g><path style="opacity:1" fill="#f8f8f8" d="M 156.5,224.5 C 157.376,224.369 158.043,224.702 158.5,225.5C 157.743,226.773 157.077,226.773 156.5,225.5C 156.5,225.167 156.5,224.833 156.5,224.5 Z"/></g>
<g><path style="opacity:1" fill="#dbdbdb" d="M 168.5,224.5 C 168.5,225.167 168.5,225.833 168.5,226.5C 165.833,225.833 165.833,225.167 168.5,224.5 Z"/></g>
<g><path style="opacity:1" fill="#dddddd" d="M 170.5,227.5 C 171.833,228.167 171.833,228.833 170.5,229.5C 167.833,228.833 167.833,228.167 170.5,227.5 Z"/></g>
<g><path style="opacity:1" fill="#585858" d="M 184.5,222.5 C 184.328,223.492 184.662,224.158 185.5,224.5C 185.806,227.385 185.473,230.052 184.5,232.5C 184.672,231.508 184.338,230.842 183.5,230.5C 183.194,227.615 183.527,224.948 184.5,222.5 Z"/></g>
<g><path style="opacity:1" fill="#f6f6f6" d="M 132.5,228.5 C 134.337,228.639 134.67,229.306 133.5,230.5C 132.702,230.043 132.369,229.376 132.5,228.5 Z"/></g>
<g><path style="opacity:1" fill="#999999" d="M 136.5,227.5 C 138.337,227.639 138.67,228.306 137.5,229.5C 136.702,229.043 136.369,228.376 136.5,227.5 Z"/></g>
<g><path style="opacity:1" fill="#979797" d="M 174.5,227.5 C 176.337,227.639 176.67,228.306 175.5,229.5C 174.702,229.043 174.369,228.376 174.5,227.5 Z"/></g>
<g><path style="opacity:1" fill="#212121" d="M 197.5,222.5 C 197.021,228.855 196.354,235.188 195.5,241.5C 194.848,240.551 194.514,239.385 194.5,238C 195.104,231.398 196.104,226.232 197.5,222.5 Z"/></g>
<g><path style="opacity:1" fill="#c0c0c0" d="M 125.5,228.5 C 126.773,229.077 126.773,229.743 125.5,230.5C 124.537,230.03 124.537,229.363 125.5,228.5 Z"/></g>
<g><path style="opacity:1" fill="#bdbdbd" d="M 128.5,228.5 C 130.337,228.639 130.67,229.306 129.5,230.5C 128.702,230.043 128.369,229.376 128.5,228.5 Z"/></g>
<g><path style="opacity:1" fill="#202020" d="M 162.5,206.5 C 162.833,206.5 163.167,206.5 163.5,206.5C 164.167,206.5 164.833,206.5 165.5,206.5C 164.506,209.399 165.506,210.066 168.5,208.5C 168.56,209.043 168.893,209.376 169.5,209.5C 170.532,207.96 171.865,207.46 173.5,208C 172.922,209.417 171.922,210.25 170.5,210.5C 169.5,210.5 168.5,210.5 167.5,210.5C 167.285,212.179 167.952,213.179 169.5,213.5C 169.413,216.598 169.913,216.932 171,214.5C 171.692,215.025 172.192,215.692 172.5,216.5C 171.452,217.548 170.452,218.548 169.5,219.5C 169.56,220.043 169.893,220.376 170.5,220.5C 171.182,219.757 171.849,219.091 172.5,218.5C 172.5,219.833 173.167,220.5 174.5,220.5C 173.5,221.5 172.5,222.5 171.5,223.5C 170.5,220.833 169.5,220.833 168.5,223.5C 168.5,223.833 168.5,224.167 168.5,224.5C 165.833,225.167 165.833,225.833 168.5,226.5C 169.492,226.328 170.158,226.662 170.5,227.5C 167.833,228.167 167.833,228.833 170.5,229.5C 170.068,230.71 169.401,231.71 168.5,232.5C 168.053,230.027 167.053,229.86 165.5,232C 166.244,233.039 167.244,233.539 168.5,233.5C 169.492,233.328 170.158,233.662 170.5,234.5C 167.833,235.167 167.833,235.833 170.5,236.5C 169.341,237.74 168.341,239.074 167.5,240.5C 166.784,237.988 165.784,237.988 164.5,240.5C 164.957,241.298 165.624,241.631 166.5,241.5C 166.068,242.71 165.401,243.71 164.5,244.5C 164.154,242.295 163.487,242.128 162.5,244C 162.836,245.03 163.503,245.53 164.5,245.5C 165.492,245.328 166.158,245.662 166.5,246.5C 165.167,246.5 164.5,247.167 164.5,248.5C 164.768,250.099 164.434,251.432 163.5,252.5C 163.5,252.833 163.5,253.167 163.5,253.5C 162.222,253.782 161.222,254.449 160.5,255.5C 160.5,254.167 159.833,253.5 158.5,253.5C 157.508,253.672 156.842,253.338 156.5,252.5C 159.167,251.833 159.167,251.167 156.5,250.5C 157.5,249.5 158.5,248.5 159.5,247.5C 160.077,248.773 160.743,248.773 161.5,247.5C 161.043,246.702 160.376,246.369 159.5,246.5C 158.508,246.672 157.842,246.338 157.5,245.5C 160.167,244.5 160.167,243.5 157.5,242.5C 157.5,242.167 157.5,241.833 157.5,241.5C 157.5,240.833 157.5,240.167 157.5,239.5C 157.5,238.833 157.833,238.5 158.5,238.5C 161.218,236.577 160.884,235.244 157.5,234.5C 156.522,234.189 155.855,233.522 155.5,232.5C 157.978,230.436 157.978,228.436 155.5,226.5C 155.624,225.893 155.957,225.56 156.5,225.5C 157.077,226.773 157.743,226.773 158.5,225.5C 158.043,224.702 157.376,224.369 156.5,224.5C 156.842,223.662 157.508,223.328 158.5,223.5C 159.675,223.719 160.675,223.386 161.5,222.5C 160.216,219.988 159.216,219.988 158.5,222.5C 154.995,222.306 154.662,221.306 157.5,219.5C 159.028,219.483 159.528,218.816 159,217.5C 158.23,216.402 157.397,216.402 156.5,217.5C 155.167,215.833 155.167,214.167 156.5,212.5C 159.261,213.35 159.928,212.35 158.5,209.5C 158.833,209.5 159.167,209.5 159.5,209.5C 160.5,209.5 161.5,209.5 162.5,209.5C 162.5,208.5 162.5,207.5 162.5,206.5 Z"/></g>
<g><path style="opacity:1" fill="#f1f1f1" d="M 158.5,227.5 C 161.674,227.952 162.007,228.952 159.5,230.5C 158.614,229.675 158.281,228.675 158.5,227.5 Z"/></g>
<g><path style="opacity:1" fill="#dfdfdf" d="M 163.5,227.5 C 164.675,227.281 165.675,227.614 166.5,228.5C 164.948,229.798 163.948,229.465 163.5,227.5 Z"/></g>
<g><path style="opacity:1" fill="#acacac" d="M 161.5,224.5 C 163.337,224.639 163.67,225.306 162.5,226.5C 161.702,226.043 161.369,225.376 161.5,224.5 Z"/></g>
<g><path style="opacity:1" fill="#e0e0e0" d="M 171.5,223.5 C 170.5,223.5 169.5,223.5 168.5,223.5C 169.5,220.833 170.5,220.833 171.5,223.5 Z"/></g>
<g><path style="opacity:1" fill="#dbdbdb" d="M 164.5,220.5 C 166.625,221.368 166.791,222.368 165,223.5C 163.317,222.824 163.15,221.824 164.5,220.5 Z"/></g>
<g><path style="opacity:1" fill="#e4e4e4" d="M 169.5,219.5 C 166.203,219.671 165.869,219.005 168.5,217.5C 169.298,217.957 169.631,218.624 169.5,219.5 Z"/></g>
<g><path style="opacity:1" fill="#e8e8e8" d="M 161.5,217.5 C 162.675,217.281 163.675,217.614 164.5,218.5C 162.948,219.798 161.948,219.465 161.5,217.5 Z"/></g>
<g><path style="opacity:1" fill="#e9e9e9" d="M 164.5,213.5 C 168.31,214.754 168.31,215.754 164.5,216.5C 164.5,215.5 164.5,214.5 164.5,213.5 Z"/></g>
<g><path style="opacity:1" fill="#d8d8d8" d="M 159.5,213.5 C 161.465,213.948 161.798,214.948 160.5,216.5C 159.614,215.675 159.281,214.675 159.5,213.5 Z"/></g>
<g><path style="opacity:1" fill="#e5e5e5" d="M 164.5,213.5 C 162.535,213.052 162.202,212.052 163.5,210.5C 164.386,211.325 164.719,212.325 164.5,213.5 Z"/></g>
<g><path style="opacity:1" fill="#959595" d="M 134.5,231.5 C 136.337,231.639 136.67,232.306 135.5,233.5C 134.702,233.043 134.369,232.376 134.5,231.5 Z"/></g>
<g><path style="opacity:1" fill="#dddddd" d="M 160.5,231.5 C 163.957,231.667 164.29,232.667 161.5,234.5C 160.614,233.675 160.281,232.675 160.5,231.5 Z"/></g>
<g><path style="opacity:1" fill="#d3d3d3" d="M 168.5,232.5 C 168.5,232.833 168.5,233.167 168.5,233.5C 167.244,233.539 166.244,233.039 165.5,232C 167.053,229.86 168.053,230.027 168.5,232.5 Z"/></g>
<g><path style="opacity:1" fill="#e4e4e4" d="M 128.5,235.5 C 126.535,235.052 126.202,234.052 127.5,232.5C 128.386,233.325 128.719,234.325 128.5,235.5 Z"/></g>
<g><path style="opacity:1" fill="#888888" d="M 175.5,231.5 C 177.337,231.639 177.67,232.306 176.5,233.5C 175.702,233.043 175.369,232.376 175.5,231.5 Z"/></g>
<g><path style="opacity:1" fill="#303030" d="M 193.5,225.5 C 194.156,226.622 194.489,227.955 194.5,229.5C 194.402,233.7 193.735,236.367 192.5,237.5C 192.505,233.466 192.838,229.466 193.5,225.5 Z"/></g>
<g><path style="opacity:1" fill="#e8e8e8" d="M 130.5,232.5 C 132.337,232.639 132.67,233.306 131.5,234.5C 130.702,234.043 130.369,233.376 130.5,232.5 Z"/></g>
<g><path style="opacity:1" fill="#dedede" d="M 157.5,234.5 C 160.884,235.244 161.218,236.577 158.5,238.5C 157.766,237.292 157.433,235.959 157.5,234.5 Z"/></g>
<g><path style="opacity:1" fill="#d8d8d8" d="M 163.5,234.5 C 165.355,234.272 166.188,234.939 166,236.5C 163.192,237.86 162.359,237.193 163.5,234.5 Z"/></g>
<g><path style="opacity:1" fill="#fdfdfd" d="M 170.5,234.5 C 170.5,235.167 170.5,235.833 170.5,236.5C 167.833,235.833 167.833,235.167 170.5,234.5 Z"/></g>
<g><path style="opacity:1" fill="#c8c8c8" d="M 150.5,234.5 C 152.465,234.948 152.798,235.948 151.5,237.5C 150.614,236.675 150.281,235.675 150.5,234.5 Z"/></g>
<g><path style="opacity:1" fill="#b8b8b8" d="M 173.5,234.5 C 175.973,234.947 176.14,235.947 174,237.5C 173.517,236.552 173.351,235.552 173.5,234.5 Z"/></g>
<g><path style="opacity:1" fill="#aeaeae" d="M 128.5,235.5 C 130.048,235.821 130.715,236.821 130.5,238.5C 127.752,238.598 127.086,237.598 128.5,235.5 Z"/></g>
<g><path style="opacity:1" fill="#dedede" d="M 132.5,235.5 C 134.337,235.639 134.67,236.306 133.5,237.5C 132.702,237.043 132.369,236.376 132.5,235.5 Z"/></g>
<g><path style="opacity:1" fill="#c0c0c0" d="M 124.5,237.5 C 126.337,237.639 126.67,238.306 125.5,239.5C 124.702,239.043 124.369,238.376 124.5,237.5 Z"/></g>
<g><path style="opacity:1" fill="#dbdbdb" d="M 167.5,240.5 C 167.5,241.167 167.167,241.5 166.5,241.5C 165.624,241.631 164.957,241.298 164.5,240.5C 165.784,237.988 166.784,237.988 167.5,240.5 Z"/></g>
<g><path style="opacity:1" fill="#4f4f4f" d="M 188.5,232.5 C 188.216,234.415 188.549,236.081 189.5,237.5C 188.838,241.466 188.505,245.466 188.5,249.5C 187.596,248.791 187.263,247.791 187.5,246.5C 187.181,241.637 187.514,236.97 188.5,232.5 Z"/></g>
<g><path style="opacity:1" fill="#f2f2f2" d="M 227.5,238.5 C 233.995,239.992 237.662,243.992 238.5,250.5C 231.425,249.754 227.758,245.754 227.5,238.5 Z"/></g>
<g><path style="opacity:1" fill="#dedede" d="M 160.5,238.5 C 162.048,238.821 162.715,239.821 162.5,241.5C 159.752,241.598 159.086,240.598 160.5,238.5 Z"/></g>
<g><path style="opacity:1" fill="#e8e8e8" d="M 170.5,238.5 C 171.675,238.281 172.675,238.614 173.5,239.5C 171.948,240.798 170.948,240.465 170.5,238.5 Z"/></g>
<g><path style="opacity:1" fill="#eaeaea" d="M 175.5,238.5 C 177.337,238.639 177.67,239.306 176.5,240.5C 175.702,240.043 175.369,239.376 175.5,238.5 Z"/></g>
<g><path style="opacity:1" fill="#888888" d="M 196.5,214.5 C 196.5,215.167 196.833,215.5 197.5,215.5C 197.263,216.791 197.596,217.791 198.5,218.5C 198.768,220.099 198.434,221.432 197.5,222.5C 196.104,226.232 195.104,231.398 194.5,238C 194.514,239.385 194.848,240.551 195.5,241.5C 195.737,242.791 195.404,243.791 194.5,244.5C 193.583,244.494 193.083,245.494 193,247.5C 192.814,244.964 192.314,242.631 191.5,240.5C 191.263,239.209 191.596,238.209 192.5,237.5C 193.735,236.367 194.402,233.7 194.5,229.5C 194.489,227.955 194.156,226.622 193.5,225.5C 193.232,223.901 193.566,222.568 194.5,221.5C 194.351,222.552 194.517,223.552 195,224.5C 195.179,220.975 195.679,217.641 196.5,214.5 Z"/></g>
<g><path style="opacity:1" fill="#dadada" d="M 125.5,240.5 C 128.957,240.667 129.29,241.667 126.5,243.5C 125.614,242.675 125.281,241.675 125.5,240.5 Z"/></g>
<g><path style="opacity:1" fill="#ebebeb" d="M 130.5,239.5 C 132.465,239.948 132.798,240.948 131.5,242.5C 130.614,241.675 130.281,240.675 130.5,239.5 Z"/></g>
<g><path style="opacity:1" fill="#cfcfcf" d="M 143.5,239.5 C 145.337,239.639 145.67,240.306 144.5,241.5C 143.702,241.043 143.369,240.376 143.5,239.5 Z"/></g>
<g><path style="opacity:1" fill="#dbdbdb" d="M 157.5,239.5 C 157.5,240.167 157.5,240.833 157.5,241.5C 154.833,240.833 154.833,240.167 157.5,239.5 Z"/></g>
<g><path style="opacity:1" fill="#e6e6e6" d="M 164.5,244.5 C 164.5,244.833 164.5,245.167 164.5,245.5C 163.503,245.53 162.836,245.03 162.5,244C 163.487,242.128 164.154,242.295 164.5,244.5 Z"/></g>
<g><path style="opacity:1" fill="#d0d0d0" d="M 168.5,241.5 C 171.041,242.623 171.041,243.956 168.5,245.5C 167.374,244.192 167.374,242.858 168.5,241.5 Z"/></g>
<g><path style="opacity:1" fill="#d8d8d8" d="M 172.5,241.5 C 173.978,241.238 175.311,241.571 176.5,242.5C 174.537,245.194 173.203,244.861 172.5,241.5 Z"/></g>
<g><path style="opacity:1" fill="#d2d2d2" d="M 149.5,243.5 C 150.675,243.281 151.675,243.614 152.5,244.5C 150.948,245.798 149.948,245.465 149.5,243.5 Z"/></g>
<g><path style="opacity:1" fill="#f1f1f1" d="M 157.5,242.5 C 160.167,243.5 160.167,244.5 157.5,245.5C 157.5,244.5 157.5,243.5 157.5,242.5 Z"/></g>
<g><path style="opacity:1" fill="#dbdbdb" d="M 128.5,243.5 C 130.048,243.821 130.715,244.821 130.5,246.5C 127.752,246.598 127.086,245.598 128.5,243.5 Z"/></g>
<g><path style="opacity:1" fill="#afafaf" d="M 134.5,240.5 C 135.478,240.811 136.145,241.478 136.5,242.5C 136.047,244.565 135.047,246.232 133.5,247.5C 133.167,247 132.833,246.5 132.5,246C 133.856,244.433 134.523,242.6 134.5,240.5 Z"/></g>
<g><path style="opacity:1" fill="#f7f7f7" d="M 159.5,246.5 C 160.376,246.369 161.043,246.702 161.5,247.5C 160.743,248.773 160.077,248.773 159.5,247.5C 159.5,247.167 159.5,246.833 159.5,246.5 Z"/></g>
<g><path style="opacity:1" fill="#c5c5c5" d="M 169.5,246.5 C 170.675,246.281 171.675,246.614 172.5,247.5C 170.948,248.798 169.948,248.465 169.5,246.5 Z"/></g>
<g><path style="opacity:1" fill="#f6f6f6" d="M 166.5,246.5 C 166.5,247.833 165.833,248.5 164.5,248.5C 164.5,247.167 165.167,246.5 166.5,246.5 Z"/></g>
<g><path style="opacity:1" fill="#979797" d="M 175.5,246.5 C 177.337,246.639 177.67,247.306 176.5,248.5C 175.702,248.043 175.369,247.376 175.5,246.5 Z"/></g>
<g><path style="opacity:1" fill="#d5d5d5" d="M 125.5,247.5 C 127.337,247.639 127.67,248.306 126.5,249.5C 125.702,249.043 125.369,248.376 125.5,247.5 Z"/></g>
<g><path style="opacity:1" fill="#b8b8b8" d="M 130.5,247.5 C 132.332,248.14 132.665,249.14 131.5,250.5C 129.481,249.867 129.147,248.867 130.5,247.5 Z"/></g>
<g><path style="opacity:1" fill="#a2a2a2" d="M 147.5,247.5 C 148.376,247.369 149.043,247.702 149.5,248.5C 147.192,249.873 146.525,249.54 147.5,247.5 Z"/></g>
<g><path style="opacity:1" fill="#141414" d="M 183.5,230.5 C 184.338,230.842 184.672,231.508 184.5,232.5C 183.833,246.833 183.167,261.167 182.5,275.5C 181.539,273.735 181.205,271.735 181.5,269.5C 182.291,256.507 182.958,243.507 183.5,230.5 Z"/></g>
<g><path style="opacity:1" fill="#f6f6f6" d="M 166.5,249.5 C 168.337,249.639 168.67,250.306 167.5,251.5C 166.702,251.043 166.369,250.376 166.5,249.5 Z"/></g>
<g><path style="opacity:1" fill="#fefefe" d="M 156.5,250.5 C 159.167,251.167 159.167,251.833 156.5,252.5C 156.5,251.833 156.5,251.167 156.5,250.5 Z"/></g>
<g><path style="opacity:1" fill="#fdfdfd" d="M 163.5,252.5 C 161.663,252.361 161.33,251.694 162.5,250.5C 163.298,250.957 163.631,251.624 163.5,252.5 Z"/></g>
<g><path style="opacity:1" fill="#a2a2a2" d="M 172.5,249.5 C 174.337,249.639 174.67,250.306 173.5,251.5C 172.702,251.043 172.369,250.376 172.5,249.5 Z"/></g>
<g><path style="opacity:1" fill="#c3c3c3" d="M 126.5,251.5 C 127.675,251.281 128.675,251.614 129.5,252.5C 127.948,253.798 126.948,253.465 126.5,251.5 Z"/></g>
<g><path style="opacity:1" fill="#b5b5b5" d="M 144.5,250.5 C 145.376,250.369 146.043,250.702 146.5,251.5C 144.192,252.873 143.525,252.54 144.5,250.5 Z"/></g>
<g><path style="opacity:1" fill="#dadada" d="M 173.5,254.5 C 174.386,253.224 175.386,253.224 176.5,254.5C 175.575,255.562 174.575,255.562 173.5,254.5 Z"/></g>
<g><path style="opacity:1" fill="#dcdcdc" d="M 158.5,253.5 C 159.833,253.5 160.5,254.167 160.5,255.5C 160.44,256.043 160.107,256.376 159.5,256.5C 158.614,255.675 158.281,254.675 158.5,253.5 Z"/></g>
<g><path style="opacity:1" fill="#e9e9e9" d="M 163.5,253.5 C 165.337,253.639 165.67,254.306 164.5,255.5C 163.702,255.043 163.369,254.376 163.5,253.5 Z"/></g>
<g><path style="opacity:1" fill="#eeeeee" d="M 168.5,253.5 C 170.337,253.639 170.67,254.306 169.5,255.5C 168.702,255.043 168.369,254.376 168.5,253.5 Z"/></g>
<g><path style="opacity:1" fill="#c0c0c0" d="M 125.5,255.5 C 127.337,255.639 127.67,256.306 126.5,257.5C 125.702,257.043 125.369,256.376 125.5,255.5 Z"/></g>
<g><path style="opacity:1" fill="#808080" d="M 129.5,254.5 C 131.337,254.639 131.67,255.306 130.5,256.5C 129.702,256.043 129.369,255.376 129.5,254.5 Z"/></g>
<g><path style="opacity:1" fill="#838383" d="M 142.5,254.5 C 143.776,255.386 143.776,256.386 142.5,257.5C 141.438,256.575 141.438,255.575 142.5,254.5 Z"/></g>
<g><path style="opacity:1" fill="#cacaca" d="M 161.5,256.5 C 163.048,256.821 163.715,257.821 163.5,259.5C 160.752,259.598 160.086,258.598 161.5,256.5 Z"/></g>
<g><path style="opacity:1" fill="#fbfbfb" d="M 111.5,258.5 C 112.156,259.622 112.489,260.955 112.5,262.5C 111.778,269.502 111.111,276.502 110.5,283.5C 110.527,286.23 109.86,288.73 108.5,291C 108.439,292.711 109.106,294.044 110.5,295C 109.101,296.062 108.101,297.395 107.5,299C 108.627,300.057 109.127,301.223 109,302.5C 99.414,308.709 89.914,315.043 80.5,321.5C 75.6202,316.113 71.2868,310.28 67.5,304C 81.6729,288.994 96.0062,274.161 110.5,259.5C 110.5,258.833 110.833,258.5 111.5,258.5 Z"/></g>
<g><path style="opacity:1" fill="#c8c8c8" d="M 158.5,260.5 C 156.535,260.052 156.202,259.052 157.5,257.5C 159.519,258.133 159.853,259.133 158.5,260.5 Z"/></g>
<g><path style="opacity:1" fill="#bdbdbd" d="M 166.5,256.5 C 168.048,256.821 168.715,257.821 168.5,259.5C 165.752,259.598 165.086,258.598 166.5,256.5 Z"/></g>
<g><path style="opacity:1" fill="#e0e0e0" d="M 175.5,257.5 C 177.337,257.639 177.67,258.306 176.5,259.5C 175.702,259.043 175.369,258.376 175.5,257.5 Z"/></g>
<g><path style="opacity:1" fill="#969696" d="M 187.5,246.5 C 187.263,247.791 187.596,248.791 188.5,249.5C 188.216,251.415 188.549,253.081 189.5,254.5C 189.162,256.854 188.662,259.187 188,261.5C 187.817,258.635 187.317,255.969 186.5,253.5C 186.198,250.941 186.532,248.607 187.5,246.5 Z"/></g>
<g><path style="opacity:1" fill="#d2d2d2" d="M 122.5,258.5 C 124.973,258.947 125.14,259.947 123,261.5C 122.517,260.552 122.351,259.552 122.5,258.5 Z"/></g>
<g><path style="opacity:1" fill="#828282" d="M 139.5,259.5 C 141.337,259.639 141.67,260.306 140.5,261.5C 139.702,261.043 139.369,260.376 139.5,259.5 Z"/></g>
<g><path style="opacity:1" fill="#c2c2c2" d="M 158.5,260.5 C 160.465,260.948 160.798,261.948 159.5,263.5C 158.614,262.675 158.281,261.675 158.5,260.5 Z"/></g>
<g><path style="opacity:1" fill="#cccccc" d="M 125.5,261.5 C 126.573,262.251 126.74,263.251 126,264.5C 124.272,263.648 124.105,262.648 125.5,261.5 Z"/></g>
<g><path style="opacity:1" fill="#f5f5f5" d="M 162.5,264.5 C 162.5,265.833 161.833,266.5 160.5,266.5C 160.5,265.167 161.167,264.5 162.5,264.5 Z"/></g>
<g><path style="opacity:1" fill="#d8d8d8" d="M 165.5,263.5 C 167.465,263.948 167.798,264.948 166.5,266.5C 165.614,265.675 165.281,264.675 165.5,263.5 Z"/></g>
<g><path style="opacity:1" fill="#a6a6a6" d="M 156.5,264.5 C 158.048,264.821 158.715,265.821 158.5,267.5C 155.752,267.598 155.086,266.598 156.5,264.5 Z"/></g>
<g><path style="opacity:1" fill="#626262" d="M 162.5,264.5 C 163.479,265.765 164.479,267.099 165.5,268.5C 165,268.833 164.5,269.167 164,269.5C 162.636,268.629 161.47,267.629 160.5,266.5C 161.833,266.5 162.5,265.833 162.5,264.5 Z"/></g>
<g><path style="opacity:1" fill="#818181" d="M 124.5,267.5 C 126.337,267.639 126.67,268.306 125.5,269.5C 124.702,269.043 124.369,268.376 124.5,267.5 Z"/></g>
<g><path style="opacity:1" fill="#b1b1b1" d="M 136.5,267.5 C 138.337,267.639 138.67,268.306 137.5,269.5C 136.702,269.043 136.369,268.376 136.5,267.5 Z"/></g>
<g><path style="opacity:1" fill="#fbfbfb" d="M 168.5,274.5 C 169.338,274.158 169.672,273.492 169.5,272.5C 171.265,271.539 173.265,271.205 175.5,271.5C 175.5,272.833 175.5,274.167 175.5,275.5C 172.941,275.802 170.607,275.468 168.5,274.5 Z"/></g>
<g><path style="opacity:1" fill="#eaeaea" d="M 151.5,271.5 C 154.247,272.966 157.247,273.799 160.5,274C 161.833,275 161.833,276 160.5,277C 153.19,276.208 145.857,276.374 138.5,277.5C 138.137,275.089 139.137,273.589 141.5,273C 145.025,272.821 148.359,272.321 151.5,271.5 Z"/></g>
<g><path style="opacity:1" fill="#efefef" d="M 124.5,273.5 C 127.187,273.336 129.854,273.503 132.5,274C 133.747,275.494 133.747,276.994 132.5,278.5C 129.916,277.607 127.249,277.274 124.5,277.5C 124.5,276.167 124.5,274.833 124.5,273.5 Z"/></g>
<g><path style="opacity:1" fill="#727272" d="M 169.5,272.5 C 169.672,273.492 169.338,274.158 168.5,274.5C 167.251,275.778 165.751,276.778 164,277.5C 164.211,274.42 166.044,272.753 169.5,272.5 Z"/></g>
<g><path style="opacity:1" fill="#4a4a4a" d="M 181.5,269.5 C 181.205,271.735 181.539,273.735 182.5,275.5C 182.806,278.385 182.473,281.052 181.5,283.5C 181.795,281.265 181.461,279.265 180.5,277.5C 180.194,274.615 180.527,271.948 181.5,269.5 Z"/></g>
<g><path style="opacity:1" fill="#e8e8e8" d="M 184.5,222.5 C 183.527,224.948 183.194,227.615 183.5,230.5C 182.958,243.507 182.291,256.507 181.5,269.5C 180.527,271.948 180.194,274.615 180.5,277.5C 179.793,285.146 179.46,292.813 179.5,300.5C 176.401,300.908 174.067,299.741 172.5,297C 167.355,296.093 163.688,293.259 161.5,288.5C 165.711,286.475 170.045,284.642 174.5,283C 176.726,281.773 178.226,279.939 179,277.5C 179.333,256.5 179.667,235.5 180,214.5C 181.019,213.313 182.186,212.313 183.5,211.5C 184.489,215.107 184.823,218.774 184.5,222.5 Z"/></g>
<g><path style="opacity:1" fill="#cbcbcb" d="M 115.5,276.5 C 115.814,280.394 114.647,283.727 112,286.5C 111.536,285.906 111.369,285.239 111.5,284.5C 112.62,281.635 113.953,278.968 115.5,276.5 Z"/></g>
<g><path style="opacity:1" fill="#808080" d="M 117.5,284.5 C 119.337,284.639 119.67,285.306 118.5,286.5C 117.702,286.043 117.369,285.376 117.5,284.5 Z"/></g>
<g><path style="opacity:1" fill="#f0f0f0" d="M 156.5,285.5 C 157.833,285.5 159.167,285.5 160.5,285.5C 160.954,292.467 164.62,296.967 171.5,299C 164.5,299.667 157.5,299.667 150.5,299C 149.431,293.208 151.431,288.708 156.5,285.5 Z"/></g>
<g><path style="opacity:1" fill="#f1f1f1" d="M 121.5,287.5 C 125.547,288.018 129.547,288.852 133.5,290C 134.423,292.041 134.756,294.208 134.5,296.5C 126.611,298.055 118.611,299.055 110.5,299.5C 110.809,296.654 112.475,295.154 115.5,295C 117.629,292.561 119.629,290.061 121.5,287.5 Z"/></g>
<g><path style="opacity:1" fill="#f0f0f0" d="M 121.5,301.5 C 125.514,301.334 129.514,301.501 133.5,302C 134.867,304.301 135.534,306.801 135.5,309.5C 127.833,310.167 120.167,310.833 112.5,311.5C 111.375,304.296 114.375,300.963 121.5,301.5 Z"/></g>
<g><path style="opacity:1" fill="#f4f4f4" d="M 136.5,301.5 C 157.519,301.79 178.519,302.624 199.5,304C 201.209,305.916 202.543,308.082 203.5,310.5C 182.169,311.412 160.835,311.245 139.5,310C 137.804,307.413 136.804,304.579 136.5,301.5 Z"/></g>
<g><path style="opacity:1" fill="#e9e9e9" d="M 108.5,305.5 C 111.041,307.44 111.041,309.607 108.5,312C 100.369,316.635 92.3687,321.468 84.5,326.5C 82.5104,325.537 82.1771,324.204 83.5,322.5C 92.1481,317.166 100.481,311.499 108.5,305.5 Z"/></g>
<g><path style="opacity:1" fill="#f8f8f8" d="M 135.5,312.5 C 160.83,313.534 186.163,314.534 211.5,315.5C 213.839,319.184 215.172,323.184 215.5,327.5C 190.164,327.206 164.831,326.706 139.5,326C 137.866,321.598 136.533,317.098 135.5,312.5 Z"/></g>
<g><path style="opacity:1" fill="#f4f4f4" d="M 124.5,312.5 C 127.448,312.223 130.281,312.556 133,313.5C 134.314,317.754 135.147,322.087 135.5,326.5C 125.842,327.287 116.176,327.954 106.5,328.5C 106.186,323.817 106.852,319.317 108.5,315C 114.081,314.85 119.414,314.017 124.5,312.5 Z"/></g>
<g><path style="opacity:1" fill="#f2f2f2" d="M 102.5,317.5 C 103.649,317.791 104.316,318.624 104.5,320C 103.946,322.824 103.446,325.657 103,328.5C 99.2935,331.608 95.1269,333.442 90.5,334C 88.3619,332.578 87.1953,330.745 87,328.5C 92.4971,325.18 97.6638,321.513 102.5,317.5 Z"/></g>
<g><path style="opacity:1" fill="#dedede" d="M 129.5,328.5 C 132.833,328.5 136.167,328.5 139.5,328.5C 139.5,329.833 139.5,331.167 139.5,332.5C 127.48,332.835 115.48,333.502 103.5,334.5C 103.5,333.5 103.5,332.5 103.5,331.5C 112.391,331.206 121.058,330.206 129.5,328.5 Z"/></g>
<g><path style="opacity:1" fill="#dedede" d="M 142.5,328.5 C 240.984,331.015 240.984,332.015 142.5,331.5C 142.5,330.5 142.5,329.5 142.5,328.5 Z"/></g>
<g><path style="opacity:1" fill="#d8d8d8" d="M 98.5,333.5 C 100.028,333.517 100.528,334.184 100,335.5C 93.4724,339.446 92.9724,338.779 98.5,333.5 Z"/></g>
</svg>
