<?xml version="1.0" encoding="UTF-8"?>
<svg version="1.1" xmlns="http://www.w3.org/2000/svg" width="30" height="30">
<path d="M0 0 C6.6 0 13.2 0 20 0 C20.103125 3.135 20.20625 6.27 20.3125 9.5 C20.38078003 10.95696289 20.38078003 10.95696289 20.45043945 12.44335938 C20.55076777 18.80741081 19.22839016 23.15554802 15 28 C12 30 12 30 9.6875 30.0625 C5.68011668 28.47818566 3.41611696 25.5018404 1 22 C0.05862745 19.17588235 -0.11725382 17.47081968 -0.09765625 14.55078125 C-0.09515869 13.78677002 -0.09266113 13.02275879 -0.09008789 12.2355957 C-0.07643188 10.78866333 -0.07643188 10.78866333 -0.0625 9.3125 C-0.041875 6.239375 -0.02125 3.16625 0 0 Z " fill="#939191" transform="translate(5,0)"/>
<path d="M0 0 C6.6 0 13.2 0 20 0 C20 6.6 20 13.2 20 20 C19.67 20 19.34 20 19 20 C19 16.04 19 12.08 19 8 C17.68 8.99 16.36 9.98 15 11 C12.25 11.1875 12.25 11.1875 10 11 C10.515625 11.350625 11.03125 11.70125 11.5625 12.0625 C13 14 13 14 12.6875 17.6875 C12.460625 18.780625 12.23375 19.87375 12 21 C10.35 21.33 8.7 21.66 7 22 C7 17.38 7 12.76 7 8 C8.32 7.34 9.64 6.68 11 6 C11.66 4.35 12.32 2.7 13 1 C9.04 1 5.08 1 1 1 C1 6.94 1 12.88 1 19 C0.67 19 0.34 19 0 19 C0 12.73 0 6.46 0 0 Z " fill="#595656" transform="translate(5,0)"/>
<path d="M0 0 C3.96 0 7.92 0 12 0 C10.09203866 4.76990335 9.68172541 5.60384847 5.9375 8.4375 C2.95980632 10.89288574 2.11233711 11.6138412 1 15.4375 C1 16.283125 1 17.12875 1 18 C0.67 18 0.34 18 0 18 C0 12.06 0 6.12 0 0 Z " fill="#989696" transform="translate(6,1)"/>
<path d="M0 0 C0.66 0 1.32 0 2 0 C2 3.3 2 6.6 2 10 C1.01 10 0.02 10 -1 10 C-1.33 9.01 -1.66 8.02 -2 7 C-2 7.99 -2 8.98 -2 10 C-2.66 10 -3.32 10 -4 10 C-4.103125 9.236875 -4.20625 8.47375 -4.3125 7.6875 C-5.04364039 4.82940576 -5.76951913 3.84257115 -8 2 C-7.05125 2.04125 -6.1025 2.0825 -5.125 2.125 C-1.89755144 2.34973818 -1.89755144 2.34973818 0 0 Z " fill="#C8C7C7" transform="translate(22,8)"/>
<path d="M0 0 C1.23621824 2.47243647 0.98408601 3.77317939 0.6875 6.5 C0.60886719 7.2940625 0.53023437 8.088125 0.44921875 8.90625 C0 11 0 11 -2 13 C-2 13.99 -2 14.98 -2 16 C-3.50390625 14.77734375 -3.50390625 14.77734375 -5 13 C-5.45077636 8.54960796 -4.73694308 4.91559595 -1.9375 1.4375 C-1.298125 0.963125 -0.65875 0.48875 0 0 Z " fill="#322F2F" transform="translate(11,9)"/>
<path d="M0 0 C0 3 0 3 -1.6875 4.75 C-4 6 -4 6 -6.5625 5.9375 C-9.47355099 4.817865 -10.2554654 3.51314115 -12 1 C-11.21753906 1.01160156 -10.43507813 1.02320312 -9.62890625 1.03515625 C-8.61699219 1.04417969 -7.60507813 1.05320312 -6.5625 1.0625 C-5.04849609 1.07990234 -5.04849609 1.07990234 -3.50390625 1.09765625 C-1.05978933 1.28612676 -1.05978933 1.28612676 0 0 Z " fill="#615E5E" transform="translate(21,24)"/>
<path d="M0 0 C3.96 0 7.92 0 12 0 C11.67 0.66 11.34 1.32 11 2 C3.25 2.125 3.25 2.125 1 1 C1.350625 1.94875 1.70125 2.8975 2.0625 3.875 C3 7 3 7 2 9 C1.77532169 10.53668865 1.59203195 12.07968054 1.4375 13.625 C1.35371094 14.44226562 1.26992187 15.25953125 1.18359375 16.1015625 C1.12300781 16.72804688 1.06242188 17.35453125 1 18 C0.67 18 0.34 18 0 18 C0 12.06 0 6.12 0 0 Z " fill="#B4B3B3" transform="translate(6,1)"/>
<path d="M0 0 C1.32 0 2.64 0 4 0 C4.25 3.3125 4.25 3.3125 4 7 C2 8.9375 2 8.9375 0 10 C-0.19412181 8.52168779 -0.38012131 7.04230684 -0.5625 5.5625 C-0.66691406 4.73878906 -0.77132813 3.91507812 -0.87890625 3.06640625 C-0.91886719 2.38449219 -0.95882813 1.70257812 -1 1 C-0.67 0.67 -0.34 0.34 0 0 Z " fill="#272323" transform="translate(19,1)"/>
<path d="M0 0 C0.66 1.32 1.32 2.64 2 4 C-0.64 4.33 -3.28 4.66 -6 5 C-5.67 4.01 -5.34 3.02 -5 2 C-2.4375 0.8125 -2.4375 0.8125 0 0 Z " fill="#D8D7D7" transform="translate(20,19)"/>
<path d="M0 0 C2.64 0 5.28 0 8 0 C7.01 1.485 7.01 1.485 6 3 C3.5625 2.625 3.5625 2.625 1 2 C0.67 1.34 0.34 0.68 0 0 Z " fill="#252121" transform="translate(11,25)"/>
<path d="M0 0 C0.66 0 1.32 0 2 0 C2.33 1.65 2.66 3.3 3 5 C1.68 4.67 0.36 4.34 -1 4 C-1 1 -1 1 0 0 Z " fill="#C3C2C2" transform="translate(10,20)"/>
<path d="M0 0 C1.32 0.33 2.64 0.66 4 1 C3.67 2.98 3.34 4.96 3 7 C2.34 7 1.68 7 1 7 C0.67 4.69 0.34 2.38 0 0 Z " fill="#6C6A6A" transform="translate(14,12)"/>
<path d="M0 0 C0.66 0 1.32 0 2 0 C2 2.31 2 4.62 2 7 C1.67 6.34 1.34 5.68 1 5 C0.01 4.67 -0.98 4.34 -2 4 C-1.34 2.68 -0.68 1.36 0 0 Z " fill="#4E4B4B" transform="translate(17,3)"/>
</svg>
